<svg id="svg" version="1.1" xmlns="http://www.w3.org/2000/svg" xmlns:xlink="http://www.w3.org/1999/xlink" width="400" height="400" viewBox="0, 0, 400,400"><g id="svgg"><path id="path0" d="M170.400 27.200 C 170.400 27.867,170.118 28.008,168.700 28.046 C 165.950 28.121,165.797 28.167,165.856 28.900 C 165.901 29.469,165.582 29.600,164.156 29.600 C 162.703 29.600,162.400 29.730,162.400 30.353 C 162.400 30.770,162.043 31.200,161.600 31.316 C 161.160 31.431,160.800 31.812,160.800 32.163 C 160.800 32.543,160.438 32.819,159.900 32.846 C 157.618 32.963,157.763 32.818,157.646 35.100 C 157.614 35.718,157.349 36.000,156.800 36.000 C 156.133 36.000,156.000 36.267,156.000 37.600 C 156.000 38.933,155.867 39.200,155.200 39.200 C 154.491 39.200,154.400 39.467,154.400 41.553 C 154.400 43.570,154.286 43.937,153.600 44.116 C 152.920 44.294,152.800 44.662,152.800 46.563 C 152.800 48.533,152.705 48.800,152.000 48.800 C 151.289 48.800,151.200 49.067,151.200 51.200 C 151.200 53.333,151.111 53.600,150.400 53.600 C 149.691 53.600,149.600 53.867,149.600 55.953 C 149.600 57.970,149.486 58.337,148.800 58.516 C 148.070 58.707,148.000 59.062,148.000 62.563 C 148.000 66.133,147.944 66.400,147.200 66.400 C 146.415 66.400,146.400 66.667,146.400 80.637 C 146.400 94.538,146.419 94.880,147.200 95.084 C 148.777 95.497,148.169 96.800,146.400 96.800 C 145.067 96.800,144.800 96.933,144.800 97.600 C 144.800 98.311,144.533 98.400,142.400 98.400 C 140.267 98.400,140.000 98.489,140.000 99.200 C 140.000 99.911,139.733 100.000,137.600 100.000 C 135.467 100.000,135.200 100.089,135.200 100.800 C 135.200 101.467,134.918 101.608,133.500 101.646 C 130.750 101.721,130.597 101.767,130.656 102.500 C 130.701 103.069,130.382 103.200,128.956 103.200 C 127.467 103.200,127.200 103.322,127.200 104.000 C 127.200 104.667,126.933 104.800,125.600 104.800 C 124.267 104.800,124.000 104.933,124.000 105.600 C 124.000 106.305,123.733 106.400,121.763 106.400 C 119.862 106.400,119.494 106.520,119.316 107.200 C 119.195 107.662,118.746 108.020,118.253 108.046 C 116.385 108.147,116.202 108.225,116.256 108.900 C 116.295 109.394,116.000 109.614,115.256 109.646 C 113.186 109.737,113.001 109.808,113.056 110.500 C 113.094 110.987,112.820 111.200,112.156 111.200 C 111.467 111.200,111.200 111.423,111.200 112.000 C 111.200 112.667,110.933 112.800,109.600 112.800 C 108.267 112.800,108.000 112.933,108.000 113.600 C 108.000 114.267,107.733 114.400,106.400 114.400 C 105.067 114.400,104.800 114.533,104.800 115.200 C 104.800 115.749,104.518 116.014,103.900 116.046 C 101.986 116.144,101.802 116.221,101.856 116.900 C 101.894 117.387,101.620 117.600,100.956 117.600 C 100.267 117.600,100.000 117.823,100.000 118.400 C 100.000 118.949,99.718 119.214,99.100 119.246 C 97.186 119.344,97.002 119.421,97.056 120.100 C 97.094 120.587,96.820 120.800,96.156 120.800 C 95.467 120.800,95.200 121.023,95.200 121.600 C 95.200 122.149,94.918 122.414,94.300 122.446 C 92.386 122.544,92.202 122.621,92.256 123.300 C 92.294 123.787,92.020 124.000,91.356 124.000 C 90.667 124.000,90.400 124.223,90.400 124.800 C 90.400 125.333,90.133 125.600,89.600 125.600 C 89.067 125.600,88.800 125.867,88.800 126.400 C 88.800 126.933,88.533 127.200,88.000 127.200 C 87.467 127.200,87.200 127.467,87.200 128.000 C 87.200 128.549,86.918 128.814,86.300 128.846 C 84.386 128.944,84.202 129.021,84.256 129.700 C 84.294 130.187,84.020 130.400,83.356 130.400 C 82.667 130.400,82.400 130.623,82.400 131.200 C 82.400 131.733,82.133 132.000,81.600 132.000 C 81.067 132.000,80.800 132.267,80.800 132.800 C 80.800 133.333,80.533 133.600,80.000 133.600 C 79.467 133.600,79.200 133.867,79.200 134.400 C 79.200 134.933,78.933 135.200,78.400 135.200 C 77.867 135.200,77.600 135.467,77.600 136.000 C 77.600 136.533,77.333 136.800,76.800 136.800 C 76.267 136.800,76.000 137.067,76.000 137.600 C 76.000 138.133,75.733 138.400,75.200 138.400 C 74.667 138.400,74.400 138.667,74.400 139.200 C 74.400 139.733,74.133 140.000,73.600 140.000 C 73.067 140.000,72.800 140.267,72.800 140.800 C 72.800 141.333,72.533 141.600,72.000 141.600 C 71.467 141.600,71.200 141.867,71.200 142.400 C 71.200 142.933,70.933 143.200,70.400 143.200 C 69.867 143.200,69.600 143.467,69.600 144.000 C 69.600 144.465,69.333 144.800,68.963 144.800 C 68.612 144.800,68.231 145.160,68.116 145.600 C 68.000 146.043,67.570 146.400,67.153 146.400 C 66.667 146.400,66.400 146.683,66.400 147.200 C 66.400 147.733,66.133 148.000,65.600 148.000 C 65.083 148.000,64.800 148.267,64.800 148.753 C 64.800 149.170,64.443 149.600,64.000 149.716 C 63.539 149.836,63.200 150.262,63.200 150.718 C 63.200 151.228,62.950 151.491,62.500 151.456 C 61.821 151.402,61.744 151.586,61.646 153.500 C 61.614 154.118,61.349 154.400,60.800 154.400 C 60.267 154.400,60.000 154.667,60.000 155.200 C 60.000 155.733,59.733 156.000,59.200 156.000 C 58.623 156.000,58.400 156.267,58.400 156.956 C 58.400 157.620,58.187 157.894,57.700 157.856 C 57.021 157.802,56.944 157.986,56.846 159.900 C 56.814 160.518,56.549 160.800,56.000 160.800 C 55.483 160.800,55.200 161.067,55.200 161.553 C 55.200 161.970,54.843 162.400,54.400 162.516 C 53.787 162.676,53.600 163.062,53.600 164.163 C 53.600 165.333,53.452 165.600,52.800 165.600 C 52.283 165.600,52.000 165.867,52.000 166.353 C 52.000 166.770,51.643 167.200,51.200 167.316 C 50.587 167.476,50.400 167.862,50.400 168.963 C 50.400 170.133,50.252 170.400,49.600 170.400 C 48.933 170.400,48.800 170.667,48.800 172.000 C 48.800 173.333,48.667 173.600,48.000 173.600 C 47.333 173.600,47.200 173.867,47.200 175.200 C 47.200 176.533,47.067 176.800,46.400 176.800 C 45.737 176.800,45.600 177.067,45.600 178.353 C 45.600 179.570,45.427 179.952,44.800 180.116 C 44.187 180.276,44.000 180.662,44.000 181.763 C 44.000 182.933,43.852 183.200,43.200 183.200 C 42.537 183.200,42.400 183.467,42.400 184.753 C 42.400 185.970,42.227 186.352,41.600 186.516 C 40.969 186.681,40.800 187.062,40.800 188.318 C 40.800 189.590,40.659 189.900,40.100 189.856 C 39.367 189.797,39.321 189.950,39.246 192.700 C 39.208 194.118,39.067 194.400,38.400 194.400 C 37.691 194.400,37.600 194.667,37.600 196.753 C 37.600 198.770,37.486 199.137,36.800 199.316 C 36.089 199.502,36.000 199.862,36.000 202.563 C 36.000 205.333,35.930 205.600,35.200 205.600 C 34.467 205.600,34.400 205.867,34.400 208.800 C 34.400 211.733,34.333 212.000,33.600 212.000 C 32.844 212.000,32.800 212.267,32.800 216.800 C 32.800 221.333,32.756 221.600,32.000 221.600 C 31.211 221.600,31.200 221.867,31.200 240.800 C 31.200 259.733,31.211 260.000,32.000 260.000 C 32.754 260.000,32.803 260.282,32.846 264.900 C 32.905 271.191,32.880 271.010,33.700 270.944 C 34.299 270.897,34.400 271.256,34.400 273.444 C 34.400 275.733,34.483 276.000,35.200 276.000 C 35.910 276.000,36.005 276.282,36.046 278.500 C 36.113 282.123,36.132 282.205,36.900 282.144 C 37.469 282.099,37.600 282.418,37.600 283.844 C 37.600 285.333,37.722 285.600,38.400 285.600 C 39.067 285.600,39.208 285.882,39.246 287.300 C 39.321 290.050,39.367 290.203,40.100 290.144 C 40.659 290.100,40.800 290.410,40.800 291.682 C 40.800 292.938,40.969 293.319,41.600 293.484 C 42.227 293.648,42.400 294.030,42.400 295.247 C 42.400 296.533,42.537 296.800,43.200 296.800 C 43.852 296.800,44.000 297.067,44.000 298.237 C 44.000 299.338,44.187 299.724,44.800 299.884 C 45.262 300.005,45.620 300.454,45.646 300.947 C 45.747 302.815,45.825 302.998,46.500 302.944 C 46.987 302.906,47.200 303.180,47.200 303.844 C 47.200 304.533,47.423 304.800,48.000 304.800 C 48.667 304.800,48.800 305.067,48.800 306.400 C 48.800 307.700,48.941 308.000,49.553 308.000 C 49.970 308.000,50.400 308.357,50.516 308.800 C 50.631 309.240,51.012 309.600,51.363 309.600 C 51.743 309.600,52.019 309.962,52.046 310.500 C 52.144 312.414,52.221 312.598,52.900 312.544 C 53.387 312.506,53.600 312.780,53.600 313.444 C 53.600 314.133,53.823 314.400,54.400 314.400 C 54.933 314.400,55.200 314.667,55.200 315.200 C 55.200 315.733,55.467 316.000,56.000 316.000 C 56.549 316.000,56.814 316.282,56.846 316.900 C 56.945 318.823,57.025 319.000,57.799 319.001 C 58.332 319.001,58.599 319.268,58.599 319.801 C 58.600 320.333,58.867 320.600,59.399 320.601 C 59.932 320.601,60.199 320.868,60.199 321.401 C 60.200 321.933,60.467 322.200,60.999 322.201 C 61.532 322.201,61.799 322.468,61.799 323.001 C 61.800 323.533,62.067 323.800,62.599 323.801 C 63.132 323.801,63.399 324.068,63.399 324.601 C 63.400 325.116,63.648 325.380,64.100 325.344 C 64.550 325.309,64.800 325.572,64.800 326.082 C 64.800 326.538,65.139 326.964,65.600 327.084 C 66.043 327.200,66.400 327.630,66.400 328.047 C 66.400 328.533,66.683 328.800,67.200 328.800 C 67.733 328.800,68.000 329.067,68.000 329.600 C 68.000 330.177,68.267 330.400,68.956 330.400 C 69.620 330.400,69.894 330.613,69.856 331.100 C 69.802 331.779,69.986 331.856,71.900 331.954 C 72.518 331.986,72.800 332.251,72.800 332.800 C 72.800 333.333,73.067 333.600,73.600 333.600 C 74.133 333.600,74.400 333.867,74.400 334.400 C 74.400 334.933,74.667 335.200,75.200 335.200 C 75.733 335.200,76.000 335.467,76.000 336.000 C 76.000 336.577,76.267 336.800,76.956 336.800 C 77.620 336.800,77.894 337.013,77.856 337.500 C 77.802 338.179,77.986 338.256,79.900 338.354 C 80.518 338.386,80.800 338.651,80.800 339.200 C 80.800 339.733,81.067 340.000,81.600 340.000 C 82.133 340.000,82.400 340.267,82.400 340.800 C 82.400 341.377,82.667 341.600,83.356 341.600 C 84.020 341.600,84.294 341.813,84.256 342.300 C 84.202 342.979,84.386 343.056,86.300 343.154 C 86.918 343.186,87.200 343.451,87.200 344.000 C 87.200 344.577,87.467 344.800,88.156 344.800 C 88.820 344.800,89.094 345.013,89.056 345.500 C 89.002 346.179,89.186 346.256,91.100 346.354 C 91.718 346.386,92.000 346.651,92.000 347.200 C 92.000 347.867,92.267 348.000,93.600 348.000 C 94.933 348.000,95.200 348.133,95.200 348.800 C 95.200 349.467,95.467 349.600,96.800 349.600 C 98.133 349.600,98.400 349.733,98.400 350.400 C 98.400 350.977,98.667 351.200,99.356 351.200 C 100.020 351.200,100.294 351.413,100.256 351.900 C 100.201 352.592,100.386 352.663,102.456 352.754 C 103.200 352.786,103.495 353.006,103.456 353.500 C 103.401 354.192,103.586 354.263,105.656 354.354 C 106.400 354.386,106.695 354.606,106.656 355.100 C 106.597 355.833,106.750 355.879,109.500 355.954 C 110.918 355.992,111.200 356.133,111.200 356.800 C 111.200 357.467,111.467 357.600,112.800 357.600 C 114.133 357.600,114.400 357.733,114.400 358.400 C 114.400 359.078,114.667 359.200,116.156 359.200 C 117.582 359.200,117.901 359.331,117.856 359.900 C 117.798 360.631,117.954 360.679,120.653 360.754 C 121.948 360.790,122.352 360.973,122.516 361.600 C 122.693 362.277,123.062 362.400,124.916 362.400 C 126.770 362.400,127.139 362.523,127.316 363.200 C 127.493 363.877,127.862 364.000,129.716 364.000 C 131.570 364.000,131.939 364.123,132.116 364.800 C 132.302 365.511,132.662 365.600,135.363 365.600 C 138.133 365.600,138.400 365.670,138.400 366.400 C 138.400 367.133,138.667 367.200,141.600 367.200 C 144.533 367.200,144.800 367.267,144.800 368.000 C 144.800 368.747,145.067 368.800,148.800 368.800 C 152.533 368.800,152.800 368.853,152.800 369.600 C 152.800 370.356,153.067 370.400,157.600 370.400 C 162.133 370.400,162.400 370.444,162.400 371.200 C 162.400 371.970,162.667 372.000,169.600 372.000 C 176.533 372.000,176.800 372.030,176.800 372.800 C 176.800 373.591,177.067 373.600,200.000 373.600 C 222.933 373.600,223.200 373.591,223.200 372.800 C 223.200 372.030,223.467 372.000,230.400 372.000 C 237.333 372.000,237.600 371.970,237.600 371.200 C 237.600 370.444,237.867 370.400,242.400 370.400 C 246.933 370.400,247.200 370.356,247.200 369.600 C 247.200 368.853,247.467 368.800,251.200 368.800 C 254.933 368.800,255.200 368.747,255.200 368.000 C 255.200 367.267,255.467 367.200,258.400 367.200 C 261.333 367.200,261.600 367.133,261.600 366.400 C 261.600 365.670,261.867 365.600,264.637 365.600 C 267.338 365.600,267.698 365.511,267.884 364.800 C 268.061 364.123,268.430 364.000,270.284 364.000 C 272.138 364.000,272.507 363.877,272.684 363.200 C 272.861 362.523,273.230 362.400,275.084 362.400 C 276.938 362.400,277.307 362.277,277.484 361.600 C 277.648 360.973,278.052 360.790,279.347 360.754 C 282.046 360.679,282.202 360.631,282.144 359.900 C 282.099 359.331,282.418 359.200,283.844 359.200 C 285.333 359.200,285.600 359.078,285.600 358.400 C 285.600 357.733,285.867 357.600,287.200 357.600 C 288.533 357.600,288.800 357.467,288.800 356.800 C 288.800 356.133,289.082 355.992,290.500 355.954 C 293.250 355.879,293.403 355.833,293.344 355.100 C 293.305 354.606,293.600 354.386,294.344 354.354 C 296.414 354.263,296.599 354.192,296.544 353.500 C 296.505 353.006,296.800 352.786,297.544 352.754 C 299.614 352.663,299.799 352.592,299.744 351.900 C 299.706 351.413,299.980 351.200,300.644 351.200 C 301.333 351.200,301.600 350.977,301.600 350.400 C 301.600 349.733,301.867 349.600,303.200 349.600 C 304.533 349.600,304.800 349.467,304.800 348.800 C 304.800 348.133,305.067 348.000,306.400 348.000 C 307.733 348.000,308.000 347.867,308.000 347.200 C 308.000 346.651,308.282 346.386,308.900 346.354 C 310.814 346.256,310.998 346.179,310.944 345.500 C 310.906 345.013,311.180 344.800,311.844 344.800 C 312.533 344.800,312.800 344.577,312.800 344.000 C 312.800 343.451,313.082 343.186,313.700 343.154 C 315.614 343.056,315.798 342.979,315.744 342.300 C 315.706 341.813,315.980 341.600,316.644 341.600 C 317.333 341.600,317.600 341.377,317.600 340.800 C 317.600 340.267,317.867 340.000,318.400 340.000 C 318.933 340.000,319.200 339.733,319.200 339.200 C 319.200 338.651,319.482 338.386,320.100 338.354 C 322.014 338.256,322.198 338.179,322.144 337.500 C 322.106 337.013,322.380 336.800,323.044 336.800 C 323.733 336.800,324.000 336.577,324.000 336.000 C 324.000 335.467,324.267 335.200,324.800 335.200 C 325.333 335.200,325.600 334.933,325.600 334.400 C 325.600 333.867,325.867 333.600,326.400 333.600 C 326.933 333.600,327.200 333.333,327.200 332.800 C 327.200 332.251,327.482 331.986,328.100 331.954 C 330.014 331.856,330.198 331.779,330.144 331.100 C 330.106 330.613,330.380 330.400,331.044 330.400 C 331.733 330.400,332.000 330.177,332.000 329.600 C 332.000 329.067,332.267 328.800,332.800 328.800 C 333.377 328.800,333.600 328.533,333.600 327.844 C 333.600 327.180,333.813 326.906,334.300 326.944 C 334.752 326.980,335.000 326.716,335.001 326.201 C 335.001 325.668,335.268 325.401,335.801 325.401 C 336.333 325.400,336.600 325.133,336.601 324.601 C 336.601 324.068,336.868 323.801,337.401 323.801 C 337.933 323.800,338.200 323.533,338.201 323.001 C 338.201 322.468,338.468 322.201,339.001 322.201 C 339.533 322.200,339.800 321.933,339.801 321.401 C 339.801 320.868,340.068 320.601,340.601 320.601 C 341.375 320.600,341.455 320.423,341.554 318.500 C 341.586 317.882,341.851 317.600,342.400 317.600 C 342.933 317.600,343.200 317.333,343.200 316.800 C 343.200 316.267,343.467 316.000,344.000 316.000 C 344.533 316.000,344.800 315.733,344.800 315.200 C 344.800 314.667,345.067 314.400,345.600 314.400 C 346.177 314.400,346.400 314.133,346.400 313.444 C 346.400 312.780,346.613 312.506,347.100 312.544 C 347.779 312.598,347.856 312.414,347.954 310.500 C 347.981 309.962,348.257 309.600,348.637 309.600 C 348.988 309.600,349.369 309.240,349.484 308.800 C 349.600 308.357,350.030 308.000,350.447 308.000 C 351.059 308.000,351.200 307.700,351.200 306.400 C 351.200 305.067,351.333 304.800,352.000 304.800 C 352.577 304.800,352.800 304.533,352.800 303.844 C 352.800 303.180,353.013 302.906,353.500 302.944 C 354.175 302.998,354.253 302.815,354.354 300.947 C 354.380 300.454,354.738 300.005,355.200 299.884 C 355.813 299.724,356.000 299.338,356.000 298.237 C 356.000 297.067,356.148 296.800,356.800 296.800 C 357.463 296.800,357.600 296.533,357.600 295.247 C 357.600 294.030,357.773 293.648,358.400 293.484 C 359.031 293.319,359.200 292.938,359.200 291.682 C 359.200 290.410,359.341 290.100,359.900 290.144 C 360.633 290.203,360.679 290.050,360.754 287.300 C 360.792 285.882,360.933 285.600,361.600 285.600 C 362.311 285.600,362.400 285.333,362.400 283.200 C 362.400 281.067,362.489 280.800,363.200 280.800 C 363.911 280.800,364.000 280.533,364.000 278.400 C 364.000 276.267,364.089 276.000,364.800 276.000 C 365.533 276.000,365.600 275.733,365.600 272.800 C 365.600 269.867,365.667 269.600,366.400 269.600 C 367.156 269.600,367.200 269.333,367.200 264.800 C 367.200 260.267,367.244 260.000,368.000 260.000 C 368.789 260.000,368.800 259.733,368.800 240.800 C 368.800 221.867,368.789 221.600,368.000 221.600 C 367.244 221.600,367.200 221.333,367.200 216.800 C 367.200 212.267,367.156 212.000,366.400 212.000 C 365.667 212.000,365.600 211.733,365.600 208.800 C 365.600 205.867,365.533 205.600,364.800 205.600 C 364.070 205.600,364.000 205.333,364.000 202.563 C 364.000 199.862,363.911 199.502,363.200 199.316 C 362.514 199.137,362.400 198.770,362.400 196.753 C 362.400 194.667,362.309 194.400,361.600 194.400 C 360.933 194.400,360.792 194.118,360.754 192.700 C 360.679 189.950,360.633 189.797,359.900 189.856 C 359.341 189.900,359.200 189.590,359.200 188.318 C 359.200 187.062,359.031 186.681,358.400 186.516 C 357.773 186.352,357.600 185.970,357.600 184.753 C 357.600 183.467,357.463 183.200,356.800 183.200 C 356.148 183.200,356.000 182.933,356.000 181.763 C 356.000 180.662,355.813 180.276,355.200 180.116 C 354.573 179.952,354.400 179.570,354.400 178.353 C 354.400 177.067,354.263 176.800,353.600 176.800 C 352.933 176.800,352.800 176.533,352.800 175.200 C 352.800 173.867,352.667 173.600,352.000 173.600 C 351.333 173.600,351.200 173.333,351.200 172.000 C 351.200 170.667,351.067 170.400,350.400 170.400 C 349.748 170.400,349.600 170.133,349.600 168.963 C 349.600 167.862,349.413 167.476,348.800 167.316 C 348.357 167.200,348.000 166.770,348.000 166.353 C 348.000 165.867,347.717 165.600,347.200 165.600 C 346.548 165.600,346.400 165.333,346.400 164.163 C 346.400 163.062,346.213 162.676,345.600 162.516 C 345.157 162.400,344.800 161.970,344.800 161.553 C 344.800 161.067,344.517 160.800,344.000 160.800 C 343.451 160.800,343.186 160.518,343.154 159.900 C 343.056 157.986,342.979 157.802,342.300 157.856 C 341.813 157.894,341.600 157.620,341.600 156.956 C 341.600 156.267,341.377 156.000,340.800 156.000 C 340.267 156.000,340.000 155.733,340.000 155.200 C 340.000 154.667,339.733 154.400,339.200 154.400 C 338.651 154.400,338.386 154.118,338.354 153.500 C 338.256 151.586,338.179 151.402,337.500 151.456 C 337.050 151.491,336.800 151.228,336.800 150.718 C 336.800 150.262,336.461 149.836,336.000 149.716 C 335.557 149.600,335.200 149.170,335.200 148.753 C 335.200 148.267,334.917 148.000,334.400 148.000 C 333.867 148.000,333.600 147.733,333.600 147.200 C 333.600 146.683,333.333 146.400,332.847 146.400 C 332.430 146.400,332.000 146.043,331.884 145.600 C 331.769 145.160,331.388 144.800,331.037 144.800 C 330.667 144.800,330.400 144.465,330.400 144.000 C 330.400 143.467,330.133 143.200,329.600 143.200 C 329.067 143.200,328.800 142.933,328.800 142.400 C 328.800 141.867,328.533 141.600,328.000 141.600 C 327.467 141.600,327.200 141.333,327.200 140.800 C 327.200 140.267,326.933 140.000,326.400 140.000 C 325.867 140.000,325.600 139.733,325.600 139.200 C 325.600 138.683,325.333 138.400,324.847 138.400 C 324.430 138.400,324.000 138.043,323.884 137.600 C 323.769 137.160,323.388 136.800,323.037 136.800 C 322.667 136.800,322.400 136.465,322.400 136.000 C 322.400 135.467,322.133 135.200,321.600 135.200 C 321.067 135.200,320.800 134.933,320.800 134.400 C 320.800 133.867,320.533 133.600,320.000 133.600 C 319.467 133.600,319.200 133.333,319.200 132.800 C 319.200 132.267,318.933 132.000,318.400 132.000 C 317.867 132.000,317.600 131.733,317.600 131.200 C 317.600 130.623,317.333 130.400,316.644 130.400 C 315.980 130.400,315.706 130.187,315.744 129.700 C 315.798 129.021,315.614 128.944,313.700 128.846 C 313.082 128.814,312.800 128.549,312.800 128.000 C 312.800 127.467,312.533 127.200,312.000 127.200 C 311.467 127.200,311.200 126.933,311.200 126.400 C 311.200 125.867,310.933 125.600,310.400 125.600 C 309.867 125.600,309.600 125.333,309.600 124.800 C 309.600 124.223,309.333 124.000,308.644 124.000 C 307.980 124.000,307.706 123.787,307.744 123.300 C 307.798 122.621,307.614 122.544,305.700 122.446 C 305.082 122.414,304.800 122.149,304.800 121.600 C 304.800 121.023,304.533 120.800,303.844 120.800 C 303.180 120.800,302.906 120.587,302.944 120.100 C 302.998 119.421,302.814 119.344,300.900 119.246 C 300.282 119.214,300.000 118.949,300.000 118.400 C 300.000 117.823,299.733 117.600,299.044 117.600 C 298.380 117.600,298.106 117.387,298.144 116.900 C 298.198 116.221,298.014 116.144,296.100 116.046 C 295.482 116.014,295.200 115.749,295.200 115.200 C 295.200 114.533,294.933 114.400,293.600 114.400 C 292.267 114.400,292.000 114.267,292.000 113.600 C 292.000 112.933,291.733 112.800,290.400 112.800 C 289.067 112.800,288.800 112.667,288.800 112.000 C 288.800 111.423,288.533 111.200,287.844 111.200 C 287.180 111.200,286.906 110.987,286.944 110.500 C 286.999 109.808,286.814 109.737,284.744 109.646 C 284.000 109.614,283.705 109.394,283.744 108.900 C 283.798 108.225,283.615 108.147,281.747 108.046 C 281.254 108.020,280.805 107.662,280.684 107.200 C 280.506 106.520,280.138 106.400,278.237 106.400 C 276.267 106.400,276.000 106.305,276.000 105.600 C 276.000 104.933,275.733 104.800,274.400 104.800 L 272.800 104.800 272.800 103.200 C 272.800 101.867,272.933 101.600,273.600 101.600 C 274.133 101.600,274.400 101.333,274.400 100.800 C 274.400 100.267,274.667 100.000,275.200 100.000 C 275.777 100.000,276.000 99.733,276.000 99.044 C 276.000 98.380,276.213 98.106,276.700 98.144 C 277.379 98.198,277.456 98.014,277.554 96.100 C 277.586 95.482,277.851 95.200,278.400 95.200 C 278.933 95.200,279.200 94.933,279.200 94.400 C 279.200 93.867,279.467 93.600,280.000 93.600 C 280.667 93.600,280.800 93.333,280.800 92.000 C 280.800 90.667,280.933 90.400,281.600 90.400 C 282.177 90.400,282.400 90.133,282.400 89.444 C 282.400 88.780,282.613 88.506,283.100 88.544 C 283.775 88.598,283.853 88.415,283.954 86.547 C 283.980 86.054,284.338 85.605,284.800 85.484 C 285.406 85.325,285.600 84.938,285.600 83.884 C 285.600 82.830,285.794 82.443,286.400 82.284 C 287.006 82.125,287.200 81.738,287.200 80.684 C 287.200 79.630,287.394 79.243,288.000 79.084 C 288.631 78.919,288.800 78.538,288.800 77.282 C 288.800 76.010,288.941 75.700,289.500 75.744 C 290.233 75.803,290.279 75.650,290.354 72.900 C 290.392 71.482,290.533 71.200,291.200 71.200 C 291.878 71.200,292.000 70.933,292.000 69.444 C 292.000 68.018,292.131 67.699,292.700 67.744 C 293.339 67.795,293.400 67.259,293.400 61.600 C 293.400 55.941,293.339 55.405,292.700 55.456 C 292.213 55.494,292.000 55.220,292.000 54.556 C 292.000 53.867,291.777 53.600,291.200 53.600 C 290.667 53.600,290.400 53.333,290.400 52.800 C 290.400 52.267,290.133 52.000,289.600 52.000 C 289.067 52.000,288.800 51.733,288.800 51.200 C 288.800 50.533,288.533 50.400,287.200 50.400 C 285.867 50.400,285.600 50.267,285.600 49.600 C 285.600 48.889,285.333 48.800,283.200 48.800 C 281.067 48.800,280.800 48.711,280.800 48.000 C 280.800 47.289,280.533 47.200,278.400 47.200 C 276.267 47.200,276.000 47.111,276.000 46.400 C 276.000 45.683,275.733 45.600,273.444 45.600 C 271.256 45.600,270.897 45.499,270.944 44.900 C 271.009 44.090,271.116 44.107,265.544 44.046 C 261.753 44.005,261.295 43.924,261.344 43.300 C 261.396 42.651,260.586 42.592,250.300 42.485 C 239.359 42.371,239.200 42.381,239.200 43.185 C 239.200 43.948,238.958 44.000,235.363 44.000 C 231.862 44.000,231.507 44.070,231.316 44.800 C 231.137 45.486,230.770 45.600,228.753 45.600 C 226.667 45.600,226.400 45.691,226.400 46.400 C 226.400 47.067,226.118 47.208,224.700 47.246 C 221.950 47.321,221.797 47.367,221.856 48.100 C 221.901 48.669,221.582 48.800,220.156 48.800 C 218.667 48.800,218.400 48.922,218.400 49.600 C 218.400 50.252,218.133 50.400,216.963 50.400 C 215.862 50.400,215.476 50.587,215.316 51.200 C 215.201 51.640,214.841 52.000,214.516 52.000 C 214.191 52.000,213.831 52.360,213.716 52.800 C 213.552 53.427,213.170 53.600,211.953 53.600 C 210.667 53.600,210.400 53.737,210.400 54.400 C 210.400 54.865,210.133 55.200,209.763 55.200 C 209.412 55.200,209.031 55.560,208.916 56.000 C 208.795 56.462,208.346 56.820,207.853 56.846 C 205.976 56.948,205.800 57.029,205.799 57.799 C 205.799 58.332,205.532 58.599,204.999 58.599 C 204.467 58.600,204.200 58.867,204.199 59.399 C 204.199 59.932,203.932 60.199,203.399 60.199 C 202.884 60.200,202.620 60.448,202.656 60.900 C 202.694 61.387,202.420 61.600,201.756 61.600 C 201.067 61.600,200.800 61.823,200.800 62.400 C 200.800 62.933,200.533 63.200,200.000 63.200 C 199.423 63.200,199.200 63.467,199.200 64.156 C 199.200 64.820,198.987 65.094,198.500 65.056 C 197.821 65.002,197.744 65.186,197.646 67.100 C 197.556 68.863,196.000 68.246,196.000 66.447 C 196.000 65.230,196.173 64.848,196.800 64.684 C 197.480 64.506,197.600 64.138,197.600 62.237 C 197.600 60.267,197.695 60.000,198.400 60.000 C 199.063 60.000,199.200 59.733,199.200 58.447 C 199.200 57.230,199.373 56.848,200.000 56.684 C 200.613 56.524,200.800 56.138,200.800 55.037 C 200.800 53.867,200.948 53.600,201.600 53.600 C 202.133 53.600,202.400 53.333,202.400 52.800 C 202.400 52.267,202.667 52.000,203.200 52.000 C 203.863 52.000,204.000 51.733,204.000 50.447 C 204.000 49.230,204.173 48.848,204.800 48.684 C 205.542 48.490,205.600 48.138,205.600 43.837 C 205.600 39.467,205.554 39.200,204.800 39.200 C 204.133 39.200,204.000 38.933,204.000 37.600 C 204.000 36.267,203.867 36.000,203.200 36.000 C 202.651 36.000,202.386 35.718,202.354 35.100 C 202.237 32.818,202.382 32.963,200.100 32.846 C 199.482 32.814,199.200 32.549,199.200 32.000 C 199.200 31.467,198.933 31.200,198.400 31.200 C 197.867 31.200,197.600 30.933,197.600 30.400 C 197.600 29.733,197.333 29.600,196.000 29.600 C 194.667 29.600,194.400 29.467,194.400 28.800 C 194.400 28.089,194.133 28.000,192.000 28.000 C 189.867 28.000,189.600 27.911,189.600 27.200 C 189.600 26.422,189.333 26.400,180.000 26.400 C 170.667 26.400,170.400 26.422,170.400 27.200 M184.972 36.231 C 186.936 36.585,189.183 37.218,189.966 37.638 C 190.748 38.057,191.571 38.402,191.794 38.403 C 192.518 38.410,195.189 41.219,195.447 42.245 C 196.156 45.069,194.636 47.481,191.131 49.096 C 186.050 51.438,186.528 51.341,180.000 51.341 C 173.472 51.341,173.950 51.438,168.869 49.096 C 163.863 46.790,162.848 43.100,166.316 39.814 C 167.132 39.040,167.960 38.405,168.156 38.403 C 168.352 38.402,169.252 38.035,170.156 37.590 C 171.923 36.719,179.282 35.206,180.600 35.442 C 181.040 35.521,183.007 35.876,184.972 36.231 M256.468 52.412 C 265.292 53.004,275.263 55.443,281.534 58.543 C 285.435 60.471,284.956 62.787,277.590 77.600 C 272.406 88.026,262.760 100.678,256.800 104.870 C 255.810 105.566,253.830 107.071,252.400 108.215 C 250.970 109.358,248.360 110.962,246.600 111.779 C 244.840 112.597,242.680 113.635,241.800 114.088 C 235.581 117.283,223.139 118.741,215.981 117.113 C 210.913 115.960,203.685 111.653,201.169 108.286 C 199.241 105.707,198.400 104.353,198.400 103.831 C 198.400 103.538,198.148 103.089,197.839 102.833 C 197.531 102.577,197.157 101.880,197.008 101.284 C 196.859 100.688,196.447 99.878,196.092 99.483 C 195.582 98.918,195.441 97.824,195.423 94.283 C 195.397 89.206,195.354 89.351,199.549 80.393 C 203.352 72.272,216.141 61.024,226.600 56.602 C 227.260 56.323,228.660 55.713,229.711 55.247 C 230.762 54.781,231.970 54.400,232.397 54.400 C 232.823 54.400,234.033 54.103,235.086 53.741 C 239.520 52.214,246.791 51.762,256.468 52.412 M163.200 54.979 C 163.742 55.446,166.643 56.758,170.400 58.234 C 172.639 59.114,179.766 59.682,183.400 59.270 C 186.903 58.874,188.247 59.198,187.795 60.331 C 187.649 60.699,187.280 62.530,186.977 64.400 C 186.674 66.270,186.244 68.520,186.022 69.400 C 184.809 74.211,186.204 99.623,187.997 105.400 C 188.202 106.060,188.661 108.310,189.017 110.400 C 189.372 112.490,189.818 115.010,190.008 116.000 C 190.565 118.910,190.426 121.290,189.600 123.000 C 189.175 123.880,188.821 124.750,188.814 124.933 C 188.702 127.669,182.479 131.373,178.001 131.367 C 173.298 131.362,166.642 127.020,166.403 123.800 C 166.386 123.580,166.025 122.680,165.600 121.800 C 165.175 120.920,164.821 119.966,164.814 119.679 C 164.806 119.393,164.456 118.493,164.036 117.679 C 162.968 115.613,161.796 112.654,160.838 109.600 C 160.388 108.170,159.738 106.100,159.391 105.000 C 156.401 95.507,154.603 80.826,155.595 74.000 C 156.494 67.809,157.692 62.647,159.523 57.075 C 160.611 53.761,161.318 53.358,163.200 54.979 M151.489 106.100 C 152.022 106.788,153.170 110.187,153.686 112.600 C 153.921 113.700,154.344 114.870,154.626 115.200 C 154.907 115.530,155.269 116.340,155.430 117.000 C 155.591 117.660,156.055 118.827,156.461 119.594 C 156.868 120.361,157.200 121.201,157.200 121.462 C 157.200 121.722,157.463 122.445,157.784 123.068 C 158.105 123.690,158.847 125.280,159.433 126.600 C 160.018 127.920,161.075 129.720,161.782 130.600 C 162.488 131.480,163.232 132.501,163.433 132.869 C 163.978 133.863,168.663 136.887,171.404 138.014 C 177.908 140.689,188.926 138.034,192.799 132.859 C 193.235 132.277,193.803 131.551,194.062 131.246 C 194.834 130.337,196.311 127.118,196.782 125.317 C 197.024 124.391,197.397 123.526,197.611 123.393 C 197.825 123.261,198.000 121.833,198.000 120.219 C 198.000 116.917,198.624 116.142,200.162 117.537 C 201.609 118.849,205.003 121.084,206.023 121.396 C 206.560 121.560,207.270 121.929,207.600 122.216 C 207.930 122.503,208.740 122.867,209.400 123.025 C 210.060 123.183,211.050 123.538,211.600 123.815 C 214.383 125.213,226.735 126.491,228.473 125.561 C 228.925 125.319,230.758 124.878,232.547 124.580 C 238.316 123.618,244.506 121.764,246.000 120.550 C 246.330 120.282,247.088 119.941,247.684 119.792 C 248.280 119.643,248.967 119.281,249.211 118.986 C 249.455 118.692,250.228 118.326,250.928 118.174 C 251.627 118.021,254.450 116.212,257.200 114.154 C 262.341 110.308,264.055 109.620,265.165 110.958 C 265.420 111.265,266.234 111.630,266.974 111.769 C 267.714 111.908,268.540 112.286,268.809 112.611 C 269.078 112.935,269.591 113.202,269.949 113.204 C 270.307 113.206,271.500 113.650,272.600 114.191 C 273.700 114.732,274.893 115.181,275.251 115.187 C 275.609 115.194,276.117 115.458,276.379 115.774 C 276.641 116.090,277.381 116.464,278.023 116.605 C 278.665 116.746,279.305 117.046,279.444 117.272 C 279.584 117.497,280.261 117.936,280.949 118.247 C 282.263 118.841,283.142 119.337,284.808 120.428 C 285.362 120.791,286.237 121.221,286.753 121.385 C 287.269 121.549,289.117 122.654,290.861 123.841 C 292.604 125.029,294.146 126.000,294.286 126.000 C 296.908 126.000,321.059 146.795,326.804 154.000 C 327.945 155.430,328.995 156.690,329.139 156.800 C 330.810 158.080,341.971 174.018,342.614 176.043 C 342.778 176.561,343.209 177.438,343.572 177.992 C 345.311 180.649,349.201 188.430,349.201 189.251 C 349.200 189.609,349.470 190.126,349.800 190.400 C 350.130 190.674,350.400 191.132,350.400 191.419 C 350.400 191.930,352.559 197.549,353.227 198.775 C 353.414 199.119,353.744 200.210,353.959 201.200 C 354.174 202.190,354.639 203.900,354.994 205.000 C 356.580 209.922,356.800 210.743,357.167 213.103 C 357.381 214.480,357.675 215.798,357.820 216.033 C 357.966 216.268,358.327 218.291,358.625 220.530 C 358.922 222.768,359.369 225.950,359.618 227.600 C 360.175 231.285,360.179 250.480,359.623 253.800 C 359.403 255.120,359.026 257.730,358.786 259.600 C 358.547 261.470,358.106 263.900,357.807 265.000 C 357.509 266.100,357.141 267.810,356.991 268.800 C 356.840 269.790,356.468 271.140,356.163 271.800 C 355.858 272.460,355.438 273.810,355.230 274.800 C 354.788 276.904,353.775 280.094,353.009 281.800 C 352.712 282.460,352.004 284.024,351.435 285.275 C 350.866 286.527,350.400 287.705,350.400 287.893 C 350.400 288.329,346.871 295.218,346.276 295.943 C 345.784 296.543,345.101 297.677,344.316 299.200 C 343.465 300.849,340.639 304.979,339.645 306.024 C 339.134 306.561,338.427 307.450,338.072 308.000 C 335.541 311.929,325.263 322.585,320.200 326.529 C 318.880 327.557,317.530 328.634,317.200 328.923 C 314.389 331.380,303.822 338.740,301.800 339.648 C 301.360 339.846,299.740 340.733,298.200 341.620 C 296.660 342.507,294.770 343.513,294.000 343.856 C 293.230 344.199,292.330 344.700,292.000 344.969 C 291.670 345.237,290.230 345.958,288.800 346.569 C 287.370 347.181,285.390 348.040,284.400 348.479 C 283.410 348.918,281.970 349.551,281.200 349.887 C 280.430 350.222,279.170 350.812,278.400 351.198 C 277.630 351.584,276.370 352.030,275.600 352.189 C 274.830 352.348,273.840 352.704,273.400 352.979 C 272.960 353.254,271.883 353.612,271.007 353.775 C 270.131 353.938,269.051 354.277,268.607 354.529 C 268.163 354.781,266.990 355.196,266.000 355.451 C 265.010 355.705,263.660 356.105,263.000 356.338 C 261.625 356.825,257.139 357.906,254.200 358.459 C 253.100 358.666,251.537 359.091,250.727 359.404 C 249.916 359.716,248.026 360.093,246.527 360.240 C 245.027 360.388,243.475 360.675,243.078 360.880 C 242.681 361.085,240.431 361.507,238.078 361.819 C 235.725 362.131,232.450 362.567,230.800 362.789 C 214.022 365.047,185.978 365.047,169.200 362.789 C 167.550 362.567,164.275 362.131,161.922 361.819 C 159.569 361.507,157.319 361.085,156.922 360.880 C 156.525 360.675,154.973 360.388,153.473 360.240 C 151.974 360.093,150.084 359.716,149.273 359.404 C 148.463 359.091,146.900 358.666,145.800 358.459 C 142.861 357.906,138.375 356.825,137.000 356.338 C 136.340 356.105,134.990 355.705,134.000 355.451 C 133.010 355.196,131.837 354.781,131.393 354.529 C 130.949 354.277,129.869 353.938,128.993 353.775 C 128.117 353.612,127.040 353.254,126.600 352.979 C 126.160 352.704,125.170 352.348,124.400 352.189 C 123.630 352.030,122.370 351.584,121.600 351.198 C 120.830 350.812,119.570 350.222,118.800 349.887 C 118.030 349.551,116.590 348.918,115.600 348.479 C 114.610 348.040,112.630 347.181,111.200 346.569 C 109.770 345.958,108.330 345.237,108.000 344.969 C 107.670 344.700,106.770 344.199,106.000 343.856 C 105.230 343.513,103.340 342.507,101.800 341.620 C 100.260 340.733,98.640 339.846,98.200 339.648 C 96.178 338.740,85.611 331.380,82.800 328.923 C 82.470 328.634,81.120 327.557,79.800 326.529 C 76.278 323.785,67.506 315.087,64.542 311.400 C 63.128 309.640,61.451 307.570,60.816 306.800 C 59.473 305.173,56.428 300.653,55.696 299.200 C 55.418 298.650,54.878 297.722,54.496 297.139 C 52.486 294.073,50.829 290.820,48.620 285.600 C 48.014 284.170,47.177 282.268,46.760 281.374 C 46.342 280.479,46.000 279.435,46.000 279.054 C 46.000 278.672,45.753 277.874,45.452 277.280 C 45.151 276.686,44.780 275.349,44.629 274.309 C 44.478 273.269,44.196 272.321,44.004 272.202 C 43.811 272.083,43.458 270.954,43.218 269.693 C 42.978 268.432,42.529 266.410,42.220 265.200 C 41.910 263.990,41.462 261.470,41.222 259.600 C 40.983 257.730,40.599 255.210,40.369 254.000 C 39.780 250.911,39.792 230.453,40.384 227.200 C 40.644 225.770,41.096 222.890,41.388 220.800 C 42.234 214.737,43.182 210.595,45.000 205.000 C 45.358 203.900,45.826 202.190,46.041 201.200 C 46.256 200.210,46.586 199.119,46.773 198.775 C 47.441 197.549,49.600 191.930,49.600 191.419 C 49.600 191.132,49.870 190.674,50.200 190.400 C 50.530 190.126,50.800 189.609,50.799 189.251 C 50.799 188.430,54.689 180.649,56.428 177.992 C 56.791 177.438,57.222 176.561,57.386 176.043 C 58.029 174.018,69.190 158.080,70.861 156.800 C 71.005 156.690,72.055 155.430,73.196 154.000 C 78.941 146.795,103.092 126.000,105.714 126.000 C 105.854 126.000,107.396 125.029,109.139 123.841 C 110.883 122.654,112.731 121.549,113.247 121.385 C 113.763 121.221,114.638 120.791,115.192 120.428 C 116.858 119.337,117.737 118.841,119.051 118.247 C 119.739 117.936,120.416 117.497,120.556 117.272 C 120.695 117.046,121.335 116.746,121.977 116.605 C 122.619 116.464,123.359 116.090,123.621 115.774 C 123.883 115.458,124.391 115.194,124.749 115.187 C 125.107 115.181,126.300 114.732,127.400 114.191 C 128.500 113.650,129.693 113.206,130.051 113.204 C 130.409 113.202,130.917 112.942,131.179 112.626 C 131.441 112.310,132.228 111.929,132.928 111.780 C 133.627 111.630,134.436 111.317,134.725 111.084 C 135.335 110.592,138.709 109.335,140.942 108.768 C 141.790 108.553,142.960 108.134,143.542 107.836 C 144.124 107.538,145.410 107.161,146.400 106.997 C 147.390 106.834,148.555 106.452,148.989 106.150 C 149.971 105.465,150.982 105.445,151.489 106.100 M216.033 141.761 C 215.777 142.069,215.094 142.440,214.515 142.586 C 213.937 142.731,213.020 143.198,212.478 143.625 C 211.936 144.051,211.268 144.400,210.995 144.400 C 210.722 144.400,210.283 144.658,210.021 144.974 C 209.759 145.290,208.972 145.671,208.272 145.820 C 207.573 145.970,206.764 146.283,206.475 146.516 C 202.349 149.845,180.782 153.075,172.600 151.589 C 171.500 151.389,169.160 151.031,167.400 150.792 C 165.640 150.553,163.570 150.111,162.800 149.810 C 162.030 149.509,160.502 149.055,159.405 148.802 C 158.308 148.548,157.228 148.195,157.005 148.017 C 156.782 147.838,156.027 147.570,155.328 147.420 C 154.628 147.271,153.841 146.890,153.579 146.574 C 153.317 146.258,152.802 146.000,152.436 146.000 C 152.069 146.000,151.063 145.640,150.200 145.200 C 147.073 143.606,144.400 144.908,144.400 148.024 C 144.400 149.617,145.583 151.574,146.556 151.593 C 146.752 151.597,147.652 151.947,148.556 152.372 C 153.131 154.520,154.826 155.200,155.602 155.200 C 156.070 155.200,156.807 155.390,157.240 155.622 C 158.927 156.524,164.055 157.685,169.600 158.419 C 179.033 159.669,181.027 159.751,185.400 159.076 C 187.600 158.737,190.750 158.335,192.400 158.184 C 194.050 158.032,195.723 157.739,196.117 157.531 C 196.512 157.323,198.042 156.903,199.517 156.597 C 202.266 156.027,206.685 154.576,207.400 154.009 C 207.620 153.835,208.430 153.562,209.200 153.402 C 209.970 153.242,210.870 152.882,211.200 152.603 C 211.530 152.323,212.247 151.958,212.792 151.791 C 213.338 151.624,214.238 151.191,214.792 150.828 C 216.540 149.684,217.370 149.211,218.400 148.774 C 221.436 147.485,222.445 144.711,220.725 142.384 C 219.741 141.053,216.930 140.680,216.033 141.761 " stroke="none" fill="#47463b" fill-rule="evenodd"></path><path id="path1" d="M175.800 36.039 C 173.600 36.446,171.060 37.144,170.156 37.590 C 169.252 38.035,168.352 38.402,168.156 38.403 C 167.960 38.405,167.132 39.040,166.316 39.814 C 162.848 43.100,163.863 46.790,168.869 49.096 C 173.950 51.438,173.472 51.341,180.000 51.341 C 186.528 51.341,186.050 51.438,191.131 49.096 C 194.636 47.481,196.156 45.069,195.447 42.245 C 195.189 41.219,192.518 38.410,191.794 38.403 C 191.571 38.402,190.748 38.057,189.966 37.638 C 189.183 37.218,186.936 36.585,184.972 36.231 C 183.007 35.876,181.040 35.521,180.600 35.442 C 180.160 35.363,178.000 35.632,175.800 36.039 M184.030 36.622 C 186.323 36.964,188.560 37.475,189.000 37.759 C 189.440 38.042,190.250 38.394,190.800 38.542 C 194.619 39.566,196.344 43.869,194.003 46.535 C 193.296 47.341,192.488 48.000,192.208 48.000 C 191.927 48.000,191.474 48.270,191.200 48.600 C 190.926 48.930,190.402 49.200,190.036 49.200 C 189.669 49.200,188.656 49.580,187.785 50.045 C 185.666 51.174,174.470 51.375,172.799 50.314 C 172.250 49.964,171.227 49.559,170.528 49.414 C 169.828 49.268,169.041 48.890,168.779 48.574 C 168.517 48.258,168.073 48.000,167.792 48.000 C 167.512 48.000,166.704 47.341,165.997 46.535 C 163.656 43.869,165.381 39.566,169.200 38.542 C 169.750 38.394,170.568 38.036,171.017 37.745 C 171.661 37.329,175.641 36.529,179.430 36.054 C 179.666 36.024,181.736 36.280,184.030 36.622 M240.800 52.587 C 238.710 52.859,236.139 53.378,235.086 53.741 C 234.033 54.103,232.823 54.400,232.397 54.400 C 231.970 54.400,230.762 54.781,229.711 55.247 C 228.660 55.713,227.260 56.323,226.600 56.602 C 216.141 61.024,203.352 72.272,199.549 80.393 C 195.354 89.351,195.397 89.206,195.423 94.283 C 195.441 97.824,195.582 98.918,196.092 99.483 C 196.447 99.878,196.859 100.688,197.008 101.284 C 197.157 101.880,197.531 102.577,197.839 102.833 C 198.148 103.089,198.400 103.538,198.400 103.831 C 198.400 104.353,199.241 105.707,201.169 108.286 C 203.685 111.653,210.913 115.960,215.981 117.113 C 223.139 118.741,235.581 117.283,241.800 114.088 C 242.680 113.635,244.840 112.597,246.600 111.779 C 248.360 110.962,250.970 109.358,252.400 108.215 C 253.830 107.071,255.810 105.566,256.800 104.870 C 259.939 102.662,267.964 93.555,271.452 88.241 C 274.884 83.012,276.630 79.799,280.496 71.600 C 284.858 62.350,285.024 60.268,281.534 58.543 C 271.309 53.489,253.678 50.911,240.800 52.587 M255.807 52.814 C 259.323 53.042,263.010 53.479,264.000 53.787 C 264.990 54.094,266.790 54.469,268.000 54.620 C 269.210 54.770,270.686 55.143,271.280 55.447 C 271.874 55.751,272.726 56.000,273.172 56.000 C 274.071 56.000,278.412 57.600,281.185 58.952 C 283.226 59.948,283.617 60.877,283.125 63.559 C 282.723 65.751,280.933 69.600,280.317 69.600 C 279.743 69.600,277.407 68.874,275.740 68.178 C 275.047 67.888,273.787 67.533,272.940 67.388 C 272.093 67.244,270.320 66.797,269.000 66.397 C 263.798 64.818,249.912 63.689,243.643 64.335 C 227.061 66.044,212.999 73.465,201.800 86.417 C 199.664 88.888,197.006 92.575,196.789 93.368 C 196.413 94.743,195.599 94.580,195.616 93.133 C 195.635 91.485,197.288 85.752,197.929 85.111 C 198.188 84.852,198.406 84.451,198.413 84.220 C 198.419 83.989,198.868 82.900,199.409 81.800 C 199.950 80.700,200.394 79.575,200.396 79.300 C 200.398 79.025,200.550 78.800,200.734 78.800 C 200.918 78.800,202.279 77.178,203.759 75.196 C 208.302 69.113,217.805 60.887,222.261 59.179 C 222.735 58.998,223.232 58.672,223.366 58.455 C 223.500 58.239,224.192 57.937,224.905 57.785 C 225.617 57.632,226.380 57.369,226.600 57.199 C 227.382 56.595,232.226 54.847,233.800 54.600 C 234.680 54.462,236.128 54.090,237.018 53.773 C 238.571 53.220,243.806 52.568,247.607 52.454 C 248.601 52.424,252.291 52.586,255.807 52.814 M159.523 57.075 C 157.692 62.647,156.494 67.809,155.595 74.000 C 154.603 80.826,156.401 95.507,159.391 105.000 C 159.738 106.100,160.388 108.170,160.838 109.600 C 161.796 112.654,162.968 115.613,164.036 117.679 C 164.456 118.493,164.806 119.393,164.814 119.679 C 164.821 119.966,165.175 120.920,165.600 121.800 C 166.025 122.680,166.386 123.580,166.403 123.800 C 166.642 127.020,173.298 131.362,178.001 131.367 C 182.479 131.373,188.702 127.669,188.814 124.933 C 188.821 124.750,189.175 123.880,189.600 123.000 C 190.426 121.290,190.565 118.910,190.008 116.000 C 189.818 115.010,189.372 112.490,189.017 110.400 C 188.661 108.310,188.202 106.060,187.997 105.400 C 186.204 99.623,184.809 74.211,186.022 69.400 C 186.244 68.520,186.674 66.270,186.977 64.400 C 187.280 62.530,187.649 60.699,187.795 60.331 C 188.247 59.198,186.903 58.874,183.400 59.270 C 179.766 59.682,172.639 59.114,170.400 58.234 C 166.643 56.758,163.742 55.446,163.200 54.979 C 161.318 53.358,160.611 53.761,159.523 57.075 " stroke="none" fill="#69d022" fill-rule="evenodd"></path><path id="path2" d="M147.800 107.581 C 146.920 107.745,145.660 108.175,145.000 108.537 C 144.340 108.899,143.394 109.196,142.899 109.198 C 142.403 109.199,141.325 109.560,140.504 110.000 C 139.684 110.440,138.649 110.801,138.206 110.803 C 137.763 110.804,136.860 111.163,136.200 111.600 C 135.540 112.037,134.654 112.396,134.231 112.397 C 133.809 112.399,133.179 112.656,132.831 112.969 C 132.247 113.495,131.314 113.895,127.600 115.211 C 126.830 115.484,125.930 115.864,125.600 116.056 C 125.270 116.249,124.550 116.604,124.000 116.846 C 123.450 117.088,122.730 117.450,122.400 117.651 C 122.070 117.852,121.189 118.296,120.442 118.638 C 119.695 118.980,118.827 119.516,118.513 119.830 C 118.199 120.143,117.594 120.400,117.168 120.400 C 116.741 120.400,116.084 120.760,115.707 121.200 C 115.330 121.640,114.776 122.000,114.474 122.000 C 114.173 122.000,113.469 122.360,112.909 122.800 C 112.350 123.240,111.674 123.600,111.408 123.600 C 111.142 123.600,110.613 123.944,110.233 124.364 C 109.852 124.784,109.104 125.238,108.571 125.372 C 108.037 125.506,107.600 125.796,107.600 126.018 C 107.600 126.239,107.195 126.605,106.700 126.830 C 105.463 127.395,103.246 128.750,101.024 130.300 C 99.999 131.015,98.995 131.600,98.794 131.600 C 98.593 131.600,98.235 131.960,98.000 132.400 C 97.765 132.840,97.308 133.200,96.986 133.200 C 96.664 133.200,96.400 133.352,96.400 133.537 C 96.400 133.723,95.095 134.895,93.500 136.143 C 91.905 137.392,89.970 138.937,89.200 139.578 C 87.307 141.153,75.741 152.603,74.026 154.600 C 71.435 157.616,66.000 164.361,66.000 164.560 C 66.000 164.670,65.415 165.598,64.700 166.623 C 63.985 167.648,63.130 168.888,62.800 169.379 C 62.470 169.870,61.662 171.066,61.005 172.036 C 60.347 173.006,59.581 174.250,59.301 174.800 C 59.022 175.350,58.353 176.520,57.816 177.400 C 57.278 178.280,56.725 179.270,56.587 179.600 C 55.728 181.647,54.367 184.090,53.732 184.725 C 53.439 185.018,53.200 185.509,53.200 185.818 C 53.200 186.403,52.059 189.141,50.758 191.679 C 50.341 192.493,49.999 193.483,49.997 193.879 C 49.996 194.276,49.637 195.140,49.200 195.800 C 48.763 196.460,48.403 197.360,48.400 197.800 C 48.397 198.240,48.037 199.140,47.600 199.800 C 47.163 200.460,46.804 201.592,46.803 202.316 C 46.801 203.040,46.440 204.338,46.000 205.200 C 45.560 206.062,45.200 207.363,45.200 208.090 C 45.200 208.817,44.840 210.084,44.400 210.904 C 43.921 211.799,43.601 213.159,43.601 214.299 C 43.602 215.344,43.253 217.460,42.826 219.000 C 42.356 220.693,41.874 224.409,41.606 228.400 C 41.363 232.030,40.966 235.934,40.724 237.075 C 40.264 239.246,40.561 244.230,41.195 244.995 C 41.603 245.485,42.390 253.729,42.396 257.569 C 42.399 259.227,42.602 260.361,42.971 260.769 C 43.321 261.155,43.651 262.796,43.822 265.000 C 43.989 267.148,44.328 268.860,44.663 269.245 C 44.972 269.600,45.336 270.860,45.472 272.045 C 45.608 273.230,45.954 274.339,46.241 274.509 C 46.528 274.679,46.883 275.884,47.030 277.185 C 47.181 278.518,47.521 279.638,47.809 279.748 C 48.090 279.856,48.442 280.666,48.591 281.549 C 48.741 282.432,49.120 283.368,49.435 283.629 C 49.750 283.890,50.117 284.789,50.251 285.627 C 50.385 286.465,50.733 287.242,51.025 287.354 C 51.317 287.466,51.680 288.222,51.833 289.034 C 51.985 289.845,52.445 290.845,52.855 291.255 C 53.265 291.665,53.600 292.360,53.600 292.800 C 53.600 293.240,53.778 293.600,53.995 293.600 C 54.212 293.600,54.665 294.185,55.002 294.900 C 55.978 296.972,56.963 298.576,57.455 298.895 C 57.706 299.057,58.035 299.687,58.188 300.295 C 58.340 300.903,58.765 301.698,59.132 302.063 C 59.500 302.428,60.117 303.148,60.504 303.663 C 60.890 304.178,61.655 305.166,62.204 305.858 C 62.752 306.550,63.200 307.225,63.200 307.358 C 63.200 307.491,63.515 307.937,63.900 308.349 C 64.285 308.761,65.230 309.864,66.000 310.801 C 68.729 314.121,79.307 324.400,79.995 324.400 C 80.218 324.400,80.400 324.641,80.400 324.936 C 80.400 325.230,80.850 325.677,81.400 325.927 C 81.950 326.178,82.400 326.567,82.400 326.791 C 82.400 327.016,82.687 327.200,83.037 327.200 C 83.388 327.200,83.769 327.560,83.884 328.000 C 83.999 328.440,84.329 328.800,84.616 328.800 C 84.903 328.800,85.673 329.250,86.327 329.800 C 86.981 330.350,87.715 330.800,87.958 330.800 C 88.201 330.800,88.404 331.025,88.409 331.300 C 88.417 331.769,89.512 332.471,92.100 333.667 C 92.705 333.947,93.204 334.361,93.209 334.588 C 93.217 334.978,94.422 335.722,96.900 336.867 C 97.505 337.147,98.000 337.586,98.000 337.843 C 98.000 338.100,98.639 338.431,99.421 338.578 C 100.203 338.724,100.940 339.099,101.060 339.411 C 101.179 339.723,101.892 340.094,102.644 340.235 C 103.396 340.376,104.144 340.713,104.306 340.985 C 104.597 341.474,105.780 342.175,108.300 343.352 C 109.015 343.686,109.600 344.125,109.600 344.328 C 109.600 344.532,110.297 344.809,111.148 344.945 C 111.999 345.081,112.910 345.450,113.171 345.765 C 113.432 346.080,114.368 346.459,115.251 346.609 C 116.134 346.758,116.947 347.118,117.059 347.410 C 117.171 347.702,117.981 348.062,118.859 348.210 C 119.737 348.358,120.546 348.714,120.656 349.001 C 120.765 349.287,121.518 349.644,122.328 349.795 C 123.137 349.945,124.070 350.300,124.400 350.585 C 124.730 350.869,125.840 351.223,126.867 351.371 C 127.894 351.518,128.932 351.878,129.174 352.169 C 129.416 352.460,130.492 352.815,131.565 352.958 C 132.638 353.100,133.718 353.460,133.965 353.758 C 134.212 354.055,135.355 354.424,136.505 354.576 C 137.655 354.729,138.867 355.088,139.198 355.373 C 139.529 355.659,141.060 356.004,142.600 356.140 C 144.229 356.284,145.567 356.614,145.800 356.928 C 146.031 357.240,147.384 357.579,149.000 357.728 C 150.621 357.879,151.968 358.216,152.200 358.530 C 152.470 358.896,154.032 359.162,157.000 359.348 C 159.882 359.529,161.538 359.806,161.800 360.150 C 162.081 360.519,163.992 360.760,168.200 360.957 C 172.952 361.180,174.300 361.370,174.680 361.868 C 175.411 362.827,224.589 362.827,225.320 361.868 C 225.700 361.370,227.048 361.180,231.800 360.957 C 236.008 360.760,237.919 360.519,238.200 360.150 C 238.462 359.806,240.118 359.529,243.000 359.348 C 245.968 359.162,247.530 358.896,247.800 358.530 C 248.032 358.216,249.379 357.879,251.000 357.728 C 252.616 357.579,253.969 357.240,254.200 356.928 C 254.433 356.614,255.771 356.284,257.400 356.140 C 258.940 356.004,260.471 355.659,260.802 355.373 C 261.133 355.088,262.345 354.729,263.495 354.576 C 264.645 354.424,265.788 354.055,266.035 353.758 C 266.282 353.460,267.362 353.100,268.435 352.958 C 269.508 352.815,270.584 352.460,270.826 352.169 C 271.068 351.878,272.106 351.518,273.133 351.371 C 274.160 351.223,275.270 350.869,275.600 350.585 C 275.930 350.300,276.863 349.945,277.672 349.795 C 278.482 349.644,279.235 349.287,279.344 349.001 C 279.454 348.714,280.263 348.358,281.141 348.210 C 282.019 348.062,282.829 347.702,282.941 347.410 C 283.053 347.118,283.866 346.758,284.749 346.609 C 285.632 346.459,286.568 346.080,286.829 345.765 C 287.090 345.450,288.001 345.081,288.852 344.945 C 289.703 344.809,290.400 344.532,290.400 344.328 C 290.400 344.125,290.985 343.686,291.700 343.352 C 294.220 342.175,295.403 341.474,295.694 340.985 C 295.856 340.713,296.604 340.376,297.356 340.235 C 298.108 340.094,298.821 339.723,298.940 339.411 C 299.060 339.099,299.797 338.724,300.579 338.578 C 301.361 338.431,302.004 338.106,302.009 337.855 C 302.017 337.427,303.164 336.705,305.700 335.533 C 306.305 335.253,306.804 334.839,306.809 334.612 C 306.817 334.222,308.022 333.478,310.500 332.333 C 311.105 332.053,311.600 331.594,311.600 331.312 C 311.600 331.031,311.799 330.800,312.042 330.800 C 312.285 330.800,313.019 330.350,313.673 329.800 C 314.327 329.250,315.097 328.800,315.384 328.800 C 315.671 328.800,316.001 328.440,316.116 328.000 C 316.231 327.560,316.612 327.200,316.963 327.200 C 317.313 327.200,317.600 327.016,317.600 326.791 C 317.600 326.567,318.050 326.178,318.600 325.927 C 319.150 325.677,319.600 325.230,319.600 324.936 C 319.600 324.641,319.782 324.400,320.005 324.400 C 320.693 324.400,331.271 314.121,334.000 310.801 C 334.770 309.864,335.697 308.778,336.061 308.388 C 336.424 307.998,336.830 307.346,336.964 306.939 C 337.174 306.298,339.099 303.913,340.953 301.997 C 341.274 301.665,341.661 300.898,341.813 300.292 C 341.965 299.686,342.294 299.057,342.545 298.895 C 343.037 298.576,344.022 296.972,344.998 294.900 C 345.335 294.185,345.788 293.600,346.005 293.600 C 346.222 293.600,346.400 293.240,346.400 292.800 C 346.400 292.360,346.735 291.665,347.145 291.255 C 347.555 290.845,348.015 289.845,348.167 289.034 C 348.320 288.222,348.683 287.466,348.975 287.354 C 349.267 287.242,349.615 286.465,349.749 285.627 C 349.883 284.789,350.250 283.890,350.565 283.629 C 350.880 283.368,351.259 282.432,351.409 281.549 C 351.558 280.666,351.910 279.856,352.191 279.748 C 352.480 279.637,352.820 278.510,352.973 277.155 C 353.130 275.767,353.465 274.673,353.768 274.557 C 354.076 274.439,354.396 273.352,354.546 271.908 C 354.687 270.562,355.051 269.177,355.355 268.830 C 355.675 268.465,356.026 266.735,356.188 264.721 C 356.367 262.503,356.674 261.071,357.034 260.772 C 357.417 260.454,357.601 259.444,357.604 257.651 C 357.610 253.712,358.387 245.571,358.838 244.730 C 359.481 243.527,359.746 238.961,359.279 237.116 C 359.040 236.172,358.633 232.250,358.375 228.400 C 358.080 223.996,357.626 220.457,357.153 218.858 C 356.739 217.460,356.400 215.434,356.400 214.356 C 356.400 213.161,356.088 211.815,355.600 210.904 C 355.160 210.084,354.800 208.817,354.800 208.090 C 354.800 207.363,354.440 206.062,354.000 205.200 C 353.560 204.338,353.199 203.040,353.197 202.316 C 353.196 201.592,352.837 200.460,352.400 199.800 C 351.963 199.140,351.603 198.240,351.600 197.800 C 351.597 197.360,351.237 196.460,350.800 195.800 C 350.363 195.140,350.004 194.276,350.003 193.879 C 350.001 193.483,349.659 192.493,349.242 191.679 C 347.941 189.141,346.800 186.403,346.800 185.818 C 346.800 185.509,346.561 185.018,346.268 184.725 C 345.633 184.090,344.272 181.647,343.413 179.600 C 343.275 179.270,342.722 178.280,342.184 177.400 C 341.647 176.520,340.978 175.350,340.699 174.800 C 340.419 174.250,339.653 173.006,338.995 172.036 C 338.338 171.066,337.530 169.870,337.200 169.379 C 336.870 168.888,336.015 167.648,335.300 166.623 C 334.585 165.598,334.000 164.670,334.000 164.560 C 334.000 164.361,328.565 157.616,325.974 154.600 C 324.259 152.603,312.693 141.153,310.800 139.578 C 310.030 138.937,308.095 137.392,306.500 136.143 C 304.905 134.895,303.600 133.723,303.600 133.537 C 303.600 133.352,303.336 133.200,303.014 133.200 C 302.692 133.200,302.235 132.840,302.000 132.400 C 301.765 131.960,301.407 131.600,301.206 131.600 C 301.005 131.600,300.001 131.015,298.976 130.300 C 296.754 128.750,294.537 127.395,293.300 126.830 C 292.805 126.605,292.400 126.239,292.400 126.018 C 292.400 125.796,291.963 125.506,291.429 125.372 C 290.896 125.238,290.148 124.784,289.767 124.364 C 289.387 123.944,288.858 123.600,288.592 123.600 C 288.326 123.600,287.650 123.240,287.091 122.800 C 286.531 122.360,285.782 122.000,285.424 122.000 C 285.067 122.000,284.672 121.732,284.546 121.404 C 284.421 121.077,283.616 120.620,282.759 120.389 C 281.901 120.158,281.200 119.810,281.200 119.616 C 281.200 119.421,280.584 119.059,279.832 118.811 C 279.080 118.562,278.248 118.098,277.983 117.780 C 277.718 117.461,277.188 117.200,276.805 117.200 C 276.422 117.200,275.650 116.840,275.091 116.400 C 274.531 115.960,273.742 115.599,273.337 115.597 C 272.932 115.596,272.060 115.237,271.400 114.800 C 270.740 114.363,269.819 114.004,269.354 114.003 C 268.889 114.001,268.050 113.640,267.491 113.200 C 266.931 112.760,266.137 112.400,265.726 112.400 C 265.315 112.400,264.588 112.127,264.112 111.793 C 263.247 111.188,258.908 113.490,257.880 115.099 C 257.704 115.375,257.344 115.603,257.080 115.607 C 256.816 115.611,256.204 116.031,255.721 116.541 C 255.238 117.052,253.438 118.149,251.721 118.980 C 250.004 119.812,248.330 120.653,248.000 120.849 C 247.670 121.045,246.950 121.406,246.400 121.652 C 245.850 121.897,244.745 122.436,243.946 122.849 C 243.146 123.262,242.040 123.600,241.489 123.600 C 240.938 123.600,239.703 123.956,238.744 124.391 C 237.785 124.826,236.226 125.186,235.280 125.191 C 234.334 125.196,232.984 125.515,232.280 125.900 C 230.386 126.936,216.827 126.932,214.920 125.896 C 214.216 125.513,213.133 125.200,212.514 125.200 C 211.895 125.200,210.716 124.840,209.896 124.400 C 209.075 123.960,208.157 123.600,207.855 123.600 C 207.554 123.600,206.850 123.240,206.291 122.800 C 205.731 122.360,205.019 122.000,204.707 122.000 C 204.395 122.000,203.077 121.205,201.778 120.233 C 198.918 118.094,198.801 118.145,198.797 121.524 C 198.795 123.522,198.593 124.504,198.000 125.400 C 197.563 126.060,197.204 126.972,197.203 127.426 C 197.197 129.232,191.615 136.335,190.162 136.385 C 189.921 136.393,189.398 136.760,189.000 137.200 C 188.602 137.640,187.968 138.000,187.592 138.000 C 187.216 138.000,186.479 138.335,185.954 138.744 C 183.641 140.547,171.785 140.506,169.662 138.688 C 169.298 138.377,168.685 138.010,168.300 137.873 C 167.915 137.737,167.600 137.453,167.600 137.244 C 167.600 137.034,166.970 136.654,166.200 136.400 C 165.430 136.146,164.800 135.767,164.800 135.559 C 164.800 135.351,164.350 135.009,163.800 134.800 C 163.250 134.591,162.800 134.205,162.800 133.943 C 162.800 133.681,162.531 133.182,162.202 132.834 C 161.106 131.672,159.600 129.688,159.600 129.405 C 159.600 129.252,159.240 128.669,158.800 128.109 C 158.360 127.550,157.999 126.711,157.997 126.246 C 157.996 125.781,157.637 124.860,157.200 124.200 C 156.763 123.540,156.404 122.619,156.403 122.154 C 156.401 121.689,156.040 120.850,155.600 120.291 C 155.160 119.731,154.800 118.881,154.800 118.400 C 154.800 117.919,154.440 117.069,154.000 116.509 C 153.560 115.950,153.200 115.057,153.200 114.526 C 153.200 113.995,152.911 113.002,152.558 112.319 C 152.205 111.636,151.799 110.250,151.655 109.239 C 151.364 107.187,150.927 106.999,147.800 107.581 M221.578 141.700 C 224.361 144.670,222.830 148.028,217.600 150.427 C 217.050 150.679,216.330 151.048,216.000 151.246 C 215.670 151.444,214.950 151.822,214.400 152.087 C 213.850 152.352,212.971 152.890,212.446 153.284 C 211.921 153.678,211.111 154.001,210.646 154.003 C 210.181 154.004,209.260 154.363,208.600 154.800 C 207.940 155.237,206.964 155.596,206.431 155.597 C 205.899 155.599,205.150 155.883,204.767 156.230 C 204.385 156.576,203.110 156.992,201.936 157.155 C 200.761 157.317,199.350 157.695,198.800 157.993 C 198.250 158.291,196.630 158.667,195.200 158.828 C 193.770 158.989,190.890 159.428,188.800 159.803 C 183.890 160.684,170.707 160.444,168.313 159.430 C 167.495 159.084,165.913 158.800,164.797 158.800 C 163.558 158.800,162.158 158.489,161.200 158.000 C 160.338 157.560,159.078 157.200,158.400 157.200 C 157.722 157.200,156.462 156.840,155.600 156.400 C 154.738 155.960,153.710 155.599,153.316 155.597 C 152.922 155.596,152.060 155.237,151.400 154.800 C 150.740 154.363,149.819 154.004,149.354 154.003 C 148.889 154.001,148.050 153.640,147.491 153.200 C 146.931 152.760,146.332 152.400,146.159 152.400 C 144.903 152.400,143.600 150.159,143.600 148.000 C 143.600 143.958,147.091 142.304,151.200 144.400 C 152.062 144.840,153.021 145.200,153.330 145.200 C 153.639 145.200,154.350 145.560,154.909 146.000 C 155.469 146.440,156.350 146.800,156.869 146.800 C 157.388 146.800,158.439 147.132,159.206 147.539 C 159.973 147.945,161.410 148.386,162.400 148.518 C 163.390 148.651,164.740 149.018,165.400 149.335 C 168.962 151.046,190.732 150.906,194.678 149.148 C 195.601 148.737,197.003 148.400,197.794 148.400 C 198.585 148.400,199.938 148.040,200.800 147.600 C 201.662 147.160,202.655 146.800,203.005 146.800 C 203.355 146.800,204.307 146.462,205.121 146.049 C 205.934 145.635,207.500 144.889,208.600 144.390 C 209.700 143.890,210.870 143.327,211.200 143.138 C 211.530 142.949,212.250 142.578,212.800 142.313 C 213.350 142.048,214.229 141.510,214.754 141.116 C 216.491 139.813,220.098 140.121,221.578 141.700 M283.800 212.434 C 296.693 216.547,293.574 235.394,280.000 235.394 C 266.050 235.394,263.330 216.883,276.599 212.243 C 279.449 211.246,280.134 211.265,283.800 212.434 M331.800 228.434 C 344.693 232.547,341.574 251.394,328.000 251.394 C 314.050 251.394,311.330 232.883,324.599 228.243 C 327.449 227.246,328.134 227.265,331.800 228.434 M288.200 260.317 C 289.520 260.696,291.140 261.349,291.800 261.768 C 294.990 263.793,295.595 264.217,295.597 264.425 C 295.599 264.548,295.945 265.019,296.367 265.472 C 305.203 274.957,297.360 291.400,284.000 291.400 C 270.640 291.400,262.797 274.957,271.633 265.472 C 272.055 265.019,272.401 264.548,272.403 264.425 C 272.405 264.217,272.930 263.849,276.200 261.765 C 279.341 259.763,284.219 259.174,288.200 260.317 " stroke="none" fill="#f98711" fill-rule="evenodd"></path><path id="path3" d="M175.417 36.662 C 173.447 36.967,171.467 37.454,171.017 37.745 C 170.568 38.036,169.750 38.394,169.200 38.542 C 165.381 39.566,163.656 43.869,165.997 46.535 C 166.704 47.341,167.512 48.000,167.792 48.000 C 168.073 48.000,168.517 48.258,168.779 48.574 C 169.041 48.890,169.828 49.268,170.528 49.414 C 171.227 49.559,172.250 49.964,172.799 50.314 C 174.470 51.375,185.666 51.174,187.785 50.045 C 188.656 49.580,189.669 49.200,190.036 49.200 C 190.402 49.200,190.926 48.930,191.200 48.600 C 191.474 48.270,191.927 48.000,192.208 48.000 C 192.488 48.000,193.296 47.341,194.003 46.535 C 196.344 43.869,194.619 39.566,190.800 38.542 C 190.250 38.394,189.440 38.042,189.000 37.759 C 188.288 37.301,180.521 35.917,179.430 36.054 C 179.193 36.083,177.388 36.357,175.417 36.662 M242.218 52.852 C 240.248 53.041,237.908 53.456,237.018 53.773 C 236.128 54.090,234.680 54.462,233.800 54.600 C 232.226 54.847,227.382 56.595,226.600 57.199 C 226.380 57.369,225.617 57.632,224.905 57.785 C 224.192 57.937,223.500 58.239,223.366 58.455 C 223.232 58.672,222.735 58.998,222.261 59.179 C 217.805 60.887,208.302 69.113,203.759 75.196 C 202.279 77.178,200.918 78.800,200.734 78.800 C 200.550 78.800,200.398 79.025,200.396 79.300 C 200.394 79.575,199.950 80.700,199.409 81.800 C 198.868 82.900,198.419 83.989,198.413 84.220 C 198.406 84.451,198.188 84.852,197.929 85.111 C 197.288 85.752,195.635 91.485,195.616 93.133 C 195.599 94.580,196.413 94.743,196.789 93.368 C 197.006 92.575,199.664 88.888,201.800 86.417 C 212.999 73.465,227.061 66.044,243.643 64.335 C 249.912 63.689,263.798 64.818,269.000 66.397 C 270.320 66.797,272.093 67.244,272.940 67.388 C 273.787 67.533,275.047 67.888,275.740 68.178 C 277.407 68.874,279.743 69.600,280.317 69.600 C 280.933 69.600,282.723 65.751,283.125 63.559 C 283.617 60.877,283.226 59.948,281.185 58.952 C 278.412 57.600,274.071 56.000,273.172 56.000 C 272.726 56.000,271.874 55.751,271.280 55.447 C 270.686 55.143,269.210 54.770,268.000 54.620 C 266.790 54.469,264.990 54.094,264.000 53.787 C 260.572 52.723,248.817 52.218,242.218 52.852 " stroke="none" fill="#9cec64" fill-rule="evenodd"></path><path id="path4" d="M276.599 212.243 C 263.330 216.883,266.050 235.394,280.000 235.394 C 293.574 235.394,296.693 216.547,283.800 212.434 C 280.134 211.265,279.449 211.246,276.599 212.243 M324.599 228.243 C 311.330 232.883,314.050 251.394,328.000 251.394 C 341.574 251.394,344.693 232.547,331.800 228.434 C 328.134 227.265,327.449 227.246,324.599 228.243 M279.600 260.347 C 278.390 260.706,276.860 261.344,276.200 261.765 C 272.930 263.849,272.405 264.217,272.403 264.425 C 272.401 264.548,272.055 265.019,271.633 265.472 C 262.797 274.957,270.640 291.400,284.000 291.400 C 297.360 291.400,305.203 274.957,296.367 265.472 C 295.945 265.019,295.599 264.548,295.597 264.425 C 295.595 264.217,294.990 263.793,291.800 261.768 C 288.645 259.764,283.560 259.172,279.600 260.347 " stroke="none" fill="#fcab53" fill-rule="evenodd"></path><path id="path5" d="M148.989 106.150 C 148.555 106.452,147.390 106.834,146.400 106.997 C 145.410 107.161,144.124 107.538,143.542 107.836 C 142.960 108.134,141.790 108.553,140.942 108.768 C 138.709 109.335,135.335 110.592,134.725 111.084 C 134.436 111.317,133.627 111.630,132.928 111.780 C 132.228 111.929,131.441 112.310,131.179 112.626 C 130.917 112.942,130.409 113.202,130.051 113.204 C 129.693 113.206,128.500 113.650,127.400 114.191 C 126.300 114.732,125.107 115.181,124.749 115.187 C 124.391 115.194,123.883 115.458,123.621 115.774 C 123.359 116.090,122.619 116.464,121.977 116.605 C 121.335 116.746,120.695 117.046,120.556 117.272 C 120.416 117.497,119.739 117.936,119.051 118.247 C 117.737 118.841,116.858 119.337,115.192 120.428 C 114.638 120.791,113.763 121.221,113.247 121.385 C 112.731 121.549,110.883 122.654,109.139 123.841 C 107.396 125.029,105.854 126.000,105.714 126.000 C 103.092 126.000,78.941 146.795,73.196 154.000 C 72.055 155.430,71.005 156.690,70.861 156.800 C 69.190 158.080,58.029 174.018,57.386 176.043 C 57.222 176.561,56.791 177.438,56.428 177.992 C 54.689 180.649,50.799 188.430,50.799 189.251 C 50.800 189.609,50.530 190.126,50.200 190.400 C 49.870 190.674,49.600 191.132,49.600 191.419 C 49.600 191.930,47.441 197.549,46.773 198.775 C 46.586 199.119,46.256 200.210,46.041 201.200 C 45.826 202.190,45.358 203.900,45.000 205.000 C 43.182 210.595,42.234 214.737,41.388 220.800 C 41.096 222.890,40.644 225.770,40.384 227.200 C 39.792 230.453,39.780 250.911,40.369 254.000 C 40.599 255.210,40.983 257.730,41.222 259.600 C 41.462 261.470,41.910 263.990,42.220 265.200 C 42.529 266.410,42.978 268.432,43.218 269.693 C 43.458 270.954,43.811 272.083,44.004 272.202 C 44.196 272.321,44.478 273.269,44.629 274.309 C 44.780 275.349,45.151 276.686,45.452 277.280 C 45.753 277.874,46.000 278.672,46.000 279.054 C 46.000 279.435,46.342 280.479,46.760 281.374 C 47.177 282.268,48.014 284.170,48.620 285.600 C 50.829 290.820,52.486 294.073,54.496 297.139 C 54.878 297.722,55.418 298.650,55.696 299.200 C 56.428 300.653,59.473 305.173,60.816 306.800 C 61.451 307.570,63.128 309.640,64.542 311.400 C 67.506 315.087,76.278 323.785,79.800 326.529 C 81.120 327.557,82.470 328.634,82.800 328.923 C 85.611 331.380,96.178 338.740,98.200 339.648 C 98.640 339.846,100.260 340.733,101.800 341.620 C 103.340 342.507,105.230 343.513,106.000 343.856 C 106.770 344.199,107.670 344.700,108.000 344.969 C 108.330 345.237,109.770 345.958,111.200 346.569 C 112.630 347.181,114.610 348.040,115.600 348.479 C 116.590 348.918,118.030 349.551,118.800 349.887 C 119.570 350.222,120.830 350.812,121.600 351.198 C 122.370 351.584,123.630 352.030,124.400 352.189 C 125.170 352.348,126.160 352.704,126.600 352.979 C 127.040 353.254,128.117 353.612,128.993 353.775 C 129.869 353.938,130.949 354.277,131.393 354.529 C 131.837 354.781,133.010 355.196,134.000 355.451 C 134.990 355.705,136.340 356.105,137.000 356.338 C 138.375 356.825,142.861 357.906,145.800 358.459 C 146.900 358.666,148.463 359.091,149.273 359.404 C 150.084 359.716,151.974 360.093,153.473 360.240 C 154.973 360.388,156.525 360.675,156.922 360.880 C 157.319 361.085,159.569 361.507,161.922 361.819 C 164.275 362.131,167.550 362.567,169.200 362.789 C 185.978 365.047,214.022 365.047,230.800 362.789 C 232.450 362.567,235.725 362.131,238.078 361.819 C 240.431 361.507,242.681 361.085,243.078 360.880 C 243.475 360.675,245.027 360.388,246.527 360.240 C 248.026 360.093,249.916 359.716,250.727 359.404 C 251.537 359.091,253.100 358.666,254.200 358.459 C 257.139 357.906,261.625 356.825,263.000 356.338 C 263.660 356.105,265.010 355.705,266.000 355.451 C 266.990 355.196,268.163 354.781,268.607 354.529 C 269.051 354.277,270.131 353.938,271.007 353.775 C 271.883 353.612,272.960 353.254,273.400 352.979 C 273.840 352.704,274.830 352.348,275.600 352.189 C 276.370 352.030,277.630 351.584,278.400 351.198 C 279.170 350.812,280.430 350.222,281.200 349.887 C 281.970 349.551,283.410 348.918,284.400 348.479 C 285.390 348.040,287.370 347.181,288.800 346.569 C 290.230 345.958,291.670 345.237,292.000 344.969 C 292.330 344.700,293.230 344.199,294.000 343.856 C 294.770 343.513,296.660 342.507,298.200 341.620 C 299.740 340.733,301.360 339.846,301.800 339.648 C 303.822 338.740,314.389 331.380,317.200 328.923 C 317.530 328.634,318.880 327.557,320.200 326.529 C 325.263 322.585,335.541 311.929,338.072 308.000 C 338.427 307.450,339.134 306.561,339.645 306.024 C 340.639 304.979,343.465 300.849,344.316 299.200 C 345.101 297.677,345.784 296.543,346.276 295.943 C 346.871 295.218,350.400 288.329,350.400 287.893 C 350.400 287.705,350.866 286.527,351.435 285.275 C 352.004 284.024,352.712 282.460,353.009 281.800 C 353.775 280.094,354.788 276.904,355.230 274.800 C 355.438 273.810,355.858 272.460,356.163 271.800 C 356.468 271.140,356.840 269.790,356.991 268.800 C 357.141 267.810,357.509 266.100,357.807 265.000 C 358.106 263.900,358.547 261.470,358.786 259.600 C 359.026 257.730,359.403 255.120,359.623 253.800 C 360.179 250.480,360.175 231.285,359.618 227.600 C 359.369 225.950,358.922 222.768,358.625 220.530 C 358.327 218.291,357.966 216.268,357.820 216.033 C 357.675 215.798,357.381 214.480,357.167 213.103 C 356.800 210.743,356.580 209.922,354.994 205.000 C 354.639 203.900,354.174 202.190,353.959 201.200 C 353.744 200.210,353.414 199.119,353.227 198.775 C 352.559 197.549,350.400 191.930,350.400 191.419 C 350.400 191.132,350.130 190.674,349.800 190.400 C 349.470 190.126,349.200 189.609,349.201 189.251 C 349.201 188.430,345.311 180.649,343.572 177.992 C 343.209 177.438,342.778 176.561,342.614 176.043 C 341.971 174.018,330.810 158.080,329.139 156.800 C 328.995 156.690,327.945 155.430,326.804 154.000 C 321.059 146.795,296.908 126.000,294.286 126.000 C 294.146 126.000,292.604 125.029,290.861 123.841 C 289.117 122.654,287.269 121.549,286.753 121.385 C 286.237 121.221,285.362 120.791,284.808 120.428 C 283.142 119.337,282.263 118.841,280.949 118.247 C 280.261 117.936,279.584 117.497,279.444 117.272 C 279.305 117.046,278.665 116.746,278.023 116.605 C 277.381 116.464,276.641 116.090,276.379 115.774 C 276.117 115.458,275.609 115.194,275.251 115.187 C 274.893 115.181,273.700 114.732,272.600 114.191 C 271.500 113.650,270.307 113.206,269.949 113.204 C 269.591 113.202,269.078 112.935,268.809 112.611 C 268.540 112.286,267.714 111.908,266.974 111.769 C 266.234 111.630,265.420 111.265,265.165 110.958 C 264.055 109.620,262.341 110.308,257.200 114.154 C 254.450 116.212,251.627 118.021,250.928 118.174 C 250.228 118.326,249.455 118.692,249.211 118.986 C 248.967 119.281,248.280 119.643,247.684 119.792 C 247.088 119.941,246.330 120.282,246.000 120.550 C 244.506 121.764,238.316 123.618,232.547 124.580 C 230.758 124.878,228.925 125.319,228.473 125.561 C 226.735 126.491,214.383 125.213,211.600 123.815 C 211.050 123.538,210.060 123.183,209.400 123.025 C 208.740 122.867,207.930 122.503,207.600 122.216 C 207.270 121.929,206.560 121.560,206.023 121.396 C 205.003 121.084,201.609 118.849,200.162 117.537 C 198.624 116.142,198.000 116.917,198.000 120.219 C 198.000 121.833,197.825 123.261,197.611 123.393 C 197.397 123.526,197.024 124.391,196.782 125.317 C 196.311 127.118,194.834 130.337,194.062 131.246 C 193.803 131.551,193.235 132.277,192.799 132.859 C 188.926 138.034,177.908 140.689,171.404 138.014 C 168.663 136.887,163.978 133.863,163.433 132.869 C 163.232 132.501,162.488 131.480,161.782 130.600 C 161.075 129.720,160.018 127.920,159.433 126.600 C 158.847 125.280,158.105 123.690,157.784 123.068 C 157.463 122.445,157.200 121.722,157.200 121.462 C 157.200 121.201,156.868 120.361,156.461 119.594 C 156.055 118.827,155.591 117.660,155.430 117.000 C 155.269 116.340,154.907 115.530,154.626 115.200 C 154.344 114.870,153.921 113.700,153.686 112.600 C 152.365 106.420,151.098 104.680,148.989 106.150 M151.655 109.239 C 151.799 110.250,152.205 111.636,152.558 112.319 C 152.911 113.002,153.200 113.995,153.200 114.526 C 153.200 115.057,153.560 115.950,154.000 116.509 C 154.440 117.069,154.800 117.919,154.800 118.400 C 154.800 118.881,155.160 119.731,155.600 120.291 C 156.040 120.850,156.401 121.689,156.403 122.154 C 156.404 122.619,156.763 123.540,157.200 124.200 C 157.637 124.860,157.996 125.781,157.997 126.246 C 157.999 126.711,158.360 127.550,158.800 128.109 C 159.240 128.669,159.600 129.252,159.600 129.405 C 159.600 129.688,161.106 131.672,162.202 132.834 C 162.531 133.182,162.800 133.681,162.800 133.943 C 162.800 134.205,163.250 134.591,163.800 134.800 C 164.350 135.009,164.800 135.351,164.800 135.559 C 164.800 135.767,165.430 136.146,166.200 136.400 C 166.970 136.654,167.600 137.034,167.600 137.244 C 167.600 137.453,167.915 137.737,168.300 137.873 C 168.685 138.010,169.298 138.377,169.662 138.688 C 171.785 140.506,183.641 140.547,185.954 138.744 C 186.479 138.335,187.216 138.000,187.592 138.000 C 187.968 138.000,188.602 137.640,189.000 137.200 C 189.398 136.760,189.921 136.393,190.162 136.385 C 191.615 136.335,197.197 129.232,197.203 127.426 C 197.204 126.972,197.563 126.060,198.000 125.400 C 198.593 124.504,198.795 123.522,198.797 121.524 C 198.801 118.145,198.918 118.094,201.778 120.233 C 203.077 121.205,204.395 122.000,204.707 122.000 C 205.019 122.000,205.731 122.360,206.291 122.800 C 206.850 123.240,207.554 123.600,207.855 123.600 C 208.157 123.600,209.075 123.960,209.896 124.400 C 210.716 124.840,211.895 125.200,212.514 125.200 C 213.133 125.200,214.216 125.513,214.920 125.896 C 216.827 126.932,230.386 126.936,232.280 125.900 C 232.984 125.515,234.334 125.196,235.280 125.191 C 236.226 125.186,237.785 124.826,238.744 124.391 C 239.703 123.956,240.938 123.600,241.489 123.600 C 242.040 123.600,243.146 123.262,243.946 122.849 C 244.745 122.436,245.850 121.897,246.400 121.652 C 246.950 121.406,247.670 121.045,248.000 120.849 C 248.330 120.653,250.004 119.812,251.721 118.980 C 253.438 118.149,255.238 117.052,255.721 116.541 C 256.204 116.031,256.816 115.611,257.080 115.607 C 257.344 115.603,257.704 115.375,257.880 115.099 C 258.908 113.490,263.247 111.188,264.112 111.793 C 264.588 112.127,265.315 112.400,265.726 112.400 C 266.137 112.400,266.931 112.760,267.491 113.200 C 268.050 113.640,268.889 114.001,269.354 114.003 C 269.819 114.004,270.740 114.363,271.400 114.800 C 272.060 115.237,272.932 115.596,273.337 115.597 C 273.742 115.599,274.531 115.960,275.091 116.400 C 275.650 116.840,276.422 117.200,276.805 117.200 C 277.188 117.200,277.718 117.461,277.983 117.780 C 278.248 118.098,279.080 118.562,279.832 118.811 C 280.584 119.059,281.200 119.421,281.200 119.616 C 281.200 119.810,281.901 120.158,282.759 120.389 C 283.616 120.620,284.421 121.077,284.546 121.404 C 284.672 121.732,285.067 122.000,285.424 122.000 C 285.782 122.000,286.531 122.360,287.091 122.800 C 287.650 123.240,288.326 123.600,288.592 123.600 C 288.858 123.600,289.387 123.944,289.767 124.364 C 290.148 124.784,290.896 125.238,291.429 125.372 C 291.963 125.506,292.400 125.796,292.400 126.018 C 292.400 126.239,292.805 126.605,293.300 126.830 C 294.537 127.395,296.754 128.750,298.976 130.300 C 300.001 131.015,301.005 131.600,301.206 131.600 C 301.407 131.600,301.765 131.960,302.000 132.400 C 302.235 132.840,302.692 133.200,303.014 133.200 C 303.336 133.200,303.600 133.352,303.600 133.537 C 303.600 133.723,304.905 134.895,306.500 136.143 C 308.095 137.392,310.030 138.937,310.800 139.578 C 312.693 141.153,324.259 152.603,325.974 154.600 C 328.565 157.616,334.000 164.361,334.000 164.560 C 334.000 164.670,334.585 165.598,335.300 166.623 C 336.015 167.648,336.870 168.888,337.200 169.379 C 337.530 169.870,338.338 171.066,338.995 172.036 C 339.653 173.006,340.419 174.250,340.699 174.800 C 340.978 175.350,341.647 176.520,342.184 177.400 C 342.722 178.280,343.275 179.270,343.413 179.600 C 344.272 181.647,345.633 184.090,346.268 184.725 C 346.561 185.018,346.800 185.509,346.800 185.818 C 346.800 186.403,347.941 189.141,349.242 191.679 C 349.659 192.493,350.001 193.483,350.003 193.879 C 350.004 194.276,350.363 195.140,350.800 195.800 C 351.237 196.460,351.597 197.360,351.600 197.800 C 351.603 198.240,351.963 199.140,352.400 199.800 C 352.837 200.460,353.196 201.592,353.197 202.316 C 353.199 203.040,353.560 204.338,354.000 205.200 C 354.440 206.062,354.800 207.363,354.800 208.090 C 354.800 208.817,355.160 210.084,355.600 210.904 C 356.088 211.815,356.400 213.161,356.400 214.356 C 356.400 215.434,356.739 217.460,357.153 218.858 C 357.626 220.457,358.080 223.996,358.375 228.400 C 358.633 232.250,359.040 236.172,359.279 237.116 C 359.746 238.961,359.481 243.527,358.838 244.730 C 358.387 245.571,357.610 253.712,357.604 257.651 C 357.601 259.444,357.417 260.454,357.034 260.772 C 356.674 261.071,356.367 262.503,356.188 264.721 C 356.026 266.735,355.675 268.465,355.355 268.830 C 355.051 269.177,354.687 270.562,354.546 271.908 C 354.396 273.352,354.076 274.439,353.768 274.557 C 353.465 274.673,353.130 275.767,352.973 277.155 C 352.820 278.510,352.480 279.637,352.191 279.748 C 351.910 279.856,351.558 280.666,351.409 281.549 C 351.259 282.432,350.880 283.368,350.565 283.629 C 350.250 283.890,349.883 284.789,349.749 285.627 C 349.615 286.465,349.267 287.242,348.975 287.354 C 348.683 287.466,348.320 288.222,348.167 289.034 C 348.015 289.845,347.555 290.845,347.145 291.255 C 346.735 291.665,346.400 292.360,346.400 292.800 C 346.400 293.240,346.222 293.600,346.005 293.600 C 345.788 293.600,345.335 294.185,344.998 294.900 C 344.022 296.972,343.037 298.576,342.545 298.895 C 342.294 299.057,341.965 299.686,341.813 300.292 C 341.661 300.898,341.274 301.665,340.953 301.997 C 339.099 303.913,337.174 306.298,336.964 306.939 C 336.830 307.346,336.424 307.998,336.061 308.388 C 335.697 308.778,334.770 309.864,334.000 310.801 C 331.271 314.121,320.693 324.400,320.005 324.400 C 319.782 324.400,319.600 324.641,319.600 324.936 C 319.600 325.230,319.150 325.677,318.600 325.927 C 318.050 326.178,317.600 326.567,317.600 326.791 C 317.600 327.016,317.313 327.200,316.963 327.200 C 316.612 327.200,316.231 327.560,316.116 328.000 C 316.001 328.440,315.671 328.800,315.384 328.800 C 315.097 328.800,314.327 329.250,313.673 329.800 C 313.019 330.350,312.285 330.800,312.042 330.800 C 311.799 330.800,311.600 331.031,311.600 331.312 C 311.600 331.594,311.105 332.053,310.500 332.333 C 308.022 333.478,306.817 334.222,306.809 334.612 C 306.804 334.839,306.305 335.253,305.700 335.533 C 303.164 336.705,302.017 337.427,302.009 337.855 C 302.004 338.106,301.361 338.431,300.579 338.578 C 299.797 338.724,299.060 339.099,298.940 339.411 C 298.821 339.723,298.108 340.094,297.356 340.235 C 296.604 340.376,295.856 340.713,295.694 340.985 C 295.403 341.474,294.220 342.175,291.700 343.352 C 290.985 343.686,290.400 344.125,290.400 344.328 C 290.400 344.532,289.703 344.809,288.852 344.945 C 288.001 345.081,287.090 345.450,286.829 345.765 C 286.568 346.080,285.632 346.459,284.749 346.609 C 283.866 346.758,283.053 347.118,282.941 347.410 C 282.829 347.702,282.019 348.062,281.141 348.210 C 280.263 348.358,279.454 348.714,279.344 349.001 C 279.235 349.287,278.482 349.644,277.672 349.795 C 276.863 349.945,275.930 350.300,275.600 350.585 C 275.270 350.869,274.160 351.223,273.133 351.371 C 272.106 351.518,271.068 351.878,270.826 352.169 C 270.584 352.460,269.508 352.815,268.435 352.958 C 267.362 353.100,266.282 353.460,266.035 353.758 C 265.788 354.055,264.645 354.424,263.495 354.576 C 262.345 354.729,261.133 355.088,260.802 355.373 C 260.471 355.659,258.940 356.004,257.400 356.140 C 255.771 356.284,254.433 356.614,254.200 356.928 C 253.969 357.240,252.616 357.579,251.000 357.728 C 249.379 357.879,248.032 358.216,247.800 358.530 C 247.530 358.896,245.968 359.162,243.000 359.348 C 240.118 359.529,238.462 359.806,238.200 360.150 C 237.919 360.519,236.008 360.760,231.800 360.957 C 227.048 361.180,225.700 361.370,225.320 361.868 C 224.589 362.827,175.411 362.827,174.680 361.868 C 174.300 361.370,172.952 361.180,168.200 360.957 C 163.992 360.760,162.081 360.519,161.800 360.150 C 161.538 359.806,159.882 359.529,157.000 359.348 C 154.032 359.162,152.470 358.896,152.200 358.530 C 151.968 358.216,150.621 357.879,149.000 357.728 C 147.384 357.579,146.031 357.240,145.800 356.928 C 145.567 356.614,144.229 356.284,142.600 356.140 C 141.060 356.004,139.529 355.659,139.198 355.373 C 138.867 355.088,137.655 354.729,136.505 354.576 C 135.355 354.424,134.212 354.055,133.965 353.758 C 133.718 353.460,132.638 353.100,131.565 352.958 C 130.492 352.815,129.416 352.460,129.174 352.169 C 128.932 351.878,127.894 351.518,126.867 351.371 C 125.840 351.223,124.730 350.869,124.400 350.585 C 124.070 350.300,123.137 349.945,122.328 349.795 C 121.518 349.644,120.765 349.287,120.656 349.001 C 120.546 348.714,119.737 348.358,118.859 348.210 C 117.981 348.062,117.171 347.702,117.059 347.410 C 116.947 347.118,116.134 346.758,115.251 346.609 C 114.368 346.459,113.432 346.080,113.171 345.765 C 112.910 345.450,111.999 345.081,111.148 344.945 C 110.297 344.809,109.600 344.532,109.600 344.328 C 109.600 344.125,109.015 343.686,108.300 343.352 C 105.780 342.175,104.597 341.474,104.306 340.985 C 104.144 340.713,103.396 340.376,102.644 340.235 C 101.892 340.094,101.179 339.723,101.060 339.411 C 100.940 339.099,100.203 338.724,99.421 338.578 C 98.639 338.431,98.000 338.100,98.000 337.843 C 98.000 337.586,97.505 337.147,96.900 336.867 C 94.422 335.722,93.217 334.978,93.209 334.588 C 93.204 334.361,92.705 333.947,92.100 333.667 C 89.512 332.471,88.417 331.769,88.409 331.300 C 88.404 331.025,88.201 330.800,87.958 330.800 C 87.715 330.800,86.981 330.350,86.327 329.800 C 85.673 329.250,84.903 328.800,84.616 328.800 C 84.329 328.800,83.999 328.440,83.884 328.000 C 83.769 327.560,83.388 327.200,83.037 327.200 C 82.687 327.200,82.400 327.016,82.400 326.791 C 82.400 326.567,81.950 326.178,81.400 325.927 C 80.850 325.677,80.400 325.230,80.400 324.936 C 80.400 324.641,80.218 324.400,79.995 324.400 C 79.307 324.400,68.729 314.121,66.000 310.801 C 65.230 309.864,64.285 308.761,63.900 308.349 C 63.515 307.937,63.200 307.491,63.200 307.358 C 63.200 307.225,62.752 306.550,62.204 305.858 C 61.655 305.166,60.890 304.178,60.504 303.663 C 60.117 303.148,59.500 302.428,59.132 302.063 C 58.765 301.698,58.340 300.903,58.188 300.295 C 58.035 299.687,57.706 299.057,57.455 298.895 C 56.963 298.576,55.978 296.972,55.002 294.900 C 54.665 294.185,54.212 293.600,53.995 293.600 C 53.778 293.600,53.600 293.240,53.600 292.800 C 53.600 292.360,53.265 291.665,52.855 291.255 C 52.445 290.845,51.985 289.845,51.833 289.034 C 51.680 288.222,51.317 287.466,51.025 287.354 C 50.733 287.242,50.385 286.465,50.251 285.627 C 50.117 284.789,49.750 283.890,49.435 283.629 C 49.120 283.368,48.741 282.432,48.591 281.549 C 48.442 280.666,48.090 279.856,47.809 279.748 C 47.521 279.638,47.181 278.518,47.030 277.185 C 46.883 275.884,46.528 274.679,46.241 274.509 C 45.954 274.339,45.608 273.230,45.472 272.045 C 45.336 270.860,44.972 269.600,44.663 269.245 C 44.328 268.860,43.989 267.148,43.822 265.000 C 43.651 262.796,43.321 261.155,42.971 260.769 C 42.602 260.361,42.399 259.227,42.396 257.569 C 42.390 253.729,41.603 245.485,41.195 244.995 C 40.561 244.230,40.264 239.246,40.724 237.075 C 40.966 235.934,41.363 232.030,41.606 228.400 C 41.874 224.409,42.356 220.693,42.826 219.000 C 43.253 217.460,43.602 215.344,43.601 214.299 C 43.601 213.159,43.921 211.799,44.400 210.904 C 44.840 210.084,45.200 208.817,45.200 208.090 C 45.200 207.363,45.560 206.062,46.000 205.200 C 46.440 204.338,46.801 203.040,46.803 202.316 C 46.804 201.592,47.163 200.460,47.600 199.800 C 48.037 199.140,48.397 198.240,48.400 197.800 C 48.403 197.360,48.763 196.460,49.200 195.800 C 49.637 195.140,49.996 194.276,49.997 193.879 C 49.999 193.483,50.341 192.493,50.758 191.679 C 52.059 189.141,53.200 186.403,53.200 185.818 C 53.200 185.509,53.439 185.018,53.732 184.725 C 54.367 184.090,55.728 181.647,56.587 179.600 C 56.725 179.270,57.278 178.280,57.816 177.400 C 58.353 176.520,59.022 175.350,59.301 174.800 C 59.581 174.250,60.347 173.006,61.005 172.036 C 61.662 171.066,62.470 169.870,62.800 169.379 C 63.130 168.888,63.985 167.648,64.700 166.623 C 65.415 165.598,66.000 164.670,66.000 164.560 C 66.000 164.361,71.435 157.616,74.026 154.600 C 75.741 152.603,87.307 141.153,89.200 139.578 C 89.970 138.937,91.905 137.392,93.500 136.143 C 95.095 134.895,96.400 133.723,96.400 133.537 C 96.400 133.352,96.664 133.200,96.986 133.200 C 97.308 133.200,97.765 132.840,98.000 132.400 C 98.235 131.960,98.593 131.600,98.794 131.600 C 98.995 131.600,99.999 131.015,101.024 130.300 C 103.246 128.750,105.463 127.395,106.700 126.830 C 107.195 126.605,107.600 126.239,107.600 126.018 C 107.600 125.796,108.037 125.506,108.571 125.372 C 109.104 125.238,109.852 124.784,110.233 124.364 C 110.613 123.944,111.142 123.600,111.408 123.600 C 111.674 123.600,112.350 123.240,112.909 122.800 C 113.469 122.360,114.173 122.000,114.474 122.000 C 114.776 122.000,115.330 121.640,115.707 121.200 C 116.084 120.760,116.741 120.400,117.168 120.400 C 117.594 120.400,118.199 120.143,118.513 119.830 C 118.827 119.516,119.695 118.980,120.442 118.638 C 121.189 118.296,122.070 117.852,122.400 117.651 C 122.730 117.450,123.450 117.088,124.000 116.846 C 124.550 116.604,125.270 116.249,125.600 116.056 C 125.930 115.864,126.830 115.484,127.600 115.211 C 131.314 113.895,132.247 113.495,132.831 112.969 C 133.179 112.656,133.809 112.399,134.231 112.397 C 134.654 112.396,135.540 112.037,136.200 111.600 C 136.860 111.163,137.763 110.804,138.206 110.803 C 138.649 110.801,139.684 110.440,140.504 110.000 C 141.325 109.560,142.403 109.199,142.899 109.198 C 143.394 109.196,144.340 108.899,145.000 108.537 C 146.323 107.811,148.851 107.252,150.397 107.342 C 151.265 107.392,151.428 107.638,151.655 109.239 M214.754 141.116 C 214.229 141.510,213.350 142.048,212.800 142.313 C 212.250 142.578,211.530 142.949,211.200 143.138 C 210.870 143.327,209.700 143.890,208.600 144.390 C 207.500 144.889,205.934 145.635,205.121 146.049 C 204.307 146.462,203.355 146.800,203.005 146.800 C 202.655 146.800,201.662 147.160,200.800 147.600 C 199.938 148.040,198.585 148.400,197.794 148.400 C 197.003 148.400,195.601 148.737,194.678 149.148 C 190.732 150.906,168.962 151.046,165.400 149.335 C 164.740 149.018,163.390 148.651,162.400 148.518 C 161.410 148.386,159.973 147.945,159.206 147.539 C 158.439 147.132,157.388 146.800,156.869 146.800 C 156.350 146.800,155.469 146.440,154.909 146.000 C 154.350 145.560,153.639 145.200,153.330 145.200 C 153.021 145.200,152.062 144.840,151.200 144.400 C 147.091 142.304,143.600 143.958,143.600 148.000 C 143.600 150.159,144.903 152.400,146.159 152.400 C 146.332 152.400,146.931 152.760,147.491 153.200 C 148.050 153.640,148.889 154.001,149.354 154.003 C 149.819 154.004,150.740 154.363,151.400 154.800 C 152.060 155.237,152.922 155.596,153.316 155.597 C 153.710 155.599,154.738 155.960,155.600 156.400 C 156.462 156.840,157.722 157.200,158.400 157.200 C 159.078 157.200,160.338 157.560,161.200 158.000 C 162.158 158.489,163.558 158.800,164.797 158.800 C 165.913 158.800,167.495 159.084,168.313 159.430 C 170.707 160.444,183.890 160.684,188.800 159.803 C 190.890 159.428,193.770 158.989,195.200 158.828 C 196.630 158.667,198.250 158.291,198.800 157.993 C 199.350 157.695,200.761 157.317,201.936 157.155 C 203.110 156.992,204.385 156.576,204.767 156.230 C 205.150 155.883,205.899 155.599,206.431 155.597 C 206.964 155.596,207.940 155.237,208.600 154.800 C 209.260 154.363,210.181 154.004,210.646 154.003 C 211.111 154.001,211.921 153.678,212.446 153.284 C 212.971 152.890,213.850 152.352,214.400 152.087 C 214.950 151.822,215.670 151.444,216.000 151.246 C 216.330 151.048,217.050 150.679,217.600 150.427 C 222.830 148.028,224.361 144.670,221.578 141.700 C 220.098 140.121,216.491 139.813,214.754 141.116 M220.725 142.384 C 222.445 144.711,221.436 147.485,218.400 148.774 C 217.370 149.211,216.540 149.684,214.792 150.828 C 214.238 151.191,213.338 151.624,212.792 151.791 C 212.247 151.958,211.530 152.323,211.200 152.603 C 210.870 152.882,209.970 153.242,209.200 153.402 C 208.430 153.562,207.620 153.835,207.400 154.009 C 206.685 154.576,202.266 156.027,199.517 156.597 C 198.042 156.903,196.512 157.323,196.117 157.531 C 195.723 157.739,194.050 158.032,192.400 158.184 C 190.750 158.335,187.600 158.737,185.400 159.076 C 181.027 159.751,179.033 159.669,169.600 158.419 C 164.055 157.685,158.927 156.524,157.240 155.622 C 156.807 155.390,156.070 155.200,155.602 155.200 C 154.826 155.200,153.131 154.520,148.556 152.372 C 147.652 151.947,146.752 151.597,146.556 151.593 C 145.583 151.574,144.400 149.617,144.400 148.024 C 144.400 144.908,147.073 143.606,150.200 145.200 C 151.063 145.640,152.069 146.000,152.436 146.000 C 152.802 146.000,153.317 146.258,153.579 146.574 C 153.841 146.890,154.628 147.271,155.328 147.420 C 156.027 147.570,156.782 147.838,157.005 148.017 C 157.228 148.195,158.308 148.548,159.405 148.802 C 160.502 149.055,162.030 149.509,162.800 149.810 C 163.570 150.111,165.640 150.553,167.400 150.792 C 169.160 151.031,171.500 151.389,172.600 151.589 C 180.782 153.075,202.349 149.845,206.475 146.516 C 206.764 146.283,207.573 145.970,208.272 145.820 C 208.972 145.671,209.759 145.290,210.021 144.974 C 210.283 144.658,210.722 144.400,210.995 144.400 C 211.268 144.400,211.936 144.051,212.478 143.625 C 213.020 143.198,213.937 142.731,214.515 142.586 C 215.094 142.440,215.777 142.069,216.033 141.761 C 216.930 140.680,219.741 141.053,220.725 142.384 " stroke="none" fill="#c06919" fill-rule="evenodd"></path></g></svg>