<svg id="svg" version="1.1" xmlns="http://www.w3.org/2000/svg" xmlns:xlink="http://www.w3.org/1999/xlink" width="400" height="348.3296213808463" viewBox="0, 0, 400,348.3296213808463"><g id="svgg"><path id="path0" d="M186.585 107.683 C 174.014 108.488,173.824 108.588,175.115 113.681 C 175.418 114.876,175.795 116.402,175.954 117.073 C 176.312 118.589,177.437 123.668,178.578 128.920 C 179.273 132.118,180.048 135.595,180.481 137.456 C 180.660 138.223,181.052 139.948,181.352 141.289 C 182.322 145.615,183.275 149.634,183.955 152.265 C 184.129 152.936,184.525 154.582,184.837 155.923 C 185.148 157.265,185.540 158.911,185.708 159.582 C 185.875 160.253,186.250 161.821,186.539 163.066 C 187.036 165.203,187.632 167.725,189.732 176.569 C 190.799 181.065,191.538 184.066,191.984 185.714 C 192.165 186.385,192.642 188.267,193.045 189.895 C 194.336 195.121,195.337 198.880,197.406 206.272 C 197.701 207.326,198.112 208.815,198.320 209.582 C 199.529 214.052,200.578 215.272,202.351 214.272 C 203.296 213.739,203.754 212.616,204.547 208.885 C 204.791 207.735,205.292 205.618,205.660 204.181 C 206.028 202.744,206.566 200.549,206.855 199.303 C 207.144 198.057,207.515 196.490,207.680 195.819 C 207.845 195.148,208.133 193.894,208.319 193.031 C 208.506 192.169,208.972 190.287,209.355 188.850 C 209.738 187.413,210.526 184.434,211.107 182.230 C 211.687 180.026,212.414 177.282,212.721 176.132 C 213.029 174.983,213.909 171.611,214.678 168.641 C 215.447 165.671,216.707 160.810,217.479 157.840 C 218.251 154.869,219.004 151.890,219.152 151.220 C 219.571 149.320,220.869 143.949,221.466 141.638 C 221.763 140.488,222.138 138.998,222.300 138.328 C 222.461 137.657,222.835 136.167,223.131 135.017 C 223.428 133.868,223.915 131.829,224.213 130.488 C 224.512 129.146,224.902 127.422,225.081 126.655 C 228.620 111.445,228.816 109.208,226.654 108.668 C 222.852 107.718,196.250 107.065,186.585 107.683 M222.542 113.167 C 222.979 113.445,222.868 114.127,221.823 117.596 C 218.982 127.026,217.400 132.698,214.582 143.554 C 212.963 149.789,212.821 150.323,212.032 153.136 C 211.485 155.084,210.751 158.099,210.124 160.976 C 209.822 162.357,208.463 168.190,208.013 170.035 C 207.634 171.587,206.802 175.274,206.323 177.526 C 206.119 178.484,205.710 180.327,205.415 181.620 C 205.120 182.914,204.636 185.030,204.341 186.324 C 204.046 187.618,203.656 189.382,203.474 190.244 C 203.292 191.106,202.907 192.841,202.617 194.099 C 202.327 195.357,202.091 196.729,202.091 197.148 C 202.091 198.568,201.488 197.919,200.917 195.883 C 200.604 194.769,200.348 193.516,200.348 193.101 C 200.348 192.685,200.195 191.676,200.007 190.859 C 199.819 190.041,199.416 188.118,199.111 186.585 C 198.807 185.052,198.424 183.249,198.259 182.578 C 197.813 180.762,196.971 177.145,196.353 174.390 C 196.052 173.049,195.658 171.402,195.476 170.732 C 195.295 170.061,194.738 167.787,194.238 165.679 C 193.085 160.811,191.493 154.440,190.755 151.742 C 190.441 150.592,190.058 149.181,189.905 148.606 C 188.292 142.543,187.647 140.182,186.954 137.805 C 186.508 136.272,186.060 134.704,185.959 134.321 C 185.449 132.379,182.409 121.998,181.367 118.641 C 179.575 112.866,179.296 113.447,183.972 113.223 C 190.306 112.920,222.080 112.874,222.542 113.167 M194.855 233.257 C 194.230 233.538,193.630 234.050,193.524 234.393 C 193.130 235.658,192.768 236.053,191.779 236.294 C 188.325 237.135,187.458 237.423,185.227 238.471 C 180.293 240.789,172.125 251.378,172.125 255.458 C 172.125 255.689,171.875 256.878,171.568 258.100 C 169.541 266.185,175.000 280.593,181.359 283.939 C 182.125 284.342,183.223 285.273,183.798 286.008 C 190.906 295.088,199.856 294.474,216.636 283.756 C 220.992 280.974,226.481 274.086,226.481 271.401 C 226.481 270.993,226.858 269.382,227.320 267.821 C 230.270 257.841,228.807 250.355,222.565 243.489 C 216.379 236.685,200.373 230.775,194.855 233.257 M197.959 242.070 C 198.936 242.648,199.038 242.648,200.044 242.070 C 203.276 240.215,212.059 243.616,216.716 248.525 C 221.051 253.096,223.808 264.863,221.693 269.762 C 216.168 282.554,205.050 286.581,187.979 281.975 C 185.226 281.232,185.409 281.418,182.263 276.170 C 176.998 267.385,176.623 265.558,178.789 259.233 C 183.053 246.782,185.381 243.385,190.592 242.014 C 193.326 241.294,196.688 241.320,197.959 242.070 " stroke="none" fill="#1e1e1e" fill-rule="evenodd"></path><path id="path1" d="M196.516 40.592 C 196.516 41.134,196.318 41.463,195.993 41.463 C 195.706 41.463,195.470 41.631,195.470 41.837 C 195.470 42.319,194.584 43.206,194.102 43.206 C 193.896 43.206,193.728 43.598,193.728 44.077 C 193.728 44.556,193.571 44.948,193.380 44.948 C 193.188 44.948,193.031 45.183,193.031 45.470 C 193.031 45.758,192.796 45.993,192.509 45.993 C 192.214 45.993,191.986 46.305,191.986 46.707 C 191.986 47.099,191.594 47.783,191.115 48.227 C 190.636 48.671,190.244 49.369,190.244 49.779 C 190.244 50.188,190.076 50.523,189.871 50.523 C 189.256 50.523,188.502 51.469,188.502 52.240 C 188.502 52.649,188.275 52.962,187.979 52.962 C 187.692 52.962,187.456 53.197,187.456 53.484 C 187.456 53.772,187.300 54.007,187.108 54.007 C 186.916 54.007,186.760 54.399,186.760 54.878 C 186.760 55.420,186.562 55.749,186.237 55.749 C 185.949 55.749,185.714 55.984,185.714 56.272 C 185.714 56.559,185.557 56.794,185.366 56.794 C 185.174 56.794,185.017 57.186,185.017 57.666 C 185.017 58.208,184.820 58.537,184.495 58.537 C 184.207 58.537,183.972 58.828,183.972 59.185 C 183.972 59.541,183.580 60.127,183.101 60.487 C 182.622 60.847,182.230 61.425,182.230 61.772 C 182.230 62.119,181.838 62.766,181.359 63.210 C 180.880 63.654,180.488 64.352,180.488 64.761 C 180.488 65.170,180.292 65.506,180.052 65.508 C 179.602 65.511,178.746 67.040,178.746 67.839 C 178.746 68.089,178.510 68.293,178.223 68.293 C 177.912 68.293,177.700 68.613,177.700 69.081 C 177.700 69.515,177.309 70.163,176.829 70.524 C 176.350 70.883,175.958 71.469,175.958 71.826 C 175.958 72.182,175.800 72.474,175.607 72.474 C 175.414 72.474,175.010 73.089,174.709 73.841 C 174.408 74.592,173.939 75.293,173.666 75.398 C 173.394 75.502,173.171 75.906,173.171 76.296 C 173.171 76.685,173.014 77.003,172.822 77.003 C 172.631 77.003,172.474 77.239,172.474 77.526 C 172.474 77.814,172.239 78.049,171.951 78.049 C 171.626 78.049,171.429 78.378,171.429 78.920 C 171.429 79.399,171.272 79.791,171.080 79.791 C 170.889 79.791,170.732 80.183,170.732 80.662 C 170.732 81.204,170.534 81.533,170.209 81.533 C 169.922 81.533,169.686 81.768,169.686 82.056 C 169.686 82.343,169.530 82.578,169.338 82.578 C 169.146 82.578,168.990 82.970,168.990 83.449 C 168.990 83.929,168.812 84.321,168.595 84.321 C 168.078 84.321,166.899 85.690,166.899 86.290 C 166.899 86.548,166.742 86.760,166.551 86.760 C 166.359 86.760,166.202 87.001,166.202 87.297 C 166.202 87.800,165.979 88.151,164.895 89.360 C 164.656 89.627,164.460 90.170,164.460 90.567 C 164.460 90.977,164.234 91.289,163.937 91.289 C 163.650 91.289,163.415 91.524,163.415 91.812 C 163.415 92.099,163.258 92.334,163.066 92.334 C 162.875 92.334,162.718 92.726,162.718 93.206 C 162.718 93.748,162.520 94.077,162.195 94.077 C 161.908 94.077,161.672 94.312,161.672 94.599 C 161.672 94.887,161.516 95.122,161.324 95.122 C 161.132 95.122,160.976 95.514,160.976 95.993 C 160.976 96.535,160.778 96.864,160.453 96.864 C 160.128 96.864,159.930 97.193,159.930 97.735 C 159.930 98.214,159.762 98.606,159.557 98.606 C 159.009 98.606,158.188 99.520,158.188 100.131 C 158.188 100.423,157.796 101.084,157.317 101.601 C 156.838 102.118,156.446 102.831,156.446 103.187 C 156.446 103.542,156.211 103.833,155.923 103.833 C 155.598 103.833,155.401 104.162,155.401 104.704 C 155.401 105.183,155.244 105.575,155.052 105.575 C 154.861 105.575,154.704 105.810,154.704 106.098 C 154.704 106.385,154.469 106.620,154.181 106.620 C 153.856 106.620,153.659 106.949,153.659 107.491 C 153.659 107.970,153.502 108.362,153.310 108.362 C 153.118 108.362,152.962 108.644,152.962 108.988 C 152.962 109.333,152.498 109.999,151.931 110.469 C 151.364 110.939,150.894 111.677,150.886 112.108 C 150.878 112.539,150.714 112.892,150.523 112.892 C 150.331 112.892,150.174 113.060,150.174 113.265 C 150.174 113.471,149.978 113.857,149.739 114.124 C 148.627 115.364,148.432 115.697,148.432 116.362 C 148.432 116.762,148.203 117.073,147.909 117.073 C 147.622 117.073,147.387 117.308,147.387 117.596 C 147.387 117.883,147.230 118.118,147.038 118.118 C 146.847 118.118,146.690 118.510,146.690 118.990 C 146.690 119.532,146.492 119.861,146.167 119.861 C 145.866 119.861,145.645 120.176,145.645 120.605 C 145.645 121.014,145.253 121.712,144.774 122.156 C 144.294 122.600,143.902 123.284,143.902 123.677 C 143.902 124.079,143.674 124.390,143.380 124.390 C 143.078 124.390,142.857 124.705,142.857 125.134 C 142.857 125.543,142.465 126.242,141.986 126.686 C 141.507 127.130,141.115 127.742,141.115 128.047 C 141.115 128.352,140.723 129.025,140.244 129.541 C 139.765 130.058,139.373 130.678,139.373 130.920 C 139.373 131.161,139.216 131.359,139.024 131.359 C 138.833 131.359,138.676 131.751,138.676 132.230 C 138.676 132.772,138.479 133.101,138.153 133.101 C 137.866 133.101,137.631 133.336,137.631 133.624 C 137.631 133.911,137.491 134.146,137.320 134.146 C 137.149 134.146,136.911 134.538,136.791 135.017 C 136.670 135.497,136.418 135.889,136.230 135.889 C 136.042 135.889,135.889 136.280,135.889 136.760 C 135.889 137.302,135.691 137.631,135.366 137.631 C 135.078 137.631,134.843 137.866,134.843 138.153 C 134.843 138.441,134.686 138.676,134.495 138.676 C 134.303 138.676,134.146 139.068,134.146 139.547 C 134.146 140.089,133.949 140.418,133.624 140.418 C 133.298 140.418,133.101 140.747,133.101 141.289 C 133.101 141.768,132.944 142.160,132.753 142.160 C 132.561 142.160,132.404 142.395,132.404 142.683 C 132.404 142.970,132.169 143.206,131.882 143.206 C 131.587 143.206,131.359 143.517,131.359 143.918 C 131.359 144.309,130.967 145.052,130.488 145.569 C 130.009 146.086,129.617 146.706,129.617 146.948 C 129.617 147.189,129.463 147.387,129.275 147.387 C 129.087 147.387,128.835 147.779,128.715 148.258 C 128.594 148.737,128.356 149.129,128.185 149.129 C 128.014 149.129,127.875 149.364,127.875 149.652 C 127.875 149.939,127.721 150.174,127.533 150.174 C 127.345 150.174,127.093 150.566,126.972 151.045 C 126.852 151.524,126.614 151.916,126.443 151.916 C 126.272 151.916,126.132 152.308,126.132 152.787 C 126.132 153.329,125.935 153.659,125.610 153.659 C 125.322 153.659,125.087 153.894,125.087 154.181 C 125.087 154.469,124.930 154.704,124.739 154.704 C 124.547 154.704,124.390 155.096,124.390 155.575 C 124.390 156.117,124.193 156.446,123.868 156.446 C 123.542 156.446,123.345 156.775,123.345 157.317 C 123.345 157.796,123.188 158.188,122.997 158.188 C 122.805 158.188,122.648 158.407,122.648 158.674 C 122.648 158.940,122.413 159.249,122.125 159.359 C 121.838 159.470,121.603 159.879,121.603 160.268 C 121.603 160.657,121.449 160.976,121.261 160.976 C 121.073 160.976,120.821 161.368,120.701 161.847 C 120.580 162.326,120.342 162.718,120.171 162.718 C 120.000 162.718,119.861 163.110,119.861 163.589 C 119.861 164.068,119.682 164.460,119.463 164.460 C 118.878 164.460,118.142 165.565,118.130 166.463 C 118.123 166.923,117.902 167.247,117.596 167.247 C 117.285 167.247,117.073 167.567,117.073 168.036 C 117.073 168.470,116.682 169.118,116.202 169.478 C 115.723 169.838,115.331 170.424,115.331 170.781 C 115.331 171.137,115.174 171.429,114.983 171.429 C 114.791 171.429,114.634 171.750,114.634 172.142 C 114.634 172.534,114.264 173.201,113.811 173.623 C 113.359 174.045,112.878 174.743,112.743 175.174 C 112.607 175.605,112.350 175.958,112.172 175.958 C 111.993 175.958,111.847 176.350,111.847 176.829 C 111.847 177.371,111.649 177.700,111.324 177.700 C 111.037 177.700,110.801 177.936,110.801 178.223 C 110.801 178.510,110.645 178.746,110.453 178.746 C 110.261 178.746,110.105 179.138,110.105 179.617 C 110.105 180.159,109.907 180.488,109.582 180.488 C 109.257 180.488,109.059 180.817,109.059 181.359 C 109.059 181.838,108.902 182.230,108.711 182.230 C 108.519 182.230,108.362 182.622,108.362 183.101 C 108.362 183.643,108.165 183.972,107.840 183.972 C 107.552 183.972,107.317 184.207,107.317 184.495 C 107.317 184.782,107.160 185.017,106.969 185.017 C 106.777 185.017,106.620 185.409,106.620 185.889 C 106.620 186.431,106.423 186.760,106.098 186.760 C 105.772 186.760,105.575 187.089,105.575 187.631 C 105.575 188.173,105.377 188.502,105.052 188.502 C 104.765 188.502,104.530 188.737,104.530 189.024 C 104.530 189.312,104.373 189.547,104.181 189.547 C 103.990 189.547,103.833 189.939,103.833 190.418 C 103.833 190.960,103.635 191.289,103.310 191.289 C 103.000 191.289,102.787 191.609,102.787 192.078 C 102.787 192.512,102.396 193.160,101.916 193.520 C 101.437 193.880,101.045 194.466,101.045 194.822 C 101.045 195.179,100.889 195.470,100.697 195.470 C 100.505 195.470,100.348 195.941,100.348 196.516 C 100.348 197.091,100.170 197.561,99.951 197.561 C 99.416 197.561,98.631 198.637,98.617 199.390 C 98.611 199.726,98.371 200.000,98.084 200.000 C 97.765 200.000,97.561 200.325,97.561 200.834 C 97.561 201.292,97.326 201.758,97.038 201.868 C 96.751 201.978,96.516 202.387,96.516 202.777 C 96.516 203.166,96.359 203.484,96.167 203.484 C 95.976 203.484,95.819 203.703,95.819 203.970 C 95.819 204.237,95.584 204.545,95.296 204.656 C 95.009 204.766,94.774 205.175,94.774 205.564 C 94.774 205.953,94.617 206.272,94.425 206.272 C 94.233 206.272,94.077 206.664,94.077 207.143 C 94.077 207.685,93.879 208.014,93.554 208.014 C 93.267 208.014,93.031 208.249,93.031 208.537 C 93.031 208.824,92.875 209.059,92.683 209.059 C 92.491 209.059,92.334 209.451,92.334 209.930 C 92.334 210.472,92.137 210.801,91.812 210.801 C 91.487 210.801,91.289 211.130,91.289 211.672 C 91.289 212.152,91.151 212.544,90.981 212.544 C 90.812 212.544,90.581 212.818,90.469 213.153 C 90.178 214.021,89.447 215.109,88.937 215.435 C 88.698 215.589,88.502 216.020,88.502 216.394 C 88.502 216.767,88.345 217.073,88.153 217.073 C 87.962 217.073,87.805 217.465,87.805 217.944 C 87.805 218.486,87.607 218.815,87.282 218.815 C 86.995 218.815,86.760 219.051,86.760 219.338 C 86.760 219.625,86.603 219.861,86.411 219.861 C 86.220 219.861,86.063 220.253,86.063 220.732 C 86.063 221.274,85.865 221.603,85.540 221.603 C 85.215 221.603,85.017 221.932,85.017 222.474 C 85.017 222.953,84.861 223.345,84.669 223.345 C 84.477 223.345,84.321 223.737,84.321 224.216 C 84.321 224.695,84.153 225.087,83.947 225.087 C 83.344 225.087,82.578 226.027,82.578 226.767 C 82.578 227.144,82.343 227.542,82.056 227.652 C 81.768 227.762,81.533 228.250,81.533 228.735 C 81.533 229.220,81.354 229.617,81.136 229.617 C 80.612 229.617,79.816 230.686,79.802 231.409 C 79.796 231.724,79.556 232.071,79.268 232.182 C 78.981 232.292,78.746 232.701,78.746 233.090 C 78.746 233.479,78.589 233.798,78.397 233.798 C 78.206 233.798,78.049 234.119,78.049 234.511 C 78.049 234.904,77.657 235.588,77.178 236.032 C 76.699 236.476,76.307 237.174,76.307 237.584 C 76.307 238.013,76.085 238.328,75.784 238.328 C 75.459 238.328,75.261 238.657,75.261 239.199 C 75.261 239.678,75.123 240.070,74.954 240.070 C 74.784 240.070,74.554 240.344,74.441 240.679 C 74.150 241.547,73.419 242.635,72.909 242.962 C 72.670 243.115,72.474 243.546,72.474 243.920 C 72.474 244.294,72.317 244.599,72.125 244.599 C 71.934 244.599,71.777 244.991,71.777 245.470 C 71.777 246.012,71.580 246.341,71.254 246.341 C 70.967 246.341,70.732 246.577,70.732 246.864 C 70.732 247.152,70.575 247.387,70.383 247.387 C 70.192 247.387,70.035 247.779,70.035 248.258 C 70.035 248.800,69.837 249.129,69.512 249.129 C 69.187 249.129,68.990 249.458,68.990 250.000 C 68.990 250.479,68.833 250.871,68.641 250.871 C 68.449 250.871,68.293 251.263,68.293 251.742 C 68.293 252.284,68.095 252.613,67.770 252.613 C 67.483 252.613,67.247 252.848,67.247 253.136 C 67.247 253.423,67.091 253.659,66.899 253.659 C 66.707 253.659,66.551 253.977,66.551 254.366 C 66.551 254.756,66.315 255.164,66.028 255.275 C 65.740 255.385,65.505 255.850,65.505 256.309 C 65.505 256.818,65.302 257.143,64.983 257.143 C 64.657 257.143,64.460 257.472,64.460 258.014 C 64.460 258.493,64.303 258.885,64.111 258.885 C 63.920 258.885,63.763 259.103,63.763 259.370 C 63.763 259.637,63.528 259.946,63.240 260.056 C 62.953 260.167,62.718 260.575,62.718 260.965 C 62.718 261.354,62.561 261.672,62.369 261.672 C 62.178 261.672,62.021 262.064,62.021 262.544 C 62.021 263.086,61.823 263.415,61.498 263.415 C 61.173 263.415,60.976 263.744,60.976 264.286 C 60.976 264.765,60.819 265.157,60.627 265.157 C 60.436 265.157,60.279 265.392,60.279 265.679 C 60.279 265.967,60.044 266.202,59.756 266.202 C 59.431 266.202,59.233 266.531,59.233 267.073 C 59.233 267.552,59.080 267.944,58.892 267.944 C 58.704 267.944,58.451 268.336,58.331 268.815 C 58.211 269.294,57.973 269.686,57.802 269.686 C 57.631 269.686,57.491 270.078,57.491 270.557 C 57.491 271.037,57.313 271.429,57.094 271.429 C 56.555 271.429,55.774 272.507,55.760 273.269 C 55.754 273.610,55.514 273.980,55.226 274.090 C 54.939 274.200,54.704 274.666,54.704 275.124 C 54.704 275.583,54.547 275.958,54.355 275.958 C 54.164 275.958,54.007 276.350,54.007 276.829 C 54.007 277.308,53.828 277.700,53.610 277.700 C 53.086 277.700,52.290 278.770,52.276 279.492 C 52.270 279.807,52.030 280.155,51.742 280.265 C 51.455 280.376,51.220 280.765,51.220 281.131 C 51.220 281.497,50.984 281.991,50.697 282.230 C 50.409 282.469,50.174 282.887,50.174 283.160 C 50.174 283.432,49.782 284.047,49.303 284.526 C 48.824 285.006,48.432 285.626,48.432 285.904 C 48.432 286.183,48.275 286.411,48.084 286.411 C 47.892 286.411,47.735 286.786,47.735 287.245 C 47.735 287.704,47.500 288.169,47.213 288.279 C 46.925 288.390,46.690 288.840,46.690 289.279 C 46.690 289.725,46.305 290.368,45.819 290.733 C 45.340 291.092,44.948 291.678,44.948 292.035 C 44.948 292.391,44.791 292.683,44.599 292.683 C 44.408 292.683,44.251 293.075,44.251 293.554 C 44.251 294.096,44.053 294.425,43.728 294.425 C 43.441 294.425,43.206 294.731,43.206 295.104 C 43.206 295.477,42.814 296.206,42.334 296.723 C 41.855 297.240,41.463 297.937,41.463 298.271 C 41.463 298.606,41.228 298.970,40.941 299.081 C 40.653 299.191,40.418 299.600,40.418 299.989 C 40.418 300.378,40.261 300.697,40.070 300.697 C 39.126 300.697,39.682 306.635,40.724 307.676 L 41.727 308.679 65.898 308.331 C 79.192 308.140,99.399 308.069,110.801 308.173 C 122.204 308.277,149.329 308.439,171.080 308.534 C 201.867 308.668,210.813 308.804,211.464 309.144 C 212.690 309.786,355.448 309.788,355.662 309.146 C 355.753 308.874,356.469 308.711,357.569 308.711 C 359.482 308.711,360.247 308.143,360.268 306.707 C 360.274 306.248,360.495 305.923,360.801 305.923 C 361.208 305.923,361.324 305.459,361.324 303.833 C 361.324 302.207,361.208 301.742,360.801 301.742 C 360.476 301.742,360.279 301.413,360.279 300.871 C 360.279 300.392,360.122 300.000,359.930 300.000 C 359.739 300.000,359.582 299.681,359.582 299.292 C 359.582 298.903,359.347 298.494,359.059 298.384 C 358.772 298.274,358.537 297.965,358.537 297.698 C 358.537 297.431,358.380 297.213,358.188 297.213 C 357.997 297.213,357.840 296.894,357.840 296.505 C 357.840 296.115,357.605 295.707,357.317 295.596 C 357.030 295.486,356.794 295.021,356.794 294.562 C 356.794 294.053,356.591 293.728,356.272 293.728 C 355.984 293.728,355.749 293.493,355.749 293.206 C 355.749 292.918,355.592 292.683,355.401 292.683 C 355.209 292.683,355.052 292.291,355.052 291.812 C 355.052 291.270,354.855 290.941,354.530 290.941 C 354.228 290.941,354.007 290.626,354.007 290.197 C 354.007 289.788,353.615 289.089,353.136 288.645 C 352.657 288.201,352.265 287.517,352.265 287.125 C 352.265 286.732,352.108 286.411,351.916 286.411 C 351.725 286.411,351.568 286.120,351.568 285.763 C 351.568 285.407,351.176 284.821,350.697 284.461 C 350.218 284.101,349.826 283.550,349.826 283.235 C 349.826 282.921,349.591 282.469,349.303 282.230 C 349.016 281.991,348.780 281.524,348.780 281.191 C 348.780 280.858,348.389 280.291,347.909 279.931 C 347.430 279.571,347.038 278.923,347.038 278.489 C 347.038 278.020,346.826 277.700,346.516 277.700 C 346.190 277.700,345.993 277.371,345.993 276.829 C 345.993 276.350,345.836 275.958,345.645 275.958 C 345.453 275.958,345.296 275.740,345.296 275.473 C 345.296 275.206,345.061 274.897,344.774 274.787 C 344.486 274.677,344.251 274.268,344.251 273.879 C 344.251 273.489,344.094 273.171,343.902 273.171 C 343.711 273.171,343.554 272.779,343.554 272.300 C 343.554 271.758,343.357 271.429,343.031 271.429 C 342.737 271.429,342.509 271.117,342.509 270.715 C 342.509 270.323,342.117 269.638,341.638 269.194 C 341.159 268.750,340.767 268.052,340.767 267.643 C 340.767 267.214,340.545 266.899,340.244 266.899 C 339.919 266.899,339.721 266.570,339.721 266.028 C 339.721 265.549,339.564 265.157,339.373 265.157 C 339.181 265.157,339.024 264.922,339.024 264.634 C 339.024 264.347,338.789 264.111,338.502 264.111 C 338.177 264.111,337.979 263.782,337.979 263.240 C 337.979 262.761,337.822 262.369,337.631 262.369 C 337.439 262.369,337.282 262.078,337.282 261.721 C 337.282 261.365,336.890 260.779,336.411 260.419 C 335.925 260.054,335.540 259.411,335.540 258.966 C 335.540 258.526,335.305 258.076,335.017 257.966 C 334.730 257.855,334.495 257.452,334.495 257.069 C 334.495 256.686,334.103 256.064,333.624 255.687 C 333.145 255.310,332.753 254.699,332.753 254.330 C 332.753 253.961,332.517 253.659,332.230 253.659 C 331.905 253.659,331.707 253.329,331.707 252.787 C 331.707 252.308,331.568 251.916,331.397 251.916 C 331.226 251.916,330.988 251.524,330.867 251.045 C 330.747 250.566,330.495 250.174,330.307 250.174 C 330.119 250.174,329.965 249.939,329.965 249.652 C 329.965 249.364,329.808 249.129,329.617 249.129 C 329.425 249.129,329.268 248.737,329.268 248.258 C 329.268 247.716,329.071 247.387,328.746 247.387 C 328.458 247.387,328.223 247.183,328.223 246.934 C 328.223 246.134,327.366 244.605,326.916 244.602 C 326.677 244.601,326.481 244.207,326.481 243.728 C 326.481 243.186,326.283 242.857,325.958 242.857 C 325.633 242.857,325.436 242.528,325.436 241.986 C 325.436 241.507,325.279 241.115,325.087 241.115 C 324.895 241.115,324.739 240.880,324.739 240.592 C 324.739 240.305,324.503 240.070,324.216 240.070 C 323.891 240.070,323.693 239.741,323.693 239.199 C 323.693 238.720,323.537 238.328,323.345 238.328 C 323.153 238.328,322.997 238.117,322.997 237.859 C 322.997 237.601,322.605 236.935,322.126 236.378 C 321.647 235.821,321.255 235.087,321.255 234.745 C 321.255 234.404,321.019 234.034,320.732 233.924 C 320.444 233.814,320.209 233.427,320.209 233.064 C 320.209 232.701,320.052 232.404,319.861 232.404 C 319.669 232.404,319.512 232.169,319.512 231.882 C 319.512 231.594,319.277 231.359,318.990 231.359 C 318.664 231.359,318.467 231.030,318.467 230.488 C 318.467 229.946,318.269 229.617,317.944 229.617 C 317.657 229.617,317.422 229.413,317.422 229.164 C 317.422 228.364,316.565 226.835,316.115 226.832 C 315.875 226.830,315.679 226.437,315.679 225.958 C 315.679 225.479,315.523 225.087,315.331 225.087 C 315.139 225.087,314.983 224.852,314.983 224.564 C 314.983 224.277,314.747 224.042,314.460 224.042 C 314.135 224.042,313.937 223.713,313.937 223.171 C 313.937 222.692,313.780 222.300,313.589 222.300 C 313.397 222.300,313.240 221.908,313.240 221.429 C 313.240 220.887,313.043 220.557,312.718 220.557 C 312.430 220.557,312.195 220.322,312.195 220.035 C 312.195 219.747,312.038 219.512,311.847 219.512 C 311.655 219.512,311.498 219.194,311.498 218.804 C 311.498 218.415,311.263 218.006,310.976 217.896 C 310.688 217.786,310.453 217.320,310.453 216.862 C 310.453 216.403,310.285 216.028,310.080 216.028 C 309.465 216.028,308.711 215.082,308.711 214.311 C 308.711 213.901,308.485 213.589,308.188 213.589 C 307.882 213.589,307.661 213.265,307.654 212.805 C 307.642 211.906,306.906 210.801,306.320 210.801 C 306.102 210.801,305.923 210.409,305.923 209.930 C 305.923 209.451,305.767 209.059,305.575 209.059 C 305.383 209.059,305.226 208.667,305.226 208.188 C 305.226 207.646,305.029 207.317,304.704 207.317 C 304.416 207.317,304.181 207.082,304.181 206.794 C 304.181 206.507,304.024 206.272,303.833 206.272 C 303.641 206.272,303.484 205.953,303.484 205.564 C 303.484 205.175,303.249 204.766,302.962 204.656 C 302.674 204.545,302.439 204.080,302.439 203.621 C 302.439 203.112,302.235 202.787,301.916 202.787 C 301.629 202.787,301.394 202.552,301.394 202.265 C 301.394 201.977,301.237 201.742,301.045 201.742 C 300.854 201.742,300.697 201.350,300.697 200.871 C 300.697 200.329,300.499 200.000,300.174 200.000 C 299.878 200.000,299.652 199.688,299.652 199.278 C 299.652 198.507,298.898 197.561,298.283 197.561 C 298.077 197.561,297.909 197.091,297.909 196.516 C 297.909 195.941,297.753 195.470,297.561 195.470 C 297.369 195.470,297.213 195.273,297.213 195.031 C 297.213 194.790,296.821 194.169,296.341 193.653 C 295.862 193.136,295.470 192.466,295.470 192.165 C 295.470 191.863,295.235 191.526,294.948 191.415 C 294.660 191.305,294.425 190.913,294.425 190.544 C 294.425 190.175,294.190 189.783,293.902 189.673 C 293.615 189.563,293.380 189.254,293.380 188.987 C 293.380 188.720,293.223 188.502,293.031 188.502 C 292.840 188.502,292.683 188.110,292.683 187.631 C 292.683 187.089,292.485 186.760,292.160 186.760 C 291.873 186.760,291.638 186.524,291.638 186.237 C 291.638 185.949,291.481 185.714,291.289 185.714 C 291.098 185.714,290.941 185.322,290.941 184.843 C 290.941 184.301,290.743 183.972,290.418 183.972 C 290.117 183.972,289.895 183.657,289.895 183.228 C 289.895 182.819,289.503 182.121,289.024 181.677 C 288.545 181.233,288.153 180.548,288.153 180.156 C 288.153 179.764,287.997 179.443,287.805 179.443 C 287.613 179.443,287.456 179.231,287.456 178.973 C 287.456 178.373,286.278 177.003,285.761 177.003 C 285.543 177.003,285.366 176.611,285.366 176.132 C 285.366 175.653,285.209 175.261,285.017 175.261 C 284.826 175.261,284.669 174.940,284.669 174.548 C 284.669 174.155,284.277 173.471,283.798 173.027 C 283.319 172.583,282.927 171.885,282.927 171.476 C 282.927 171.047,282.706 170.732,282.404 170.732 C 282.079 170.732,281.882 170.403,281.882 169.861 C 281.882 169.382,281.725 168.990,281.533 168.990 C 281.341 168.990,281.185 168.754,281.185 168.467 C 281.185 168.179,280.949 167.944,280.662 167.944 C 280.337 167.944,280.139 167.615,280.139 167.073 C 280.139 166.594,279.986 166.202,279.798 166.202 C 279.610 166.202,279.357 165.810,279.237 165.331 C 279.117 164.852,278.879 164.460,278.708 164.460 C 278.537 164.460,278.397 164.225,278.397 163.937 C 278.397 163.650,278.162 163.415,277.875 163.415 C 277.549 163.415,277.352 163.086,277.352 162.544 C 277.352 162.064,277.195 161.672,277.003 161.672 C 276.812 161.672,276.655 161.381,276.655 161.024 C 276.655 160.668,276.263 160.082,275.784 159.722 C 275.298 159.357,274.913 158.715,274.913 158.269 C 274.913 157.829,274.678 157.379,274.390 157.269 C 274.103 157.159,273.863 156.811,273.857 156.496 C 273.843 155.774,273.046 154.704,272.523 154.704 C 272.304 154.704,272.125 154.312,272.125 153.833 C 272.125 153.354,271.986 152.962,271.815 152.962 C 271.644 152.962,271.406 152.570,271.285 152.091 C 271.165 151.611,270.913 151.220,270.725 151.220 C 270.537 151.220,270.383 150.984,270.383 150.697 C 270.383 150.409,270.148 150.174,269.861 150.174 C 269.535 150.174,269.338 149.845,269.338 149.303 C 269.338 148.824,269.181 148.432,268.990 148.432 C 268.798 148.432,268.641 148.040,268.641 147.561 C 268.641 147.019,268.444 146.690,268.118 146.690 C 267.831 146.690,267.596 146.455,267.596 146.167 C 267.596 145.880,267.439 145.645,267.247 145.645 C 267.056 145.645,266.899 145.253,266.899 144.774 C 266.899 144.232,266.702 143.902,266.376 143.902 C 266.075 143.902,265.854 143.587,265.854 143.158 C 265.854 142.749,265.462 142.051,264.983 141.607 C 264.503 141.163,264.111 140.479,264.111 140.086 C 264.111 139.694,263.965 139.373,263.787 139.373 C 263.608 139.373,263.352 139.027,263.218 138.605 C 262.933 137.708,262.229 136.934,261.697 136.934 C 261.492 136.934,261.324 136.542,261.324 136.063 C 261.324 135.584,261.167 135.192,260.976 135.192 C 260.784 135.192,260.627 134.822,260.627 134.369 C 260.627 133.899,260.254 133.267,259.756 132.893 C 259.276 132.533,258.885 131.885,258.885 131.450 C 258.885 130.982,258.673 130.662,258.362 130.662 C 258.037 130.662,257.840 130.333,257.840 129.791 C 257.840 129.312,257.683 128.920,257.491 128.920 C 257.300 128.920,257.143 128.685,257.143 128.397 C 257.143 128.110,256.908 127.875,256.620 127.875 C 256.301 127.875,256.098 127.550,256.098 127.041 C 256.098 126.582,255.862 126.117,255.575 126.006 C 255.287 125.896,255.052 125.487,255.052 125.098 C 255.052 124.709,254.895 124.390,254.704 124.390 C 254.512 124.390,254.355 124.155,254.355 123.868 C 254.355 123.580,254.120 123.345,253.833 123.345 C 253.508 123.345,253.310 123.016,253.310 122.474 C 253.310 121.995,253.153 121.603,252.962 121.603 C 252.770 121.603,252.613 121.284,252.613 120.895 C 252.613 120.506,252.378 120.097,252.091 119.987 C 251.803 119.876,251.568 119.568,251.568 119.301 C 251.568 119.034,251.411 118.815,251.220 118.815 C 251.028 118.815,250.871 118.497,250.871 118.108 C 250.871 117.718,250.636 117.309,250.348 117.199 C 250.061 117.089,249.821 116.741,249.815 116.426 C 249.801 115.704,249.004 114.634,248.481 114.634 C 248.262 114.634,248.084 114.242,248.084 113.763 C 248.084 113.221,247.886 112.892,247.561 112.892 C 247.236 112.892,247.038 112.563,247.038 112.021 C 247.038 111.542,246.882 111.150,246.690 111.150 C 246.498 111.150,246.341 110.915,246.341 110.627 C 246.341 110.340,246.106 110.105,245.819 110.105 C 245.494 110.105,245.296 109.775,245.296 109.233 C 245.296 108.754,245.156 108.362,244.986 108.362 C 244.815 108.362,244.576 107.970,244.456 107.491 C 244.336 107.012,244.084 106.620,243.896 106.620 C 243.708 106.620,243.554 106.385,243.554 106.098 C 243.554 105.810,243.397 105.575,243.206 105.575 C 243.014 105.575,242.857 105.183,242.857 104.704 C 242.857 104.162,242.660 103.833,242.334 103.833 C 242.047 103.833,241.812 103.598,241.812 103.310 C 241.812 103.023,241.655 102.787,241.463 102.787 C 241.272 102.787,241.115 102.469,241.115 102.080 C 241.115 101.690,240.880 101.282,240.592 101.171 C 240.305 101.061,240.070 100.596,240.070 100.137 C 240.070 99.678,239.902 99.303,239.696 99.303 C 239.081 99.303,238.328 98.357,238.328 97.586 C 238.328 97.177,238.101 96.864,237.805 96.864 C 237.498 96.864,237.278 96.540,237.271 96.080 C 237.258 95.181,236.523 94.077,235.937 94.077 C 235.719 94.077,235.540 93.685,235.540 93.206 C 235.540 92.726,235.383 92.334,235.192 92.334 C 235.000 92.334,234.843 92.016,234.843 91.627 C 234.843 91.237,234.608 90.829,234.321 90.718 C 234.033 90.608,233.798 90.299,233.798 90.032 C 233.798 89.765,233.641 89.547,233.449 89.547 C 233.258 89.547,233.101 89.229,233.101 88.839 C 233.101 88.450,232.866 88.041,232.578 87.931 C 232.291 87.821,232.056 87.355,232.056 86.897 C 232.056 86.388,231.852 86.063,231.533 86.063 C 231.246 86.063,231.010 85.828,231.010 85.540 C 231.010 85.253,230.854 85.017,230.662 85.017 C 230.470 85.017,230.314 84.625,230.314 84.146 C 230.314 83.604,230.116 83.275,229.791 83.275 C 229.490 83.275,229.268 82.960,229.268 82.531 C 229.268 82.122,228.876 81.424,228.397 80.980 C 227.918 80.536,227.526 79.852,227.526 79.459 C 227.526 79.067,227.369 78.746,227.178 78.746 C 226.986 78.746,226.829 78.518,226.829 78.239 C 226.829 77.960,226.437 77.340,225.958 76.861 C 225.479 76.382,225.087 75.669,225.087 75.277 C 225.087 74.876,224.859 74.564,224.564 74.564 C 224.239 74.564,224.042 74.235,224.042 73.693 C 224.042 73.151,223.844 72.822,223.519 72.822 C 223.232 72.822,222.997 72.587,222.997 72.300 C 222.997 72.012,222.840 71.777,222.648 71.777 C 222.456 71.777,222.300 71.385,222.300 70.906 C 222.300 70.364,222.102 70.035,221.777 70.035 C 221.452 70.035,221.254 69.706,221.254 69.164 C 221.254 68.685,221.098 68.293,220.906 68.293 C 220.714 68.293,220.557 68.057,220.557 67.770 C 220.557 67.483,220.322 67.247,220.035 67.247 C 219.710 67.247,219.512 66.918,219.512 66.376 C 219.512 65.897,219.355 65.505,219.164 65.505 C 218.972 65.505,218.815 65.187,218.815 64.797 C 218.815 64.408,218.580 63.999,218.293 63.889 C 218.005 63.779,217.770 63.470,217.770 63.203 C 217.770 62.936,217.613 62.718,217.422 62.718 C 217.230 62.718,217.073 62.399,217.073 62.010 C 217.073 61.621,216.838 61.212,216.551 61.102 C 216.263 60.991,216.028 60.526,216.028 60.067 C 216.028 59.609,215.860 59.233,215.655 59.233 C 215.036 59.233,214.286 58.286,214.286 57.505 C 214.286 57.102,214.051 56.682,213.763 56.572 C 213.476 56.462,213.240 56.063,213.240 55.687 C 213.240 54.947,212.475 54.007,211.872 54.007 C 211.666 54.007,211.498 53.615,211.498 53.136 C 211.498 52.657,211.341 52.265,211.150 52.265 C 210.958 52.265,210.801 51.873,210.801 51.394 C 210.801 50.852,210.604 50.523,210.279 50.523 C 209.991 50.523,209.756 50.287,209.756 50.000 C 209.756 49.713,209.599 49.477,209.408 49.477 C 209.216 49.477,209.059 49.159,209.059 48.770 C 209.059 48.380,208.824 47.972,208.537 47.861 C 208.249 47.751,208.014 47.285,208.014 46.827 C 208.014 46.318,207.810 45.993,207.491 45.993 C 207.204 45.993,206.969 45.758,206.969 45.470 C 206.969 45.183,206.812 44.948,206.620 44.948 C 206.429 44.948,206.272 44.556,206.272 44.077 C 206.272 43.535,206.074 43.206,205.749 43.206 C 205.452 43.206,205.226 42.893,205.226 42.482 C 205.226 40.626,203.466 39.721,199.853 39.721 C 196.526 39.721,196.516 39.724,196.516 40.592 M201.045 57.317 C 201.045 57.796,201.202 58.188,201.394 58.188 C 201.585 58.188,201.742 58.423,201.742 58.711 C 201.742 58.998,201.977 59.233,202.265 59.233 C 202.590 59.233,202.787 59.563,202.787 60.105 C 202.787 60.584,202.944 60.976,203.136 60.976 C 203.328 60.976,203.484 61.368,203.484 61.847 C 203.484 62.389,203.682 62.718,204.007 62.718 C 204.332 62.718,204.530 63.047,204.530 63.589 C 204.530 64.068,204.686 64.460,204.878 64.460 C 205.070 64.460,205.226 64.778,205.226 65.168 C 205.226 65.557,205.462 65.966,205.749 66.076 C 206.037 66.186,206.272 66.495,206.272 66.762 C 206.272 67.029,206.429 67.247,206.620 67.247 C 206.812 67.247,206.969 67.566,206.969 67.955 C 206.969 68.344,207.204 68.753,207.491 68.864 C 207.779 68.974,208.014 69.439,208.014 69.898 C 208.014 70.407,208.218 70.732,208.537 70.732 C 208.862 70.732,209.059 71.061,209.059 71.603 C 209.059 72.082,209.216 72.474,209.408 72.474 C 209.599 72.474,209.756 72.866,209.756 73.345 C 209.756 73.887,209.954 74.216,210.279 74.216 C 210.566 74.216,210.801 74.451,210.801 74.739 C 210.801 75.026,210.958 75.261,211.150 75.261 C 211.341 75.261,211.498 75.653,211.498 76.132 C 211.498 76.674,211.696 77.003,212.021 77.003 C 212.346 77.003,212.544 77.333,212.544 77.875 C 212.544 78.354,212.700 78.746,212.892 78.746 C 213.084 78.746,213.240 79.138,213.240 79.617 C 213.240 80.159,213.438 80.488,213.763 80.488 C 214.064 80.488,214.286 80.803,214.286 81.232 C 214.286 81.641,214.678 82.339,215.157 82.783 C 215.636 83.227,216.028 83.911,216.028 84.304 C 216.028 84.706,216.256 85.017,216.551 85.017 C 216.876 85.017,217.073 85.346,217.073 85.889 C 217.073 86.368,217.212 86.760,217.381 86.760 C 217.550 86.760,217.783 87.034,217.899 87.369 C 218.152 88.105,219.872 91.044,220.192 91.289 C 220.317 91.385,220.694 92.012,221.029 92.683 C 221.364 93.354,222.095 94.608,222.654 95.470 C 223.213 96.333,223.982 97.607,224.364 98.303 C 224.746 98.998,226.554 102.029,228.383 105.038 C 230.211 108.046,231.707 110.576,231.707 110.658 C 231.707 110.741,232.463 112.022,233.387 113.506 C 234.311 114.989,235.172 116.437,235.301 116.725 C 235.430 117.012,235.733 117.552,235.973 117.924 C 237.119 119.695,238.676 122.282,238.676 122.415 C 238.676 122.497,239.801 124.504,241.177 126.874 C 247.561 137.876,249.477 141.213,249.477 141.328 C 249.477 141.397,249.924 142.200,250.469 143.113 C 251.014 144.026,252.766 147.047,254.363 149.826 C 255.959 152.605,258.231 156.524,259.412 158.537 C 260.592 160.549,261.952 162.901,262.433 163.763 C 262.914 164.625,264.217 166.899,265.328 168.815 C 268.656 174.552,273.276 182.527,275.421 186.237 C 276.530 188.153,277.555 189.878,277.701 190.070 C 277.847 190.261,279.925 193.711,282.320 197.735 C 285.727 203.461,294.030 217.233,299.264 225.837 C 299.573 226.345,300.421 227.756,301.148 228.973 C 301.875 230.189,302.895 231.848,303.413 232.659 C 303.931 233.470,307.089 238.488,310.431 243.809 C 316.222 253.031,317.859 255.571,327.118 269.686 C 333.631 279.617,338.058 286.211,343.998 294.828 C 345.808 297.455,346.219 298.274,345.871 298.563 C 345.374 298.976,316.692 298.559,300.000 297.897 C 286.594 297.364,177.913 297.349,151.220 297.876 C 78.520 299.309,56.395 299.499,55.488 298.696 C 54.587 297.898,54.466 297.213,55.226 297.213 C 55.514 297.213,55.749 296.977,55.749 296.690 C 55.749 296.402,55.906 296.167,56.098 296.167 C 56.289 296.167,56.446 295.775,56.446 295.296 C 56.446 294.817,56.625 294.425,56.843 294.425 C 57.379 294.425,58.163 293.349,58.177 292.596 C 58.183 292.260,58.423 291.986,58.711 291.986 C 58.998 291.986,59.233 291.680,59.233 291.307 C 59.233 290.933,59.438 290.502,59.688 290.348 C 59.938 290.195,60.415 289.482,60.749 288.763 C 61.083 288.044,61.506 287.456,61.689 287.456 C 61.871 287.456,62.021 287.219,62.021 286.929 C 62.021 286.340,62.724 284.965,63.203 284.618 C 63.374 284.493,63.769 283.866,64.080 283.224 C 64.392 282.581,65.192 281.190,65.860 280.131 C 66.527 279.072,67.257 277.896,67.482 277.518 C 70.155 273.019,95.837 231.938,101.072 223.788 C 107.878 213.191,118.890 195.945,121.603 191.633 C 128.638 180.453,142.725 157.791,146.075 152.265 C 148.456 148.336,151.451 143.432,152.729 141.367 C 154.007 139.302,155.052 137.536,155.052 137.443 C 155.052 137.351,155.836 136.024,156.794 134.495 C 157.753 132.966,158.537 131.650,158.537 131.570 C 158.537 131.490,159.948 129.043,161.672 126.132 C 163.397 123.221,164.808 120.789,164.808 120.727 C 164.808 120.666,165.523 119.406,166.397 117.928 C 168.673 114.078,179.128 95.476,181.956 90.244 C 183.609 87.185,188.837 77.095,193.579 67.809 C 197.449 60.231,198.719 58.188,199.561 58.188 C 199.802 58.188,200.000 57.796,200.000 57.317 C 200.000 56.775,200.197 56.446,200.523 56.446 C 200.848 56.446,201.045 56.775,201.045 57.317 M175.610 108.362 C 175.610 108.803,176.322 108.803,177.003 108.362 C 177.411 108.099,177.315 108.023,176.568 108.019 C 176.041 108.016,175.610 108.171,175.610 108.362 M183.972 113.223 C 179.296 113.447,179.575 112.866,181.367 118.641 C 182.409 121.998,185.449 132.379,185.959 134.321 C 186.060 134.704,186.508 136.272,186.954 137.805 C 187.647 140.182,188.292 142.543,189.905 148.606 C 190.058 149.181,190.441 150.592,190.755 151.742 C 191.493 154.440,193.085 160.811,194.238 165.679 C 194.738 167.787,195.295 170.061,195.476 170.732 C 195.658 171.402,196.052 173.049,196.353 174.390 C 196.971 177.145,197.813 180.762,198.259 182.578 C 198.424 183.249,198.808 185.052,199.114 186.585 C 199.420 188.118,199.813 190.078,199.987 190.941 C 200.162 191.803,200.412 193.293,200.543 194.251 L 200.783 195.993 201.288 194.599 C 201.566 193.833,202.102 191.951,202.479 190.418 C 202.855 188.885,203.400 186.768,203.689 185.714 C 203.978 184.660,204.351 183.249,204.519 182.578 C 204.686 181.908,205.083 180.340,205.401 179.094 C 205.719 177.848,206.111 176.280,206.272 175.610 C 206.536 174.509,207.176 171.980,208.034 168.641 C 208.207 167.970,208.523 166.794,208.737 166.028 C 208.951 165.261,209.262 164.007,209.429 163.240 C 210.288 159.292,210.662 157.863,210.894 157.631 C 211.035 157.490,211.150 157.000,211.150 156.540 C 211.150 156.081,211.394 154.892,211.693 153.898 C 211.992 152.904,212.394 151.463,212.586 150.697 C 212.777 149.930,213.152 148.519,213.417 147.561 C 214.007 145.432,215.313 140.337,215.695 138.676 C 215.849 138.005,216.231 136.516,216.543 135.366 C 216.856 134.216,217.251 132.726,217.422 132.056 C 217.592 131.385,217.987 129.895,218.300 128.746 C 218.612 127.596,218.999 126.106,219.161 125.436 C 219.322 124.765,220.012 122.099,220.694 119.512 C 222.412 112.994,222.499 113.389,219.285 113.117 C 216.219 112.858,189.950 112.937,183.972 113.223 M190.592 235.419 C 185.841 235.868,181.436 237.995,180.105 240.482 C 179.403 241.795,180.217 241.832,181.772 240.558 C 183.279 239.323,188.138 236.947,189.174 236.938 C 189.448 236.936,190.232 236.755,190.916 236.536 C 191.600 236.317,192.391 236.074,192.673 235.995 C 193.125 235.868,193.125 235.812,192.673 235.527 C 192.391 235.348,192.082 235.225,191.986 235.253 C 191.890 235.280,191.263 235.355,190.592 235.419 M190.592 242.014 C 186.502 243.090,185.375 244.176,182.643 249.676 C 181.124 252.730,180.402 254.521,178.789 259.233 C 176.623 265.558,176.998 267.385,182.263 276.170 C 185.409 281.418,185.226 281.232,187.979 281.975 C 205.050 286.581,216.168 282.554,221.693 269.762 C 223.808 264.863,221.051 253.096,216.716 248.525 C 212.059 243.616,203.276 240.215,200.044 242.070 C 199.038 242.648,198.936 242.648,197.959 242.070 C 196.688 241.320,193.326 241.294,190.592 242.014 " stroke="none" fill="#c6d0f5" fill-rule="evenodd"></path><path id="path2" d="M197.462 60.340 C 196.991 61.169,194.803 65.375,192.600 69.686 C 188.045 78.603,184.141 86.147,182.223 89.737 C 179.771 94.328,168.888 113.715,166.397 117.928 C 165.523 119.406,164.808 120.666,164.808 120.727 C 164.808 120.789,163.397 123.221,161.672 126.132 C 159.948 129.043,158.537 131.490,158.537 131.570 C 158.537 131.650,157.753 132.966,156.794 134.495 C 155.836 136.024,155.052 137.351,155.052 137.443 C 155.052 137.536,154.007 139.302,152.729 141.367 C 151.451 143.432,148.456 148.336,146.075 152.265 C 142.725 157.791,128.638 180.453,121.603 191.633 C 118.890 195.945,107.878 213.191,101.072 223.788 C 95.837 231.938,70.155 273.019,67.482 277.518 C 67.257 277.896,66.527 279.072,65.860 280.131 C 65.192 281.190,64.392 282.581,64.080 283.224 C 63.769 283.866,63.374 284.493,63.203 284.618 C 62.724 284.965,62.021 286.340,62.021 286.929 C 62.021 287.219,61.871 287.456,61.689 287.456 C 61.506 287.456,61.083 288.044,60.749 288.763 C 60.415 289.482,59.938 290.195,59.688 290.348 C 59.438 290.502,59.233 290.933,59.233 291.307 C 59.233 291.680,59.084 291.986,58.901 291.986 C 58.719 291.986,58.315 292.523,58.003 293.179 C 57.692 293.835,57.214 294.457,56.942 294.561 C 56.669 294.666,56.446 295.057,56.446 295.430 C 56.446 295.804,56.314 296.161,56.152 296.225 C 55.990 296.289,55.765 296.929,55.651 297.647 C 55.333 299.659,49.751 299.558,109.408 298.618 C 120.810 298.438,139.625 298.104,151.220 297.876 C 177.913 297.349,286.594 297.364,300.000 297.897 C 316.692 298.559,345.374 298.976,345.871 298.563 C 346.219 298.274,345.808 297.455,343.998 294.828 C 338.058 286.211,333.631 279.617,327.118 269.686 C 317.859 255.571,316.222 253.031,310.431 243.809 C 307.089 238.488,303.931 233.470,303.413 232.659 C 302.895 231.848,301.875 230.189,301.148 228.973 C 300.421 227.756,299.573 226.345,299.264 225.837 C 294.030 217.233,285.727 203.461,282.320 197.735 C 279.925 193.711,277.847 190.261,277.701 190.070 C 277.555 189.878,276.530 188.153,275.421 186.237 C 273.276 182.527,268.656 174.552,265.328 168.815 C 264.217 166.899,262.914 164.625,262.433 163.763 C 261.952 162.901,260.592 160.549,259.412 158.537 C 258.231 156.524,255.959 152.605,254.363 149.826 C 252.766 147.047,251.014 144.026,250.469 143.113 C 249.924 142.200,249.477 141.397,249.477 141.328 C 249.477 141.213,247.561 137.876,241.177 126.874 C 239.801 124.504,238.676 122.497,238.676 122.415 C 238.676 122.282,237.119 119.695,235.973 117.924 C 235.733 117.552,235.430 117.012,235.301 116.725 C 235.172 116.437,234.311 114.989,233.387 113.506 C 232.463 112.022,231.707 110.741,231.707 110.658 C 231.707 110.576,230.211 108.046,228.383 105.038 C 226.554 102.029,224.746 98.998,224.364 98.303 C 223.982 97.607,223.213 96.333,222.654 95.470 C 222.095 94.608,221.364 93.354,221.029 92.683 C 220.694 92.012,220.317 91.385,220.192 91.289 C 219.872 91.044,218.152 88.105,217.899 87.369 C 217.783 87.034,217.550 86.760,217.381 86.760 C 217.212 86.760,217.073 86.481,217.073 86.140 C 217.073 85.503,215.939 84.321,215.327 84.321 C 215.138 84.321,214.983 83.929,214.983 83.449 C 214.983 82.970,214.826 82.578,214.634 82.578 C 214.443 82.578,214.286 82.186,214.286 81.707 C 214.286 81.165,214.088 80.836,213.763 80.836 C 213.476 80.836,213.240 80.601,213.240 80.314 C 213.240 80.026,213.084 79.791,212.892 79.791 C 212.700 79.791,212.544 79.399,212.544 78.920 C 212.544 78.378,212.346 78.049,212.021 78.049 C 211.733 78.049,211.498 77.814,211.498 77.526 C 211.498 77.239,211.341 77.003,211.150 77.003 C 210.958 77.003,210.801 76.712,210.801 76.355 C 210.801 75.999,210.409 75.413,209.930 75.053 C 209.451 74.693,209.059 74.123,209.059 73.785 C 209.059 73.125,207.890 71.777,207.317 71.777 C 207.125 71.777,206.969 71.385,206.969 70.906 C 206.969 70.427,206.812 70.035,206.620 70.035 C 206.429 70.035,206.272 69.716,206.272 69.327 C 206.272 68.938,206.037 68.529,205.749 68.419 C 205.462 68.308,205.226 68.000,205.226 67.733 C 205.226 67.466,205.070 67.247,204.878 67.247 C 204.686 67.247,204.530 66.929,204.530 66.540 C 204.530 66.150,204.294 65.742,204.007 65.631 C 203.720 65.521,203.484 65.212,203.484 64.945 C 203.484 64.678,203.328 64.460,203.136 64.460 C 202.944 64.460,202.787 64.168,202.787 63.812 C 202.787 63.455,202.395 62.869,201.916 62.510 C 201.437 62.150,201.045 61.574,201.045 61.230 C 201.045 60.887,200.810 60.515,200.523 60.405 C 200.235 60.294,200.000 59.986,200.000 59.719 C 200.000 59.452,199.856 59.233,199.680 59.233 C 199.504 59.233,199.126 59.143,198.839 59.033 C 198.483 58.897,198.045 59.313,197.462 60.340 M220.557 108.011 C 226.956 108.513,227.610 108.676,228.033 109.879 C 228.431 111.010,227.530 116.131,225.081 126.655 C 224.902 127.422,224.512 129.146,224.213 130.488 C 223.915 131.829,223.428 133.868,223.131 135.017 C 222.835 136.167,222.461 137.657,222.300 138.328 C 222.138 138.998,221.763 140.488,221.466 141.638 C 220.869 143.949,219.571 149.320,219.152 151.220 C 219.004 151.890,218.251 154.869,217.479 157.840 C 216.707 160.810,215.447 165.671,214.678 168.641 C 213.909 171.611,213.029 174.983,212.721 176.132 C 212.414 177.282,211.687 180.026,211.107 182.230 C 210.526 184.434,209.738 187.413,209.355 188.850 C 208.972 190.287,208.506 192.169,208.319 193.031 C 208.133 193.894,207.845 195.148,207.680 195.819 C 207.515 196.490,207.143 198.057,206.853 199.303 C 206.563 200.549,205.994 202.901,205.589 204.530 C 205.183 206.159,204.701 208.158,204.516 208.972 C 203.762 212.304,203.373 213.616,203.088 213.793 C 202.923 213.895,202.766 214.400,202.740 214.916 C 202.702 215.658,202.662 215.700,202.548 215.121 C 202.442 214.583,202.202 214.427,201.638 214.534 C 200.568 214.737,199.489 213.610,198.926 211.703 C 198.667 210.824,198.332 210.105,198.182 210.105 C 198.032 210.105,197.909 209.594,197.909 208.970 C 197.909 208.346,197.743 207.287,197.540 206.618 C 196.574 203.431,194.291 194.940,193.045 189.895 C 192.642 188.267,192.165 186.385,191.984 185.714 C 191.538 184.066,190.799 181.065,189.732 176.569 C 187.632 167.725,187.036 165.203,186.539 163.066 C 186.250 161.821,185.875 160.253,185.708 159.582 C 185.540 158.911,185.148 157.265,184.837 155.923 C 184.525 154.582,184.129 152.936,183.955 152.265 C 183.275 149.634,182.322 145.615,181.352 141.289 C 181.052 139.948,180.660 138.223,180.481 137.456 C 180.048 135.595,179.273 132.118,178.578 128.920 C 177.437 123.668,176.312 118.589,175.954 117.073 C 175.795 116.402,175.418 114.876,175.115 113.681 C 174.428 110.969,174.421 109.960,175.087 109.408 C 175.375 109.169,175.610 108.797,175.610 108.581 C 175.610 108.320,176.863 108.157,179.355 108.096 C 181.416 108.045,184.983 107.862,187.282 107.689 C 192.629 107.286,213.963 107.493,220.557 108.011 M220.122 113.149 C 222.355 113.305,222.339 113.182,220.877 118.873 C 219.766 123.198,219.650 124.893,220.708 121.349 C 221.038 120.243,221.542 118.554,221.828 117.596 C 223.242 112.859,223.245 112.868,220.209 112.962 L 218.293 113.021 220.122 113.149 M219.402 124.175 C 219.271 124.516,219.174 125.057,219.186 125.377 C 219.200 125.762,219.321 125.674,219.544 125.117 C 219.729 124.654,219.826 124.113,219.760 123.915 C 219.694 123.717,219.533 123.834,219.402 124.175 M207.917 168.757 C 207.500 169.816,207.599 170.708,208.048 169.937 C 208.247 169.595,208.355 169.047,208.288 168.717 C 208.178 168.170,208.146 168.174,207.917 168.757 M206.979 172.612 C 206.740 173.465,206.614 174.371,206.700 174.625 C 206.785 174.879,207.055 174.255,207.300 173.239 C 207.844 170.975,207.581 170.460,206.979 172.612 M206.137 176.132 C 206.002 176.707,205.651 178.118,205.357 179.268 C 205.063 180.418,204.686 181.908,204.519 182.578 C 204.351 183.249,203.981 184.660,203.697 185.714 C 203.412 186.768,202.916 188.728,202.594 190.070 C 202.272 191.411,201.773 193.168,201.485 193.975 C 201.157 194.895,201.048 195.900,201.194 196.675 C 201.447 198.027,202.091 198.366,202.091 197.148 C 202.091 196.729,202.327 195.357,202.617 194.099 C 202.907 192.841,203.292 191.106,203.474 190.244 C 203.656 189.382,204.046 187.618,204.341 186.324 C 204.636 185.030,205.117 182.914,205.410 181.620 C 205.702 180.327,206.109 178.621,206.314 177.829 C 206.519 177.038,206.619 176.097,206.535 175.739 C 206.420 175.245,206.324 175.341,206.137 176.132 M204.003 233.582 C 218.720 236.983,228.057 246.145,228.825 257.940 C 229.036 261.182,228.775 262.897,227.320 267.821 C 226.858 269.382,226.481 270.993,226.481 271.401 C 226.481 274.086,220.992 280.974,216.636 283.756 C 199.856 294.474,190.906 295.088,183.798 286.008 C 183.223 285.273,182.125 284.342,181.359 283.939 C 175.000 280.593,169.541 266.185,171.568 258.100 C 171.875 256.878,172.125 255.689,172.125 255.458 C 172.125 253.998,176.779 245.722,179.060 243.123 C 179.762 242.324,180.067 241.681,179.923 241.306 C 179.100 239.162,185.974 235.600,191.186 235.470 C 193.086 235.423,193.360 235.329,193.451 234.694 C 193.728 232.758,198.334 232.272,204.003 233.582 M62.544 308.369 C 54.878 308.481,48.567 308.603,48.519 308.642 C 48.471 308.680,48.432 308.946,48.432 309.233 C 48.432 309.521,48.275 309.756,48.084 309.756 C 47.892 309.756,47.735 310.148,47.735 310.627 C 47.735 311.169,47.538 311.498,47.213 311.498 C 46.887 311.498,46.690 311.827,46.690 312.369 C 46.690 313.221,46.748 313.240,49.303 313.240 C 51.394 313.240,51.916 313.136,51.916 312.718 C 51.916 312.265,53.269 312.195,62.000 312.195 C 68.347 312.195,72.164 312.066,72.300 311.847 C 72.435 311.628,76.012 311.498,81.877 311.498 C 89.735 311.498,91.323 311.414,91.762 310.976 C 92.201 310.536,93.814 310.453,101.871 310.453 C 107.886 310.453,111.537 310.323,111.672 310.105 C 111.807 309.886,115.384 309.756,121.250 309.756 C 129.107 309.756,130.696 309.672,131.135 309.233 C 131.422 308.946,131.865 308.695,132.118 308.676 C 132.371 308.657,132.186 308.516,131.707 308.362 C 130.733 308.050,84.058 308.055,62.544 308.369 " stroke="none" fill="#fab005" fill-rule="evenodd"></path></g></svg>