<?xml version="1.0" encoding="UTF-8"?>
<svg xmlns="http://www.w3.org/2000/svg" xmlns:xlink="http://www.w3.org/1999/xlink" width="1080px" height="1080px" viewBox="0 0 1080 749" version="1.1">
<g id="surface1">
<path style=" stroke:none;fill-rule:nonzero;fill:rgb(35.294119%,59.607846%,100%);fill-opacity:1;" d="M 521.445312 119.050781 L 1017.316406 119.050781 L 1017.316406 600.089844 L 521.445312 600.089844 Z M 521.445312 119.050781 "/>
<path style=" stroke:none;fill-rule:nonzero;fill:rgb(35.294119%,59.607846%,100%);fill-opacity:1;" d="M 1017.339844 559.375 C 1017.339844 512.535156 906.816406 474.5625 770.484375 474.5625 C 634.148438 474.5625 523.625 512.535156 523.625 559.375 C 523.625 606.21875 634.148438 644.191406 770.484375 644.191406 C 906.816406 644.191406 1017.339844 606.21875 1017.339844 559.375 Z M 1017.339844 559.375 "/>
<path style=" stroke:none;fill-rule:nonzero;fill:rgb(35.294119%,59.607846%,100%);fill-opacity:1;" d="M 1001.691406 145.222656 C 1001.691406 98.382812 891.167969 60.410156 754.832031 60.410156 C 618.496094 60.410156 507.976562 98.382812 507.976562 145.222656 C 507.976562 192.066406 618.496094 230.039062 754.832031 230.039062 C 891.167969 230.039062 1001.691406 192.066406 1001.691406 145.222656 Z M 1001.691406 145.222656 "/>
<path style="fill-rule:nonzero;fill:rgb(21.568628%,35.294119%,84.705883%);fill-opacity:1;stroke-width:1;stroke-linecap:butt;stroke-linejoin:miter;stroke:rgb(21.568628%,35.294119%,84.705883%);stroke-opacity:1;stroke-miterlimit:4;" d="M 33.24 38.559936 C 28.349925 38.559936 23.910009 37.250075 21.649997 35.13997 C 21.460718 34.952188 21.354204 34.69667 21.354204 34.429981 C 21.354204 34.163293 21.460718 33.907775 21.649997 33.719993 C 22.040076 33.332195 22.669945 33.332195 23.060023 33.719993 C 24.940058 35.469962 28.950019 36.600021 33.289979 36.600021 C 39.880025 36.600021 44.470053 34.120026 44.470053 31.899983 C 44.468104 31.431504 44.301687 30.978452 44.000044 30.619912 C 43.764508 30.337441 43.703188 29.948402 43.840362 29.607061 C 43.977359 29.265898 44.290876 29.027403 44.65632 28.986087 C 45.021764 28.944949 45.380473 29.107729 45.589957 29.410059 C 46.14663 30.10533 46.450044 30.969409 46.450044 31.860086 C 46.419916 35.619974 40.630054 38.559936 33.24 38.559936 Z M 33.24 38.559936 " transform="matrix(22.040816,0,0,22.029412,20.874976,-167.593332)"/>
<path style="fill-rule:nonzero;fill:rgb(21.568628%,35.294119%,84.705883%);fill-opacity:1;stroke-width:1;stroke-linecap:butt;stroke-linejoin:miter;stroke:rgb(21.568628%,35.294119%,84.705883%);stroke-opacity:1;stroke-miterlimit:4;" d="M 33.240031 31.18008 C 30.444082 31.217672 27.664969 30.743164 25.040045 29.779963 C 24.550542 29.562924 24.318727 28.99887 24.514387 28.500424 C 24.710047 28.001978 25.26353 27.746106 25.770048 27.920056 C 28.162448 28.791228 30.693973 29.218392 33.240031 29.179913 C 39.830077 29.179913 44.419928 26.710026 44.419928 24.480053 C 44.420814 24.034626 44.273006 23.601788 44.000075 23.249986 C 43.675571 22.818212 43.752665 22.206814 44.17429 21.86902 C 44.595738 21.531226 45.209302 21.589209 45.560036 22.000059 C 46.115291 22.692138 46.418528 23.552671 46.419946 24.439979 C 46.419946 28.239941 40.630084 31.18008 33.240031 31.18008 Z M 33.240031 31.18008 " transform="matrix(22.040816,0,0,22.029412,20.874304,-79.476483)"/>
<path style="fill-rule:nonzero;fill:rgb(21.568628%,35.294119%,84.705883%);fill-opacity:1;stroke-width:1;stroke-linecap:butt;stroke-linejoin:miter;stroke:rgb(21.568628%,35.294119%,84.705883%);stroke-opacity:1;stroke-miterlimit:4;" d="M 33.240031 31.179924 C 30.444082 31.217693 27.664969 30.743185 25.040045 29.779984 C 24.550542 29.562945 24.318727 28.998891 24.514387 28.500445 C 24.710047 28.001999 25.26353 27.746127 25.770048 27.920077 C 28.162448 28.791249 30.693973 29.218235 33.240031 29.179934 C 39.830077 29.179934 44.419928 26.710047 44.419928 24.480074 C 44.420814 24.034647 44.273006 23.601809 44.000075 23.250007 C 43.675571 22.818233 43.752665 22.206657 44.17429 21.869041 C 44.595738 21.531246 45.209302 21.58923 45.560036 22.00008 C 46.115291 22.692159 46.418528 23.552692 46.419946 24.44 C 46.419946 28.239962 40.630084 31.179924 33.240031 31.179924 Z M 33.240031 31.179924 " transform="matrix(22.040816,0,0,22.029412,20.874304,-167.59413)"/>
<path style="fill-rule:nonzero;fill:rgb(21.568628%,35.294119%,84.705883%);fill-opacity:1;stroke-width:1;stroke-linecap:butt;stroke-linejoin:miter;stroke:rgb(21.568628%,35.294119%,84.705883%);stroke-opacity:1;stroke-miterlimit:4;" d="M 33.239916 27.490037 C 30.537366 27.529225 27.848994 27.089117 25.299924 26.189928 C 24.815028 25.976081 24.581264 25.420893 24.766999 24.924575 C 24.952911 24.428079 25.493811 24.162809 25.999974 24.319914 C 28.32751 25.125655 30.777155 25.52161 33.239916 25.490047 C 39.829962 25.490047 44.41999 23.019983 44.41999 20.79994 C 44.423003 20.351321 44.275195 19.914582 43.99996 19.559943 C 43.764601 19.277472 43.70328 18.888433 43.840277 18.547092 C 43.977452 18.205752 44.290791 17.967256 44.656235 17.926118 C 45.021857 17.88498 45.380389 18.04776 45.59005 18.349913 C 46.146723 19.045183 46.44996 19.909262 46.44996 20.79994 C 46.420008 24.550075 40.629969 27.490037 33.239916 27.490037 Z M 33.239916 27.490037 " transform="matrix(22.040816,0,0,22.029412,20.654185,-167.593248)"/>
<path style="fill-rule:nonzero;fill:rgb(21.568628%,35.294119%,84.705883%);fill-opacity:1;stroke-width:1;stroke-linecap:butt;stroke-linejoin:miter;stroke:rgb(21.568628%,35.294119%,84.705883%);stroke-opacity:1;stroke-miterlimit:4;" d="M 33.240023 23.809994 C 30.097416 23.721157 26.991495 23.109404 24.050042 21.999914 C 23.80724 21.892636 23.617074 21.693328 23.521371 21.44579 C 23.425668 21.198074 23.432402 20.922696 23.53998 20.679946 C 23.759565 20.17618 24.344595 19.943891 24.850049 20.160044 C 27.534167 21.183002 30.369107 21.753971 33.240023 21.850079 C 39.83007 21.850079 44.419921 19.370085 44.419921 17.150041 C 44.438884 16.81668 44.347611 16.486333 44.159927 16.210069 C 44.018145 15.985937 43.971002 15.714638 44.029133 15.455751 C 44.087264 15.197041 44.245883 14.971845 44.470076 14.829989 C 44.694092 14.688134 44.965428 14.640967 45.224181 14.699127 C 45.483111 14.757288 45.708191 14.915812 45.849973 15.139944 C 46.235976 15.734498 46.434471 16.431364 46.419939 17.139934 C 46.419939 20.859925 40.630077 23.809994 33.240023 23.809994 Z M 21.069953 17.999935 L 20.999948 17.999935 C 20.450896 17.952413 20.043803 17.469217 20.090059 16.920057 C 20.150671 16.322313 20.316557 15.739994 20.579918 15.200056 C 20.818467 14.704092 21.412889 14.493969 21.910014 14.729981 C 22.152639 14.842756 22.339792 15.047915 22.430001 15.29971 C 22.52021 15.551504 22.505854 15.828832 22.389947 16.069987 C 22.22672 16.381715 22.121624 16.720573 22.079975 17.07007 C 22.042935 17.59866 21.599865 18.006673 21.069953 17.999935 Z M 21.069953 17.999935 " transform="matrix(22.040816,0,0,22.029412,20.874472,-167.594382)"/>
<path style=" stroke:none;fill-rule:nonzero;fill:rgb(35.294119%,59.607846%,100%);fill-opacity:1;" d="M 559.773438 405.171875 C 559.773438 273.164062 456.160156 166.152344 328.34375 166.152344 C 200.53125 166.152344 96.914062 273.164062 96.914062 405.171875 C 96.914062 537.175781 200.53125 644.191406 328.34375 644.191406 C 456.160156 644.191406 559.773438 537.175781 559.773438 405.171875 Z M 559.773438 405.171875 "/>
<path style=" stroke:none;fill-rule:nonzero;fill:rgb(3.529412%,0%,100%);fill-opacity:1;" d="M 273.683594 574.578125 C 261.511719 574.578125 251.640625 564.714844 251.640625 552.546875 L 251.640625 269.25 C 251.640625 257.082031 261.511719 247.21875 273.683594 247.21875 C 285.855469 247.21875 295.722656 257.082031 295.722656 269.25 L 295.722656 552.546875 C 295.722656 564.714844 285.855469 574.578125 273.683594 574.578125 Z M 273.683594 574.578125 "/>
<path style=" stroke:none;fill-rule:nonzero;fill:rgb(3.529412%,0%,100%);fill-opacity:1;" d="M 326.359375 418.609375 L 273.464844 418.609375 C 261.289062 418.609375 251.421875 408.746094 251.421875 396.578125 C 251.421875 384.414062 261.289062 374.550781 273.464844 374.550781 L 326.359375 374.550781 C 349.367188 374.550781 368.019531 355.910156 368.019531 332.914062 C 368.019531 309.917969 349.367188 291.277344 326.359375 291.277344 L 231.804688 291.277344 C 219.632812 291.277344 209.765625 281.414062 209.765625 269.25 C 209.765625 257.082031 219.632812 247.21875 231.804688 247.21875 L 326.359375 247.21875 C 373.714844 247.21875 412.101562 285.585938 412.101562 332.914062 C 412.101562 380.242188 373.714844 418.609375 326.359375 418.609375 Z M 326.359375 418.609375 "/>
<path style="fill-rule:nonzero;fill:rgb(21.568628%,35.294119%,84.705883%);fill-opacity:1;stroke-width:1;stroke-linecap:butt;stroke-linejoin:miter;stroke:rgb(21.568628%,35.294119%,84.705883%);stroke-opacity:1;stroke-miterlimit:4;" d="M 33.240042 19.849944 C 26.679948 19.849944 20.050025 18.020004 20.050025 14.520067 C 20.050025 11.019952 26.679948 9.180082 33.240042 9.180082 C 39.79996 9.180082 46.419958 10.999915 46.419958 14.520067 C 46.419958 18.040041 39.790035 19.849944 33.240042 19.849944 Z M 33.240042 11.180072 C 26.410029 11.180072 22.050043 13.180061 22.050043 14.520067 C 22.050043 15.860072 26.410029 17.849954 33.240042 17.849954 C 40.070055 17.849954 44.41994 15.849965 44.41994 14.520067 C 44.41994 13.189991 40.059953 11.180072 33.240042 11.180072 Z M 33.240042 11.180072 " transform="matrix(22.040816,0,0,22.029412,20.874051,-167.813841)"/>
<path style=" stroke:none;fill-rule:nonzero;fill:rgb(3.529412%,0%,100%);fill-opacity:1;" d="M 374.1875 578.324219 L 250.980469 578.324219 C 238.808594 578.324219 228.941406 568.460938 228.941406 556.292969 C 228.941406 544.125 238.808594 534.261719 250.980469 534.261719 L 374.1875 534.261719 C 405.109375 534.261719 430.171875 509.210938 430.171875 478.308594 C 430.171875 447.40625 405.109375 422.355469 374.1875 422.355469 L 292.636719 422.355469 C 280.464844 422.355469 270.597656 412.492188 270.597656 400.324219 C 270.597656 388.15625 280.464844 378.296875 292.636719 378.296875 L 374.1875 378.296875 C 409.9375 378.296875 442.972656 397.359375 460.847656 428.300781 C 478.722656 459.246094 478.722656 497.371094 460.847656 528.316406 C 442.972656 559.261719 409.9375 578.324219 374.1875 578.324219 Z M 374.1875 578.324219 "/>
<path style=" stroke:none;fill-rule:nonzero;fill:rgb(3.529412%,0%,100%);fill-opacity:1;" d="M 296.164062 624.601562 C 283.992188 624.601562 274.125 614.34375 274.125 601.691406 L 274.125 559.304688 C 274.125 546.652344 283.992188 536.394531 296.164062 536.394531 C 308.335938 536.394531 318.203125 546.652344 318.203125 559.304688 L 318.203125 601.691406 C 318.203125 614.34375 308.335938 624.601562 296.164062 624.601562 Z M 296.164062 287.585938 C 283.992188 287.585938 274.125 277.328125 274.125 264.675781 L 274.125 222.75 C 274.125 210.097656 283.992188 199.839844 296.164062 199.839844 C 308.335938 199.839844 318.203125 210.097656 318.203125 222.75 L 318.203125 265.132812 C 317.964844 277.609375 308.167969 287.589844 296.164062 287.585938 Z M 296.164062 287.585938 "/>
<path style=" stroke:none;fill-rule:nonzero;fill:rgb(3.529412%,0%,100%);fill-opacity:1;" d="M 351.488281 620.855469 C 339.3125 620.855469 329.445312 610.601562 329.445312 597.945312 L 329.445312 555.5625 C 329.445312 542.910156 339.3125 532.652344 351.488281 532.652344 C 363.660156 532.652344 373.527344 542.910156 373.527344 555.5625 L 373.527344 597.945312 C 373.527344 610.601562 363.660156 620.855469 351.488281 620.855469 Z M 351.488281 289.113281 C 339.3125 289.113281 329.445312 278.855469 329.445312 266.199219 L 329.445312 219.003906 C 329.445312 206.351562 339.3125 196.09375 351.488281 196.09375 C 363.660156 196.09375 373.527344 206.351562 373.527344 219.003906 L 373.527344 266.660156 C 373.289062 279.132812 363.488281 289.113281 351.488281 289.113281 Z M 351.488281 289.113281 "/>
<path style="fill-rule:nonzero;fill:rgb(21.568628%,35.294119%,84.705883%);fill-opacity:1;stroke-width:1;stroke-linecap:butt;stroke-linejoin:miter;stroke:rgb(21.568628%,35.294119%,84.705883%);stroke-opacity:1;stroke-miterlimit:4;" d="M 14.140085 38.820073 C 7.203242 38.820073 1.579952 33.196626 1.579952 26.25998 C 1.579952 19.323334 7.203242 13.70006 14.140085 13.70006 C 21.076755 13.70006 26.700045 19.323334 26.700045 26.25998 C 26.689032 33.19215 21.072109 38.809055 14.140085 38.820073 Z M 14.140085 15.699986 C 8.307906 15.699986 3.580048 20.427882 3.580048 26.25998 C 3.580048 32.092079 8.307906 36.819975 14.140085 36.819975 C 19.972091 36.819975 24.699949 32.092079 24.699949 26.25998 C 24.688937 20.432358 19.967617 15.711004 14.140085 15.699986 Z M 14.140085 15.699986 " transform="matrix(22.70204,0,0,22.690293,4.913106,-190.01463)"/>
</g>
</svg>
