<?xml version="1.0" encoding="UTF-8" standalone="no" ?>
<!DOCTYPE svg PUBLIC "-//W3C//DTD SVG 1.1//EN" "http://www.w3.org/Graphics/SVG/1.1/DTD/svg11.dtd">
<svg xmlns="http://www.w3.org/2000/svg" xmlns:xlink="http://www.w3.org/1999/xlink" version="1.1" width="1080" height="1080" viewBox="0 0 1080 1080" xml:space="preserve">
<desc>Created with Fabric.js 5.2.4</desc>
<defs>
</defs>
<rect x="0" y="0" width="100%" height="100%" fill="transparent"></rect>
<g transform="matrix(1 0 0 1 540 540)" id="8d808a04-8788-4aef-a685-c53327c9dfbd"  >
</g>
<g transform="matrix(1 0 0 1 540 540)" id="cc6f5d30-3876-4c0b-9da5-d68f3232aea6"  >
<rect style="stroke: none; stroke-width: 1; stroke-dasharray: none; stroke-linecap: butt; stroke-dashoffset: 0; stroke-linejoin: miter; stroke-miterlimit: 4; fill: rgb(255,255,255); fill-rule: nonzero; opacity: 1; visibility: hidden;" vector-effect="non-scaling-stroke"  x="-540" y="-540" rx="0" ry="0" width="1080" height="1080" />
</g>
<g transform="matrix(0.34 0 0 0.33 549.95 539.93)" id="16f206fc-5a92-4b82-92f0-a42629f670f8"  >
<rect style="stroke: rgb(0,0,0); stroke-width: 0; stroke-dasharray: none; stroke-linecap: butt; stroke-dashoffset: 0; stroke-linejoin: miter; stroke-miterlimit: 4; fill: rgb(90,152,255); fill-rule: nonzero; opacity: 1;" vector-effect="non-scaling-stroke"  x="-33.085" y="-33.085" rx="0" ry="0" width="66.17" height="66.17" />
</g>
<g transform="matrix(0.32 0 0 0.11 550 549)" id="c6903ccf-2667-4ad9-8c6a-4f79351e8435"  >
<circle style="stroke: rgb(0,0,0); stroke-width: 0; stroke-dasharray: none; stroke-linecap: butt; stroke-dashoffset: 0; stroke-linejoin: miter; stroke-miterlimit: 4; fill: rgb(90,152,255); fill-rule: nonzero; opacity: 1;" vector-effect="non-scaling-stroke"  cx="0" cy="0" r="35" />
</g>
<g transform="matrix(0.32 0 0 0.11 549.29 530.2)" id="c6903ccf-2667-4ad9-8c6a-4f79351e8435"  >
<circle style="stroke: rgb(0,0,0); stroke-width: 0; stroke-dasharray: none; stroke-linecap: butt; stroke-dashoffset: 0; stroke-linejoin: miter; stroke-miterlimit: 4; fill: rgb(90,152,255); fill-rule: nonzero; opacity: 1;" vector-effect="non-scaling-stroke"  cx="0" cy="0" r="35" />
</g>
<g transform="matrix(1 0 0 1 549.89 549.77)"  >
<path style="stroke: rgb(55,90,216); stroke-width: 1; stroke-dasharray: none; stroke-linecap: butt; stroke-dashoffset: 0; stroke-linejoin: miter; stroke-miterlimit: 4; fill: rgb(55,90,216); fill-rule: nonzero; opacity: 1;" vector-effect="non-scaling-stroke"  transform=" translate(-33.9, -33.77)" d="M 33.24 38.56 C 28.35 38.56 23.910000000000004 37.25 21.650000000000002 35.14 C 21.460687349176904 34.95223340009444 21.35420167565833 34.69663753637056 21.35420167565833 34.43 C 21.35420167565833 34.16336246362944 21.460687349176904 33.90776659990556 21.650000000000002 33.72 C 22.040037454310927 33.3322764052892 22.669962545689078 33.3322764052892 23.060000000000002 33.72 C 24.94 35.47 28.950000000000003 36.6 33.290000000000006 36.6 C 39.88000000000001 36.6 44.470000000000006 34.120000000000005 44.470000000000006 31.900000000000002 C 44.46810705909126 31.431450873725268 44.30176682891175 30.97843918302363 44 30.62 C 43.76455144100345 30.337428919575647 43.70322556450008 29.948415905567447 43.840323912460256 29.607114744695807 C 43.97742226042043 29.26581358382417 44.29081264033648 29.02732153369938 44.656308168875015 28.98614559358772 C 45.021803697413546 28.94496965347607 45.38040134850847 29.107756977386295 45.59 29.41 C 46.146671002020064 30.10525334673489 46.44998608940695 30.969348653825428 46.45 31.86 C 46.42 35.62 40.63 38.56 33.24 38.56 Z" stroke-linecap="round" />
</g>
<g transform="matrix(1 0 0 1 551.42 546.42)"  >
<path style="stroke: rgb(55,90,216); stroke-width: 1; stroke-dasharray: none; stroke-linecap: butt; stroke-dashoffset: 0; stroke-linejoin: miter; stroke-miterlimit: 4; fill: rgb(55,90,216); fill-rule: nonzero; opacity: 1;" vector-effect="non-scaling-stroke"  transform=" translate(-35.43, -26.42)" d="M 33.24 31.18 C 30.444135249700082 31.217639972471975 27.66499764641073 30.743153064593308 25.040000000000003 29.780000000000005 C 24.550507568424393 29.562980212419394 24.31881429271651 28.998907681755973 24.514434884751484 28.50047713218741 C 24.710055476786458 28.002046582618846 25.26356632820383 27.746145564214263 25.770000000000003 27.92 C 28.162515378714136 28.791312197295778 30.694052932074932 29.2183185315976 33.239999999999995 29.180000000000003 C 39.83 29.180000000000003 44.42 26.710000000000004 44.42 24.480000000000004 C 44.42084204641875 24.03467488836846 44.27303338683263 23.601806671009122 44 23.25 C 43.675581669933855 22.81815431017574 43.75271507448737 22.206731360805907 44.17422022908787 21.86898684590166 C 44.59572538368837 21.531242330997415 45.20925868146593 21.589246448371192 45.56 22 C 46.11523543865385 22.692183389296282 46.41851227050477 23.552643237803547 46.42 24.439999999999998 C 46.42 28.24 40.63 31.18 33.24 31.18 Z" stroke-linecap="round" />
</g>
<g transform="matrix(1 0 0 1 551.42 542.42)"  >
<path style="stroke: rgb(55,90,216); stroke-width: 1; stroke-dasharray: none; stroke-linecap: butt; stroke-dashoffset: 0; stroke-linejoin: miter; stroke-miterlimit: 4; fill: rgb(55,90,216); fill-rule: nonzero; opacity: 1;" vector-effect="non-scaling-stroke"  transform=" translate(-35.43, -26.42)" d="M 33.24 31.18 C 30.444135249700082 31.217639972471975 27.66499764641073 30.743153064593308 25.040000000000003 29.780000000000005 C 24.550507568424393 29.562980212419394 24.31881429271651 28.998907681755973 24.514434884751484 28.50047713218741 C 24.710055476786458 28.002046582618846 25.26356632820383 27.746145564214263 25.770000000000003 27.92 C 28.162515378714136 28.791312197295778 30.694052932074932 29.2183185315976 33.239999999999995 29.180000000000003 C 39.83 29.180000000000003 44.42 26.710000000000004 44.42 24.480000000000004 C 44.42084204641875 24.03467488836846 44.27303338683263 23.601806671009122 44 23.25 C 43.675581669933855 22.81815431017574 43.75271507448737 22.206731360805907 44.17422022908787 21.86898684590166 C 44.59572538368837 21.531242330997415 45.20925868146593 21.589246448371192 45.56 22 C 46.11523543865385 22.692183389296282 46.41851227050477 23.552643237803547 46.42 24.439999999999998 C 46.42 28.24 40.63 31.18 33.24 31.18 Z" stroke-linecap="round" />
</g>
<g transform="matrix(1 0 0 1 551.56 538.71)"  >
<path style="stroke: rgb(55,90,216); stroke-width: 1; stroke-dasharray: none; stroke-linecap: butt; stroke-dashoffset: 0; stroke-linejoin: miter; stroke-miterlimit: 4; fill: rgb(55,90,216); fill-rule: nonzero; opacity: 1;" vector-effect="non-scaling-stroke"  transform=" translate(-35.58, -22.71)" d="M 33.24 27.49 C 30.537306339054833 27.5292812670613 27.849048149939936 27.089138238616794 25.299999999999997 26.189999999999994 C 24.81503369256247 25.976072486518238 24.581237367664958 25.42090209364492 24.767060822084524 24.92448800826693 C 24.95288427650409 24.428073922888945 25.49376522608313 24.162889675541606 26 24.319999999999997 C 28.327534921731115 25.125666087272073 30.777171882477877 25.52153283369109 33.24 25.48999999999999 C 39.83 25.489999999999995 44.42 23.019999999999996 44.42 20.799999999999994 C 44.42307974363025 20.35125250328525 44.2751502564805 19.914508303128844 44 19.56 C 43.76455144100345 19.277428919575645 43.70322556450008 18.888415905567445 43.840323912460256 18.547114744695804 C 43.97742226042043 18.205813583824167 44.29081264033648 17.967321533699376 44.656308168875015 17.92614559358772 C 45.021803697413546 17.884969653476066 45.38040134850847 18.047756977386292 45.59 18.349999999999998 C 46.146671002020064 19.04525334673489 46.44998608940695 19.909348653825425 46.45 20.799999999999997 C 46.42 24.55 40.63 27.49 33.24 27.49 Z" stroke-linecap="round" />
</g>
<g transform="matrix(1 0 0 1 549.24 535.22)"  >
<path style="stroke: rgb(55,90,216); stroke-width: 1; stroke-dasharray: none; stroke-linecap: butt; stroke-dashoffset: 0; stroke-linejoin: miter; stroke-miterlimit: 4; fill: rgb(55,90,216); fill-rule: nonzero; opacity: 1;" vector-effect="non-scaling-stroke"  transform=" translate(-33.25, -19.22)" d="M 33.24 23.81 C 30.097415894614354 23.721129093504672 26.99158264831284 23.109425265887072 24.049999999999994 22 C 23.807213292269623 21.892718451065136 23.61703926872728 21.693313305448637 23.521377380575476 21.4457178302322 C 23.42571549242367 21.19812235501577 23.432415051494214 20.922652416117018 23.54 20.68 C 23.75955035898586 20.17610185096478 24.34463136560209 19.94385595520872 24.849999999999998 20.16 C 27.534112294646395 21.18292047752363 30.36918008337473 21.75398895940097 33.23999999999998 21.849999999999998 C 39.83 21.85 44.419999999999995 19.37 44.419999999999995 17.150000000000002 C 44.43893890149959 16.81661361284406 44.34756666281065 16.48626782681481 44.16 16.21 C 44.01807572659697 15.985901216065043 43.971003611216354 15.714595668549027 44.02914211657371 15.455785547925979 C 44.08728062193106 15.196975427302931 44.24586574199978 14.97186824427191 44.47 14.830000000000002 C 44.694098783934955 14.688075726596974 44.965404331450976 14.641003611216357 45.22421445207402 14.699142116573709 C 45.48302457269707 14.757280621931061 45.70813175572809 14.91586574199978 45.85 15.140000000000002 C 46.23595424787117 15.734562466008834 46.434524736722516 16.431301023381973 46.42 17.14 C 46.42 20.86 40.63 23.81 33.24 23.81 Z M 21.07 18 L 21 18 C 20.45085428945439 17.95232737835152 20.043837709317962 17.469274733794002 20.09 16.92 C 20.150747173738512 16.32228032932662 20.31663053477766 15.739995878332062 20.58 15.200000000000001 C 20.81849757652559 14.704074076316065 21.412864188234355 14.494034747366351 21.909999999999997 14.73 C 22.152568255012987 14.842697248005006 22.339879880723885 15.047871393139449 22.430077706693243 15.299673657303911 C 22.520275532662605 15.551475921468375 22.50584111200034 15.828917307094695 22.389999999999997 16.07 C 22.226647281757263 16.38168029121536 22.121590419244512 16.720573396095194 22.08 17.07 C 22.042944645496487 17.598651650449447 21.599907682521632 18.00659657675303 21.07 18 Z" stroke-linecap="round" />
</g>
<g transform="matrix(0.3 0 0 0.31 529.94 542)" id="0c5cc9f4-478d-44f5-be73-01782e6d850d"  >
<circle style="stroke: rgb(0,0,0); stroke-width: 0; stroke-dasharray: none; stroke-linecap: butt; stroke-dashoffset: 0; stroke-linejoin: miter; stroke-miterlimit: 4; fill: rgb(90,152,255); fill-rule: nonzero; opacity: 1;" vector-effect="non-scaling-stroke"  cx="0" cy="0" r="35" />
</g>
<g transform="matrix(1 0 0 1 527.46 542.26)"  >
<path style="stroke: none; stroke-width: 1; stroke-dasharray: none; stroke-linecap: butt; stroke-dashoffset: 0; stroke-linejoin: miter; stroke-miterlimit: 4; fill: rgb(9,0,255); fill-rule: nonzero; opacity: 1;" vector-effect="non-scaling-stroke"  transform=" translate(-11.47, -26.26)" d="M 11.47 33.69 C 10.917715250169207 33.69 10.47 33.242284749830795 10.47 32.69 L 10.47 19.83 C 10.47 19.277715250169205 10.917715250169207 18.83 11.47 18.83 C 12.022284749830794 18.83 12.47 19.277715250169205 12.47 19.83 L 12.47 32.69 C 12.47 33.242284749830795 12.022284749830794 33.69 11.47 33.69 Z" stroke-linecap="round" />
</g>
<g transform="matrix(1 0 0 1 529.15 538.72)"  >
<path style="stroke: none; stroke-width: 1; stroke-dasharray: none; stroke-linecap: butt; stroke-dashoffset: 0; stroke-linejoin: miter; stroke-miterlimit: 4; fill: rgb(9,0,255); fill-rule: nonzero; opacity: 1;" vector-effect="non-scaling-stroke"  transform=" translate(-13.17, -22.72)" d="M 13.87 26.61 L 11.469999999999999 26.61 C 10.917715250169206 26.61 10.469999999999999 26.162284749830793 10.469999999999999 25.61 C 10.469999999999999 25.057715250169206 10.917715250169206 24.61 11.469999999999999 24.61 L 13.87 24.61 C 14.913818177180199 24.61 15.76 23.763818177180198 15.76 22.72 C 15.76 21.6761818228198 14.913818177180199 20.83 13.87 20.83 L 9.58 20.83 C 9.027715250169207 20.83 8.58 20.38228474983079 8.58 19.83 C 8.58 19.277715250169205 9.027715250169207 18.83 9.58 18.83 L 13.870000000000001 18.83 C 16.018387676841787 18.83 17.76 20.571612323158213 17.76 22.72 C 17.76 24.868387676841785 16.01838767684179 26.61 13.870000000000003 26.61 Z" stroke-linecap="round" />
</g>
<g transform="matrix(1 0 0 1 549.22 530.51)"  >
<path style="stroke: rgb(55,90,216); stroke-width: 1; stroke-dasharray: none; stroke-linecap: butt; stroke-dashoffset: 0; stroke-linejoin: miter; stroke-miterlimit: 4; fill: rgb(55,90,216); fill-rule: nonzero; opacity: 1;" vector-effect="non-scaling-stroke"  transform=" translate(-33.23, -14.52)" d="M 33.24 19.85 C 26.680000000000003 19.85 20.050000000000004 18.020000000000003 20.050000000000004 14.520000000000001 C 20.050000000000004 11.02 26.680000000000003 9.180000000000001 33.24 9.180000000000001 C 39.8 9.180000000000001 46.42 11 46.42 14.52 C 46.42 18.04 39.79 19.85 33.24 19.85 Z M 33.24 11.180000000000001 C 26.410000000000004 11.180000000000001 22.050000000000004 13.180000000000001 22.050000000000004 14.520000000000001 C 22.050000000000004 15.860000000000001 26.410000000000004 17.85 33.24 17.85 C 40.07 17.85 44.42 15.850000000000001 44.42 14.520000000000001 C 44.42 13.190000000000001 40.06 11.18 33.24 11.18 Z" stroke-linecap="round" />
</g>
<g transform="matrix(1 0 0 1 531 545.32)"  >
<path style="stroke: none; stroke-width: 1; stroke-dasharray: none; stroke-linecap: butt; stroke-dashoffset: 0; stroke-linejoin: miter; stroke-miterlimit: 4; fill: rgb(9,0,255); fill-rule: nonzero; opacity: 1;" vector-effect="non-scaling-stroke"  transform=" translate(-14.15, -29.15)" d="M 15.17 33.69 L 9.58 33.69 C 9.027715250169207 33.69 8.58 33.242284749830795 8.58 32.69 C 8.58 32.1377152501692 9.027715250169207 31.689999999999998 9.58 31.689999999999998 L 15.17 31.689999999999998 C 16.57280323864995 31.689999963343208 17.70999993362701 30.55280323864995 17.70999993362701 29.15 C 17.70999993362701 27.747196761350047 16.57280323864995 26.61000003665679 15.17 26.61 L 11.469999999999999 26.61 C 10.917715250169206 26.61 10.469999999999999 26.162284749830793 10.469999999999999 25.61 C 10.469999999999999 25.057715250169206 10.917715250169206 24.61 11.469999999999999 24.61 L 15.169999999999998 24.61 C 16.791985799847367 24.609999967503537 18.29076249967577 25.475319071913077 19.101755408980374 26.879999973742443 C 19.91274831828498 28.284680875571812 19.91274831828498 30.01531912442818 19.101755408980374 31.42000002625755 C 18.290762499675772 32.82468092808692 16.791985799847367 33.69000003249646 15.169999999999998 33.69 Z" stroke-linecap="round" />
</g>
<g transform="matrix(1 0 0 1.04 528.48 542.32)"  >
<path style="stroke: none; stroke-width: 1; stroke-dasharray: none; stroke-linecap: butt; stroke-dashoffset: 0; stroke-linejoin: miter; stroke-miterlimit: 4; fill: rgb(9,0,255); fill-rule: nonzero; opacity: 1;" vector-effect="non-scaling-stroke"  transform=" translate(-12.53, -26.27)" d="M 12.53 35.54 C 11.977715250169206 35.54 11.53 35.092284749830796 11.53 34.54 L 11.53 32.69 C 11.53 32.1377152501692 11.977715250169206 31.689999999999998 12.53 31.689999999999998 C 13.082284749830793 31.689999999999998 13.53 32.1377152501692 13.53 32.69 L 13.53 34.54 C 13.53 35.092284749830796 13.082284749830793 35.54 12.53 35.54 Z M 12.53 20.83 C 11.977715250169206 20.83 11.53 20.38228474983079 11.53 19.83 L 11.53 18 C 11.53 17.447715250169207 11.977715250169206 17 12.53 17 C 13.082284749830793 17 13.53 17.447715250169207 13.53 18 L 13.53 19.85 C 13.519108658405676 20.39445870018998 13.074567613496985 20.830108924200495 12.53 20.83 Z" stroke-linecap="round" />
</g>
<g transform="matrix(1 0 0 1.04 530.99 542.15)"  >
<path style="stroke: none; stroke-width: 1; stroke-dasharray: none; stroke-linecap: butt; stroke-dashoffset: 0; stroke-linejoin: miter; stroke-miterlimit: 4; fill: rgb(9,0,255); fill-rule: nonzero; opacity: 1;" vector-effect="non-scaling-stroke"  transform=" translate(-15, -26.27)" d="M 15 35.54 C 14.447715250169207 35.54 14 35.092284749830796 14 34.54 L 14 32.69 C 14 32.1377152501692 14.447715250169207 31.689999999999998 15 31.689999999999998 C 15.552284749830793 31.689999999999998 16 32.1377152501692 16 32.69 L 16 34.54 C 16 35.092284749830796 15.552284749830793 35.54 15 35.54 Z M 15 21.06 C 14.447715250169207 21.06 14 20.612284749830792 14 20.06 L 14 18 C 14 17.447715250169207 14.447715250169207 17 15 17 C 15.552284749830793 17 16 17.447715250169207 16 18 L 16 20.08 C 15.989108658405678 20.62445870018998 15.544567613496987 21.060108924200495 15 21.06 Z" stroke-linecap="round" />
</g>
<g transform="matrix(0 0 0 0 0 0)"  >
<g style=""   >
</g>
</g>
<g transform="matrix(0 0 0 0 0 0)"  >
<g style=""   >
</g>
</g>
<g transform="matrix(0 0 0 0 0 0)"  >
<g style=""   >
</g>
</g>
<g transform="matrix(0 0 0 0 0 0)"  >
<g style=""   >
</g>
</g>
<g transform="matrix(0 0 0 0 0 0)"  >
<g style=""   >
</g>
</g>
<g transform="matrix(0 0 0 0 0 0)"  >
<g style=""   >
</g>
</g>
<g transform="matrix(0 0 0 0 0 0)"  >
<g style=""   >
</g>
</g>
<g transform="matrix(0 0 0 0 0 0)"  >
<g style=""   >
</g>
</g>
<g transform="matrix(1.03 0 0 1.03 529.83 542.03)"  >
<path style="stroke: rgb(55,90,216); stroke-width: 1; stroke-dasharray: none; stroke-linecap: butt; stroke-dashoffset: 0; stroke-linejoin: miter; stroke-miterlimit: 4; fill: rgb(55,90,216); fill-rule: nonzero; opacity: 1;" vector-effect="non-scaling-stroke"  transform=" translate(-14.14, -26.26)" d="M 14.14 38.82 C 7.2033035421252345 38.82 1.5800000000000018 33.196696457874765 1.5800000000000018 26.26 C 1.5800000000000018 19.323303542125235 7.203303542125235 13.700000000000003 14.14 13.700000000000003 C 21.076696457874768 13.700000000000003 26.700000000000003 19.32330354212523 26.700000000000003 26.259999999999998 C 26.688987858508384 33.192129955791984 21.07212995579198 38.80898785850839 14.139999999999999 38.82 Z M 14.14 15.7 C 8.307873041786822 15.7 3.5799999999999983 20.427873041786818 3.5799999999999983 26.259999999999998 C 3.5799999999999983 32.09212695821317 8.30787304178682 36.81999999999999 14.14 36.81999999999999 C 19.972126958213178 36.81999999999999 24.7 32.09212695821317 24.7 26.259999999999998 C 24.68899418754912 20.432437886451023 19.96756211354898 15.711005812450882 14.140000000000002 15.7 Z" stroke-linecap="round" />
</g>
<g transform="matrix(0 0 0 0 0 0)"  >
<g style=""   >
</g>
</g>
<g transform="matrix(0 0 0 0 0 0)"  >
<g style=""   >
</g>
</g>
<g transform="matrix(0 0 0 0 0 0)"  >
<g style=""   >
</g>
</g>
<g transform="matrix(0 0 0 0 0 0)"  >
<g style=""   >
</g>
</g>
<g transform="matrix(0 0 0 0 0 0)"  >
<g style=""   >
</g>
</g>
<g transform="matrix(0 0 0 0 0 0)"  >
<g style=""   >
</g>
</g>
<g transform="matrix(0 0 0 0 0 0)"  >
<g style=""   >
</g>
</g>
<g transform="matrix(0 0 0 0 0 0)"  >
<g style=""   >
</g>
</g>
<g transform="matrix(0 0 0 0 0 0)"  >
<g style=""   >
</g>
</g>
<g transform="matrix(0 0 0 0 0 0)"  >
<g style=""   >
</g>
</g>
<g transform="matrix(0 0 0 0 0 0)"  >
<g style=""   >
</g>
</g>
<g transform="matrix(0 0 0 0 0 0)"  >
<g style=""   >
</g>
</g>
<g transform="matrix(0 0 0 0 0 0)"  >
<g style=""   >
</g>
</g>
<g transform="matrix(0 0 0 0 0 0)"  >
<g style=""   >
</g>
</g>
<g transform="matrix(0 0 0 0 0 0)"  >
<g style=""   >
</g>
</g>
<g transform="matrix(0 0 0 0 0 0)"  >
<g style=""   >
</g>
</g>
<g transform="matrix(0 0 0 0 0 0)"  >
<g style=""   >
</g>
</g>
<g transform="matrix(0 0 0 0 0 0)"  >
<g style=""   >
</g>
</g>
<g transform="matrix(0 0 0 0 0 0)"  >
<g style=""   >
</g>
</g>
<g transform="matrix(0 0 0 0 0 0)"  >
<g style=""   >
</g>
</g>
<g transform="matrix(0 0 0 0 0 0)"  >
<g style=""   >
</g>
</g>
<g transform="matrix(0 0 0 0 0 0)"  >
<g style=""   >
</g>
</g>
<g transform="matrix(NaN NaN NaN NaN 0 0)"  >
<g style=""   >
</g>
</g>
</svg>