<svg id="svg" version="1.1" xmlns="http://www.w3.org/2000/svg" xmlns:xlink="http://www.w3.org/1999/xlink" width="400" height="699.4285714285714" viewBox="0, 0, 400,699.4285714285714"><g id="svgg"><path id="path0" d="M72.300 127.688 C 72.795 127.927,73.200 128.275,73.200 128.461 C 73.200 128.648,73.394 128.800,73.631 128.800 C 73.868 128.800,75.353 129.412,76.931 130.161 C 82.239 132.678,86.846 134.800,87.003 134.800 C 87.417 134.800,95.542 138.784,95.713 139.071 C 95.820 139.252,96.211 141.380,96.582 143.800 C 96.952 146.220,97.502 149.820,97.804 151.800 C 98.105 153.780,98.642 157.560,98.996 160.200 C 99.350 162.840,99.804 165.990,100.006 167.200 C 100.207 168.410,100.472 170.300,100.594 171.400 C 100.716 172.500,100.986 174.480,101.194 175.800 C 101.401 177.120,101.853 180.180,102.198 182.600 C 104.753 200.532,105.175 203.448,105.645 206.400 C 105.873 207.830,106.221 210.260,106.419 211.800 C 106.974 216.107,108.519 226.974,109.832 235.800 C 110.159 238.000,110.580 241.060,110.768 242.600 C 110.955 244.140,111.299 246.570,111.533 248.000 C 111.767 249.430,112.242 252.670,112.590 255.200 C 112.937 257.730,113.404 260.880,113.627 262.200 C 113.849 263.520,114.197 265.950,114.400 267.600 C 114.743 270.387,115.114 273.006,116.642 283.400 C 116.965 285.600,117.396 288.750,117.599 290.400 C 117.802 292.050,118.151 294.480,118.373 295.800 C 118.596 297.120,119.061 300.270,119.406 302.800 C 119.752 305.330,120.297 308.946,120.617 310.835 C 120.938 312.723,121.200 314.761,121.200 315.363 C 121.200 315.964,121.461 317.929,121.781 319.728 C 122.101 321.528,122.580 324.577,122.846 326.505 C 123.113 328.433,123.526 330.157,123.765 330.336 C 124.004 330.515,141.120 330.528,161.800 330.365 C 182.480 330.202,214.651 330.053,233.291 330.034 L 267.182 330.000 267.744 329.100 C 268.054 328.605,268.425 326.940,268.569 325.400 C 268.712 323.860,268.998 321.520,269.204 320.200 C 269.410 318.880,269.863 315.640,270.210 313.000 C 270.846 308.175,271.493 303.317,272.633 294.800 C 272.971 292.270,273.426 289.030,273.642 287.600 C 273.858 286.170,274.202 283.560,274.405 281.800 C 274.608 280.040,275.043 276.620,275.371 274.200 C 276.335 267.088,277.212 260.416,277.606 257.200 C 277.808 255.550,278.151 253.030,278.368 251.600 C 278.585 250.170,279.051 246.750,279.404 244.000 C 279.757 241.250,280.298 237.200,280.606 235.000 C 281.228 230.563,282.279 222.673,282.578 220.200 C 282.684 219.320,283.048 216.575,283.386 214.100 C 284.233 207.894,285.168 200.779,285.606 197.200 C 285.808 195.550,286.149 193.030,286.362 191.600 C 286.734 189.120,287.296 184.970,288.640 174.800 C 288.975 172.270,289.424 169.030,289.638 167.600 C 289.851 166.170,290.192 163.650,290.394 162.000 C 290.805 158.644,291.724 151.629,292.620 145.000 C 292.948 142.580,293.390 139.070,293.604 137.200 C 293.818 135.330,294.175 132.936,294.397 131.880 C 294.618 130.824,294.800 129.339,294.800 128.580 L 294.800 127.200 183.100 127.227 C 102.487 127.247,71.650 127.375,72.300 127.688 M196.213 143.380 C 196.976 143.698,197.638 144.013,197.685 144.080 C 197.732 144.146,197.867 152.030,197.985 161.600 L 198.200 179.000 213.286 179.200 C 231.079 179.436,229.854 179.087,229.705 183.884 C 229.535 189.338,230.868 188.920,212.800 189.185 L 198.200 189.400 198.096 206.500 L 197.991 223.600 211.809 223.600 C 227.124 223.600,228.103 223.732,228.508 225.852 C 229.173 229.331,227.969 229.600,211.734 229.600 L 197.992 229.600 198.096 247.700 L 198.200 265.800 212.459 266.000 C 228.227 266.221,228.400 266.252,228.400 268.835 C 228.400 271.461,227.629 271.599,212.938 271.605 C 205.712 271.608,199.395 271.719,198.900 271.852 L 198.000 272.093 198.000 292.867 C 198.000 315.451,197.977 315.689,195.794 316.237 C 192.264 317.123,192.229 316.909,192.000 292.818 L 191.800 271.800 175.742 271.600 C 158.040 271.380,157.982 271.370,158.013 268.838 C 158.046 266.132,157.492 266.221,175.517 266.000 L 191.800 265.800 191.904 247.700 L 192.008 229.600 176.304 229.599 C 158.387 229.599,157.912 229.527,157.682 226.800 C 157.420 223.684,156.679 223.814,175.372 223.683 L 192.009 223.567 191.904 206.483 L 191.800 189.400 176.200 189.200 C 165.092 189.058,160.358 188.861,159.760 188.518 C 158.425 187.752,158.119 181.202,159.339 179.516 C 159.373 179.470,166.690 179.335,175.600 179.216 L 191.800 179.000 192.011 162.000 C 192.127 152.650,192.262 144.946,192.311 144.881 C 192.567 144.538,194.539 142.800,194.671 142.800 C 194.756 142.800,195.450 143.061,196.213 143.380 M99.791 534.131 C 99.575 534.764,98.867 541.167,98.391 546.800 C 98.177 549.330,97.793 552.773,97.539 554.451 C 96.856 558.955,96.677 558.805,102.687 558.772 C 108.218 558.741,110.493 558.337,108.000 557.827 C 105.442 557.303,105.164 557.143,103.978 555.506 L 102.800 553.880 102.800 546.300 C 102.800 534.928,103.225 534.400,112.378 534.400 C 121.562 534.400,122.138 535.016,122.332 545.038 C 122.510 554.267,121.381 557.587,118.058 557.606 C 116.478 557.615,115.698 558.226,116.866 558.539 C 118.396 558.949,295.732 558.831,296.382 558.420 C 296.885 558.102,296.898 557.115,296.479 551.126 C 296.213 547.317,295.996 542.377,295.997 540.150 C 295.999 537.923,295.886 535.531,295.747 534.836 L 295.495 533.573 197.723 533.617 C 123.301 533.651,99.913 533.773,99.791 534.131 " stroke="none" fill="#303446" fill-rule="evenodd"></path><path id="path1" d="M166.400 53.800 C 166.400 54.200,166.000 54.400,165.200 54.400 C 164.400 54.400,164.000 54.600,164.000 55.000 C 164.000 55.330,163.730 55.600,163.400 55.600 C 163.070 55.600,162.800 55.851,162.800 56.157 C 162.800 56.464,162.530 56.818,162.200 56.945 C 161.700 57.136,161.600 58.279,161.600 63.787 L 161.600 70.400 131.400 70.400 C 104.822 70.400,101.200 70.472,101.200 71.000 C 101.200 71.373,100.823 71.600,100.205 71.600 C 99.090 71.600,97.600 72.694,97.600 73.513 C 97.600 73.807,97.435 73.945,97.233 73.820 C 97.030 73.695,96.746 74.135,96.601 74.797 C 96.455 75.458,96.171 76.000,95.968 76.000 C 95.766 76.000,95.600 78.046,95.600 80.551 C 95.600 84.108,95.469 85.211,95.000 85.600 C 94.522 85.997,94.400 87.175,94.400 91.400 C 94.400 95.625,94.522 96.803,95.000 97.200 C 95.469 97.589,95.600 98.692,95.600 102.249 C 95.600 104.752,95.760 106.800,95.957 106.800 C 96.153 106.800,96.423 107.236,96.557 107.769 C 96.907 109.164,99.087 111.200,100.231 111.200 C 100.826 111.200,101.200 111.432,101.200 111.800 C 101.200 112.259,101.706 112.400,103.357 112.400 C 104.906 112.400,105.579 112.569,105.745 113.000 C 105.948 113.531,116.320 113.600,195.759 113.600 C 275.034 113.600,285.613 113.530,286.143 113.000 C 286.518 112.624,287.502 112.400,288.771 112.400 C 290.308 112.400,290.800 112.254,290.800 111.800 C 290.800 111.470,291.070 111.200,291.400 111.200 C 291.730 111.200,292.000 111.059,292.000 110.888 C 292.000 110.716,292.540 110.372,293.200 110.122 C 293.977 109.829,294.400 109.390,294.400 108.878 C 294.400 108.442,294.670 107.982,295.000 107.855 C 295.330 107.729,295.600 107.169,295.600 106.613 C 295.600 106.056,295.780 105.600,296.000 105.600 C 296.259 105.600,296.400 100.600,296.400 91.400 C 296.400 82.200,296.259 77.200,296.000 77.200 C 295.780 77.200,295.600 76.759,295.600 76.220 C 295.600 75.681,295.347 75.096,295.038 74.920 C 294.730 74.744,294.415 74.150,294.338 73.600 C 294.235 72.849,293.926 72.568,293.100 72.473 C 292.495 72.404,292.000 72.179,292.000 71.973 C 292.000 71.768,291.749 71.600,291.443 71.600 C 291.136 71.600,290.782 71.330,290.655 71.000 C 290.453 70.474,286.588 70.400,259.213 70.400 L 228.000 70.400 228.000 64.187 C 228.000 59.034,227.898 57.936,227.400 57.745 C 227.070 57.618,226.800 57.084,226.800 56.557 C 226.800 55.973,226.566 55.600,226.200 55.600 C 225.870 55.600,225.600 55.330,225.600 55.000 C 225.600 54.670,225.330 54.400,225.000 54.400 C 224.670 54.400,224.400 54.130,224.400 53.800 C 224.400 53.272,220.911 53.200,195.400 53.200 C 169.889 53.200,166.400 53.272,166.400 53.800 M54.400 121.000 C 54.400 121.330,54.130 121.600,53.800 121.600 C 53.324 121.600,53.200 122.178,53.200 124.400 L 53.200 127.200 54.400 127.200 C 55.200 127.200,55.600 127.400,55.600 127.800 C 55.600 128.173,55.978 128.400,56.600 128.400 C 57.222 128.400,57.600 128.627,57.600 129.000 C 57.600 129.400,58.000 129.600,58.800 129.600 C 59.600 129.600,60.000 129.800,60.000 130.200 C 60.000 130.595,60.395 130.800,61.157 130.800 C 61.817 130.800,62.413 131.058,62.545 131.400 C 62.671 131.730,63.209 132.000,63.738 132.000 C 64.268 132.000,64.926 132.270,65.200 132.600 C 65.474 132.930,66.197 133.200,66.806 133.200 C 67.422 133.200,68.017 133.466,68.145 133.800 C 68.271 134.130,68.831 134.400,69.387 134.400 C 69.944 134.400,70.400 134.580,70.400 134.800 C 70.400 135.020,70.856 135.200,71.413 135.200 C 71.969 135.200,72.529 135.470,72.655 135.800 C 72.782 136.130,73.297 136.400,73.800 136.400 C 74.303 136.400,74.818 136.670,74.945 137.000 C 75.097 137.396,75.723 137.600,76.787 137.600 C 77.954 137.600,78.400 137.766,78.400 138.200 C 78.400 138.566,78.773 138.800,79.357 138.800 C 79.884 138.800,80.418 139.070,80.545 139.400 C 80.671 139.730,81.231 140.000,81.787 140.000 C 82.421 140.000,82.800 140.225,82.800 140.600 C 82.800 140.995,83.195 141.200,83.957 141.200 C 84.617 141.200,85.213 141.458,85.345 141.800 C 85.471 142.130,86.031 142.400,86.587 142.400 C 87.144 142.400,87.600 142.580,87.600 142.800 C 87.600 143.020,88.050 143.200,88.600 143.200 C 89.546 143.200,89.600 143.319,89.600 145.413 C 89.600 147.010,89.767 147.689,90.200 147.855 C 90.675 148.037,90.800 148.873,90.800 151.855 C 90.800 154.837,90.925 155.673,91.400 155.855 C 91.877 156.039,92.000 156.894,92.000 160.043 C 92.000 163.294,92.107 164.000,92.600 164.000 C 93.093 164.000,93.200 164.711,93.200 168.000 C 93.200 171.289,93.307 172.000,93.800 172.000 C 94.293 172.000,94.400 172.711,94.400 176.000 C 94.400 179.289,94.507 180.000,95.000 180.000 C 95.493 180.000,95.600 180.711,95.600 184.000 C 95.600 186.200,95.763 188.000,95.961 188.000 C 96.160 188.000,96.385 189.740,96.461 191.867 C 96.556 194.501,96.759 195.787,97.100 195.900 C 97.453 196.018,97.600 197.178,97.600 199.846 C 97.600 202.836,97.725 203.673,98.200 203.855 C 98.671 204.036,98.800 204.847,98.800 207.614 C 98.800 210.217,98.957 211.300,99.400 211.743 C 99.844 212.187,100.000 213.275,100.000 215.929 C 100.000 218.747,100.128 219.564,100.600 219.745 C 101.075 219.927,101.200 220.769,101.200 223.800 C 101.200 226.831,101.325 227.673,101.800 227.855 C 102.277 228.039,102.400 228.894,102.400 232.043 C 102.400 235.294,102.507 236.000,103.000 236.000 C 103.493 236.000,103.600 236.711,103.600 240.000 C 103.600 242.200,103.763 244.000,103.961 244.000 C 104.160 244.000,104.385 245.740,104.461 247.867 C 104.556 250.501,104.759 251.787,105.100 251.900 C 105.453 252.018,105.600 253.178,105.600 255.846 C 105.600 258.836,105.725 259.673,106.200 259.855 C 106.675 260.037,106.800 260.873,106.800 263.855 C 106.800 266.837,106.925 267.673,107.400 267.855 C 107.875 268.037,108.000 268.873,108.000 271.855 C 108.000 274.837,108.125 275.673,108.600 275.855 C 109.075 276.037,109.200 276.873,109.200 279.855 C 109.200 282.837,109.325 283.673,109.800 283.855 C 110.275 284.037,110.400 284.873,110.400 287.855 C 110.400 290.837,110.525 291.673,111.000 291.855 C 111.473 292.037,111.600 292.863,111.600 295.763 C 111.600 297.785,111.761 299.611,111.958 299.820 C 112.154 300.029,112.391 301.899,112.484 303.976 C 112.593 306.392,112.824 307.808,113.127 307.909 C 113.447 308.016,113.600 309.292,113.600 311.846 C 113.600 314.836,113.725 315.673,114.200 315.855 C 114.675 316.037,114.800 316.873,114.800 319.855 C 114.800 322.837,114.925 323.673,115.400 323.855 C 115.875 324.037,116.000 324.873,116.000 327.855 C 116.000 330.837,116.125 331.673,116.600 331.855 C 117.031 332.021,117.200 332.694,117.200 334.243 C 117.200 335.894,117.341 336.400,117.800 336.400 C 118.130 336.400,118.400 336.670,118.400 337.000 C 118.400 337.529,122.757 337.600,155.213 337.600 C 187.566 337.600,192.053 337.527,192.255 337.000 C 192.458 336.472,197.361 336.400,233.043 336.400 L 273.600 336.400 273.600 335.200 C 273.600 334.400,273.800 334.000,274.200 334.000 C 274.693 334.000,274.800 333.294,274.800 330.049 C 274.800 327.025,274.941 325.981,275.400 325.600 C 275.859 325.219,276.000 324.174,276.000 321.138 C 276.000 317.984,276.123 317.128,276.600 316.945 C 277.077 316.761,277.200 315.906,277.200 312.757 C 277.200 310.437,277.362 308.800,277.592 308.800 C 277.808 308.800,278.098 308.350,278.236 307.800 L 278.487 306.800 297.056 306.800 C 313.193 306.800,315.655 306.721,315.855 306.200 C 316.039 305.723,316.894 305.600,320.043 305.600 C 323.294 305.600,324.000 305.493,324.000 305.000 C 324.000 304.539,324.511 304.400,326.200 304.400 C 327.889 304.400,328.400 304.261,328.400 303.800 C 328.400 303.400,328.800 303.200,329.600 303.200 C 330.400 303.200,330.800 303.000,330.800 302.600 C 330.800 302.222,331.181 302.000,331.832 302.000 C 332.874 302.000,336.400 298.937,336.400 298.032 C 336.400 297.794,336.670 297.600,337.000 297.600 C 337.330 297.600,337.600 297.330,337.600 297.000 C 337.600 296.670,337.870 296.400,338.200 296.400 C 338.600 296.400,338.800 296.000,338.800 295.200 C 338.800 294.540,338.978 294.000,339.195 294.000 C 340.205 294.000,341.200 292.566,341.200 291.111 C 341.200 290.035,341.373 289.600,341.800 289.600 C 342.242 289.600,342.400 289.138,342.400 287.843 C 342.400 286.650,342.593 286.012,343.000 285.855 C 343.464 285.677,343.600 284.899,343.600 282.413 C 343.600 280.538,343.767 279.200,344.000 279.200 C 344.245 279.200,344.400 277.262,344.400 274.187 C 344.400 270.101,344.511 269.132,345.000 268.945 C 345.506 268.751,345.600 267.460,345.600 260.745 C 345.600 254.002,345.693 252.739,346.205 252.543 C 347.111 252.195,347.096 190.889,346.190 190.541 C 345.695 190.351,345.600 188.933,345.600 181.757 C 345.600 174.417,345.515 173.200,345.000 173.200 C 344.507 173.200,344.400 172.489,344.400 169.200 C 344.400 167.000,344.239 165.200,344.042 165.200 C 343.846 165.200,343.618 163.729,343.536 161.931 C 343.440 159.807,343.215 158.605,342.894 158.498 C 342.613 158.404,342.400 157.652,342.400 156.754 C 342.400 155.719,342.193 155.096,341.800 154.945 C 341.470 154.818,341.200 154.278,341.200 153.745 C 341.200 153.211,340.930 152.671,340.600 152.545 C 340.270 152.418,340.000 151.968,340.000 151.545 C 340.000 151.121,339.730 150.671,339.400 150.545 C 339.070 150.418,338.800 150.064,338.800 149.757 C 338.800 149.451,338.530 149.200,338.200 149.200 C 337.870 149.200,337.600 148.930,337.600 148.600 C 337.600 148.270,337.330 148.000,337.000 148.000 C 336.670 148.000,336.400 147.730,336.400 147.400 C 336.400 147.027,336.022 146.800,335.400 146.800 C 334.778 146.800,334.400 146.573,334.400 146.200 C 334.400 145.870,334.130 145.600,333.800 145.600 C 333.470 145.600,333.200 145.330,333.200 145.000 C 333.200 144.605,332.805 144.400,332.043 144.400 C 331.383 144.400,330.787 144.142,330.655 143.800 C 330.529 143.470,329.969 143.200,329.413 143.200 C 328.856 143.200,328.400 143.020,328.400 142.800 C 328.400 142.580,327.429 142.400,326.243 142.400 C 324.694 142.400,324.021 142.231,323.855 141.800 C 323.664 141.302,322.566 141.200,317.413 141.200 C 312.157 141.200,311.200 141.108,311.200 140.600 C 311.200 140.095,310.311 140.000,305.600 140.000 L 300.000 140.000 300.000 138.800 C 300.000 138.000,300.200 137.600,300.600 137.600 C 301.093 137.600,301.200 136.893,301.200 133.633 C 301.200 130.815,301.345 129.618,301.700 129.500 C 302.531 129.223,302.660 122.075,301.840 121.760 C 301.488 121.625,301.200 121.264,301.200 120.957 C 301.200 120.482,283.010 120.400,177.800 120.400 C 68.378 120.400,54.400 120.468,54.400 121.000 M294.800 128.580 C 294.800 129.339,294.618 130.824,294.397 131.880 C 294.175 132.936,293.818 135.330,293.604 137.200 C 293.390 139.070,292.948 142.580,292.620 145.000 C 291.724 151.629,290.805 158.644,290.394 162.000 C 290.192 163.650,289.851 166.170,289.638 167.600 C 289.424 169.030,288.975 172.270,288.640 174.800 C 287.296 184.970,286.734 189.120,286.362 191.600 C 286.149 193.030,285.808 195.550,285.606 197.200 C 285.168 200.779,284.233 207.894,283.386 214.100 C 283.048 216.575,282.684 219.320,282.578 220.200 C 282.279 222.673,281.228 230.563,280.606 235.000 C 280.298 237.200,279.757 241.250,279.404 244.000 C 279.051 246.750,278.585 250.170,278.368 251.600 C 278.151 253.030,277.808 255.550,277.606 257.200 C 277.212 260.416,276.335 267.088,275.371 274.200 C 275.043 276.620,274.608 280.040,274.405 281.800 C 274.202 283.560,273.858 286.170,273.642 287.600 C 273.426 289.030,272.971 292.270,272.633 294.800 C 271.493 303.317,270.846 308.175,270.210 313.000 C 269.863 315.640,269.410 318.880,269.204 320.200 C 268.998 321.520,268.712 323.860,268.569 325.400 C 268.425 326.940,268.054 328.605,267.744 329.100 L 267.182 330.000 233.291 330.034 C 214.651 330.053,182.480 330.202,161.800 330.365 C 141.120 330.528,124.004 330.515,123.765 330.336 C 123.526 330.157,123.113 328.433,122.846 326.505 C 122.580 324.577,122.101 321.528,121.781 319.728 C 121.461 317.929,121.200 315.964,121.200 315.363 C 121.200 314.761,120.938 312.723,120.617 310.835 C 120.297 308.946,119.752 305.330,119.406 302.800 C 119.061 300.270,118.596 297.120,118.373 295.800 C 118.151 294.480,117.802 292.050,117.599 290.400 C 117.396 288.750,116.965 285.600,116.642 283.400 C 115.114 273.006,114.743 270.387,114.400 267.600 C 114.197 265.950,113.849 263.520,113.627 262.200 C 113.404 260.880,112.937 257.730,112.590 255.200 C 112.242 252.670,111.767 249.430,111.533 248.000 C 111.299 246.570,110.955 244.140,110.768 242.600 C 110.580 241.060,110.159 238.000,109.832 235.800 C 108.519 226.974,106.974 216.107,106.419 211.800 C 106.221 210.260,105.873 207.830,105.645 206.400 C 105.175 203.448,104.753 200.532,102.198 182.600 C 101.853 180.180,101.401 177.120,101.194 175.800 C 100.986 174.480,100.716 172.500,100.594 171.400 C 100.472 170.300,100.207 168.410,100.006 167.200 C 99.804 165.990,99.350 162.840,98.996 160.200 C 98.642 157.560,98.105 153.780,97.804 151.800 C 95.539 136.951,96.511 139.211,91.338 136.771 C 89.040 135.687,87.089 134.800,87.003 134.800 C 86.846 134.800,82.239 132.678,76.931 130.161 C 75.353 129.412,73.868 128.800,73.631 128.800 C 73.394 128.800,73.200 128.648,73.200 128.461 C 73.200 128.275,72.795 127.927,72.300 127.688 C 71.650 127.375,102.487 127.247,183.100 127.227 L 294.800 127.200 294.800 128.580 M193.458 143.781 C 192.876 144.320,192.360 144.815,192.311 144.881 C 192.262 144.946,192.127 152.650,192.011 162.000 L 191.800 179.000 175.600 179.216 C 166.690 179.335,159.373 179.470,159.339 179.516 C 158.119 181.202,158.425 187.752,159.760 188.518 C 160.358 188.861,165.092 189.058,176.200 189.200 L 191.800 189.400 191.904 206.483 L 192.009 223.567 175.372 223.683 C 156.679 223.814,157.420 223.684,157.682 226.800 C 157.912 229.527,158.387 229.599,176.304 229.599 L 192.008 229.600 191.904 247.700 L 191.800 265.800 175.517 266.000 C 157.492 266.221,158.046 266.132,158.013 268.838 C 157.982 271.370,158.040 271.380,175.742 271.600 L 191.800 271.800 192.000 292.818 C 192.229 316.909,192.264 317.123,195.794 316.237 C 197.977 315.689,198.000 315.451,198.000 292.867 L 198.000 272.093 198.900 271.852 C 199.395 271.719,205.712 271.608,212.938 271.605 C 227.629 271.599,228.400 271.461,228.400 268.835 C 228.400 266.252,228.227 266.221,212.459 266.000 L 198.200 265.800 198.096 247.700 L 197.992 229.600 211.734 229.600 C 227.969 229.600,229.173 229.331,228.508 225.852 C 228.103 223.732,227.124 223.600,211.809 223.600 L 197.991 223.600 198.096 206.500 L 198.200 189.400 212.800 189.185 C 230.868 188.920,229.535 189.338,229.705 183.884 C 229.854 179.087,231.079 179.436,213.286 179.200 L 198.200 179.000 197.985 161.600 C 197.867 152.030,197.732 144.146,197.685 144.080 C 197.586 143.940,194.901 142.800,194.671 142.800 C 194.586 142.800,194.041 143.241,193.458 143.781 M314.945 148.600 C 315.124 149.068,315.919 149.200,318.554 149.200 C 320.705 149.200,321.988 149.364,322.084 149.651 C 322.166 149.899,323.171 150.192,324.317 150.302 C 325.463 150.412,326.400 150.659,326.400 150.851 C 326.400 151.043,326.850 151.200,327.400 151.200 C 328.022 151.200,328.400 151.427,328.400 151.800 C 328.400 152.130,328.670 152.400,329.000 152.400 C 329.330 152.400,329.600 152.670,329.600 153.000 C 329.600 153.330,329.870 153.600,330.200 153.600 C 330.530 153.600,330.800 153.870,330.800 154.200 C 330.800 154.530,331.070 154.800,331.400 154.800 C 331.730 154.800,332.000 155.070,332.000 155.400 C 332.000 155.730,332.270 156.000,332.600 156.000 C 332.930 156.000,333.200 156.270,333.200 156.600 C 333.200 156.930,333.470 157.200,333.800 157.200 C 334.233 157.200,334.400 157.644,334.400 158.800 C 334.400 159.956,334.567 160.400,335.000 160.400 C 335.467 160.400,335.600 160.933,335.600 162.800 C 335.600 164.120,335.764 165.200,335.964 165.200 C 336.164 165.200,336.389 167.097,336.464 169.415 C 336.553 172.163,336.769 173.735,337.087 173.931 C 337.440 174.148,337.585 176.386,337.617 182.080 C 337.650 188.118,337.788 190.099,338.217 190.664 C 339.061 191.778,339.074 251.809,338.231 252.133 C 337.768 252.310,337.653 253.792,337.617 260.060 C 337.585 265.641,337.439 267.852,337.086 268.069 C 336.755 268.274,336.559 270.065,336.471 273.685 C 336.400 276.608,336.175 279.171,335.971 279.380 C 335.767 279.589,335.600 280.714,335.600 281.880 C 335.600 283.498,335.458 284.000,335.000 284.000 C 334.567 284.000,334.400 284.444,334.400 285.600 C 334.400 286.756,334.233 287.200,333.800 287.200 C 333.400 287.200,333.200 287.600,333.200 288.400 C 333.200 289.200,333.000 289.600,332.600 289.600 C 332.200 289.600,332.000 290.000,332.000 290.800 C 332.000 291.600,331.800 292.000,331.400 292.000 C 331.070 292.000,330.800 292.270,330.800 292.600 C 330.800 292.930,330.530 293.200,330.200 293.200 C 329.870 293.200,329.600 293.377,329.600 293.592 C 329.600 293.808,329.150 294.098,328.600 294.236 C 328.050 294.374,327.600 294.647,327.600 294.843 C 327.600 295.040,327.144 295.200,326.587 295.200 C 326.031 295.200,325.471 295.470,325.345 295.800 C 325.194 296.192,324.571 296.400,323.545 296.400 C 322.518 296.400,321.895 296.608,321.745 297.000 C 321.564 297.471,320.749 297.600,317.945 297.600 C 315.141 297.600,314.326 297.729,314.145 298.200 C 313.763 299.195,279.613 299.096,279.570 298.100 C 279.455 295.456,279.717 291.778,280.027 291.667 C 280.232 291.593,280.400 289.568,280.400 287.167 C 280.400 283.552,280.503 282.800,281.000 282.800 C 281.493 282.800,281.600 282.094,281.600 278.843 C 281.600 275.694,281.723 274.839,282.200 274.655 C 282.683 274.470,282.800 273.566,282.800 270.013 C 282.800 266.357,282.903 265.600,283.400 265.600 C 283.892 265.600,284.000 264.908,284.000 261.771 C 284.000 258.902,284.150 257.793,284.600 257.343 C 285.056 256.887,285.200 255.751,285.200 252.614 C 285.200 249.313,285.320 248.439,285.800 248.255 C 286.275 248.073,286.400 247.236,286.400 244.246 C 286.400 241.614,286.549 240.417,286.891 240.303 C 287.228 240.191,287.431 238.731,287.536 235.670 C 287.620 233.211,287.849 231.200,288.044 231.200 C 288.240 231.200,288.400 229.400,288.400 227.200 C 288.400 223.911,288.507 223.200,289.000 223.200 C 289.493 223.200,289.600 222.494,289.600 219.249 C 289.600 216.225,289.741 215.181,290.200 214.800 C 290.663 214.416,290.800 213.353,290.800 210.151 C 290.800 206.728,290.905 206.000,291.400 206.000 C 291.891 206.000,292.002 205.294,292.013 202.100 C 292.022 199.306,292.192 197.980,292.613 197.424 C 293.030 196.872,293.200 195.584,293.200 192.973 C 293.200 190.194,293.346 189.176,293.800 188.800 C 294.250 188.427,294.400 187.425,294.400 184.797 C 294.400 182.594,294.605 180.895,294.953 180.225 C 295.282 179.591,295.530 177.750,295.564 175.680 C 295.596 173.766,295.797 172.140,296.011 172.067 C 296.228 171.992,296.400 170.166,296.400 167.938 C 296.400 164.920,296.547 163.796,297.000 163.343 C 297.453 162.890,297.600 161.768,297.600 158.771 C 297.600 155.508,297.707 154.800,298.200 154.800 C 298.686 154.800,298.800 154.156,298.800 151.400 L 298.800 148.000 306.757 148.000 C 313.461 148.000,314.751 148.094,314.945 148.600 M105.745 347.400 C 105.618 347.730,105.264 348.000,104.957 348.000 C 104.651 348.000,104.400 348.270,104.400 348.600 C 104.400 348.930,104.220 349.200,104.000 349.200 C 103.736 349.200,103.600 364.867,103.600 395.400 L 103.600 441.600 93.200 441.600 L 82.800 441.600 82.800 442.800 C 82.800 443.600,82.600 444.000,82.200 444.000 C 81.724 444.000,81.600 444.574,81.600 446.767 C 81.600 448.620,81.435 449.588,81.102 449.699 C 80.750 449.817,80.562 451.326,80.465 454.833 C 80.389 457.565,80.163 459.971,79.963 460.180 C 79.763 460.389,79.600 462.690,79.600 465.293 C 79.600 469.130,79.487 470.069,79.000 470.255 C 78.512 470.443,78.400 471.401,78.400 475.400 C 78.400 479.399,78.288 480.357,77.800 480.545 C 77.312 480.732,77.200 481.682,77.200 485.616 C 77.200 489.386,77.067 490.590,76.600 491.057 C 76.132 491.525,76.000 492.737,76.000 496.580 C 76.000 500.467,75.874 501.607,75.400 502.000 C 74.926 502.393,74.800 503.531,74.800 507.406 C 74.800 511.400,74.688 512.357,74.200 512.545 C 73.711 512.732,73.600 513.697,73.600 517.754 C 73.600 521.382,73.464 522.778,73.100 522.899 C 72.745 523.017,72.562 524.532,72.467 528.133 C 72.394 530.920,72.169 533.200,71.967 533.200 C 71.764 533.200,71.600 535.413,71.600 538.157 C 71.600 542.149,71.486 543.158,71.012 543.340 C 70.546 543.519,70.401 544.624,70.312 548.683 C 70.234 552.254,70.062 553.774,69.742 553.714 C 69.421 553.654,69.267 555.141,69.223 558.709 C 69.175 562.688,69.036 563.860,68.581 564.115 C 68.119 564.373,68.000 565.510,68.000 569.643 C 68.000 572.605,67.846 574.752,67.642 574.626 C 66.999 574.229,66.800 575.589,66.800 580.384 C 66.800 584.090,66.671 585.209,66.200 585.600 C 65.728 585.992,65.600 587.117,65.600 590.878 C 65.600 594.444,65.458 595.799,65.039 596.218 C 64.631 596.626,64.465 598.006,64.430 601.289 C 64.402 603.820,64.210 605.859,63.991 605.933 C 63.764 606.011,63.600 608.230,63.600 611.233 C 63.600 615.559,63.502 616.400,63.000 616.400 C 62.497 616.400,62.400 617.244,62.400 621.600 C 62.400 625.956,62.303 626.800,61.800 626.800 C 61.339 626.800,61.200 627.311,61.200 629.000 C 61.200 630.689,61.339 631.200,61.800 631.200 C 62.200 631.200,62.400 631.600,62.400 632.400 L 62.400 633.600 77.200 633.600 L 92.000 633.600 92.000 634.600 C 92.000 635.222,92.227 635.600,92.600 635.600 C 92.930 635.600,93.200 635.870,93.200 636.200 C 93.200 636.530,93.470 636.800,93.800 636.800 C 94.130 636.800,94.400 637.070,94.400 637.400 C 94.400 637.730,94.670 638.000,95.000 638.000 C 95.330 638.000,95.600 638.270,95.600 638.600 C 95.600 638.930,95.780 639.200,96.000 639.200 C 96.220 639.200,96.400 639.532,96.400 639.939 C 96.400 640.774,97.899 642.653,98.444 642.500 C 98.640 642.445,98.800 642.670,98.800 643.000 C 98.800 643.330,99.070 643.600,99.400 643.600 C 99.730 643.600,100.000 643.870,100.000 644.200 C 100.000 644.600,100.400 644.800,101.200 644.800 C 102.000 644.800,102.400 645.000,102.400 645.400 C 102.400 645.872,102.957 646.000,105.013 646.000 C 106.966 646.000,107.683 645.849,107.855 645.400 C 107.987 645.058,108.583 644.800,109.243 644.800 C 110.005 644.800,110.400 644.595,110.400 644.200 C 110.400 643.870,110.593 643.600,110.829 643.600 C 111.382 643.600,112.400 642.582,112.400 642.029 C 112.400 641.793,112.670 641.600,113.000 641.600 C 113.330 641.600,113.600 641.330,113.600 641.000 C 113.600 640.670,113.870 640.400,114.200 640.400 C 114.530 640.400,114.800 640.130,114.800 639.800 C 114.800 639.470,115.070 639.200,115.400 639.200 C 115.730 639.200,116.000 638.930,116.000 638.600 C 116.000 638.270,116.270 638.000,116.600 638.000 C 116.930 638.000,117.200 637.730,117.200 637.400 C 117.200 637.070,117.470 636.800,117.800 636.800 C 118.130 636.800,118.400 636.530,118.400 636.200 C 118.400 635.870,118.560 635.600,118.757 635.600 C 118.953 635.600,119.226 635.150,119.364 634.600 L 119.615 633.600 196.008 633.600 L 272.400 633.600 272.400 634.413 C 272.400 634.859,272.670 635.329,273.000 635.455 C 273.330 635.582,273.600 635.936,273.600 636.243 C 273.600 636.549,273.870 636.800,274.200 636.800 C 274.530 636.800,274.800 637.070,274.800 637.400 C 274.800 637.730,275.070 638.000,275.400 638.000 C 275.775 638.000,276.000 638.379,276.000 639.013 C 276.000 639.569,276.270 640.129,276.600 640.255 C 276.930 640.382,277.200 640.736,277.200 641.043 C 277.200 641.349,277.470 641.600,277.800 641.600 C 278.130 641.600,278.400 641.870,278.400 642.200 C 278.400 642.530,278.594 642.800,278.831 642.800 C 279.068 642.800,279.934 643.520,280.755 644.400 C 281.975 645.708,282.516 646.000,283.723 646.000 C 284.769 646.000,285.200 646.175,285.200 646.600 C 285.200 646.975,285.579 647.200,286.213 647.200 C 286.769 647.200,287.329 646.930,287.455 646.600 C 287.605 646.209,288.228 646.000,289.243 646.000 C 290.360 646.000,290.800 645.831,290.800 645.400 C 290.800 645.070,291.070 644.800,291.400 644.800 C 291.730 644.800,292.000 644.530,292.000 644.200 C 292.000 643.870,292.194 643.600,292.432 643.600 C 292.994 643.600,296.400 640.194,296.400 639.632 C 296.400 639.394,296.670 639.200,297.000 639.200 C 297.330 639.200,297.600 638.930,297.600 638.600 C 297.600 638.270,297.870 638.000,298.200 638.000 C 298.530 638.000,298.800 637.730,298.800 637.400 C 298.800 637.070,299.070 636.800,299.400 636.800 C 299.730 636.800,300.000 636.530,300.000 636.200 C 300.000 635.870,300.270 635.600,300.600 635.600 C 300.973 635.600,301.200 635.222,301.200 634.600 L 301.200 633.600 314.111 633.600 C 329.563 633.600,328.400 634.040,328.400 628.195 C 328.400 625.932,328.239 624.400,328.000 624.400 C 327.758 624.400,327.599 622.698,327.598 620.100 C 327.596 617.068,327.419 615.462,326.998 614.654 C 326.575 613.845,326.400 612.244,326.400 609.203 C 326.400 605.864,326.265 604.786,325.800 604.400 C 325.329 604.009,325.200 602.889,325.200 599.180 C 325.200 595.515,325.066 594.323,324.600 593.857 C 324.139 593.397,324.000 592.235,324.000 588.857 C 324.000 585.479,323.861 584.318,323.400 583.857 C 322.939 583.396,322.800 582.230,322.800 578.816 C 322.800 575.237,322.683 574.330,322.200 574.145 C 321.711 573.957,321.600 572.995,321.600 568.957 C 321.600 564.817,321.501 564.000,321.000 564.000 C 320.497 564.000,320.400 563.156,320.400 558.800 C 320.400 555.940,320.239 553.600,320.041 553.600 C 319.844 553.600,319.619 551.320,319.541 548.533 C 319.441 544.940,319.255 543.418,318.900 543.300 C 318.539 543.180,318.400 541.870,318.400 538.595 C 318.400 535.219,318.255 533.912,317.835 533.492 C 317.426 533.083,317.233 531.564,317.135 527.996 C 317.039 524.507,316.854 523.017,316.500 522.899 C 316.139 522.779,316.000 521.465,316.000 518.167 C 316.000 514.374,315.898 513.600,315.400 513.600 C 314.897 513.600,314.800 512.756,314.800 508.400 C 314.800 504.044,314.703 503.200,314.200 503.200 C 313.699 503.200,313.600 502.378,313.600 498.200 C 313.600 494.022,313.501 493.200,313.000 493.200 C 312.498 493.200,312.400 492.359,312.400 488.033 C 312.400 485.192,312.238 482.807,312.041 482.733 C 311.844 482.660,311.610 480.383,311.521 477.673 C 311.419 474.555,311.191 472.642,310.900 472.462 C 310.605 472.279,310.417 470.568,310.374 467.671 C 310.326 464.440,310.150 463.007,309.753 462.610 C 309.350 462.207,309.200 460.877,309.200 457.705 C 309.200 454.498,309.046 453.149,308.613 452.576 C 308.192 452.020,308.022 450.694,308.013 447.900 C 308.002 444.706,307.891 444.000,307.400 444.000 C 307.070 444.000,306.800 443.730,306.800 443.400 C 306.800 443.000,306.400 442.800,305.600 442.800 C 304.800 442.800,304.400 442.600,304.400 442.200 C 304.400 441.683,303.067 441.600,294.800 441.600 L 285.200 441.600 285.200 395.400 C 285.200 354.600,285.130 349.200,284.600 349.200 C 284.270 349.200,284.000 348.930,284.000 348.600 C 284.000 348.270,283.730 348.000,283.400 348.000 C 283.070 348.000,282.800 347.730,282.800 347.400 C 282.800 346.486,106.095 346.486,105.745 347.400 M295.747 534.836 C 295.886 535.531,295.999 537.923,295.997 540.150 C 295.996 542.377,296.213 547.317,296.479 551.126 C 296.898 557.115,296.885 558.102,296.382 558.420 C 295.732 558.831,118.396 558.949,116.866 558.539 C 115.698 558.226,116.478 557.615,118.058 557.606 C 121.381 557.587,122.510 554.267,122.332 545.038 C 122.138 535.016,121.562 534.400,112.378 534.400 C 103.225 534.400,102.800 534.928,102.800 546.300 L 102.800 553.880 103.978 555.506 C 105.164 557.143,105.442 557.303,108.000 557.827 C 110.493 558.337,108.218 558.741,102.687 558.772 C 96.677 558.805,96.856 558.955,97.539 554.451 C 97.793 552.773,98.177 549.330,98.391 546.800 C 98.867 541.167,99.575 534.764,99.791 534.131 C 99.913 533.773,123.301 533.651,197.723 533.617 L 295.495 533.573 295.747 534.836 " stroke="none" fill="#c6d0f5" fill-rule="evenodd"></path></g></svg>