<svg id="svg" version="1.1" xmlns="http://www.w3.org/2000/svg" xmlns:xlink="http://www.w3.org/1999/xlink" width="400" height="400" viewBox="0, 0, 400,400"><g id="svgg"><path id="path0" d="M0.000 200.000 L 0.000 400.000 200.000 400.000 L 400.000 400.000 400.000 200.000 L 400.000 0.000 200.000 0.000 L 0.000 0.000 0.000 200.000 M218.750 41.016 L 218.750 54.688 259.766 54.688 L 300.781 54.688 300.781 82.031 L 300.781 109.375 314.453 109.375 L 328.125 109.375 328.125 150.391 L 328.125 191.406 314.453 191.406 L 300.781 191.406 300.781 205.078 L 300.781 218.750 314.453 218.750 L 328.125 218.750 328.125 300.781 L 328.125 382.813 232.422 382.813 L 136.719 382.813 136.719 341.797 L 136.719 300.781 123.047 300.781 L 109.375 300.781 109.375 259.766 L 109.375 218.750 136.719 218.750 L 164.063 218.750 164.063 205.078 L 164.063 191.406 150.391 191.406 L 136.719 191.406 136.719 177.734 L 136.719 164.063 123.047 164.063 L 109.375 164.063 109.375 136.719 L 109.375 109.375 123.047 109.375 L 136.719 109.375 136.719 82.031 L 136.719 54.688 164.063 54.688 L 191.406 54.688 191.406 41.016 L 191.406 27.344 205.078 27.344 L 218.750 27.344 218.750 41.016 M218.750 232.422 L 218.750 246.094 246.094 246.094 L 273.438 246.094 273.438 232.422 L 273.438 218.750 246.094 218.750 L 218.750 218.750 218.750 232.422 M191.406 300.781 L 191.406 328.125 205.078 328.125 L 218.750 328.125 218.750 300.781 L 218.750 273.438 205.078 273.438 L 191.406 273.438 191.406 300.781 M246.094 314.453 L 246.094 328.125 259.766 328.125 L 273.438 328.125 273.438 341.797 L 273.438 355.469 287.109 355.469 L 300.781 355.469 300.781 341.797 L 300.781 328.125 287.109 328.125 L 273.438 328.125 273.438 314.453 L 273.438 300.781 259.766 300.781 L 246.094 300.781 246.094 314.453 " stroke="none" fill="#beae9a" fill-rule="evenodd"></path><path id="path1" d="M191.406 41.016 L 191.406 54.688 177.734 54.688 L 164.063 54.688 164.063 68.359 L 164.063 82.031 150.391 82.031 L 136.719 82.031 136.719 95.703 L 136.719 109.375 150.391 109.375 L 164.063 109.375 164.063 136.719 L 164.063 164.063 150.391 164.063 L 136.719 164.063 136.719 177.734 L 136.719 191.406 150.391 191.406 L 164.063 191.406 164.063 205.078 L 164.063 218.750 191.406 218.750 L 218.750 218.750 218.750 205.078 L 218.750 191.406 205.078 191.406 L 191.406 191.406 191.406 150.391 L 191.406 109.375 218.750 109.375 L 246.094 109.375 246.094 82.031 L 246.094 54.688 232.422 54.688 L 218.750 54.688 218.750 41.016 L 218.750 27.344 205.078 27.344 L 191.406 27.344 191.406 41.016 M273.438 82.031 L 273.438 109.375 287.109 109.375 L 300.781 109.375 300.781 136.719 L 300.781 164.063 314.453 164.063 L 328.125 164.063 328.125 136.719 L 328.125 109.375 314.453 109.375 L 300.781 109.375 300.781 82.031 L 300.781 54.688 287.109 54.688 L 273.438 54.688 273.438 82.031 M109.375 246.094 L 109.375 273.438 123.047 273.438 L 136.719 273.438 136.719 287.109 L 136.719 300.781 164.063 300.781 L 191.406 300.781 191.406 273.438 L 191.406 246.094 164.063 246.094 L 136.719 246.094 136.719 232.422 L 136.719 218.750 123.047 218.750 L 109.375 218.750 109.375 246.094 M300.781 246.094 L 300.781 273.438 314.453 273.438 L 328.125 273.438 328.125 246.094 L 328.125 218.750 314.453 218.750 L 300.781 218.750 300.781 246.094 M300.781 314.453 L 300.781 328.125 314.453 328.125 L 328.125 328.125 328.125 314.453 L 328.125 300.781 314.453 300.781 L 300.781 300.781 300.781 314.453 M191.406 341.797 L 191.406 355.469 205.078 355.469 L 218.750 355.469 218.750 369.141 L 218.750 382.813 232.422 382.813 L 246.094 382.813 246.094 369.141 L 246.094 355.469 259.766 355.469 L 273.438 355.469 273.438 341.797 L 273.438 328.125 232.422 328.125 L 191.406 328.125 191.406 341.797 M136.719 369.141 L 136.719 382.813 150.391 382.813 L 164.063 382.813 164.063 369.141 L 164.063 355.469 150.391 355.469 L 136.719 355.469 136.719 369.141 M300.781 369.141 L 300.781 382.813 314.453 382.813 L 328.125 382.813 328.125 369.141 L 328.125 355.469 314.453 355.469 L 300.781 355.469 300.781 369.141 " stroke="none" fill="#191929" fill-rule="evenodd"></path><path id="path2" d="M109.375 123.047 L 109.375 136.719 136.719 136.719 L 164.063 136.719 164.063 123.047 L 164.063 109.375 136.719 109.375 L 109.375 109.375 109.375 123.047 M191.406 123.047 L 191.406 136.719 205.078 136.719 L 218.750 136.719 218.750 164.063 L 218.750 191.406 259.766 191.406 L 300.781 191.406 300.781 150.391 L 300.781 109.375 246.094 109.375 L 191.406 109.375 191.406 123.047 M136.719 232.422 L 136.719 246.094 164.063 246.094 L 191.406 246.094 191.406 259.766 L 191.406 273.438 205.078 273.438 L 218.750 273.438 218.750 300.781 L 218.750 328.125 232.422 328.125 L 246.094 328.125 246.094 314.453 L 246.094 300.781 259.766 300.781 L 273.438 300.781 273.438 314.453 L 273.438 328.125 287.109 328.125 L 300.781 328.125 300.781 300.781 L 300.781 273.438 287.109 273.438 L 273.438 273.438 273.438 259.766 L 273.438 246.094 287.109 246.094 L 300.781 246.094 300.781 232.422 L 300.781 218.750 287.109 218.750 L 273.438 218.750 273.438 232.422 L 273.438 246.094 246.094 246.094 L 218.750 246.094 218.750 232.422 L 218.750 218.750 177.734 218.750 L 136.719 218.750 136.719 232.422 M164.063 341.797 L 164.063 355.469 177.734 355.469 L 191.406 355.469 191.406 369.141 L 191.406 382.813 205.078 382.813 L 218.750 382.813 218.750 369.141 L 218.750 355.469 205.078 355.469 L 191.406 355.469 191.406 341.797 L 191.406 328.125 177.734 328.125 L 164.063 328.125 164.063 341.797 M273.438 369.141 L 273.438 382.813 287.109 382.813 L 300.781 382.813 300.781 369.141 L 300.781 355.469 287.109 355.469 L 273.438 355.469 273.438 369.141 " stroke="none" fill="#efddc1" fill-rule="evenodd"></path><path id="path3" d="M136.719 68.359 L 136.719 82.031 150.391 82.031 L 164.063 82.031 164.063 68.359 L 164.063 54.688 150.391 54.688 L 136.719 54.688 136.719 68.359 M300.781 177.734 L 300.781 191.406 314.453 191.406 L 328.125 191.406 328.125 177.734 L 328.125 164.063 314.453 164.063 L 300.781 164.063 300.781 177.734 M273.438 259.766 L 273.438 273.438 287.109 273.438 L 300.781 273.438 300.781 287.109 L 300.781 300.781 314.453 300.781 L 328.125 300.781 328.125 287.109 L 328.125 273.438 314.453 273.438 L 300.781 273.438 300.781 259.766 L 300.781 246.094 287.109 246.094 L 273.438 246.094 273.438 259.766 M164.063 314.453 L 164.063 328.125 177.734 328.125 L 191.406 328.125 191.406 314.453 L 191.406 300.781 177.734 300.781 L 164.063 300.781 164.063 314.453 " stroke="none" fill="#5e2929" fill-rule="evenodd"></path><path id="path4" d="M246.094 82.031 L 246.094 109.375 259.766 109.375 L 273.438 109.375 273.438 82.031 L 273.438 54.688 259.766 54.688 L 246.094 54.688 246.094 82.031 M109.375 150.391 L 109.375 164.063 136.719 164.063 L 164.063 164.063 164.063 150.391 L 164.063 136.719 136.719 136.719 L 109.375 136.719 109.375 150.391 M191.406 164.063 L 191.406 191.406 205.078 191.406 L 218.750 191.406 218.750 205.078 L 218.750 218.750 259.766 218.750 L 300.781 218.750 300.781 205.078 L 300.781 191.406 259.766 191.406 L 218.750 191.406 218.750 164.063 L 218.750 136.719 205.078 136.719 L 191.406 136.719 191.406 164.063 M109.375 287.109 L 109.375 300.781 123.047 300.781 L 136.719 300.781 136.719 328.125 L 136.719 355.469 150.391 355.469 L 164.063 355.469 164.063 369.141 L 164.063 382.813 177.734 382.813 L 191.406 382.813 191.406 369.141 L 191.406 355.469 177.734 355.469 L 164.063 355.469 164.063 328.125 L 164.063 300.781 150.391 300.781 L 136.719 300.781 136.719 287.109 L 136.719 273.438 123.047 273.438 L 109.375 273.438 109.375 287.109 M300.781 341.797 L 300.781 355.469 314.453 355.469 L 328.125 355.469 328.125 341.797 L 328.125 328.125 314.453 328.125 L 300.781 328.125 300.781 341.797 M246.094 369.141 L 246.094 382.813 259.766 382.813 L 273.438 382.813 273.438 369.141 L 273.438 355.469 259.766 355.469 L 246.094 355.469 246.094 369.141 " stroke="none" fill="#ae6956" fill-rule="evenodd"></path></g></svg>