<svg id="svg" version="1.1" xmlns="http://www.w3.org/2000/svg" xmlns:xlink="http://www.w3.org/1999/xlink" width="400" height="400" viewBox="0, 0, 400,400"><g id="svgg"><path id="path0" d="M80.800 103.200 C 80.800 103.733,80.533 104.000,80.000 104.000 C 79.202 104.000,79.200 104.267,79.200 200.000 C 79.200 295.733,79.202 296.000,80.000 296.000 C 80.533 296.000,80.800 296.267,80.800 296.800 C 80.800 297.598,81.067 297.600,200.000 297.600 C 318.933 297.600,319.200 297.598,319.200 296.800 C 319.200 296.267,319.467 296.000,320.000 296.000 C 320.798 296.000,320.800 295.733,320.800 200.000 C 320.800 104.267,320.798 104.000,320.000 104.000 C 319.467 104.000,319.200 103.733,319.200 103.200 C 319.200 102.402,318.933 102.400,200.000 102.400 C 81.067 102.400,80.800 102.402,80.800 103.200 M104.710 111.136 C 105.098 111.382,105.193 113.161,105.110 118.629 L 105.000 125.800 96.400 125.800 L 87.800 125.800 87.690 118.814 C 87.630 114.972,87.669 111.597,87.778 111.314 C 88.004 110.725,103.800 110.559,104.710 111.136 M312.200 118.400 L 312.200 125.800 212.300 125.901 L 112.400 126.002 112.400 118.667 C 112.400 114.634,112.520 111.213,112.667 111.066 C 112.815 110.919,157.770 110.844,212.567 110.899 L 312.200 111.000 312.200 118.400 M312.202 134.100 C 312.321 134.595,312.370 169.650,312.309 212.000 L 312.200 289.000 200.000 289.000 L 87.800 289.000 87.691 212.000 C 87.630 169.650,87.679 134.595,87.798 134.100 L 88.015 133.200 200.000 133.200 L 311.985 133.200 312.202 134.100 M208.880 160.263 C 208.037 160.615,206.478 163.372,206.175 165.048 C 206.021 165.902,205.715 166.948,205.494 167.373 C 205.274 167.798,204.866 169.058,204.588 170.173 C 204.309 171.288,203.899 172.740,203.677 173.400 C 203.454 174.060,202.904 175.860,202.455 177.400 C 199.774 186.584,198.415 191.142,197.923 192.600 C 197.701 193.260,197.276 194.700,196.979 195.800 C 196.683 196.900,195.972 199.330,195.400 201.200 C 194.828 203.070,194.117 205.500,193.821 206.600 C 193.524 207.700,193.092 209.140,192.861 209.800 C 192.456 210.954,191.931 212.705,190.044 219.200 C 189.565 220.850,188.820 223.370,188.390 224.800 C 187.960 226.230,187.237 228.660,186.784 230.200 C 186.331 231.740,185.775 233.540,185.548 234.200 C 185.321 234.860,184.892 236.300,184.594 237.400 C 184.296 238.500,183.660 240.660,183.181 242.200 C 181.341 248.110,182.020 250.800,185.352 250.800 C 187.769 250.800,187.676 250.993,191.702 237.600 C 192.132 236.170,192.655 234.460,192.866 233.800 C 193.244 232.613,194.314 228.872,195.383 225.000 C 195.687 223.900,196.123 222.460,196.353 221.800 C 196.582 221.140,197.157 219.250,197.630 217.600 C 198.104 215.950,198.830 213.639,199.245 212.464 C 199.660 211.290,200.000 209.967,200.000 209.525 C 200.000 209.083,200.258 208.154,200.574 207.460 C 200.889 206.767,201.438 205.120,201.794 203.800 C 203.131 198.835,203.568 197.356,204.158 195.800 C 204.492 194.920,204.773 193.891,204.782 193.514 C 204.792 193.136,205.049 192.236,205.354 191.514 C 205.659 190.791,206.122 189.390,206.385 188.400 C 207.145 185.530,208.297 181.503,208.730 180.200 C 209.100 179.084,209.573 177.514,211.563 170.800 C 213.950 162.745,213.943 162.833,212.293 161.293 C 211.334 160.397,209.724 159.912,208.880 160.263 M226.410 171.190 C 223.851 173.749,224.272 174.318,241.058 190.968 C 254.696 204.496,255.618 205.499,255.261 206.417 C 255.051 206.958,248.505 213.705,240.714 221.412 C 232.924 229.118,226.217 235.986,225.811 236.674 C 224.533 238.837,226.148 241.600,228.689 241.600 C 230.669 241.600,264.400 207.982,264.400 206.008 C 264.400 203.970,230.736 170.389,228.700 170.395 C 227.745 170.398,226.913 170.687,226.410 171.190 M147.964 188.031 C 134.151 201.898,130.800 205.466,130.800 206.304 C 130.800 208.363,164.727 241.782,166.817 241.782 C 169.293 241.782,170.665 239.472,169.553 237.176 C 169.249 236.547,162.475 229.472,154.500 221.453 C 146.030 212.936,140.000 206.568,140.000 206.141 C 140.000 205.710,145.967 199.485,154.508 191.005 C 170.775 174.854,171.012 174.545,169.173 171.962 C 166.987 168.892,167.161 168.760,147.964 188.031 " stroke="none" fill="#04fb04" fill-rule="evenodd"></path><path id="path1" d="M87.778 111.314 C 87.669 111.597,87.630 114.972,87.690 118.814 L 87.800 125.800 96.400 125.800 L 105.000 125.800 105.110 118.629 C 105.193 113.161,105.098 111.382,104.710 111.136 C 103.800 110.559,88.004 110.725,87.778 111.314 M112.667 111.066 C 112.520 111.213,112.400 114.634,112.400 118.667 L 112.400 126.002 212.300 125.901 L 312.200 125.800 312.200 118.400 L 312.200 111.000 212.567 110.899 C 157.770 110.844,112.815 110.919,112.667 111.066 M87.798 134.100 C 87.679 134.595,87.630 169.650,87.691 212.000 L 87.800 289.000 200.000 289.000 L 312.200 289.000 312.309 212.000 C 312.370 169.650,312.321 134.595,312.202 134.100 L 311.985 133.200 200.000 133.200 L 88.015 133.200 87.798 134.100 M212.293 161.293 C 213.943 162.833,213.950 162.745,211.563 170.800 C 209.573 177.514,209.100 179.084,208.730 180.200 C 208.297 181.503,207.145 185.530,206.385 188.400 C 206.122 189.390,205.659 190.791,205.354 191.514 C 205.049 192.236,204.792 193.136,204.782 193.514 C 204.773 193.891,204.492 194.920,204.158 195.800 C 203.568 197.356,203.131 198.835,201.794 203.800 C 201.438 205.120,200.889 206.767,200.574 207.460 C 200.258 208.154,200.000 209.083,200.000 209.525 C 200.000 209.967,199.660 211.290,199.245 212.464 C 198.830 213.639,198.104 215.950,197.630 217.600 C 197.157 219.250,196.582 221.140,196.353 221.800 C 196.123 222.460,195.687 223.900,195.383 225.000 C 194.314 228.872,193.244 232.613,192.866 233.800 C 192.655 234.460,192.132 236.170,191.702 237.600 C 187.676 250.993,187.769 250.800,185.352 250.800 C 182.020 250.800,181.341 248.110,183.181 242.200 C 183.660 240.660,184.296 238.500,184.594 237.400 C 184.892 236.300,185.321 234.860,185.548 234.200 C 185.775 233.540,186.331 231.740,186.784 230.200 C 187.237 228.660,187.960 226.230,188.390 224.800 C 188.820 223.370,189.565 220.850,190.044 219.200 C 191.931 212.705,192.456 210.954,192.861 209.800 C 193.092 209.140,193.524 207.700,193.821 206.600 C 194.117 205.500,194.828 203.070,195.400 201.200 C 195.972 199.330,196.683 196.900,196.979 195.800 C 197.276 194.700,197.701 193.260,197.923 192.600 C 198.415 191.142,199.774 186.584,202.455 177.400 C 202.904 175.860,203.454 174.060,203.677 173.400 C 203.899 172.740,204.309 171.288,204.588 170.173 C 204.866 169.058,205.274 167.798,205.494 167.373 C 205.715 166.948,206.021 165.902,206.175 165.048 C 206.962 160.698,209.793 158.960,212.293 161.293 M247.300 187.622 C 261.897 202.332,264.400 205.023,264.400 206.008 C 264.400 207.982,230.669 241.600,228.689 241.600 C 226.148 241.600,224.533 238.837,225.811 236.674 C 226.217 235.986,232.924 229.118,240.714 221.412 C 248.505 213.705,255.051 206.958,255.261 206.417 C 255.618 205.499,254.696 204.496,241.058 190.968 C 224.272 174.318,223.851 173.749,226.410 171.190 C 228.733 168.867,228.530 168.707,247.300 187.622 M169.173 171.962 C 171.012 174.545,170.775 174.854,154.508 191.005 C 145.967 199.485,140.000 205.710,140.000 206.141 C 140.000 206.568,146.030 212.936,154.500 221.453 C 162.475 229.472,169.249 236.547,169.553 237.176 C 170.665 239.472,169.293 241.782,166.817 241.782 C 164.727 241.782,130.800 208.363,130.800 206.304 C 130.800 204.286,164.695 170.800,166.737 170.800 C 168.056 170.800,168.494 171.009,169.173 171.962 " stroke="none" fill="#040404" fill-rule="evenodd"></path></g></svg>