<svg id="svg" version="1.1" xmlns="http://www.w3.org/2000/svg" xmlns:xlink="http://www.w3.org/1999/xlink" width="400" height="400" viewBox="0, 0, 400,400"><g id="svgg"><path id="path0" d="M80.800 103.200 C 80.800 103.733,80.533 104.000,80.000 104.000 C 79.202 104.000,79.200 104.267,79.200 200.000 C 79.200 295.733,79.202 296.000,80.000 296.000 C 80.533 296.000,80.800 296.267,80.800 296.800 C 80.800 297.598,81.067 297.600,200.000 297.600 C 318.933 297.600,319.200 297.598,319.200 296.800 C 319.200 296.267,319.467 296.000,320.000 296.000 C 320.798 296.000,320.800 295.733,320.800 200.000 C 320.800 104.267,320.798 104.000,320.000 104.000 C 319.467 104.000,319.200 103.733,319.200 103.200 C 319.200 102.402,318.933 102.400,200.000 102.400 C 81.067 102.400,80.800 102.402,80.800 103.200 M104.710 111.136 C 105.098 111.382,105.193 113.161,105.110 118.629 L 105.000 125.800 96.400 125.800 L 87.800 125.800 87.690 118.814 C 87.630 114.972,87.669 111.597,87.778 111.314 C 88.004 110.725,103.800 110.559,104.710 111.136 M312.200 118.400 L 312.200 125.800 212.300 125.901 L 112.400 126.002 112.400 118.667 C 112.400 114.634,112.520 111.213,112.667 111.066 C 112.815 110.919,157.770 110.844,212.567 110.899 L 312.200 111.000 312.200 118.400 M312.202 134.100 C 312.321 134.595,312.370 169.650,312.309 212.000 L 312.200 289.000 200.000 289.000 L 87.800 289.000 87.691 212.000 C 87.630 169.650,87.679 134.595,87.798 134.100 L 88.015 133.200 200.000 133.200 L 311.985 133.200 312.202 134.100 M147.287 187.707 C 146.651 188.385,146.296 189.447,146.046 191.428 C 145.192 198.194,143.401 200.218,140.620 197.563 C 140.411 197.363,139.961 197.194,139.620 197.187 C 139.279 197.181,138.100 196.732,137.000 196.191 C 133.140 194.293,129.424 194.941,128.866 197.611 C 128.179 200.898,130.196 203.329,134.675 204.609 C 137.470 205.408,140.695 206.559,141.000 206.866 C 142.101 207.971,137.276 210.800,134.289 210.800 C 131.091 210.800,128.542 213.696,129.390 216.367 C 130.756 220.672,134.969 220.838,141.000 216.827 C 144.417 214.554,144.476 214.632,145.994 223.476 C 146.430 226.017,147.269 227.366,148.812 228.005 C 152.063 229.352,153.624 226.986,153.962 220.200 L 154.200 215.400 156.140 215.501 C 157.207 215.557,158.557 215.842,159.140 216.135 C 162.909 218.029,164.629 218.980,164.832 219.283 C 165.557 220.361,167.989 220.096,169.192 218.809 C 171.636 216.192,170.031 212.587,165.478 210.470 C 161.498 208.619,159.339 207.677,158.462 207.409 L 157.525 207.122 158.637 205.961 C 159.249 205.323,159.879 204.800,160.038 204.800 C 160.376 204.800,165.305 201.618,166.900 200.370 C 168.440 199.166,168.452 196.715,166.925 195.122 C 165.246 193.370,162.932 193.549,158.179 195.800 C 152.243 198.611,151.600 198.271,151.600 192.330 C 151.600 188.210,151.294 187.535,149.189 187.010 C 148.434 186.822,147.954 186.997,147.287 187.707 M196.840 187.841 C 196.012 188.893,195.928 189.210,195.182 194.158 C 194.501 198.674,193.646 199.264,190.200 197.600 C 189.320 197.175,188.413 196.821,188.185 196.814 C 187.956 196.806,187.063 196.440,186.200 196.000 C 182.135 193.927,178.400 195.240,178.400 198.742 C 178.400 201.601,180.224 203.390,184.400 204.627 C 187.254 205.472,190.312 206.576,190.600 206.866 C 191.726 207.997,186.870 210.800,183.785 210.800 C 180.360 210.800,177.964 214.261,179.450 217.062 C 181.446 220.822,184.868 220.677,191.000 216.572 C 193.653 214.796,194.695 216.222,195.405 222.600 C 195.822 226.347,197.517 228.400,200.192 228.400 C 202.279 228.400,203.600 224.675,203.600 218.789 C 203.600 215.905,203.663 215.671,204.500 215.462 C 205.569 215.195,208.318 215.758,208.929 216.369 C 209.166 216.606,209.608 216.800,209.910 216.800 C 210.213 216.800,211.693 217.520,213.200 218.400 C 216.469 220.309,217.290 220.372,218.831 218.831 C 221.395 216.267,219.639 212.640,214.701 210.302 C 211.084 208.589,209.033 207.693,208.066 207.404 L 207.132 207.124 208.055 206.141 C 208.563 205.600,209.365 204.942,209.837 204.679 C 218.116 200.058,219.435 198.171,216.557 195.067 C 214.966 193.351,212.452 193.562,207.821 195.800 C 201.800 198.709,201.200 198.375,201.200 192.113 C 201.200 187.136,199.050 185.030,196.840 187.841 M246.290 187.501 C 245.348 188.541,244.939 189.885,244.613 193.000 C 244.048 198.411,242.998 199.338,239.400 197.600 C 238.520 197.175,237.613 196.821,237.385 196.814 C 237.156 196.806,236.263 196.440,235.400 196.000 C 231.335 193.927,227.600 195.240,227.600 198.742 C 227.600 201.494,229.639 203.506,233.569 204.634 C 236.298 205.417,239.500 206.564,239.800 206.866 C 240.909 207.980,236.074 210.800,233.055 210.800 C 228.188 210.800,226.485 216.657,230.611 219.207 C 232.597 220.434,235.698 219.584,240.190 216.581 C 242.925 214.752,243.860 216.024,244.616 222.600 C 244.944 225.448,245.972 227.326,247.566 227.986 C 251.104 229.452,252.720 226.648,252.776 218.943 C 252.799 215.799,252.835 215.678,253.815 215.432 C 254.933 215.151,257.827 215.796,258.207 216.411 C 258.339 216.625,258.720 216.800,259.054 216.800 C 259.387 216.800,260.893 217.520,262.400 218.400 C 265.618 220.279,266.322 220.351,267.969 218.964 C 270.752 216.623,268.940 212.697,263.992 210.347 C 259.395 208.164,258.099 207.600,257.680 207.600 C 256.353 207.600,257.613 204.845,258.970 204.779 C 261.496 204.657,267.442 198.904,266.973 197.035 C 266.071 193.439,262.758 193.028,257.021 195.800 C 251.000 198.709,250.400 198.375,250.400 192.113 C 250.400 187.395,248.408 185.160,246.290 187.501 " stroke="none" fill="#00ff00" fill-rule="evenodd"></path><path id="path1" d="M87.778 111.314 C 87.669 111.597,87.630 114.972,87.690 118.814 L 87.800 125.800 96.400 125.800 L 105.000 125.800 105.110 118.629 C 105.193 113.161,105.098 111.382,104.710 111.136 C 103.800 110.559,88.004 110.725,87.778 111.314 M112.667 111.066 C 112.520 111.213,112.400 114.634,112.400 118.667 L 112.400 126.002 212.300 125.901 L 312.200 125.800 312.200 118.400 L 312.200 111.000 212.567 110.899 C 157.770 110.844,112.815 110.919,112.667 111.066 M87.798 134.100 C 87.679 134.595,87.630 169.650,87.691 212.000 L 87.800 289.000 200.000 289.000 L 312.200 289.000 312.309 212.000 C 312.370 169.650,312.321 134.595,312.202 134.100 L 311.985 133.200 200.000 133.200 L 88.015 133.200 87.798 134.100 M150.900 187.893 C 151.473 188.410,151.600 189.212,151.600 192.330 C 151.600 198.271,152.243 198.611,158.179 195.800 C 162.932 193.549,165.246 193.370,166.925 195.122 C 168.452 196.715,168.440 199.166,166.900 200.370 C 165.305 201.618,160.376 204.800,160.038 204.800 C 159.879 204.800,159.249 205.323,158.637 205.961 L 157.525 207.122 158.462 207.409 C 159.339 207.677,161.498 208.619,165.478 210.470 C 170.031 212.587,171.636 216.192,169.192 218.809 C 167.989 220.096,165.557 220.361,164.832 219.283 C 164.629 218.980,162.909 218.029,159.140 216.135 C 158.557 215.842,157.207 215.557,156.140 215.501 L 154.200 215.400 153.962 220.200 C 153.624 226.986,152.063 229.352,148.812 228.005 C 147.269 227.366,146.430 226.017,145.994 223.476 C 144.476 214.632,144.417 214.554,141.000 216.827 C 134.969 220.838,130.756 220.672,129.390 216.367 C 128.542 213.696,131.091 210.800,134.289 210.800 C 137.276 210.800,142.101 207.971,141.000 206.866 C 140.695 206.559,137.470 205.408,134.675 204.609 C 130.196 203.329,128.179 200.898,128.866 197.611 C 129.424 194.941,133.140 194.293,137.000 196.191 C 138.100 196.732,139.279 197.181,139.620 197.187 C 139.961 197.194,140.411 197.363,140.620 197.563 C 143.401 200.218,145.192 198.194,146.046 191.428 C 146.585 187.161,148.522 185.750,150.900 187.893 M200.038 187.486 C 201.196 188.170,201.200 188.188,201.200 192.113 C 201.200 198.375,201.800 198.709,207.821 195.800 C 212.452 193.562,214.966 193.351,216.557 195.067 C 219.435 198.171,218.116 200.058,209.837 204.679 C 209.365 204.942,208.563 205.600,208.055 206.141 L 207.132 207.124 208.066 207.404 C 209.033 207.693,211.084 208.589,214.701 210.302 C 219.639 212.640,221.395 216.267,218.831 218.831 C 217.290 220.372,216.469 220.309,213.200 218.400 C 211.693 217.520,210.213 216.800,209.910 216.800 C 209.608 216.800,209.166 216.606,208.929 216.369 C 208.318 215.758,205.569 215.195,204.500 215.462 C 203.663 215.671,203.600 215.905,203.600 218.789 C 203.600 224.675,202.279 228.400,200.192 228.400 C 197.517 228.400,195.822 226.347,195.405 222.600 C 194.695 216.222,193.653 214.796,191.000 216.572 C 184.868 220.677,181.446 220.822,179.450 217.062 C 177.964 214.261,180.360 210.800,183.785 210.800 C 186.870 210.800,191.726 207.997,190.600 206.866 C 190.312 206.576,187.254 205.472,184.400 204.627 C 177.213 202.499,175.599 195.200,182.315 195.200 C 183.841 195.200,185.166 195.473,186.200 196.000 C 187.063 196.440,187.956 196.806,188.185 196.814 C 188.413 196.821,189.320 197.175,190.200 197.600 C 193.646 199.264,194.501 198.674,195.182 194.158 C 195.928 189.210,196.012 188.893,196.840 187.841 C 197.798 186.622,198.452 186.549,200.038 187.486 M249.238 187.486 C 250.396 188.170,250.400 188.188,250.400 192.113 C 250.400 198.375,251.000 198.709,257.021 195.800 C 262.758 193.028,266.071 193.439,266.973 197.035 C 267.442 198.904,261.496 204.657,258.970 204.779 C 257.613 204.845,256.353 207.600,257.680 207.600 C 258.099 207.600,259.395 208.164,263.992 210.347 C 268.940 212.697,270.752 216.623,267.969 218.964 C 266.322 220.351,265.618 220.279,262.400 218.400 C 260.893 217.520,259.387 216.800,259.054 216.800 C 258.720 216.800,258.339 216.625,258.207 216.411 C 257.827 215.796,254.933 215.151,253.815 215.432 C 252.835 215.678,252.799 215.799,252.776 218.943 C 252.720 226.648,251.104 229.452,247.566 227.986 C 245.972 227.326,244.944 225.448,244.616 222.600 C 243.860 216.024,242.925 214.752,240.190 216.581 C 235.698 219.584,232.597 220.434,230.611 219.207 C 226.485 216.657,228.188 210.800,233.055 210.800 C 236.074 210.800,240.909 207.980,239.800 206.866 C 239.500 206.564,236.298 205.417,233.569 204.634 C 226.492 202.603,224.881 195.200,231.515 195.200 C 233.041 195.200,234.366 195.473,235.400 196.000 C 236.263 196.440,237.156 196.806,237.385 196.814 C 237.613 196.821,238.520 197.175,239.400 197.600 C 242.998 199.338,244.048 198.411,244.613 193.000 C 245.189 187.486,246.531 185.887,249.238 187.486 " stroke="none" fill="#000000" fill-rule="evenodd"></path></g></svg>