<svg viewBox="0 0 32 32" fill="none" xmlns="http://www.w3.org/2000/svg" id="Collision-Flat--Streamline-Fluent-Emoji" height="32" width="32">
  <desc>
    Collision Flat Streamline Emoji: https://streamlinehq.com
  </desc>
  <path d="M9.40002 11.2363 6.02529 2.3412c-0.08837 -0.23293 0.18108 -0.43767 0.38181 -0.29012l7.899 5.80619c0.1083 0.07958 0.2601 0.05936 0.3437 -0.0458l2.963 -3.72477c0.1402 -0.1763 0.4238 -0.09174 0.4446 0.13258l0.4159 4.49227c0.0141 0.15191 0.1597 0.25591 0.308 0.21987l7.969 -1.93712c0.2401 -0.05837 0.4103 0.2299 0.2432 0.41197l-4.9274 5.36903c-0.1066 0.1162 -0.0803 0.3009 0.0545 0.3828l7.3442 4.4563c0.2048 0.1242 0.1345 0.4376 -0.1038 0.4624l-8.5554 0.8912c-0.1577 0.0164 -0.2605 0.1735 -0.2123 0.3245l1.3975 4.3867c0.0741 0.2324 -0.1945 0.4224 -0.3891 0.2752l-3.8428 -2.9085c-0.1308 -0.099 -0.3199 -0.0473 -0.3821 0.1044l-3.5704 8.7028c-0.0933 0.2274 -0.4242 0.1978 -0.4758 -0.0424l-2.2769 -10.6105c-0.0294 -0.1373 -0.1662 -0.2234 -0.3027 -0.1907l-7.4326 1.7821c-0.24586 0.0589 -0.41385 -0.2426 -0.23433 -0.4206l5.1445 -5.102c0.12802 -0.127 0.08364 -0.3436 -0.08399 -0.41l-3.96911 -1.5719c-0.22614 -0.0895 -0.20419 -0.4165 0.03189 -0.4751l5.01908 -1.2444c0.1455 -0.036 0.22676 -0.1912 0.17358 -0.3313Z" fill="#f8312f" stroke-width="1"></path>
  <path d="m12.2759 15.2263 -1.2008 1.2129c-0.1717 0.1735 -0.0187 0.4649 0.2216 0.422l2.0549 -0.3669c0.1368 -0.0245 0.2673 0.0674 0.2904 0.2045l0.6909 4.0918c0.0447 0.2645 0.4121 0.2963 0.5015 0.0433l1.2957 -3.6648c0.0581 -0.1643 0.2622 -0.2202 0.396 -0.1085l1.0636 0.8883c0.1628 0.1359 0.4103 0.0201 0.4103 -0.1919v-1.4858c0 -0.1461 0.1248 -0.2611 0.2704 -0.2491l4.5112 0.3697c0.2286 0.0188 0.3037 -0.2994 0.0908 -0.3849l-4.7127 -1.8927c-0.147 -0.059 -0.2027 -0.238 -0.1153 -0.37l0.8884 -1.3409c0.1121 -0.1692 -0.0135 -0.3944 -0.2164 -0.3879l-1.475 0.0469c-0.1346 0.0043 -0.2485 -0.0989 -0.2574 -0.2333l-0.1772 -2.67241c-0.0165 -0.24958 -0.3488 -0.32286 -0.4688 -0.10341l-1.1967 2.18842c-0.0741 0.1353 -0.2518 0.172 -0.3733 0.0771l-2.3489 -1.83509c-0.192 -0.15006 -0.4634 0.03539 -0.3933 0.26884l0.8927 2.97565c0.0432 0.1442 -0.0499 0.2937 -0.1984 0.3185l-2.0503 0.3417c-0.2294 0.0382 -0.2869 0.3413 -0.0876 0.461l1.6446 0.9867c0.1391 0.0834 0.1631 0.2751 0.0491 0.3903Z" fill="#fcd53f" stroke-width="1"></path>
</svg>