<?xml version="1.0" encoding="UTF-8"?>
<!DOCTYPE svg PUBLIC "-//W3C//DTD SVG 1.1//EN" "http://www.w3.org/Graphics/SVG/1.1/DTD/svg11.dtd">
<svg xmlns="http://www.w3.org/2000/svg" version="1.1" width="640px" height="683px" style="shape-rendering:geometricPrecision; text-rendering:geometricPrecision; image-rendering:optimizeQuality; fill-rule:evenodd; clip-rule:evenodd" xmlns:xlink="http://www.w3.org/1999/xlink">
<g><path style="opacity:0.862" fill="#bcd8e7" d="M 533.5,390.5 C 532.683,388.031 532.183,385.365 532,382.5C 530.214,384.099 528.047,384.933 525.5,385C 524.891,386.948 524.224,388.782 523.5,390.5C 523.667,296.833 523.5,203.166 523,109.5C 522.5,109 522,108.5 521.5,108C 386.5,107.333 251.5,107.333 116.5,108C 116,108.5 115.5,109 115,109.5C 114.5,202.166 114.333,294.833 114.5,387.5C 112.229,383.246 109.229,382.58 105.5,385.5C 105.333,291.166 105.5,196.833 106,102.5C 106.589,100.137 108.089,99.1367 110.5,99.5C 110.5,98.1667 110.5,96.8333 110.5,95.5C 249.54,95.1684 388.54,95.5017 527.5,96.5C 529.929,98.7613 531.762,101.428 533,104.5C 533.5,199.833 533.667,295.166 533.5,390.5 Z"/></g>
<g><path style="opacity:1" fill="#c5cff3" d="M 523.5,390.5 C 523.406,393.068 522.072,394.568 519.5,395C 385.5,395.667 251.5,395.667 117.5,395C 115.047,393.152 114.047,390.652 114.5,387.5C 114.333,294.833 114.5,202.166 115,109.5C 115.5,109 116,108.5 116.5,108C 251.5,107.333 386.5,107.333 521.5,108C 522,108.5 522.5,109 523,109.5C 523.5,203.166 523.667,296.833 523.5,390.5 Z"/></g>
<g><path style="opacity:1" fill="#f95252" d="M 513.5,117.5 C 513.5,206.5 513.5,295.5 513.5,384.5C 383.833,384.5 254.167,384.5 124.5,384.5C 124.5,295.5 124.5,206.5 124.5,117.5C 254.167,117.5 383.833,117.5 513.5,117.5 Z"/></g>
<g><path style="opacity:1" fill="#c8d9e4" d="M 250.5,135.5 C 251.836,137.01 253.003,138.677 254,140.5C 254.007,147.315 254.84,153.982 256.5,160.5C 260.126,166.775 264.46,172.442 269.5,177.5C 265.519,179.678 261.185,181.178 256.5,182C 253.906,184.086 251.906,186.586 250.5,189.5C 249.833,189.167 249.167,188.833 248.5,188.5C 240.26,179.665 229.927,175.498 217.5,176C 215.68,175.8 214.347,174.966 213.5,173.5C 221.397,175.327 229.397,175.827 237.5,175C 239.347,172.421 239.847,169.588 239,166.5C 237.352,164.972 235.352,164.305 233,164.5C 229.183,165.478 225.35,166.645 221.5,168C 217.404,167.994 213.404,168.16 209.5,168.5C 208.002,163.991 208.335,159.658 210.5,155.5C 211.167,154.167 212.167,153.167 213.5,152.5C 216.997,151.896 220.33,150.73 223.5,149C 227.501,143.655 231.501,138.322 235.5,133C 240.796,132.12 245.796,132.953 250.5,135.5 Z"/></g>
<g><path style="opacity:1" fill="#c8d9e4" d="M 415.5,133.5 C 418.08,140.588 422.413,146.421 428.5,151C 430.833,151.333 433.167,151.667 435.5,152C 436.532,153.627 437.866,154.793 439.5,155.5C 440.736,159.965 440.736,164.299 439.5,168.5C 430.184,167.665 420.851,166.498 411.5,165C 409.947,168.565 410.28,171.899 412.5,175C 417.823,175.499 423.156,175.666 428.5,175.5C 424.833,176.167 421.167,176.833 417.5,177.5C 414.547,178.746 411.547,180.079 408.5,181.5C 405.233,183.427 402.233,185.761 399.5,188.5C 398.909,185.386 397.242,182.886 394.5,181C 390.414,179.272 386.414,177.439 382.5,175.5C 386.815,170.218 390.648,164.551 394,158.5C 394.333,152.167 394.667,145.833 395,139.5C 395.383,138.944 395.883,138.611 396.5,138.5C 399.363,137.205 402.03,135.538 404.5,133.5C 408.175,132.317 411.841,132.317 415.5,133.5 Z"/></g>
<g><path style="opacity:1" fill="#ddaab0" d="M 415.5,133.5 C 411.841,132.317 408.175,132.317 404.5,133.5C 402.03,135.538 399.363,137.205 396.5,138.5C 396.369,137.761 396.536,137.094 397,136.5C 401.998,132.077 407.832,130.577 414.5,132C 415.056,132.383 415.389,132.883 415.5,133.5 Z"/></g>
<g><path style="opacity:1" fill="#f07273" d="M 250.5,135.5 C 245.796,132.953 240.796,132.12 235.5,133C 231.501,138.322 227.501,143.655 223.5,149C 220.33,150.73 216.997,151.896 213.5,152.5C 216.141,150.677 219.141,149.343 222.5,148.5C 224.467,142.27 228.467,136.77 234.5,132C 238.5,131.333 242.5,131.333 246.5,132C 248.319,132.74 249.652,133.907 250.5,135.5 Z"/></g>
<g><path style="opacity:1" fill="#d99ba1" d="M 210.5,155.5 C 208.335,159.658 208.002,163.991 209.5,168.5C 210.833,170.167 212.167,171.833 213.5,173.5C 207.569,170.292 205.403,165.292 207,158.5C 208.039,157.29 209.206,156.29 210.5,155.5 Z"/></g>
<g><path style="opacity:1" fill="#90c0d1" d="M 213.5,173.5 C 212.167,171.833 210.833,170.167 209.5,168.5C 213.404,168.16 217.404,167.994 221.5,168C 225.35,166.645 229.183,165.478 233,164.5C 235.352,164.305 237.352,164.972 239,166.5C 239.847,169.588 239.347,172.421 237.5,175C 229.397,175.827 221.397,175.327 213.5,173.5 Z"/></g>
<g><path style="opacity:1" fill="#91bfd0" d="M 439.5,168.5 C 438.746,171.091 437.079,172.924 434.5,174C 432.292,174.191 430.292,174.691 428.5,175.5C 423.156,175.666 417.823,175.499 412.5,175C 410.28,171.899 409.947,168.565 411.5,165C 420.851,166.498 430.184,167.665 439.5,168.5 Z"/></g>
<g><path style="opacity:1" fill="#dfe4e7" d="M 377.5,180.5 C 376.766,181.708 376.433,183.041 376.5,184.5C 381.156,187.637 385.49,191.471 389.5,196C 390.448,196.483 391.448,196.649 392.5,196.5C 392.5,196.833 392.5,197.167 392.5,197.5C 392.077,198.265 391.743,199.098 391.5,200C 396.115,214.697 397.782,229.864 396.5,245.5C 395.176,249.107 394.509,253.107 394.5,257.5C 394.42,264.582 395.086,271.582 396.5,278.5C 396.551,281.692 395.884,284.692 394.5,287.5C 392.477,289.853 390.477,292.186 388.5,294.5C 375.681,296.821 368.514,304.488 367,317.5C 364.7,323.83 360.367,326.163 354,324.5C 353.501,319.845 353.334,315.179 353.5,310.5C 351.208,310.244 349.041,310.577 347,311.5C 346.667,317.5 346.333,323.5 346,329.5C 340.523,334.319 334.857,334.652 329,330.5C 328.667,324.5 328.333,318.5 328,312.5C 326.599,310.808 324.766,310.141 322.5,310.5C 321.938,317.826 321.272,325.159 320.5,332.5C 315.164,334.068 309.997,333.735 305,331.5C 303.661,324.574 303.161,317.574 303.5,310.5C 301.5,310.5 299.5,310.5 297.5,310.5C 297.666,314.846 297.499,319.179 297,323.5C 292.021,326.667 288.021,325.667 285,320.5C 284.519,314.94 283.186,309.607 281,304.5C 274.979,300.999 268.813,297.666 262.5,294.5C 261.817,294.863 261.15,295.196 260.5,295.5C 258.5,291.5 256.5,287.5 254.5,283.5C 254.877,275.98 255.544,268.48 256.5,261C 255.417,244.512 255.25,228.012 256,211.5C 257.541,207.518 258.708,203.518 259.5,199.5C 263.059,194.432 267.226,189.766 272,185.5C 273.094,183.922 273.928,182.255 274.5,180.5C 283.092,176.505 291.758,172.505 300.5,168.5C 326.348,162.173 350.348,166.006 372.5,180C 374.134,180.494 375.801,180.66 377.5,180.5 Z"/></g>
<g><path style="opacity:1" fill="#dd8186" d="M 439.5,155.5 C 441.828,157.166 442.828,159.499 442.5,162.5C 442.219,170.948 437.886,175.782 429.5,177C 425.514,177.499 421.514,177.666 417.5,177.5C 421.167,176.833 424.833,176.167 428.5,175.5C 430.292,174.691 432.292,174.191 434.5,174C 437.079,172.924 438.746,171.091 439.5,168.5C 440.736,164.299 440.736,159.965 439.5,155.5 Z"/></g>
<g><path style="opacity:1" fill="#90bfd0" d="M 382.5,175.5 C 386.414,177.439 390.414,179.272 394.5,181C 397.242,182.886 398.909,185.386 399.5,188.5C 397.138,191.192 394.804,193.859 392.5,196.5C 391.448,196.649 390.448,196.483 389.5,196C 385.49,191.471 381.156,187.637 376.5,184.5C 376.433,183.041 376.766,181.708 377.5,180.5C 378.833,178.5 380.5,176.833 382.5,175.5 Z"/></g>
<g><path style="opacity:1" fill="#94c0d0" d="M 269.5,177.5 C 271.332,178.248 272.999,179.248 274.5,180.5C 273.928,182.255 273.094,183.922 272,185.5C 267.226,189.766 263.059,194.432 259.5,199.5C 259.5,198.833 259.167,198.5 258.5,198.5C 255.833,195.5 253.167,192.5 250.5,189.5C 251.906,186.586 253.906,184.086 256.5,182C 261.185,181.178 265.519,179.678 269.5,177.5 Z"/></g>
<g><path style="opacity:1" fill="#d88084" d="M 408.5,181.5 C 406.47,183.537 404.804,185.87 403.5,188.5C 399.499,191.175 395.832,194.175 392.5,197.5C 392.5,197.167 392.5,196.833 392.5,196.5C 394.804,193.859 397.138,191.192 399.5,188.5C 402.233,185.761 405.233,183.427 408.5,181.5 Z"/></g>
<g><path style="opacity:1" fill="#e3787b" d="M 248.5,188.5 C 249.167,188.833 249.833,189.167 250.5,189.5C 253.167,192.5 255.833,195.5 258.5,198.5C 258.946,201.01 258.28,203.01 256.5,204.5C 257.323,202.545 257.49,200.545 257,198.5C 255.989,197.663 254.822,197.33 253.5,197.5C 253.649,196.448 253.483,195.448 253,194.5C 250.873,192.886 249.373,190.886 248.5,188.5 Z"/></g>
<g><path style="opacity:1" fill="#ef9697" d="M 258.5,198.5 C 259.167,198.5 259.5,198.833 259.5,199.5C 258.708,203.518 257.541,207.518 256,211.5C 255.25,228.012 255.417,244.512 256.5,261C 255.544,268.48 254.877,275.98 254.5,283.5C 255.067,265.796 254.401,247.962 252.5,230C 252.674,221.281 254.007,212.781 256.5,204.5C 258.28,203.01 258.946,201.01 258.5,198.5 Z"/></g>
<g><path style="opacity:1" fill="#474747" d="M 308.5,246.5 C 308.909,264.425 300.242,272.091 282.5,269.5C 273.365,264.539 270.199,256.872 273,246.5C 274.647,240.183 278.48,235.683 284.5,233C 296.757,230.115 304.757,234.615 308.5,246.5 Z"/></g>
<g><path style="opacity:1" fill="#474747" d="M 353.5,232.5 C 368.005,231.713 376.339,238.38 378.5,252.5C 377.402,267.418 369.402,273.585 354.5,271C 348.937,268.437 345.104,264.27 343,258.5C 342.333,253.5 342.333,248.5 343,243.5C 345.762,239.055 349.262,235.389 353.5,232.5 Z"/></g>
<g><path style="opacity:1" fill="#464646" d="M 334.5,273.5 C 335.292,279.13 335.625,284.797 335.5,290.5C 328.833,289.167 322.167,289.167 315.5,290.5C 313.235,279.953 315.902,270.786 323.5,263C 324.833,262.333 326.167,262.333 327.5,263C 331.22,265.614 333.553,269.114 334.5,273.5 Z"/></g>
<g><path style="opacity:1" fill="#7e8081" d="M 308.5,246.5 C 311.414,265.751 303.081,273.918 283.5,271C 282.944,270.617 282.611,270.117 282.5,269.5C 300.242,272.091 308.909,264.425 308.5,246.5 Z"/></g>
<g><path style="opacity:1" fill="#f27a7a" d="M 396.5,245.5 C 396.057,249.649 395.723,253.816 395.5,258C 397.04,267.777 397.707,277.61 397.5,287.5C 396.5,287.5 395.5,287.5 394.5,287.5C 395.884,284.692 396.551,281.692 396.5,278.5C 395.086,271.582 394.42,264.582 394.5,257.5C 394.509,253.107 395.176,249.107 396.5,245.5 Z"/></g>
<g><path style="opacity:1" fill="#95989a" d="M 334.5,273.5 C 335.117,273.611 335.617,273.944 336,274.5C 337.363,280.041 337.529,285.541 336.5,291C 335.224,292.212 333.724,293.045 332,293.5C 327.7,291.32 323.2,290.986 318.5,292.5C 316.962,292.547 315.962,291.88 315.5,290.5C 322.167,289.167 328.833,289.167 335.5,290.5C 335.625,284.797 335.292,279.13 334.5,273.5 Z"/></g>
<g><path style="opacity:1" fill="#c7dbe6" d="M 252.5,305.5 C 257.375,308.439 260.042,312.772 260.5,318.5C 259.503,323.493 257.67,328.16 255,332.5C 253.957,335.757 253.457,339.09 253.5,342.5C 253.839,347.93 253.339,353.264 252,358.5C 249.075,360.331 246.241,361.997 243.5,363.5C 235.496,365.223 230.496,361.889 228.5,353.5C 228.5,353.167 228.5,352.833 228.5,352.5C 229.496,352.586 230.329,352.252 231,351.5C 231.796,347.245 231.629,343.079 230.5,339C 224.505,338.832 218.505,338.998 212.5,339.5C 211.791,338.596 210.791,338.263 209.5,338.5C 209.307,334.434 209.64,330.434 210.5,326.5C 211.343,324.827 212.676,323.66 214.5,323C 219.678,321.202 225.011,320.202 230.5,320C 233.492,317.89 236.825,316.557 240.5,316C 244.344,312.257 248.344,308.757 252.5,305.5 Z"/></g>
<g><path style="opacity:1" fill="#c7dbe6" d="M 398.5,306.5 C 402.906,310.246 407.573,313.58 412.5,316.5C 413.574,317.885 414.907,319.051 416.5,320C 422.625,320.267 428.625,321.1 434.5,322.5C 435.768,324.047 437.435,325.047 439.5,325.5C 440.55,330.114 440.717,334.78 440,339.5C 439.292,340.381 438.458,341.047 437.5,341.5C 437.389,340.883 437.056,340.383 436.5,340C 430.85,338.814 425.183,338.147 419.5,338C 416.19,342.034 415.523,346.534 417.5,351.5C 419.858,351.747 421.858,351.081 423.5,349.5C 421.425,355.039 418.092,359.706 413.5,363.5C 412.333,363.833 411.167,364.167 410,364.5C 406.584,363.314 403.084,362.314 399.5,361.5C 397.73,359.887 396.564,357.887 396,355.5C 395.501,350.177 395.334,344.844 395.5,339.5C 393.606,331.875 391.273,324.375 388.5,317C 389.287,314.189 390.12,311.356 391,308.5C 393.301,307.133 395.801,306.466 398.5,306.5 Z"/></g>
<g><path style="opacity:1" fill="#94becf" d="M 388.5,294.5 C 392.18,298.183 395.514,302.183 398.5,306.5C 395.801,306.466 393.301,307.133 391,308.5C 390.12,311.356 389.287,314.189 388.5,317C 391.273,324.375 393.606,331.875 395.5,339.5C 393.551,335.352 390.885,331.685 387.5,328.5C 382.188,322.521 376.521,316.854 370.5,311.5C 370.817,325.017 364.151,331.85 350.5,332C 349.619,332.708 348.953,333.542 348.5,334.5C 345.46,336.904 341.96,338.238 338,338.5C 334.372,337.624 330.705,336.957 327,336.5C 322.333,337.167 317.667,337.833 313,338.5C 307.546,338.52 303.046,336.52 299.5,332.5C 295.902,330.782 291.902,329.616 287.5,329C 286.616,327.28 285.283,326.114 283.5,325.5C 282.662,325.158 282.328,324.492 282.5,323.5C 282.5,318.833 282.5,314.167 282.5,309.5C 280.217,309.608 278.217,310.441 276.5,312C 271.234,316.759 266.567,321.925 262.5,327.5C 260.469,328.539 259.136,330.205 258.5,332.5C 255.927,335.399 254.261,338.732 253.5,342.5C 253.457,339.09 253.957,335.757 255,332.5C 257.67,328.16 259.503,323.493 260.5,318.5C 260.042,312.772 257.375,308.439 252.5,305.5C 254.46,301.547 257.127,298.213 260.5,295.5C 261.15,295.196 261.817,294.863 262.5,294.5C 268.813,297.666 274.979,300.999 281,304.5C 283.186,309.607 284.519,314.94 285,320.5C 288.021,325.667 292.021,326.667 297,323.5C 297.499,319.179 297.666,314.846 297.5,310.5C 299.5,310.5 301.5,310.5 303.5,310.5C 303.161,317.574 303.661,324.574 305,331.5C 309.997,333.735 315.164,334.068 320.5,332.5C 321.272,325.159 321.938,317.826 322.5,310.5C 324.766,310.141 326.599,310.808 328,312.5C 328.333,318.5 328.667,324.5 329,330.5C 334.857,334.652 340.523,334.319 346,329.5C 346.333,323.5 346.667,317.5 347,311.5C 349.041,310.577 351.208,310.244 353.5,310.5C 353.334,315.179 353.501,319.845 354,324.5C 360.367,326.163 364.7,323.83 367,317.5C 368.514,304.488 375.681,296.821 388.5,294.5 Z"/></g>
<g><path style="opacity:1" fill="#c98990" d="M 282.5,323.5 C 281.675,319.353 281.175,315.019 281,310.5C 274.663,316.004 268.496,321.671 262.5,327.5C 266.567,321.925 271.234,316.759 276.5,312C 278.217,310.441 280.217,309.608 282.5,309.5C 282.5,314.167 282.5,318.833 282.5,323.5 Z"/></g>
<g><path style="opacity:1" fill="#e9878a" d="M 412.5,316.5 C 418.596,318.661 424.929,319.994 431.5,320.5C 432.602,321.176 433.602,321.842 434.5,322.5C 428.625,321.1 422.625,320.267 416.5,320C 414.907,319.051 413.574,317.885 412.5,316.5 Z"/></g>
<g><path style="opacity:1" fill="#c6888f" d="M 283.5,325.5 C 285.283,326.114 286.616,327.28 287.5,329C 291.902,329.616 295.902,330.782 299.5,332.5C 294.843,333.006 290.51,332.173 286.5,330C 284.859,328.871 283.859,327.371 283.5,325.5 Z"/></g>
<g><path style="opacity:1" fill="#db9ea4" d="M 439.5,325.5 C 440.966,326.347 441.8,327.68 442,329.5C 443.775,336.375 441.608,341.375 435.5,344.5C 435.782,343.222 436.449,342.222 437.5,341.5C 438.458,341.047 439.292,340.381 440,339.5C 440.717,334.78 440.55,330.114 439.5,325.5 Z"/></g>
<g><path style="opacity:1" fill="#e06e70" d="M 299.5,332.5 C 303.046,336.52 307.546,338.52 313,338.5C 317.667,337.833 322.333,337.167 327,336.5C 330.705,336.957 334.372,337.624 338,338.5C 341.96,338.238 345.46,336.904 348.5,334.5C 347.043,336.785 345.043,338.618 342.5,340C 336.305,340.817 330.305,340.317 324.5,338.5C 317.566,340.792 310.566,340.959 303.5,339C 301.915,336.931 300.581,334.764 299.5,332.5 Z"/></g>
<g><path style="opacity:1" fill="#8ebfd0" d="M 228.5,352.5 C 228.607,350.097 227.607,348.264 225.5,347C 221.833,345.833 218.166,344.666 214.5,343.5C 213.147,342.476 212.48,341.143 212.5,339.5C 218.505,338.998 224.505,338.832 230.5,339C 231.629,343.079 231.796,347.245 231,351.5C 230.329,352.252 229.496,352.586 228.5,352.5 Z"/></g>
<g><path style="opacity:1" fill="#94bccd" d="M 437.5,341.5 C 436.449,342.222 435.782,343.222 435.5,344.5C 431.533,346.147 427.533,347.814 423.5,349.5C 421.858,351.081 419.858,351.747 417.5,351.5C 415.523,346.534 416.19,342.034 419.5,338C 425.183,338.147 430.85,338.814 436.5,340C 437.056,340.383 437.389,340.883 437.5,341.5 Z"/></g>
<g><path style="opacity:1" fill="#bfa5af" d="M 210.5,326.5 C 209.64,330.434 209.307,334.434 209.5,338.5C 210.791,338.263 211.791,338.596 212.5,339.5C 212.48,341.143 213.147,342.476 214.5,343.5C 218.166,344.666 221.833,345.833 225.5,347C 227.607,348.264 228.607,350.097 228.5,352.5C 228.5,352.833 228.5,353.167 228.5,353.5C 227.781,351.909 226.781,350.409 225.5,349C 221.49,347.66 217.49,346.327 213.5,345C 208.433,341.509 206.6,336.676 208,330.5C 208.2,328.68 209.034,327.347 210.5,326.5 Z"/></g>
<g><path style="opacity:1" fill="#dca4aa" d="M 258.5,332.5 C 256.059,340.191 254.726,348.191 254.5,356.5C 252.346,361.084 248.679,363.417 243.5,363.5C 246.241,361.997 249.075,360.331 252,358.5C 253.339,353.264 253.839,347.93 253.5,342.5C 254.261,338.732 255.927,335.399 258.5,332.5 Z"/></g>
<g><path style="opacity:1" fill="#e77d7f" d="M 387.5,328.5 C 390.885,331.685 393.551,335.352 395.5,339.5C 395.334,344.844 395.501,350.177 396,355.5C 396.564,357.887 397.73,359.887 399.5,361.5C 396.871,360.871 395.204,359.205 394.5,356.5C 393.671,351.198 393.171,345.864 393,340.5C 390.533,336.744 388.7,332.744 387.5,328.5 Z"/></g>
<g><path style="opacity:1" fill="#e97a85" d="M 513.5,117.5 C 514.499,206.665 514.833,295.998 514.5,385.5C 384.332,385.833 254.332,385.5 124.5,384.5C 254.167,384.5 383.833,384.5 513.5,384.5C 513.5,295.5 513.5,206.5 513.5,117.5 Z"/></g>
<g><path style="opacity:0.75" fill="#6aa0ba" d="M 533.5,390.5 C 532.475,395.374 530.141,399.541 526.5,403C 470.501,403.5 414.501,403.667 358.5,403.5C 358.362,411.916 359.028,420.249 360.5,428.5C 339.173,428.667 318.173,426.167 297.5,421C 294.518,420.502 291.518,420.335 288.5,420.5C 288.173,415.786 288.507,411.12 289.5,406.5C 290.672,406.081 291.672,405.415 292.5,404.5C 232.169,403.667 171.836,403.167 111.5,403C 110.535,400.381 108.868,398.381 106.5,397C 105.606,393.224 105.272,389.39 105.5,385.5C 109.229,382.58 112.229,383.246 114.5,387.5C 114.047,390.652 115.047,393.152 117.5,395C 251.5,395.667 385.5,395.667 519.5,395C 522.072,394.568 523.406,393.068 523.5,390.5C 524.224,388.782 524.891,386.948 525.5,385C 528.047,384.933 530.214,384.099 532,382.5C 532.183,385.365 532.683,388.031 533.5,390.5 Z"/></g>
<g><path style="opacity:0.963" fill="#b7d4e3" d="M 288.5,420.5 C 291.518,420.335 294.518,420.502 297.5,421C 318.173,426.167 339.173,428.667 360.5,428.5C 360.5,432.833 360.5,437.167 360.5,441.5C 372.439,443.134 384.439,444.301 396.5,445C 400.653,447.915 405.32,449.249 410.5,449C 411.167,450 411.833,451 412.5,452C 415.234,452.21 417.734,453.044 420,454.5C 420.498,457.817 420.665,461.15 420.5,464.5C 418.801,464.34 417.134,464.506 415.5,465C 414.5,467.333 412.833,469 410.5,470C 399.617,474.533 388.284,477.367 376.5,478.5C 356.971,479.395 337.471,480.728 318,482.5C 300.501,481.348 283.001,480.348 265.5,479.5C 257.833,478.833 250.167,478.167 242.5,477.5C 242.389,476.883 242.056,476.383 241.5,476C 236.5,474.333 231.5,472.667 226.5,471C 223.93,467.882 220.596,466.715 216.5,467.5C 216.5,465.5 216.5,463.5 216.5,461.5C 222.068,463.213 227.068,466.046 231.5,470C 234.825,469.775 237.158,471.108 238.5,474C 245.426,473.876 252.093,475.042 258.5,477.5C 281.166,478.522 303.833,479.022 326.5,479C 331.745,477.023 337.078,475.356 342.5,474C 341.122,472.287 339.455,470.953 337.5,470C 324.198,468.361 310.864,467.028 297.5,466C 294.102,464.084 290.435,463.084 286.5,463C 283.774,460.97 280.774,459.47 277.5,458.5C 276.48,456.568 276.313,454.568 277,452.5C 279.333,450.833 281.667,449.167 284,447.5C 284.495,445.527 284.662,443.527 284.5,441.5C 284.335,438.15 284.502,434.817 285,431.5C 288.051,428.57 289.218,424.903 288.5,420.5 Z"/></g>
<g><path style="opacity:0.992" fill="#eaeced" d="M 284.5,441.5 C 284.662,443.527 284.495,445.527 284,447.5C 281.667,449.167 279.333,450.833 277,452.5C 276.313,454.568 276.48,456.568 277.5,458.5C 280.774,459.47 283.774,460.97 286.5,463C 290.435,463.084 294.102,464.084 297.5,466C 310.864,467.028 324.198,468.361 337.5,470C 339.455,470.953 341.122,472.287 342.5,474C 337.078,475.356 331.745,477.023 326.5,479C 303.833,479.022 281.166,478.522 258.5,477.5C 252.093,475.042 245.426,473.876 238.5,474C 237.158,471.108 234.825,469.775 231.5,470C 227.068,466.046 222.068,463.213 216.5,461.5C 216.678,455.636 219.678,452.469 225.5,452C 226.5,451 227.5,450 228.5,449C 233.68,449.249 238.347,447.915 242.5,445C 256.403,442.71 270.403,441.543 284.5,441.5 Z"/></g>
<g><path style="opacity:1" fill="#538fa0" d="M 420.5,464.5 C 420.5,466.167 420.5,467.833 420.5,469.5C 418.712,469.215 417.045,469.548 415.5,470.5C 412.493,472.235 409.493,474.069 406.5,476C 400.861,476.823 395.528,478.49 390.5,481C 385.5,481.333 380.5,481.667 375.5,482C 371.389,483.891 367.056,484.891 362.5,485C 336.833,485.667 311.167,485.667 285.5,485C 272.61,482.727 259.61,481.394 246.5,481C 244.456,480.502 243.122,479.335 242.5,477.5C 250.167,478.167 257.833,478.833 265.5,479.5C 278.535,482.283 291.868,483.616 305.5,483.5C 320.842,483.277 336.176,482.777 351.5,482C 360.094,481.7 368.428,480.534 376.5,478.5C 388.284,477.367 399.617,474.533 410.5,470C 412.833,469 414.5,467.333 415.5,465C 417.134,464.506 418.801,464.34 420.5,464.5 Z"/></g>
<g><path style="opacity:0.749" fill="#2f7788" d="M 216.5,467.5 C 220.596,466.715 223.93,467.882 226.5,471C 231.5,472.667 236.5,474.333 241.5,476C 242.056,476.383 242.389,476.883 242.5,477.5C 243.122,479.335 244.456,480.502 246.5,481C 259.61,481.394 272.61,482.727 285.5,485C 311.167,485.667 336.833,485.667 362.5,485C 367.056,484.891 371.389,483.891 375.5,482C 380.5,481.667 385.5,481.333 390.5,481C 395.528,478.49 400.861,476.823 406.5,476C 409.493,474.069 412.493,472.235 415.5,470.5C 417.045,469.548 418.712,469.215 420.5,469.5C 420.664,472.187 420.497,474.854 420,477.5C 418.989,478.337 417.822,478.67 416.5,478.5C 416.649,479.552 416.483,480.552 416,481.5C 413.667,482.413 411.834,483.913 410.5,486C 407.5,486.333 404.5,486.667 401.5,487C 400.833,488.333 399.833,489.333 398.5,490C 392.833,490.333 387.167,490.667 381.5,491C 380.956,491.717 380.289,492.217 379.5,492.5C 377.62,492.229 376.287,492.896 375.5,494.5C 370.213,495.342 364.88,495.676 359.5,495.5C 355.969,494.77 352.303,494.104 348.5,493.5C 324.039,494.157 299.706,494.824 275.5,495.5C 269.41,495.624 263.41,494.958 257.5,493.5C 257.167,492.833 256.833,492.167 256.5,491.5C 250.528,490.67 244.528,490.17 238.5,490C 237.663,488.989 237.33,487.822 237.5,486.5C 233.5,486.5 229.5,486.5 225.5,486.5C 225.67,485.178 225.337,484.011 224.5,483C 221.127,482.899 218.627,481.399 217,478.5C 216.501,474.848 216.335,471.182 216.5,467.5 Z"/></g>
<g><path style="opacity:1" fill="#8bb4c3" d="M 376.5,478.5 C 368.428,480.534 360.094,481.7 351.5,482C 336.176,482.777 320.842,483.277 305.5,483.5C 291.868,483.616 278.535,482.283 265.5,479.5C 283.001,480.348 300.501,481.348 318,482.5C 337.471,480.728 356.971,479.395 376.5,478.5 Z"/></g>
<g><path style="opacity:0.004" fill="#0000d9" d="M 379.5,492.5 C 378.713,494.104 377.38,494.771 375.5,494.5C 376.287,492.896 377.62,492.229 379.5,492.5 Z"/></g>
<g><path style="opacity:0.008" fill="#029c9c" d="M 359.5,495.5 C 331.5,495.5 303.5,495.5 275.5,495.5C 299.706,494.824 324.039,494.157 348.5,493.5C 352.303,494.104 355.969,494.77 359.5,495.5 Z"/></g>
<g><path style="opacity:1" fill="#bcd7e4" d="M 507.5,560.5 C 505.194,560.993 502.861,561.326 500.5,561.5C 378.833,561.667 257.166,561.5 135.5,561C 133.992,558.408 131.992,557.908 129.5,559.5C 129.187,556.753 129.52,554.086 130.5,551.5C 132.297,549.869 133.464,547.869 134,545.5C 135.011,544.663 136.178,544.33 137.5,544.5C 137.5,541.167 139.167,539.5 142.5,539.5C 142.5,537.5 142.5,535.5 142.5,533.5C 145.5,533.833 146.833,532.5 146.5,529.5C 147.833,529.5 149.167,529.5 150.5,529.5C 149.756,526.05 151.09,524.384 154.5,524.5C 154.292,522.08 154.626,519.747 155.5,517.5C 159.557,512.375 163.557,507.208 167.5,502C 268.5,501.333 369.5,501.333 470.5,502C 471.729,503.529 473.229,504.696 475,505.5C 475.497,507.81 475.663,510.143 475.5,512.5C 476.833,512.5 478.167,512.5 479.5,512.5C 479.5,513.833 479.5,515.167 479.5,516.5C 480.822,516.33 481.989,516.663 483,517.5C 484.202,519.677 484.702,522.011 484.5,524.5C 487.91,524.384 489.244,526.05 488.5,529.5C 489.833,529.5 491.167,529.5 492.5,529.5C 492.5,530.833 492.5,532.167 492.5,533.5C 493.822,533.33 494.989,533.663 496,534.5C 496.202,536.256 496.702,537.922 497.5,539.5C 500.822,542.656 503.988,545.989 507,549.5C 507.499,553.152 507.665,556.818 507.5,560.5 Z"/></g>
<g><path style="opacity:1" fill="#d8e3ea" d="M 478.5,532.5 C 473.061,526.214 467.728,519.714 462.5,513C 366.832,512.167 271.165,512.333 175.5,513.5C 171.166,520.324 166.666,526.991 162,533.5C 156.324,539.177 150.991,545.177 146,551.5C 145.333,552.833 145.333,554.167 146,555.5C 261.43,556.499 376.93,556.832 492.5,556.5C 492.66,554.801 492.494,553.134 492,551.5C 489.19,548.536 487.024,545.202 485.5,541.5C 489.878,545.899 493.545,550.899 496.5,556.5C 496.291,557.086 495.957,557.586 495.5,558C 377.264,558.832 259.097,558.665 141,557.5C 140.833,556.833 140.667,556.167 140.5,555.5C 142.086,553.33 143.42,550.996 144.5,548.5C 150.234,542.935 155.734,537.268 161,531.5C 161.36,529.392 162.027,527.392 163,525.5C 167.885,521.282 172.052,516.448 175.5,511C 271.167,510.333 366.833,510.333 462.5,511C 467.912,515.991 472.745,521.491 477,527.5C 477.608,529.154 478.108,530.821 478.5,532.5 Z"/></g>
<g><path style="opacity:1" fill="#e9ebec" d="M 478.5,532.5 C 480.823,534.322 482.989,536.322 485,538.5C 485.483,539.448 485.649,540.448 485.5,541.5C 487.024,545.202 489.19,548.536 492,551.5C 492.494,553.134 492.66,554.801 492.5,556.5C 376.93,556.832 261.43,556.499 146,555.5C 145.333,554.167 145.333,552.833 146,551.5C 150.991,545.177 156.324,539.177 162,533.5C 166.666,526.991 171.166,520.324 175.5,513.5C 271.165,512.333 366.832,512.167 462.5,513C 467.728,519.714 473.061,526.214 478.5,532.5 Z"/></g>
<g><path style="opacity:1" fill="#dce3e7" d="M 253.5,542.5 C 253.611,541.883 253.944,541.383 254.5,541C 256.833,540.667 259.167,540.333 261.5,540C 262.423,537.959 262.756,535.792 262.5,533.5C 259.208,533.88 256.875,532.547 255.5,529.5C 252.833,528.167 250.167,528.167 247.5,529.5C 254.437,534.358 254.104,538.525 246.5,542C 243.447,542.179 240.447,542.679 237.5,543.5C 235.976,545.858 233.976,547.691 231.5,549C 225.167,549.667 218.833,549.667 212.5,549C 210.722,546.865 210.055,544.365 210.5,541.5C 206.486,541.334 202.486,541.501 198.5,542C 197.991,544.57 196.991,546.903 195.5,549C 189.5,549.667 183.5,549.667 177.5,549C 174.987,546.604 173.987,543.604 174.5,540C 174.667,537.833 174.833,535.667 175,533.5C 176.011,532.663 177.178,532.33 178.5,532.5C 178.34,530.801 178.506,529.134 179,527.5C 182.292,525.036 183.792,521.702 183.5,517.5C 192.799,516.415 202.132,516.248 211.5,517C 212.701,517.903 213.535,519.069 214,520.5C 214.318,518.939 215.151,517.772 216.5,517C 220.667,516.833 224.833,516.667 229,516.5C 248.333,516.5 267.667,516.5 287,516.5C 291.167,516.667 295.333,516.833 299.5,517C 300.5,519 301.5,519 302.5,517C 306.167,516.833 309.833,516.667 313.5,516.5C 359.584,516.788 405.584,517.121 451.5,517.5C 454.923,526.453 459.09,535.12 464,543.5C 464.798,545.259 464.631,546.926 463.5,548.5C 456.884,549.628 450.218,549.795 443.5,549C 441.343,547.019 439.676,544.686 438.5,542C 434.848,541.501 431.182,541.335 427.5,541.5C 427.945,544.365 427.278,546.865 425.5,549C 419.167,549.667 412.833,549.667 406.5,549C 401.76,543.797 396.427,539.297 390.5,535.5C 389.558,535.608 388.725,535.941 388,536.5C 387.055,540.114 386.388,543.781 386,547.5C 385.5,548 385,548.5 384.5,549C 340.833,549.667 297.167,549.667 253.5,549C 250.959,546.607 250.959,544.44 253.5,542.5 Z"/></g>
<g><path style="opacity:1" fill="#bcd1da" d="M 253.5,542.5 C 257.167,542.5 260.833,542.5 264.5,542.5C 264.823,539.038 264.823,535.705 264.5,532.5C 260.246,532.08 257.246,529.914 255.5,526C 252.854,525.503 250.187,525.336 247.5,525.5C 247.261,523.533 247.594,521.699 248.5,520C 255.158,519.5 261.825,519.334 268.5,519.5C 268.5,521.5 268.5,523.5 268.5,525.5C 270.833,525.5 273.167,525.5 275.5,525.5C 275.104,522.956 275.771,520.789 277.5,519C 283.5,518.333 289.5,518.333 295.5,519C 296.435,521.381 296.768,523.881 296.5,526.5C 298.527,526.662 300.527,526.495 302.5,526C 303.056,523.763 304.056,521.763 305.5,520C 311.491,519.501 317.491,519.334 323.5,519.5C 323.833,521.5 324.167,523.5 324.5,525.5C 326.5,525.5 328.5,525.5 330.5,525.5C 330.244,523.208 330.577,521.041 331.5,519C 337.5,518.333 343.5,518.333 349.5,519C 350.758,523.256 353.591,525.756 358,526.5C 361.403,528.72 361.236,530.72 357.5,532.5C 356.52,535.086 356.187,537.753 356.5,540.5C 357.93,540.421 359.264,540.754 360.5,541.5C 361.897,539.093 363.23,536.593 364.5,534C 366.473,533.505 368.473,533.338 370.5,533.5C 370.66,531.801 370.494,530.134 370,528.5C 367.489,526.437 364.656,524.937 361.5,524C 360.62,522.644 360.286,521.144 360.5,519.5C 367.257,519.123 373.924,519.623 380.5,521C 381.677,524.349 384.01,525.849 387.5,525.5C 387.261,523.533 387.594,521.699 388.5,520C 395.826,519.5 403.159,519.334 410.5,519.5C 410.689,524.371 413.023,526.038 417.5,524.5C 416.233,522.629 416.233,520.796 417.5,519C 428.24,518.072 438.907,518.405 449.5,520C 450.249,521.734 450.749,523.567 451,525.5C 451.689,526.357 452.522,527.023 453.5,527.5C 455.393,532.868 457.893,537.868 461,542.5C 461.667,543.833 461.667,545.167 461,546.5C 455.25,547.641 449.416,547.807 443.5,547C 441.722,544.865 441.055,542.365 441.5,539.5C 435.158,539.334 428.825,539.5 422.5,540C 422.043,540.414 421.709,540.914 421.5,541.5C 424.824,542.159 426.157,544.159 425.5,547.5C 419.167,547.5 412.833,547.5 406.5,547.5C 407.047,541.753 404.38,539.087 398.5,539.5C 397.974,536.192 399.307,534.026 402.5,533C 399.735,531.903 398.069,529.903 397.5,527C 396.207,526.51 394.873,526.343 393.5,526.5C 393.703,528.39 393.037,529.89 391.5,531C 389.105,531.681 386.772,532.515 384.5,533.5C 386.096,536.615 385.43,539.115 382.5,541C 383.692,543.055 383.692,545.055 382.5,547C 339.833,547.667 297.167,547.667 254.5,547C 253.62,545.644 253.286,544.144 253.5,542.5 Z"/></g>
<g><path style="opacity:1" fill="#bad0d9" d="M 210.5,541.5 C 206.019,540.352 201.352,540.185 196.5,541C 194.951,546.374 191.285,548.541 185.5,547.5C 182.833,547.333 180.167,547.167 177.5,547C 176.978,546.439 176.645,545.772 176.5,545C 180.517,536.324 184.517,527.657 188.5,519C 195.158,518.5 201.825,518.334 208.5,518.5C 208.337,520.857 208.503,523.19 209,525.5C 210.785,526.24 212.618,526.907 214.5,527.5C 215.848,529.611 215.515,531.445 213.5,533C 215.764,533.236 217.931,533.736 220,534.5C 220.497,536.81 220.663,539.143 220.5,541.5C 223.167,541.5 225.833,541.5 228.5,541.5C 228.274,538.751 228.607,536.084 229.5,533.5C 224.995,532.149 223.661,529.315 225.5,525C 223.833,524.667 222.167,524.333 220.5,524C 219.483,522.951 219.316,521.784 220,520.5C 226.744,519.521 233.578,519.188 240.5,519.5C 240.5,521.5 240.5,523.5 240.5,525.5C 242.167,525.5 243.833,525.5 245.5,525.5C 245.5,528.167 245.5,530.833 245.5,533.5C 251.58,534.821 251.913,536.988 246.5,540C 241.845,540.499 237.179,540.666 232.5,540.5C 232.5,542.833 232.5,545.167 232.5,547.5C 225.825,547.666 219.158,547.5 212.5,547C 211.891,545.052 211.224,543.218 210.5,541.5 Z"/></g>
<g><path style="opacity:1" fill="#8db9c9" d="M 500.5,561.5 C 376.979,562.827 253.313,562.827 129.5,561.5C 129.5,560.833 129.5,560.167 129.5,559.5C 131.992,557.908 133.992,558.408 135.5,561C 257.166,561.5 378.833,561.667 500.5,561.5 Z"/></g>
<g><path style="opacity:1" fill="#6da2b3" d="M 507.5,560.5 C 507.5,560.833 507.5,561.167 507.5,561.5C 506.234,562.09 504.901,562.59 503.5,563C 381.167,563.5 258.834,563.667 136.5,563.5C 134.5,563.5 132.5,563.5 130.5,563.5C 130.768,565.099 130.434,566.432 129.5,567.5C 129.5,565.5 129.5,563.5 129.5,561.5C 253.313,562.827 376.979,562.827 500.5,561.5C 502.861,561.326 505.194,560.993 507.5,560.5 Z"/></g>
<g><path style="opacity:1" fill="#518fa0" d="M 507.5,561.5 C 507.5,562.5 507.5,563.5 507.5,564.5C 383.666,564.833 259.999,564.5 136.5,563.5C 258.834,563.667 381.167,563.5 503.5,563C 504.901,562.59 506.234,562.09 507.5,561.5 Z"/></g>
<g><path style="opacity:0.911" fill="#2f7788" d="M 136.5,563.5 C 259.999,564.5 383.666,564.833 507.5,564.5C 507.666,568.514 507.499,572.514 507,576.5C 504.846,577.23 502.679,577.897 500.5,578.5C 499.883,578.389 499.383,578.056 499,577.5C 498.184,578.823 497.017,579.489 495.5,579.5C 378.5,579.5 261.5,579.5 144.5,579.5C 144.649,578.448 144.483,577.448 144,576.5C 142.22,577.639 140.386,578.639 138.5,579.5C 131.73,578.39 128.73,574.39 129.5,567.5C 130.434,566.432 130.768,565.099 130.5,563.5C 132.5,563.5 134.5,563.5 136.5,563.5 Z"/></g>
<g><path style="opacity:0.043" fill="#2e5d74" d="M 495.5,579.5 C 377.764,580.833 259.931,580.833 142,579.5C 141.283,580.044 140.783,580.711 140.5,581.5C 139.167,581.5 138.5,580.833 138.5,579.5C 140.386,578.639 142.22,577.639 144,576.5C 144.483,577.448 144.649,578.448 144.5,579.5C 261.5,579.5 378.5,579.5 495.5,579.5 Z"/></g>
<g><path style="opacity:0.02" fill="#435396" d="M 500.5,578.5 C 500.426,580.411 499.426,581.578 497.5,582C 378.333,582.833 259.333,582.666 140.5,581.5C 140.783,580.711 141.283,580.044 142,579.5C 259.931,580.833 377.764,580.833 495.5,579.5C 497.017,579.489 498.184,578.823 499,577.5C 499.383,578.056 499.883,578.389 500.5,578.5 Z"/></g>
</svg>
