<svg id="svg" version="1.1" xmlns="http://www.w3.org/2000/svg" xmlns:xlink="http://www.w3.org/1999/xlink" width="400" height="400" viewBox="0, 0, 400,400"><g id="svgg"><path id="path0" d="M194.768 43.038 C 194.410 43.469,193.057 43.600,188.951 43.600 C 185.650 43.600,183.600 43.753,183.600 44.000 C 183.600 44.222,182.540 44.400,181.220 44.400 C 179.609 44.400,178.736 44.580,178.520 44.955 C 178.344 45.261,177.840 45.578,177.400 45.659 C 176.936 45.746,176.546 46.185,176.472 46.704 C 176.402 47.197,176.177 47.600,175.972 47.600 C 175.767 47.600,175.600 48.050,175.600 48.600 C 175.600 49.768,174.052 50.026,173.200 49.000 C 172.796 48.513,171.507 48.400,166.338 48.400 C 161.051 48.400,159.936 48.501,159.745 49.000 C 159.555 49.493,158.528 49.600,153.957 49.600 C 150.519 49.600,148.400 49.753,148.400 50.000 C 148.400 50.235,147.000 50.400,145.000 50.400 C 142.244 50.400,141.600 50.514,141.600 51.000 C 141.600 51.443,141.136 51.600,139.824 51.600 C 138.847 51.600,137.936 51.780,137.800 52.000 C 137.664 52.220,136.928 52.400,136.164 52.400 C 135.298 52.400,134.688 52.626,134.545 53.000 C 134.389 53.406,133.753 53.600,132.581 53.600 C 131.627 53.600,130.736 53.780,130.600 54.000 C 130.464 54.220,129.998 54.400,129.564 54.400 C 129.130 54.400,128.671 54.670,128.545 55.000 C 128.418 55.330,127.884 55.600,127.357 55.600 C 126.831 55.600,126.400 55.780,126.400 56.000 C 126.400 56.220,126.034 56.400,125.587 56.400 C 125.141 56.400,124.671 56.670,124.545 57.000 C 124.418 57.330,124.019 57.606,123.657 57.613 C 122.828 57.629,121.600 58.543,121.600 59.144 C 121.600 59.395,121.150 59.600,120.600 59.600 C 120.050 59.600,119.600 59.780,119.600 60.000 C 119.600 60.220,119.330 60.400,119.000 60.400 C 118.670 60.400,118.400 60.670,118.400 61.000 C 118.400 61.330,118.085 61.606,117.700 61.613 C 116.835 61.628,115.600 62.529,115.600 63.144 C 115.600 63.395,115.407 63.600,115.171 63.600 C 114.618 63.600,113.600 64.618,113.600 65.171 C 113.600 65.407,113.216 65.600,112.747 65.600 C 112.278 65.600,111.300 66.230,110.574 67.000 C 109.848 67.770,109.062 68.400,108.827 68.400 C 108.592 68.400,108.400 68.593,108.400 68.829 C 108.400 69.382,107.382 70.400,106.829 70.400 C 106.593 70.400,106.400 70.593,106.400 70.829 C 106.400 71.382,105.382 72.400,104.829 72.400 C 104.593 72.400,104.400 72.593,104.400 72.829 C 104.400 73.382,103.382 74.400,102.829 74.400 C 102.593 74.400,102.400 74.593,102.400 74.829 C 102.400 75.382,101.382 76.400,100.829 76.400 C 100.593 76.400,100.400 76.592,100.400 76.827 C 100.400 77.062,99.770 77.848,99.000 78.574 C 98.230 79.300,97.600 80.278,97.600 80.747 C 97.600 81.216,97.407 81.600,97.171 81.600 C 96.618 81.600,95.600 82.618,95.600 83.171 C 95.600 83.407,95.407 83.600,95.171 83.600 C 94.618 83.600,93.600 84.618,93.600 85.171 C 93.600 85.407,93.428 85.600,93.219 85.600 C 93.009 85.600,92.539 86.230,92.173 87.000 C 91.808 87.770,91.259 88.400,90.954 88.400 C 90.649 88.400,90.400 88.670,90.400 89.000 C 90.400 89.330,90.220 89.600,90.000 89.600 C 89.780 89.600,89.600 90.050,89.600 90.600 C 89.600 91.150,89.407 91.600,89.171 91.600 C 88.618 91.600,87.600 92.618,87.600 93.171 C 87.600 93.407,87.423 93.600,87.208 93.600 C 86.992 93.600,86.711 94.015,86.584 94.523 C 86.456 95.031,85.913 95.776,85.376 96.179 C 84.839 96.582,84.400 97.247,84.400 97.656 C 84.400 98.065,84.220 98.400,84.000 98.400 C 83.780 98.400,83.600 98.670,83.600 99.000 C 83.600 99.330,83.423 99.600,83.208 99.600 C 82.992 99.600,82.702 100.050,82.564 100.600 C 82.426 101.150,82.153 101.600,81.957 101.600 C 81.760 101.600,81.600 102.050,81.600 102.600 C 81.600 103.150,81.395 103.600,81.144 103.600 C 80.529 103.600,79.628 104.835,79.613 105.700 C 79.606 106.085,79.463 106.400,79.295 106.400 C 79.127 106.400,78.812 106.739,78.595 107.154 C 77.975 108.338,74.063 113.404,72.400 115.177 C 72.070 115.529,71.365 116.670,70.834 117.714 C 70.303 118.757,69.628 119.811,69.334 120.055 C 69.040 120.298,68.800 120.684,68.800 120.911 C 68.800 121.139,68.350 121.914,67.800 122.636 C 67.250 123.357,66.800 124.061,66.800 124.202 C 66.800 124.342,66.575 124.708,66.300 125.015 C 65.281 126.151,64.953 126.617,64.692 127.300 C 64.545 127.685,64.239 128.000,64.013 128.000 C 63.786 128.000,63.600 128.450,63.600 129.000 C 63.600 129.550,63.420 130.000,63.200 130.000 C 62.980 130.000,62.800 130.450,62.800 131.000 C 62.800 131.550,62.623 132.000,62.408 132.000 C 62.192 132.000,61.902 132.450,61.764 133.000 C 61.626 133.550,61.353 134.000,61.157 134.000 C 60.960 134.000,60.800 134.366,60.800 134.813 C 60.800 135.259,60.530 135.729,60.200 135.855 C 59.870 135.982,59.600 136.516,59.600 137.043 C 59.600 137.658,59.369 138.000,58.953 138.000 C 58.504 138.000,58.370 138.244,58.516 138.800 C 58.652 139.320,58.528 139.600,58.163 139.600 C 57.804 139.600,57.600 140.036,57.600 140.800 C 57.600 141.591,57.399 142.000,57.010 142.000 C 56.568 142.000,56.480 142.300,56.659 143.194 C 56.836 144.078,56.729 144.452,56.249 144.637 C 55.890 144.774,55.600 145.332,55.600 145.886 C 55.600 146.610,55.435 146.822,55.000 146.655 C 54.567 146.489,54.400 146.699,54.400 147.413 C 54.400 147.956,54.220 148.400,54.000 148.400 C 53.780 148.400,53.600 148.831,53.600 149.357 C 53.600 149.884,53.330 150.418,53.000 150.545 C 52.626 150.688,52.400 151.298,52.400 152.164 C 52.400 152.928,52.220 153.664,52.000 153.800 C 51.780 153.936,51.600 154.847,51.600 155.824 C 51.600 157.136,51.443 157.600,51.000 157.600 C 50.581 157.600,50.400 158.022,50.400 159.000 C 50.400 159.770,50.220 160.400,50.000 160.400 C 49.780 160.400,49.600 161.120,49.600 162.000 C 49.600 163.156,49.433 163.600,49.000 163.600 C 48.547 163.600,48.400 164.089,48.400 165.600 C 48.400 166.700,48.220 167.600,48.000 167.600 C 47.780 167.600,47.600 168.478,47.600 169.551 C 47.600 170.797,47.383 171.682,47.000 172.000 C 46.619 172.317,46.400 173.200,46.400 174.425 C 46.400 175.485,46.220 176.464,46.000 176.600 C 45.780 176.736,45.600 178.289,45.600 180.052 C 45.600 182.368,45.433 183.424,45.000 183.857 C 44.543 184.314,44.400 185.454,44.400 188.629 C 44.400 191.143,44.241 192.800,44.000 192.800 C 43.452 192.800,43.452 218.661,44.000 219.000 C 44.225 219.139,44.400 221.054,44.400 223.375 C 44.400 226.555,44.538 227.616,45.000 228.000 C 45.440 228.365,45.600 229.333,45.600 231.625 C 45.600 233.345,45.780 234.864,46.000 235.000 C 46.220 235.136,46.400 236.214,46.400 237.395 C 46.400 238.771,46.616 239.759,47.000 240.143 C 47.388 240.531,47.600 241.521,47.600 242.948 C 47.600 244.161,47.780 245.264,48.000 245.400 C 48.220 245.536,48.400 246.254,48.400 246.995 C 48.400 247.736,48.670 248.613,49.000 248.943 C 49.330 249.273,49.600 250.171,49.600 250.938 C 49.600 251.705,49.770 252.393,49.979 252.467 C 50.187 252.540,50.400 253.455,50.453 254.500 C 50.517 255.753,50.728 256.400,51.075 256.400 C 51.430 256.400,51.600 256.976,51.600 258.176 C 51.600 259.153,51.780 260.064,52.000 260.200 C 52.220 260.336,52.400 260.887,52.400 261.424 C 52.400 262.025,52.631 262.400,53.000 262.400 C 53.435 262.400,53.600 262.847,53.600 264.024 C 53.600 265.004,53.758 265.549,54.000 265.400 C 54.233 265.256,54.400 265.653,54.400 266.348 C 54.400 267.005,54.670 267.813,55.000 268.143 C 55.330 268.473,55.600 269.116,55.600 269.571 C 55.600 270.027,55.780 270.400,56.000 270.400 C 56.220 270.400,56.400 271.036,56.400 271.813 C 56.400 272.699,56.623 273.311,57.000 273.455 C 57.330 273.582,57.600 274.016,57.600 274.419 C 57.600 274.823,57.780 275.264,58.000 275.400 C 58.220 275.536,58.400 276.002,58.400 276.436 C 58.400 276.870,58.670 277.329,59.000 277.455 C 59.330 277.582,59.613 277.981,59.629 278.343 C 59.645 278.704,60.003 279.540,60.425 280.200 C 60.846 280.860,61.302 281.670,61.438 282.000 C 62.336 284.177,62.846 285.105,63.574 285.883 C 64.028 286.369,64.400 286.954,64.400 287.183 C 64.400 287.412,64.670 287.600,65.000 287.600 C 65.340 287.600,65.600 287.959,65.600 288.429 C 65.600 289.314,66.466 290.400,67.171 290.400 C 67.407 290.400,67.600 290.850,67.600 291.400 C 67.600 291.950,67.780 292.400,68.000 292.400 C 68.220 292.400,68.400 292.670,68.400 293.000 C 68.400 293.330,68.670 293.600,69.000 293.600 C 69.330 293.600,69.606 293.915,69.613 294.300 C 69.628 295.165,70.529 296.400,71.144 296.400 C 71.395 296.400,71.600 296.593,71.600 296.829 C 71.600 297.382,72.618 298.400,73.171 298.400 C 73.407 298.400,73.600 298.627,73.600 298.904 C 73.600 299.181,74.050 299.893,74.600 300.487 C 75.150 301.080,75.600 301.687,75.600 301.835 C 75.600 302.180,77.852 304.306,80.301 306.274 C 81.345 307.113,82.260 307.935,82.333 308.100 C 82.407 308.265,82.722 308.400,83.033 308.400 C 83.345 308.400,83.600 308.593,83.600 308.829 C 83.600 309.382,84.618 310.400,85.171 310.400 C 85.407 310.400,85.600 310.649,85.600 310.954 C 85.600 311.259,86.230 311.808,87.000 312.173 C 87.770 312.539,88.400 313.009,88.400 313.219 C 88.400 313.428,88.627 313.600,88.905 313.600 C 89.183 313.600,89.748 314.050,90.161 314.600 C 90.574 315.150,91.247 315.600,91.656 315.600 C 92.065 315.600,92.400 315.780,92.400 316.000 C 92.400 316.220,92.670 316.400,93.000 316.400 C 93.330 316.400,93.600 316.670,93.600 317.000 C 93.600 317.331,93.955 317.600,94.393 317.600 C 94.829 317.600,95.834 318.230,96.627 319.000 C 97.420 319.770,98.413 320.400,98.834 320.400 C 99.255 320.400,99.600 320.670,99.600 321.000 C 99.600 321.330,99.941 321.600,100.358 321.600 C 100.775 321.600,101.540 322.047,102.058 322.593 C 102.576 323.139,103.253 323.589,103.562 323.593 C 103.871 323.597,104.714 324.050,105.436 324.600 C 106.157 325.150,106.939 325.600,107.173 325.600 C 107.408 325.600,107.600 325.780,107.600 326.000 C 107.600 326.220,108.050 326.400,108.600 326.400 C 109.222 326.400,109.600 326.627,109.600 327.000 C 109.600 327.373,109.978 327.600,110.600 327.600 C 111.150 327.600,111.600 327.780,111.600 328.000 C 111.600 328.220,112.050 328.400,112.600 328.400 C 113.222 328.400,113.600 328.627,113.600 329.000 C 113.600 329.373,113.978 329.600,114.600 329.600 C 115.150 329.600,115.600 329.780,115.600 330.000 C 115.600 330.220,116.050 330.400,116.600 330.400 C 117.222 330.400,117.600 330.627,117.600 331.000 C 117.600 331.373,117.978 331.600,118.600 331.600 C 119.150 331.600,119.600 331.780,119.600 332.000 C 119.600 332.220,120.050 332.400,120.600 332.400 C 121.222 332.400,121.600 332.627,121.600 333.000 C 121.600 333.397,121.997 333.600,122.776 333.600 C 123.423 333.600,124.064 333.780,124.200 334.000 C 124.336 334.220,124.977 334.400,125.624 334.400 C 126.425 334.400,126.800 334.600,126.800 335.027 C 126.800 335.484,127.030 335.581,127.648 335.385 C 128.114 335.237,128.879 335.293,129.348 335.510 C 129.816 335.727,131.010 336.217,132.000 336.600 C 132.990 336.983,134.250 337.471,134.800 337.685 C 135.350 337.899,136.310 338.327,136.932 338.637 C 137.555 338.947,138.400 339.200,138.809 339.200 C 139.218 339.200,139.651 339.359,139.771 339.554 C 139.892 339.749,140.487 339.994,141.095 340.100 C 142.257 340.303,146.519 341.746,148.660 342.661 C 149.354 342.958,150.198 343.200,150.537 343.200 C 150.876 343.200,151.264 343.380,151.400 343.600 C 151.536 343.820,152.029 344.000,152.495 344.000 C 152.962 344.000,153.896 344.174,154.572 344.387 C 157.731 345.382,166.519 347.628,168.286 347.892 C 168.993 347.998,169.780 348.335,170.035 348.642 C 170.290 348.949,170.817 349.200,171.206 349.200 C 171.596 349.200,172.018 349.470,172.145 349.800 C 172.271 350.130,172.831 350.400,173.387 350.400 C 174.021 350.400,174.400 350.625,174.400 351.000 C 174.400 351.417,174.820 351.600,175.776 351.600 C 176.533 351.600,177.264 351.780,177.400 352.000 C 177.536 352.220,178.247 352.400,178.981 352.400 C 179.797 352.400,180.404 352.633,180.545 353.000 C 180.689 353.377,181.301 353.600,182.187 353.600 C 182.964 353.600,183.600 353.780,183.600 354.000 C 183.600 354.221,184.652 354.400,185.957 354.400 C 187.684 354.400,188.376 354.561,188.545 355.000 C 188.707 355.423,189.368 355.600,190.787 355.600 C 191.894 355.600,192.800 355.780,192.800 356.000 C 192.800 356.235,194.200 356.400,196.200 356.400 C 198.956 356.400,199.600 356.514,199.600 357.000 C 199.600 357.520,201.197 357.600,211.571 357.600 C 221.679 357.600,223.636 357.507,224.143 357.000 C 224.540 356.603,225.537 356.400,227.091 356.400 C 228.383 356.400,229.611 356.234,229.820 356.031 C 230.029 355.828,230.920 355.587,231.800 355.495 C 232.736 355.398,233.359 355.136,233.300 354.864 C 233.237 354.573,233.795 354.400,234.800 354.400 C 235.680 354.400,236.400 354.220,236.400 354.000 C 236.400 353.780,237.036 353.600,237.813 353.600 C 238.699 353.600,239.311 353.377,239.455 353.000 C 239.597 352.630,240.205 352.400,241.043 352.400 C 241.789 352.400,242.400 352.220,242.400 352.000 C 242.400 351.780,242.850 351.600,243.400 351.600 C 244.022 351.600,244.400 351.373,244.400 351.000 C 244.400 350.627,244.778 350.400,245.400 350.400 C 245.950 350.400,246.400 350.220,246.400 350.000 C 246.400 349.780,246.918 349.600,247.551 349.600 C 248.184 349.600,248.926 349.330,249.200 349.000 C 249.474 348.670,250.025 348.400,250.425 348.400 C 250.825 348.400,251.264 348.220,251.400 348.000 C 251.536 347.780,252.002 347.600,252.436 347.600 C 252.870 347.600,253.329 347.330,253.455 347.000 C 253.582 346.670,254.026 346.400,254.443 346.400 C 254.859 346.400,255.200 346.220,255.200 346.000 C 255.200 345.780,255.451 345.600,255.757 345.600 C 256.064 345.600,256.418 345.330,256.545 345.000 C 256.671 344.670,257.141 344.400,257.587 344.400 C 258.034 344.400,258.400 344.220,258.400 344.000 C 258.400 343.780,258.850 343.600,259.400 343.600 C 260.022 343.600,260.400 343.373,260.400 343.000 C 260.400 342.670,260.734 342.400,261.142 342.400 C 261.549 342.400,262.369 341.950,262.962 341.400 C 263.556 340.850,264.257 340.394,264.521 340.387 C 265.204 340.369,266.400 339.395,266.400 338.856 C 266.400 338.602,267.019 338.400,267.800 338.400 C 268.570 338.400,269.200 338.220,269.200 338.000 C 269.200 337.780,269.538 337.600,269.951 337.600 C 270.364 337.600,270.926 337.330,271.200 337.000 C 271.474 336.670,272.036 336.400,272.449 336.400 C 272.862 336.400,273.200 336.240,273.200 336.043 C 273.200 335.847,273.650 335.574,274.200 335.436 C 274.750 335.298,275.200 335.008,275.200 334.792 C 275.200 334.577,275.470 334.400,275.800 334.400 C 276.130 334.400,276.400 334.220,276.400 334.000 C 276.400 333.780,276.837 333.600,277.371 333.600 C 277.906 333.600,278.613 333.330,278.943 333.000 C 279.273 332.670,279.736 332.400,279.971 332.400 C 280.207 332.400,280.400 332.220,280.400 332.000 C 280.400 331.780,280.766 331.600,281.213 331.600 C 281.659 331.600,282.129 331.330,282.255 331.000 C 282.382 330.670,282.736 330.400,283.043 330.400 C 283.349 330.400,283.600 330.220,283.600 330.000 C 283.600 329.780,283.966 329.600,284.413 329.600 C 284.859 329.600,285.329 329.330,285.455 329.000 C 285.582 328.670,285.981 328.394,286.343 328.387 C 287.172 328.371,288.400 327.457,288.400 326.856 C 288.400 326.605,288.850 326.400,289.400 326.400 C 289.950 326.400,290.400 326.241,290.400 326.047 C 290.400 325.852,290.715 325.588,291.100 325.458 C 292.568 324.965,294.400 323.506,294.400 322.829 C 294.400 322.593,294.784 322.400,295.254 322.400 C 295.724 322.400,296.496 321.982,296.969 321.471 C 297.443 320.960,298.408 320.286,299.115 319.974 C 299.822 319.661,300.400 319.179,300.400 318.902 C 300.400 318.626,300.593 318.400,300.829 318.400 C 301.335 318.400,302.400 317.401,302.400 316.926 C 302.400 316.744,302.904 316.372,303.520 316.100 C 304.135 315.827,305.887 314.433,307.413 313.002 C 308.939 311.571,310.370 310.398,310.594 310.396 C 310.817 310.394,312.769 308.594,314.932 306.396 C 317.094 304.198,318.952 302.400,319.060 302.400 C 319.428 302.400,320.400 301.259,320.400 300.829 C 320.400 300.593,320.605 300.400,320.856 300.400 C 321.471 300.400,322.372 299.165,322.387 298.300 C 322.394 297.915,322.670 297.600,323.000 297.600 C 323.330 297.600,323.600 297.407,323.600 297.171 C 323.600 296.618,324.618 295.600,325.171 295.600 C 325.407 295.600,325.600 295.408,325.600 295.173 C 325.600 294.938,326.230 294.152,327.000 293.426 C 327.770 292.700,328.400 291.722,328.400 291.253 C 328.400 290.784,328.593 290.400,328.829 290.400 C 329.362 290.400,330.400 289.390,330.400 288.871 C 330.400 288.659,330.670 288.382,331.000 288.255 C 331.330 288.129,331.600 287.702,331.600 287.307 C 331.600 286.913,332.050 286.252,332.600 285.839 C 333.150 285.426,333.600 284.753,333.600 284.344 C 333.600 283.935,333.780 283.600,334.000 283.600 C 334.220 283.600,334.400 283.330,334.400 283.000 C 334.400 282.670,334.670 282.400,335.000 282.400 C 335.330 282.400,335.600 282.059,335.600 281.642 C 335.600 281.225,336.047 280.460,336.593 279.942 C 337.139 279.424,337.589 278.685,337.593 278.300 C 337.597 277.915,337.780 277.600,338.000 277.600 C 338.220 277.600,338.400 277.150,338.400 276.600 C 338.400 275.978,338.627 275.600,339.000 275.600 C 339.373 275.600,339.600 275.222,339.600 274.600 C 339.600 274.050,339.759 273.600,339.953 273.600 C 340.148 273.600,340.416 273.285,340.549 272.900 C 340.682 272.515,341.140 271.660,341.566 271.000 C 341.993 270.340,342.355 269.504,342.371 269.143 C 342.387 268.781,342.670 268.382,343.000 268.255 C 343.351 268.121,343.600 267.521,343.600 266.813 C 343.600 266.146,343.780 265.600,344.000 265.600 C 344.220 265.600,344.400 265.172,344.400 264.649 C 344.400 264.126,344.670 263.474,345.000 263.200 C 345.330 262.926,345.600 262.184,345.600 261.551 C 345.600 260.918,345.780 260.400,346.000 260.400 C 346.220 260.400,346.400 259.972,346.400 259.449 C 346.400 258.926,346.670 258.274,347.000 258.000 C 347.330 257.726,347.600 257.085,347.600 256.575 C 347.600 256.065,347.780 255.536,348.000 255.400 C 348.220 255.264,348.400 254.555,348.400 253.825 C 348.400 253.095,348.670 252.274,349.000 252.000 C 349.345 251.714,349.600 250.842,349.600 249.951 C 349.600 249.098,349.780 248.400,350.000 248.400 C 350.220 248.400,350.400 247.500,350.400 246.400 C 350.400 244.889,350.547 244.400,351.000 244.400 C 351.432 244.400,351.600 243.958,351.600 242.824 C 351.600 241.957,351.780 241.136,352.000 241.000 C 352.220 240.864,352.400 239.613,352.400 238.219 C 352.400 236.336,352.554 235.626,353.000 235.455 C 353.441 235.286,353.600 234.591,353.600 232.836 C 353.600 231.522,353.780 230.336,354.000 230.200 C 354.220 230.064,354.400 228.543,354.400 226.819 C 354.400 224.403,354.537 223.633,355.000 223.455 C 355.483 223.270,355.600 222.366,355.600 218.813 C 355.600 216.138,355.758 214.400,356.000 214.400 C 356.255 214.400,356.400 210.990,356.400 204.971 C 356.400 197.124,356.501 195.442,357.000 194.943 C 357.330 194.613,357.600 194.189,357.600 194.000 C 357.600 193.811,357.330 193.387,357.000 193.057 C 356.504 192.561,356.400 190.968,356.400 183.852 C 356.400 178.547,356.247 175.152,356.000 175.000 C 355.780 174.864,355.600 173.156,355.600 171.205 C 355.600 168.585,355.443 167.500,355.000 167.057 C 354.598 166.656,354.400 165.654,354.400 164.029 C 354.400 162.676,354.223 161.600,354.000 161.600 C 353.780 161.600,353.600 160.784,353.600 159.787 C 353.600 158.545,353.411 157.902,353.000 157.745 C 352.562 157.576,352.400 156.886,352.400 155.181 C 352.400 153.897,352.220 152.736,352.000 152.600 C 351.780 152.464,351.600 151.733,351.600 150.976 C 351.600 150.020,351.417 149.600,351.000 149.600 C 350.567 149.600,350.400 149.156,350.400 148.000 C 350.400 147.120,350.220 146.400,350.000 146.400 C 349.780 146.400,349.600 145.854,349.600 145.187 C 349.600 144.479,349.351 143.879,349.000 143.745 C 348.630 143.603,348.400 142.995,348.400 142.157 C 348.400 141.411,348.220 140.800,348.000 140.800 C 347.780 140.800,347.600 140.344,347.600 139.787 C 347.600 139.231,347.330 138.671,347.000 138.545 C 346.670 138.418,346.400 137.884,346.400 137.357 C 346.400 136.831,346.220 136.400,346.000 136.400 C 345.780 136.400,345.600 135.950,345.600 135.400 C 345.600 134.778,345.373 134.400,345.000 134.400 C 344.627 134.400,344.400 134.022,344.400 133.400 C 344.400 132.850,344.220 132.400,344.000 132.400 C 343.780 132.400,343.600 131.972,343.600 131.449 C 343.600 130.926,343.330 130.274,343.000 130.000 C 342.670 129.726,342.400 129.290,342.400 129.031 C 342.400 128.153,341.403 126.406,340.900 126.403 C 340.625 126.401,340.400 125.950,340.400 125.400 C 340.400 124.850,340.220 124.400,340.000 124.400 C 339.780 124.400,339.600 124.065,339.600 123.656 C 339.600 123.247,339.150 122.574,338.600 122.161 C 338.049 121.747,337.600 121.004,337.600 120.505 C 337.600 119.967,337.357 119.600,337.000 119.600 C 336.627 119.600,336.400 119.222,336.400 118.600 C 336.400 118.050,336.220 117.600,336.000 117.600 C 335.780 117.600,335.600 117.169,335.600 116.643 C 335.600 116.116,335.330 115.582,335.000 115.455 C 334.670 115.329,334.400 114.857,334.400 114.407 C 334.400 113.458,333.623 111.943,332.900 111.480 C 332.625 111.304,332.400 110.809,332.400 110.380 C 332.400 109.951,332.220 109.600,332.000 109.600 C 331.780 109.600,331.600 109.150,331.600 108.600 C 331.600 107.978,331.373 107.600,331.000 107.600 C 330.627 107.600,330.400 107.222,330.400 106.600 C 330.400 106.050,330.220 105.600,330.000 105.600 C 329.780 105.600,329.600 105.330,329.600 105.000 C 329.600 104.670,329.330 104.400,329.000 104.400 C 328.643 104.400,328.400 104.033,328.400 103.495 C 328.400 102.996,327.951 102.253,327.400 101.839 C 326.850 101.426,326.400 100.819,326.400 100.491 C 326.400 100.163,325.793 99.322,325.051 98.622 C 324.308 97.922,323.576 96.956,323.424 96.475 C 323.271 95.994,322.978 95.600,322.773 95.600 C 322.568 95.600,322.400 95.407,322.400 95.171 C 322.400 94.618,321.382 93.600,320.829 93.600 C 320.593 93.600,320.400 93.407,320.400 93.171 C 320.400 92.936,320.175 92.492,319.900 92.185 C 318.819 90.980,318.400 90.424,318.400 90.194 C 318.400 89.502,307.952 79.600,307.223 79.600 C 306.770 79.600,306.400 79.407,306.400 79.171 C 306.400 78.618,305.382 77.600,304.829 77.600 C 304.593 77.600,304.400 77.351,304.400 77.046 C 304.400 76.741,303.770 76.192,303.000 75.827 C 302.230 75.461,301.600 74.991,301.600 74.781 C 301.600 74.572,301.423 74.400,301.207 74.400 C 300.991 74.400,300.166 73.770,299.373 73.000 C 298.580 72.230,297.587 71.600,297.166 71.600 C 296.745 71.600,296.400 71.395,296.400 71.144 C 296.400 70.529,295.165 69.628,294.300 69.613 C 293.915 69.606,293.600 69.330,293.600 69.000 C 293.600 68.670,293.330 68.400,293.000 68.400 C 292.670 68.400,292.400 68.220,292.400 68.000 C 292.400 67.780,291.950 67.600,291.400 67.600 C 290.850 67.600,290.400 67.395,290.400 67.144 C 290.400 66.529,289.165 65.628,288.300 65.613 C 287.915 65.606,287.600 65.330,287.600 65.000 C 287.600 64.670,287.330 64.400,287.000 64.400 C 286.670 64.400,286.400 64.220,286.400 64.000 C 286.400 63.780,285.950 63.600,285.400 63.600 C 284.778 63.600,284.400 63.373,284.400 63.000 C 284.400 62.627,284.022 62.400,283.400 62.400 C 282.850 62.400,282.400 62.220,282.400 62.000 C 282.400 61.780,281.950 61.600,281.400 61.600 C 280.778 61.600,280.400 61.373,280.400 61.000 C 280.400 60.627,280.022 60.400,279.400 60.400 C 278.850 60.400,278.400 60.220,278.400 60.000 C 278.400 59.780,277.950 59.600,277.400 59.600 C 276.850 59.600,276.400 59.395,276.400 59.144 C 276.400 58.543,275.172 57.629,274.343 57.613 C 273.981 57.606,273.582 57.330,273.455 57.000 C 273.311 56.623,272.699 56.400,271.813 56.400 C 271.036 56.400,270.400 56.220,270.400 56.000 C 270.400 55.780,269.950 55.600,269.400 55.600 C 268.778 55.600,268.400 55.373,268.400 55.000 C 268.400 54.627,268.022 54.400,267.400 54.400 C 266.850 54.400,266.400 54.220,266.400 54.000 C 266.400 53.780,265.770 53.600,265.000 53.600 C 264.022 53.600,263.600 53.419,263.600 53.000 C 263.600 52.627,263.222 52.400,262.600 52.400 C 262.050 52.400,261.600 52.220,261.600 52.000 C 261.600 51.780,261.169 51.600,260.643 51.600 C 260.116 51.600,259.582 51.330,259.455 51.000 C 259.311 50.623,258.699 50.400,257.813 50.400 C 257.036 50.400,256.400 50.220,256.400 50.000 C 256.400 49.780,255.500 49.600,254.400 49.600 C 252.889 49.600,252.400 49.453,252.400 49.000 C 252.400 48.581,251.978 48.400,251.000 48.400 C 250.230 48.400,249.600 48.220,249.600 48.000 C 249.600 47.780,248.880 47.600,248.000 47.600 C 246.844 47.600,246.400 47.433,246.400 47.000 C 246.400 46.533,245.867 46.400,244.000 46.400 C 242.667 46.400,241.600 46.222,241.600 46.000 C 241.600 45.774,240.467 45.600,239.000 45.600 C 236.956 45.600,236.400 45.472,236.400 45.000 C 236.400 44.521,235.803 44.400,233.429 44.400 C 231.321 44.400,230.283 44.574,229.857 45.000 C 228.859 45.998,226.120 45.771,225.035 44.600 C 224.440 43.957,223.675 43.600,222.897 43.600 C 222.189 43.600,221.590 43.351,221.455 43.000 C 221.289 42.566,220.609 42.400,219.000 42.400 C 217.391 42.400,216.711 42.566,216.545 43.000 C 216.204 43.888,207.925 43.874,207.187 42.984 C 206.475 42.126,195.486 42.174,194.768 43.038 M240.871 59.949 C 243.507 60.535,255.778 64.677,258.312 65.835 C 259.473 66.366,260.496 66.800,260.584 66.800 C 260.737 66.800,265.107 68.732,267.200 69.725 C 267.750 69.986,269.280 70.803,270.600 71.539 C 274.742 73.850,277.351 75.304,278.800 76.106 C 279.570 76.532,280.470 77.112,280.800 77.394 C 281.130 77.676,283.146 79.084,285.280 80.523 C 298.893 89.702,317.819 109.569,326.127 123.400 C 328.564 127.458,332.259 138.061,334.980 148.800 C 336.656 155.417,336.700 155.612,337.346 159.200 C 338.227 164.100,338.332 164.658,339.037 168.200 C 339.387 169.960,339.814 172.660,339.985 174.200 C 340.157 175.740,340.619 179.700,341.012 183.000 C 342.301 193.818,341.992 214.317,340.418 222.400 C 339.527 226.974,338.741 230.703,338.437 231.800 C 334.405 246.317,327.809 260.496,319.644 272.200 C 318.723 273.520,317.662 275.049,317.285 275.598 C 315.200 278.637,309.702 285.643,305.827 290.200 C 299.355 297.813,281.998 314.168,274.600 319.625 C 273.280 320.599,272.110 321.499,272.000 321.625 C 271.530 322.163,262.093 328.745,261.000 329.297 C 258.539 330.539,252.977 332.716,250.200 333.523 C 249.320 333.779,247.430 334.360,246.000 334.814 C 243.371 335.649,235.793 337.426,232.301 338.025 C 231.257 338.205,230.267 338.433,230.101 338.532 C 229.935 338.631,227.370 338.995,224.400 339.340 C 204.708 341.630,187.218 341.295,172.200 338.339 C 167.259 337.367,150.830 330.056,140.754 324.347 C 136.979 322.208,135.750 321.517,133.000 319.991 C 130.963 318.860,126.918 316.279,119.000 311.058 C 118.120 310.478,116.828 309.597,116.129 309.101 C 115.430 308.606,113.540 307.289,111.929 306.176 C 100.849 298.519,83.994 283.088,77.319 274.491 C 75.828 272.571,74.279 270.640,73.876 270.200 C 73.133 269.388,66.000 258.173,66.000 257.816 C 66.000 257.709,65.571 256.672,65.046 255.511 C 64.521 254.350,63.685 252.500,63.188 251.400 C 62.691 250.300,61.846 247.870,61.309 246.000 C 60.773 244.130,60.151 241.970,59.928 241.200 C 55.390 225.544,56.771 193.904,62.992 171.000 C 63.350 169.680,63.791 167.970,63.970 167.200 C 64.321 165.694,65.550 161.785,66.987 157.600 C 67.478 156.170,68.107 154.280,68.386 153.400 C 68.664 152.520,69.123 151.260,69.406 150.600 C 69.689 149.940,70.926 146.929,72.155 143.910 C 74.370 138.468,79.247 128.234,81.643 124.000 C 82.327 122.790,83.339 120.990,83.891 120.000 C 87.771 113.043,88.819 111.544,92.386 107.857 C 100.069 99.915,112.464 91.820,125.200 86.426 C 126.410 85.914,128.300 85.086,129.400 84.587 C 133.101 82.906,141.781 79.338,144.000 78.585 C 145.210 78.175,146.371 77.695,146.580 77.519 C 146.789 77.344,147.212 77.200,147.520 77.200 C 147.827 77.200,148.646 76.941,149.340 76.625 C 151.189 75.781,170.854 69.123,181.600 65.703 C 184.350 64.827,188.466 63.517,190.746 62.790 L 194.892 61.469 203.146 61.948 C 207.686 62.211,213.830 62.614,216.800 62.843 C 226.547 63.595,233.369 62.488,235.607 59.792 C 236.186 59.094,237.162 59.123,240.871 59.949 M164.925 60.259 C 165.128 60.462,156.539 63.585,149.200 65.977 C 146.513 66.853,134.047 71.630,131.400 72.798 C 130.520 73.186,128.270 74.137,126.400 74.910 C 124.530 75.683,120.867 77.334,118.261 78.578 C 112.199 81.472,111.975 81.315,116.270 77.182 C 122.847 70.853,131.982 65.124,138.200 63.428 C 139.520 63.068,141.140 62.617,141.800 62.425 C 142.460 62.233,144.170 61.870,145.600 61.618 C 147.030 61.367,149.370 60.923,150.800 60.632 C 153.477 60.088,164.464 59.797,164.925 60.259 M240.664 134.700 C 240.563 134.865,239.539 136.800,238.387 139.000 C 236.180 143.216,234.589 146.136,231.148 152.288 C 230.240 153.911,228.205 157.668,225.995 161.800 C 223.827 165.854,222.267 168.701,219.200 174.200 C 218.832 174.860,217.936 176.471,217.209 177.779 C 216.482 179.088,215.013 181.679,213.944 183.537 C 212.875 185.395,212.000 186.975,212.000 187.050 C 212.000 187.124,211.370 188.169,210.600 189.373 C 209.830 190.577,209.200 191.662,209.200 191.785 C 209.200 191.908,208.300 193.445,207.200 195.200 C 206.100 196.955,205.200 198.511,205.200 198.658 C 205.200 198.805,204.750 199.514,204.200 200.236 C 203.650 200.957,203.200 201.661,203.200 201.800 C 203.200 201.939,202.750 202.643,202.200 203.364 C 201.650 204.086,201.200 204.785,201.200 204.919 C 201.200 206.738,196.107 211.719,195.101 210.884 C 194.814 210.645,192.873 209.570,190.789 208.495 C 186.814 206.444,183.022 204.369,181.000 203.138 C 180.340 202.736,179.531 202.279,179.202 202.123 C 178.873 201.967,177.198 200.967,175.479 199.901 C 173.760 198.835,170.519 197.026,168.277 195.881 C 166.035 194.737,164.140 193.665,164.067 193.500 C 163.993 193.335,163.648 193.200,163.298 193.200 C 162.949 193.200,162.379 192.967,162.031 192.681 C 160.872 191.729,153.223 188.306,152.701 188.506 C 152.418 188.614,151.924 189.220,151.603 189.852 C 151.281 190.483,150.578 191.720,150.039 192.600 C 149.501 193.480,146.870 198.520,144.192 203.800 C 141.514 209.080,138.423 214.952,137.324 216.849 C 134.760 221.273,134.649 221.578,135.507 221.851 C 136.365 222.125,138.482 222.981,141.800 224.395 C 147.905 226.997,164.023 235.109,169.450 238.311 C 171.205 239.346,173.062 240.394,176.990 242.563 C 178.445 243.367,198.997 256.149,199.200 256.376 C 199.310 256.499,199.760 256.817,200.200 257.083 C 200.640 257.349,203.250 258.985,206.000 260.719 C 215.807 266.902,216.921 267.207,218.469 264.132 C 219.005 263.070,220.048 261.120,220.787 259.800 C 222.576 256.605,223.221 255.448,224.800 252.600 C 225.533 251.280,226.450 249.660,226.839 249.000 C 227.229 248.340,227.909 247.138,228.352 246.329 C 229.768 243.741,230.195 243.005,230.400 242.800 C 230.510 242.690,230.796 242.240,231.037 241.800 C 232.839 238.497,234.321 235.914,237.006 231.400 C 238.708 228.540,240.554 225.390,241.110 224.400 C 241.666 223.410,242.724 221.652,243.460 220.492 C 244.197 219.333,244.800 218.296,244.800 218.188 C 244.800 218.080,245.700 216.555,246.800 214.800 C 247.900 213.045,248.800 211.534,248.800 211.442 C 248.800 211.351,250.420 208.542,252.400 205.200 C 254.380 201.858,256.000 199.034,256.000 198.924 C 256.000 198.814,256.343 198.241,256.763 197.652 C 257.183 197.063,258.870 193.975,260.512 190.790 C 262.154 187.606,264.539 183.020,265.811 180.600 C 274.249 164.551,278.525 155.554,277.966 155.027 C 277.354 154.450,274.721 152.971,269.022 150.003 C 267.030 148.965,264.680 147.707,263.800 147.207 C 262.920 146.707,260.850 145.569,259.200 144.679 C 257.550 143.789,255.529 142.642,254.708 142.130 C 253.887 141.619,253.119 141.200,253.001 141.200 C 252.883 141.200,251.335 140.300,249.561 139.200 C 247.788 138.100,246.252 137.200,246.149 137.200 C 246.046 137.200,244.977 136.570,243.773 135.800 C 241.534 134.368,240.985 134.174,240.664 134.700 M271.400 144.400 C 271.536 144.620,271.800 144.800,271.986 144.800 C 272.173 144.800,274.144 145.880,276.367 147.200 C 280.646 149.741,281.369 149.978,281.755 148.972 C 281.941 148.487,281.104 147.936,278.098 146.561 C 275.954 145.581,273.887 144.603,273.505 144.389 C 272.596 143.879,271.083 143.887,271.400 144.400 M147.815 183.185 C 146.620 184.409,146.351 184.911,146.702 185.262 C 147.284 185.844,148.191 185.164,149.051 183.502 C 150.032 181.604,149.494 181.466,147.815 183.185 M128.000 219.400 C 128.000 219.730,128.180 220.000,128.400 220.000 C 128.620 220.000,128.800 219.730,128.800 219.400 C 128.800 219.070,128.620 218.800,128.400 218.800 C 128.180 218.800,128.000 219.070,128.000 219.400 M126.973 221.100 C 126.742 221.485,126.150 222.466,125.656 223.281 L 124.759 224.761 126.679 225.634 C 127.736 226.113,129.770 227.036,131.200 227.684 C 132.630 228.332,134.323 229.118,134.961 229.431 C 136.332 230.103,136.800 230.146,136.800 229.600 C 136.800 229.380,136.440 229.200,136.000 229.200 C 135.560 229.200,135.200 229.038,135.200 228.840 C 135.200 228.520,133.521 227.502,130.903 226.234 C 130.410 225.995,130.005 225.665,130.003 225.500 C 130.001 225.335,129.758 225.200,129.462 225.200 C 128.313 225.200,127.483 223.690,127.708 222.009 C 127.938 220.297,127.660 219.954,126.973 221.100 " stroke="none" fill="#c6d0f5" fill-rule="evenodd"></path><path id="path1" d="M235.607 59.792 C 233.369 62.488,226.547 63.595,216.800 62.843 C 213.830 62.614,207.686 62.211,203.146 61.948 L 194.892 61.469 190.746 62.790 C 188.466 63.517,184.350 64.827,181.600 65.703 C 170.854 69.123,151.189 75.781,149.340 76.625 C 148.646 76.941,147.827 77.200,147.520 77.200 C 147.212 77.200,146.789 77.344,146.580 77.519 C 146.371 77.695,145.210 78.175,144.000 78.585 C 141.781 79.338,133.101 82.906,129.400 84.587 C 128.300 85.086,126.410 85.914,125.200 86.426 C 112.464 91.820,100.069 99.915,92.386 107.857 C 88.819 111.544,87.771 113.043,83.891 120.000 C 83.339 120.990,82.327 122.790,81.643 124.000 C 79.247 128.234,74.370 138.468,72.155 143.910 C 70.926 146.929,69.689 149.940,69.406 150.600 C 69.123 151.260,68.664 152.520,68.386 153.400 C 68.107 154.280,67.478 156.170,66.987 157.600 C 65.550 161.785,64.321 165.694,63.970 167.200 C 63.791 167.970,63.350 169.680,62.992 171.000 C 59.417 184.161,57.211 201.179,57.209 215.600 C 57.208 224.723,58.397 235.917,59.928 241.200 C 60.151 241.970,60.773 244.130,61.309 246.000 C 61.846 247.870,62.691 250.300,63.188 251.400 C 63.685 252.500,64.521 254.350,65.046 255.511 C 65.571 256.672,66.000 257.709,66.000 257.816 C 66.000 258.173,73.133 269.388,73.876 270.200 C 74.279 270.640,75.828 272.571,77.319 274.491 C 83.994 283.088,100.849 298.519,111.929 306.176 C 113.540 307.289,115.430 308.606,116.129 309.101 C 116.828 309.597,118.120 310.478,119.000 311.058 C 126.918 316.279,130.963 318.860,133.000 319.991 C 135.750 321.517,136.979 322.208,140.754 324.347 C 150.830 330.056,167.259 337.367,172.200 338.339 C 187.218 341.295,204.708 341.630,224.400 339.340 C 227.370 338.995,229.935 338.631,230.101 338.532 C 230.267 338.433,231.257 338.205,232.301 338.025 C 235.793 337.426,243.371 335.649,246.000 334.814 C 247.430 334.360,249.320 333.779,250.200 333.523 C 252.977 332.716,258.539 330.539,261.000 329.297 C 262.093 328.745,271.530 322.163,272.000 321.625 C 272.110 321.499,273.280 320.599,274.600 319.625 C 281.998 314.168,299.355 297.813,305.827 290.200 C 309.702 285.643,315.200 278.637,317.285 275.598 C 317.662 275.049,318.723 273.520,319.644 272.200 C 327.809 260.496,334.405 246.317,338.437 231.800 C 338.741 230.703,339.527 226.974,340.418 222.400 C 341.992 214.317,342.301 193.818,341.012 183.000 C 340.619 179.700,340.157 175.740,339.985 174.200 C 339.814 172.660,339.387 169.960,339.037 168.200 C 338.332 164.658,338.227 164.100,337.346 159.200 C 337.009 157.330,336.578 155.170,336.389 154.400 C 334.131 145.243,332.572 139.698,330.990 135.200 C 327.171 124.335,326.782 123.628,318.800 113.080 C 309.931 101.360,295.737 87.574,285.280 80.523 C 283.146 79.084,281.130 77.676,280.800 77.394 C 280.470 77.112,279.570 76.532,278.800 76.106 C 277.351 75.304,274.742 73.850,270.600 71.539 C 269.280 70.803,267.750 69.986,267.200 69.725 C 265.107 68.732,260.737 66.800,260.584 66.800 C 260.496 66.800,259.473 66.366,258.312 65.835 C 250.254 62.152,236.653 58.532,235.607 59.792 M150.800 60.632 C 149.370 60.923,147.030 61.367,145.600 61.618 C 144.170 61.870,142.460 62.233,141.800 62.425 C 141.140 62.617,139.520 63.068,138.200 63.428 C 131.982 65.124,122.847 70.853,116.270 77.182 C 111.975 81.315,112.199 81.472,118.261 78.578 C 120.867 77.334,124.530 75.683,126.400 74.910 C 128.270 74.137,130.520 73.186,131.400 72.798 C 134.047 71.630,146.513 66.853,149.200 65.977 C 156.539 63.585,165.128 60.462,164.925 60.259 C 164.464 59.797,153.477 60.088,150.800 60.632 M80.667 102.667 C 80.206 103.127,80.375 103.600,81.000 103.600 C 81.330 103.600,81.600 103.330,81.600 103.000 C 81.600 102.375,81.127 102.206,80.667 102.667 M78.300 106.157 C 77.915 106.449,77.600 106.893,77.600 107.144 C 77.600 107.395,77.407 107.600,77.171 107.600 C 76.618 107.600,75.600 108.618,75.600 109.171 C 75.600 109.407,75.407 109.600,75.171 109.600 C 74.466 109.600,73.600 110.686,73.600 111.571 C 73.600 112.041,73.340 112.400,73.000 112.400 C 72.670 112.400,72.400 112.670,72.400 113.000 C 72.400 113.330,72.220 113.600,72.000 113.600 C 71.780 113.600,71.600 113.793,71.600 114.029 C 71.600 114.264,71.375 114.708,71.100 115.015 C 69.913 116.338,69.600 116.791,69.600 117.183 C 69.600 117.412,69.330 117.600,69.000 117.600 C 68.643 117.600,68.400 117.967,68.400 118.505 C 68.400 119.004,67.951 119.747,67.400 120.161 C 66.850 120.574,66.400 121.247,66.400 121.656 C 66.400 122.065,66.220 122.400,66.000 122.400 C 65.780 122.400,65.600 122.850,65.600 123.400 C 65.600 124.022,65.373 124.400,65.000 124.400 C 64.627 124.400,64.400 124.778,64.400 125.400 C 64.400 125.950,64.220 126.400,64.000 126.400 C 63.780 126.400,63.600 126.651,63.600 126.957 C 63.600 127.264,63.330 127.618,63.000 127.745 C 62.670 127.871,62.400 128.341,62.400 128.787 C 62.400 129.234,62.220 129.600,62.000 129.600 C 61.780 129.600,61.600 130.050,61.600 130.600 C 61.600 131.222,61.373 131.600,61.000 131.600 C 60.627 131.600,60.400 131.978,60.400 132.600 C 60.400 133.150,60.220 133.600,60.000 133.600 C 59.780 133.600,59.600 134.028,59.600 134.551 C 59.600 135.074,59.330 135.726,59.000 136.000 C 58.670 136.274,58.400 136.836,58.400 137.249 C 58.400 137.662,58.670 138.000,59.000 138.000 C 59.366 138.000,59.600 137.627,59.600 137.043 C 59.600 136.516,59.870 135.982,60.200 135.855 C 60.530 135.729,60.800 135.259,60.800 134.813 C 60.800 134.366,60.960 134.000,61.157 134.000 C 61.353 134.000,61.626 133.550,61.764 133.000 C 61.902 132.450,62.192 132.000,62.408 132.000 C 62.623 132.000,62.800 131.550,62.800 131.000 C 62.800 130.450,62.980 130.000,63.200 130.000 C 63.420 130.000,63.600 129.569,63.600 129.043 C 63.600 128.516,63.870 127.982,64.200 127.855 C 64.530 127.729,64.800 127.432,64.800 127.196 C 64.800 126.792,65.108 126.344,66.300 125.015 C 66.575 124.708,66.800 124.342,66.800 124.202 C 66.800 124.061,67.250 123.357,67.800 122.636 C 68.350 121.914,68.800 121.139,68.800 120.911 C 68.800 120.684,69.040 120.298,69.334 120.055 C 69.628 119.811,70.303 118.757,70.834 117.714 C 71.365 116.670,72.070 115.529,72.400 115.177 C 74.063 113.404,77.975 108.338,78.595 107.154 C 78.812 106.739,79.127 106.400,79.295 106.400 C 79.463 106.400,79.600 106.220,79.600 106.000 C 79.600 105.461,79.144 105.516,78.300 106.157 M242.345 128.600 C 243.465 129.370,244.458 130.000,244.552 130.000 C 244.646 130.000,245.865 130.652,247.262 131.448 C 248.658 132.244,251.600 133.838,253.800 134.989 C 258.475 137.435,259.964 138.269,265.533 141.559 C 267.806 142.901,269.715 144.000,269.775 144.000 C 269.836 144.000,271.405 144.875,273.263 145.944 C 276.873 148.021,280.405 149.977,283.000 151.336 C 287.203 153.538,287.046 154.329,279.810 167.400 C 278.315 170.101,276.702 173.026,275.509 175.200 C 274.675 176.719,272.753 180.151,268.117 188.400 C 267.685 189.170,266.736 190.880,266.009 192.200 C 265.282 193.520,264.378 195.050,264.001 195.600 C 263.623 196.150,261.819 199.390,259.991 202.800 C 258.164 206.210,256.315 209.630,255.883 210.400 C 255.451 211.170,254.373 213.150,253.488 214.800 C 252.603 216.450,251.750 217.980,251.593 218.200 C 251.435 218.420,250.713 219.680,249.988 221.000 C 249.263 222.320,248.368 223.940,248.000 224.600 C 247.632 225.260,246.732 226.880,246.000 228.200 C 245.268 229.520,244.368 231.140,244.000 231.800 C 243.632 232.460,242.732 234.080,242.000 235.400 C 241.269 236.720,239.619 239.572,238.335 241.737 C 237.051 243.903,236.000 245.736,236.000 245.810 C 236.000 246.018,232.548 251.768,227.240 260.400 C 224.603 264.690,221.881 269.280,221.192 270.600 C 219.639 273.577,218.910 274.402,217.838 274.394 C 216.919 274.388,216.925 274.391,211.540 271.148 C 207.836 268.917,207.262 268.586,202.600 265.999 C 201.280 265.266,198.880 263.886,197.267 262.933 C 195.654 261.980,194.255 261.200,194.159 261.200 C 194.063 261.200,193.313 260.781,192.492 260.270 C 191.671 259.758,189.650 258.611,188.000 257.721 C 186.350 256.830,184.100 255.608,183.000 255.006 C 181.900 254.403,179.920 253.324,178.600 252.607 C 175.357 250.846,171.699 248.837,170.000 247.883 C 169.230 247.451,167.250 246.373,165.600 245.488 C 163.950 244.603,162.420 243.750,162.200 243.593 C 161.980 243.435,160.720 242.713,159.400 241.988 C 158.080 241.263,156.460 240.368,155.800 240.000 C 155.140 239.632,153.520 238.732,152.200 238.000 C 150.880 237.269,148.089 235.656,145.999 234.416 C 143.908 233.176,141.928 232.036,141.599 231.883 C 141.269 231.730,140.651 231.379,140.223 231.103 C 135.587 228.102,134.699 227.673,135.055 228.600 C 135.182 228.930,135.626 229.200,136.043 229.200 C 136.459 229.200,136.800 229.380,136.800 229.600 C 136.800 230.146,136.332 230.103,134.961 229.431 C 134.323 229.118,132.630 228.332,131.200 227.684 C 129.770 227.036,127.736 226.113,126.679 225.634 L 124.759 224.761 125.656 223.281 C 126.150 222.466,126.742 221.485,126.973 221.100 C 127.660 219.954,127.938 220.297,127.708 222.009 C 127.483 223.690,128.313 225.200,129.462 225.200 C 129.758 225.200,130.000 225.380,130.000 225.600 C 130.000 225.820,130.184 226.000,130.408 226.000 C 130.632 226.000,131.549 226.463,132.446 227.029 C 133.342 227.595,134.155 227.979,134.251 227.882 C 134.348 227.786,133.115 226.933,131.513 225.987 C 127.978 223.899,127.023 222.383,128.363 220.980 C 128.562 220.771,129.707 218.710,130.905 216.400 C 132.104 214.090,133.465 211.531,133.929 210.712 C 134.393 209.894,135.437 208.004,136.249 206.512 C 137.061 205.021,138.485 202.450,139.414 200.800 C 141.324 197.404,142.210 195.824,143.724 193.104 C 149.274 183.137,151.970 179.812,153.420 181.151 C 153.629 181.344,155.870 182.551,158.400 183.834 C 160.930 185.117,165.070 187.450,167.600 189.018 C 170.130 190.587,174.360 193.009,177.000 194.401 C 179.640 195.793,183.060 197.645,184.600 198.516 C 186.140 199.387,188.210 200.556,189.200 201.114 C 190.190 201.671,191.671 202.549,192.492 203.064 C 194.818 204.523,195.346 204.332,196.819 201.500 C 197.534 200.125,198.542 198.329,199.059 197.508 C 199.577 196.687,200.000 195.935,200.000 195.835 C 200.000 195.736,201.350 193.374,203.000 190.587 C 204.650 187.800,206.000 185.443,206.000 185.350 C 206.000 185.257,206.692 184.060,207.539 182.690 C 209.015 180.301,218.266 164.500,219.886 161.600 C 220.316 160.830,221.143 159.348,221.723 158.306 C 222.303 157.264,223.565 155.014,224.527 153.306 C 227.313 148.356,228.752 145.711,231.330 140.800 C 239.433 125.361,238.745 126.123,242.345 128.600 M238.599 137.700 C 237.562 139.735,236.579 141.580,236.417 141.800 C 236.254 142.020,235.395 143.550,234.508 145.200 C 233.621 146.850,232.309 149.280,231.593 150.600 C 230.877 151.920,229.679 154.131,228.932 155.512 C 228.184 156.894,227.210 158.670,226.767 159.459 C 226.323 160.248,226.048 160.981,226.154 161.087 C 226.259 161.193,226.811 160.362,227.379 159.242 C 227.947 158.121,228.740 156.618,229.141 155.902 C 229.541 155.186,230.468 153.520,231.200 152.200 C 231.932 150.880,232.832 149.260,233.200 148.600 C 235.372 144.706,236.526 142.562,238.450 138.853 C 241.008 133.918,240.915 133.972,243.734 135.775 C 244.959 136.559,246.046 137.200,246.149 137.200 C 246.252 137.200,247.788 138.100,249.561 139.200 C 251.335 140.300,252.883 141.200,253.001 141.200 C 253.119 141.200,253.887 141.619,254.708 142.130 C 255.529 142.642,257.550 143.789,259.200 144.679 C 260.850 145.569,262.830 146.651,263.600 147.083 C 268.129 149.624,268.914 150.019,269.087 149.847 C 269.192 149.742,268.495 149.260,267.539 148.776 C 265.979 147.988,263.728 146.768,260.200 144.800 C 256.863 142.938,254.117 141.411,253.400 141.017 C 252.600 140.577,244.941 135.996,242.887 134.729 C 240.946 133.531,240.604 133.768,238.599 137.700 M57.600 139.000 C 57.600 139.330,57.864 139.600,58.187 139.600 C 58.545 139.600,58.685 139.365,58.545 139.000 C 58.418 138.670,58.154 138.400,57.957 138.400 C 57.761 138.400,57.600 138.670,57.600 139.000 M56.667 140.667 C 56.179 141.154,56.391 142.000,57.000 142.000 C 57.333 142.000,57.600 141.644,57.600 141.200 C 57.600 140.403,57.174 140.160,56.667 140.667 M55.600 143.600 C 55.600 144.436,55.770 144.810,56.100 144.700 C 56.375 144.608,56.600 144.113,56.600 143.600 C 56.600 143.087,56.375 142.592,56.100 142.500 C 55.770 142.390,55.600 142.764,55.600 143.600 M273.505 144.389 C 273.887 144.603,275.954 145.581,278.098 146.561 C 281.104 147.936,281.941 148.487,281.755 148.972 C 281.369 149.978,280.646 149.741,276.367 147.200 C 274.144 145.880,272.173 144.800,271.986 144.800 C 271.800 144.800,271.536 144.620,271.400 144.400 C 271.083 143.887,272.596 143.879,273.505 144.389 M54.492 146.075 C 54.739 146.817,55.600 146.940,55.600 146.233 C 55.600 145.885,55.315 145.600,54.967 145.600 C 54.618 145.600,54.405 145.814,54.492 146.075 M269.600 150.191 C 269.600 150.296,270.275 150.711,271.100 151.114 C 273.769 152.418,277.385 154.479,277.966 155.027 C 278.529 155.558,274.414 164.206,265.607 181.000 C 264.223 183.640,262.395 187.128,261.545 188.752 C 260.695 190.376,260.000 191.807,260.000 191.932 C 260.000 192.568,260.979 190.930,263.305 186.400 C 264.717 183.650,266.622 180.005,267.537 178.300 C 268.451 176.595,269.899 173.895,270.753 172.300 C 273.567 167.044,274.887 164.649,277.257 160.501 C 280.298 155.180,280.371 155.603,276.000 153.265 C 275.010 152.736,273.244 151.785,272.075 151.151 C 269.904 149.975,269.600 149.857,269.600 150.191 M224.491 163.676 C 222.508 167.202,221.167 169.654,219.580 172.652 C 218.750 174.221,217.604 176.242,217.035 177.144 C 216.466 178.046,216.000 178.852,216.000 178.935 C 216.000 179.017,215.092 180.663,213.982 182.592 C 212.873 184.520,212.044 186.178,212.142 186.275 C 212.294 186.427,213.375 184.613,217.196 177.800 C 217.566 177.140,218.468 175.520,219.200 174.200 C 219.932 172.880,220.884 171.170,221.317 170.400 C 221.749 169.630,222.827 167.650,223.712 166.000 C 224.597 164.350,225.499 162.771,225.717 162.490 C 225.936 162.210,226.018 161.884,225.900 161.767 C 225.782 161.649,225.148 162.508,224.491 163.676 M149.051 183.502 C 148.191 185.164,147.284 185.844,146.702 185.262 C 146.351 184.911,146.620 184.409,147.815 183.185 C 149.494 181.466,150.032 181.604,149.051 183.502 M211.273 187.287 C 211.013 187.547,210.800 187.901,210.800 188.074 C 210.800 188.411,203.991 199.903,202.750 201.662 C 201.847 202.940,201.776 203.484,202.600 202.800 C 202.930 202.526,203.200 202.132,203.200 201.924 C 203.200 201.717,203.650 200.957,204.200 200.236 C 204.750 199.514,205.200 198.805,205.200 198.658 C 205.200 198.511,206.100 196.955,207.200 195.200 C 208.300 193.445,209.200 191.908,209.200 191.785 C 209.200 191.662,209.840 190.561,210.623 189.337 C 211.985 187.208,212.279 186.281,211.273 187.287 M152.730 187.700 C 151.570 188.631,143.704 203.037,144.125 203.459 C 144.210 203.543,144.973 202.214,145.821 200.506 C 146.670 198.798,148.182 195.956,149.182 194.190 C 150.182 192.425,151.267 190.468,151.594 189.842 C 151.920 189.215,152.418 188.614,152.701 188.506 C 153.223 188.306,160.872 191.729,162.031 192.681 C 162.379 192.967,162.949 193.200,163.298 193.200 C 163.648 193.200,163.993 193.335,164.067 193.500 C 164.140 193.665,166.058 194.749,168.329 195.908 C 170.599 197.067,172.356 197.852,172.232 197.652 C 172.108 197.451,171.060 196.794,169.903 196.190 C 160.413 191.241,156.258 188.978,154.738 187.931 C 153.476 187.062,153.519 187.067,152.730 187.700 M259.132 193.448 C 258.858 194.082,258.041 195.548,257.317 196.708 C 256.593 197.867,256.000 198.913,256.000 199.031 C 256.000 199.574,256.789 198.667,257.505 197.302 C 257.938 196.476,258.685 195.104,259.166 194.253 C 259.646 193.402,259.947 192.614,259.835 192.501 C 259.722 192.389,259.406 192.815,259.132 193.448 M172.800 198.154 C 172.800 198.239,174.105 199.092,175.700 200.050 C 177.295 201.008,178.900 201.974,179.267 202.196 C 179.634 202.418,180.444 202.882,181.067 203.226 C 182.202 203.853,185.821 205.871,188.347 207.285 C 189.088 207.700,189.778 207.955,189.881 207.852 C 189.984 207.749,189.648 207.441,189.134 207.167 C 188.620 206.893,187.660 206.368,187.000 206.000 C 186.340 205.632,184.720 204.733,183.400 204.002 C 182.080 203.272,180.329 202.252,179.508 201.737 C 178.687 201.222,177.914 200.800,177.789 200.800 C 177.664 200.800,176.577 200.170,175.373 199.400 C 173.260 198.048,172.800 197.826,172.800 198.154 M252.694 204.691 C 251.041 207.509,249.188 210.709,248.577 211.804 C 247.966 212.898,246.866 214.731,246.133 215.878 C 245.400 217.024,244.800 218.057,244.800 218.173 C 244.800 218.289,244.194 219.333,243.453 220.492 C 242.712 221.652,241.762 223.230,241.341 224.000 C 240.920 224.770,239.025 228.010,237.130 231.200 C 232.399 239.165,231.193 241.285,230.931 242.100 C 230.808 242.485,230.548 242.800,230.353 242.800 C 230.159 242.800,230.000 242.984,230.000 243.208 C 230.000 243.432,229.537 244.349,228.971 245.246 C 228.405 246.142,228.021 246.954,228.117 247.050 C 228.279 247.213,231.200 242.573,231.200 242.152 C 231.200 242.047,231.830 240.977,232.600 239.773 C 233.370 238.569,234.000 237.501,234.000 237.399 C 234.000 237.297,234.720 236.038,235.600 234.600 C 236.480 233.162,237.200 231.903,237.200 231.801 C 237.200 231.699,237.803 230.667,238.540 229.508 C 239.276 228.348,240.334 226.590,240.889 225.600 C 241.445 224.610,243.565 221.010,245.600 217.600 C 247.635 214.190,249.757 210.590,250.314 209.600 C 250.871 208.610,251.749 207.129,252.264 206.308 C 252.779 205.487,253.200 204.726,253.200 204.616 C 253.200 204.506,253.845 203.407,254.634 202.175 C 255.422 200.942,255.985 199.851,255.884 199.751 C 255.783 199.650,254.348 201.873,252.694 204.691 M199.590 206.740 C 196.983 210.845,196.544 211.024,193.269 209.317 C 191.852 208.579,190.627 208.040,190.547 208.120 C 190.467 208.200,190.896 208.517,191.501 208.824 C 192.105 209.131,193.300 209.809,194.154 210.330 C 196.434 211.721,198.507 210.070,201.473 204.500 C 202.527 202.522,201.470 203.778,199.590 206.740 M141.917 207.472 C 140.949 209.413,139.552 212.080,138.813 213.400 C 138.074 214.720,137.120 216.430,136.694 217.200 C 136.268 217.970,135.681 218.870,135.391 219.200 C 134.720 219.961,134.197 222.000,134.672 222.000 C 134.869 222.000,135.055 221.685,135.086 221.300 C 135.117 220.915,136.077 218.980,137.220 217.000 C 140.272 211.712,144.076 204.342,143.863 204.129 C 143.761 204.028,142.886 205.532,141.917 207.472 M128.800 219.400 C 128.800 219.730,128.620 220.000,128.400 220.000 C 128.180 220.000,128.000 219.730,128.000 219.400 C 128.000 219.070,128.180 218.800,128.400 218.800 C 128.620 218.800,128.800 219.070,128.800 219.400 M135.600 222.157 C 135.600 222.244,136.772 222.784,138.205 223.358 C 143.055 225.300,161.035 234.020,166.000 236.838 C 168.504 238.260,170.366 239.299,173.800 241.191 C 175.120 241.918,176.678 242.848,177.262 243.257 C 177.846 243.665,178.432 244.000,178.564 244.000 C 178.820 244.000,194.189 253.551,196.200 254.961 C 196.860 255.424,197.760 256.018,198.200 256.282 C 198.640 256.546,200.980 258.039,203.400 259.600 C 205.820 261.161,208.160 262.654,208.600 262.918 C 209.040 263.182,209.973 263.803,210.673 264.299 C 211.374 264.795,212.031 265.200,212.133 265.200 C 212.236 265.200,213.256 265.830,214.401 266.601 L 216.483 268.002 217.242 267.038 C 218.208 265.809,218.206 265.464,217.237 266.070 C 216.254 266.684,213.014 265.141,206.000 260.719 C 203.250 258.985,200.640 257.349,200.200 257.083 C 199.760 256.817,199.310 256.499,199.200 256.376 C 198.997 256.149,178.445 243.367,176.990 242.563 C 173.062 240.394,171.205 239.346,169.450 238.311 C 165.146 235.772,152.421 229.261,145.800 226.210 C 142.422 224.654,141.952 224.447,139.400 223.393 C 138.520 223.030,137.487 222.568,137.105 222.366 C 136.390 221.989,135.600 221.879,135.600 222.157 M227.342 248.073 C 227.156 248.363,226.811 248.960,226.574 249.400 C 226.196 250.103,225.177 251.938,222.800 256.200 C 222.432 256.860,221.532 258.480,220.800 259.800 C 220.068 261.120,219.139 262.790,218.735 263.512 C 218.331 264.234,218.000 264.945,218.000 265.092 C 218.000 265.698,218.830 264.411,220.530 261.171 C 221.520 259.285,223.155 256.345,224.165 254.638 C 225.174 252.931,226.000 251.455,226.000 251.359 C 226.000 251.263,226.463 250.451,227.029 249.554 C 227.595 248.658,227.973 247.839,227.869 247.736 C 227.765 247.632,227.528 247.784,227.342 248.073 M125.600 335.000 C 125.600 335.330,125.870 335.600,126.200 335.600 C 126.530 335.600,126.800 335.330,126.800 335.000 C 126.800 334.670,126.530 334.400,126.200 334.400 C 125.870 334.400,125.600 334.670,125.600 335.000 M127.600 335.800 C 127.600 336.173,127.978 336.400,128.600 336.400 C 129.222 336.400,129.600 336.627,129.600 337.000 C 129.600 337.373,129.978 337.600,130.600 337.600 C 131.150 337.600,131.600 337.780,131.600 338.000 C 131.600 338.220,132.050 338.400,132.600 338.400 C 133.222 338.400,133.600 338.627,133.600 339.000 C 133.600 339.373,133.978 339.600,134.600 339.600 C 135.150 339.600,135.600 339.780,135.600 340.000 C 135.600 340.220,136.230 340.400,137.000 340.400 C 137.978 340.400,138.400 340.581,138.400 341.000 C 138.400 341.373,138.778 341.600,139.400 341.600 C 139.950 341.600,140.400 341.780,140.400 342.000 C 140.400 342.220,140.828 342.400,141.351 342.400 C 141.874 342.400,142.526 342.670,142.800 343.000 C 143.074 343.330,143.816 343.600,144.449 343.600 C 145.082 343.600,145.600 343.780,145.600 344.000 C 145.600 344.220,146.208 344.400,146.951 344.400 C 147.694 344.400,148.526 344.670,148.800 345.000 C 149.074 345.330,149.805 345.600,150.425 345.600 C 151.045 345.600,151.664 345.780,151.800 346.000 C 151.936 346.220,152.762 346.400,153.636 346.400 C 154.680 346.400,155.304 346.606,155.455 347.000 C 155.617 347.420,156.272 347.600,157.643 347.600 C 158.719 347.600,159.600 347.780,159.600 348.000 C 159.600 348.220,160.481 348.400,161.557 348.400 C 162.928 348.400,163.583 348.580,163.745 349.000 C 163.911 349.433,164.590 349.600,166.187 349.600 C 167.404 349.600,168.400 349.780,168.400 350.000 C 168.400 350.220,169.294 350.400,170.387 350.400 C 171.990 350.400,172.330 350.284,172.145 349.800 C 172.018 349.470,171.596 349.200,171.206 349.200 C 170.817 349.200,170.290 348.949,170.035 348.642 C 169.780 348.335,168.993 347.998,168.286 347.892 C 166.519 347.628,157.731 345.382,154.572 344.387 C 153.896 344.174,152.962 344.000,152.495 344.000 C 152.029 344.000,151.536 343.820,151.400 343.600 C 151.264 343.380,150.876 343.200,150.537 343.200 C 150.198 343.200,149.354 342.958,148.660 342.661 C 146.519 341.746,142.257 340.303,141.095 340.100 C 140.487 339.994,139.892 339.749,139.771 339.554 C 139.651 339.359,139.218 339.200,138.809 339.200 C 138.400 339.200,137.555 338.947,136.932 338.637 C 135.799 338.074,135.361 337.893,132.000 336.607 C 131.010 336.228,129.887 335.756,129.505 335.559 C 128.459 335.018,127.600 335.127,127.600 335.800 " stroke="none" fill="#12b886" fill-rule="evenodd"></path><path id="path2" d="M238.195 128.256 C 237.420 129.285,236.285 131.358,231.330 140.800 C 228.752 145.711,227.313 148.356,224.527 153.306 C 223.565 155.014,222.303 157.264,221.723 158.306 C 221.143 159.348,220.316 160.830,219.886 161.600 C 218.266 164.500,209.015 180.301,207.539 182.690 C 206.692 184.060,206.000 185.257,206.000 185.350 C 206.000 185.443,204.650 187.800,203.000 190.587 C 201.350 193.374,200.000 195.736,200.000 195.835 C 200.000 195.935,199.577 196.687,199.059 197.508 C 198.542 198.329,197.534 200.125,196.819 201.500 C 195.346 204.332,194.818 204.523,192.492 203.064 C 191.671 202.549,190.190 201.671,189.200 201.114 C 188.210 200.556,186.140 199.387,184.600 198.516 C 183.060 197.645,179.640 195.793,177.000 194.401 C 174.360 193.009,170.130 190.587,167.600 189.018 C 165.070 187.450,160.930 185.117,158.400 183.834 C 155.870 182.551,153.629 181.344,153.420 181.151 C 151.970 179.812,149.274 183.137,143.724 193.104 C 142.210 195.824,141.324 197.404,139.414 200.800 C 138.485 202.450,137.061 205.021,136.249 206.512 C 135.437 208.004,134.393 209.894,133.929 210.712 C 133.465 211.531,132.104 214.090,130.905 216.400 C 129.707 218.710,128.562 220.771,128.363 220.980 C 127.929 221.434,127.893 223.228,128.306 223.824 C 128.600 224.247,134.645 228.000,135.033 228.000 C 135.214 228.000,138.030 229.683,140.223 231.103 C 140.651 231.379,141.269 231.730,141.599 231.883 C 141.928 232.036,143.908 233.176,145.999 234.416 C 148.089 235.656,150.880 237.269,152.200 238.000 C 153.520 238.732,155.140 239.632,155.800 240.000 C 156.460 240.368,158.080 241.263,159.400 241.988 C 160.720 242.713,161.980 243.435,162.200 243.593 C 162.420 243.750,163.950 244.603,165.600 245.488 C 167.250 246.373,169.230 247.451,170.000 247.883 C 171.699 248.837,175.357 250.846,178.600 252.607 C 179.920 253.324,181.900 254.403,183.000 255.006 C 184.100 255.608,186.350 256.830,188.000 257.721 C 189.650 258.611,191.671 259.758,192.492 260.270 C 193.313 260.781,194.063 261.200,194.159 261.200 C 194.255 261.200,195.654 261.980,197.267 262.933 C 198.880 263.886,201.280 265.266,202.600 265.999 C 207.262 268.586,207.836 268.917,211.540 271.148 C 216.925 274.391,216.919 274.388,217.838 274.394 C 218.910 274.402,219.639 273.577,221.192 270.600 C 221.881 269.280,224.603 264.690,227.240 260.400 C 232.548 251.768,236.000 246.018,236.000 245.810 C 236.000 245.736,237.051 243.903,238.335 241.737 C 239.619 239.572,241.269 236.720,242.000 235.400 C 242.732 234.080,243.632 232.460,244.000 231.800 C 244.368 231.140,245.268 229.520,246.000 228.200 C 246.732 226.880,247.632 225.260,248.000 224.600 C 248.368 223.940,249.263 222.320,249.988 221.000 C 250.713 219.680,251.435 218.420,251.593 218.200 C 251.750 217.980,252.603 216.450,253.488 214.800 C 254.373 213.150,255.451 211.170,255.883 210.400 C 256.315 209.630,258.164 206.210,259.991 202.800 C 261.819 199.390,263.623 196.150,264.001 195.600 C 264.378 195.050,265.282 193.520,266.009 192.200 C 266.736 190.880,267.685 189.170,268.117 188.400 C 272.753 180.151,274.675 176.719,275.509 175.200 C 276.702 173.026,278.315 170.101,279.810 167.400 C 287.046 154.329,287.203 153.538,283.000 151.336 C 280.405 149.977,276.873 148.021,273.263 145.944 C 271.405 144.875,269.836 144.000,269.775 144.000 C 269.715 144.000,267.806 142.901,265.533 141.559 C 259.964 138.269,258.475 137.435,253.800 134.989 C 251.600 133.838,248.658 132.244,247.262 131.448 C 245.865 130.652,244.646 130.000,244.552 130.000 C 244.458 130.000,243.465 129.370,242.345 128.600 C 239.907 126.922,239.240 126.867,238.195 128.256 M242.887 134.729 C 244.941 135.996,252.600 140.577,253.400 141.017 C 254.117 141.411,256.863 142.938,260.200 144.800 C 263.754 146.782,266.302 148.155,271.000 150.620 C 281.222 155.982,280.495 154.835,277.257 160.501 C 274.893 164.638,273.545 167.083,270.807 172.200 C 269.983 173.740,268.535 176.440,267.589 178.200 C 266.644 179.960,264.848 183.380,263.599 185.800 C 260.697 191.420,258.331 195.821,257.254 197.600 C 256.788 198.370,256.285 199.270,256.136 199.600 C 255.986 199.930,255.265 201.148,254.532 202.308 C 253.799 203.467,253.200 204.506,253.200 204.616 C 253.200 204.726,252.779 205.487,252.264 206.308 C 251.749 207.129,250.871 208.610,250.314 209.600 C 249.757 210.590,247.635 214.190,245.600 217.600 C 243.565 221.010,241.445 224.610,240.889 225.600 C 240.334 226.590,239.276 228.348,238.540 229.508 C 237.803 230.667,237.200 231.699,237.200 231.801 C 237.200 231.903,236.480 233.162,235.600 234.600 C 234.720 236.038,234.000 237.297,234.000 237.399 C 234.000 237.501,233.370 238.569,232.600 239.773 C 231.830 240.977,231.200 242.064,231.200 242.189 C 231.200 242.314,230.778 243.087,230.263 243.908 C 229.748 244.729,228.728 246.480,227.998 247.800 C 225.595 252.141,225.126 252.973,223.597 255.600 C 222.764 257.030,221.365 259.565,220.487 261.232 C 218.420 265.160,217.939 266.004,217.142 267.098 L 216.483 268.002 214.401 266.601 C 213.256 265.830,212.236 265.200,212.133 265.200 C 212.031 265.200,211.374 264.795,210.673 264.299 C 209.973 263.803,209.040 263.182,208.600 262.918 C 208.160 262.654,205.820 261.161,203.400 259.600 C 200.980 258.039,198.640 256.546,198.200 256.282 C 197.760 256.018,196.860 255.424,196.200 254.961 C 194.189 253.551,178.820 244.000,178.564 244.000 C 178.432 244.000,177.846 243.666,177.262 243.257 C 176.678 242.849,175.390 242.068,174.400 241.523 C 171.092 239.701,168.220 238.099,166.000 236.839 C 160.717 233.839,142.816 225.194,137.286 222.971 C 134.201 221.732,133.823 220.980,135.391 219.200 C 135.681 218.870,136.268 217.970,136.694 217.200 C 137.120 216.430,138.074 214.720,138.813 213.400 C 139.553 212.080,141.909 207.490,144.049 203.200 C 151.318 188.632,152.760 186.571,154.736 187.928 C 156.077 188.849,158.965 190.448,165.028 193.629 C 167.653 195.006,170.340 196.461,171.000 196.863 C 171.660 197.265,172.470 197.719,172.800 197.872 C 173.130 198.026,174.336 198.747,175.481 199.476 C 176.625 200.204,177.664 200.800,177.789 200.800 C 177.914 200.800,178.687 201.222,179.508 201.737 C 180.329 202.252,182.080 203.272,183.400 204.002 C 184.720 204.733,186.430 205.687,187.200 206.123 C 197.118 211.734,196.894 211.787,202.232 202.600 C 202.697 201.801,210.502 188.735,211.193 187.600 C 211.394 187.270,212.134 185.920,212.839 184.600 C 213.543 183.280,214.542 181.529,215.059 180.708 C 215.577 179.887,216.000 179.119,216.000 179.000 C 216.000 178.881,216.478 178.026,217.063 177.100 C 217.648 176.174,218.697 174.332,219.395 173.008 C 221.650 168.726,224.113 164.210,224.417 163.800 C 224.580 163.580,225.333 162.230,226.091 160.800 C 226.848 159.370,228.103 157.030,228.879 155.600 C 231.972 149.905,232.960 148.078,234.508 145.200 C 235.395 143.550,236.254 142.020,236.417 141.800 C 236.579 141.580,237.562 139.735,238.599 137.700 C 240.604 133.768,240.946 133.531,242.887 134.729 " stroke="none" fill="#1e1e1e" fill-rule="evenodd"></path></g></svg>