<?xml version="1.0" encoding="UTF-8"?>
<!DOCTYPE svg PUBLIC "-//W3C//DTD SVG 1.1//EN" "http://www.w3.org/Graphics/SVG/1.1/DTD/svg11.dtd">
<svg xmlns="http://www.w3.org/2000/svg" version="1.1" width="730px" height="423px" style="shape-rendering:geometricPrecision; text-rendering:geometricPrecision; image-rendering:optimizeQuality; fill-rule:evenodd; clip-rule:evenodd" xmlns:xlink="http://www.w3.org/1999/xlink">
<g><path style="opacity:0.938" fill="#222223" d="M 333.5,46.5 C 416.447,43.9952 498.447,51.4952 579.5,69C 610.056,75.6203 638.39,87.287 664.5,104C 674.605,111.379 680.771,121.212 683,133.5C 683.193,187.167 682.859,240.834 682,294.5C 674.47,302.365 666.636,309.865 658.5,317C 648.5,321.667 638.5,326.333 628.5,331C 585.535,340.824 542.535,350.491 499.5,360C 447.521,368.731 395.187,373.898 342.5,375.5C 311.438,374.697 280.438,372.864 249.5,370C 210.908,362.482 172.574,353.815 134.5,344C 120.221,337.527 106.221,330.527 92.5,323C 77.3333,309.833 62.1667,296.667 47,283.5C 46.1446,232.152 46.6446,180.819 48.5,129.5C 52.2663,117.896 59.2663,108.729 69.5,102C 86.2935,91.1744 104.294,82.841 123.5,77C 160.793,65.8747 198.793,58.2081 237.5,54C 269.566,50.3059 301.566,47.8059 333.5,46.5 Z"/></g>
<g><path style="opacity:1" fill="#c5cff4" d="M 307.5,52.5 C 374.726,50.2902 441.726,53.1236 508.5,61C 549.28,66.2933 588.947,75.9599 627.5,90C 641.444,95.2994 654.11,102.633 665.5,112C 670.204,116.367 673.704,121.534 676,127.5C 677.715,135.635 676.048,142.969 671,149.5C 662.346,159.074 652.179,166.574 640.5,172C 614.064,183.479 586.73,192.145 558.5,198C 509.648,207.687 460.315,213.354 410.5,215C 339.106,217.608 268.106,213.608 197.5,203C 164.559,197.765 132.559,189.098 101.5,177C 89.179,171.846 77.8457,165.179 67.5,157C 49.5782,140.277 50.2449,124.277 69.5,109C 88.5448,96.085 109.211,86.4183 131.5,80C 158.85,72.5503 186.517,66.5503 214.5,62C 245.566,58.1082 276.566,54.9416 307.5,52.5 Z"/></g>
<g><path style="opacity:1" fill="#c5cff4" d="M 52.5,147.5 C 64.0958,162.231 78.7625,173.065 96.5,180C 131.451,193.405 167.451,203.072 204.5,209C 307.078,223.587 409.745,224.254 512.5,211C 553.616,205.388 593.616,195.388 632.5,181C 642.151,176.509 651.485,171.509 660.5,166C 666.667,161.167 672.167,155.667 677,149.5C 677.833,197.17 677.667,244.837 676.5,292.5C 669.317,299.517 661.984,306.35 654.5,313C 643.833,317.667 633.167,322.333 622.5,327C 583.062,336.088 543.562,344.921 504,353.5C 445.937,363.735 387.437,369.235 328.5,370C 302.493,368.438 276.493,366.772 250.5,365C 212.232,357.579 174.232,348.912 136.5,339C 124.289,332.728 111.956,326.728 99.5,321C 83.7063,308.208 68.2063,295.042 53,281.5C 52.5,236.835 52.3333,192.168 52.5,147.5 Z"/></g>
</svg>
