<?xml version="1.0" encoding="UTF-8"?>
<!DOCTYPE svg PUBLIC "-//W3C//DTD SVG 1.1//EN" "http://www.w3.org/Graphics/SVG/1.1/DTD/svg11.dtd">
<svg xmlns="http://www.w3.org/2000/svg" version="1.1" width="730px" height="423px" style="shape-rendering:geometricPrecision; text-rendering:geometricPrecision; image-rendering:optimizeQuality; fill-rule:evenodd; clip-rule:evenodd" xmlns:xlink="http://www.w3.org/1999/xlink">
<g><path style="opacity:0.938" fill="#231f1f" d="M 333.5,46.5 C 416.447,43.9952 498.447,51.4952 579.5,69C 610.056,75.6203 638.39,87.287 664.5,104C 674.605,111.379 680.771,121.212 683,133.5C 683.193,187.167 682.859,240.834 682,294.5C 674.496,302.337 666.663,309.837 658.5,317C 648.5,321.667 638.5,326.333 628.5,331C 585.535,340.824 542.535,350.491 499.5,360C 447.521,368.731 395.187,373.898 342.5,375.5C 311.107,374.664 279.774,372.83 248.5,370C 210.269,362.354 172.269,353.687 134.5,344C 121.377,337.939 108.377,331.606 95.5,325C 79.039,311.541 62.8723,297.708 47,283.5C 46.1446,232.152 46.6446,180.819 48.5,129.5C 52.2663,117.896 59.2663,108.729 69.5,102C 86.2935,91.1744 104.294,82.841 123.5,77C 160.793,65.8747 198.793,58.2081 237.5,54C 269.566,50.3059 301.566,47.8059 333.5,46.5 Z"/></g>
<g><path style="opacity:1" fill="#f95151" d="M 315.5,52.5 C 380.066,50.2759 444.399,53.1092 508.5,61C 549.264,66.2917 588.93,75.9584 627.5,90C 641.444,95.2994 654.11,102.633 665.5,112C 670.204,116.367 673.704,121.534 676,127.5C 677.715,135.635 676.048,142.969 671,149.5C 662.346,159.074 652.179,166.574 640.5,172C 614.064,183.479 586.73,192.145 558.5,198C 450.034,217.562 341.034,220.896 231.5,208C 186.898,202.795 143.564,192.462 101.5,177C 89.179,171.846 77.8457,165.179 67.5,157C 49.5782,140.277 50.2449,124.277 69.5,109C 88.5448,96.085 109.211,86.4183 131.5,80C 163.616,70.7767 196.283,64.11 229.5,60C 258.267,56.8529 286.933,54.3529 315.5,52.5 Z"/></g>
<g><path style="opacity:1" fill="#f95151" d="M 676.5,149.5 C 677.496,162.656 677.829,175.99 677.5,189.5C 677.833,223.84 677.5,258.173 676.5,292.5C 669.317,299.517 661.984,306.35 654.5,313C 644.833,317.333 635.167,321.667 625.5,326C 578.718,337.356 531.718,347.69 484.5,357C 436.927,364.174 389.093,368.674 341,370.5C 310.818,368.888 280.651,367.055 250.5,365C 212.232,357.579 174.232,348.912 136.5,339C 124.289,332.728 111.956,326.728 99.5,321C 83.7063,308.208 68.2063,295.042 53,281.5C 52.3333,236.833 52.3333,192.167 53,147.5C 57.4578,154.292 62.9578,160.125 69.5,165C 86.8739,176.352 105.541,185.018 125.5,191C 202.884,211.856 281.717,221.689 362,220.5C 432.271,221.173 501.771,214.339 570.5,200C 602.512,193.777 632.512,182.444 660.5,166C 666.708,161.293 672.042,155.793 676.5,149.5 Z"/></g>
<g><path style="opacity:1" fill="#432726" d="M 677.5,189.5 C 677.829,175.99 677.496,162.656 676.5,149.5C 676.783,148.711 677.283,148.044 678,147.5C 678.827,161.673 678.661,175.673 677.5,189.5 Z"/></g>
</svg>
