<?xml version="1.0" encoding="UTF-8"?>
<!DOCTYPE svg PUBLIC "-//W3C//DTD SVG 1.1//EN" "http://www.w3.org/Graphics/SVG/1.1/DTD/svg11.dtd">
<svg xmlns="http://www.w3.org/2000/svg" version="1.1" width="730px" height="423px" style="shape-rendering:geometricPrecision; text-rendering:geometricPrecision; image-rendering:optimizeQuality; fill-rule:evenodd; clip-rule:evenodd" xmlns:xlink="http://www.w3.org/1999/xlink">
<g><path style="opacity:0.938" fill="#212222" d="M 333.5,46.5 C 416.447,43.9952 498.447,51.4952 579.5,69C 610.056,75.6203 638.39,87.287 664.5,104C 674.605,111.379 680.771,121.212 683,133.5C 683.193,187.167 682.859,240.834 682,294.5C 674.496,302.337 666.663,309.837 658.5,317C 648.5,321.667 638.5,326.333 628.5,331C 585.535,340.824 542.535,350.491 499.5,360C 447.521,368.731 395.187,373.898 342.5,375.5C 311.107,374.664 279.774,372.83 248.5,370C 210.269,362.354 172.269,353.687 134.5,344C 121.377,337.939 108.377,331.606 95.5,325C 79.039,311.541 62.8723,297.708 47,283.5C 46.1446,232.152 46.6446,180.819 48.5,129.5C 52.2663,117.896 59.2663,108.729 69.5,102C 86.2935,91.1744 104.294,82.841 123.5,77C 160.793,65.8747 198.793,58.2081 237.5,54C 269.566,50.3059 301.566,47.8059 333.5,46.5 Z"/></g>
<g><path style="opacity:1" fill="#95f1d6" d="M 307.5,52.5 C 374.728,50.2424 441.728,53.0758 508.5,61C 549.28,66.2933 588.947,75.9599 627.5,90C 641.444,95.2994 654.11,102.633 665.5,112C 670.204,116.367 673.704,121.534 676,127.5C 677.715,135.635 676.048,142.969 671,149.5C 662.346,159.074 652.179,166.574 640.5,172C 614.064,183.479 586.73,192.145 558.5,198C 509.636,207.564 460.302,213.231 410.5,215C 339.107,217.591 268.107,213.591 197.5,203C 164.559,197.765 132.559,189.098 101.5,177C 89.179,171.846 77.8457,165.179 67.5,157C 49.5782,140.277 50.2449,124.277 69.5,109C 88.5448,96.085 109.211,86.4183 131.5,80C 158.852,72.5492 186.519,66.5492 214.5,62C 245.566,58.1082 276.566,54.9416 307.5,52.5 Z"/></g>
<g><path style="opacity:1" fill="#95f1d6" d="M 676.5,149.5 C 677.495,161.655 677.829,173.989 677.5,186.5C 677.833,221.84 677.5,257.173 676.5,292.5C 669.317,299.517 661.984,306.35 654.5,313C 643.833,317.667 633.167,322.333 622.5,327C 576.663,337.767 530.663,347.767 484.5,357C 436.238,364.046 387.738,368.546 339,370.5C 309.491,368.807 279.991,366.973 250.5,365C 212.209,357.608 174.209,348.942 136.5,339C 124.289,332.728 111.956,326.728 99.5,321C 83.7063,308.208 68.2063,295.042 53,281.5C 52.3333,236.5 52.3333,191.5 53,146.5C 57.0733,153.908 62.5733,160.075 69.5,165C 86.8739,176.352 105.541,185.018 125.5,191C 169.702,203.44 214.702,211.773 260.5,216C 344.696,223.363 428.696,221.696 512.5,211C 553.616,205.388 593.616,195.388 632.5,181C 648.822,174.598 662.989,165.098 675,152.5C 675.513,151.473 676.013,150.473 676.5,149.5 Z"/></g>
<g><path style="opacity:1" fill="#344640" d="M 677.5,186.5 C 677.829,173.989 677.495,161.655 676.5,149.5C 676.783,148.711 677.283,148.044 678,147.5C 678.827,160.673 678.66,173.673 677.5,186.5 Z"/></g>
</svg>
