<?xml version="1.0" encoding="UTF-8"?>
<!DOCTYPE svg PUBLIC "-//W3C//DTD SVG 1.1//EN" "http://www.w3.org/Graphics/SVG/1.1/DTD/svg11.dtd">
<svg xmlns="http://www.w3.org/2000/svg" version="1.1" width="726px" height="591px" style="shape-rendering:geometricPrecision; text-rendering:geometricPrecision; image-rendering:optimizeQuality; fill-rule:evenodd; clip-rule:evenodd" xmlns:xlink="http://www.w3.org/1999/xlink">
<g><path style="opacity:0.948" fill="#212222" d="M 330.5,46.5 C 402.685,44.6567 474.352,49.8234 545.5,62C 572.848,66.8944 599.515,74.2278 625.5,84C 642.907,90.1098 658.074,99.6098 671,112.5C 675.742,118.321 678.575,124.988 679.5,132.5C 679.654,243.105 679.487,353.772 679,464.5C 673.167,471.667 667.333,478.833 661.5,486C 652.467,492.182 643.134,497.849 633.5,503C 577.992,523.586 520.659,535.586 461.5,539C 370.788,546.963 280.455,543.963 190.5,530C 173.5,526.333 156.5,522.667 139.5,519C 122.833,513 106.167,507 89.5,501C 81.5,496 73.5,491 65.5,486C 58.7258,478.282 52.5591,470.115 47,461.5C 46.8333,458.333 46.6667,455.167 46.5,452C 46.7501,345.839 46.9167,239.672 47,133.5C 47.7059,122.704 52.2059,113.871 60.5,107C 74.998,95.7478 90.998,87.0811 108.5,81C 162.52,63.7739 217.853,53.4406 274.5,50C 293.305,48.4993 311.972,47.3326 330.5,46.5 Z"/></g>
<g><path style="opacity:1" fill="#c5cff4" d="M 313.5,52.5 C 380.432,50.3151 447.098,53.4817 513.5,62C 551.927,67.018 589.26,76.3513 625.5,90C 637.949,95.3883 649.615,102.055 660.5,110C 669.314,116.766 673.481,125.6 673,136.5C 672.226,140.049 670.893,143.382 669,146.5C 662.768,153.73 655.601,159.897 647.5,165C 621.106,178.243 593.439,187.909 564.5,194C 483.299,210.082 401.299,216.415 318.5,213C 262.528,210.803 207.194,203.803 152.5,192C 126.976,186.159 102.643,177.159 79.5,165C 44.5683,143.028 44.9017,121.361 80.5,100C 106.866,86.7663 134.532,77.0996 163.5,71C 213.185,61.1996 263.185,55.0329 313.5,52.5 Z"/></g>
<g><path style="opacity:1" fill="#595c69" d="M 673.5,287.5 C 673.832,241.33 673.499,195.33 672.5,149.5C 672.783,148.711 673.283,148.044 674,147.5C 674.832,194.335 674.665,241.002 673.5,287.5 Z"/></g>
<g><path style="opacity:1" fill="#c5cff4" d="M 54.5,149.5 C 57.9569,154.791 62.2902,159.291 67.5,163C 85.7619,174.963 105.429,183.963 126.5,190C 190.646,207.164 255.98,216.497 322.5,218C 404.29,221.126 485.29,214.792 565.5,199C 588.382,193.697 610.716,186.697 632.5,178C 648.265,171.644 661.598,162.144 672.5,149.5C 673.499,195.33 673.832,241.33 673.5,287.5C 669.452,301.136 661.452,311.636 649.5,319C 613.423,337.025 575.423,349.025 535.5,355C 428.373,371.642 321.039,372.975 213.5,359C 181.228,354.546 149.561,347.546 118.5,338C 101.384,332.109 85.3845,324.109 70.5,314C 62.7325,307.61 57.0658,299.777 53.5,290.5C 53.1679,243.33 53.5012,196.33 54.5,149.5 Z"/></g>
<g><path style="opacity:1" fill="#6b7081" d="M 54.5,149.5 C 53.5012,196.33 53.1679,243.33 53.5,290.5C 52.3351,243.002 52.1684,195.335 53,147.5C 53.7172,148.044 54.2172,148.711 54.5,149.5 Z"/></g>
<g><path style="opacity:1" fill="#595c69" d="M 673.5,461.5 C 673.832,407.997 673.499,354.664 672.5,301.5C 672.461,300.244 672.961,299.244 674,298.5C 674.832,353.002 674.665,407.335 673.5,461.5 Z"/></g>
<g><path style="opacity:1" fill="#c5cff4" d="M 672.5,301.5 C 673.499,354.664 673.832,407.997 673.5,461.5C 668.538,468.575 663.204,475.408 657.5,482C 650.993,486.086 644.66,490.42 638.5,495C 579.942,517.47 519.275,530.47 456.5,534C 369.849,541.084 283.516,538.417 197.5,526C 178.833,522 160.167,518 141.5,514C 124.833,508 108.167,502 91.5,496C 84.1667,491.333 76.8333,486.667 69.5,482C 63.6169,475.118 58.1169,467.952 53,460.5C 52.5,437.169 52.3334,413.836 52.5,390.5C 53.1667,361.5 53.8333,332.5 54.5,303.5C 57.9207,308.426 61.9207,312.926 66.5,317C 92.083,334.31 120.083,345.977 150.5,352C 224.788,367.901 299.955,375.068 376,373.5C 443.236,373.022 509.736,365.856 575.5,352C 602.376,345.487 628.043,335.82 652.5,323C 661.557,318.049 668.224,310.882 672.5,301.5 Z"/></g>
<g><path style="opacity:1" fill="#a3abc8" d="M 54.5,303.5 C 53.8333,332.5 53.1667,361.5 52.5,390.5C 52.3334,360.498 52.5,330.498 53,300.5C 53.5133,301.527 54.0133,302.527 54.5,303.5 Z"/></g>
</svg>
