<?xml version="1.0" encoding="UTF-8"?>
<!DOCTYPE svg PUBLIC "-//W3C//DTD SVG 1.1//EN" "http://www.w3.org/Graphics/SVG/1.1/DTD/svg11.dtd">
<svg xmlns="http://www.w3.org/2000/svg" version="1.1" width="343px" height="309px" style="shape-rendering:geometricPrecision; text-rendering:geometricPrecision; image-rendering:optimizeQuality; fill-rule:evenodd; clip-rule:evenodd" xmlns:xlink="http://www.w3.org/1999/xlink">
<g><path style="opacity:0.946" fill="#222323" d="M 150.5,46.5 C 185.183,45.2629 219.517,48.0963 253.5,55C 264.765,57.4213 275.431,61.4213 285.5,67C 288.333,69.8333 291.167,72.6667 294,75.5C 295.509,113.272 296.342,151.105 296.5,189C 296.333,202.167 296.167,215.333 296,228.5C 269.815,247.772 240.315,258.272 207.5,260C 183.165,261.969 158.832,261.969 134.5,260C 109.188,258.006 85.1881,251.339 62.5,240C 57.5756,236.287 52.7423,232.454 48,228.5C 46.9084,178.836 46.575,129.17 47,79.5C 49.3652,73.7975 53.1985,69.2975 58.5,66C 74.3647,58.3789 91.0313,53.3789 108.5,51C 122.635,49.3386 136.635,47.8386 150.5,46.5 Z"/></g>
<g><path style="opacity:1" fill="#95f0d5" d="M 141.5,52.5 C 178.501,50.647 215.168,53.147 251.5,60C 261.846,62.6714 271.846,66.3381 281.5,71C 291.427,76.6369 292.427,83.3036 284.5,91C 266.494,99.9362 247.494,105.603 227.5,108C 185.384,113.222 143.384,112.555 101.5,106C 86.7057,103.735 72.7057,99.0686 59.5,92C 49.5084,83.2735 50.5084,75.9402 62.5,70C 75.9223,63.8109 89.9223,59.4776 104.5,57C 117.003,55.6044 129.336,54.1044 141.5,52.5 Z"/></g>
<g><path style="opacity:1" fill="#598779" d="M 53.5,93.5 C 52.5027,114.327 52.1694,135.327 52.5,156.5C 51.3372,135.004 51.1705,113.337 52,91.5C 52.7172,92.0442 53.2172,92.7109 53.5,93.5 Z"/></g>
<g><path style="opacity:1" fill="#95f0d5" d="M 52.5,156.5 C 52.1694,135.327 52.5027,114.327 53.5,93.5C 58.8163,97.1615 64.483,100.328 70.5,103C 118.663,116.694 167.663,120.361 217.5,114C 241.295,112.052 263.961,106.052 285.5,96C 286.729,94.4708 288.229,93.3041 290,92.5C 290.667,113.833 290.667,135.167 290,156.5C 274.837,167.784 258.003,175.617 239.5,180C 216.319,185.538 192.819,187.705 169,186.5C 132.187,189.387 97.3532,182.554 64.5,166C 60.6006,162.589 56.6006,159.422 52.5,156.5 Z"/></g>
<g><path style="opacity:1" fill="#c5cff3" d="M 289.5,162.5 C 290.828,183.67 290.828,205.004 289.5,226.5C 275.818,236.34 260.818,243.507 244.5,248C 209.54,255.259 174.207,257.593 138.5,255C 113.167,253.667 89.1674,247.334 66.5,236C 62.0905,232.379 57.5905,228.879 53,225.5C 52.1669,204.825 52.3336,184.159 53.5,163.5C 60.4918,169.333 68.1584,174.167 76.5,178C 106.888,188.731 138.222,193.231 170.5,191.5C 199.282,191.889 227.615,188.389 255.5,181C 267.632,176.104 278.965,169.938 289.5,162.5 Z"/></g>
</svg>
