<?xml version="1.0" encoding="UTF-8"?>
<!DOCTYPE svg PUBLIC "-//W3C//DTD SVG 1.1//EN" "http://www.w3.org/Graphics/SVG/1.1/DTD/svg11.dtd">
<svg xmlns="http://www.w3.org/2000/svg" version="1.1" width="343px" height="309px" style="shape-rendering:geometricPrecision; text-rendering:geometricPrecision; image-rendering:optimizeQuality; fill-rule:evenodd; clip-rule:evenodd" xmlns:xlink="http://www.w3.org/1999/xlink">
<g><path style="opacity:0.946" fill="#242121" d="M 150.5,46.5 C 185.183,45.2629 219.517,48.0963 253.5,55C 264.765,57.4213 275.431,61.4213 285.5,67C 288.333,69.8333 291.167,72.6667 294,75.5C 295.509,113.272 296.342,151.105 296.5,189C 296.333,202.167 296.167,215.333 296,228.5C 269.815,247.772 240.315,258.272 207.5,260C 183.165,261.969 158.832,261.969 134.5,260C 109.188,258.006 85.1881,251.339 62.5,240C 57.5756,236.287 52.7423,232.454 48,228.5C 46.9084,178.836 46.575,129.17 47,79.5C 49.3652,73.7975 53.1985,69.2975 58.5,66C 74.3647,58.3789 91.0313,53.3789 108.5,51C 122.635,49.3386 136.635,47.8386 150.5,46.5 Z"/></g>
<g><path style="opacity:1" fill="#f85151" d="M 139.5,52.5 C 177.161,50.6246 214.494,53.1246 251.5,60C 303.51,75.0923 303.176,89.7589 250.5,104C 200.942,113.151 151.276,113.817 101.5,106C 87.4693,103.825 74.1359,99.492 61.5,93C 49.2568,84.791 49.5902,77.1243 62.5,70C 75.9223,63.8109 89.9223,59.4776 104.5,57C 116.361,55.8792 128.027,54.3792 139.5,52.5 Z"/></g>
<g><path style="opacity:1" fill="#8b3737" d="M 53.5,93.5 C 52.5027,114.327 52.1694,135.327 52.5,156.5C 51.3372,135.004 51.1705,113.337 52,91.5C 52.7172,92.0442 53.2172,92.7109 53.5,93.5 Z"/></g>
<g><path style="opacity:1" fill="#f85151" d="M 52.5,156.5 C 52.1694,135.327 52.5027,114.327 53.5,93.5C 63.7386,100.783 75.0719,105.616 87.5,108C 139.356,118.61 191.356,119.277 243.5,110C 260.453,107.732 275.953,101.899 290,92.5C 290.667,113.833 290.667,135.167 290,156.5C 274.837,167.784 258.003,175.617 239.5,180C 217.103,184.979 194.436,187.146 171.5,186.5C 140.265,188.633 109.932,184.466 80.5,174C 69.9242,169.893 60.5908,164.06 52.5,156.5 Z"/></g>
<g><path style="opacity:1" fill="#c5cff3" d="M 289.5,162.5 C 290.828,183.67 290.828,205.004 289.5,226.5C 275.818,236.34 260.818,243.507 244.5,248C 209.54,255.259 174.207,257.593 138.5,255C 113.167,253.667 89.1674,247.334 66.5,236C 62.0905,232.379 57.5905,228.879 53,225.5C 52.1669,204.825 52.3336,184.159 53.5,163.5C 60.4918,169.333 68.1584,174.167 76.5,178C 106.888,188.731 138.222,193.231 170.5,191.5C 199.282,191.889 227.615,188.389 255.5,181C 267.632,176.104 278.965,169.938 289.5,162.5 Z"/></g>
</svg>
