<?xml version="1.0" encoding="UTF-8"?>
<!DOCTYPE svg PUBLIC "-//W3C//DTD SVG 1.1//EN" "http://www.w3.org/Graphics/SVG/1.1/DTD/svg11.dtd">
<svg xmlns="http://www.w3.org/2000/svg" version="1.1" width="343px" height="376px" style="shape-rendering:geometricPrecision; text-rendering:geometricPrecision; image-rendering:optimizeQuality; fill-rule:evenodd; clip-rule:evenodd" xmlns:xlink="http://www.w3.org/1999/xlink">
<g><path style="opacity:0.948" fill="#232121" d="M 150.5,46.5 C 183.787,45.4014 216.787,47.9014 249.5,54C 261.651,56.606 273.318,60.606 284.5,66C 289.05,68.883 292.55,72.7163 295,77.5C 296.244,147.306 296.744,217.139 296.5,287C 295.955,290.187 295.289,293.354 294.5,296.5C 268.875,314.877 240.208,325.044 208.5,327C 175.047,329.671 141.714,328.671 108.5,324C 92.0919,320.309 76.4252,314.642 61.5,307C 56.9397,302.806 52.1064,298.972 47,295.5C 47.3621,237.165 47.1954,178.832 46.5,120.5C 46.3773,106.123 46.8773,91.7896 48,77.5C 50.1145,73.052 53.2811,69.552 57.5,67C 73.8235,58.4482 91.1568,53.1148 109.5,51C 123.294,49.2791 136.961,47.7791 150.5,46.5 Z"/></g>
<g><path style="opacity:1" fill="#f85151" d="M 139.5,52.5 C 158.836,52.3334 178.17,52.5 197.5,53C 223.618,53.5961 248.951,58.2628 273.5,67C 296.307,77.5445 295.973,87.5445 272.5,97C 247.224,105.483 221.224,110.15 194.5,111C 154.819,113.835 115.819,110.168 77.5,100C 44.609,88.6019 44.2757,76.6019 76.5,64C 97.2315,58.0693 118.231,54.2359 139.5,52.5 Z"/></g>
<g><path style="opacity:1" fill="#f95151" d="M 52.5,92.5 C 58.1943,97.0169 64.5276,100.517 71.5,103C 115.297,115.892 159.964,119.892 205.5,115C 233.067,114.221 259.4,108.221 284.5,97C 286.609,95.8589 288.442,94.3589 290,92.5C 290.667,113.833 290.667,135.167 290,156.5C 276.177,167.327 260.677,174.827 243.5,179C 232.904,181.371 222.237,183.371 211.5,185C 186.86,186.574 162.193,186.907 137.5,186C 112.543,184.476 88.8767,178.142 66.5,167C 61.7286,163.862 57.2286,160.362 53,156.5C 52.5,135.169 52.3334,113.836 52.5,92.5 Z"/></g>
<g><path style="opacity:1" fill="#c5cef3" d="M 289.5,162.5 C 290.663,183.329 290.829,204.329 290,225.5C 264.303,243.058 235.803,252.558 204.5,254C 161.842,259.386 120.175,255.386 79.5,242C 74.8333,239.667 70.1667,237.333 65.5,235C 61.6438,231.643 57.6438,228.476 53.5,225.5C 52.1667,204.833 52.1667,184.167 53.5,163.5C 60.6689,169.59 68.6689,174.423 77.5,178C 108.703,188.906 140.87,193.406 174,191.5C 206.177,192.296 237.343,187.13 267.5,176C 275.269,172.033 282.603,167.533 289.5,162.5 Z"/></g>
<g><path style="opacity:1" fill="#a1a8c4" d="M 288.5,232.5 C 288.56,231.957 288.893,231.624 289.5,231.5C 290.828,251.996 290.828,272.329 289.5,292.5C 289.83,272.326 289.497,252.326 288.5,232.5 Z"/></g>
<g><path style="opacity:1" fill="#c4cef3" d="M 288.5,232.5 C 289.497,252.326 289.83,272.326 289.5,292.5C 275.083,304.04 258.749,311.873 240.5,316C 194.54,325.509 148.54,325.843 102.5,317C 83.4507,313.224 66.6173,305.058 52,292.5C 51.3333,271.833 51.3333,251.167 52,230.5C 64.4177,240.959 78.5843,248.126 94.5,252C 116.607,257.761 139.107,260.595 162,260.5C 188.074,261.021 213.908,258.854 239.5,254C 257.2,249.827 273.534,242.66 288.5,232.5 Z"/></g>
</svg>
