<?xml version="1.0" encoding="UTF-8"?>
<!DOCTYPE svg PUBLIC "-//W3C//DTD SVG 1.1//EN" "http://www.w3.org/Graphics/SVG/1.1/DTD/svg11.dtd">
<svg xmlns="http://www.w3.org/2000/svg" version="1.1" width="344px" height="451px" style="shape-rendering:geometricPrecision; text-rendering:geometricPrecision; image-rendering:optimizeQuality; fill-rule:evenodd; clip-rule:evenodd" xmlns:xlink="http://www.w3.org/1999/xlink">
<g><path style="opacity:0.953" fill="#222223" d="M 150.5,46.5 C 183.787,45.4014 216.787,47.9014 249.5,54C 262.932,56.6982 275.598,61.3649 287.5,68C 290.372,70.5366 292.872,73.3699 295,76.5C 296.154,113.288 296.654,150.121 296.5,187C 296.416,249.17 295.916,311.337 295,373.5C 288.325,379.838 280.825,385.004 272.5,389C 207.988,407.493 143.321,408.16 78.5,391C 72.9541,388.06 67.2874,385.394 61.5,383C 56.9677,378.133 52.1344,373.633 47,369.5C 47.4628,287.973 47.2962,206.64 46.5,125.5C 46.552,109.485 47.052,93.4852 48,77.5C 50.1145,73.052 53.2811,69.552 57.5,67C 73.8565,58.5762 91.1898,53.2429 109.5,51C 123.295,49.2791 136.961,47.7791 150.5,46.5 Z"/></g>
<g><path style="opacity:1" fill="#c4cef3" d="M 142.5,52.5 C 177.749,50.9912 212.749,53.1579 247.5,59C 262.935,61.1418 276.769,66.9752 289,76.5C 291.732,82.559 290.232,87.3923 284.5,91C 266.702,100.433 247.702,106.1 227.5,108C 183.664,113.455 139.997,112.455 96.5,105C 83.1221,102.159 70.4554,97.4928 58.5,91C 49.9948,83.1583 50.9948,76.4916 61.5,71C 75.6448,63.7304 90.6448,59.0638 106.5,57C 118.626,55.2632 130.626,53.7632 142.5,52.5 Z"/></g>
<g><path style="opacity:1" fill="#c5cff4" d="M 52.5,92.5 C 58.1943,97.0169 64.5276,100.517 71.5,103C 90.3894,109.072 109.723,113.072 129.5,115C 168.399,118.162 207.066,116.496 245.5,110C 258.292,107.439 270.625,103.439 282.5,98C 285.266,96.5331 287.766,94.6998 290,92.5C 290.833,114.174 290.666,135.841 289.5,157.5C 276.717,166.724 262.717,173.557 247.5,178C 232.707,181.825 217.707,184.492 202.5,186C 180.833,186.667 159.167,186.667 137.5,186C 112.527,184.473 88.86,178.14 66.5,167C 62.0905,163.379 57.5905,159.879 53,156.5C 52.5,135.169 52.3334,113.836 52.5,92.5 Z"/></g>
<g><path style="opacity:1" fill="#c4cef3" d="M 289.5,163.5 C 290.497,182.993 290.83,202.66 290.5,222.5C 284.613,227.197 278.28,231.363 271.5,235C 250.653,245.045 228.653,250.712 205.5,252C 163.671,256.743 122.671,253.076 82.5,241C 71.7734,236.222 61.9401,230.055 53,222.5C 52.3333,202.5 52.3333,182.5 53,162.5C 60.0683,169.291 68.235,174.457 77.5,178C 108.668,189.214 140.834,193.714 174,191.5C 206.191,192.295 237.358,187.129 267.5,176C 275.023,172.074 282.356,167.908 289.5,163.5 Z"/></g>
<g><path style="opacity:1" fill="#72778a" d="M 289.5,163.5 C 289.56,162.957 289.893,162.624 290.5,162.5C 291.828,182.663 291.828,202.663 290.5,222.5C 290.83,202.66 290.497,182.993 289.5,163.5 Z"/></g>
<g><path style="opacity:1" fill="#c5cff3" d="M 289.5,229.5 C 290.496,244.658 290.83,259.991 290.5,275.5C 290.5,282.5 290.5,289.5 290.5,296.5C 285.162,298.979 280.162,302.146 275.5,306C 252.353,316.833 228.019,323.499 202.5,326C 178.5,326.667 154.5,326.667 130.5,326C 108.913,325.359 88.5799,320.025 69.5,310C 64.0234,306.024 58.6901,301.858 53.5,297.5C 52.1667,274.833 52.1667,252.167 53.5,229.5C 65.7293,239.781 79.7293,246.614 95.5,250C 145.794,261.29 196.127,261.29 246.5,250C 261.979,245.258 276.312,238.425 289.5,229.5 Z"/></g>
<g><path style="opacity:1" fill="#3b3d43" d="M 289.5,229.5 C 289.56,228.957 289.893,228.624 290.5,228.5C 291.827,244.328 291.827,259.995 290.5,275.5C 290.83,259.991 290.496,244.658 289.5,229.5 Z"/></g>
<g><path style="opacity:1" fill="#c5cef3" d="M 52.5,366.5 C 52.1694,345.327 52.5027,324.327 53.5,303.5C 66.6908,315.263 82.0241,323.097 99.5,327C 107.611,327.151 115.611,328.151 123.5,330C 143.334,330.492 163.167,330.992 183,331.5C 215.62,331.293 246.787,324.46 276.5,311C 281,307.833 285.5,304.667 290,301.5C 290.667,324.5 290.667,347.5 290,370.5C 284.783,375.526 278.95,379.692 272.5,383C 208.794,402.142 144.794,403.142 80.5,386C 75.6203,383.393 70.6203,381.06 65.5,379C 61.2713,374.602 56.9379,370.436 52.5,366.5 Z"/></g>
<g><path style="opacity:1" fill="#575a67" d="M 53.5,303.5 C 52.5027,324.327 52.1694,345.327 52.5,366.5C 51.1717,345.33 51.1717,323.996 52.5,302.5C 53.1067,302.624 53.44,302.957 53.5,303.5 Z"/></g>
</svg>
