<?xml version="1.0" encoding="UTF-8"?>
<!DOCTYPE svg PUBLIC "-//W3C//DTD SVG 1.1//EN" "http://www.w3.org/Graphics/SVG/1.1/DTD/svg11.dtd">
<svg xmlns="http://www.w3.org/2000/svg" version="1.1" width="343px" height="445px" style="shape-rendering:geometricPrecision; text-rendering:geometricPrecision; image-rendering:optimizeQuality; fill-rule:evenodd; clip-rule:evenodd" xmlns:xlink="http://www.w3.org/1999/xlink">
<g><path style="opacity:0.953" fill="#222323" d="M 150.5,46.5 C 186.914,45.1721 222.914,48.3388 258.5,56C 267.48,58.5484 276.147,61.8818 284.5,66C 290.203,69.368 294.037,74.2013 296,80.5C 296.045,175.171 296.045,269.837 296,364.5C 270.493,383.673 241.66,394.173 209.5,396C 176.037,398.776 142.703,397.776 109.5,393C 86.589,389.205 66.2556,380.038 48.5,365.5C 47.4572,329.007 46.7906,292.507 46.5,256C 47.8161,210.833 47.8161,165.667 46.5,120.5C 46.3773,106.123 46.8773,91.7896 48,77.5C 50.1145,73.052 53.2811,69.552 57.5,67C 73.8235,58.4482 91.1568,53.1148 109.5,51C 123.294,49.2791 136.961,47.7791 150.5,46.5 Z"/></g>
<g><path style="opacity:1" fill="#95f0d5" d="M 139.5,52.5 C 175.75,50.9113 211.75,53.078 247.5,59C 259.996,61.9433 271.996,66.2766 283.5,72C 292.434,77.9222 292.767,84.2556 284.5,91C 266.715,100.532 247.715,106.199 227.5,108C 183.655,113.455 139.989,112.455 96.5,105C 82.9909,102.577 70.3243,97.9103 58.5,91C 53.0726,87.6754 51.5726,83.1754 54,77.5C 60.1556,70.8356 67.6556,66.3356 76.5,64C 97.2323,58.0692 118.232,54.2359 139.5,52.5 Z"/></g>
<g><path style="opacity:1" fill="#95f1d6" d="M 52.5,92.5 C 58.1943,97.0169 64.5276,100.517 71.5,103C 115.297,115.892 159.964,119.892 205.5,115C 233.067,114.221 259.4,108.221 284.5,97C 286.609,95.8589 288.442,94.3589 290,92.5C 290.667,113.833 290.667,135.167 290,156.5C 276.138,167.24 260.638,174.74 243.5,179C 232.904,181.371 222.237,183.371 211.5,185C 186.86,186.574 162.193,186.907 137.5,186C 112.543,184.476 88.8767,178.142 66.5,167C 61.7286,163.862 57.2286,160.362 53,156.5C 52.5,135.169 52.3334,113.836 52.5,92.5 Z"/></g>
<g><path style="opacity:1" fill="#c5cef3" d="M 289.5,162.5 C 290.663,183.329 290.829,204.329 290,225.5C 267.711,241.291 242.877,250.457 215.5,253C 182.109,256.655 148.775,256.322 115.5,252C 98.0038,248.792 81.3371,243.125 65.5,235C 61.6438,231.643 57.6438,228.476 53.5,225.5C 52.1667,204.833 52.1667,184.167 53.5,163.5C 60.6689,169.59 68.6689,174.423 77.5,178C 108.694,188.986 140.861,193.486 174,191.5C 206.181,192.332 237.347,187.166 267.5,176C 275.269,172.033 282.603,167.533 289.5,162.5 Z"/></g>
<g><path style="opacity:1" fill="#a1a8c4" d="M 288.5,232.5 C 288.56,231.957 288.893,231.624 289.5,231.5C 290.828,251.996 290.828,272.329 289.5,292.5C 289.83,272.326 289.497,252.326 288.5,232.5 Z"/></g>
<g><path style="opacity:1" fill="#c4cef3" d="M 288.5,232.5 C 289.497,252.326 289.83,272.326 289.5,292.5C 275.083,304.04 258.749,311.873 240.5,316C 194.544,325.509 148.544,325.842 102.5,317C 83.4507,313.224 66.6173,305.058 52,292.5C 51.3333,271.833 51.3333,251.167 52,230.5C 64.4177,240.959 78.5843,248.126 94.5,252C 116.607,257.761 139.107,260.595 162,260.5C 194.479,261.501 226.312,257.667 257.5,249C 268.432,244.535 278.765,239.035 288.5,232.5 Z"/></g>
<g><path style="opacity:1" fill="#c5cff3" d="M 289.5,298.5 C 290.663,319.663 290.829,340.996 290,362.5C 264.43,380.347 235.93,389.847 204.5,391C 162.206,396.346 120.873,392.346 80.5,379C 70.2626,374.746 61.0959,368.912 53,361.5C 52.3333,340.833 52.3333,320.167 53,299.5C 59.9122,305.712 67.7455,310.545 76.5,314C 106.69,324.79 137.856,329.623 170,328.5C 181.506,328.15 193.006,327.65 204.5,327C 226.267,324.944 247.267,319.944 267.5,312C 275.399,308.227 282.732,303.727 289.5,298.5 Z"/></g>
</svg>
