<?xml version="1.0" encoding="UTF-8"?>
<!DOCTYPE svg PUBLIC "-//W3C//DTD SVG 1.1//EN" "http://www.w3.org/Graphics/SVG/1.1/DTD/svg11.dtd">
<svg xmlns="http://www.w3.org/2000/svg" version="1.1" width="343px" height="445px" style="shape-rendering:geometricPrecision; text-rendering:geometricPrecision; image-rendering:optimizeQuality; fill-rule:evenodd; clip-rule:evenodd" xmlns:xlink="http://www.w3.org/1999/xlink">
<g><path style="opacity:0.953" fill="#232122" d="M 150.5,46.5 C 186.914,45.1721 222.914,48.3388 258.5,56C 267.48,58.5484 276.147,61.8818 284.5,66C 290.203,69.368 294.037,74.2013 296,80.5C 296.045,175.171 296.045,269.837 296,364.5C 270.493,383.673 241.66,394.173 209.5,396C 176.037,398.776 142.703,397.776 109.5,393C 86.589,389.205 66.2556,380.038 48.5,365.5C 47.4572,329.007 46.7906,292.507 46.5,256C 47.8161,210.833 47.8161,165.667 46.5,120.5C 46.3773,106.123 46.8773,91.7896 48,77.5C 50.1145,73.052 53.2811,69.552 57.5,67C 73.8235,58.4482 91.1568,53.1148 109.5,51C 123.294,49.2791 136.961,47.7791 150.5,46.5 Z"/></g>
<g><path style="opacity:1" fill="#f85151" d="M 139.5,52.5 C 158.836,52.3334 178.17,52.5 197.5,53C 223.618,53.5961 248.951,58.2628 273.5,67C 296.307,77.5445 295.973,87.5445 272.5,97C 247.224,105.483 221.224,110.15 194.5,111C 154.819,113.835 115.819,110.168 77.5,100C 44.609,88.6019 44.2757,76.6019 76.5,64C 97.2315,58.0693 118.231,54.2359 139.5,52.5 Z"/></g>
<g><path style="opacity:1" fill="#f95151" d="M 52.5,92.5 C 58.1943,97.0169 64.5276,100.517 71.5,103C 115.297,115.892 159.964,119.892 205.5,115C 233.067,114.221 259.4,108.221 284.5,97C 286.609,95.8589 288.442,94.3589 290,92.5C 290.667,113.833 290.667,135.167 290,156.5C 276.177,167.327 260.677,174.827 243.5,179C 232.904,181.371 222.237,183.371 211.5,185C 186.86,186.574 162.193,186.907 137.5,186C 112.543,184.476 88.8767,178.142 66.5,167C 61.7286,163.862 57.2286,160.362 53,156.5C 52.5,135.169 52.3334,113.836 52.5,92.5 Z"/></g>
<g><path style="opacity:1" fill="#c5cef3" d="M 289.5,162.5 C 290.663,183.329 290.829,204.329 290,225.5C 267.721,241.289 242.888,250.456 215.5,253C 180.047,256.932 144.714,256.266 109.5,251C 94.1172,247.65 79.4505,242.317 65.5,235C 61.6438,231.643 57.6438,228.476 53.5,225.5C 52.1667,204.833 52.1667,184.167 53.5,163.5C 60.6689,169.59 68.6689,174.423 77.5,178C 108.692,188.906 140.859,193.406 174,191.5C 206.181,192.332 237.347,187.166 267.5,176C 275.269,172.033 282.603,167.533 289.5,162.5 Z"/></g>
<g><path style="opacity:1" fill="#a0a6c3" d="M 288.5,232.5 C 288.56,231.957 288.893,231.624 289.5,231.5C 290.828,252.329 290.828,272.996 289.5,293.5C 289.83,272.993 289.497,252.66 288.5,232.5 Z"/></g>
<g><path style="opacity:1" fill="#c4cef3" d="M 288.5,232.5 C 289.497,252.66 289.83,272.993 289.5,293.5C 263.265,310.932 234.265,320.432 202.5,322C 168.9,325.071 135.566,323.405 102.5,317C 83.4507,313.224 66.6173,305.058 52,292.5C 51.3333,271.833 51.3333,251.167 52,230.5C 64.4177,240.959 78.5843,248.126 94.5,252C 116.607,257.761 139.107,260.595 162,260.5C 194.479,261.501 226.312,257.667 257.5,249C 268.432,244.535 278.765,239.035 288.5,232.5 Z"/></g>
<g><path style="opacity:1" fill="#c5cff3" d="M 289.5,298.5 C 290.663,319.663 290.829,340.996 290,362.5C 264.43,380.347 235.93,389.847 204.5,391C 162.203,396.346 120.87,392.346 80.5,379C 70.2626,374.746 61.0959,368.912 53,361.5C 52.3333,340.833 52.3333,320.167 53,299.5C 59.9122,305.712 67.7455,310.545 76.5,314C 106.69,324.79 137.856,329.623 170,328.5C 181.506,328.15 193.006,327.65 204.5,327C 226.267,324.944 247.267,319.944 267.5,312C 275.399,308.227 282.732,303.727 289.5,298.5 Z"/></g>
</svg>
