<svg id="svg" version="1.1" xmlns="http://www.w3.org/2000/svg" xmlns:xlink="http://www.w3.org/1999/xlink" width="400" height="816.3265306122449" viewBox="0, 0, 400,816.3265306122449"><g id="svgg"><path id="path0" d="M76.000 73.600 C 76.000 74.133,75.733 74.400,75.200 74.400 C 74.667 74.400,74.400 74.667,74.400 75.200 C 74.400 75.733,74.133 76.000,73.600 76.000 C 72.833 76.000,72.800 76.267,72.800 82.400 C 72.800 88.533,72.833 88.800,73.600 88.800 C 74.334 88.800,74.400 89.067,74.400 92.037 C 74.400 94.938,74.483 95.297,75.200 95.484 C 75.915 95.671,76.000 96.030,76.000 98.847 C 76.000 101.733,76.068 102.000,76.800 102.000 C 77.533 102.000,77.600 102.267,77.600 105.200 C 77.600 108.133,77.667 108.400,78.400 108.400 C 79.134 108.400,79.200 108.667,79.200 111.637 C 79.200 114.538,79.283 114.897,80.000 115.084 C 80.715 115.271,80.800 115.630,80.800 118.447 C 80.800 121.333,80.868 121.600,81.600 121.600 C 82.333 121.600,82.400 121.867,82.400 124.800 C 82.400 127.733,82.467 128.000,83.200 128.000 C 83.933 128.000,84.000 128.267,84.000 131.173 C 84.000 133.995,84.089 134.374,84.800 134.600 C 85.513 134.826,85.992 138.116,85.655 140.476 C 85.634 140.627,85.973 140.864,86.408 141.003 C 87.105 141.224,87.200 141.616,87.200 144.264 C 87.200 146.938,87.289 147.298,88.000 147.484 C 88.680 147.662,88.801 148.032,88.805 149.947 C 88.813 152.877,89.115 153.919,90.043 154.214 C 90.702 154.423,90.800 154.866,90.800 157.627 C 90.800 160.533,90.867 160.800,91.600 160.800 C 92.333 160.800,92.400 161.067,92.400 164.000 C 92.400 166.933,92.467 167.200,93.200 167.200 C 93.933 167.200,94.000 167.467,94.000 170.400 C 94.000 173.333,94.067 173.600,94.800 173.600 C 95.537 173.600,95.600 173.867,95.600 177.000 C 95.600 180.133,95.663 180.400,96.400 180.400 C 97.131 180.400,97.200 180.667,97.200 183.504 C 97.200 186.174,97.312 186.677,98.000 187.107 C 98.676 187.529,98.800 188.040,98.800 190.403 C 98.800 192.667,98.953 193.353,99.600 194.000 C 100.236 194.636,100.400 195.333,100.400 197.400 C 100.400 199.412,100.570 200.170,101.152 200.752 C 101.709 201.309,101.947 202.253,102.067 204.389 C 102.191 206.580,102.395 207.365,102.915 207.656 C 103.442 207.951,103.600 208.589,103.600 210.420 C 103.600 211.828,103.773 212.800,104.024 212.800 C 104.257 212.800,104.319 213.007,104.162 213.261 C 104.006 213.514,104.152 213.922,104.486 214.166 C 104.893 214.463,105.153 215.522,105.269 217.354 C 105.389 219.227,105.643 220.242,106.072 220.556 C 106.512 220.877,106.749 221.892,106.865 223.951 C 106.985 226.074,107.213 227.021,107.690 227.369 C 108.142 227.700,108.415 228.694,108.563 230.546 C 108.801 233.524,108.975 234.000,109.824 234.000 C 110.277 234.000,110.400 234.674,110.400 237.153 C 110.400 239.970,110.485 240.329,111.200 240.516 C 111.912 240.702,112.000 241.062,112.000 243.800 C 112.000 246.517,112.091 246.899,112.784 247.080 C 113.463 247.257,113.583 247.696,113.684 250.342 C 113.760 252.339,113.962 253.400,114.267 253.400 C 115.067 253.400,115.164 253.747,115.237 256.884 C 115.296 259.464,115.420 259.964,116.036 260.125 C 116.650 260.286,116.783 260.813,116.882 263.458 C 116.984 266.164,117.097 266.592,117.700 266.544 C 118.313 266.496,118.400 266.886,118.400 269.682 C 118.400 272.538,118.484 272.897,119.200 273.084 C 119.908 273.269,120.000 273.630,120.000 276.233 C 120.000 278.762,120.111 279.231,120.800 279.600 C 121.492 279.970,121.600 280.438,121.600 283.052 C 121.600 285.738,121.689 286.098,122.400 286.284 C 123.110 286.470,123.200 286.830,123.200 289.484 C 123.200 292.138,123.290 292.498,124.000 292.684 C 124.708 292.869,124.800 293.230,124.800 295.833 C 124.800 298.362,124.911 298.831,125.600 299.200 C 126.256 299.551,126.401 300.041,126.405 301.914 C 126.412 304.754,126.730 306.000,127.447 306.000 C 127.824 306.000,128.013 306.540,128.043 307.700 C 128.066 308.635,128.125 309.670,128.174 310.000 C 128.223 310.330,128.294 311.005,128.332 311.500 C 128.369 311.995,128.648 312.400,128.950 312.400 C 129.592 312.400,130.000 314.113,130.000 316.803 C 130.000 318.370,130.141 318.744,130.800 318.916 C 131.512 319.102,131.600 319.462,131.600 322.200 C 131.600 324.938,131.688 325.298,132.400 325.484 C 133.115 325.671,133.200 326.030,133.200 328.847 C 133.200 331.733,133.268 332.000,134.000 332.000 C 134.733 332.000,134.800 332.267,134.800 335.200 C 134.800 338.133,134.867 338.400,135.600 338.400 C 136.334 338.400,136.400 338.667,136.400 341.637 C 136.400 344.538,136.483 344.897,137.200 345.084 C 137.915 345.271,138.000 345.630,138.000 348.447 C 138.000 351.333,138.068 351.600,138.800 351.600 C 139.520 351.600,140.030 355.276,139.647 357.700 C 139.621 357.865,139.960 358.000,140.400 358.000 C 141.134 358.000,141.200 358.267,141.200 361.237 C 141.200 364.138,141.283 364.497,142.000 364.684 C 142.710 364.870,142.800 365.230,142.800 367.884 C 142.800 370.538,142.890 370.898,143.600 371.084 C 144.310 371.270,144.400 371.630,144.400 374.284 C 144.400 376.938,144.490 377.298,145.200 377.484 C 145.901 377.667,146.000 378.030,146.000 380.414 C 146.000 383.489,146.238 384.400,147.043 384.400 C 147.454 384.400,147.601 385.003,147.605 386.700 C 147.612 389.494,147.927 390.800,148.595 390.800 C 148.932 390.800,149.188 391.849,149.376 394.000 C 149.620 396.799,149.752 397.200,150.427 397.200 C 151.130 397.200,151.200 397.507,151.200 400.600 C 151.200 403.733,151.263 404.000,152.000 404.000 C 152.733 404.000,152.800 404.267,152.800 407.200 C 152.800 410.133,152.867 410.400,153.600 410.400 C 154.333 410.400,154.400 410.667,154.400 413.600 C 154.400 416.533,154.467 416.800,155.200 416.800 C 155.934 416.800,156.000 417.067,156.000 420.037 C 156.000 422.938,156.083 423.297,156.800 423.484 C 157.515 423.671,157.600 424.030,157.600 426.847 C 157.600 429.733,157.668 430.000,158.400 430.000 C 159.133 430.000,159.200 430.267,159.200 433.200 C 159.200 436.133,159.267 436.400,160.000 436.400 C 160.734 436.400,160.800 436.667,160.800 439.637 C 160.800 442.538,160.883 442.897,161.600 443.084 C 162.310 443.270,162.400 443.630,162.400 446.284 C 162.400 448.938,162.490 449.298,163.200 449.484 C 163.915 449.671,164.000 450.030,164.000 452.847 C 164.000 455.733,164.068 456.000,164.800 456.000 C 165.544 456.000,165.982 459.071,165.637 461.870 C 165.605 462.128,165.944 462.455,166.389 462.597 C 167.091 462.819,167.200 463.194,167.200 465.394 C 167.200 468.293,167.449 469.200,168.243 469.200 C 168.643 469.200,168.800 469.750,168.800 471.150 C 168.800 474.219,169.188 475.600,170.050 475.600 C 170.722 475.600,170.800 475.939,170.800 478.837 C 170.800 481.738,170.883 482.097,171.600 482.284 C 172.315 482.471,172.400 482.830,172.400 485.647 C 172.400 488.533,172.468 488.800,173.200 488.800 C 173.933 488.800,174.000 489.067,174.000 492.000 C 174.000 494.933,174.067 495.200,174.800 495.200 C 175.533 495.200,175.600 495.467,175.600 498.373 C 175.600 501.195,175.689 501.574,176.400 501.800 C 177.111 502.026,177.200 502.405,177.200 505.227 C 177.200 508.133,177.267 508.400,178.000 508.400 C 178.733 508.400,178.800 508.667,178.800 511.600 C 178.800 514.533,178.867 514.800,179.600 514.800 C 180.332 514.800,180.400 515.067,180.400 517.953 C 180.400 520.770,180.485 521.129,181.200 521.316 C 181.905 521.500,182.000 521.862,182.000 524.359 C 182.000 526.760,182.122 527.270,182.800 527.693 C 183.488 528.123,183.600 528.626,183.600 531.296 C 183.600 534.133,183.669 534.400,184.400 534.400 C 185.133 534.400,185.200 534.667,185.200 537.600 C 185.200 540.533,185.267 540.800,186.000 540.800 C 186.734 540.800,186.800 541.067,186.800 544.037 C 186.800 546.938,186.883 547.297,187.600 547.484 C 188.280 547.662,188.401 548.032,188.405 549.947 C 188.413 552.964,188.730 554.000,189.647 554.000 C 190.301 554.000,190.400 554.316,190.400 556.400 C 190.400 558.533,190.489 558.800,191.200 558.800 C 191.870 558.800,192.000 559.067,192.000 560.437 C 192.000 561.738,192.164 562.118,192.800 562.284 C 193.243 562.400,193.600 562.830,193.600 563.247 C 193.600 563.733,193.883 564.000,194.400 564.000 C 194.933 564.000,195.200 564.267,195.200 564.800 C 195.200 565.556,195.467 565.600,200.000 565.600 C 204.484 565.600,204.800 565.549,204.800 564.824 C 204.800 564.216,205.125 564.021,206.300 563.924 C 207.505 563.824,207.825 563.623,207.928 562.900 C 208.010 562.322,208.332 562.000,208.828 562.000 C 209.526 562.000,209.600 561.695,209.600 558.800 C 209.600 555.933,209.678 555.600,210.353 555.600 C 211.270 555.600,211.587 554.564,211.595 551.547 C 211.599 549.632,211.720 549.262,212.400 549.084 C 213.111 548.898,213.200 548.538,213.200 545.864 C 213.200 543.205,213.293 542.824,214.000 542.600 C 214.711 542.374,214.800 541.995,214.800 539.173 C 214.800 536.267,214.867 536.000,215.600 536.000 C 216.333 536.000,216.400 535.733,216.400 532.800 C 216.400 529.867,216.467 529.600,217.200 529.600 C 217.932 529.600,218.000 529.333,218.000 526.447 C 218.000 523.630,218.085 523.271,218.800 523.084 C 219.517 522.897,219.600 522.538,219.600 519.637 C 219.600 516.667,219.666 516.400,220.400 516.400 C 221.133 516.400,221.200 516.133,221.200 513.200 C 221.200 510.267,221.267 510.000,222.000 510.000 C 222.732 510.000,222.800 509.733,222.800 506.847 C 222.800 504.030,222.885 503.671,223.600 503.484 C 224.317 503.297,224.400 502.938,224.400 500.037 C 224.400 497.067,224.466 496.800,225.200 496.800 C 225.933 496.800,226.000 496.533,226.000 493.600 C 226.000 490.667,226.067 490.400,226.800 490.400 C 227.533 490.400,227.600 490.133,227.600 487.200 C 227.600 484.267,227.667 484.000,228.400 484.000 C 229.137 484.000,229.200 483.733,229.200 480.600 C 229.200 477.537,229.275 477.200,229.953 477.200 C 230.870 477.200,231.187 476.164,231.195 473.147 C 231.199 471.232,231.320 470.862,232.000 470.684 C 232.710 470.498,232.800 470.138,232.800 467.484 C 232.800 464.830,232.890 464.470,233.600 464.284 C 234.317 464.097,234.400 463.738,234.400 460.837 C 234.400 457.867,234.466 457.600,235.200 457.600 C 235.933 457.600,236.000 457.333,236.000 454.400 C 236.000 451.467,236.067 451.200,236.800 451.200 C 237.532 451.200,237.600 450.933,237.600 448.047 C 237.600 445.230,237.685 444.871,238.400 444.684 C 239.116 444.497,239.200 444.138,239.200 441.284 C 239.200 438.430,239.284 438.071,240.000 437.884 C 240.711 437.698,240.800 437.338,240.800 434.637 C 240.800 431.867,240.870 431.600,241.600 431.600 C 242.333 431.600,242.400 431.333,242.400 428.400 C 242.400 425.467,242.467 425.200,243.200 425.200 C 243.937 425.200,244.000 424.933,244.000 421.800 C 244.000 418.667,244.063 418.400,244.800 418.400 C 245.533 418.400,245.600 418.133,245.600 415.200 C 245.600 412.267,245.667 412.000,246.400 412.000 C 247.133 412.000,247.200 411.733,247.200 408.800 C 247.200 405.867,247.267 405.600,248.000 405.600 C 248.733 405.600,248.800 405.333,248.800 402.427 C 248.800 399.677,248.900 399.222,249.549 399.016 C 250.353 398.761,250.788 397.062,250.796 394.147 C 250.799 392.832,250.964 392.450,251.600 392.284 C 252.310 392.098,252.400 391.738,252.400 389.084 C 252.400 386.430,252.490 386.070,253.200 385.884 C 253.911 385.698,254.000 385.338,254.000 382.664 C 254.000 380.005,254.093 379.624,254.800 379.400 C 255.511 379.174,255.600 378.795,255.600 375.973 C 255.600 373.067,255.667 372.800,256.400 372.800 C 257.133 372.800,257.200 372.533,257.200 369.600 C 257.200 366.667,257.267 366.400,258.000 366.400 C 258.732 366.400,258.800 366.133,258.800 363.247 C 258.800 360.430,258.885 360.071,259.600 359.884 C 260.317 359.697,260.400 359.338,260.400 356.437 C 260.400 353.467,260.466 353.200,261.200 353.200 C 261.933 353.200,262.000 352.933,262.000 350.000 C 262.000 347.067,262.067 346.800,262.800 346.800 C 263.532 346.800,263.600 346.533,263.600 343.647 C 263.600 340.830,263.685 340.471,264.400 340.284 C 265.117 340.097,265.200 339.738,265.200 336.837 C 265.200 333.867,265.266 333.600,266.000 333.600 C 266.733 333.600,266.800 333.333,266.800 330.400 C 266.800 327.467,266.867 327.200,267.600 327.200 C 268.333 327.200,268.400 326.933,268.400 324.000 C 268.400 321.067,268.467 320.800,269.200 320.800 C 269.835 320.800,270.001 320.532,270.003 319.500 C 270.012 316.259,270.498 314.068,271.252 313.871 C 271.899 313.701,272.000 313.269,272.000 310.684 C 272.000 308.030,272.090 307.670,272.800 307.484 C 273.510 307.298,273.600 306.938,273.600 304.284 C 273.600 301.630,273.690 301.270,274.400 301.084 C 275.117 300.897,275.200 300.538,275.200 297.637 C 275.200 294.667,275.266 294.400,276.000 294.400 C 276.733 294.400,276.800 294.133,276.800 291.200 C 276.800 288.267,276.867 288.000,277.600 288.000 C 278.332 288.000,278.400 287.733,278.400 284.847 C 278.400 282.030,278.485 281.671,279.200 281.484 C 279.917 281.297,280.000 280.938,280.000 278.037 C 280.000 275.067,280.066 274.800,280.800 274.800 C 281.533 274.800,281.600 274.533,281.600 271.600 C 281.600 268.667,281.667 268.400,282.400 268.400 C 283.133 268.400,283.200 268.133,283.200 265.200 C 283.200 262.267,283.267 262.000,284.000 262.000 C 284.737 262.000,284.800 261.733,284.800 258.600 C 284.800 255.467,284.863 255.200,285.600 255.200 C 286.333 255.200,286.400 254.933,286.400 252.000 C 286.400 249.067,286.467 248.800,287.200 248.800 C 287.933 248.800,288.000 248.533,288.000 245.600 C 288.000 242.667,288.067 242.400,288.800 242.400 C 289.533 242.400,289.600 242.133,289.600 239.200 C 289.600 237.440,289.767 236.000,289.971 236.000 C 291.049 236.000,291.600 234.652,291.600 232.018 C 291.600 229.630,291.699 229.267,292.400 229.084 C 293.110 228.898,293.200 228.538,293.200 225.884 C 293.200 223.230,293.290 222.870,294.000 222.684 C 294.711 222.498,294.800 222.138,294.800 219.464 C 294.800 216.805,294.893 216.424,295.600 216.200 C 296.311 215.974,296.400 215.595,296.400 212.773 C 296.400 209.867,296.467 209.600,297.200 209.600 C 297.933 209.600,298.000 209.333,298.000 206.400 C 298.000 203.467,298.067 203.200,298.800 203.200 C 299.532 203.200,299.600 202.933,299.600 200.047 C 299.600 197.230,299.685 196.871,300.400 196.684 C 301.117 196.497,301.200 196.138,301.200 193.237 C 301.200 190.267,301.266 190.000,302.000 190.000 C 302.733 190.000,302.800 189.733,302.800 186.800 C 302.800 183.867,302.867 183.600,303.600 183.600 C 304.332 183.600,304.400 183.333,304.400 180.447 C 304.400 177.630,304.485 177.271,305.200 177.084 C 305.917 176.897,306.000 176.538,306.000 173.637 C 306.000 170.667,306.066 170.400,306.800 170.400 C 307.532 170.400,307.600 170.133,307.600 167.247 C 307.600 164.430,307.685 164.071,308.400 163.884 C 309.111 163.698,309.200 163.338,309.200 160.637 C 309.200 157.913,309.279 157.600,309.965 157.600 C 310.671 157.600,311.424 155.467,311.176 154.170 C 310.870 152.567,311.270 150.875,312.000 150.684 C 312.710 150.498,312.800 150.138,312.800 147.484 C 312.800 144.816,312.887 144.470,313.611 144.281 C 314.058 144.164,314.396 143.918,314.364 143.734 C 313.981 141.557,314.479 138.073,315.200 137.884 C 315.917 137.697,316.000 137.338,316.000 134.437 C 316.000 131.467,316.066 131.200,316.800 131.200 C 317.533 131.200,317.600 130.933,317.600 128.000 C 317.600 125.067,317.667 124.800,318.400 124.800 C 319.132 124.800,319.200 124.533,319.200 121.647 C 319.200 118.830,319.285 118.471,320.000 118.284 C 320.717 118.097,320.800 117.738,320.800 114.837 C 320.800 111.867,320.866 111.600,321.600 111.600 C 322.333 111.600,322.400 111.333,322.400 108.400 C 322.400 105.467,322.467 105.200,323.200 105.200 C 323.933 105.200,324.000 104.933,324.000 102.000 C 324.000 99.067,324.067 98.800,324.800 98.800 C 325.537 98.800,325.600 98.533,325.600 95.400 C 325.600 92.267,325.663 92.000,326.400 92.000 C 327.133 92.000,327.200 91.733,327.200 88.800 C 327.200 85.867,327.267 85.600,328.000 85.600 C 328.747 85.600,328.800 85.333,328.800 81.600 C 328.800 77.867,328.747 77.600,328.000 77.600 C 327.333 77.600,327.200 77.333,327.200 76.000 C 327.200 74.667,327.067 74.400,326.400 74.400 C 325.867 74.400,325.600 74.133,325.600 73.600 C 325.600 72.802,325.333 72.800,200.800 72.800 C 76.267 72.800,76.000 72.802,76.000 73.600 M307.200 89.968 C 307.750 90.126,308.159 90.513,308.109 90.828 C 307.925 91.986,306.758 96.653,306.216 98.400 C 305.908 99.390,305.538 100.920,305.394 101.800 C 305.249 102.680,304.786 104.436,304.365 105.702 C 303.944 106.967,303.600 108.414,303.600 108.915 C 303.600 109.417,303.240 110.852,302.800 112.104 C 302.360 113.356,302.000 114.806,302.000 115.327 C 302.000 115.848,301.640 117.321,301.200 118.600 C 300.760 119.879,300.400 121.319,300.400 121.800 C 300.400 122.281,300.040 123.721,299.600 125.000 C 299.160 126.279,298.800 127.752,298.800 128.273 C 298.800 128.794,298.440 130.244,298.000 131.496 C 297.560 132.748,297.200 134.183,297.200 134.685 C 297.200 135.186,296.853 136.633,296.429 137.898 C 296.005 139.164,295.534 140.992,295.384 141.959 C 295.233 142.927,294.882 144.277,294.604 144.959 C 294.326 145.642,293.969 147.100,293.810 148.200 C 293.651 149.300,293.356 150.508,293.155 150.885 C 292.953 151.262,292.543 152.792,292.243 154.285 C 291.716 156.914,291.012 159.830,289.800 164.400 C 289.024 167.328,288.029 171.298,287.396 174.000 C 285.858 180.558,285.488 182.024,284.772 184.400 C 284.341 185.830,283.991 187.366,283.994 187.814 C 283.997 188.261,283.640 189.652,283.200 190.904 C 282.760 192.156,282.400 193.596,282.400 194.104 C 282.400 194.612,282.040 196.052,281.600 197.304 C 281.160 198.556,280.800 200.006,280.800 200.527 C 280.800 201.048,280.440 202.521,280.000 203.800 C 279.560 205.079,279.200 206.519,279.200 207.000 C 279.200 207.481,278.840 208.921,278.400 210.200 C 277.960 211.479,277.600 212.952,277.600 213.473 C 277.600 213.994,277.240 215.444,276.800 216.696 C 276.360 217.948,276.000 219.383,276.000 219.885 C 276.000 220.386,275.653 221.833,275.229 223.098 C 274.805 224.364,274.334 226.210,274.182 227.200 C 274.031 228.190,273.742 229.314,273.540 229.699 C 273.338 230.083,272.991 231.433,272.768 232.699 C 272.546 233.964,272.111 235.810,271.802 236.800 C 271.219 238.669,270.363 242.073,269.438 246.200 C 268.928 248.475,268.625 249.695,266.803 256.800 C 266.379 258.450,265.680 261.240,265.249 263.000 C 264.817 264.760,264.256 267.010,264.001 268.000 C 263.746 268.990,263.348 270.700,263.116 271.800 C 262.883 272.900,262.358 274.836,261.947 276.102 C 261.536 277.367,261.200 278.814,261.200 279.315 C 261.200 279.817,260.840 281.252,260.400 282.504 C 259.960 283.756,259.600 285.177,259.600 285.662 C 259.600 286.147,259.253 287.726,258.829 289.172 C 257.722 292.948,256.461 297.942,256.146 299.800 C 255.997 300.680,255.655 301.940,255.386 302.600 C 255.118 303.260,254.774 304.662,254.622 305.715 C 254.471 306.769,254.111 308.209,253.822 308.915 C 253.534 309.622,253.169 311.100,253.010 312.200 C 252.851 313.300,252.553 314.514,252.347 314.899 C 252.142 315.283,251.791 316.633,251.568 317.899 C 251.346 319.164,250.911 321.010,250.602 322.000 C 249.930 324.153,248.975 327.995,248.187 331.715 C 247.871 333.208,247.450 334.738,247.252 335.115 C 247.055 335.492,246.766 336.610,246.610 337.600 C 246.455 338.590,246.007 340.570,245.615 342.000 C 244.774 345.067,244.162 347.473,243.145 351.700 C 242.735 353.405,242.040 356.240,241.600 358.000 C 241.160 359.760,240.440 362.640,240.000 364.400 C 239.560 366.160,238.840 369.040,238.400 370.800 C 237.960 372.560,237.265 375.395,236.855 377.100 C 235.838 381.327,235.226 383.733,234.385 386.800 C 233.993 388.230,233.545 390.210,233.390 391.200 C 233.234 392.190,232.944 393.310,232.745 393.689 C 232.546 394.068,232.212 395.328,232.002 396.489 C 231.792 397.650,231.354 399.500,231.028 400.600 C 230.301 403.049,229.353 406.900,228.587 410.515 C 228.271 412.008,227.847 413.538,227.645 413.915 C 227.444 414.292,227.149 415.500,226.990 416.600 C 226.831 417.700,226.474 419.158,226.196 419.841 C 225.918 420.523,225.564 421.873,225.409 422.841 C 225.255 423.808,224.807 425.770,224.415 427.200 C 223.574 430.267,222.962 432.673,221.945 436.900 C 221.535 438.605,220.840 441.440,220.400 443.200 C 218.271 451.718,217.914 453.167,217.401 455.400 C 217.098 456.720,216.584 458.790,216.260 460.000 C 215.936 461.210,215.311 463.640,214.872 465.400 C 214.432 467.160,213.764 469.770,213.387 471.200 C 213.011 472.630,212.463 474.880,212.170 476.200 C 211.331 479.988,210.408 483.645,209.798 485.600 C 209.489 486.590,209.054 488.436,208.832 489.701 C 208.609 490.967,208.258 492.317,208.053 492.701 C 207.847 493.086,207.549 494.300,207.390 495.400 C 207.231 496.500,206.866 497.978,206.578 498.685 C 206.289 499.391,205.928 500.831,205.774 501.885 C 205.621 502.938,205.257 504.430,204.965 505.200 C 204.674 505.970,204.267 507.500,204.062 508.600 C 203.054 514.005,200.680 521.600,200.000 521.600 C 199.819 521.600,199.553 520.835,199.410 519.900 C 199.266 518.965,198.817 516.940,198.412 515.400 C 196.554 508.340,195.998 506.088,195.746 504.600 C 195.597 503.720,195.255 502.460,194.986 501.800 C 194.718 501.140,194.374 499.738,194.222 498.685 C 194.071 497.631,193.711 496.191,193.422 495.485 C 193.134 494.778,192.769 493.300,192.610 492.200 C 192.451 491.100,192.156 489.892,191.955 489.515 C 191.753 489.138,191.329 487.608,191.013 486.115 C 190.247 482.500,189.299 478.649,188.572 476.200 C 188.246 475.100,187.808 473.250,187.598 472.089 C 187.388 470.928,187.051 469.668,186.848 469.289 C 186.645 468.910,186.349 467.700,186.190 466.600 C 186.031 465.500,185.674 464.042,185.396 463.359 C 185.118 462.677,184.767 461.327,184.616 460.359 C 184.466 459.392,183.995 457.564,183.571 456.298 C 183.147 455.033,182.800 453.586,182.800 453.085 C 182.800 452.583,182.440 451.148,182.000 449.896 C 181.560 448.644,181.200 447.194,181.200 446.673 C 181.200 446.152,180.840 444.679,180.400 443.400 C 179.960 442.121,179.600 440.681,179.600 440.200 C 179.600 439.719,179.240 438.279,178.800 437.000 C 178.360 435.721,178.000 434.254,178.000 433.739 C 178.000 433.224,177.653 431.767,177.229 430.502 C 176.805 429.236,176.334 427.408,176.184 426.441 C 176.033 425.473,175.682 424.123,175.404 423.441 C 175.126 422.758,174.769 421.300,174.610 420.200 C 174.451 419.100,174.155 417.890,173.952 417.511 C 173.749 417.132,173.412 415.872,173.202 414.711 C 172.992 413.550,172.554 411.700,172.228 410.600 C 171.501 408.151,170.553 404.300,169.787 400.685 C 169.471 399.192,169.047 397.662,168.845 397.285 C 168.644 396.908,168.349 395.700,168.190 394.600 C 168.031 393.500,167.666 392.022,167.378 391.315 C 167.089 390.609,166.729 389.169,166.578 388.115 C 166.426 387.062,166.066 385.622,165.778 384.915 C 165.489 384.209,165.129 382.769,164.978 381.715 C 164.826 380.662,164.482 379.260,164.214 378.600 C 163.945 377.940,163.603 376.680,163.454 375.800 C 163.139 373.942,161.878 368.948,160.771 365.172 C 160.347 363.726,160.000 362.147,160.000 361.662 C 160.000 361.177,159.640 359.756,159.200 358.504 C 158.760 357.252,158.400 355.817,158.400 355.315 C 158.400 354.814,158.053 353.367,157.629 352.102 C 157.205 350.836,156.734 349.008,156.584 348.041 C 156.433 347.073,156.082 345.723,155.804 345.041 C 155.526 344.358,155.174 342.938,155.022 341.885 C 154.871 340.831,154.511 339.391,154.222 338.685 C 153.934 337.978,153.569 336.500,153.410 335.400 C 153.251 334.300,152.953 333.086,152.747 332.701 C 152.542 332.317,152.191 330.967,151.968 329.701 C 151.746 328.436,151.311 326.590,151.002 325.600 C 150.330 323.447,149.375 319.605,148.587 315.885 C 148.271 314.392,147.847 312.862,147.645 312.485 C 147.444 312.108,147.149 310.900,146.990 309.800 C 146.831 308.700,146.466 307.222,146.178 306.515 C 145.889 305.809,145.529 304.369,145.378 303.315 C 145.226 302.262,144.882 300.860,144.614 300.200 C 144.345 299.540,144.003 298.280,143.854 297.400 C 143.539 295.542,142.278 290.548,141.171 286.772 C 140.747 285.326,140.400 283.747,140.400 283.262 C 140.400 282.777,140.040 281.356,139.600 280.104 C 139.160 278.852,138.800 277.412,138.800 276.904 C 138.800 276.396,138.440 274.956,138.000 273.704 C 137.560 272.452,137.200 271.012,137.200 270.504 C 137.200 269.996,136.840 268.556,136.400 267.304 C 135.960 266.052,135.600 264.617,135.600 264.115 C 135.600 263.614,135.256 262.167,134.835 260.902 C 134.414 259.636,133.951 257.880,133.806 257.000 C 133.662 256.120,133.292 254.590,132.984 253.600 C 132.345 251.541,131.357 247.526,130.768 244.600 C 130.547 243.500,130.113 241.790,129.803 240.800 C 129.193 238.849,128.272 235.200,127.430 231.400 C 127.137 230.080,126.589 227.830,126.213 226.400 C 125.504 223.713,124.499 219.742,123.123 214.200 C 122.686 212.440,122.064 210.010,121.740 208.800 C 121.185 206.728,120.785 205.045,119.369 198.800 C 119.044 197.370,118.513 195.521,118.189 194.692 C 117.865 193.862,117.600 192.733,117.600 192.182 C 117.600 191.631,117.240 190.156,116.800 188.904 C 116.360 187.652,116.000 186.217,116.000 185.715 C 116.000 185.214,115.653 183.767,115.229 182.502 C 114.805 181.236,114.334 179.390,114.182 178.400 C 114.031 177.410,113.742 176.286,113.540 175.901 C 113.338 175.517,112.991 174.167,112.768 172.901 C 112.546 171.636,112.111 169.790,111.802 168.800 C 111.201 166.871,110.211 162.927,109.593 160.000 C 109.385 159.010,108.846 156.806,108.396 155.103 C 107.628 152.199,107.226 150.610,105.153 142.303 C 104.700 140.486,104.064 138.010,103.740 136.800 C 103.416 135.590,102.902 133.520,102.599 132.200 C 102.086 129.967,101.729 128.518,99.600 120.000 C 99.160 118.240,98.440 115.360,98.000 113.600 C 97.560 111.840,96.850 109.005,96.422 107.300 C 95.994 105.595,95.280 102.617,94.835 100.683 C 94.390 98.749,93.905 96.970,93.756 96.730 C 92.892 95.331,92.405 90.594,93.075 90.100 C 93.829 89.544,305.273 89.413,307.200 89.968 M188.800 607.200 C 188.800 607.940,188.533 608.000,185.233 608.000 C 181.327 608.000,180.400 608.200,180.400 609.043 C 180.400 609.457,179.785 609.600,178.000 609.600 C 175.867 609.600,175.600 609.689,175.600 610.400 C 175.600 611.058,175.333 611.200,174.096 611.200 C 173.026 611.200,172.449 611.430,172.093 612.000 C 171.778 612.504,171.160 612.800,170.424 612.800 C 169.605 612.800,169.178 613.040,169.000 613.600 C 168.803 614.221,168.395 614.400,167.173 614.400 C 165.867 614.400,165.600 614.536,165.600 615.200 C 165.600 615.852,165.333 616.000,164.163 616.000 C 163.085 616.000,162.675 616.191,162.526 616.762 C 162.398 617.251,161.829 617.618,160.942 617.784 C 160.181 617.927,159.461 618.297,159.342 618.607 C 159.223 618.916,158.783 619.279,158.363 619.412 C 157.943 619.545,157.600 619.900,157.600 620.200 C 157.600 620.500,157.240 620.860,156.800 621.000 C 156.360 621.140,156.000 621.602,156.000 622.027 C 156.000 622.533,155.724 622.800,155.200 622.800 C 154.667 622.800,154.400 623.067,154.400 623.600 C 154.400 624.133,154.133 624.400,153.600 624.400 C 153.067 624.400,152.800 624.667,152.800 625.200 C 152.800 625.733,152.533 626.000,152.000 626.000 C 151.467 626.000,151.200 626.267,151.200 626.800 C 151.200 627.324,150.933 627.600,150.427 627.600 C 150.002 627.600,149.540 627.960,149.400 628.400 C 149.260 628.840,148.798 629.200,148.373 629.200 C 147.867 629.200,147.600 629.476,147.600 630.000 C 147.600 630.533,147.333 630.800,146.800 630.800 C 146.360 630.800,146.021 630.935,146.047 631.100 C 146.178 631.925,145.927 632.369,145.200 632.600 C 144.760 632.740,144.400 633.068,144.400 633.331 C 144.400 633.593,144.040 634.032,143.600 634.307 C 143.101 634.619,142.800 635.240,142.800 635.957 C 142.800 636.770,142.566 637.168,142.000 637.316 C 141.420 637.468,141.200 637.862,141.200 638.748 C 141.200 639.562,140.932 640.115,140.400 640.400 C 139.960 640.635,139.600 641.187,139.600 641.627 C 139.600 642.066,139.335 642.527,139.011 642.651 C 138.687 642.776,138.302 643.515,138.156 644.293 C 138.010 645.072,137.555 646.045,137.145 646.455 C 136.667 646.933,136.400 647.773,136.400 648.800 C 136.400 650.133,136.267 650.400,135.600 650.400 C 134.891 650.400,134.800 650.667,134.800 652.753 C 134.800 654.770,134.686 655.137,134.000 655.316 C 133.267 655.508,133.200 655.862,133.200 659.563 C 133.200 663.350,133.150 663.600,132.390 663.600 C 131.144 663.600,131.176 687.396,132.422 687.722 C 133.112 687.902,133.200 688.292,133.200 691.163 C 133.200 694.133,133.266 694.400,134.000 694.400 C 134.711 694.400,134.800 694.667,134.800 696.800 C 134.800 698.933,134.889 699.200,135.600 699.200 C 136.305 699.200,136.400 699.467,136.400 701.437 C 136.400 703.338,136.520 703.706,137.200 703.884 C 137.821 704.047,138.000 704.430,138.000 705.600 C 138.000 706.770,138.179 707.153,138.800 707.316 C 139.382 707.468,139.600 707.862,139.600 708.759 C 139.600 709.560,139.881 710.169,140.400 710.493 C 140.840 710.768,141.200 711.309,141.200 711.696 C 141.200 712.126,141.502 712.400,141.976 712.400 C 142.584 712.400,142.779 712.725,142.876 713.900 C 142.960 714.911,143.195 715.400,143.600 715.400 C 143.930 715.400,144.258 715.805,144.328 716.300 C 144.410 716.878,144.732 717.200,145.228 717.200 C 145.733 717.200,146.000 717.476,146.000 718.000 C 146.000 718.518,146.267 718.800,146.755 718.800 C 147.307 718.800,147.584 719.191,147.782 720.244 C 147.960 721.195,148.318 721.758,148.826 721.891 C 149.252 722.002,149.600 722.432,149.600 722.847 C 149.600 723.333,149.883 723.600,150.400 723.600 C 150.933 723.600,151.200 723.867,151.200 724.400 C 151.200 724.917,151.467 725.200,151.953 725.200 C 152.368 725.200,152.798 725.548,152.909 725.974 C 153.042 726.482,153.605 726.840,154.556 727.018 C 155.609 727.216,156.000 727.493,156.000 728.045 C 156.000 728.533,156.282 728.800,156.800 728.800 C 157.333 728.800,157.600 729.067,157.600 729.600 C 157.600 730.117,157.867 730.400,158.353 730.400 C 158.770 730.400,159.200 730.757,159.316 731.200 C 159.457 731.740,159.862 732.000,160.559 732.000 C 161.160 732.000,161.803 732.335,162.093 732.800 C 162.368 733.240,162.888 733.600,163.250 733.600 C 163.611 733.600,163.998 733.948,164.109 734.373 C 164.256 734.937,164.729 735.181,165.856 735.273 C 166.905 735.359,167.400 735.592,167.400 736.000 C 167.400 736.420,167.910 736.637,169.100 736.723 C 170.474 736.822,170.800 736.995,170.800 737.623 C 170.800 738.263,171.082 738.400,172.400 738.400 C 173.733 738.400,174.000 738.533,174.000 739.200 C 174.000 739.909,174.267 740.000,176.353 740.000 C 178.370 740.000,178.737 740.114,178.916 740.800 C 179.102 741.512,179.462 741.600,182.200 741.600 C 184.938 741.600,185.298 741.688,185.484 742.400 C 185.688 743.181,186.030 743.200,200.084 743.200 C 214.138 743.200,214.480 743.181,214.684 742.400 C 214.871 741.685,215.230 741.600,218.047 741.600 C 220.933 741.600,221.200 741.532,221.200 740.800 C 221.200 740.089,221.467 740.000,223.600 740.000 C 225.733 740.000,226.000 739.911,226.000 739.200 C 226.000 738.489,226.267 738.400,228.400 738.400 C 230.533 738.400,230.800 738.311,230.800 737.600 C 230.800 736.937,231.067 736.800,232.353 736.800 C 233.570 736.800,233.952 736.627,234.116 736.000 C 234.241 735.521,234.662 735.200,235.163 735.200 C 235.733 735.200,236.000 734.945,236.000 734.400 C 236.000 733.748,236.267 733.600,237.437 733.600 C 238.538 733.600,238.924 733.413,239.084 732.800 C 239.200 732.357,239.630 732.000,240.047 732.000 C 240.533 732.000,240.800 731.717,240.800 731.200 C 240.800 730.613,241.067 730.400,241.800 730.400 C 242.350 730.400,243.129 730.071,243.531 729.669 C 243.932 729.268,244.562 728.823,244.931 728.682 C 245.299 728.541,245.600 728.149,245.600 727.813 C 245.600 727.476,245.887 727.200,246.237 727.200 C 246.588 727.200,246.965 726.857,247.074 726.437 C 247.184 726.017,247.617 725.584,248.037 725.474 C 248.481 725.358,248.800 724.925,248.800 724.437 C 248.800 723.867,249.055 723.600,249.600 723.600 C 250.050 723.600,250.400 723.333,250.400 722.990 C 250.400 722.655,250.850 722.209,251.400 722.000 C 251.950 721.791,252.400 721.345,252.400 721.010 C 252.400 720.674,252.687 720.400,253.037 720.400 C 253.388 720.400,253.769 720.040,253.884 719.600 C 253.999 719.160,254.323 718.800,254.604 718.800 C 255.206 718.800,255.600 717.917,255.600 716.567 C 255.600 715.867,255.821 715.600,256.400 715.600 C 256.917 715.600,257.200 715.333,257.200 714.847 C 257.200 714.430,257.557 714.000,258.000 713.884 C 258.613 713.724,258.800 713.338,258.800 712.237 C 258.800 711.067,258.948 710.800,259.600 710.800 C 260.267 710.800,260.400 710.533,260.400 709.200 C 260.400 707.867,260.533 707.600,261.200 707.600 C 261.776 707.600,262.000 707.333,262.000 706.647 C 262.000 706.030,262.282 705.619,262.800 705.484 C 263.480 705.306,263.600 704.938,263.600 703.037 C 263.600 701.067,263.695 700.800,264.400 700.800 C 265.081 700.800,265.200 700.533,265.200 699.000 C 265.200 697.728,265.363 697.200,265.757 697.200 C 266.538 697.200,266.800 696.298,266.800 693.614 C 266.800 691.630,266.916 691.263,267.600 691.084 C 268.358 690.886,268.400 690.538,268.400 684.437 C 268.400 678.267,268.433 678.000,269.200 678.000 C 269.930 678.000,270.000 677.733,270.000 674.963 C 270.000 672.262,269.911 671.902,269.200 671.716 C 268.442 671.518,268.400 671.170,268.400 665.153 C 268.400 659.067,268.366 658.800,267.600 658.800 C 266.885 658.800,266.800 658.533,266.800 656.296 C 266.800 654.226,266.662 653.706,266.000 653.293 C 265.374 652.902,265.200 652.360,265.200 650.797 C 265.200 649.067,265.093 648.800,264.400 648.800 C 263.733 648.800,263.600 648.533,263.600 647.200 C 263.600 646.133,263.333 645.333,262.800 644.800 C 262.360 644.360,262.000 643.640,262.000 643.200 C 262.000 642.667,261.733 642.400,261.200 642.400 C 260.530 642.400,260.400 642.133,260.400 640.763 C 260.400 639.462,260.236 639.082,259.600 638.916 C 258.994 638.757,258.800 638.370,258.800 637.316 C 258.800 636.262,258.606 635.875,258.000 635.716 C 257.557 635.600,257.200 635.170,257.200 634.753 C 257.200 634.267,256.917 634.000,256.400 634.000 C 255.867 634.000,255.600 633.733,255.600 633.200 C 255.600 632.667,255.333 632.400,254.800 632.400 C 254.195 632.400,253.999 632.131,253.994 631.300 C 253.987 630.052,253.484 629.066,252.955 629.266 C 252.760 629.340,252.422 628.995,252.205 628.500 C 251.988 628.005,251.493 627.600,251.105 627.600 C 250.667 627.600,250.400 627.297,250.400 626.800 C 250.400 626.267,250.133 626.000,249.600 626.000 C 249.067 626.000,248.800 625.733,248.800 625.200 C 248.800 624.667,248.533 624.400,248.000 624.400 C 247.467 624.400,247.200 624.133,247.200 623.600 C 247.200 623.083,246.933 622.800,246.447 622.800 C 246.032 622.800,245.602 622.452,245.491 622.026 C 245.358 621.518,244.795 621.160,243.844 620.982 C 242.791 620.784,242.400 620.507,242.400 619.955 C 242.400 619.467,242.118 619.200,241.600 619.200 C 241.150 619.200,240.800 618.933,240.800 618.590 C 240.800 618.255,240.350 617.809,239.800 617.600 C 239.250 617.391,238.800 617.044,238.800 616.828 C 238.800 616.613,238.187 616.321,237.437 616.181 C 236.568 616.018,236.001 615.648,235.874 615.162 C 235.726 614.594,235.315 614.400,234.264 614.400 C 233.205 614.400,232.791 614.201,232.600 613.600 C 232.403 612.979,231.995 612.800,230.773 612.800 C 229.467 612.800,229.200 612.664,229.200 612.000 C 229.200 611.337,228.933 611.200,227.647 611.200 C 226.430 611.200,226.048 611.027,225.884 610.400 C 225.698 609.689,225.338 609.600,222.637 609.600 C 219.867 609.600,219.600 609.530,219.600 608.800 C 219.600 608.063,219.333 608.000,216.200 608.000 C 213.067 608.000,212.800 607.937,212.800 607.200 C 212.800 606.418,212.533 606.400,200.800 606.400 C 189.067 606.400,188.800 606.418,188.800 607.200 M204.400 624.161 C 206.490 624.466,209.280 624.836,210.600 624.982 C 211.920 625.128,213.990 625.618,215.200 626.072 C 220.809 628.174,224.102 629.629,225.998 630.841 C 229.838 633.298,233.079 635.490,233.624 636.000 C 233.977 636.330,234.881 637.144,235.633 637.808 C 236.996 639.012,238.032 640.223,241.284 644.410 C 243.037 646.667,243.599 647.539,244.882 650.000 C 245.283 650.770,245.761 651.670,245.943 652.000 C 250.473 660.200,252.972 676.594,250.822 684.000 C 250.534 684.990,250.068 686.790,249.785 688.000 C 249.011 691.315,247.223 696.004,245.974 698.000 C 245.767 698.330,245.408 699.050,245.175 699.600 C 243.520 703.508,236.326 711.996,231.200 716.090 C 229.550 717.408,223.941 720.442,220.153 722.066 C 209.486 726.638,194.728 727.371,185.600 723.781 C 184.830 723.478,183.480 723.048,182.600 722.825 C 174.699 720.827,163.196 711.819,157.794 703.400 C 146.874 686.382,146.371 667.228,156.366 649.000 C 158.266 645.535,164.164 638.103,166.094 636.742 C 167.540 635.723,167.682 635.617,169.400 634.274 C 170.060 633.758,170.870 633.213,171.200 633.062 C 171.530 632.911,172.610 632.265,173.600 631.628 C 176.297 629.891,182.773 626.800,183.717 626.800 C 183.989 626.800,184.841 626.463,185.611 626.050 C 186.380 625.638,188.268 625.173,189.805 625.018 C 191.342 624.862,194.130 624.498,196.000 624.207 C 200.436 623.518,200.024 623.521,204.400 624.161 " stroke="none" fill="#c6d0f5" fill-rule="evenodd"></path><path id="path1" d="M93.075 90.100 C 92.405 90.594,92.892 95.331,93.756 96.730 C 93.905 96.970,94.390 98.749,94.835 100.683 C 95.280 102.617,95.994 105.595,96.422 107.300 C 96.850 109.005,97.560 111.840,98.000 113.600 C 98.440 115.360,99.160 118.240,99.600 120.000 C 101.729 128.518,102.086 129.967,102.599 132.200 C 102.902 133.520,103.416 135.590,103.740 136.800 C 104.064 138.010,104.700 140.486,105.153 142.303 C 107.226 150.610,107.628 152.199,108.396 155.103 C 108.846 156.806,109.385 159.010,109.593 160.000 C 110.211 162.927,111.201 166.871,111.802 168.800 C 112.111 169.790,112.546 171.636,112.768 172.901 C 112.991 174.167,113.338 175.517,113.540 175.901 C 113.742 176.286,114.031 177.410,114.182 178.400 C 114.334 179.390,114.805 181.236,115.229 182.502 C 115.653 183.767,116.000 185.214,116.000 185.715 C 116.000 186.217,116.360 187.652,116.800 188.904 C 117.240 190.156,117.600 191.631,117.600 192.182 C 117.600 192.733,117.865 193.862,118.189 194.692 C 118.513 195.521,119.044 197.370,119.369 198.800 C 120.785 205.045,121.185 206.728,121.740 208.800 C 122.064 210.010,122.686 212.440,123.123 214.200 C 124.499 219.742,125.504 223.713,126.213 226.400 C 126.589 227.830,127.137 230.080,127.430 231.400 C 128.272 235.200,129.193 238.849,129.803 240.800 C 130.113 241.790,130.547 243.500,130.768 244.600 C 131.357 247.526,132.345 251.541,132.984 253.600 C 133.292 254.590,133.662 256.120,133.806 257.000 C 133.951 257.880,134.414 259.636,134.835 260.902 C 135.256 262.167,135.600 263.614,135.600 264.115 C 135.600 264.617,135.960 266.052,136.400 267.304 C 136.840 268.556,137.200 269.996,137.200 270.504 C 137.200 271.012,137.560 272.452,138.000 273.704 C 138.440 274.956,138.800 276.396,138.800 276.904 C 138.800 277.412,139.160 278.852,139.600 280.104 C 140.040 281.356,140.400 282.777,140.400 283.262 C 140.400 283.747,140.747 285.326,141.171 286.772 C 142.278 290.548,143.539 295.542,143.854 297.400 C 144.003 298.280,144.345 299.540,144.614 300.200 C 144.882 300.860,145.226 302.262,145.378 303.315 C 145.529 304.369,145.889 305.809,146.178 306.515 C 146.466 307.222,146.831 308.700,146.990 309.800 C 147.149 310.900,147.444 312.108,147.645 312.485 C 147.847 312.862,148.271 314.392,148.587 315.885 C 149.375 319.605,150.330 323.447,151.002 325.600 C 151.311 326.590,151.746 328.436,151.968 329.701 C 152.191 330.967,152.542 332.317,152.747 332.701 C 152.953 333.086,153.251 334.300,153.410 335.400 C 153.569 336.500,153.934 337.978,154.222 338.685 C 154.511 339.391,154.871 340.831,155.022 341.885 C 155.174 342.938,155.526 344.358,155.804 345.041 C 156.082 345.723,156.433 347.073,156.584 348.041 C 156.734 349.008,157.205 350.836,157.629 352.102 C 158.053 353.367,158.400 354.814,158.400 355.315 C 158.400 355.817,158.760 357.252,159.200 358.504 C 159.640 359.756,160.000 361.177,160.000 361.662 C 160.000 362.147,160.347 363.726,160.771 365.172 C 161.878 368.948,163.139 373.942,163.454 375.800 C 163.603 376.680,163.945 377.940,164.214 378.600 C 164.482 379.260,164.826 380.662,164.978 381.715 C 165.129 382.769,165.489 384.209,165.778 384.915 C 166.066 385.622,166.426 387.062,166.578 388.115 C 166.729 389.169,167.089 390.609,167.378 391.315 C 167.666 392.022,168.031 393.500,168.190 394.600 C 168.349 395.700,168.644 396.908,168.845 397.285 C 169.047 397.662,169.471 399.192,169.787 400.685 C 170.553 404.300,171.501 408.151,172.228 410.600 C 172.554 411.700,172.992 413.550,173.202 414.711 C 173.412 415.872,173.749 417.132,173.952 417.511 C 174.155 417.890,174.451 419.100,174.610 420.200 C 174.769 421.300,175.126 422.758,175.404 423.441 C 175.682 424.123,176.033 425.473,176.184 426.441 C 176.334 427.408,176.805 429.236,177.229 430.502 C 177.653 431.767,178.000 433.224,178.000 433.739 C 178.000 434.254,178.360 435.721,178.800 437.000 C 179.240 438.279,179.600 439.719,179.600 440.200 C 179.600 440.681,179.960 442.121,180.400 443.400 C 180.840 444.679,181.200 446.152,181.200 446.673 C 181.200 447.194,181.560 448.644,182.000 449.896 C 182.440 451.148,182.800 452.583,182.800 453.085 C 182.800 453.586,183.147 455.033,183.571 456.298 C 183.995 457.564,184.466 459.392,184.616 460.359 C 184.767 461.327,185.118 462.677,185.396 463.359 C 185.674 464.042,186.031 465.500,186.190 466.600 C 186.349 467.700,186.645 468.910,186.848 469.289 C 187.051 469.668,187.388 470.928,187.598 472.089 C 187.808 473.250,188.246 475.100,188.572 476.200 C 189.299 478.649,190.247 482.500,191.013 486.115 C 191.329 487.608,191.753 489.138,191.955 489.515 C 192.156 489.892,192.451 491.100,192.610 492.200 C 192.769 493.300,193.134 494.778,193.422 495.485 C 193.711 496.191,194.071 497.631,194.222 498.685 C 194.374 499.738,194.718 501.140,194.986 501.800 C 195.255 502.460,195.597 503.720,195.746 504.600 C 195.998 506.088,196.554 508.340,198.412 515.400 C 198.817 516.940,199.266 518.965,199.410 519.900 C 199.553 520.835,199.819 521.600,200.000 521.600 C 200.680 521.600,203.054 514.005,204.062 508.600 C 204.267 507.500,204.674 505.970,204.965 505.200 C 205.257 504.430,205.621 502.938,205.774 501.885 C 205.928 500.831,206.289 499.391,206.578 498.685 C 206.866 497.978,207.231 496.500,207.390 495.400 C 207.549 494.300,207.847 493.086,208.053 492.701 C 208.258 492.317,208.609 490.967,208.832 489.701 C 209.054 488.436,209.489 486.590,209.798 485.600 C 210.408 483.645,211.331 479.988,212.170 476.200 C 212.463 474.880,213.011 472.630,213.387 471.200 C 213.764 469.770,214.432 467.160,214.872 465.400 C 215.311 463.640,215.936 461.210,216.260 460.000 C 216.584 458.790,217.098 456.720,217.401 455.400 C 217.914 453.167,218.271 451.718,220.400 443.200 C 220.840 441.440,221.535 438.605,221.945 436.900 C 222.962 432.673,223.574 430.267,224.415 427.200 C 224.807 425.770,225.255 423.808,225.409 422.841 C 225.564 421.873,225.918 420.523,226.196 419.841 C 226.474 419.158,226.831 417.700,226.990 416.600 C 227.149 415.500,227.444 414.292,227.645 413.915 C 227.847 413.538,228.271 412.008,228.587 410.515 C 229.353 406.900,230.301 403.049,231.028 400.600 C 231.354 399.500,231.792 397.650,232.002 396.489 C 232.212 395.328,232.546 394.068,232.745 393.689 C 232.944 393.310,233.234 392.190,233.390 391.200 C 233.545 390.210,233.993 388.230,234.385 386.800 C 235.226 383.733,235.838 381.327,236.855 377.100 C 237.265 375.395,237.960 372.560,238.400 370.800 C 238.840 369.040,239.560 366.160,240.000 364.400 C 240.440 362.640,241.160 359.760,241.600 358.000 C 242.040 356.240,242.735 353.405,243.145 351.700 C 244.162 347.473,244.774 345.067,245.615 342.000 C 246.007 340.570,246.455 338.590,246.610 337.600 C 246.766 336.610,247.055 335.492,247.252 335.115 C 247.450 334.738,247.871 333.208,248.187 331.715 C 248.975 327.995,249.930 324.153,250.602 322.000 C 250.911 321.010,251.346 319.164,251.568 317.899 C 251.791 316.633,252.142 315.283,252.347 314.899 C 252.553 314.514,252.851 313.300,253.010 312.200 C 253.169 311.100,253.534 309.622,253.822 308.915 C 254.111 308.209,254.471 306.769,254.622 305.715 C 254.774 304.662,255.118 303.260,255.386 302.600 C 255.655 301.940,255.997 300.680,256.146 299.800 C 256.461 297.942,257.722 292.948,258.829 289.172 C 259.253 287.726,259.600 286.147,259.600 285.662 C 259.600 285.177,259.960 283.756,260.400 282.504 C 260.840 281.252,261.200 279.817,261.200 279.315 C 261.200 278.814,261.536 277.367,261.947 276.102 C 262.358 274.836,262.883 272.900,263.116 271.800 C 263.348 270.700,263.746 268.990,264.001 268.000 C 264.256 267.010,264.817 264.760,265.249 263.000 C 265.680 261.240,266.379 258.450,266.803 256.800 C 268.625 249.695,268.928 248.475,269.438 246.200 C 270.363 242.073,271.219 238.669,271.802 236.800 C 272.111 235.810,272.546 233.964,272.768 232.699 C 272.991 231.433,273.338 230.083,273.540 229.699 C 273.742 229.314,274.031 228.190,274.182 227.200 C 274.334 226.210,274.805 224.364,275.229 223.098 C 275.653 221.833,276.000 220.386,276.000 219.885 C 276.000 219.383,276.360 217.948,276.800 216.696 C 277.240 215.444,277.600 213.994,277.600 213.473 C 277.600 212.952,277.960 211.479,278.400 210.200 C 278.840 208.921,279.200 207.481,279.200 207.000 C 279.200 206.519,279.560 205.079,280.000 203.800 C 280.440 202.521,280.800 201.048,280.800 200.527 C 280.800 200.006,281.160 198.556,281.600 197.304 C 282.040 196.052,282.400 194.612,282.400 194.104 C 282.400 193.596,282.760 192.156,283.200 190.904 C 283.640 189.652,283.997 188.261,283.994 187.814 C 283.991 187.366,284.341 185.830,284.772 184.400 C 285.488 182.024,285.858 180.558,287.396 174.000 C 288.029 171.298,289.024 167.328,289.800 164.400 C 291.012 159.830,291.716 156.914,292.243 154.285 C 292.543 152.792,292.953 151.262,293.155 150.885 C 293.356 150.508,293.651 149.300,293.810 148.200 C 293.969 147.100,294.326 145.642,294.604 144.959 C 294.882 144.277,295.233 142.927,295.384 141.959 C 295.534 140.992,296.005 139.164,296.429 137.898 C 296.853 136.633,297.200 135.186,297.200 134.685 C 297.200 134.183,297.560 132.748,298.000 131.496 C 298.440 130.244,298.800 128.794,298.800 128.273 C 298.800 127.752,299.160 126.279,299.600 125.000 C 300.040 123.721,300.400 122.281,300.400 121.800 C 300.400 121.319,300.760 119.879,301.200 118.600 C 301.640 117.321,302.000 115.848,302.000 115.327 C 302.000 114.806,302.360 113.356,302.800 112.104 C 303.240 110.852,303.600 109.417,303.600 108.915 C 303.600 108.414,303.944 106.967,304.365 105.702 C 304.786 104.436,305.249 102.680,305.394 101.800 C 305.538 100.920,305.908 99.390,306.216 98.400 C 306.758 96.653,307.925 91.986,308.109 90.828 C 308.159 90.513,307.750 90.126,307.200 89.968 C 305.273 89.413,93.829 89.544,93.075 90.100 M196.000 624.207 C 194.130 624.498,191.342 624.862,189.805 625.018 C 188.268 625.173,186.380 625.638,185.611 626.050 C 184.841 626.463,183.989 626.800,183.717 626.800 C 182.773 626.800,176.297 629.891,173.600 631.628 C 172.610 632.265,171.530 632.911,171.200 633.062 C 170.870 633.213,170.060 633.758,169.400 634.274 C 167.682 635.617,167.540 635.723,166.094 636.742 C 164.858 637.614,159.474 644.012,157.800 646.600 C 146.431 664.172,146.428 685.687,157.794 703.400 C 163.196 711.819,174.699 720.827,182.600 722.825 C 183.480 723.048,184.830 723.478,185.600 723.781 C 194.728 727.371,209.486 726.638,220.153 722.066 C 223.941 720.442,229.550 717.408,231.200 716.090 C 236.326 711.996,243.520 703.508,245.175 699.600 C 245.408 699.050,245.767 698.330,245.974 698.000 C 247.223 696.004,249.011 691.315,249.785 688.000 C 250.068 686.790,250.534 684.990,250.822 684.000 C 252.972 676.594,250.473 660.200,245.943 652.000 C 245.761 651.670,245.283 650.770,244.882 650.000 C 243.599 647.539,243.037 646.667,241.284 644.410 C 238.032 640.223,236.996 639.012,235.633 637.808 C 234.881 637.144,233.977 636.330,233.624 636.000 C 233.079 635.490,229.838 633.298,225.998 630.841 C 224.102 629.629,220.809 628.174,215.200 626.072 C 213.990 625.618,211.920 625.128,210.600 624.982 C 209.280 624.836,206.490 624.466,204.400 624.161 C 200.024 623.521,200.436 623.518,196.000 624.207 " stroke="none" fill="#fa5252" fill-rule="evenodd"></path></g></svg>