<svg id="svg" version="1.1" xmlns="http://www.w3.org/2000/svg" xmlns:xlink="http://www.w3.org/1999/xlink" width="400" height="400" viewBox="0, 0, 400,400"><g id="svgg"><path id="path0" d="M152.000 104.504 C 151.230 105.218,148.980 107.240,147.000 108.998 C 129.660 124.393,105.200 150.077,105.200 152.890 C 105.200 153.665,108.506 157.207,120.400 169.176 C 123.810 172.607,127.858 176.851,129.395 178.607 C 133.605 183.417,146.421 196.138,148.326 197.398 C 150.708 198.975,150.977 198.595,139.900 209.267 C 121.213 227.272,107.234 241.481,105.872 243.858 C 105.389 244.700,105.923 246.608,106.879 247.459 C 107.337 247.866,108.793 249.460,110.113 251.000 C 119.474 261.920,138.492 280.916,148.200 289.043 C 149.740 290.333,151.448 291.795,151.996 292.294 C 153.656 293.804,154.599 293.669,157.535 291.500 C 164.288 286.512,175.227 275.824,187.933 261.800 C 192.916 256.300,197.731 251.040,198.632 250.112 L 200.271 248.424 210.277 258.312 C 215.781 263.750,225.665 273.523,232.242 280.029 C 244.900 292.550,245.751 293.295,247.026 292.962 C 247.939 292.723,271.307 269.335,277.362 262.600 C 279.537 260.180,284.351 255.204,288.059 251.541 C 295.399 244.290,295.471 244.163,293.576 241.755 C 291.342 238.918,268.674 216.273,255.291 203.509 L 249.983 198.446 262.505 185.923 C 269.392 179.035,276.720 171.600,278.789 169.400 C 280.858 167.200,285.217 162.661,288.475 159.314 C 293.498 154.155,294.400 153.042,294.400 152.002 C 294.400 150.920,292.539 148.912,278.700 135.060 C 270.065 126.417,260.030 116.277,256.400 112.527 C 250.525 106.458,246.784 103.200,245.690 103.200 C 245.488 103.200,235.171 113.278,222.762 125.596 C 210.353 137.914,200.014 147.994,199.788 147.996 C 199.411 148.000,197.170 145.621,192.400 140.155 C 190.356 137.814,171.954 119.447,167.996 115.800 C 161.284 109.613,153.972 103.199,153.638 103.203 C 153.507 103.205,152.770 103.791,152.000 104.504 M253.535 117.139 C 257.421 121.065,261.860 125.698,263.400 127.435 C 267.025 131.523,280.884 145.405,284.969 149.040 L 288.138 151.860 280.934 159.030 C 276.972 162.974,271.437 168.630,268.633 171.600 C 265.829 174.570,259.161 181.410,253.815 186.800 C 243.396 197.304,243.104 197.702,244.342 199.707 C 245.269 201.206,262.180 217.971,269.808 224.952 C 276.221 230.821,288.400 243.170,288.400 243.803 C 288.400 244.060,286.645 245.814,284.500 247.700 C 280.708 251.035,270.612 261.147,265.829 266.400 C 254.700 278.623,247.210 286.400,246.569 286.400 C 245.984 286.400,239.852 280.319,234.420 274.352 C 224.359 263.301,201.399 241.402,200.166 241.681 C 199.878 241.747,196.978 244.401,193.721 247.580 C 182.607 258.429,167.009 273.895,160.691 280.332 L 154.381 286.759 139.891 272.255 C 127.004 259.357,121.055 253.553,114.076 247.073 C 111.408 244.596,111.174 245.162,117.290 239.284 C 128.776 228.244,132.366 224.719,139.370 217.600 C 143.374 213.530,147.819 208.940,149.248 207.400 C 150.677 205.860,152.736 203.641,153.823 202.468 C 155.859 200.273,156.323 199.512,156.372 198.294 C 156.388 197.882,153.116 194.387,148.506 189.894 C 133.566 175.334,111.717 153.065,111.861 152.546 C 112.226 151.231,152.936 110.288,153.712 110.456 C 154.081 110.535,164.344 120.545,176.520 132.700 C 193.126 149.278,198.892 154.800,199.593 154.800 C 202.201 154.800,216.664 141.300,230.200 126.231 C 238.749 116.714,245.247 110.000,245.909 110.000 C 246.218 110.000,249.650 113.212,253.535 117.139 " stroke="none" fill="#1e1e1e" fill-rule="evenodd"></path><path id="path1" d="M181.864 42.993 C 181.530 43.327,181.141 43.600,181.000 43.600 C 180.585 43.600,179.600 44.705,179.600 45.171 C 179.600 45.407,179.330 45.600,179.000 45.600 C 178.287 45.600,178.145 48.385,178.823 49.063 C 180.331 50.571,177.822 52.557,172.105 54.380 C 162.341 57.494,161.104 57.886,154.400 59.990 C 150.770 61.129,147.479 62.233,147.086 62.443 C 146.694 62.652,145.479 62.705,144.386 62.560 C 142.710 62.338,142.400 62.399,142.400 62.948 C 142.400 63.426,142.027 63.600,141.000 63.600 C 140.230 63.600,139.600 63.780,139.600 64.000 C 139.600 64.220,138.964 64.400,138.187 64.400 C 137.301 64.400,136.689 64.623,136.545 65.000 C 136.418 65.330,135.884 65.600,135.357 65.600 C 134.831 65.600,134.400 65.780,134.400 66.000 C 134.400 66.220,133.770 66.400,133.000 66.400 C 132.022 66.400,131.600 66.581,131.600 67.000 C 131.600 67.373,131.222 67.600,130.600 67.600 C 130.050 67.600,129.600 67.780,129.600 68.000 C 129.600 68.220,128.964 68.400,128.187 68.400 C 127.301 68.400,126.689 68.623,126.545 69.000 C 126.418 69.330,125.884 69.600,125.357 69.600 C 124.831 69.600,124.400 69.780,124.400 70.000 C 124.400 70.220,123.770 70.400,123.000 70.400 C 122.022 70.400,121.600 70.581,121.600 71.000 C 121.600 71.373,121.222 71.600,120.600 71.600 C 120.050 71.600,119.600 71.780,119.600 72.000 C 119.600 72.220,119.150 72.400,118.600 72.400 C 117.978 72.400,117.600 72.627,117.600 73.000 C 117.600 73.419,117.178 73.600,116.200 73.600 C 115.430 73.600,114.800 73.780,114.800 74.000 C 114.800 74.220,114.344 74.400,113.787 74.400 C 113.231 74.400,112.671 74.670,112.545 75.000 C 112.418 75.330,111.884 75.600,111.357 75.600 C 110.831 75.600,110.400 75.780,110.400 76.000 C 110.400 76.220,109.950 76.400,109.400 76.400 C 108.778 76.400,108.400 76.627,108.400 77.000 C 108.400 77.373,108.022 77.600,107.400 77.600 C 106.850 77.600,106.400 77.780,106.400 78.000 C 106.400 78.220,106.034 78.400,105.587 78.400 C 105.141 78.400,104.671 78.670,104.545 79.000 C 104.418 79.330,103.884 79.600,103.357 79.600 C 102.831 79.600,102.400 79.780,102.400 80.000 C 102.400 80.220,102.034 80.400,101.587 80.400 C 101.141 80.400,100.683 80.639,100.571 80.932 C 100.459 81.224,99.744 81.708,98.983 82.007 C 98.223 82.305,97.600 82.786,97.600 83.075 C 97.600 83.368,97.159 83.600,96.600 83.600 C 96.050 83.600,95.600 83.780,95.600 84.000 C 95.600 84.220,95.330 84.400,95.000 84.400 C 94.670 84.400,94.400 84.670,94.400 85.000 C 94.400 85.340,94.041 85.600,93.571 85.600 C 92.686 85.600,91.600 86.466,91.600 87.171 C 91.600 87.407,91.150 87.600,90.600 87.600 C 90.050 87.600,89.600 87.780,89.600 88.000 C 89.600 88.220,89.330 88.400,89.000 88.400 C 88.670 88.400,88.400 88.593,88.400 88.829 C 88.400 89.423,87.367 90.399,86.729 90.407 C 86.438 90.411,85.776 90.861,85.258 91.407 C 84.740 91.953,84.155 92.400,83.958 92.400 C 83.761 92.400,83.600 92.670,83.600 93.000 C 83.600 93.330,83.407 93.600,83.171 93.600 C 82.618 93.600,81.600 94.618,81.600 95.171 C 81.600 95.407,81.407 95.600,81.171 95.600 C 80.618 95.600,79.600 96.618,79.600 97.171 C 79.600 97.407,79.407 97.600,79.171 97.600 C 78.618 97.600,77.600 98.618,77.600 99.171 C 77.600 99.407,77.407 99.600,77.171 99.600 C 76.618 99.600,75.600 100.618,75.600 101.171 C 75.600 101.407,75.407 101.600,75.171 101.600 C 74.618 101.600,73.600 102.618,73.600 103.171 C 73.600 103.407,73.330 103.600,73.000 103.600 C 72.670 103.600,72.400 103.870,72.400 104.200 C 72.400 104.530,72.220 104.800,72.000 104.800 C 71.780 104.800,71.600 105.160,71.600 105.600 C 71.600 106.044,71.333 106.400,71.000 106.400 C 70.670 106.400,70.400 106.670,70.400 107.000 C 70.400 107.330,70.220 107.600,70.000 107.600 C 69.780 107.600,69.600 108.050,69.600 108.600 C 69.600 109.150,69.407 109.600,69.171 109.600 C 68.618 109.600,67.600 110.618,67.600 111.171 C 67.600 111.407,67.330 111.600,67.000 111.600 C 66.662 111.600,66.400 111.957,66.400 112.417 C 66.400 112.867,65.950 113.720,65.400 114.313 C 64.850 114.907,64.400 115.619,64.400 115.896 C 64.400 116.173,64.220 116.400,64.000 116.400 C 63.780 116.400,63.600 116.831,63.600 117.357 C 63.600 117.884,63.330 118.418,63.000 118.545 C 62.670 118.671,62.400 119.141,62.400 119.587 C 62.400 120.034,62.220 120.400,62.000 120.400 C 61.780 120.400,61.600 120.850,61.600 121.400 C 61.600 122.022,61.373 122.400,61.000 122.400 C 60.627 122.400,60.400 122.778,60.400 123.400 C 60.400 123.950,60.220 124.400,60.000 124.400 C 59.780 124.400,59.600 124.831,59.600 125.357 C 59.600 125.884,59.330 126.418,59.000 126.545 C 58.623 126.689,58.400 127.301,58.400 128.187 C 58.400 128.964,58.220 129.600,58.000 129.600 C 57.780 129.600,57.600 130.050,57.600 130.600 C 57.600 131.222,57.373 131.600,57.000 131.600 C 56.581 131.600,56.400 132.022,56.400 133.000 C 56.400 133.770,56.220 134.400,56.000 134.400 C 55.780 134.400,55.600 135.120,55.600 136.000 C 55.600 137.156,55.433 137.600,55.000 137.600 C 54.631 137.600,54.400 137.975,54.400 138.576 C 54.400 139.113,54.220 139.664,54.000 139.800 C 53.780 139.936,53.600 140.847,53.600 141.824 C 53.600 143.170,53.448 143.600,52.973 143.600 C 52.462 143.600,52.355 144.096,52.392 146.300 C 52.416 147.785,52.263 149.810,52.050 150.800 C 51.440 153.645,50.380 159.196,49.989 161.600 C 49.792 162.810,49.350 165.420,49.006 167.400 C 47.971 173.372,47.396 183.965,47.466 195.800 C 47.503 201.960,47.544 210.465,47.557 214.700 C 47.573 219.662,47.728 222.400,47.991 222.400 C 48.227 222.400,48.400 223.487,48.400 224.971 C 48.400 226.724,48.591 227.734,49.000 228.143 C 49.388 228.531,49.600 229.521,49.600 230.948 C 49.600 232.161,49.780 233.264,50.000 233.400 C 50.220 233.536,50.400 234.717,50.400 236.024 C 50.400 237.869,50.534 238.400,51.000 238.400 C 51.453 238.400,51.600 238.889,51.600 240.400 C 51.600 241.500,51.780 242.400,52.000 242.400 C 52.220 242.400,52.400 243.300,52.400 244.400 C 52.400 245.911,52.547 246.400,53.000 246.400 C 53.453 246.400,53.600 246.889,53.600 248.400 C 53.600 249.500,53.780 250.400,54.000 250.400 C 54.220 250.400,54.400 251.300,54.400 252.400 C 54.400 253.911,54.547 254.400,55.000 254.400 C 55.433 254.400,55.600 254.844,55.600 256.000 C 55.600 256.880,55.780 257.600,56.000 257.600 C 56.220 257.600,56.400 258.230,56.400 259.000 C 56.400 259.978,56.581 260.400,57.000 260.400 C 57.397 260.400,57.600 260.797,57.600 261.576 C 57.600 262.223,57.780 262.864,58.000 263.000 C 58.220 263.136,58.400 263.692,58.400 264.236 C 58.400 264.780,58.670 265.329,59.000 265.455 C 59.370 265.597,59.600 266.205,59.600 267.043 C 59.600 267.789,59.780 268.400,60.000 268.400 C 60.220 268.400,60.400 268.850,60.400 269.400 C 60.400 270.022,60.627 270.400,61.000 270.400 C 61.373 270.400,61.600 270.778,61.600 271.400 C 61.600 271.950,61.780 272.400,62.000 272.400 C 62.220 272.400,62.400 272.850,62.400 273.400 C 62.400 274.022,62.627 274.400,63.000 274.400 C 63.373 274.400,63.600 274.778,63.600 275.400 C 63.600 275.950,63.780 276.400,64.000 276.400 C 64.220 276.400,64.400 276.850,64.400 277.400 C 64.400 278.022,64.627 278.400,65.000 278.400 C 65.373 278.400,65.600 278.778,65.600 279.400 C 65.600 279.950,65.780 280.400,66.000 280.400 C 66.220 280.400,66.400 280.850,66.400 281.400 C 66.400 282.022,66.627 282.400,67.000 282.400 C 67.373 282.400,67.600 282.778,67.600 283.400 C 67.600 283.950,67.780 284.400,68.000 284.400 C 68.220 284.400,68.400 284.670,68.400 285.000 C 68.400 285.330,68.670 285.600,69.000 285.600 C 69.373 285.600,69.600 285.978,69.600 286.600 C 69.600 287.150,69.780 287.600,70.000 287.600 C 70.220 287.600,70.400 287.827,70.400 288.104 C 70.400 288.381,70.850 289.093,71.400 289.687 C 71.950 290.280,72.400 291.133,72.400 291.583 C 72.400 292.043,72.662 292.400,73.000 292.400 C 73.330 292.400,73.600 292.593,73.600 292.829 C 73.600 293.382,74.618 294.400,75.171 294.400 C 75.407 294.400,75.600 294.784,75.600 295.253 C 75.600 295.722,76.230 296.700,77.000 297.426 C 77.770 298.152,78.400 298.938,78.400 299.173 C 78.400 299.408,78.670 299.600,79.000 299.600 C 79.340 299.600,79.600 299.959,79.600 300.429 C 79.600 301.314,80.466 302.400,81.171 302.400 C 81.407 302.400,81.600 302.593,81.600 302.829 C 81.600 303.382,82.618 304.400,83.171 304.400 C 83.407 304.400,83.600 304.593,83.600 304.829 C 83.600 305.382,84.618 306.400,85.171 306.400 C 85.407 306.400,85.600 306.593,85.600 306.829 C 85.600 307.382,86.618 308.400,87.171 308.400 C 87.407 308.400,87.600 308.786,87.600 309.257 C 87.600 310.198,92.931 315.600,93.860 315.600 C 94.157 315.600,94.400 315.780,94.400 316.000 C 94.400 316.220,94.670 316.400,95.000 316.400 C 95.330 316.400,95.600 316.593,95.600 316.829 C 95.600 317.382,96.618 318.400,97.171 318.400 C 97.407 318.400,97.600 318.593,97.600 318.829 C 97.600 319.382,98.618 320.400,99.171 320.400 C 99.407 320.400,99.600 320.593,99.600 320.829 C 99.600 321.382,100.618 322.400,101.171 322.400 C 101.407 322.400,101.600 322.605,101.600 322.856 C 101.600 323.471,102.835 324.372,103.700 324.387 C 104.085 324.394,104.400 324.670,104.400 325.000 C 104.400 325.330,104.627 325.600,104.905 325.600 C 105.183 325.600,105.723 326.016,106.105 326.525 C 106.487 327.034,107.430 327.698,108.200 328.000 C 108.970 328.302,109.600 328.709,109.600 328.903 C 109.600 329.396,110.654 330.400,111.171 330.400 C 111.407 330.400,111.600 330.670,111.600 331.000 C 111.600 331.357,111.967 331.600,112.505 331.600 C 113.004 331.600,113.747 332.049,114.161 332.600 C 114.574 333.150,115.247 333.600,115.656 333.600 C 116.065 333.600,116.400 333.780,116.400 334.000 C 116.400 334.220,116.670 334.400,117.000 334.400 C 117.330 334.400,117.600 334.670,117.600 335.000 C 117.600 335.357,117.967 335.600,118.505 335.600 C 119.004 335.600,119.747 336.049,120.161 336.600 C 120.574 337.150,121.247 337.600,121.656 337.600 C 122.065 337.600,122.400 337.780,122.400 338.000 C 122.400 338.220,122.670 338.400,123.000 338.400 C 123.330 338.400,123.600 338.670,123.600 339.000 C 123.600 339.338,123.957 339.600,124.417 339.600 C 124.867 339.600,125.720 340.050,126.313 340.600 C 126.907 341.150,127.619 341.600,127.896 341.600 C 128.173 341.600,128.400 341.780,128.400 342.000 C 128.400 342.220,128.831 342.400,129.357 342.400 C 129.884 342.400,130.418 342.670,130.545 343.000 C 130.671 343.330,131.141 343.600,131.587 343.600 C 132.034 343.600,132.400 343.780,132.400 344.000 C 132.400 344.220,132.850 344.400,133.400 344.400 C 134.022 344.400,134.400 344.627,134.400 345.000 C 134.400 345.373,134.778 345.600,135.400 345.600 C 135.950 345.600,136.400 345.780,136.400 346.000 C 136.400 346.220,136.651 346.400,136.957 346.400 C 137.264 346.400,137.618 346.670,137.745 347.000 C 137.871 347.330,138.330 347.600,138.764 347.600 C 139.198 347.600,139.664 347.780,139.800 348.000 C 139.936 348.220,140.577 348.400,141.224 348.400 C 142.003 348.400,142.400 348.603,142.400 349.000 C 142.400 349.373,142.778 349.600,143.400 349.600 C 143.950 349.600,144.400 349.780,144.400 350.000 C 144.400 350.220,145.120 350.400,146.000 350.400 C 147.156 350.400,147.600 350.567,147.600 351.000 C 147.600 351.373,147.978 351.600,148.600 351.600 C 149.150 351.600,149.600 351.780,149.600 352.000 C 149.600 352.220,150.230 352.400,151.000 352.400 C 151.978 352.400,152.400 352.581,152.400 353.000 C 152.400 353.433,152.844 353.600,154.000 353.600 C 154.880 353.600,155.600 353.780,155.600 354.000 C 155.600 354.220,156.211 354.400,156.957 354.400 C 157.795 354.400,158.403 354.630,158.545 355.000 C 158.702 355.411,159.345 355.600,160.587 355.600 C 161.584 355.600,162.400 355.780,162.400 356.000 C 162.400 356.226,163.533 356.400,165.000 356.400 C 167.044 356.400,167.600 356.528,167.600 357.000 C 167.600 357.486,168.244 357.600,171.000 357.600 C 173.000 357.600,174.400 357.765,174.400 358.000 C 174.400 358.257,178.200 358.400,185.000 358.400 C 191.800 358.400,195.600 358.257,195.600 358.000 C 195.600 357.755,197.524 357.600,200.571 357.600 C 204.457 357.600,205.674 357.469,206.143 357.000 C 206.544 356.598,207.546 356.400,209.171 356.400 C 210.524 356.400,211.600 356.223,211.600 356.000 C 211.600 355.775,212.717 355.600,214.151 355.600 C 215.931 355.600,216.853 355.419,217.200 355.000 C 217.600 354.518,218.825 354.400,223.449 354.400 C 227.016 354.400,229.200 354.248,229.200 354.000 C 229.200 353.752,231.333 353.600,234.800 353.600 C 239.511 353.600,240.400 353.505,240.400 353.000 C 240.400 352.528,240.956 352.400,243.000 352.400 C 244.467 352.400,245.600 352.226,245.600 352.000 C 245.600 351.778,246.667 351.600,248.000 351.600 C 249.867 351.600,250.400 351.467,250.400 351.000 C 250.400 350.547,250.889 350.400,252.400 350.400 C 253.500 350.400,254.400 350.220,254.400 350.000 C 254.400 349.780,254.837 349.600,255.371 349.600 C 255.906 349.600,256.613 349.330,256.943 349.000 C 257.273 348.670,258.006 348.400,258.571 348.400 C 259.137 348.400,259.600 348.220,259.600 348.000 C 259.600 347.780,260.230 347.600,261.000 347.600 C 261.978 347.600,262.400 347.419,262.400 347.000 C 262.400 346.627,262.778 346.400,263.400 346.400 C 263.950 346.400,264.400 346.220,264.400 346.000 C 264.400 345.780,264.850 345.600,265.400 345.600 C 266.022 345.600,266.400 345.373,266.400 345.000 C 266.400 344.627,266.778 344.400,267.400 344.400 C 267.950 344.400,268.400 344.220,268.400 344.000 C 268.400 343.780,268.850 343.600,269.400 343.600 C 270.022 343.600,270.400 343.373,270.400 343.000 C 270.400 342.632,270.774 342.400,271.367 342.400 C 271.898 342.400,272.396 342.212,272.473 341.982 C 272.549 341.752,273.014 341.534,273.506 341.497 C 273.998 341.460,274.400 341.198,274.400 340.915 C 274.400 340.632,274.670 340.400,275.000 340.400 C 275.330 340.400,275.600 340.220,275.600 340.000 C 275.600 339.780,275.935 339.600,276.344 339.600 C 276.753 339.600,277.426 339.150,277.839 338.600 C 278.253 338.049,278.996 337.600,279.495 337.600 C 280.033 337.600,280.400 337.357,280.400 337.000 C 280.400 336.670,280.670 336.400,281.000 336.400 C 281.330 336.400,281.600 336.220,281.600 336.000 C 281.600 335.780,281.935 335.600,282.344 335.600 C 282.753 335.600,283.426 335.150,283.839 334.600 C 284.252 334.050,284.817 333.600,285.095 333.600 C 285.373 333.600,285.600 333.407,285.600 333.171 C 285.600 332.466,286.686 331.600,287.571 331.600 C 288.041 331.600,288.400 331.340,288.400 331.000 C 288.400 330.670,288.593 330.400,288.829 330.400 C 289.382 330.400,290.400 329.382,290.400 328.829 C 290.400 328.593,290.593 328.400,290.829 328.400 C 291.382 328.400,292.400 327.382,292.400 326.829 C 292.400 326.593,292.670 326.400,293.000 326.400 C 293.330 326.400,293.600 326.220,293.600 326.000 C 293.600 325.780,293.897 325.600,294.260 325.600 C 294.623 325.600,295.783 324.700,296.837 323.600 C 297.892 322.500,298.945 321.600,299.177 321.600 C 299.410 321.600,299.600 321.407,299.600 321.171 C 299.600 320.618,300.618 319.600,301.171 319.600 C 301.407 319.600,301.600 319.407,301.600 319.171 C 301.600 318.618,302.618 317.600,303.171 317.600 C 303.407 317.600,303.600 317.407,303.600 317.171 C 303.600 316.618,304.618 315.600,305.171 315.600 C 305.407 315.600,305.600 315.407,305.600 315.171 C 305.600 314.618,306.618 313.600,307.171 313.600 C 307.407 313.600,307.600 313.407,307.600 313.171 C 307.600 312.618,308.618 311.600,309.171 311.600 C 309.407 311.600,309.600 311.373,309.600 311.095 C 309.600 310.817,310.050 310.252,310.600 309.839 C 311.150 309.426,311.600 308.753,311.600 308.344 C 311.600 307.935,311.780 307.600,312.000 307.600 C 312.220 307.600,312.400 307.330,312.400 307.000 C 312.400 306.670,312.593 306.400,312.829 306.400 C 313.382 306.400,314.400 305.382,314.400 304.829 C 314.400 304.593,314.593 304.400,314.829 304.400 C 315.382 304.400,316.400 303.382,316.400 302.829 C 316.400 302.593,316.593 302.400,316.829 302.400 C 317.534 302.400,318.400 301.314,318.400 300.429 C 318.400 299.959,318.660 299.600,319.000 299.600 C 319.330 299.600,319.600 299.407,319.600 299.171 C 319.600 298.618,320.618 297.600,321.171 297.600 C 321.407 297.600,321.600 297.330,321.600 297.000 C 321.600 296.670,321.780 296.400,322.000 296.400 C 322.220 296.400,322.400 295.950,322.400 295.400 C 322.400 294.850,322.593 294.400,322.829 294.400 C 323.382 294.400,324.400 293.382,324.400 292.829 C 324.400 292.593,324.670 292.400,325.000 292.400 C 325.340 292.400,325.600 292.041,325.600 291.571 C 325.600 290.686,326.466 289.600,327.171 289.600 C 327.407 289.600,327.600 289.330,327.600 289.000 C 327.600 288.670,327.780 288.400,328.000 288.400 C 328.220 288.400,328.400 287.950,328.400 287.400 C 328.400 286.850,328.593 286.400,328.829 286.400 C 329.506 286.400,330.965 284.568,331.458 283.100 C 331.588 282.715,331.852 282.400,332.047 282.400 C 332.241 282.400,332.400 281.950,332.400 281.400 C 332.400 280.850,332.593 280.400,332.829 280.400 C 333.534 280.400,334.400 279.314,334.400 278.429 C 334.400 277.959,334.660 277.600,335.000 277.600 C 335.330 277.600,335.600 277.330,335.600 277.000 C 335.600 276.670,335.780 276.400,336.000 276.400 C 336.220 276.400,336.400 275.950,336.400 275.400 C 336.400 274.778,336.627 274.400,337.000 274.400 C 337.373 274.400,337.600 274.022,337.600 273.400 C 337.600 272.850,337.780 272.400,338.000 272.400 C 338.220 272.400,338.400 271.950,338.400 271.400 C 338.400 270.841,338.632 270.400,338.925 270.400 C 339.214 270.400,339.695 269.777,339.993 269.017 C 340.292 268.256,340.776 267.541,341.068 267.429 C 341.361 267.317,341.600 266.859,341.600 266.413 C 341.600 265.966,341.780 265.600,342.000 265.600 C 342.220 265.600,342.400 265.169,342.400 264.643 C 342.400 264.116,342.670 263.582,343.000 263.455 C 343.330 263.329,343.600 262.859,343.600 262.413 C 343.600 261.966,343.780 261.600,344.000 261.600 C 344.220 261.600,344.400 261.137,344.400 260.571 C 344.400 260.006,344.670 259.273,345.000 258.943 C 345.330 258.613,345.600 257.906,345.600 257.371 C 345.600 256.837,345.780 256.400,346.000 256.400 C 346.220 256.400,346.400 255.969,346.400 255.443 C 346.400 254.916,346.670 254.382,347.000 254.255 C 347.351 254.121,347.600 253.521,347.600 252.813 C 347.600 252.146,347.780 251.600,348.000 251.600 C 348.220 251.600,348.400 251.169,348.400 250.643 C 348.400 250.116,348.670 249.582,349.000 249.455 C 349.410 249.298,349.600 248.657,349.600 247.436 C 349.600 246.452,349.780 245.536,350.000 245.400 C 350.220 245.264,350.400 244.533,350.400 243.776 C 350.400 242.820,350.583 242.400,351.000 242.400 C 351.453 242.400,351.600 241.911,351.600 240.400 C 351.600 239.300,351.780 238.400,352.000 238.400 C 352.220 238.400,352.400 237.702,352.400 236.849 C 352.400 235.958,352.655 235.086,353.000 234.800 C 353.383 234.482,353.600 233.597,353.600 232.351 C 353.600 231.278,353.780 230.400,354.000 230.400 C 354.221 230.400,354.400 229.348,354.400 228.043 C 354.400 226.316,354.561 225.624,355.000 225.455 C 355.468 225.276,355.600 224.477,355.600 221.813 C 355.600 219.804,355.765 218.400,356.000 218.400 C 356.242 218.400,356.405 216.625,356.413 213.900 C 356.422 210.578,356.579 209.197,357.013 208.624 C 357.894 207.459,357.882 186.739,357.000 185.857 C 356.543 185.400,356.400 184.257,356.400 181.052 C 356.400 178.680,356.226 176.739,356.000 176.600 C 355.780 176.464,355.600 175.296,355.600 174.005 C 355.600 172.451,355.397 171.454,355.000 171.057 C 354.612 170.669,354.400 169.679,354.400 168.252 C 354.400 167.039,354.220 165.936,354.000 165.800 C 353.780 165.664,353.600 164.748,353.600 163.764 C 353.600 162.543,353.410 161.902,353.000 161.745 C 352.580 161.583,352.400 160.928,352.400 159.557 C 352.400 158.481,352.220 157.600,352.000 157.600 C 351.780 157.600,351.600 156.880,351.600 156.000 C 351.600 154.844,351.433 154.400,351.000 154.400 C 350.581 154.400,350.400 153.978,350.400 153.000 C 350.400 152.230,350.220 151.600,350.000 151.600 C 349.780 151.600,349.600 151.150,349.600 150.600 C 349.600 149.978,349.373 149.600,349.000 149.600 C 348.567 149.600,348.400 149.156,348.400 148.000 C 348.400 147.120,348.220 146.400,348.000 146.400 C 347.780 146.400,347.600 145.950,347.600 145.400 C 347.600 144.778,347.373 144.400,347.000 144.400 C 346.652 144.400,346.400 144.037,346.400 143.534 C 346.400 142.482,345.172 139.600,344.723 139.600 C 344.545 139.600,344.400 139.150,344.400 138.600 C 344.400 138.050,344.220 137.600,344.000 137.600 C 343.780 137.600,343.600 137.234,343.600 136.787 C 343.600 136.341,343.330 135.871,343.000 135.745 C 342.670 135.618,342.400 135.084,342.400 134.557 C 342.400 134.031,342.220 133.600,342.000 133.600 C 341.780 133.600,341.600 133.150,341.600 132.600 C 341.600 131.978,341.373 131.600,341.000 131.600 C 340.670 131.600,340.400 131.330,340.400 131.000 C 340.400 130.670,340.220 130.400,340.000 130.400 C 339.780 130.400,339.600 129.950,339.600 129.400 C 339.600 128.778,339.373 128.400,339.000 128.400 C 338.660 128.400,338.400 128.041,338.400 127.571 C 338.400 126.686,337.534 125.600,336.829 125.600 C 336.593 125.600,336.400 125.150,336.400 124.600 C 336.400 124.050,336.220 123.600,336.000 123.600 C 335.780 123.600,335.600 123.150,335.600 122.600 C 335.600 121.978,335.373 121.600,335.000 121.600 C 334.670 121.600,334.400 121.330,334.400 121.000 C 334.400 120.670,334.220 120.400,334.000 120.400 C 333.780 120.400,333.600 119.950,333.600 119.400 C 333.600 118.850,333.407 118.400,333.171 118.400 C 332.466 118.400,331.600 117.314,331.600 116.429 C 331.600 115.959,331.340 115.600,331.000 115.600 C 330.670 115.600,330.400 115.407,330.400 115.171 C 330.400 114.618,329.382 113.600,328.829 113.600 C 328.593 113.600,328.400 113.150,328.400 112.600 C 328.400 112.050,328.263 111.600,328.095 111.600 C 327.789 111.600,327.067 110.415,326.571 109.100 C 326.426 108.715,326.148 108.400,325.953 108.400 C 325.759 108.400,325.600 108.065,325.600 107.656 C 325.600 107.247,325.150 106.574,324.600 106.161 C 324.050 105.748,323.600 105.087,323.600 104.693 C 323.600 104.298,323.330 103.871,323.000 103.745 C 322.670 103.618,322.400 103.341,322.400 103.129 C 322.400 102.610,321.362 101.600,320.829 101.600 C 320.593 101.600,320.400 101.150,320.400 100.600 C 320.400 100.050,320.220 99.600,320.000 99.600 C 319.780 99.600,319.600 99.330,319.600 99.000 C 319.600 98.670,319.407 98.400,319.171 98.400 C 318.466 98.400,317.600 97.314,317.600 96.429 C 317.600 95.959,317.340 95.600,317.000 95.600 C 316.670 95.600,316.400 95.407,316.400 95.171 C 316.400 94.618,315.382 93.600,314.829 93.600 C 314.593 93.600,314.400 93.407,314.400 93.171 C 314.400 92.618,313.382 91.600,312.829 91.600 C 312.593 91.600,312.400 91.330,312.400 91.000 C 312.400 90.670,312.220 90.400,312.000 90.400 C 311.780 90.400,311.600 90.065,311.600 89.656 C 311.600 89.247,311.150 88.574,310.600 88.161 C 310.050 87.748,309.600 87.183,309.600 86.905 C 309.600 86.627,309.407 86.400,309.171 86.400 C 308.618 86.400,307.600 85.382,307.600 84.829 C 307.600 84.593,307.407 84.400,307.171 84.400 C 306.618 84.400,305.600 83.382,305.600 82.829 C 305.600 82.593,305.407 82.400,305.171 82.400 C 304.618 82.400,303.600 81.382,303.600 80.829 C 303.600 80.593,303.416 80.400,303.190 80.400 C 302.965 80.400,301.723 79.320,300.432 78.000 C 299.034 76.571,297.743 75.600,297.242 75.600 C 296.779 75.600,296.400 75.407,296.400 75.171 C 296.400 74.618,295.382 73.600,294.829 73.600 C 294.593 73.600,294.400 73.330,294.400 73.000 C 294.400 72.660,294.041 72.400,293.571 72.400 C 292.686 72.400,291.600 71.534,291.600 70.829 C 291.600 70.593,291.330 70.400,291.000 70.400 C 290.670 70.400,290.400 70.220,290.400 70.000 C 290.400 69.780,289.950 69.600,289.400 69.600 C 288.850 69.600,288.400 69.407,288.400 69.171 C 288.400 68.466,287.314 67.600,286.429 67.600 C 285.973 67.600,285.599 67.375,285.597 67.100 C 285.594 66.584,283.839 65.600,282.920 65.600 C 282.634 65.600,282.400 65.330,282.400 65.000 C 282.400 64.662,282.043 64.400,281.583 64.400 C 281.133 64.400,280.280 63.950,279.687 63.400 C 279.093 62.850,278.381 62.400,278.104 62.400 C 277.827 62.400,277.600 62.220,277.600 62.000 C 277.600 61.780,277.169 61.600,276.643 61.600 C 276.116 61.600,275.582 61.330,275.455 61.000 C 275.329 60.670,274.859 60.400,274.413 60.400 C 273.966 60.400,273.600 60.220,273.600 60.000 C 273.600 59.780,273.169 59.600,272.643 59.600 C 272.116 59.600,271.582 59.330,271.455 59.000 C 271.329 58.670,270.859 58.400,270.413 58.400 C 269.966 58.400,269.600 58.220,269.600 58.000 C 269.600 57.780,269.169 57.600,268.643 57.600 C 268.116 57.600,267.582 57.330,267.455 57.000 C 267.311 56.623,266.699 56.400,265.813 56.400 C 265.036 56.400,264.400 56.220,264.400 56.000 C 264.400 55.780,263.969 55.600,263.443 55.600 C 262.916 55.600,262.382 55.330,262.255 55.000 C 262.121 54.649,261.521 54.400,260.813 54.400 C 260.146 54.400,259.600 54.220,259.600 54.000 C 259.600 53.780,258.880 53.600,258.000 53.600 C 256.844 53.600,256.400 53.433,256.400 53.000 C 256.400 52.581,255.978 52.400,255.000 52.400 C 254.230 52.400,253.600 52.220,253.600 52.000 C 253.600 51.780,252.880 51.600,252.000 51.600 C 250.844 51.600,250.400 51.433,250.400 51.000 C 250.400 50.581,249.978 50.400,249.000 50.400 C 248.230 50.400,247.600 50.220,247.600 50.000 C 247.600 49.780,246.902 49.600,246.049 49.600 C 245.158 49.600,244.286 49.345,244.000 49.000 C 243.714 48.655,242.842 48.400,241.951 48.400 C 241.098 48.400,240.400 48.220,240.400 48.000 C 240.400 47.780,239.500 47.600,238.400 47.600 C 236.889 47.600,236.400 47.453,236.400 47.000 C 236.400 46.533,235.867 46.400,234.000 46.400 C 232.667 46.400,231.600 46.222,231.600 46.000 C 231.600 45.774,230.467 45.600,229.000 45.600 C 226.956 45.600,226.400 45.472,226.400 45.000 C 226.400 44.520,225.800 44.400,223.400 44.400 C 221.667 44.400,220.400 44.231,220.400 44.000 C 220.400 43.780,219.519 43.600,218.443 43.600 C 217.117 43.600,216.415 43.416,216.267 43.029 C 215.927 42.144,182.748 42.110,181.864 42.993 M212.538 57.061 C 216.583 57.308,216.800 57.366,216.800 58.201 C 216.800 63.572,223.919 65.063,226.238 60.177 L 226.936 58.706 229.168 58.968 C 230.396 59.111,232.030 59.397,232.800 59.601 C 233.570 59.806,236.450 60.517,239.200 61.181 C 248.686 63.471,263.889 69.124,268.785 72.181 C 269.563 72.667,271.448 73.746,272.974 74.580 C 285.076 81.191,304.190 98.684,315.831 113.801 C 317.883 116.466,324.412 127.555,326.310 131.600 C 327.291 133.690,328.902 137.110,329.891 139.200 C 330.879 141.290,331.833 143.450,332.011 144.000 C 332.188 144.550,333.269 147.610,334.411 150.800 C 336.450 156.491,337.260 159.403,338.585 165.800 C 338.949 167.560,339.414 169.720,339.618 170.600 C 343.017 185.251,342.242 216.859,338.059 234.200 C 336.385 241.139,335.224 245.006,332.615 252.336 C 328.826 262.979,318.593 279.543,309.349 290.000 C 305.210 294.682,292.662 307.253,290.746 308.638 C 290.166 309.057,287.453 311.139,284.716 313.265 C 278.452 318.131,267.885 324.816,261.726 327.809 C 253.533 331.790,249.433 333.703,248.400 334.023 C 247.850 334.194,244.520 335.441,241.000 336.793 C 237.450 338.157,231.303 340.086,227.195 341.126 L 219.791 343.000 213.795 342.730 C 205.233 342.343,198.045 341.354,185.400 338.822 C 181.073 337.956,177.339 337.076,172.600 335.805 C 171.280 335.452,168.210 334.636,165.777 333.992 C 163.344 333.348,157.494 331.542,152.777 329.977 C 145.190 327.460,142.461 326.455,134.200 323.130 C 119.474 317.203,104.072 307.257,94.566 297.535 C 87.171 289.972,80.972 280.826,77.790 272.783 C 76.755 270.169,76.566 269.714,75.472 267.200 C 74.943 265.982,71.374 255.197,70.377 251.800 C 70.184 251.140,69.562 248.620,68.996 246.200 C 68.430 243.780,67.724 240.810,67.426 239.600 C 66.895 237.443,66.670 236.266,65.401 229.000 C 63.784 219.742,63.286 215.247,62.622 203.894 C 62.085 194.711,62.333 183.175,63.192 177.400 C 63.421 175.860,63.777 173.160,63.982 171.400 C 64.187 169.640,64.697 166.850,65.115 165.200 C 65.533 163.550,66.192 160.760,66.580 159.000 C 69.708 144.808,78.156 126.964,87.401 115.017 C 96.173 103.683,104.575 96.995,118.600 90.184 C 131.268 84.032,139.778 80.775,166.800 71.738 C 183.547 66.137,193.829 61.555,196.854 58.343 L 198.308 56.800 203.292 56.800 C 206.033 56.800,210.194 56.917,212.538 57.061 M241.166 114.703 C 238.875 117.070,235.470 120.705,233.600 122.782 C 226.959 130.156,225.351 131.872,219.211 138.141 C 208.620 148.955,201.036 155.457,199.495 155.045 C 198.428 154.759,195.757 152.209,175.600 132.225 C 161.302 118.050,153.901 111.200,152.884 111.200 C 152.466 111.200,112.301 151.707,112.086 152.345 C 111.927 152.818,124.302 165.546,141.891 183.000 C 157.813 198.799,157.881 198.885,155.900 200.664 C 155.405 201.109,153.124 203.526,150.830 206.036 C 145.695 211.657,126.378 230.980,118.021 238.856 L 111.843 244.679 112.842 245.640 C 113.392 246.168,117.162 249.732,121.221 253.559 C 125.279 257.386,134.205 266.161,141.055 273.059 C 147.905 279.957,153.610 285.600,153.733 285.600 C 154.470 285.600,162.325 278.173,179.583 261.155 C 201.812 239.238,199.997 240.790,201.711 242.230 C 209.375 248.665,223.634 262.522,232.990 272.627 C 235.624 275.472,239.707 279.759,242.063 282.153 L 246.346 286.506 247.473 285.553 C 248.862 284.379,256.939 275.815,265.366 266.583 C 270.887 260.534,283.216 248.305,285.916 246.200 C 287.045 245.320,287.975 244.302,287.984 243.937 C 287.993 243.572,282.027 237.452,274.726 230.337 C 246.775 203.096,242.800 198.973,242.800 197.224 C 242.800 196.672,282.699 156.397,286.153 153.463 L 287.305 152.484 286.271 151.142 C 285.702 150.404,281.571 146.175,277.091 141.745 C 272.611 137.314,267.338 131.918,265.373 129.753 C 258.910 122.634,246.656 110.400,245.987 110.400 C 245.627 110.400,243.457 112.336,241.166 114.703 M110.000 144.415 C 109.230 145.083,107.841 146.207,106.912 146.914 C 105.081 148.310,104.870 148.828,105.814 149.612 C 106.494 150.176,106.177 150.440,109.900 146.220 C 112.703 143.044,112.759 142.024,110.000 144.415 M147.346 199.700 C 143.030 204.336,139.622 208.800,140.400 208.800 C 140.620 208.800,140.800 208.530,140.800 208.200 C 140.800 207.870,140.957 207.600,141.150 207.600 C 141.731 207.600,149.600 199.547,149.600 198.953 C 149.600 198.012,148.613 198.340,147.346 199.700 M285.798 254.102 C 282.719 257.238,278.130 262.053,275.600 264.802 C 273.071 267.551,265.916 274.879,259.700 281.086 C 248.135 292.636,248.011 292.779,248.943 293.552 C 249.371 293.908,250.103 293.350,252.419 290.901 C 254.032 289.196,258.153 284.838,261.576 281.219 C 264.999 277.599,269.279 273.089,271.087 271.195 C 272.894 269.302,274.754 267.314,275.219 266.777 C 275.684 266.239,277.715 264.081,279.732 261.980 C 281.750 259.879,284.650 256.819,286.177 255.180 C 287.705 253.541,289.768 251.345,290.762 250.300 C 291.824 249.184,292.328 248.400,291.983 248.400 C 291.660 248.400,288.877 250.966,285.798 254.102 M149.800 339.600 C 149.664 339.820,149.304 340.000,149.000 340.000 C 148.696 340.000,148.336 339.820,148.200 339.600 C 148.059 339.372,148.404 339.200,149.000 339.200 C 149.596 339.200,149.941 339.372,149.800 339.600 M155.000 341.191 C 156.320 341.667,157.760 342.200,158.200 342.375 C 159.691 342.969,163.438 343.895,168.100 344.822 C 169.365 345.074,170.400 345.442,170.400 345.640 C 170.400 345.838,171.289 346.000,172.376 346.000 C 173.463 346.000,174.464 346.180,174.600 346.400 C 175.278 347.497,165.501 345.969,161.800 344.400 C 161.360 344.213,160.550 343.966,160.000 343.852 C 156.341 343.089,150.800 340.937,150.800 340.278 C 150.800 339.826,151.849 340.054,155.000 341.191 " stroke="none" fill="#c6d0f5" fill-rule="evenodd"></path><path id="path2" d="M167.600 47.000 C 167.600 47.373,167.222 47.600,166.600 47.600 C 166.050 47.600,165.600 47.780,165.600 48.000 C 165.600 48.220,165.150 48.400,164.600 48.400 C 163.978 48.400,163.600 48.627,163.600 49.000 C 163.600 49.330,163.330 49.600,163.000 49.600 C 162.670 49.600,162.400 49.780,162.400 50.000 C 162.400 50.220,162.034 50.400,161.587 50.400 C 161.141 50.400,160.671 50.670,160.545 51.000 C 160.403 51.370,159.795 51.600,158.957 51.600 C 158.211 51.600,157.600 51.780,157.600 52.000 C 157.600 52.220,156.880 52.400,156.000 52.400 C 154.844 52.400,154.400 52.567,154.400 53.000 C 154.400 53.419,153.978 53.600,153.000 53.600 C 152.230 53.600,151.600 53.769,151.600 53.976 C 151.600 54.183,150.925 54.408,150.100 54.476 C 147.754 54.670,147.639 56.400,149.972 56.400 C 151.152 56.400,151.600 56.565,151.600 57.000 C 151.600 57.330,151.330 57.600,151.000 57.600 C 150.670 57.600,150.400 57.780,150.400 58.000 C 150.400 58.220,150.065 58.400,149.656 58.400 C 149.247 58.400,148.574 58.850,148.161 59.400 C 147.747 59.951,147.004 60.400,146.505 60.400 C 145.967 60.400,145.600 60.643,145.600 61.000 C 145.600 61.330,145.315 61.600,144.967 61.600 C 144.120 61.600,144.474 62.563,145.386 62.739 C 145.781 62.816,146.486 62.698,146.953 62.477 C 147.419 62.256,150.770 61.140,154.400 59.997 C 161.166 57.867,162.603 57.411,172.105 54.380 C 177.981 52.506,180.206 50.695,178.766 48.959 C 178.090 48.144,173.600 48.180,173.600 49.000 C 173.600 49.433,173.156 49.600,172.000 49.600 L 170.400 49.600 170.400 48.000 C 170.400 46.438,170.367 46.400,169.000 46.400 C 168.022 46.400,167.600 46.581,167.600 47.000 M196.854 58.343 C 193.829 61.555,183.547 66.137,166.800 71.738 C 115.658 88.842,101.822 96.384,87.401 115.017 C 78.156 126.964,69.708 144.808,66.580 159.000 C 66.192 160.760,65.533 163.550,65.115 165.200 C 64.697 166.850,64.187 169.640,63.982 171.400 C 63.777 173.160,63.421 175.860,63.192 177.400 C 62.333 183.175,62.085 194.711,62.622 203.894 C 63.286 215.247,63.784 219.742,65.401 229.000 C 66.670 236.266,66.895 237.443,67.426 239.600 C 67.724 240.810,68.430 243.780,68.996 246.200 C 69.562 248.620,70.184 251.140,70.377 251.800 C 71.374 255.197,74.943 265.982,75.472 267.200 C 76.566 269.714,76.755 270.169,77.790 272.783 C 85.836 293.119,107.358 312.327,134.200 323.130 C 142.461 326.455,145.190 327.460,152.777 329.977 C 157.494 331.542,163.344 333.348,165.777 333.992 C 168.210 334.636,171.280 335.452,172.600 335.805 C 178.658 337.429,184.010 338.622,191.600 340.040 C 194.113 340.509,201.218 341.601,204.800 342.068 C 206.450 342.283,210.498 342.581,213.795 342.730 L 219.791 343.000 227.195 341.126 C 231.303 340.086,237.450 338.157,241.000 336.793 C 244.520 335.441,247.850 334.194,248.400 334.023 C 249.433 333.703,253.533 331.790,261.726 327.809 C 267.885 324.816,278.452 318.131,284.716 313.265 C 287.453 311.139,290.166 309.057,290.746 308.638 C 298.992 302.677,316.702 282.093,323.472 270.600 C 330.865 258.050,334.486 249.015,338.059 234.200 C 342.242 216.859,343.017 185.251,339.618 170.600 C 339.414 169.720,338.949 167.560,338.585 165.800 C 337.260 159.403,336.450 156.491,334.411 150.800 C 333.269 147.610,332.188 144.550,332.011 144.000 C 331.833 143.450,330.879 141.290,329.891 139.200 C 328.902 137.110,327.291 133.690,326.310 131.600 C 324.412 127.555,317.883 116.466,315.831 113.801 C 304.190 98.684,285.076 81.191,272.974 74.580 C 271.448 73.746,269.563 72.667,268.785 72.181 C 263.889 69.124,248.686 63.471,239.200 61.181 C 236.450 60.517,233.570 59.806,232.800 59.601 C 232.030 59.397,230.396 59.111,229.168 58.968 L 226.936 58.706 226.238 60.177 C 223.919 65.063,216.800 63.572,216.800 58.201 C 216.800 57.190,213.035 56.800,203.292 56.800 L 198.308 56.800 196.854 58.343 M156.238 105.258 C 159.422 108.033,164.818 112.871,167.996 115.800 C 171.954 119.447,190.356 137.814,192.400 140.155 C 197.170 145.621,199.411 148.000,199.788 147.996 C 200.014 147.994,210.353 137.914,222.762 125.596 C 235.171 113.278,245.488 103.200,245.690 103.200 C 246.784 103.200,250.525 106.458,256.400 112.527 C 260.030 116.277,270.065 126.417,278.700 135.060 C 292.539 148.912,294.400 150.920,294.400 152.002 C 294.400 153.042,293.498 154.155,288.475 159.314 C 285.217 162.661,280.858 167.200,278.789 169.400 C 276.720 171.600,269.392 179.035,262.505 185.923 L 249.983 198.446 255.291 203.509 C 268.674 216.273,291.342 238.918,293.576 241.755 C 295.477 244.170,295.387 244.336,288.471 251.157 C 284.990 254.591,284.128 255.510,286.555 253.200 C 288.983 250.890,291.090 248.843,291.238 248.651 C 291.386 248.459,291.696 248.369,291.926 248.451 C 292.156 248.533,291.247 249.770,289.905 251.200 C 288.562 252.630,286.121 255.240,284.478 257.000 C 282.836 258.760,279.942 261.828,278.046 263.817 C 276.151 265.807,273.070 269.055,271.200 271.036 C 269.330 273.017,264.999 277.599,261.576 281.219 C 258.153 284.838,254.032 289.196,252.419 290.901 C 249.491 293.997,248.412 294.412,248.394 292.451 C 248.390 292.035,248.282 291.961,248.094 292.246 C 246.746 294.291,246.251 293.910,232.201 280.000 C 225.645 273.510,215.779 263.750,210.276 258.312 L 200.271 248.424 198.632 250.112 C 197.731 251.040,192.916 256.300,187.933 261.800 C 175.227 275.824,164.288 286.512,157.535 291.500 C 154.599 293.669,153.656 293.804,151.996 292.294 C 151.448 291.795,149.740 290.333,148.200 289.043 C 138.492 280.916,119.474 261.920,110.113 251.000 C 108.793 249.460,107.337 247.866,106.879 247.459 C 105.923 246.608,105.389 244.700,105.872 243.858 C 107.176 241.582,127.669 220.687,136.095 213.042 C 138.009 211.305,139.478 209.726,139.358 209.532 C 139.238 209.339,139.379 209.230,139.670 209.290 C 139.962 209.351,140.152 209.167,140.094 208.882 C 139.975 208.298,147.780 198.859,148.663 198.520 C 149.557 198.177,149.823 198.750,149.221 199.718 C 148.719 200.523,148.729 200.552,149.336 200.051 C 150.367 199.198,150.139 198.598,148.326 197.398 C 146.447 196.155,133.689 183.504,129.395 178.625 C 127.858 176.879,121.978 170.771,116.328 165.052 C 104.746 153.326,104.780 153.370,105.708 151.425 C 106.273 150.240,106.282 150.000,105.779 149.582 C 104.871 148.829,105.098 148.297,106.912 146.914 C 107.841 146.207,109.230 145.083,110.000 144.415 C 111.836 142.824,112.714 142.808,111.500 144.388 C 111.225 144.746,111.408 144.612,111.906 144.091 C 112.404 143.569,112.691 142.947,112.544 142.709 C 112.394 142.466,112.461 142.391,112.698 142.537 C 112.930 142.680,113.704 142.123,114.418 141.299 C 121.048 133.646,136.574 118.253,147.000 108.998 C 148.980 107.240,151.230 105.218,152.000 104.504 C 153.752 102.881,153.447 102.827,156.238 105.258 M242.589 112.900 L 239.800 115.800 242.610 113.100 C 245.620 110.208,246.080 110.015,247.369 111.100 C 248.199 111.799,248.199 111.799,247.438 110.900 C 246.257 109.505,245.589 109.781,242.589 112.900 M152.576 111.001 C 151.929 111.502,151.916 111.562,152.500 111.358 C 153.668 110.951,159.118 115.883,175.729 132.379 C 184.270 140.861,191.380 147.883,191.529 147.984 C 191.678 148.085,183.341 139.670,173.002 129.284 C 162.662 118.898,154.012 110.400,153.778 110.400 C 153.544 110.400,153.004 110.670,152.576 111.001 M142.597 120.900 L 133.800 129.800 142.700 121.003 C 150.970 112.830,151.780 112.000,151.497 112.000 C 151.440 112.000,147.435 116.005,142.597 120.900 M235.775 120.100 L 234.600 121.400 235.900 120.225 C 236.615 119.579,237.200 118.994,237.200 118.925 C 237.200 118.616,236.870 118.888,235.775 120.100 M231.775 124.500 L 230.600 125.800 231.900 124.625 C 232.615 123.979,233.200 123.394,233.200 123.325 C 233.200 123.016,232.870 123.288,231.775 124.500 M227.381 129.300 L 225.800 131.000 227.500 129.419 C 229.081 127.948,229.384 127.600,229.081 127.600 C 229.016 127.600,228.251 128.365,227.381 129.300 M264.800 129.325 C 264.800 129.394,265.385 129.979,266.100 130.625 L 267.400 131.800 266.225 130.500 C 265.130 129.288,264.800 129.016,264.800 129.325 M222.786 134.300 L 220.600 136.600 222.900 134.414 C 224.165 133.211,225.200 132.176,225.200 132.114 C 225.200 131.817,224.818 132.163,222.786 134.300 M121.389 142.500 L 118.600 145.400 121.500 142.611 C 123.095 141.077,124.400 139.772,124.400 139.711 C 124.400 139.417,123.980 139.806,121.389 142.500 M210.581 146.500 L 209.000 148.200 210.700 146.619 C 212.281 145.148,212.584 144.800,212.281 144.800 C 212.216 144.800,211.451 145.565,210.581 146.500 M283.615 148.229 C 287.696 152.597,287.542 152.283,286.179 153.440 C 282.766 156.341,242.800 196.664,242.800 197.208 C 242.800 198.580,243.796 199.324,243.843 197.988 C 243.880 196.949,245.360 195.284,253.711 186.883 C 259.114 181.447,265.829 174.570,268.633 171.600 C 271.437 168.630,276.941 163.004,280.865 159.098 C 284.789 155.192,288.000 151.933,288.000 151.855 C 288.000 151.777,286.515 150.397,284.700 148.786 L 281.400 145.859 283.615 148.229 M51.891 146.642 C 51.731 146.802,51.600 147.533,51.600 148.267 C 51.600 149.185,51.413 149.600,51.000 149.600 C 50.627 149.600,50.400 149.978,50.400 150.600 C 50.400 151.150,50.220 151.600,50.000 151.600 C 49.780 151.600,49.600 152.230,49.600 153.000 C 49.600 153.978,49.419 154.400,49.000 154.400 C 48.627 154.400,48.400 154.778,48.400 155.400 C 48.400 155.950,48.220 156.400,48.000 156.400 C 47.780 156.400,47.600 157.043,47.600 157.829 C 47.600 158.614,47.330 159.527,47.000 159.857 C 46.670 160.187,46.400 161.164,46.400 162.029 C 46.400 162.893,46.220 163.600,46.000 163.600 C 45.780 163.600,45.600 164.481,45.600 165.557 C 45.600 166.928,45.420 167.583,45.000 167.745 C 44.567 167.911,44.400 168.590,44.400 170.187 C 44.400 171.404,44.220 172.400,44.000 172.400 C 43.763 172.400,43.600 173.867,43.600 176.000 C 43.600 178.933,43.489 179.600,43.000 179.600 C 42.488 179.600,42.400 180.689,42.400 187.000 C 42.400 193.311,42.488 194.400,43.000 194.400 C 43.493 194.400,43.600 195.111,43.600 198.400 C 43.600 200.800,43.760 202.400,44.000 202.400 C 44.222 202.400,44.400 203.471,44.400 204.813 C 44.400 206.588,44.558 207.286,45.000 207.455 C 45.420 207.617,45.600 208.272,45.600 209.643 C 45.600 210.719,45.770 211.600,45.978 211.600 C 46.186 211.600,46.411 212.441,46.478 213.469 C 46.545 214.497,46.811 215.407,47.068 215.492 C 47.815 215.737,48.148 211.539,47.647 208.174 C 47.087 204.407,47.062 188.706,47.605 181.800 C 48.332 172.567,48.826 167.860,49.370 165.000 C 49.663 163.460,50.113 160.940,50.371 159.400 C 51.041 155.406,51.981 150.784,52.385 149.500 C 52.754 148.326,52.379 146.154,51.891 146.642 M206.778 149.900 L 205.400 151.400 206.900 150.022 C 208.296 148.738,208.584 148.400,208.278 148.400 C 208.212 148.400,207.537 149.075,206.778 149.900 M200.980 154.361 C 200.771 154.560,200.240 154.809,199.800 154.915 C 199.041 155.097,199.044 155.110,199.851 155.154 C 200.319 155.179,200.926 154.930,201.200 154.600 C 201.743 153.946,201.591 153.781,200.980 154.361 M117.000 158.000 C 118.528 159.540,119.869 160.800,119.979 160.800 C 120.089 160.800,118.928 159.540,117.400 158.000 C 115.872 156.460,114.531 155.200,114.421 155.200 C 114.311 155.200,115.472 156.460,117.000 158.000 M124.400 165.800 C 125.817 167.230,127.067 168.400,127.177 168.400 C 127.287 168.400,126.217 167.230,124.800 165.800 C 123.383 164.370,122.133 163.200,122.023 163.200 C 121.913 163.200,122.983 164.370,124.400 165.800 M133.000 174.800 C 135.412 177.220,137.476 179.200,137.586 179.200 C 137.696 179.200,135.812 177.220,133.400 174.800 C 130.988 172.380,128.924 170.400,128.814 170.400 C 128.704 170.400,130.588 172.380,133.000 174.800 M149.400 190.800 C 151.592 193.000,153.475 194.800,153.585 194.800 C 153.695 194.800,151.992 193.000,149.800 190.800 C 147.608 188.600,145.725 186.800,145.615 186.800 C 145.505 186.800,147.208 188.600,149.400 190.800 M156.116 199.370 C 155.679 200.786,155.693 200.879,156.251 200.321 C 156.591 199.981,156.809 199.274,156.735 198.751 C 156.621 197.950,156.524 198.048,156.116 199.370 M153.775 202.500 L 152.600 203.800 153.900 202.625 C 155.112 201.530,155.384 201.200,155.075 201.200 C 155.006 201.200,154.421 201.785,153.775 202.500 M253.400 209.600 C 257.135 213.340,260.281 216.400,260.391 216.400 C 260.501 216.400,257.535 213.340,253.800 209.600 C 250.065 205.860,246.919 202.800,246.809 202.800 C 246.699 202.800,249.665 205.860,253.400 209.600 M148.985 207.700 L 147.000 209.800 149.100 207.815 C 150.255 206.723,151.200 205.778,151.200 205.715 C 151.200 205.417,150.829 205.749,148.985 207.700 M142.392 214.700 L 138.600 218.600 142.500 214.808 C 146.122 211.286,146.582 210.800,146.292 210.800 C 146.233 210.800,144.478 212.555,142.392 214.700 M265.800 221.600 C 266.659 222.480,267.452 223.200,267.562 223.200 C 267.672 223.200,267.059 222.480,266.200 221.600 C 265.341 220.720,264.548 220.000,264.438 220.000 C 264.328 220.000,264.941 220.720,265.800 221.600 M128.192 228.900 L 124.200 233.000 128.300 229.008 C 130.555 226.812,132.400 224.967,132.400 224.908 C 132.400 224.618,131.901 225.092,128.192 228.900 M278.656 234.026 C 283.747 239.182,288.019 243.670,288.149 244.000 C 288.339 244.482,288.368 244.472,288.293 243.948 C 288.156 242.988,281.538 235.980,275.063 229.937 C 270.295 225.487,270.862 226.133,278.656 234.026 M120.981 235.700 L 119.400 237.400 121.100 235.819 C 122.681 234.348,122.984 234.000,122.681 234.000 C 122.616 234.000,121.851 234.765,120.981 235.700 M194.194 246.900 L 189.000 252.200 194.300 247.006 C 197.215 244.149,199.600 241.764,199.600 241.706 C 199.600 241.419,199.019 241.977,194.194 246.900 M203.800 244.400 C 204.659 245.280,205.452 246.000,205.562 246.000 C 205.672 246.000,205.059 245.280,204.200 244.400 C 203.341 243.520,202.548 242.800,202.438 242.800 C 202.328 242.800,202.941 243.520,203.800 244.400 M114.800 247.800 C 115.546 248.570,116.247 249.200,116.357 249.200 C 116.467 249.200,115.946 248.570,115.200 247.800 C 114.454 247.030,113.753 246.400,113.643 246.400 C 113.533 246.400,114.054 247.030,114.800 247.800 M206.800 246.925 C 206.800 246.994,207.385 247.579,208.100 248.225 L 209.400 249.400 208.225 248.100 C 207.130 246.888,206.800 246.616,206.800 246.925 M283.775 248.100 L 282.600 249.400 283.900 248.225 C 284.615 247.579,285.200 246.994,285.200 246.925 C 285.200 246.616,284.870 246.888,283.775 248.100 M211.800 251.600 C 212.659 252.480,213.452 253.200,213.562 253.200 C 213.672 253.200,213.059 252.480,212.200 251.600 C 211.341 250.720,210.548 250.000,210.438 250.000 C 210.328 250.000,210.941 250.720,211.800 251.600 M276.193 255.300 L 271.800 259.800 276.300 255.407 C 278.775 252.991,280.800 250.966,280.800 250.907 C 280.800 250.618,280.274 251.120,276.193 255.300 M123.400 256.000 C 124.483 257.100,125.460 258.000,125.570 258.000 C 125.680 258.000,124.883 257.100,123.800 256.000 C 122.717 254.900,121.740 254.000,121.630 254.000 C 121.520 254.000,122.317 254.900,123.400 256.000 M180.394 260.300 L 175.400 265.400 180.500 260.406 C 183.305 257.659,185.600 255.364,185.600 255.306 C 185.600 255.019,185.033 255.563,180.394 260.300 M278.778 261.100 L 277.400 262.600 278.900 261.222 C 279.725 260.463,280.400 259.788,280.400 259.722 C 280.400 259.416,280.062 259.704,278.778 261.100 M130.800 262.904 C 130.800 262.961,134.355 266.516,138.700 270.804 L 146.600 278.600 138.804 270.700 C 131.560 263.360,130.800 262.619,130.800 262.904 M266.778 265.100 L 265.400 266.600 266.900 265.222 C 268.296 263.938,268.584 263.600,268.278 263.600 C 268.212 263.600,267.537 264.275,266.778 265.100 M273.785 266.500 L 271.800 268.600 273.900 266.615 C 275.055 265.523,276.000 264.578,276.000 264.515 C 276.000 264.217,275.629 264.549,273.785 266.500 M262.181 270.100 L 260.600 271.800 262.300 270.219 C 263.881 268.748,264.184 268.400,263.881 268.400 C 263.816 268.400,263.051 269.165,262.181 270.100 M230.800 270.525 C 230.800 270.594,231.385 271.179,232.100 271.825 L 233.400 273.000 232.225 271.700 C 231.130 270.488,230.800 270.216,230.800 270.525 M164.587 276.046 C 161.954 278.743,154.146 285.600,153.707 285.600 C 153.555 285.600,152.696 284.925,151.799 284.100 C 150.902 283.275,151.119 283.559,152.282 284.731 C 154.042 286.507,154.479 286.770,154.897 286.311 C 155.174 286.008,158.092 283.024,161.383 279.680 C 164.673 276.336,167.278 273.600,167.170 273.600 C 167.063 273.600,165.901 274.700,164.587 276.046 M236.200 276.400 C 237.059 277.280,237.852 278.000,237.962 278.000 C 238.072 278.000,237.459 277.280,236.600 276.400 C 235.741 275.520,234.948 274.800,234.838 274.800 C 234.728 274.800,235.341 275.520,236.200 276.400 M256.181 276.500 L 254.600 278.200 256.300 276.619 C 257.881 275.148,258.184 274.800,257.881 274.800 C 257.816 274.800,257.051 275.565,256.181 276.500 M261.200 279.400 C 260.228 280.390,259.523 281.200,259.633 281.200 C 259.743 281.200,260.628 280.390,261.600 279.400 C 262.572 278.410,263.277 277.600,263.167 277.600 C 263.057 277.600,262.172 278.410,261.200 279.400 M251.188 281.900 L 248.600 284.600 251.300 282.012 C 253.808 279.607,254.183 279.200,253.888 279.200 C 253.827 279.200,252.612 280.415,251.188 281.900 M148.200 339.600 C 148.336 339.820,148.696 340.000,149.000 340.000 C 149.304 340.000,149.664 339.820,149.800 339.600 C 149.941 339.372,149.596 339.200,149.000 339.200 C 148.404 339.200,148.059 339.372,148.200 339.600 M150.800 340.278 C 150.800 340.937,156.341 343.089,160.000 343.852 C 160.550 343.966,161.360 344.213,161.800 344.400 C 165.501 345.969,175.278 347.497,174.600 346.400 C 174.464 346.180,173.463 346.000,172.376 346.000 C 171.289 346.000,170.400 345.838,170.400 345.640 C 170.400 345.442,169.365 345.074,168.100 344.822 C 163.438 343.895,159.691 342.969,158.200 342.375 C 153.613 340.549,150.800 339.752,150.800 340.278 " stroke="none" fill="#fa5252" fill-rule="evenodd"></path></g></svg>