<?xml version="1.0" encoding="UTF-8"?>
<svg version="1.1" xmlns="http://www.w3.org/2000/svg" width="461" height="461">
<path d="M0 0 C6.09352518 -0.6647482 6.09352518 -0.6647482 8.875 1.375 C10.69507277 4.00399401 11.20637407 5.98182615 11.578125 9.12109375 C13.04782561 20.77197303 15.28699344 31.85280356 18.49707031 43.14453125 C19.1112738 45.41052469 19.58736658 47.68925283 20 50 C21.258125 50.37125 22.51625 50.7425 23.8125 51.125 C38.69109684 56.14652643 50.69600294 66.42125939 62 77 C62.89638184 76.18724609 63.79276367 75.37449219 64.71630859 74.53710938 C69.93497138 70.83568004 75.35246758 71.31814453 81.5390625 71.40625 C82.73808197 71.40620972 83.93710144 71.40616943 85.17245483 71.40612793 C87.69900779 71.41147465 90.2255608 71.42902065 92.75195312 71.45800781 C96.61900595 71.49993501 100.4843202 71.49906697 104.3515625 71.4921875 C106.80990793 71.50267794 109.2682444 71.51561524 111.7265625 71.53125 C112.88185455 71.53145142 114.03714661 71.53165283 115.22744751 71.53186035 C116.30561737 71.54777222 117.38378723 71.56368408 118.49462891 71.58007812 C119.43948151 71.58849731 120.38433411 71.5969165 121.3578186 71.60559082 C126.7603857 72.41205402 130.30537229 76.0189086 134.1875 79.625 C137.34915935 82.66521982 137.34915935 82.66521982 141 85 C141 85.66 141 86.32 141 87 C141.81210937 87.33451172 141.81210937 87.33451172 142.640625 87.67578125 C145.74981077 89.4208375 148.17835265 91.75328449 150.75 94.1875 C151.83014996 95.1933307 152.91087851 96.19854041 153.9921875 97.203125 C154.51264648 97.68845703 155.03310547 98.17378906 155.56933594 98.67382812 C159.66659415 102.47183267 163.9253966 106.08728287 168.1796875 109.70703125 C175.02119707 115.5344906 181.74252108 121.45656731 188.34375 127.5546875 C192.85086728 131.70388665 197.47519731 135.70700804 202.14453125 139.671875 C208.66326894 145.21623295 215.05408986 150.85046556 221.30200195 156.69873047 C225.57076916 160.66842874 230.039552 164.33938108 234.5859375 167.98828125 C237.29301891 170.24418242 239.70397883 172.67568424 242.1484375 175.20703125 C244.36495714 177.35340786 246.71874739 179.25625691 249.125 181.1875 C254.64876333 185.63234394 259.81960572 190.38218412 265 195.21484375 C267.9621924 197.97666341 270.9902134 200.65302434 274.0546875 203.30078125 C276.3366529 205.29406428 278.57228574 207.33493027 280.8125 209.375 C284.35160002 212.57652433 287.97103106 215.63146063 291.6875 218.625 C295.41195929 221.63582164 298.80774906 224.74687672 302.12890625 228.1875 C305.31784178 231.27657325 308.80998287 233.9946927 312.265625 236.77734375 C315.92979118 239.7557874 319.47511848 242.85891647 323 246 C320.88792896 249.8229226 318.52143333 252.72967542 315.43870544 255.81526184 C314.98427899 256.27280828 314.52985253 256.73035471 314.06165558 257.20176619 C312.5463827 258.72498033 311.0241053 260.24098809 309.50170898 261.75708008 C308.41051448 262.85098605 307.31974561 263.94531673 306.22937012 265.04003906 C303.27343126 268.0050824 300.31121713 270.96378063 297.34755206 273.92109895 C294.24783473 277.01575013 291.15300292 280.1152809 288.05738831 283.21403503 C282.86159454 288.413465 277.66160274 293.60866848 272.45922852 298.80151367 C266.43818859 304.81165256 260.42441075 310.82898583 254.41432136 316.85007364 C249.2561633 322.01729394 244.09413515 327.18062374 238.92882401 332.34069365 C235.84264043 335.42375387 232.75783681 338.50816216 229.67651176 341.59607887 C226.78280051 344.4955481 223.88427774 347.39011801 220.98189545 350.28090668 C219.91508538 351.34506258 218.84999146 352.41094197 217.78670692 353.47862053 C216.34051617 354.93023779 214.88760601 356.37515171 213.43431091 357.81965637 C212.62149879 358.63171445 211.80868666 359.44377253 210.97124386 360.28043842 C209 362 209 362 207 362 C205.30859375 360.35546875 205.30859375 360.35546875 203.4375 358.1875 C202.81746094 357.47980469 202.19742188 356.77210938 201.55859375 356.04296875 C200 354 200 354 199 351 C198.34 351 197.68 351 197 351 C195.64902626 349.48848454 194.37072655 347.91186687 193.125 346.3125 C188.92750508 341.03995337 184.47497275 336.10491567 179.81103516 331.24145508 C176 327.21057633 176 327.21057633 176 325 C175.34 325 174.68 325 174 325 C172.64902626 323.48848454 171.37072655 321.91186687 170.125 320.3125 C166.53021756 315.81322391 162.80496829 311.52128985 158.875 307.3125 C155.05029018 303.2119899 151.2633805 299.0957259 147.6015625 294.84765625 C146.42344757 293.4885139 145.22813216 292.14423348 144.0234375 290.80859375 C143.37632812 290.08800781 142.72921875 289.36742187 142.0625 288.625 C141.18271484 287.65433594 141.18271484 287.65433594 140.28515625 286.6640625 C139 285 139 285 139 283 C138.34 283 137.68 283 137 283 C135.2734375 281.3203125 135.2734375 281.3203125 133.375 279.125 C132.74335938 278.40570313 132.11171875 277.68640625 131.4609375 276.9453125 C130 275 130 275 130 273 C129.34 273 128.68 273 128 273 C126.67018907 271.50890766 125.4130127 269.95293286 124.1875 268.375 C120.47216491 263.7203612 116.58852679 259.32892336 112.5 255 C107.74628868 249.9573929 103.30859465 244.79000823 98.9765625 239.37890625 C96.73524928 236.68135733 94.31235858 234.28447442 91.79296875 231.8515625 C89.64659214 229.63504286 87.74374309 227.28125261 85.8125 224.875 C81.36765606 219.35123667 76.61781588 214.18039428 71.78515625 209 C69.02333659 206.0378076 66.34697566 203.0097866 63.69921875 199.9453125 C61.70593572 197.6633471 59.66506973 195.42771426 57.625 193.1875 C54.42347567 189.64839998 51.36853937 186.02896894 48.375 182.3125 C45.31801046 178.5246072 42.18546992 175.02760563 38.60546875 171.73046875 C32.45316909 165.09915792 32.39662327 160.0787102 32.43359375 151.15625 C32.42739517 149.91379517 32.42119659 148.67134033 32.41481018 147.39123535 C32.40590574 144.09879059 32.41699644 140.80709446 32.43389893 137.51470947 C32.43749734 135.50148757 32.4235626 133.48918636 32.40307617 131.47607422 C32.36620516 127.59819565 32.36356541 123.72177022 32.37109375 119.84375 C32.35783554 118.64673462 32.34457733 117.44971924 32.33091736 116.21643066 C32.43442845 106.95507811 32.43442845 106.95507811 35.53930664 103.19726562 C36.75734985 102.10961914 36.75734985 102.10961914 38 101 C37.26265625 100.27425781 36.5253125 99.54851562 35.765625 98.80078125 C26.95063621 89.87373752 11 71.446281 11 58 C3.42798634 55.8444022 -4.16386028 54.02033904 -11.875 52.4375 C-12.92059082 52.21989014 -13.96618164 52.00228027 -15.04345703 51.77807617 C-21.61045967 50.43030571 -28.14766358 49.26475015 -34.8046875 48.45703125 C-37 48 -37 48 -39 46 C-39.375 43.0625 -39.375 43.0625 -39 40 C-37.46875 38.2734375 -37.46875 38.2734375 -35 37 C-32.24032663 37.00303261 -29.8340742 37.17768496 -27.125 37.5625 C-26.35430176 37.65966309 -25.58360352 37.75682617 -24.78955078 37.85693359 C-14.79937594 39.18274732 -4.89136843 41.08635029 5 43 C4.66226563 41.78828125 4.32453125 40.5765625 3.9765625 39.328125 C1.52915505 30.25015268 -0.47279219 21.30155109 -1.4375 11.9375 C-1.53015137 11.08768555 -1.62280273 10.23787109 -1.71826172 9.36230469 C-2.25530672 3.38296008 -2.25530672 3.38296008 0 0 Z M28 66 C30.71118812 75.34317138 37.57367368 86.38244912 45.8125 91.875 C46.534375 92.24625 47.25625 92.6175 48 93 C49.98 91.02 51.96 89.04 54 87 C49.53925161 77.09451461 39.11332034 71.16660681 30 66 C29.34 66 28.68 66 28 66 Z M81 106 C81.2165625 106.56847656 81.433125 107.13695312 81.65625 107.72265625 C83.45411308 112.70839692 84.44170385 116.69955376 84 122 C83 123 83 123 79.4375 123.0625 C78.303125 123.041875 77.16875 123.02125 76 123 C73.94356259 119.07407404 72.31061591 115.23429756 71 111 C70.01 111.33 69.02 111.66 68 112 C66.55462538 116.33612385 66.62830016 120.22410078 67.5625 124.6875 C69.6519564 128.04879943 72.36283264 129.6786853 76 131 C79.88366145 131.66198775 83.11943041 131.35222784 86.8125 129.875 C90.61208654 126.61821154 91.8471471 123.42662704 92.375 118.5 C91.95273992 114.55890595 91.23350591 112.27580867 89 109 C85.25445176 106.66025758 85.25445176 106.66025758 81 106 Z " fill="#F1B100" transform="translate(89,50)"/>
<path d="M0 0 C2.90221328 1.31270914 4.96712292 2.71898982 7.20703125 4.9765625 C7.79419922 5.56566406 8.38136719 6.15476563 8.98632812 6.76171875 C9.58896484 7.37660156 10.19160156 7.99148437 10.8125 8.625 C11.40353516 9.21667969 11.99457031 9.80835938 12.60351562 10.41796875 C15.55316017 13.39656292 18.3894232 16.42412432 21.10546875 19.6171875 C26.54918444 25.91017464 32.58697076 31.65356964 38.5 37.5 C51.81530387 50.66533263 51.81530387 50.66533263 57.07226562 56.84960938 C61.959402 62.30121743 67.29542362 67.35404315 72.5 72.5 C85.81604763 85.66606801 85.81604763 85.66606801 89.46875 89.96875 C94.89761801 96.35525683 101.04561369 102.11010163 107 108 C120.93211836 121.78122899 120.93211836 121.78122899 126.12158203 127.89453125 C130.8151054 133.15537678 135.93527141 138.03522276 140.9375 143 C142.11026009 144.16773374 143.28278798 145.33570074 144.45507812 146.50390625 C147.30071689 149.33863234 150.14947453 152.17018824 153 155 C150.71858978 157.9538783 148.51490218 160.57719528 145.625 162.9375 C141.68848101 166.30541069 138.02557561 169.8918221 134.375 173.5625 C133.77945313 174.16126953 133.18390625 174.76003906 132.5703125 175.37695312 C130.71165913 177.24944753 128.85540163 179.12428376 127 181 C112.75254968 195.4034443 112.75254968 195.4034443 106.60546875 200.62158203 C104.28652704 202.61257122 102.14341682 204.76059229 100 206.9375 C98.8553125 208.09572266 98.8553125 208.09572266 97.6875 209.27734375 C97.130625 209.84582031 96.57375 210.41429687 96 211 C88.79594919 205.04882759 82.06213371 198.6107152 76 191.4921875 C70.66423429 185.34652878 64.78520313 179.71733204 59 174 C46.21599544 161.36597539 46.21599544 161.36597539 42.53125 157.03125 C37.24934673 150.82566414 31.29020574 145.22499023 25.5 139.5 C12.18469613 126.33466737 12.18469613 126.33466737 6.92773438 120.15039062 C2.040598 114.69878257 -3.29542362 109.64595685 -8.5 104.5 C-21.81736325 91.33263119 -21.81736325 91.33263119 -25.5 86.984375 C-28.60080259 83.33137468 -31.97733117 80.01235663 -35.40625 76.671875 C-35.98032593 76.11040771 -36.55440186 75.54894043 -37.14587402 74.97045898 C-39.54078707 72.62985122 -41.93698402 70.29104173 -44.3515625 67.97070312 C-46.13117445 66.25735332 -47.89472404 64.52878752 -49.65625 62.796875 C-50.20817017 62.27389832 -50.76009033 61.75092163 -51.32873535 61.21209717 C-52.83789062 59.71386719 -52.83789062 59.71386719 -55 57 C-54.70680994 53.53763343 -53.20842975 51.83724145 -50.80053711 49.4440918 C-50.12570786 48.76626144 -49.4508786 48.08843109 -48.75559998 47.39006042 C-48.02027542 46.66708267 -47.28495087 45.94410492 -46.52734375 45.19921875 C-45.77087051 44.44461868 -45.01439728 43.69001862 -44.23500061 42.91255188 C-42.63029291 41.31456996 -41.02198987 39.72019167 -39.41040039 38.12915039 C-36.96448635 35.71414533 -34.52916928 33.28886924 -32.09570312 30.86132812 C-30.5318658 29.30667198 -28.96743106 27.75261651 -27.40234375 26.19921875 C-26.68118881 25.48231369 -25.96003387 24.76540863 -25.21702576 24.02677917 C-21.18505376 20.05039286 -17.06544273 16.23083087 -12.7658844 12.54473877 C-10.05370302 10.17220989 -7.52365451 7.63236227 -5 5.0625 C-4.26716797 4.32290039 -4.26716797 4.32290039 -3.51953125 3.56835938 C-2.34396475 2.38126771 -1.17161174 1.19099502 0 0 Z " fill="#FEFEFE" transform="translate(215,160)"/>
<path d="M0 0 C2.92378174 0.93058297 4.19647216 1.9571689 6.32641602 4.13891602 C7.33768555 5.16275391 7.33768555 5.16275391 8.36938477 6.20727539 C9.40385742 7.28525391 9.40385742 7.28525391 10.45922852 8.38500977 C11.48209961 9.42238281 11.48209961 9.42238281 12.52563477 10.48071289 C15.71079225 13.73564049 18.79668927 17.03810905 21.74829102 20.50610352 C27.17124078 26.77691861 33.19279309 32.49743001 39.08422852 38.32250977 C52.39953239 51.4878424 52.39953239 51.4878424 57.65649414 57.67211914 C62.54363051 63.12372719 67.87965214 68.17655291 73.08422852 73.32250977 C86.40102068 86.48931393 86.40102068 86.48931393 90.02172852 90.76000977 C95.61131657 97.33558726 101.95482803 103.25703647 108.08422852 109.32250977 C122.47810116 123.56626008 122.47810116 123.56626008 127.6652832 129.68969727 C130.37454745 132.70091005 133.254264 135.52700554 136.13891602 138.36938477 C136.730495 138.95308838 137.32207397 139.53679199 137.93157959 140.13818359 C140.40203179 142.57203343 142.87530459 145.00285353 145.35766602 147.42456055 C147.18730749 149.21197222 149.00744784 151.00862142 150.82641602 152.80688477 C151.67162308 153.62416046 151.67162308 153.62416046 152.53390503 154.45794678 C155.24017442 157.1461656 157.04326961 159.00662647 157.58422852 162.82250977 C156.44775391 164.54248047 156.44775391 164.54248047 154.68188477 166.24829102 C154.03799805 166.88057617 153.39411133 167.51286133 152.73071289 168.16430664 C152.04299805 168.81463867 151.3552832 169.4649707 150.64672852 170.13500977 C149.99381836 170.77374023 149.3409082 171.4124707 148.66821289 172.07055664 C145.46323984 175.18098771 142.19243417 178.18098982 138.79907227 181.08422852 C133.27700763 185.86821878 128.21199508 191.12506795 123.08422852 196.32250977 C117.2871991 202.19830827 111.51390205 208.02068165 105.22875977 213.38305664 C102.41084156 215.84957175 99.94997112 218.64061299 97.44360352 221.41625977 C95.58422852 222.82250977 95.58422852 222.82250977 93.72314453 222.64501953 C90.9933913 221.59530618 89.55487362 220.14913883 87.50219727 218.06860352 C86.73456055 217.29581055 85.96692383 216.52301758 85.17602539 215.72680664 C84.38260742 214.91276367 83.58918945 214.0987207 82.77172852 213.26000977 C81.98991211 212.47303711 81.2080957 211.68606445 80.40258789 210.87524414 C76.95936422 207.38599576 73.58840424 203.87704893 70.41625977 200.13891602 C64.69880252 193.50640134 58.3041865 187.47759608 52.08422852 181.32250977 C37.70484297 167.09309546 37.70484297 167.09309546 32.53930664 161.00024414 C27.32580312 155.19299497 21.62965171 149.81009641 16.08422852 144.32250977 C1.70409519 130.09235549 1.70409519 130.09235549 -1.88452148 125.85375977 C-7.60623692 119.10488429 -14.13317959 113.04191467 -20.41577148 106.82250977 C-35.50140117 91.88860337 -35.50140117 91.88860337 -40.69311523 85.74584961 C-42.92791662 83.25070146 -45.31769242 80.94879575 -47.72827148 78.62329102 C-49.12239258 77.27460938 -49.12239258 77.27460938 -50.54467773 75.89868164 C-51.99272934 74.50480883 -53.44108343 73.11114742 -54.90356445 71.73242188 C-56.33770042 70.37674855 -57.75209567 69.0002866 -59.16577148 67.62329102 C-60.00624023 66.82060791 -60.84670898 66.0179248 -61.71264648 65.19091797 C-63.41577148 62.82250977 -63.41577148 62.82250977 -63.265625 60.13330078 C-62.31665905 57.55301847 -61.3532793 56.31539862 -59.35327148 54.44750977 C-58.53149414 53.6624707 -58.53149414 53.6624707 -57.69311523 52.86157227 C-56.42874423 51.72949394 -55.15732594 50.60469216 -53.85961914 49.51098633 C-46.81813061 43.51799239 -40.41145709 36.89219016 -33.91577148 30.32250977 C-20.34890938 16.60110245 -20.34890938 16.60110245 -14.0480957 11.25415039 C-10.70533963 8.32236433 -7.80011175 4.95070263 -4.81030273 1.66625977 C-2.41577148 -0.17749023 -2.41577148 -0.17749023 0 0 Z M-3.07641602 7.27197266 C-3.72723145 7.93962646 -4.37804687 8.60728027 -5.04858398 9.29516602 C-5.77303711 10.03057617 -6.49749023 10.76598633 -7.24389648 11.52368164 C-8.00186523 12.30291992 -8.75983398 13.0821582 -9.54077148 13.88500977 C-11.01997183 15.3992438 -12.50172894 16.91098462 -13.98608398 18.42016602 C-14.64366699 19.09571533 -15.30125 19.77126465 -15.97875977 20.46728516 C-18.01683105 22.43695793 -20.0906645 24.29871988 -22.23144531 26.15356445 C-28.37301712 31.48847393 -34.11604664 37.22334402 -39.89160156 42.94824219 C-41.29356372 44.33347331 -42.70089114 45.71329346 -44.11328125 47.08789062 C-46.16501795 49.0852046 -48.20012449 51.09816619 -50.23217773 53.11547852 C-50.86845596 53.72908737 -51.50473419 54.34269623 -52.16029358 54.97489929 C-54.1118394 56.87718799 -54.1118394 56.87718799 -56.41577148 59.82250977 C-56.14509625 63.09758746 -54.86380594 64.7413201 -52.56762695 66.99536133 C-51.96965302 67.58988098 -51.37167908 68.18440063 -50.75558472 68.79693604 C-50.10461823 69.42928162 -49.45365173 70.0616272 -48.78295898 70.71313477 C-48.11289825 71.37657898 -47.44283752 72.04002319 -46.75247192 72.72357178 C-44.60554596 74.84709283 -42.44876233 76.96023907 -40.29077148 79.07250977 C-38.15588615 81.17211972 -36.02321837 83.27391099 -33.89334106 85.37860107 C-32.56872291 86.68649989 -31.24102029 87.99128533 -29.90963745 89.29229736 C-26.12174554 93.02026817 -22.57764199 96.88103446 -19.10647583 100.90447998 C-16.54997297 103.80472014 -13.82612621 106.51757399 -11.07202148 109.22875977 C-10.49923462 109.79776001 -9.92644775 110.36676025 -9.33630371 110.95300293 C-7.53191898 112.74533958 -5.72429789 114.53435293 -3.91577148 116.32250977 C9.39953239 129.4878424 9.39953239 129.4878424 14.65649414 135.67211914 C19.54363051 141.12372719 24.87965214 146.17655291 30.08422852 151.32250977 C43.42890682 164.51688598 43.42890682 164.51688598 48.68774414 170.70336914 C53.40363369 175.97292647 58.55614082 180.85341081 63.58422852 185.82250977 C76.83274553 198.91559725 76.83274553 198.91559725 82.1394043 205.15063477 C84.31597781 207.66925176 86.65175451 209.98500115 89.02172852 212.32250977 C89.88668945 213.17844727 90.75165039 214.03438477 91.64282227 214.91625977 C92.28348633 215.54532227 92.92415039 216.17438477 93.58422852 216.82250977 C98.35355084 212.86498698 102.76398992 208.71129451 107.08032227 204.26391602 C109.00692625 202.38540199 110.93950083 200.65733965 112.98657227 198.92016602 C119.5686744 193.21025192 125.58502905 186.88822497 131.70922852 180.69750977 C134.18802994 178.19193805 136.6702498 175.6898246 139.15454102 173.18969727 C139.98914352 172.34264725 139.98914352 172.34264725 140.84060669 171.47848511 C144.2644754 168.03344914 147.8076306 164.87799821 151.58422852 161.82250977 C145.41897967 154.27035081 138.39011283 147.56449675 131.46386719 140.72265625 C120.76576471 130.14336946 120.76576471 130.14336946 117.17407227 125.91235352 C111.71918281 119.51067194 105.55894052 113.7325137 99.58422852 107.82250977 C85.70742667 94.09599819 85.70742667 94.09599819 80.49438477 87.95532227 C75.61554745 82.50778612 70.2826841 77.46241476 65.08422852 72.32250977 C51.76892464 59.15717714 51.76892464 59.15717714 46.51196289 52.97290039 C41.62482652 47.52129234 36.28880489 42.46846662 31.08422852 37.32250977 C17.23834094 23.63256943 17.23834094 23.63256943 12.00268555 17.47680664 C9.86269433 14.98100966 7.58753707 12.65632617 5.27172852 10.32250977 C4.0090918 9.03860352 4.0090918 9.03860352 2.72094727 7.72875977 C0.17704943 5.45924945 -0.47211649 4.99885794 -3.07641602 7.27197266 Z " fill="#E13934" transform="translate(216.415771484375,154.177490234375)"/>
<path d="M0 0 C6.09352518 -0.6647482 6.09352518 -0.6647482 8.875 1.375 C10.69507277 4.00399401 11.20637407 5.98182615 11.578125 9.12109375 C13.04782561 20.77197303 15.28699344 31.85280356 18.49707031 43.14453125 C19.1112738 45.41052469 19.58736658 47.68925283 20 50 C21.258125 50.37125 22.51625 50.7425 23.8125 51.125 C41.07543435 56.95124034 57.74711939 70.00709419 68 85 C68.69867188 85.95648438 69.39734375 86.91296875 70.1171875 87.8984375 C85.6796795 109.5392092 85.6796795 109.5392092 85 122 C83 124 83 124 79.5625 124.375 C76 124 76 124 74.421875 122.390625 C72.689908 119.47863652 71.72772173 116.59932991 70.6875 113.375 C68.47431679 106.98062337 65.724299 101.61978621 62 96 C61.52691406 95.21882813 61.05382812 94.43765625 60.56640625 93.6328125 C57.09037191 88.03724503 53.0908958 84.12883675 48 80 C47.46890625 79.51015625 46.9378125 79.0203125 46.390625 78.515625 C40.88345754 73.44466883 34.41044337 69.7980672 28 66 C31.31731881 72.50097275 34.81659092 78.40287419 39.484375 84.02734375 C41 86 41 86 42.0703125 88.17578125 C43.27156855 90.53286771 44.59382764 91.03753106 47 92 C46.82374165 94.37948772 46.30280227 95.70225849 44.59765625 97.37890625 C43.09350908 98.62115486 41.54870149 99.81376056 40 101 C34.55847716 99.60728849 32.31820876 96.09062253 29.1875 91.75 C28.66414063 91.03706787 28.14078125 90.32413574 27.6015625 89.58959961 C11 66.58654395 11 66.58654395 11 58 C3.42798634 55.8444022 -4.16386028 54.02033904 -11.875 52.4375 C-12.92059082 52.21989014 -13.96618164 52.00228027 -15.04345703 51.77807617 C-21.61045967 50.43030571 -28.14766358 49.26475015 -34.8046875 48.45703125 C-37 48 -37 48 -39 46 C-39.375 43.0625 -39.375 43.0625 -39 40 C-37.46875 38.2734375 -37.46875 38.2734375 -35 37 C-32.24032663 37.00303261 -29.8340742 37.17768496 -27.125 37.5625 C-26.35430176 37.65966309 -25.58360352 37.75682617 -24.78955078 37.85693359 C-14.79937594 39.18274732 -4.89136843 41.08635029 5 43 C4.66226563 41.78828125 4.32453125 40.5765625 3.9765625 39.328125 C1.52915505 30.25015268 -0.47279219 21.30155109 -1.4375 11.9375 C-1.53015137 11.08768555 -1.62280273 10.23787109 -1.71826172 9.36230469 C-2.25530672 3.38296008 -2.25530672 3.38296008 0 0 Z " fill="#3E4347" transform="translate(89,50)"/>
<path d="M0 0 C18.89934952 5.57685724 36.86941331 18.72361444 48 35 C48.69867188 35.95648438 49.39734375 36.91296875 50.1171875 37.8984375 C65.6796795 59.5392092 65.6796795 59.5392092 65 72 C63 74 63 74 59.5625 74.375 C56 74 56 74 54.421875 72.390625 C52.689908 69.47863652 51.72772173 66.59932991 50.6875 63.375 C48.47431679 56.98062337 45.724299 51.61978621 42 46 C41.52691406 45.21882813 41.05382812 44.43765625 40.56640625 43.6328125 C37.09037191 38.03724503 33.0908958 34.12883675 28 30 C27.46890625 29.51015625 26.9378125 29.0203125 26.390625 28.515625 C21.69711618 24.19387925 16.36270547 21.05801358 10.890625 17.83203125 C6.26194186 14.89844694 4.53767651 12.45584101 2.3125 7.4375 C1.87550781 6.46683594 1.43851562 5.49617188 0.98828125 4.49609375 C0 2 0 2 0 0 Z " fill="#949899" transform="translate(109,100)"/>
<path d="M0 0 C0.77102051 0.10111084 1.54204102 0.20222168 2.33642578 0.30639648 C4.95898586 0.67338914 7.57237522 1.08340294 10.1875 1.5 C11.68627686 1.72453857 11.68627686 1.72453857 13.21533203 1.95361328 C16.34177918 2.44049102 19.45040444 2.99151845 22.5625 3.5625 C24.05100464 3.79453125 24.05100464 3.79453125 25.56958008 4.03125 C32.3540028 5.3896569 32.3540028 5.3896569 34.70019531 8.51513672 C36.49958098 12.40842634 37.40270637 16.29508503 38.1875 20.5 C37.53120605 20.3131665 36.87491211 20.12633301 36.19873047 19.93383789 C29.28281514 18.00150359 22.34544781 16.38112892 15.3125 14.9375 C14.26690918 14.71989014 13.22131836 14.50228027 12.14404297 14.27807617 C5.57704033 12.93030571 -0.96016358 11.76475015 -7.6171875 10.95703125 C-9.8125 10.5 -9.8125 10.5 -11.8125 8.5 C-12.1875 5.5625 -12.1875 5.5625 -11.8125 2.5 C-8.3790267 -1.35282882 -4.70223471 -0.65105486 0 0 Z " fill="#93979A" transform="translate(61.8125,87.5)"/>
</svg>
