<svg id="svg" version="1.1" xmlns="http://www.w3.org/2000/svg" xmlns:xlink="http://www.w3.org/1999/xlink" width="400" height="400" viewBox="0, 0, 400,400"><g id="svgg"><path id="path0" d="M69.500 37.874 C 69.115 37.975,68.800 38.213,68.800 38.402 C 68.800 38.591,68.452 38.856,68.027 38.991 C 67.602 39.126,66.792 40.025,66.227 40.990 L 65.200 42.742 65.200 200.000 L 65.200 357.258 66.238 359.029 C 66.809 360.003,67.426 360.800,67.609 360.800 C 67.793 360.800,68.258 361.115,68.643 361.500 C 69.732 362.589,330.268 362.589,331.357 361.500 C 331.742 361.115,332.207 360.800,332.391 360.800 C 332.574 360.800,333.191 360.003,333.762 359.029 L 334.800 357.258 334.798 232.329 C 334.796 131.808,334.695 107.205,334.285 106.400 C 334.004 105.850,333.526 104.635,333.223 103.700 C 332.920 102.765,332.557 102.000,332.416 102.000 C 332.276 102.000,331.933 101.370,331.654 100.600 C 331.376 99.830,330.980 99.200,330.774 99.200 C 330.568 99.200,330.400 98.940,330.400 98.623 C 330.400 98.305,330.069 97.810,329.663 97.523 C 329.258 97.235,328.721 96.611,328.469 96.136 C 327.822 94.916,276.166 43.343,274.758 42.512 C 274.121 42.135,273.600 41.700,273.600 41.545 C 273.600 41.389,272.925 41.045,272.100 40.780 C 271.275 40.516,270.325 40.060,269.990 39.768 C 269.654 39.477,268.574 39.112,267.590 38.958 C 266.605 38.804,265.672 38.481,265.515 38.239 C 265.232 37.804,71.132 37.442,69.500 37.874 M254.600 49.141 C 257.166 49.997,260.601 53.780,261.153 56.357 C 261.455 57.761,261.600 66.381,261.600 82.820 L 261.600 107.200 284.500 107.203 C 315.800 107.207,318.419 107.709,321.764 114.336 C 323.714 118.200,323.648 113.657,323.520 236.000 L 323.400 351.400 200.000 351.400 L 76.600 351.400 76.498 200.400 C 76.441 117.350,76.481 49.173,76.587 48.896 C 76.878 48.129,252.295 48.371,254.600 49.141 " stroke="none" fill="#6fbff0" fill-rule="evenodd"></path><path id="path1" d="M120.532 48.700 C 144.695 48.757,184.115 48.757,208.132 48.700 C 232.149 48.643,212.380 48.596,164.200 48.596 C 116.020 48.596,96.369 48.643,120.532 48.700 M273.300 107.500 C 279.845 107.561,290.555 107.561,297.100 107.500 C 303.645 107.438,298.290 107.388,285.200 107.388 C 272.110 107.388,266.755 107.438,273.300 107.500 M125.277 127.100 C 125.047 127.705,124.742 129.066,124.601 130.124 C 124.434 131.373,124.178 131.979,123.872 131.853 C 118.856 129.777,116.749 129.682,116.475 131.520 C 116.239 133.100,117.113 133.926,120.008 134.858 C 123.169 135.876,123.330 136.357,120.771 137.145 C 117.656 138.103,117.010 138.541,116.866 139.793 C 116.602 142.089,118.727 142.613,121.762 141.000 C 124.278 139.662,124.221 139.631,124.718 142.631 C 125.641 148.201,128.276 148.051,128.772 142.400 C 129.037 139.374,129.428 139.248,132.937 141.051 C 135.397 142.315,136.555 142.195,136.731 140.658 C 136.904 139.139,135.690 137.892,132.958 136.783 C 130.327 135.715,130.326 135.691,132.836 134.200 C 137.906 131.190,136.405 128.083,131.000 130.400 C 127.905 131.727,127.600 131.587,127.600 128.843 C 127.600 127.062,127.445 126.426,126.967 126.243 C 125.926 125.843,125.716 125.949,125.277 127.100 M150.081 126.503 C 149.836 126.798,149.513 127.841,149.363 128.820 C 148.874 132.011,148.849 132.024,145.421 130.841 C 142.130 129.705,141.120 129.869,140.867 131.580 C 140.668 132.925,142.128 134.191,144.814 135.004 C 146.126 135.402,147.200 135.874,147.200 136.053 C 147.200 136.548,144.963 137.600,143.909 137.600 C 141.684 137.600,140.395 139.938,141.829 141.371 C 142.719 142.262,143.993 142.153,146.162 141.000 C 148.694 139.654,148.654 139.631,149.187 142.693 C 150.098 147.927,153.200 147.866,153.200 142.614 C 153.200 139.426,154.256 139.104,157.739 141.228 C 159.467 142.282,160.718 142.219,161.250 141.051 C 161.928 139.562,161.099 138.560,157.989 137.111 C 154.739 135.597,154.752 135.621,156.681 134.591 C 162.171 131.660,161.074 127.607,155.553 130.424 C 152.902 131.776,152.236 131.435,152.000 128.604 C 151.793 126.127,151.059 125.323,150.081 126.503 M174.465 126.700 C 174.266 127.085,173.972 128.300,173.812 129.400 C 173.415 132.138,173.489 132.102,170.535 130.990 C 166.915 129.628,165.985 129.711,165.445 131.444 C 165.028 132.779,166.319 133.928,169.394 134.960 L 172.189 135.897 170.794 136.747 C 170.027 137.215,168.983 137.598,168.474 137.599 C 166.833 137.601,166.000 138.320,166.000 139.734 C 166.000 142.255,167.674 142.663,170.874 140.921 C 173.184 139.664,173.393 139.810,173.817 142.981 C 174.506 148.148,178.000 147.213,178.000 141.862 L 178.000 139.684 179.351 139.989 C 180.094 140.156,181.427 140.701,182.314 141.200 C 184.471 142.412,186.000 142.086,186.000 140.413 C 186.000 139.082,184.476 137.733,181.817 136.711 C 179.614 135.864,179.670 135.604,182.424 133.883 C 186.786 131.156,184.659 128.023,180.044 130.378 C 177.256 131.800,176.800 131.584,176.800 128.843 C 176.800 126.112,175.425 124.850,174.465 126.700 M199.014 126.377 C 198.886 126.584,198.588 127.799,198.352 129.077 C 197.780 132.176,197.957 132.083,194.816 130.924 C 191.715 129.779,190.227 129.888,189.861 131.287 C 189.461 132.817,190.573 133.881,193.585 134.851 C 196.653 135.839,196.759 136.831,193.859 137.402 C 191.087 137.948,190.400 138.418,190.400 139.769 C 190.400 142.216,192.204 142.674,195.169 140.979 C 197.444 139.679,197.857 139.882,198.197 142.472 C 198.931 148.065,201.818 148.016,202.353 142.400 C 202.640 139.381,202.988 139.271,206.543 141.072 C 209.004 142.320,210.400 142.099,210.400 140.462 C 210.400 139.043,209.176 137.884,206.618 136.883 C 204.013 135.864,204.006 135.623,206.538 134.108 C 211.490 131.146,209.546 127.775,204.400 130.400 C 201.659 131.798,201.200 131.575,201.200 128.843 C 201.200 126.355,199.920 124.911,199.014 126.377 M223.686 126.500 C 223.460 126.775,223.145 127.900,222.987 129.000 C 222.560 131.963,222.437 132.020,219.007 130.836 C 215.731 129.705,214.720 129.871,214.467 131.580 C 214.268 132.925,215.728 134.191,218.414 135.004 C 219.726 135.402,220.800 135.874,220.800 136.053 C 220.800 136.548,218.563 137.600,217.509 137.600 C 215.251 137.600,213.998 139.941,215.470 141.412 C 216.354 142.297,218.409 141.965,220.462 140.606 L 222.012 139.580 222.356 140.490 C 222.546 140.991,222.832 142.357,222.992 143.527 C 223.694 148.665,227.200 146.605,227.200 141.055 L 227.200 139.664 228.700 140.071 C 229.525 140.295,230.782 140.833,231.494 141.268 C 233.818 142.687,235.855 141.556,234.870 139.394 C 234.527 138.640,233.565 137.963,231.592 137.086 C 228.214 135.585,228.223 135.746,231.408 133.884 C 236.015 131.190,233.972 127.965,229.200 130.400 C 226.613 131.720,226.000 131.523,226.000 129.374 C 226.000 126.555,224.833 125.106,223.686 126.500 M248.094 126.500 C 247.871 126.775,247.568 127.909,247.418 129.019 C 247.004 132.100,246.932 132.140,243.866 130.923 C 240.678 129.658,239.084 129.894,238.878 131.661 C 238.720 133.014,240.191 134.201,243.063 135.036 C 244.238 135.377,245.200 135.819,245.200 136.018 C 245.200 136.561,242.981 137.600,241.820 137.600 C 239.781 137.600,238.698 139.505,239.823 141.111 C 240.639 142.276,241.728 142.233,244.295 140.934 C 246.798 139.668,246.636 139.559,247.352 142.977 C 247.923 145.700,248.389 146.382,249.686 146.394 C 250.665 146.403,251.196 145.170,251.468 142.252 L 251.706 139.708 253.004 140.001 C 253.718 140.162,255.017 140.696,255.892 141.187 C 257.641 142.170,258.692 142.153,259.335 141.131 C 260.160 139.822,259.016 138.451,255.927 137.046 L 253.060 135.742 255.730 134.015 C 260.293 131.065,258.445 127.928,253.600 130.400 C 250.921 131.766,250.400 131.551,250.400 129.080 C 250.400 126.403,249.230 125.094,248.094 126.500 M272.662 126.300 C 272.560 126.465,272.284 127.645,272.048 128.923 C 271.459 132.109,271.526 132.072,268.416 130.924 C 265.112 129.704,263.600 129.864,263.600 131.434 C 263.600 133.254,264.306 133.923,267.208 134.858 C 270.369 135.876,270.530 136.357,267.971 137.145 C 264.897 138.091,264.209 138.548,264.071 139.737 C 263.791 142.156,265.600 142.622,268.862 140.969 C 271.248 139.760,271.400 139.857,271.964 142.955 C 272.926 148.234,275.431 147.886,275.953 142.400 C 276.240 139.383,276.589 139.272,280.128 141.065 C 282.381 142.207,283.581 142.159,284.040 140.911 C 284.513 139.623,282.845 137.822,280.299 136.872 C 277.634 135.878,277.611 135.641,280.037 134.200 C 285.121 131.180,283.442 127.965,278.056 130.409 C 275.131 131.736,274.800 131.577,274.800 128.843 C 274.800 126.427,273.522 124.907,272.662 126.300 M124.619 164.900 C 124.533 165.175,124.247 166.359,123.984 167.531 C 123.455 169.886,123.151 169.966,120.133 168.539 C 117.094 167.102,114.971 169.032,117.170 171.232 C 117.813 171.874,118.600 172.400,118.920 172.400 C 119.240 172.400,120.182 172.684,121.013 173.031 L 122.524 173.663 121.362 174.429 C 120.723 174.850,119.783 175.196,119.274 175.197 C 117.603 175.202,116.800 175.917,116.800 177.400 C 116.800 179.645,117.971 179.955,120.846 178.472 C 123.525 177.090,123.364 176.997,124.016 180.315 C 124.972 185.184,127.329 184.705,127.870 179.533 C 128.159 176.766,128.433 176.681,131.545 178.397 C 134.168 179.843,135.324 179.544,135.123 177.473 C 135.014 176.349,134.697 176.046,132.400 174.883 C 129.150 173.237,129.157 173.301,132.020 171.513 C 134.407 170.021,134.925 169.085,133.920 168.080 C 133.193 167.353,131.157 167.507,129.690 168.401 C 127.500 169.737,126.800 169.503,126.800 167.433 C 126.800 164.783,125.226 162.956,124.619 164.900 M147.240 165.300 C 147.053 165.795,146.770 166.975,146.611 167.923 C 146.293 169.820,145.454 169.949,142.673 168.528 C 141.267 167.809,139.619 167.979,139.040 168.903 C 138.268 170.137,139.497 171.625,141.984 172.468 C 145.238 173.571,144.938 175.200,141.482 175.200 C 139.294 175.200,138.504 178.185,140.421 179.211 C 141.077 179.562,141.696 179.415,143.637 178.444 C 145.251 177.638,146.086 177.400,146.178 177.722 C 146.253 177.985,146.527 179.236,146.786 180.501 C 147.685 184.884,150.400 184.315,150.400 179.743 C 150.400 176.949,150.922 176.748,154.097 178.322 C 156.807 179.665,158.000 179.523,158.000 177.856 C 158.000 176.682,156.690 175.460,154.295 174.401 C 151.934 173.356,151.940 173.293,154.578 171.668 C 158.921 168.991,156.972 166.067,152.400 168.400 C 149.709 169.773,149.200 169.418,149.200 166.167 C 149.200 164.150,147.893 163.571,147.240 165.300 M169.857 164.995 C 169.732 165.322,169.509 166.492,169.363 167.595 C 169.057 169.898,168.745 170.011,166.056 168.791 C 163.243 167.515,161.600 167.893,161.600 169.818 C 161.600 171.012,162.716 171.899,165.116 172.612 C 166.243 172.947,167.269 173.388,167.396 173.593 C 167.695 174.077,165.519 175.200,164.282 175.200 C 162.159 175.200,161.249 177.890,162.987 179.028 C 163.926 179.643,164.084 179.615,166.262 178.435 C 168.879 177.017,168.993 177.085,169.392 180.272 C 169.972 184.913,172.825 184.556,173.127 179.805 C 173.324 176.723,173.505 176.655,176.918 178.386 C 179.455 179.672,180.280 179.618,180.651 178.140 C 180.985 176.810,179.940 175.727,177.043 174.400 L 174.685 173.320 177.115 171.820 C 179.795 170.166,180.051 169.819,179.560 168.500 C 179.121 167.318,177.288 167.300,174.976 168.455 C 172.555 169.664,172.000 169.320,172.000 166.613 C 172.000 164.361,170.527 163.249,169.857 164.995 M192.678 164.677 C 192.569 164.855,192.351 166.035,192.194 167.300 C 191.867 169.931,191.693 170.007,188.817 168.769 C 186.096 167.599,184.636 167.829,184.478 169.454 C 184.352 170.750,185.802 172.400,187.067 172.400 C 187.374 172.400,188.289 172.677,189.099 173.016 L 190.572 173.631 189.386 174.413 C 188.734 174.843,187.783 175.196,187.274 175.197 C 184.780 175.204,183.801 177.727,185.787 179.028 C 186.725 179.643,186.883 179.615,188.992 178.473 C 191.537 177.095,191.694 177.192,192.166 180.454 C 192.874 185.332,195.852 184.269,195.960 179.100 C 195.989 177.715,196.159 177.200,196.586 177.200 C 197.324 177.200,199.983 178.390,200.867 179.116 C 201.867 179.938,203.200 179.091,203.200 177.635 C 203.200 176.281,202.721 175.839,199.723 174.429 L 197.450 173.360 199.822 171.780 C 204.099 168.931,202.383 166.063,197.800 168.400 C 195.214 169.719,194.858 169.545,194.720 166.900 C 194.605 164.695,193.442 163.429,192.678 164.677 M215.490 164.677 C 215.388 164.855,215.182 165.720,215.031 166.600 C 214.451 169.987,214.223 170.095,210.933 168.539 C 208.894 167.575,207.425 167.942,207.278 169.454 C 207.155 170.722,208.594 172.400,209.805 172.400 C 210.079 172.400,210.982 172.684,211.813 173.031 L 213.324 173.663 212.162 174.429 C 211.523 174.850,210.583 175.196,210.074 175.197 C 208.439 175.202,207.600 175.922,207.600 177.318 C 207.600 179.574,208.838 179.920,211.673 178.458 L 214.035 177.240 214.383 178.157 C 214.575 178.661,214.858 179.917,215.013 180.948 C 215.661 185.271,218.172 184.300,218.670 179.533 C 218.959 176.766,219.233 176.681,222.345 178.397 C 224.968 179.843,226.124 179.544,225.923 177.473 C 225.814 176.349,225.497 176.046,223.200 174.883 C 219.950 173.237,219.957 173.301,222.820 171.513 C 225.207 170.021,225.725 169.085,224.720 168.080 C 223.993 167.353,221.957 167.507,220.490 168.401 C 218.188 169.805,217.657 169.537,217.520 166.900 C 217.405 164.705,216.219 163.406,215.490 164.677 M238.040 165.300 C 237.853 165.795,237.570 166.975,237.411 167.923 C 237.093 169.820,236.254 169.949,233.473 168.528 C 232.071 167.811,230.419 167.979,229.845 168.896 C 229.246 169.852,230.375 171.663,231.868 172.141 C 232.491 172.341,233.630 172.760,234.400 173.074 L 235.800 173.644 234.800 174.413 C 234.250 174.836,233.219 175.186,232.509 175.191 C 230.161 175.207,229.237 178.150,231.244 179.223 C 231.871 179.559,232.528 179.398,234.437 178.444 C 236.051 177.638,236.886 177.400,236.978 177.722 C 237.053 177.985,237.327 179.236,237.586 180.501 C 238.480 184.863,241.200 184.430,241.200 179.925 C 241.200 176.931,241.674 176.725,244.897 178.322 C 247.607 179.665,248.800 179.523,248.800 177.856 C 248.800 176.682,247.490 175.460,245.095 174.401 C 242.745 173.361,242.750 173.275,245.245 171.800 C 248.405 169.931,248.807 167.600,245.970 167.600 C 245.309 167.600,244.062 167.960,243.200 168.400 C 240.509 169.773,240.000 169.418,240.000 166.167 C 240.000 164.150,238.693 163.571,238.040 165.300 M260.650 165.100 C 260.537 165.485,260.325 166.655,260.177 167.700 C 259.868 169.888,259.524 170.002,256.856 168.791 C 254.043 167.515,252.400 167.893,252.400 169.818 C 252.400 171.012,253.516 171.899,255.916 172.612 C 257.043 172.947,258.069 173.388,258.196 173.593 C 258.495 174.077,256.319 175.200,255.082 175.200 C 252.959 175.200,252.049 177.890,253.787 179.028 C 254.726 179.643,254.884 179.615,257.062 178.435 C 259.679 177.017,259.793 177.085,260.192 180.272 C 260.772 184.913,263.625 184.556,263.927 179.805 C 264.124 176.723,264.305 176.655,267.718 178.386 C 270.255 179.672,271.080 179.618,271.451 178.140 C 271.785 176.810,270.740 175.727,267.843 174.400 L 265.485 173.320 267.915 171.820 C 272.592 168.933,270.718 165.987,265.776 168.455 C 263.355 169.664,262.800 169.320,262.800 166.613 C 262.800 164.309,261.207 163.189,260.650 165.100 M124.885 207.308 C 124.666 207.579,124.274 208.835,124.015 210.100 C 123.482 212.698,123.462 212.707,120.817 211.569 C 118.461 210.556,116.808 210.669,116.365 211.874 C 115.866 213.236,117.242 214.639,119.809 215.385 C 121.014 215.736,122.000 216.193,122.000 216.401 C 122.000 216.941,119.814 218.000,118.700 218.000 C 117.465 218.000,116.800 218.710,116.800 220.031 C 116.800 222.194,119.441 222.584,121.756 220.763 C 123.112 219.697,123.366 219.915,123.977 222.682 C 125.083 227.689,127.331 227.487,127.870 222.333 C 128.157 219.591,128.427 219.494,131.512 221.031 C 134.028 222.285,134.954 222.190,135.130 220.661 C 135.301 219.169,134.428 218.266,131.768 217.187 C 129.098 216.103,129.095 216.135,132.013 214.294 C 136.275 211.605,133.944 208.816,129.448 211.225 C 127.322 212.365,126.800 212.050,126.800 209.627 C 126.800 207.484,125.762 206.227,124.885 207.308 M147.700 207.138 C 147.465 207.284,147.040 208.527,146.756 209.901 C 146.183 212.677,146.122 212.710,143.656 211.591 C 141.679 210.694,139.986 210.574,139.280 211.280 C 137.971 212.589,139.536 214.468,142.725 215.415 C 143.866 215.754,144.800 216.199,144.800 216.405 C 144.800 216.953,142.599 218.000,141.448 218.000 C 139.518 218.000,138.525 220.068,139.829 221.371 C 140.715 222.258,141.926 222.147,143.939 220.996 C 146.045 219.792,146.231 219.881,146.588 222.259 C 147.392 227.623,150.400 227.597,150.400 222.226 C 150.400 219.552,151.004 219.360,154.146 221.033 C 156.498 222.284,158.000 222.113,158.000 220.592 C 158.000 219.300,156.997 218.335,154.459 217.188 C 151.926 216.043,151.923 216.107,154.596 214.400 C 158.929 211.633,156.835 208.837,152.200 211.200 C 149.625 212.513,149.200 212.203,149.200 209.010 C 149.200 207.302,148.615 206.573,147.700 207.138 M170.088 207.300 C 169.862 207.575,169.549 208.835,169.392 210.100 C 169.071 212.699,169.058 212.705,166.422 211.571 C 163.624 210.368,161.836 210.625,161.678 212.254 C 161.537 213.700,162.915 214.785,165.900 215.579 C 168.425 216.250,167.769 216.954,163.400 218.257 C 162.493 218.527,162.168 218.888,162.071 219.732 C 161.792 222.148,163.783 222.672,166.713 220.955 C 168.752 219.760,168.968 219.900,169.346 222.662 C 170.046 227.764,173.200 227.201,173.200 221.974 C 173.200 219.581,173.686 219.463,176.945 221.061 C 179.151 222.143,180.226 222.120,180.662 220.982 C 181.107 219.823,179.943 218.484,177.563 217.416 C 174.539 216.059,174.511 215.965,176.745 214.709 C 181.758 211.891,180.095 208.734,174.918 211.240 C 172.503 212.409,172.000 212.101,172.000 209.455 C 172.000 207.846,171.837 207.223,171.367 207.043 C 170.540 206.725,170.563 206.721,170.088 207.300 M192.891 207.300 C 192.667 207.575,192.324 208.790,192.129 210.000 C 191.740 212.417,190.711 212.798,188.479 211.351 C 186.897 210.326,184.626 210.770,184.470 212.135 C 184.293 213.682,185.275 214.643,187.655 215.253 C 191.139 216.146,190.777 216.892,186.200 218.257 C 185.293 218.527,184.968 218.888,184.871 219.732 C 184.593 222.137,186.327 222.614,189.403 220.978 C 191.622 219.798,191.779 219.909,192.181 222.941 C 192.837 227.888,196.000 226.893,196.000 221.740 C 196.000 219.633,196.339 219.569,199.636 221.048 C 202.157 222.180,202.967 222.133,203.306 220.839 C 203.630 219.598,202.296 218.199,199.802 217.165 C 197.128 216.057,197.130 216.088,199.640 214.600 C 204.374 211.794,202.464 208.719,197.545 211.228 C 195.334 212.356,194.800 212.057,194.800 209.693 C 194.800 207.272,193.867 206.102,192.891 207.300 M215.708 207.308 C 215.501 207.579,215.110 208.835,214.837 210.100 C 214.278 212.698,214.261 212.706,211.617 211.569 C 208.984 210.437,207.441 210.638,207.270 212.135 C 207.092 213.694,208.083 214.651,210.649 215.397 C 211.832 215.741,212.800 216.193,212.800 216.401 C 212.800 216.941,210.614 218.000,209.500 218.000 C 208.273 218.000,207.600 218.709,207.600 220.000 C 207.600 222.200,209.228 222.560,212.152 221.005 L 214.024 220.010 214.356 220.905 C 214.539 221.397,214.819 222.520,214.980 223.400 C 215.772 227.743,218.177 227.047,218.670 222.333 C 218.957 219.591,219.227 219.494,222.312 221.031 C 224.828 222.285,225.754 222.190,225.930 220.661 C 226.101 219.173,225.213 218.248,222.556 217.146 C 219.909 216.049,219.902 216.131,222.813 214.294 C 227.075 211.605,224.744 208.816,220.248 211.225 C 218.122 212.365,217.600 212.050,217.600 209.627 C 217.600 207.497,216.549 206.209,215.708 207.308 M238.500 207.138 C 238.265 207.284,237.840 208.527,237.556 209.901 C 236.983 212.677,236.922 212.710,234.456 211.591 C 232.479 210.694,230.786 210.574,230.080 211.280 C 228.771 212.589,230.336 214.468,233.525 215.415 C 234.666 215.754,235.600 216.199,235.600 216.405 C 235.600 216.953,233.399 218.000,232.248 218.000 C 230.821 218.000,229.883 219.080,230.203 220.353 C 230.689 222.292,232.118 222.495,234.739 220.996 C 236.844 219.793,237.031 219.881,237.386 222.247 C 238.179 227.535,241.200 227.518,241.200 222.226 C 241.200 219.552,241.804 219.360,244.946 221.033 C 247.298 222.284,248.800 222.113,248.800 220.592 C 248.800 219.300,247.797 218.335,245.259 217.188 C 242.726 216.043,242.723 216.107,245.396 214.400 C 249.729 211.633,247.635 208.837,243.000 211.200 C 240.425 212.513,240.000 212.203,240.000 209.010 C 240.000 207.302,239.415 206.573,238.500 207.138 M124.885 247.308 C 124.666 247.579,124.274 248.835,124.015 250.100 C 123.482 252.698,123.462 252.707,120.817 251.569 C 118.461 250.556,116.808 250.669,116.365 251.874 C 115.866 253.236,117.242 254.639,119.809 255.385 C 121.014 255.736,122.000 256.193,122.000 256.401 C 122.000 256.941,119.814 258.000,118.700 258.000 C 117.465 258.000,116.800 258.710,116.800 260.031 C 116.800 262.194,119.441 262.584,121.756 260.763 C 123.112 259.697,123.366 259.915,123.977 262.682 C 125.083 267.689,127.331 267.487,127.870 262.333 C 128.157 259.591,128.427 259.494,131.512 261.031 C 134.028 262.285,134.954 262.190,135.130 260.661 C 135.301 259.169,134.428 258.266,131.768 257.187 C 129.098 256.103,129.095 256.135,132.013 254.294 C 136.275 251.605,133.944 248.816,129.448 251.225 C 127.322 252.365,126.800 252.050,126.800 249.627 C 126.800 247.484,125.762 246.227,124.885 247.308 M147.700 247.138 C 147.465 247.284,147.040 248.527,146.756 249.901 C 146.183 252.677,146.122 252.710,143.656 251.591 C 141.679 250.694,139.986 250.574,139.280 251.280 C 137.971 252.589,139.536 254.468,142.725 255.415 C 143.866 255.754,144.800 256.199,144.800 256.405 C 144.800 256.953,142.599 258.000,141.448 258.000 C 139.518 258.000,138.525 260.068,139.829 261.371 C 140.715 262.258,141.926 262.147,143.939 260.996 C 146.045 259.792,146.231 259.881,146.588 262.259 C 147.392 267.623,150.400 267.597,150.400 262.226 C 150.400 259.552,151.004 259.360,154.146 261.033 C 156.498 262.284,158.000 262.113,158.000 260.592 C 158.000 259.300,156.997 258.335,154.459 257.188 C 151.926 256.043,151.923 256.107,154.596 254.400 C 158.929 251.633,156.835 248.837,152.200 251.200 C 149.625 252.513,149.200 252.203,149.200 249.010 C 149.200 247.302,148.615 246.573,147.700 247.138 M170.088 247.300 C 169.862 247.575,169.549 248.835,169.392 250.100 C 169.071 252.699,169.058 252.705,166.422 251.571 C 163.624 250.368,161.836 250.625,161.678 252.254 C 161.537 253.700,162.915 254.785,165.900 255.579 C 168.425 256.250,167.769 256.954,163.400 258.257 C 162.493 258.527,162.168 258.888,162.071 259.732 C 161.792 262.148,163.783 262.672,166.713 260.955 C 168.752 259.760,168.968 259.900,169.346 262.662 C 170.046 267.764,173.200 267.201,173.200 261.974 C 173.200 259.581,173.686 259.463,176.945 261.061 C 179.151 262.143,180.226 262.120,180.662 260.982 C 181.107 259.823,179.943 258.484,177.563 257.416 C 174.539 256.059,174.511 255.965,176.745 254.709 C 181.758 251.891,180.095 248.734,174.918 251.240 C 172.503 252.409,172.000 252.101,172.000 249.455 C 172.000 247.846,171.837 247.223,171.367 247.043 C 170.540 246.725,170.563 246.721,170.088 247.300 M138.300 351.500 C 172.235 351.556,227.765 351.556,261.700 351.500 C 295.635 351.444,267.870 351.397,200.000 351.397 C 132.130 351.397,104.365 351.444,138.300 351.500 " stroke="none" fill="#b0bec5" fill-rule="evenodd"></path><path id="path2" d="M76.400 199.997 L 76.400 351.200 200.000 351.200 L 323.600 351.200 323.600 236.273 C 323.600 155.073,323.472 120.655,323.164 118.990 C 322.290 114.261,319.851 110.965,315.730 108.943 L 313.400 107.800 287.517 107.689 L 261.633 107.578 261.517 82.089 C 261.386 53.466,261.521 54.754,258.331 51.745 C 255.121 48.717,264.753 49.012,165.300 48.897 L 76.400 48.793 76.400 199.997 M126.967 126.243 C 127.445 126.426,127.600 127.062,127.600 128.843 C 127.600 131.587,127.905 131.727,131.000 130.400 C 136.405 128.083,137.906 131.190,132.836 134.200 C 130.326 135.691,130.327 135.715,132.958 136.783 C 135.690 137.892,136.904 139.139,136.731 140.658 C 136.555 142.195,135.397 142.315,132.937 141.051 C 129.428 139.248,129.037 139.374,128.772 142.400 C 128.276 148.051,125.641 148.201,124.718 142.631 C 124.221 139.631,124.278 139.662,121.762 141.000 C 118.727 142.613,116.602 142.089,116.866 139.793 C 117.010 138.541,117.656 138.103,120.771 137.145 C 123.330 136.357,123.169 135.876,120.008 134.858 C 117.113 133.926,116.239 133.100,116.475 131.520 C 116.749 129.682,118.856 129.777,123.872 131.853 C 124.178 131.979,124.434 131.373,124.601 130.124 C 125.071 126.604,125.609 125.722,126.967 126.243 M152.000 128.604 C 152.236 131.435,152.902 131.776,155.553 130.424 C 161.074 127.607,162.171 131.660,156.681 134.591 C 154.752 135.621,154.739 135.597,157.989 137.111 C 161.099 138.560,161.928 139.562,161.250 141.051 C 160.718 142.219,159.467 142.282,157.739 141.228 C 154.256 139.104,153.200 139.426,153.200 142.614 C 153.200 147.866,150.098 147.927,149.187 142.693 C 148.654 139.631,148.694 139.654,146.162 141.000 C 143.993 142.153,142.719 142.262,141.829 141.371 C 140.395 139.938,141.684 137.600,143.909 137.600 C 144.963 137.600,147.200 136.548,147.200 136.053 C 147.200 135.874,146.126 135.402,144.814 135.004 C 142.128 134.191,140.668 132.925,140.867 131.580 C 141.120 129.869,142.130 129.705,145.421 130.841 C 148.849 132.024,148.874 132.011,149.363 128.820 C 149.935 125.083,151.694 124.938,152.000 128.604 M176.167 126.243 C 176.645 126.426,176.800 127.062,176.800 128.843 C 176.800 131.584,177.256 131.800,180.044 130.378 C 184.659 128.023,186.786 131.156,182.424 133.883 C 179.670 135.604,179.614 135.864,181.817 136.711 C 184.476 137.733,186.000 139.082,186.000 140.413 C 186.000 142.086,184.471 142.412,182.314 141.200 C 181.427 140.701,180.094 140.156,179.351 139.989 L 178.000 139.684 178.000 141.862 C 178.000 147.213,174.506 148.148,173.817 142.981 C 173.393 139.810,173.184 139.664,170.874 140.921 C 167.674 142.663,166.000 142.255,166.000 139.734 C 166.000 138.320,166.833 137.601,168.474 137.599 C 168.983 137.598,170.027 137.215,170.794 136.747 L 172.189 135.897 169.394 134.960 C 166.319 133.928,165.028 132.779,165.445 131.444 C 165.985 129.711,166.915 129.628,170.535 130.990 C 173.489 132.102,173.415 132.138,173.812 129.400 C 174.263 126.291,174.715 125.685,176.167 126.243 M200.567 126.243 C 201.045 126.426,201.200 127.062,201.200 128.843 C 201.200 131.575,201.659 131.798,204.400 130.400 C 209.546 127.775,211.490 131.146,206.538 134.108 C 204.006 135.623,204.013 135.864,206.618 136.883 C 209.176 137.884,210.400 139.043,210.400 140.462 C 210.400 142.099,209.004 142.320,206.543 141.072 C 202.988 139.271,202.640 139.381,202.353 142.400 C 201.818 148.016,198.931 148.065,198.197 142.472 C 197.857 139.882,197.444 139.679,195.169 140.979 C 192.204 142.674,190.400 142.216,190.400 139.769 C 190.400 138.418,191.087 137.948,193.859 137.402 C 196.759 136.831,196.653 135.839,193.585 134.851 C 190.573 133.881,189.461 132.817,189.861 131.287 C 190.227 129.888,191.715 129.779,194.816 130.924 C 197.957 132.083,197.780 132.176,198.352 129.077 C 198.937 125.909,199.113 125.685,200.567 126.243 M225.586 126.774 C 225.814 127.199,226.000 128.369,226.000 129.374 C 226.000 131.523,226.613 131.720,229.200 130.400 C 233.972 127.965,236.015 131.190,231.408 133.884 C 228.223 135.746,228.214 135.585,231.592 137.086 C 233.565 137.963,234.527 138.640,234.870 139.394 C 235.855 141.556,233.818 142.687,231.494 141.268 C 230.782 140.833,229.525 140.295,228.700 140.071 L 227.200 139.664 227.200 141.055 C 227.200 146.605,223.694 148.665,222.992 143.527 C 222.832 142.357,222.546 140.991,222.356 140.490 L 222.012 139.580 220.462 140.606 C 218.409 141.965,216.354 142.297,215.470 141.412 C 213.998 139.941,215.251 137.600,217.509 137.600 C 218.563 137.600,220.800 136.548,220.800 136.053 C 220.800 135.874,219.726 135.402,218.414 135.004 C 215.728 134.191,214.268 132.925,214.467 131.580 C 214.720 129.871,215.731 129.705,219.007 130.836 C 222.437 132.020,222.560 131.963,222.987 129.000 C 223.406 126.087,224.649 125.023,225.586 126.774 M249.920 126.480 C 250.184 126.744,250.400 127.914,250.400 129.080 C 250.400 131.551,250.921 131.766,253.600 130.400 C 258.445 127.928,260.293 131.065,255.730 134.015 L 253.060 135.742 255.927 137.046 C 259.016 138.451,260.160 139.822,259.335 141.131 C 258.692 142.153,257.641 142.170,255.892 141.187 C 255.017 140.696,253.718 140.162,253.004 140.001 L 251.706 139.708 251.468 142.252 C 251.196 145.170,250.665 146.403,249.686 146.394 C 248.389 146.382,247.923 145.700,247.352 142.977 C 246.636 139.559,246.798 139.668,244.295 140.934 C 241.728 142.233,240.639 142.276,239.823 141.111 C 238.698 139.505,239.781 137.600,241.820 137.600 C 242.981 137.600,245.200 136.561,245.200 136.018 C 245.200 135.819,244.238 135.377,243.063 135.036 C 240.191 134.201,238.720 133.014,238.878 131.661 C 239.084 129.894,240.678 129.658,243.866 130.923 C 246.932 132.140,247.004 132.100,247.418 129.019 C 247.796 126.210,248.716 125.276,249.920 126.480 M274.167 126.243 C 274.645 126.426,274.800 127.062,274.800 128.843 C 274.800 131.577,275.131 131.736,278.056 130.409 C 283.442 127.965,285.121 131.180,280.037 134.200 C 277.611 135.641,277.634 135.878,280.299 136.872 C 282.845 137.822,284.513 139.623,284.040 140.911 C 283.581 142.159,282.381 142.207,280.128 141.065 C 276.589 139.272,276.240 139.383,275.953 142.400 C 275.431 147.886,272.926 148.234,271.964 142.955 C 271.400 139.857,271.248 139.760,268.862 140.969 C 265.600 142.622,263.791 142.156,264.071 139.737 C 264.209 138.548,264.897 138.091,267.971 137.145 C 270.530 136.357,270.369 135.876,267.208 134.858 C 264.306 133.923,263.600 133.254,263.600 131.434 C 263.600 129.864,265.112 129.704,268.416 130.924 C 271.526 132.072,271.459 132.109,272.048 128.923 C 272.622 125.818,272.724 125.689,274.167 126.243 M126.557 165.033 C 126.691 165.381,126.800 166.461,126.800 167.433 C 126.800 169.503,127.500 169.737,129.690 168.401 C 131.157 167.507,133.193 167.353,133.920 168.080 C 134.925 169.085,134.407 170.021,132.020 171.513 C 129.157 173.301,129.150 173.237,132.400 174.883 C 134.697 176.046,135.014 176.349,135.123 177.473 C 135.324 179.544,134.168 179.843,131.545 178.397 C 128.433 176.681,128.159 176.766,127.870 179.533 C 127.329 184.705,124.972 185.184,124.016 180.315 C 123.364 176.997,123.525 177.090,120.846 178.472 C 117.971 179.955,116.800 179.645,116.800 177.400 C 116.800 175.917,117.603 175.202,119.274 175.197 C 119.783 175.196,120.723 174.850,121.362 174.429 L 122.524 173.663 121.013 173.031 C 120.182 172.684,119.240 172.400,118.920 172.400 C 118.600 172.400,117.813 171.874,117.170 171.232 C 114.971 169.032,117.094 167.102,120.133 168.539 C 123.151 169.966,123.455 169.886,123.984 167.531 C 124.247 166.359,124.533 165.175,124.619 164.900 C 124.842 164.184,126.269 164.282,126.557 165.033 M149.200 166.167 C 149.200 169.418,149.709 169.773,152.400 168.400 C 156.972 166.067,158.921 168.991,154.578 171.668 C 151.940 173.293,151.934 173.356,154.295 174.401 C 156.690 175.460,158.000 176.682,158.000 177.856 C 158.000 179.523,156.807 179.665,154.097 178.322 C 150.922 176.748,150.400 176.949,150.400 179.743 C 150.400 184.315,147.685 184.884,146.786 180.501 C 146.527 179.236,146.253 177.985,146.178 177.722 C 146.086 177.400,145.251 177.638,143.637 178.444 C 141.696 179.415,141.077 179.562,140.421 179.211 C 138.504 178.185,139.294 175.200,141.482 175.200 C 144.938 175.200,145.238 173.571,141.984 172.468 C 139.497 171.625,138.268 170.137,139.040 168.903 C 139.619 167.979,141.267 167.809,142.673 168.528 C 145.454 169.949,146.293 169.820,146.611 167.923 C 147.277 163.955,149.200 162.651,149.200 166.167 M172.000 166.613 C 172.000 169.320,172.555 169.664,174.976 168.455 C 177.288 167.300,179.121 167.318,179.560 168.500 C 180.051 169.819,179.795 170.166,177.115 171.820 L 174.685 173.320 177.043 174.400 C 179.940 175.727,180.985 176.810,180.651 178.140 C 180.280 179.618,179.455 179.672,176.918 178.386 C 173.505 176.655,173.324 176.723,173.127 179.805 C 172.825 184.556,169.972 184.913,169.392 180.272 C 168.993 177.085,168.879 177.017,166.262 178.435 C 164.084 179.615,163.926 179.643,162.987 179.028 C 161.249 177.890,162.159 175.200,164.282 175.200 C 165.519 175.200,167.695 174.077,167.396 173.593 C 167.269 173.388,166.243 172.947,165.116 172.612 C 162.716 171.899,161.600 171.012,161.600 169.818 C 161.600 167.893,163.243 167.515,166.056 168.791 C 168.745 170.011,169.057 169.898,169.363 167.595 C 169.916 163.428,172.000 162.651,172.000 166.613 M194.720 166.900 C 194.858 169.545,195.214 169.719,197.800 168.400 C 202.383 166.063,204.099 168.931,199.822 171.780 L 197.450 173.360 199.723 174.429 C 202.721 175.839,203.200 176.281,203.200 177.635 C 203.200 179.091,201.867 179.938,200.867 179.116 C 199.983 178.390,197.324 177.200,196.586 177.200 C 196.159 177.200,195.989 177.715,195.960 179.100 C 195.852 184.269,192.874 185.332,192.166 180.454 C 191.694 177.192,191.537 177.095,188.992 178.473 C 186.883 179.615,186.725 179.643,185.787 179.028 C 183.801 177.727,184.780 175.204,187.274 175.197 C 187.783 175.196,188.734 174.843,189.386 174.413 L 190.572 173.631 189.099 173.016 C 188.289 172.677,187.374 172.400,187.067 172.400 C 185.802 172.400,184.352 170.750,184.478 169.454 C 184.636 167.829,186.096 167.599,188.817 168.769 C 191.693 170.007,191.867 169.931,192.194 167.300 C 192.697 163.252,194.515 162.964,194.720 166.900 M217.520 166.900 C 217.657 169.537,218.188 169.805,220.490 168.401 C 221.957 167.507,223.993 167.353,224.720 168.080 C 225.725 169.085,225.207 170.021,222.820 171.513 C 219.957 173.301,219.950 173.237,223.200 174.883 C 225.497 176.046,225.814 176.349,225.923 177.473 C 226.124 179.544,224.968 179.843,222.345 178.397 C 219.233 176.681,218.959 176.766,218.670 179.533 C 218.172 184.300,215.661 185.271,215.013 180.948 C 214.858 179.917,214.575 178.661,214.383 178.157 L 214.035 177.240 211.673 178.458 C 208.838 179.920,207.600 179.574,207.600 177.318 C 207.600 175.922,208.439 175.202,210.074 175.197 C 210.583 175.196,211.523 174.850,212.162 174.429 L 213.324 173.663 211.813 173.031 C 210.982 172.684,210.079 172.400,209.805 172.400 C 208.594 172.400,207.155 170.722,207.278 169.454 C 207.425 167.942,208.894 167.575,210.933 168.539 C 214.223 170.095,214.451 169.987,215.031 166.600 C 215.613 163.204,217.338 163.412,217.520 166.900 M240.000 166.167 C 240.000 169.418,240.509 169.773,243.200 168.400 C 247.855 166.025,249.732 169.146,245.245 171.800 C 242.750 173.275,242.745 173.361,245.095 174.401 C 247.490 175.460,248.800 176.682,248.800 177.856 C 248.800 179.523,247.607 179.665,244.897 178.322 C 241.674 176.725,241.200 176.931,241.200 179.925 C 241.200 184.430,238.480 184.863,237.586 180.501 C 237.327 179.236,237.053 177.985,236.978 177.722 C 236.886 177.400,236.051 177.638,234.437 178.444 C 232.528 179.398,231.871 179.559,231.244 179.223 C 229.237 178.150,230.161 175.207,232.509 175.191 C 233.219 175.186,234.250 174.836,234.800 174.413 L 235.800 173.644 234.400 173.074 C 233.630 172.760,232.491 172.341,231.868 172.141 C 230.375 171.663,229.246 169.852,229.845 168.896 C 230.419 167.979,232.071 167.811,233.473 168.528 C 236.254 169.949,237.093 169.820,237.411 167.923 C 238.077 163.955,240.000 162.651,240.000 166.167 M262.800 166.613 C 262.800 169.320,263.355 169.664,265.776 168.455 C 270.718 165.987,272.592 168.933,267.915 171.820 L 265.485 173.320 267.843 174.400 C 270.740 175.727,271.785 176.810,271.451 178.140 C 271.080 179.618,270.255 179.672,267.718 178.386 C 264.305 176.655,264.124 176.723,263.927 179.805 C 263.625 184.556,260.772 184.913,260.192 180.272 C 259.793 177.085,259.679 177.017,257.062 178.435 C 254.884 179.615,254.726 179.643,253.787 179.028 C 252.049 177.890,252.959 175.200,255.082 175.200 C 256.319 175.200,258.495 174.077,258.196 173.593 C 258.069 173.388,257.043 172.947,255.916 172.612 C 253.516 171.899,252.400 171.012,252.400 169.818 C 252.400 167.893,254.043 167.515,256.856 168.791 C 259.524 170.002,259.868 169.888,260.177 167.700 C 260.595 164.742,260.766 164.400,261.827 164.400 C 262.740 164.400,262.800 164.536,262.800 166.613 M126.800 209.627 C 126.800 212.050,127.322 212.365,129.448 211.225 C 133.944 208.816,136.275 211.605,132.013 214.294 C 129.095 216.135,129.098 216.103,131.768 217.187 C 134.428 218.266,135.301 219.169,135.130 220.661 C 134.954 222.190,134.028 222.285,131.512 221.031 C 128.427 219.494,128.157 219.591,127.870 222.333 C 127.331 227.487,125.083 227.689,123.977 222.682 C 123.366 219.915,123.112 219.697,121.756 220.763 C 119.441 222.584,116.800 222.194,116.800 220.031 C 116.800 218.710,117.465 218.000,118.700 218.000 C 119.814 218.000,122.000 216.941,122.000 216.401 C 122.000 216.193,121.014 215.736,119.809 215.385 C 117.242 214.639,115.866 213.236,116.365 211.874 C 116.808 210.669,118.461 210.556,120.817 211.569 C 123.462 212.707,123.482 212.698,124.015 210.100 C 124.847 206.042,126.800 205.710,126.800 209.627 M149.200 209.010 C 149.200 212.203,149.625 212.513,152.200 211.200 C 156.835 208.837,158.929 211.633,154.596 214.400 C 151.923 216.107,151.926 216.043,154.459 217.188 C 156.997 218.335,158.000 219.300,158.000 220.592 C 158.000 222.113,156.498 222.284,154.146 221.033 C 151.004 219.360,150.400 219.552,150.400 222.226 C 150.400 227.597,147.392 227.623,146.588 222.259 C 146.231 219.881,146.045 219.792,143.939 220.996 C 141.926 222.147,140.715 222.258,139.829 221.371 C 138.525 220.068,139.518 218.000,141.448 218.000 C 142.599 218.000,144.800 216.953,144.800 216.405 C 144.800 216.199,143.866 215.754,142.725 215.415 C 139.536 214.468,137.971 212.589,139.280 211.280 C 139.986 210.574,141.679 210.694,143.656 211.591 C 146.122 212.710,146.183 212.677,146.756 209.901 C 147.502 206.289,149.200 205.670,149.200 209.010 M171.367 207.043 C 171.837 207.223,172.000 207.846,172.000 209.455 C 172.000 212.101,172.503 212.409,174.918 211.240 C 180.095 208.734,181.758 211.891,176.745 214.709 C 174.511 215.965,174.539 216.059,177.563 217.416 C 179.943 218.484,181.107 219.823,180.662 220.982 C 180.226 222.120,179.151 222.143,176.945 221.061 C 173.686 219.463,173.200 219.581,173.200 221.974 C 173.200 227.201,170.046 227.764,169.346 222.662 C 168.968 219.900,168.752 219.760,166.713 220.955 C 163.783 222.672,161.792 222.148,162.071 219.732 C 162.168 218.888,162.493 218.527,163.400 218.257 C 167.769 216.954,168.425 216.250,165.900 215.579 C 162.915 214.785,161.537 213.700,161.678 212.254 C 161.836 210.625,163.624 210.368,166.422 211.571 C 169.058 212.705,169.071 212.699,169.392 210.100 C 169.549 208.835,169.862 207.575,170.088 207.300 C 170.563 206.721,170.540 206.725,171.367 207.043 M194.320 207.280 C 194.584 207.544,194.800 208.630,194.800 209.693 C 194.800 212.057,195.334 212.356,197.545 211.228 C 202.464 208.719,204.374 211.794,199.640 214.600 C 197.130 216.088,197.128 216.057,199.802 217.165 C 202.296 218.199,203.630 219.598,203.306 220.839 C 202.967 222.133,202.157 222.180,199.636 221.048 C 196.339 219.569,196.000 219.633,196.000 221.740 C 196.000 226.893,192.837 227.888,192.181 222.941 C 191.779 219.909,191.622 219.798,189.403 220.978 C 186.327 222.614,184.593 222.137,184.871 219.732 C 184.968 218.888,185.293 218.527,186.200 218.257 C 190.777 216.892,191.139 216.146,187.655 215.253 C 185.275 214.643,184.293 213.682,184.470 212.135 C 184.626 210.770,186.897 210.326,188.479 211.351 C 190.711 212.798,191.740 212.417,192.129 210.000 C 192.602 207.063,193.272 206.232,194.320 207.280 M217.600 209.627 C 217.600 212.050,218.122 212.365,220.248 211.225 C 224.744 208.816,227.075 211.605,222.813 214.294 C 219.902 216.131,219.909 216.049,222.556 217.146 C 225.213 218.248,226.101 219.173,225.930 220.661 C 225.754 222.190,224.828 222.285,222.312 221.031 C 219.227 219.494,218.957 219.591,218.670 222.333 C 218.177 227.047,215.772 227.743,214.980 223.400 C 214.819 222.520,214.539 221.397,214.356 220.905 L 214.024 220.010 212.152 221.005 C 209.228 222.560,207.600 222.200,207.600 220.000 C 207.600 218.709,208.273 218.000,209.500 218.000 C 210.614 218.000,212.800 216.941,212.800 216.401 C 212.800 216.193,211.832 215.741,210.649 215.397 C 208.083 214.651,207.092 213.694,207.270 212.135 C 207.441 210.638,208.984 210.437,211.617 211.569 C 214.261 212.706,214.278 212.698,214.837 210.100 C 215.712 206.035,217.600 205.711,217.600 209.627 M240.000 209.010 C 240.000 212.203,240.425 212.513,243.000 211.200 C 247.635 208.837,249.729 211.633,245.396 214.400 C 242.723 216.107,242.726 216.043,245.259 217.188 C 247.797 218.335,248.800 219.300,248.800 220.592 C 248.800 222.113,247.298 222.284,244.946 221.033 C 241.804 219.360,241.200 219.552,241.200 222.226 C 241.200 227.518,238.179 227.535,237.386 222.247 C 237.031 219.881,236.844 219.793,234.739 220.996 C 232.118 222.495,230.689 222.292,230.203 220.353 C 229.883 219.080,230.821 218.000,232.248 218.000 C 233.399 218.000,235.600 216.953,235.600 216.405 C 235.600 216.199,234.666 215.754,233.525 215.415 C 230.336 214.468,228.771 212.589,230.080 211.280 C 230.786 210.574,232.479 210.694,234.456 211.591 C 236.922 212.710,236.983 212.677,237.556 209.901 C 238.302 206.289,240.000 205.670,240.000 209.010 M126.800 249.627 C 126.800 252.050,127.322 252.365,129.448 251.225 C 133.944 248.816,136.275 251.605,132.013 254.294 C 129.095 256.135,129.098 256.103,131.768 257.187 C 134.428 258.266,135.301 259.169,135.130 260.661 C 134.954 262.190,134.028 262.285,131.512 261.031 C 128.427 259.494,128.157 259.591,127.870 262.333 C 127.331 267.487,125.083 267.689,123.977 262.682 C 123.366 259.915,123.112 259.697,121.756 260.763 C 119.441 262.584,116.800 262.194,116.800 260.031 C 116.800 258.710,117.465 258.000,118.700 258.000 C 119.814 258.000,122.000 256.941,122.000 256.401 C 122.000 256.193,121.014 255.736,119.809 255.385 C 117.242 254.639,115.866 253.236,116.365 251.874 C 116.808 250.669,118.461 250.556,120.817 251.569 C 123.462 252.707,123.482 252.698,124.015 250.100 C 124.847 246.042,126.800 245.710,126.800 249.627 M149.200 249.010 C 149.200 252.203,149.625 252.513,152.200 251.200 C 156.835 248.837,158.929 251.633,154.596 254.400 C 151.923 256.107,151.926 256.043,154.459 257.188 C 156.997 258.335,158.000 259.300,158.000 260.592 C 158.000 262.113,156.498 262.284,154.146 261.033 C 151.004 259.360,150.400 259.552,150.400 262.226 C 150.400 267.597,147.392 267.623,146.588 262.259 C 146.231 259.881,146.045 259.792,143.939 260.996 C 141.926 262.147,140.715 262.258,139.829 261.371 C 138.525 260.068,139.518 258.000,141.448 258.000 C 142.599 258.000,144.800 256.953,144.800 256.405 C 144.800 256.199,143.866 255.754,142.725 255.415 C 139.536 254.468,137.971 252.589,139.280 251.280 C 139.986 250.574,141.679 250.694,143.656 251.591 C 146.122 252.710,146.183 252.677,146.756 249.901 C 147.502 246.289,149.200 245.670,149.200 249.010 M171.367 247.043 C 171.837 247.223,172.000 247.846,172.000 249.455 C 172.000 252.101,172.503 252.409,174.918 251.240 C 180.095 248.734,181.758 251.891,176.745 254.709 C 174.511 255.965,174.539 256.059,177.563 257.416 C 179.943 258.484,181.107 259.823,180.662 260.982 C 180.226 262.120,179.151 262.143,176.945 261.061 C 173.686 259.463,173.200 259.581,173.200 261.974 C 173.200 267.201,170.046 267.764,169.346 262.662 C 168.968 259.900,168.752 259.760,166.713 260.955 C 163.783 262.672,161.792 262.148,162.071 259.732 C 162.168 258.888,162.493 258.527,163.400 258.257 C 167.769 256.954,168.425 256.250,165.900 255.579 C 162.915 254.785,161.537 253.700,161.678 252.254 C 161.836 250.625,163.624 250.368,166.422 251.571 C 169.058 252.705,169.071 252.699,169.392 250.100 C 169.549 248.835,169.862 247.575,170.088 247.300 C 170.563 246.721,170.540 246.725,171.367 247.043 " stroke="none" fill="#ffffff" fill-rule="evenodd"></path></g></svg>