<svg id="svg" version="1.1" xmlns="http://www.w3.org/2000/svg" xmlns:xlink="http://www.w3.org/1999/xlink" width="400" height="400" viewBox="0, 0, 400,400"><g id="svgg"><path id="path0" d="M69.500 37.874 C 69.115 37.975,68.800 38.213,68.800 38.402 C 68.800 38.591,68.452 38.856,68.027 38.991 C 67.602 39.126,66.792 40.025,66.227 40.990 L 65.200 42.742 65.200 200.000 L 65.200 357.258 66.238 359.029 C 66.809 360.003,67.426 360.800,67.609 360.800 C 67.793 360.800,68.258 361.115,68.643 361.500 C 69.732 362.589,330.268 362.589,331.357 361.500 C 331.742 361.115,332.207 360.800,332.391 360.800 C 332.574 360.800,333.191 360.003,333.762 359.029 L 334.800 357.258 334.798 232.329 C 334.796 131.808,334.695 107.205,334.285 106.400 C 334.004 105.850,333.526 104.635,333.223 103.700 C 332.920 102.765,332.557 102.000,332.416 102.000 C 332.276 102.000,331.933 101.370,331.654 100.600 C 331.376 99.830,330.980 99.200,330.774 99.200 C 330.568 99.200,330.400 98.940,330.400 98.623 C 330.400 98.305,330.069 97.810,329.663 97.523 C 329.258 97.235,328.721 96.611,328.469 96.136 C 327.822 94.916,276.166 43.343,274.758 42.512 C 274.121 42.135,273.600 41.700,273.600 41.545 C 273.600 41.389,272.925 41.045,272.100 40.780 C 271.275 40.516,270.325 40.060,269.990 39.768 C 269.654 39.477,268.574 39.112,267.590 38.958 C 266.605 38.804,265.672 38.481,265.515 38.239 C 265.232 37.804,71.132 37.442,69.500 37.874 M254.542 49.134 C 256.469 49.792,259.392 52.450,260.534 54.582 C 261.392 56.186,261.401 56.422,261.514 81.700 L 261.628 107.200 284.514 107.203 C 315.798 107.207,318.419 107.709,321.764 114.336 C 323.714 118.200,323.648 113.657,323.520 236.000 L 323.400 351.400 200.000 351.400 L 76.600 351.400 76.498 200.400 C 76.441 117.350,76.482 49.173,76.587 48.895 C 76.876 48.135,252.306 48.371,254.542 49.134 " stroke="none" fill="#6fbff0" fill-rule="evenodd"></path><path id="path1" d="M120.300 48.700 C 144.335 48.757,183.665 48.757,207.700 48.700 C 231.735 48.643,212.070 48.596,164.000 48.596 C 115.930 48.596,96.265 48.643,120.300 48.700 M273.300 107.500 C 279.845 107.561,290.555 107.561,297.100 107.500 C 303.645 107.438,298.290 107.388,285.200 107.388 C 272.110 107.388,266.755 107.438,273.300 107.500 M114.365 133.712 C 111.944 135.344,111.289 138.229,112.784 140.681 C 114.449 143.411,107.156 143.200,199.880 143.199 C 293.963 143.197,285.414 143.468,286.981 140.438 C 288.249 137.985,287.425 135.013,285.081 133.584 C 283.821 132.816,282.406 132.803,199.759 132.801 L 115.718 132.800 114.365 133.712 M113.743 173.725 C 111.007 176.232,111.610 180.564,114.913 182.132 C 117.038 183.140,282.510 183.165,284.633 182.157 C 288.228 180.451,288.561 175.593,285.244 173.232 L 284.077 172.400 199.632 172.400 L 115.188 172.400 113.743 173.725 M113.755 213.314 C 111.135 215.714,111.653 220.184,114.711 221.578 C 116.190 222.251,283.907 222.134,285.124 221.459 C 288.012 219.856,288.466 215.972,286.047 213.553 L 284.494 212.000 199.841 212.000 L 115.188 212.000 113.755 213.314 M115.057 243.959 C 111.623 246.223,111.517 250.768,114.842 253.122 C 115.837 253.826,183.443 254.439,187.976 253.785 C 192.474 253.135,194.100 247.894,190.783 244.738 L 189.166 243.200 152.683 243.203 C 117.617 243.205,116.156 243.235,115.057 243.959 M138.300 351.500 C 172.235 351.556,227.765 351.556,261.700 351.500 C 295.635 351.444,267.870 351.397,200.000 351.397 C 132.130 351.397,104.365 351.444,138.300 351.500 " stroke="none" fill="#b0bec5" fill-rule="evenodd"></path><path id="path2" d="M76.400 199.997 L 76.400 351.200 200.000 351.200 L 323.600 351.200 323.600 236.020 C 323.600 152.262,323.477 120.261,323.150 118.720 C 322.173 114.114,319.743 110.912,315.730 108.943 L 313.400 107.800 287.517 107.689 L 261.633 107.578 261.517 82.089 C 261.380 52.203,261.513 52.953,255.800 49.865 L 254.200 49.000 165.300 48.897 L 76.400 48.793 76.400 199.997 M285.081 133.584 C 285.785 134.013,286.640 134.904,286.981 135.562 C 288.249 138.015,287.425 140.987,285.081 142.416 C 283.295 143.505,116.860 143.665,114.762 142.581 C 111.288 140.784,111.071 135.932,114.365 133.712 L 115.718 132.800 199.759 132.801 C 282.406 132.803,283.821 132.816,285.081 133.584 M285.244 173.232 C 288.561 175.593,288.228 180.451,284.633 182.157 C 282.510 183.165,117.038 183.140,114.913 182.132 C 111.610 180.564,111.007 176.232,113.743 173.725 L 115.188 172.400 199.632 172.400 L 284.077 172.400 285.244 173.232 M286.047 213.553 C 288.466 215.972,288.012 219.856,285.124 221.459 C 283.907 222.134,116.190 222.251,114.711 221.578 C 111.653 220.184,111.135 215.714,113.755 213.314 L 115.188 212.000 199.841 212.000 L 284.494 212.000 286.047 213.553 M190.783 244.738 C 194.100 247.894,192.474 253.135,187.976 253.785 C 183.443 254.439,115.837 253.826,114.842 253.122 C 111.517 250.768,111.623 246.223,115.057 243.959 C 116.156 243.235,117.617 243.205,152.683 243.203 L 189.166 243.200 190.783 244.738 " stroke="none" fill="#ffffff" fill-rule="evenodd"></path></g></svg>