<?xml version="1.0" encoding="UTF-8"?>
<!DOCTYPE svg PUBLIC "-//W3C//DTD SVG 1.1//EN" "http://www.w3.org/Graphics/SVG/1.1/DTD/svg11.dtd">
<svg xmlns="http://www.w3.org/2000/svg" version="1.1" width="445px" height="377px" style="shape-rendering:geometricPrecision; text-rendering:geometricPrecision; image-rendering:optimizeQuality; fill-rule:evenodd; clip-rule:evenodd" xmlns:xlink="http://www.w3.org/1999/xlink">
<g><path style="opacity:0.913" fill="#c6d0f5" d="M 167.5,43.5 C 227.514,43.8575 287.514,45.0241 347.5,47C 361.48,49.3286 372.647,56.1619 381,67.5C 390.469,80.2336 395.802,94.5669 397,110.5C 396.729,127.826 396.229,145.16 395.5,162.5C 396.797,200.493 397.297,238.493 397,276.5C 395.776,295.786 387.609,311.286 372.5,323C 362.796,328.808 352.296,331.308 341,330.5C 293.473,330.063 245.973,328.73 198.5,326.5C 174.157,327.23 149.823,328.23 125.5,329.5C 98.8311,328.416 77.3311,317.416 61,296.5C 52.7964,283.979 49.6297,270.312 51.5,255.5C 49.0599,211.169 49.0599,166.836 51.5,122.5C 46.4133,122.716 45.4133,120.882 48.5,117C 49.448,116.517 50.448,116.351 51.5,116.5C 47.114,73.2318 66.4474,49.2318 109.5,44.5C 114.812,45.3307 120.146,45.9974 125.5,46.5C 139.648,45.382 153.648,44.382 167.5,43.5 Z M 143.5,50.5 C 191.697,50.1841 239.864,51.1841 288,53.5C 314.981,49.0519 340.815,52.5519 365.5,64C 370.129,66.9053 374.296,70.4053 378,74.5C 384.647,87.7515 388.813,101.752 390.5,116.5C 279.501,115.512 168.501,115.512 57.5,116.5C 55.1025,89.7974 65.1025,69.2974 87.5,55C 99.6154,51.4104 111.949,50.577 124.5,52.5C 131.009,52.064 137.342,51.3973 143.5,50.5 Z M 169.5,82.5 C 173.445,81.5727 176.112,82.906 177.5,86.5C 173.878,87.6586 170.211,87.8253 166.5,87C 167.386,85.3853 168.386,83.8853 169.5,82.5 Z M 276.5,82.5 C 280.182,81.7253 282.682,83.0586 284,86.5C 286.19,94.9775 283.19,97.9775 275,95.5C 272.679,90.7736 273.179,86.4403 276.5,82.5 Z M 304.5,82.5 C 308.445,81.5727 311.112,82.906 312.5,86.5C 308.833,87.8333 305.167,87.8333 301.5,86.5C 302.172,84.8405 303.172,83.5072 304.5,82.5 Z M 252.5,90.5 C 256.362,90.8326 257.195,92.4993 255,95.5C 252.627,97.8501 250.127,98.0167 247.5,96C 246.483,94.9505 246.316,93.7839 247,92.5C 248.948,91.8906 250.782,91.224 252.5,90.5 Z M 157.5,121.5 C 226.167,121.333 294.834,121.5 363.5,122C 261.514,124.547 159.514,126.047 57.5,126.5C 57.5,125.167 57.5,123.833 57.5,122.5C 91.0042,122.832 124.338,122.498 157.5,121.5 Z M 365.5,127.5 C 373.833,127.5 382.167,127.5 390.5,127.5C 389.922,140.153 389.589,152.82 389.5,165.5C 390.263,196.837 390.763,228.17 391,259.5C 387.84,275.48 382.173,290.48 374,304.5C 366.053,314.061 355.886,319.894 343.5,322C 334.534,323.026 325.534,323.526 316.5,323.5C 258.52,321.106 200.52,320.272 142.5,321C 121.526,325.922 102.192,322.256 84.5,310C 70.2977,296.1 61.4643,279.266 58,259.5C 57.5,217.168 57.3333,174.835 57.5,132.5C 160.351,132.187 263.017,130.52 365.5,127.5 Z"/></g>
<g><path style="opacity:0.817" fill="#c6d0f5" d="M 133.5,77.5 C 136.802,78.1539 139.969,78.1539 143,77.5C 144.658,77.6752 145.991,78.3418 147,79.5C 149.958,76.918 152.958,76.918 156,79.5C 156.5,86.8258 156.666,94.1591 156.5,101.5C 154.5,101.5 152.5,101.5 150.5,101.5C 150.83,94.8002 150.497,88.1335 149.5,81.5C 148.914,81.7093 148.414,82.0426 148,82.5C 147.5,88.8246 147.334,95.1579 147.5,101.5C 145.833,101.5 144.167,101.5 142.5,101.5C 142.83,94.8002 142.497,88.1335 141.5,81.5C 140.914,81.7093 140.414,82.0426 140,82.5C 139.5,88.8246 139.334,95.1579 139.5,101.5C 137.5,101.5 135.5,101.5 133.5,101.5C 133.5,93.5 133.5,85.5 133.5,77.5 Z"/></g>
<g><path style="opacity:0.894" fill="#c6d0f5" d="M 166.5,77.5 C 178.491,74.8324 183.824,79.499 182.5,91.5C 177.156,91.334 171.823,91.5006 166.5,92C 167.167,94 168.5,95.3333 170.5,96C 174.152,96.4986 177.818,96.6653 181.5,96.5C 181.5,98.1667 181.5,99.8333 181.5,101.5C 165.999,104.826 159.499,98.8257 162,83.5C 163.332,81.34 164.832,79.34 166.5,77.5 Z M 169.5,82.5 C 168.386,83.8853 167.386,85.3853 166.5,87C 170.211,87.8253 173.878,87.6586 177.5,86.5C 176.112,82.906 173.445,81.5727 169.5,82.5 Z"/></g>
<g><path style="opacity:0.866" fill="#c6cff5" d="M 193.5,77.5 C 198.5,77.5 203.5,77.5 208.5,77.5C 208.5,79.1667 208.5,80.8333 208.5,82.5C 204.486,82.3345 200.486,82.5012 196.5,83C 195.833,83.6667 195.167,84.3333 194.5,85C 197.73,86.308 201.064,87.308 204.5,88C 210.756,91.8715 211.089,96.2049 205.5,101C 199.843,101.499 194.176,101.666 188.5,101.5C 188.5,99.8333 188.5,98.1667 188.5,96.5C 193.179,96.6658 197.845,96.4992 202.5,96C 202.957,95.586 203.291,95.086 203.5,94.5C 199.195,92.2828 194.695,90.2828 190,88.5C 188.053,83.8423 189.219,80.1756 193.5,77.5 Z"/></g>
<g><path style="opacity:0.866" fill="#c6cff5" d="M 220.5,77.5 C 225.5,77.5 230.5,77.5 235.5,77.5C 235.5,79.1667 235.5,80.8333 235.5,82.5C 231.486,82.3345 227.486,82.5012 223.5,83C 222.833,83.6667 222.167,84.3333 221.5,85C 224.73,86.308 228.064,87.308 231.5,88C 237.756,91.8715 238.089,96.2049 232.5,101C 226.843,101.499 221.176,101.666 215.5,101.5C 215.5,99.8333 215.5,98.1667 215.5,96.5C 220.179,96.6658 224.845,96.4992 229.5,96C 229.957,95.586 230.291,95.086 230.5,94.5C 226.195,92.2828 221.695,90.2828 217,88.5C 215.053,83.8423 216.219,80.1756 220.5,77.5 Z"/></g>
<g><path style="opacity:0.893" fill="#c6d0f5" d="M 244.5,77.5 C 259.51,75.1837 265.176,81.517 261.5,96.5C 263.167,96.5 264.833,96.5 266.5,96.5C 266.5,98.1667 266.5,99.8333 266.5,101.5C 263.5,101.5 260.5,101.5 257.5,101.5C 257.649,100.448 257.483,99.448 257,98.5C 255.182,100.954 252.682,101.954 249.5,101.5C 242.183,101.327 239.683,97.66 242,90.5C 242.833,89.6667 243.667,88.8333 244.5,88C 248.429,86.9706 252.429,86.1373 256.5,85.5C 256.023,84.5224 255.357,83.6891 254.5,83C 251.183,82.5017 247.85,82.335 244.5,82.5C 244.5,80.8333 244.5,79.1667 244.5,77.5 Z M 252.5,90.5 C 250.782,91.224 248.948,91.8906 247,92.5C 246.316,93.7839 246.483,94.9505 247.5,96C 250.127,98.0167 252.627,97.8501 255,95.5C 257.195,92.4993 256.362,90.8326 252.5,90.5 Z"/></g>
<g><path style="opacity:0.909" fill="#c6d0f5" d="M 273.5,77.5 C 276.518,77.3354 279.518,77.502 282.5,78C 283,78.5 283.5,79 284,79.5C 285.401,77.8078 287.234,77.1412 289.5,77.5C 289.951,87.9377 289.451,98.271 288,108.5C 286.786,110.049 285.286,111.215 283.5,112C 278.845,112.499 274.179,112.666 269.5,112.5C 269.5,110.833 269.5,109.167 269.5,107.5C 273.182,107.665 276.848,107.499 280.5,107C 283.021,105.091 284.188,102.591 284,99.5C 273.902,104.028 268.402,100.695 267.5,89.5C 267.438,84.3169 269.438,80.3169 273.5,77.5 Z M 276.5,82.5 C 273.179,86.4403 272.679,90.7736 275,95.5C 283.19,97.9775 286.19,94.9775 284,86.5C 282.682,83.0586 280.182,81.7253 276.5,82.5 Z"/></g>
<g><path style="opacity:0.892" fill="#c6d0f5" d="M 301.5,77.5 C 313.013,75.2425 318.346,79.9091 317.5,91.5C 312.156,91.334 306.823,91.5006 301.5,92C 302.167,94 303.5,95.3333 305.5,96C 308.833,96.3333 312.167,96.6667 315.5,97C 316.38,98.3561 316.714,99.8561 316.5,101.5C 300.409,104.575 293.909,98.2413 297,82.5C 298.366,80.6383 299.866,78.9717 301.5,77.5 Z M 304.5,82.5 C 303.172,83.5072 302.172,84.8405 301.5,86.5C 305.167,87.8333 308.833,87.8333 312.5,86.5C 311.112,82.906 308.445,81.5727 304.5,82.5 Z"/></g>
<g><path style="opacity:0.972" fill="#c5cff4" d="M 79.5,157.5 C 170.834,157.333 262.167,157.5 353.5,158C 356.592,162.118 355.925,165.451 351.5,168C 261.5,168.667 171.5,168.667 81.5,168C 75.8314,165.488 75.1648,161.988 79.5,157.5 Z"/></g>
<g><path style="opacity:0.964" fill="#c5cff4" d="M 121.5,177.5 C 141.836,177.333 162.169,177.5 182.5,178C 186.752,182.325 186.085,185.658 180.5,188C 161.167,188.667 141.833,188.667 122.5,188C 117.539,185.008 117.205,181.508 121.5,177.5 Z"/></g>
<g><path style="opacity:0.968" fill="#c5cff4" d="M 202.5,177.5 C 227.836,177.333 253.169,177.5 278.5,178C 282.741,181.794 282.408,185.127 277.5,188C 253.167,188.667 228.833,188.667 204.5,188C 199.144,185.44 198.477,181.94 202.5,177.5 Z"/></g>
<g><path style="opacity:0.965" fill="#c5cff4" d="M 292.5,177.5 C 311.836,177.333 331.17,177.5 350.5,178C 356.085,180.342 356.752,183.675 352.5,188C 332.167,188.667 311.833,188.667 291.5,188C 287.324,184.053 287.657,180.553 292.5,177.5 Z"/></g>
<g><path style="opacity:0.966" fill="#c5cff4" d="M 158.5,197.5 C 178.503,197.333 198.503,197.5 218.5,198C 221.592,202.118 220.925,205.451 216.5,208C 197.833,208.667 179.167,208.667 160.5,208C 156.018,205.278 155.351,201.778 158.5,197.5 Z"/></g>
<g><path style="opacity:0.992" fill="#c5cff4" d="M 238.5,197.5 C 276.835,197.333 315.168,197.5 353.5,198C 357.5,201.333 357.5,204.667 353.5,208C 315.167,208.667 276.833,208.667 238.5,208C 234.55,204.551 234.55,201.051 238.5,197.5 Z"/></g>
<g><path style="opacity:0.971" fill="#c5cff4" d="M 221.5,218.5 C 265.501,218.333 309.501,218.5 353.5,219C 357.752,223.325 357.085,226.658 351.5,229C 308.833,229.667 266.167,229.667 223.5,229C 218.144,226.44 217.477,222.94 221.5,218.5 Z"/></g>
</svg>
