<?xml version="1.0" encoding="UTF-8"?>
<!DOCTYPE svg PUBLIC "-//W3C//DTD SVG 1.1//EN" "http://www.w3.org/Graphics/SVG/1.1/DTD/svg11.dtd">
<svg xmlns="http://www.w3.org/2000/svg" version="1.1" width="577px" height="568px" style="shape-rendering:geometricPrecision; text-rendering:geometricPrecision; image-rendering:optimizeQuality; fill-rule:evenodd; clip-rule:evenodd" xmlns:xlink="http://www.w3.org/1999/xlink">
<g><path style="opacity:0.975" fill="#c4cef2" d="M 284.5,39.5 C 317.299,38.3808 347.299,46.8808 374.5,65C 404.457,88.9178 419.79,120.251 420.5,159C 419.272,184.152 413.105,207.985 402,230.5C 381.838,264.593 351.838,282.593 312,284.5C 258.694,288.353 220.36,266.353 197,218.5C 188.965,198.923 185.965,178.59 188,157.5C 191.483,136.071 197.483,115.404 206,95.5C 223.569,64.6446 249.736,45.9779 284.5,39.5 Z"/></g>
<g><path style="opacity:1" fill="#1e1e1e" d="M 290.5,52.5 C 345.775,51.2079 382.609,76.5412 401,128.5C 410.448,164.035 405.448,197.369 386,228.5C 359.04,264.937 323.207,278.77 278.5,270C 234.423,254.238 208.923,223.071 202,176.5C 197.963,130.088 214.797,93.5885 252.5,67C 264.348,59.6673 277.015,54.8339 290.5,52.5 Z"/></g>
<g><path style="opacity:0.981" fill="#c4cdf2" d="M 278.5,290.5 C 314.279,289.544 349.946,291.044 385.5,295C 417.553,300.78 446.053,313.947 471,334.5C 473.147,333.524 475.314,333.691 477.5,335C 505.977,350.474 529.81,371.308 549,397.5C 554.604,405.709 558.271,414.709 560,424.5C 561.147,442.481 561.98,460.481 562.5,478.5C 561.619,498.078 557.119,516.744 549,534.5C 541.729,546.787 531.062,553.787 517,555.5C 487.239,554.042 457.406,553.376 427.5,553.5C 396.758,552.891 366.092,554.058 335.5,557C 313.5,557.167 291.5,557.333 269.5,557.5C 204.158,556.815 138.825,555.648 73.5,554C 65.39,552.612 57.39,550.778 49.5,548.5C 32.9752,548.977 21.1419,541.644 14,526.5C 9.20153,515.353 9.53486,504.353 15,493.5C 17.9582,473.087 21.1249,452.754 24.5,432.5C 24.1667,431.833 23.8333,431.167 23.5,430.5C 26.6838,417.767 30.1838,405.1 34,392.5C 43.7869,376.38 56.6202,363.213 72.5,353C 110.996,328.199 152.996,312.532 198.5,306C 202.95,303.739 207.617,302.072 212.5,301C 234.598,297.149 256.598,293.649 278.5,290.5 Z"/></g>
<g><path style="opacity:1" fill="#1e1e1e" d="M 469.5,345.5 C 469.047,344.542 468.381,343.708 467.5,343C 494.386,355.202 516.553,373.368 534,397.5C 538.182,404.715 541.182,412.382 543,420.5C 544.954,444.845 544.954,469.178 543,493.5C 539.792,510.768 530.958,524.268 516.5,534C 507.38,537.684 498.047,538.351 488.5,536C 442.5,535.333 396.5,535.333 350.5,536C 341.911,537.651 333.244,538.651 324.5,539C 305.333,539.167 286.167,539.333 267,539.5C 205.179,538.039 143.345,536.872 81.5,536C 76.6475,535.287 71.9809,533.954 67.5,532C 48.0034,531.18 35.5034,521.347 30,502.5C 28.6277,493.184 29.6277,484.184 33,475.5C 34.9354,460.337 37.6021,445.337 41,430.5C 40.0035,417.495 42.3368,405.162 48,393.5C 61.0945,374.404 77.9278,359.571 98.5,349C 109.914,343.086 121.58,337.752 133.5,333C 154.089,326.859 174.756,321.026 195.5,315.5C 196.689,315.756 197.856,316.089 199,316.5C 203.34,314.246 207.84,312.413 212.5,311C 231.206,308.216 249.873,305.216 268.5,302C 295.5,301.333 322.5,301.333 349.5,302C 382.305,303.827 413.305,312.161 442.5,327C 451.399,333.413 460.399,339.58 469.5,345.5 Z"/></g>
<g><path style="opacity:1" fill="#74798c" d="M 469.5,345.5 C 470.756,345.461 471.756,345.961 472.5,347C 471.002,347.585 470.002,347.085 469.5,345.5 Z"/></g>
</svg>
