<?xml version="1.0" encoding="UTF-8"?>
<!DOCTYPE svg PUBLIC "-//W3C//DTD SVG 1.1//EN" "http://www.w3.org/Graphics/SVG/1.1/DTD/svg11.dtd">
<svg xmlns="http://www.w3.org/2000/svg" version="1.1" width="577px" height="568px" style="shape-rendering:geometricPrecision; text-rendering:geometricPrecision; image-rendering:optimizeQuality; fill-rule:evenodd; clip-rule:evenodd" xmlns:xlink="http://www.w3.org/1999/xlink">
<g><path style="opacity:0.991" fill="#000000" d="M 284.5,39.5 C 317.299,38.3808 347.299,46.8808 374.5,65C 404.457,88.9178 419.79,120.251 420.5,159C 419.272,184.152 413.105,207.985 402,230.5C 381.838,264.593 351.838,282.593 312,284.5C 258.694,288.353 220.36,266.353 197,218.5C 188.965,198.923 185.965,178.59 188,157.5C 191.483,136.071 197.483,115.404 206,95.5C 223.569,64.6446 249.736,45.9779 284.5,39.5 Z"/></g>
<g><path style="opacity:0.995" fill="#000000" d="M 276.5,295.5 C 310.614,294.595 344.614,296.095 378.5,300C 407.438,305.646 434.771,315.646 460.5,330C 467.423,335.045 474.256,340.212 481,345.5C 481.561,344.978 482.228,344.645 483,344.5C 506.487,355.654 526.82,370.987 544,390.5C 554.58,403.237 560.247,417.904 561,434.5C 564.543,462.854 562.877,490.854 556,518.5C 552.014,532.806 543.847,543.973 531.5,552C 526.916,554.188 522.083,555.354 517,555.5C 487.239,554.042 457.406,553.376 427.5,553.5C 396.758,552.891 366.092,554.058 335.5,557C 313.5,557.167 291.5,557.333 269.5,557.5C 204.158,556.815 138.825,555.648 73.5,554C 65.39,552.612 57.39,550.778 49.5,548.5C 32.9752,548.977 21.1419,541.644 14,526.5C 9.20153,515.353 9.53486,504.353 15,493.5C 17.9582,473.087 21.1249,452.754 24.5,432.5C 24.1667,431.833 23.8333,431.167 23.5,430.5C 26.6838,417.767 30.1838,405.1 34,392.5C 45.3924,374.054 60.5591,359.554 79.5,349C 94.139,341.18 109.139,334.18 124.5,328C 140.304,323.799 155.97,319.132 171.5,314C 178.047,312.223 184.714,311.223 191.5,311C 195.833,308.416 200.5,306.749 205.5,306C 229.196,301.603 252.863,298.103 276.5,295.5 Z"/></g>
</svg>
