<svg id="svg" version="1.1" xmlns="http://www.w3.org/2000/svg" xmlns:xlink="http://www.w3.org/1999/xlink" width="400" height="393.76083188908143" viewBox="0, 0, 400,393.76083188908143"><g id="svgg"><path id="path0" d="M195.369 27.854 C 194.123 27.945,193.103 28.188,193.103 28.394 C 193.103 28.600,192.405 28.768,191.550 28.768 C 190.696 28.768,189.888 28.946,189.754 29.163 C 189.620 29.379,188.900 29.557,188.154 29.557 C 187.408 29.557,186.798 29.711,186.798 29.900 C 186.798 30.089,186.081 30.359,185.204 30.499 C 184.328 30.639,183.264 30.928,182.840 31.140 C 182.416 31.353,181.717 31.704,181.286 31.921 C 180.856 32.138,180.235 32.315,179.907 32.315 C 179.579 32.315,179.310 32.473,179.310 32.666 C 179.310 32.858,178.690 33.132,177.931 33.274 C 177.172 33.417,176.552 33.703,176.552 33.909 C 176.552 34.116,176.197 34.286,175.764 34.286 C 175.330 34.286,174.975 34.463,174.975 34.680 C 174.975 34.897,174.709 35.074,174.384 35.074 C 174.059 35.074,173.793 35.251,173.793 35.468 C 173.793 35.685,173.541 35.862,173.234 35.862 C 172.531 35.862,170.252 37.140,170.249 37.537 C 170.247 37.700,169.892 37.833,169.458 37.833 C 169.025 37.833,168.670 38.013,168.670 38.233 C 168.670 38.453,168.049 38.929,167.291 39.291 C 166.532 39.653,165.911 40.093,165.911 40.270 C 165.911 40.447,165.732 40.591,165.514 40.591 C 165.295 40.591,164.559 41.123,163.879 41.773 C 163.198 42.424,162.487 42.956,162.297 42.956 C 161.788 42.956,150.936 53.905,150.936 54.418 C 150.936 54.659,150.429 55.330,149.809 55.909 C 149.189 56.488,148.557 57.357,148.403 57.840 C 148.250 58.324,147.959 58.719,147.757 58.719 C 147.555 58.719,147.389 58.946,147.389 59.223 C 147.389 59.501,147.034 59.983,146.601 60.296 C 146.167 60.608,145.813 61.157,145.813 61.517 C 145.813 61.876,145.547 62.390,145.222 62.660 C 144.897 62.930,144.631 63.395,144.631 63.694 C 144.631 63.992,144.453 64.236,144.236 64.236 C 144.020 64.236,143.842 64.502,143.842 64.828 C 143.842 65.153,143.665 65.419,143.448 65.419 C 143.232 65.419,143.054 65.740,143.054 66.132 C 143.054 66.524,142.794 67.189,142.476 67.609 C 142.157 68.030,141.891 68.670,141.884 69.031 C 141.878 69.392,141.732 69.747,141.562 69.819 C 141.049 70.036,139.113 74.300,139.113 75.212 C 139.113 75.678,138.936 76.059,138.719 76.059 C 138.502 76.059,138.325 76.384,138.325 76.782 C 138.325 77.179,138.204 77.626,138.055 77.774 C 137.621 78.208,136.792 80.845,136.518 82.660 C 136.379 83.581,136.108 84.335,135.916 84.335 C 135.724 84.335,135.567 85.133,135.567 86.108 C 135.567 87.084,135.389 87.882,135.172 87.882 C 134.956 87.882,134.778 88.502,134.778 89.261 C 134.778 90.020,134.614 90.640,134.413 90.640 C 134.211 90.640,133.925 91.618,133.775 92.813 C 133.626 94.008,133.347 95.083,133.156 95.201 C 132.964 95.319,132.808 95.838,132.808 96.355 C 132.808 96.871,132.631 97.403,132.414 97.537 C 132.197 97.671,132.020 98.465,132.020 99.301 C 132.020 100.137,131.850 100.880,131.643 100.952 C 131.435 101.025,131.143 102.996,130.993 105.333 C 130.843 107.671,130.569 109.676,130.384 109.790 C 129.921 110.076,129.960 127.139,130.426 127.986 C 130.633 128.362,130.916 130.399,131.054 132.512 C 131.192 134.626,131.466 136.355,131.662 136.355 C 131.859 136.355,132.020 137.054,132.020 137.908 C 132.020 138.762,132.197 139.570,132.414 139.704 C 132.631 139.838,132.808 140.381,132.808 140.910 C 132.808 141.439,132.962 141.872,133.151 141.872 C 133.340 141.872,133.615 142.936,133.762 144.236 C 133.909 145.537,134.198 146.601,134.404 146.601 C 134.610 146.601,134.778 147.044,134.778 147.586 C 134.778 148.128,134.956 148.571,135.172 148.571 C 135.389 148.571,135.567 148.926,135.567 149.360 C 135.567 149.793,135.744 150.148,135.961 150.148 C 136.177 150.148,136.355 150.501,136.355 150.933 C 136.355 151.905,137.613 154.877,138.024 154.877 C 138.190 154.877,138.325 155.232,138.325 155.665 C 138.325 156.099,138.502 156.453,138.719 156.453 C 138.936 156.453,139.113 156.721,139.113 157.047 C 139.113 157.768,141.036 161.493,141.913 162.473 C 142.261 162.861,142.882 163.882,143.293 164.741 C 143.703 165.600,144.329 166.398,144.682 166.513 C 145.036 166.628,145.427 167.235,145.553 167.862 C 145.687 168.534,146.110 169.105,146.585 169.256 C 147.027 169.396,147.389 169.764,147.389 170.074 C 147.389 170.629,158.435 182.069,158.971 182.069 C 159.123 182.069,159.674 182.468,160.196 182.956 C 161.777 184.434,162.312 184.828,162.742 184.828 C 162.968 184.828,163.153 184.985,163.153 185.177 C 163.153 185.369,163.773 185.820,164.532 186.180 C 165.291 186.540,165.911 187.004,165.911 187.211 C 165.911 187.417,166.266 187.586,166.700 187.586 C 167.133 187.586,167.488 187.764,167.488 187.980 C 167.488 188.197,167.754 188.374,168.079 188.374 C 168.404 188.374,168.672 188.507,168.674 188.670 C 168.676 188.833,169.474 189.316,170.447 189.743 C 171.420 190.171,172.217 190.659,172.217 190.827 C 172.217 190.995,172.571 191.133,173.005 191.133 C 173.438 191.133,173.793 191.310,173.793 191.527 C 173.793 191.744,174.039 191.921,174.339 191.921 C 174.640 191.921,175.393 192.186,176.014 192.510 C 176.635 192.834,177.453 193.100,177.833 193.101 C 178.212 193.102,178.522 193.281,178.522 193.498 C 178.522 193.714,178.955 193.892,179.484 193.892 C 180.013 193.892,180.556 194.069,180.690 194.286 C 180.824 194.502,181.331 194.680,181.816 194.680 C 182.302 194.680,182.892 194.872,183.127 195.107 C 183.362 195.342,184.639 195.633,185.964 195.753 C 187.290 195.873,188.374 196.124,188.374 196.311 C 188.374 196.498,189.084 196.650,189.951 196.650 C 190.818 196.650,191.527 196.828,191.527 197.044 C 191.527 197.272,192.775 197.438,194.483 197.438 C 196.190 197.438,197.438 197.605,197.438 197.833 C 197.438 198.429,208.976 198.354,209.576 197.754 C 209.944 197.386,210.154 197.386,210.522 197.754 C 211.122 198.354,222.660 198.429,222.660 197.833 C 222.660 197.608,223.835 197.438,225.395 197.438 C 226.900 197.438,228.240 197.261,228.374 197.044 C 228.508 196.828,229.317 196.650,230.171 196.650 C 231.025 196.650,231.724 196.498,231.724 196.311 C 231.724 196.124,232.809 195.873,234.134 195.753 C 235.460 195.633,236.737 195.342,236.972 195.107 C 237.207 194.872,237.721 194.680,238.114 194.680 C 238.507 194.680,239.225 194.475,239.710 194.224 C 241.345 193.379,241.795 193.205,243.063 192.926 C 243.757 192.774,244.427 192.485,244.551 192.285 C 244.674 192.085,245.120 191.921,245.540 191.921 C 245.961 191.921,246.305 191.744,246.305 191.527 C 246.305 191.310,246.645 191.133,247.061 191.133 C 247.476 191.133,247.875 191.000,247.947 190.837 C 248.020 190.675,249.099 190.032,250.345 189.410 C 251.591 188.787,252.611 188.122,252.611 187.932 C 252.611 187.742,252.966 187.586,253.399 187.586 C 253.833 187.586,254.187 187.409,254.187 187.192 C 254.187 186.975,254.445 186.798,254.760 186.798 C 255.076 186.798,255.777 186.355,256.319 185.813 C 256.861 185.271,257.413 184.828,257.547 184.828 C 257.681 184.828,258.037 184.606,258.340 184.335 C 259.536 183.262,260.076 182.857,260.310 182.857 C 260.445 182.857,261.594 181.837,262.864 180.591 C 264.134 179.345,266.070 177.465,267.167 176.414 C 268.265 175.364,269.163 174.420,269.163 174.319 C 269.163 174.217,269.961 173.369,270.936 172.434 C 271.911 171.500,272.709 170.460,272.709 170.123 C 272.709 169.787,273.064 169.399,273.497 169.261 C 273.930 169.124,274.402 168.536,274.546 167.954 C 274.689 167.372,275.133 166.665,275.532 166.382 C 275.930 166.098,276.256 165.611,276.256 165.298 C 276.256 164.985,276.389 164.728,276.552 164.727 C 276.903 164.724,278.227 162.480,278.227 161.886 C 278.227 161.658,278.546 161.185,278.936 160.834 C 279.673 160.173,280.985 157.644,280.985 156.886 C 280.985 156.648,281.163 156.453,281.379 156.453 C 281.596 156.453,281.773 156.099,281.773 155.665 C 281.773 155.232,281.909 154.877,282.075 154.877 C 282.486 154.877,283.744 151.905,283.744 150.933 C 283.744 150.501,283.921 150.148,284.138 150.148 C 284.355 150.148,284.532 149.804,284.532 149.383 C 284.532 148.962,284.709 148.508,284.926 148.374 C 285.143 148.240,285.320 147.787,285.320 147.366 C 285.320 146.945,285.480 146.601,285.676 146.601 C 285.871 146.601,286.154 145.537,286.305 144.236 C 286.456 142.936,286.740 141.872,286.935 141.872 C 287.131 141.872,287.291 141.350,287.291 140.713 C 287.291 140.075,287.468 139.444,287.685 139.310 C 287.901 139.176,288.079 138.467,288.079 137.734 C 288.079 137.001,288.235 136.305,288.426 136.187 C 288.617 136.069,288.898 134.639,289.051 133.011 C 289.203 131.382,289.491 130.049,289.689 130.049 C 289.887 130.049,290.049 129.251,290.049 128.276 C 290.049 127.300,290.227 126.502,290.443 126.502 C 290.661 126.502,290.837 125.478,290.837 124.217 C 290.837 122.960,291.033 121.735,291.272 121.496 C 291.875 120.894,291.871 100.186,291.268 99.583 C 291.031 99.347,290.837 98.223,290.837 97.087 C 290.837 95.951,290.660 94.912,290.443 94.778 C 290.227 94.644,290.049 93.935,290.049 93.202 C 290.049 92.469,289.893 91.773,289.702 91.654 C 289.510 91.536,289.230 90.284,289.079 88.872 C 288.928 87.461,288.641 86.305,288.442 86.305 C 288.242 86.305,288.079 85.860,288.079 85.315 C 288.079 84.770,287.922 84.016,287.731 83.640 C 287.125 82.450,286.561 81.018,286.295 80.000 C 285.883 78.419,285.152 76.847,284.830 76.847 C 284.666 76.847,284.532 76.528,284.532 76.138 C 284.532 75.748,284.384 75.260,284.203 75.054 C 284.022 74.848,283.550 73.793,283.153 72.709 C 282.757 71.626,282.107 70.452,281.709 70.102 C 281.311 69.751,280.985 69.246,280.985 68.980 C 280.985 68.303,279.743 66.136,278.916 65.372 C 278.537 65.022,278.227 64.510,278.227 64.235 C 278.227 63.961,277.783 63.325,277.241 62.823 C 276.700 62.320,276.256 61.700,276.256 61.444 C 276.256 61.188,275.933 60.692,275.538 60.342 C 275.144 59.991,274.485 59.128,274.074 58.423 C 273.663 57.718,273.011 57.041,272.624 56.919 C 272.237 56.796,271.921 56.538,271.921 56.346 C 271.921 56.154,271.478 55.553,270.936 55.011 C 270.394 54.469,269.951 53.929,269.951 53.811 C 269.951 53.565,266.789 50.443,266.540 50.443 C 266.451 50.443,265.773 49.867,265.033 49.163 C 263.287 47.500,262.550 46.897,262.265 46.897 C 262.137 46.897,261.590 46.453,261.048 45.911 C 260.506 45.369,259.844 44.926,259.576 44.926 C 259.309 44.926,258.835 44.571,258.522 44.138 C 258.210 43.704,257.727 43.350,257.450 43.350 C 257.173 43.350,256.946 43.176,256.946 42.963 C 256.946 42.751,256.458 42.456,255.862 42.308 C 255.266 42.161,254.547 41.714,254.263 41.316 C 253.980 40.917,253.492 40.591,253.180 40.591 C 252.867 40.591,252.611 40.456,252.611 40.290 C 252.611 39.974,249.734 38.621,249.061 38.621 C 248.846 38.621,248.670 38.443,248.670 38.227 C 248.670 38.010,248.315 37.833,247.882 37.833 C 247.448 37.833,247.094 37.655,247.094 37.438 C 247.094 37.222,246.848 37.044,246.548 37.044 C 246.247 37.044,245.493 36.779,244.873 36.456 C 244.252 36.132,243.433 35.866,243.054 35.864 C 242.675 35.863,242.365 35.685,242.365 35.468 C 242.365 35.251,241.833 35.074,241.182 35.074 C 240.532 35.074,240.000 34.897,240.000 34.680 C 240.000 34.463,239.557 34.286,239.015 34.286 C 238.473 34.286,238.030 34.108,238.030 33.892 C 238.030 33.675,237.480 33.498,236.808 33.498 C 236.137 33.498,235.028 33.252,234.345 32.952 C 233.662 32.652,232.271 32.035,231.253 31.581 C 230.235 31.127,228.684 30.640,227.805 30.500 C 226.926 30.359,226.207 30.089,226.207 29.900 C 226.207 29.711,225.586 29.557,224.828 29.557 C 224.069 29.557,223.448 29.379,223.448 29.163 C 223.448 28.946,222.665 28.768,221.708 28.768 C 220.698 28.768,219.901 28.569,219.808 28.292 C 219.648 27.812,200.618 27.471,195.369 27.854 M220.296 37.248 C 227.171 38.301,231.274 39.529,237.833 42.496 C 254.183 49.894,267.704 64.126,274.971 81.587 C 276.986 86.427,278.181 90.365,279.786 97.447 C 285.823 124.079,274.535 156.494,253.088 174.113 C 244.832 180.895,236.999 184.724,224.631 188.022 C 189.190 197.473,149.491 170.047,141.284 130.443 C 141.126 129.685,140.746 127.823,140.438 126.305 C 139.654 122.440,139.295 109.039,139.850 104.334 C 144.948 61.109,180.808 31.204,220.296 37.248 M191.921 205.320 C 191.921 205.564,189.827 205.714,186.427 205.714 C 183.190 205.714,180.833 205.876,180.690 206.108 C 180.556 206.325,179.393 206.502,178.105 206.502 C 176.817 206.502,175.764 206.659,175.764 206.849 C 175.764 207.040,173.901 207.323,171.626 207.479 C 169.350 207.634,167.488 207.921,167.488 208.117 C 167.488 208.313,166.512 208.473,165.320 208.473 C 164.128 208.473,163.153 208.650,163.153 208.867 C 163.153 209.084,162.266 209.261,161.182 209.261 C 160.099 209.261,159.212 209.417,159.212 209.608 C 159.212 209.799,157.350 210.082,155.074 210.237 C 152.798 210.392,150.936 210.679,150.936 210.875 C 150.936 211.071,149.961 211.232,148.768 211.232 C 147.576 211.232,146.601 211.409,146.601 211.626 C 146.601 211.842,145.714 212.020,144.631 212.020 C 143.547 212.020,142.660 212.176,142.660 212.368 C 142.660 212.559,141.509 212.839,140.103 212.990 C 138.696 213.141,137.444 213.427,137.321 213.627 C 137.197 213.827,136.752 213.990,136.331 213.990 C 135.911 213.990,135.567 214.167,135.567 214.384 C 135.567 214.601,135.227 214.778,134.811 214.778 C 134.396 214.778,133.982 215.000,133.892 215.271 C 133.780 215.608,132.497 215.805,129.820 215.896 C 127.670 215.969,125.743 216.191,125.537 216.389 C 125.331 216.587,124.577 216.749,123.862 216.749 C 123.147 216.749,122.562 216.926,122.562 217.143 C 122.562 217.360,121.764 217.537,120.788 217.537 C 119.813 217.537,119.015 217.694,119.015 217.886 C 119.015 218.077,118.042 218.356,116.854 218.504 C 115.665 218.653,114.590 218.939,114.466 219.141 C 114.341 219.342,113.718 219.507,113.080 219.507 C 112.443 219.507,111.921 219.685,111.921 219.901 C 111.921 220.118,111.478 220.296,110.936 220.296 C 110.394 220.296,109.951 220.473,109.951 220.690 C 109.951 220.906,109.507 221.084,108.966 221.084 C 108.424 221.084,107.980 221.241,107.980 221.432 C 107.980 221.624,107.005 221.903,105.813 222.052 C 104.621 222.201,103.645 222.487,103.645 222.688 C 103.645 222.890,103.025 223.054,102.266 223.054 C 101.507 223.054,100.887 223.232,100.887 223.448 C 100.887 223.665,100.454 223.842,99.925 223.842 C 99.396 223.842,98.864 224.002,98.743 224.198 C 98.622 224.393,97.459 224.677,96.158 224.828 C 94.857 224.978,93.793 225.262,93.793 225.457 C 93.793 225.653,93.172 225.813,92.414 225.813 C 91.655 225.813,91.034 225.990,91.034 226.207 C 91.034 226.424,90.591 226.601,90.049 226.601 C 89.507 226.601,89.064 226.778,89.064 226.995 C 89.064 227.212,88.674 227.389,88.197 227.389 C 86.982 227.389,82.759 228.681,82.759 229.053 C 82.759 229.222,82.493 229.360,82.167 229.360 C 81.842 229.360,81.576 229.517,81.576 229.709 C 81.576 229.901,80.778 230.178,79.803 230.324 C 78.828 230.470,78.030 230.757,78.030 230.960 C 78.030 231.164,77.675 231.330,77.241 231.330 C 76.808 231.330,76.453 231.507,76.453 231.724 C 76.453 231.941,76.187 232.118,75.862 232.118 C 75.537 232.118,75.271 232.296,75.271 232.512 C 75.271 232.729,74.917 232.906,74.485 232.906 C 73.514 232.906,70.542 234.165,70.542 234.576 C 70.542 234.741,70.187 234.877,69.754 234.877 C 69.320 234.877,68.966 235.054,68.966 235.271 C 68.966 235.488,68.762 235.665,68.512 235.665 C 67.891 235.665,63.677 237.729,63.514 238.114 C 63.442 238.284,63.043 238.424,62.627 238.424 C 62.212 238.424,61.872 238.601,61.872 238.818 C 61.872 239.034,61.696 239.212,61.481 239.212 C 60.808 239.212,57.931 240.565,57.931 240.881 C 57.931 241.047,57.576 241.182,57.143 241.182 C 56.709 241.182,56.355 241.356,56.355 241.569 C 56.355 241.781,55.911 242.067,55.369 242.203 C 54.828 242.339,54.384 242.608,54.384 242.801 C 54.384 242.995,54.199 243.153,53.974 243.153 C 53.748 243.153,53.192 243.499,52.738 243.921 C 52.284 244.344,51.440 244.794,50.861 244.921 C 50.282 245.048,49.557 245.500,49.251 245.926 C 48.944 246.351,48.542 246.700,48.358 246.700 C 48.173 246.700,47.775 246.921,47.473 247.192 C 46.290 248.253,45.738 248.670,45.516 248.670 C 45.389 248.670,44.841 249.113,44.299 249.655 C 43.757 250.197,43.168 250.640,42.990 250.640 C 42.812 250.640,41.582 251.660,40.255 252.906 C 38.929 254.153,36.778 256.148,35.475 257.340 C 34.172 258.532,33.106 259.648,33.105 259.820 C 33.104 259.992,32.128 261.085,30.936 262.249 C 29.744 263.413,28.768 264.477,28.768 264.613 C 28.768 264.886,28.240 265.560,26.897 266.996 C 26.409 267.518,26.010 268.130,26.010 268.356 C 26.010 268.583,25.833 268.768,25.616 268.768 C 25.399 268.768,25.222 269.123,25.222 269.557 C 25.222 269.990,25.048 270.345,24.835 270.345 C 24.622 270.345,24.337 270.788,24.201 271.330 C 24.065 271.872,23.796 272.315,23.603 272.315 C 23.409 272.315,23.251 272.759,23.251 273.300 C 23.251 273.842,23.074 274.286,22.857 274.286 C 22.640 274.286,22.463 274.640,22.463 275.074 C 22.463 275.507,22.295 275.862,22.089 275.862 C 21.883 275.862,21.594 276.926,21.446 278.227 C 21.299 279.527,21.025 280.591,20.836 280.591 C 20.647 280.591,20.493 281.389,20.493 282.365 C 20.493 283.340,20.315 284.138,20.099 284.138 C 19.882 284.138,19.704 284.759,19.704 285.517 C 19.704 286.276,19.538 286.897,19.334 286.897 C 19.131 286.897,18.845 287.695,18.699 288.670 C 18.552 289.645,18.275 290.443,18.083 290.443 C 17.891 290.443,17.734 291.064,17.734 291.823 C 17.734 292.581,17.557 293.202,17.340 293.202 C 17.121 293.202,16.946 294.245,16.946 295.543 C 16.946 296.831,16.768 297.994,16.552 298.128 C 15.993 298.474,16.062 299.804,16.650 300.002 C 17.021 300.126,17.032 300.305,16.698 300.724 C 16.440 301.046,16.176 303.515,16.070 306.580 C 15.948 310.094,15.733 311.931,15.431 312.032 C 15.180 312.116,14.975 312.878,14.975 313.727 C 14.975 314.576,14.798 315.271,14.581 315.271 C 14.365 315.271,14.187 316.232,14.187 317.406 C 14.187 318.580,14.021 319.599,13.818 319.672 C 13.615 319.744,13.324 321.798,13.171 324.236 C 13.018 326.675,12.741 328.670,12.555 328.670 C 12.369 328.670,12.217 329.734,12.217 331.034 C 12.217 332.348,12.042 333.399,11.823 333.399 C 11.604 333.399,11.429 334.450,11.429 335.764 C 11.429 337.064,11.272 338.128,11.080 338.128 C 10.889 338.128,10.657 339.314,10.564 340.763 C 10.466 342.315,10.204 343.462,9.927 343.555 C 9.669 343.641,9.458 344.228,9.458 344.860 C 9.458 345.493,9.281 346.010,9.064 346.010 C 8.847 346.010,8.670 346.453,8.670 346.995 C 8.670 347.537,8.519 347.980,8.334 347.980 C 8.149 347.980,7.904 349.621,7.789 351.626 C 7.510 356.517,8.297 363.744,9.109 363.744 C 9.301 363.744,9.458 364.177,9.458 364.706 C 9.458 365.235,9.622 365.769,9.822 365.893 C 10.022 366.016,10.304 366.656,10.448 367.314 C 10.593 367.972,11.050 368.722,11.464 368.981 C 11.878 369.239,12.217 369.682,12.217 369.964 C 12.217 370.247,12.660 370.956,13.202 371.540 C 13.744 372.125,14.187 372.745,14.187 372.918 C 14.187 373.478,17.260 376.355,17.858 376.355 C 18.177 376.355,18.543 376.629,18.672 376.965 C 18.801 377.300,19.440 377.761,20.093 377.988 C 20.746 378.216,21.281 378.562,21.281 378.758 C 21.281 378.953,21.547 379.113,21.872 379.113 C 22.197 379.113,22.463 379.291,22.463 379.507 C 22.463 379.724,22.818 379.901,23.251 379.901 C 23.685 379.901,24.039 380.062,24.039 380.259 C 24.039 380.455,24.926 380.738,26.010 380.887 C 27.094 381.036,27.980 381.318,27.980 381.515 C 27.980 381.711,29.133 381.872,30.542 381.872 C 31.987 381.872,33.103 381.700,33.103 381.478 C 33.103 381.261,33.813 381.084,34.680 381.084 C 35.547 381.084,36.256 381.261,36.256 381.478 C 36.256 381.695,36.788 381.872,37.438 381.872 C 38.089 381.872,38.621 382.049,38.621 382.266 C 38.621 382.483,39.142 382.660,39.780 382.660 C 40.417 382.660,41.037 382.819,41.157 383.014 C 41.278 383.209,42.618 383.493,44.136 383.645 C 45.654 383.798,46.897 384.082,46.897 384.276 C 46.897 384.471,47.773 384.631,48.844 384.631 C 49.915 384.631,50.901 384.808,51.034 385.025 C 51.192 385.280,59.314 385.419,74.112 385.419 C 87.664 385.419,96.946 385.565,96.946 385.779 C 96.946 385.983,101.525 386.231,107.488 386.350 C 113.286 386.466,124.059 386.732,131.429 386.942 C 149.040 387.443,230.564 387.449,236.453 386.950 C 238.946 386.738,242.581 386.469,244.532 386.351 C 246.483 386.233,248.247 385.975,248.453 385.778 C 248.659 385.580,251.098 385.419,253.872 385.419 C 256.972 385.419,258.916 385.267,258.916 385.025 C 258.916 384.765,271.790 384.631,296.749 384.631 C 321.708 384.631,334.581 384.765,334.581 385.025 C 334.581 385.262,336.223 385.419,338.719 385.419 C 341.215 385.419,342.857 385.575,342.857 385.813 C 342.857 386.032,343.908 386.207,345.222 386.207 C 346.535 386.207,347.586 386.032,347.586 385.813 C 347.586 385.579,349.031 385.419,351.133 385.419 C 353.235 385.419,354.680 385.579,354.680 385.813 C 354.680 386.051,356.322 386.207,358.818 386.207 C 361.314 386.207,362.956 386.051,362.956 385.813 C 362.956 385.596,363.576 385.419,364.335 385.419 C 365.094 385.419,365.714 385.241,365.714 385.025 C 365.714 384.808,366.158 384.631,366.700 384.631 C 367.241 384.631,367.685 384.472,367.685 384.279 C 367.685 384.086,368.128 383.817,368.670 383.681 C 369.212 383.545,369.655 383.259,369.655 383.047 C 369.655 382.834,369.929 382.660,370.264 382.660 C 370.599 382.660,371.317 382.217,371.858 381.675 C 372.400 381.133,373.013 380.690,373.220 380.690 C 373.710 380.690,378.325 376.075,378.325 375.584 C 378.325 375.378,378.768 374.765,379.310 374.223 C 379.852 373.681,380.296 373.074,380.296 372.874 C 380.296 372.674,380.562 372.290,380.887 372.020 C 381.212 371.750,381.478 371.196,381.478 370.789 C 381.478 370.382,381.655 370.049,381.872 370.049 C 382.089 370.049,382.266 369.783,382.266 369.458 C 382.266 369.133,382.443 368.867,382.660 368.867 C 382.877 368.867,383.054 368.527,383.054 368.112 C 383.054 367.696,383.243 367.293,383.474 367.216 C 383.704 367.140,383.994 366.327,384.117 365.410 C 384.240 364.494,384.494 363.744,384.682 363.744 C 384.871 363.744,385.025 363.300,385.025 362.759 C 385.025 362.217,385.202 361.773,385.419 361.773 C 385.635 361.773,385.813 361.330,385.813 360.788 C 385.813 360.246,385.979 359.803,386.183 359.803 C 386.387 359.803,386.676 358.562,386.825 357.044 C 386.975 355.527,387.251 354.286,387.440 354.286 C 387.629 354.286,387.783 353.488,387.783 352.512 C 387.783 351.537,387.961 350.739,388.177 350.739 C 388.394 350.739,388.571 350.133,388.571 349.392 C 388.571 348.652,388.738 347.987,388.941 347.915 C 389.144 347.842,389.435 345.788,389.588 343.350 C 389.741 340.911,390.018 338.916,390.204 338.916 C 390.390 338.916,390.542 335.990,390.542 332.414 C 390.542 328.837,390.389 325.911,390.203 325.911 C 390.017 325.911,389.777 318.986,389.671 310.522 C 389.535 299.682,389.344 294.999,389.025 294.680 C 388.775 294.431,388.571 293.553,388.571 292.729 C 388.571 291.905,388.394 291.232,388.177 291.232 C 387.961 291.232,387.783 290.611,387.783 289.852 C 387.783 289.094,387.617 288.473,387.413 288.473 C 387.210 288.473,386.924 287.675,386.777 286.700 C 386.631 285.724,386.354 284.926,386.162 284.926 C 385.970 284.926,385.813 284.571,385.813 284.138 C 385.813 283.704,385.635 283.350,385.419 283.350 C 385.202 283.350,385.025 283.084,385.025 282.759 C 385.025 282.433,384.867 282.167,384.674 282.167 C 384.482 282.167,384.215 281.585,384.081 280.874 C 383.948 280.162,383.485 279.325,383.052 279.013 C 382.620 278.702,382.266 278.131,382.266 277.746 C 382.266 277.360,382.108 277.044,381.915 277.044 C 381.721 277.044,381.452 276.601,381.316 276.059 C 381.180 275.517,380.895 275.074,380.682 275.074 C 380.470 275.074,380.296 274.888,380.296 274.662 C 380.296 274.435,379.852 273.807,379.310 273.265 C 378.768 272.723,378.325 272.130,378.325 271.948 C 378.325 271.765,377.350 270.593,376.158 269.342 C 374.966 268.091,373.989 266.963,373.988 266.835 C 373.984 266.448,370.467 262.857,370.092 262.857 C 369.900 262.857,368.296 261.438,366.527 259.704 C 364.757 257.970,363.092 256.552,362.826 256.552 C 362.559 256.552,362.086 256.197,361.773 255.764 C 361.461 255.330,361.068 254.975,360.901 254.975 C 360.620 254.975,359.213 253.875,358.005 252.709 C 357.724 252.438,357.385 252.217,357.252 252.217 C 357.118 252.217,356.565 251.773,356.023 251.232 C 355.481 250.690,354.819 250.246,354.552 250.246 C 354.284 250.246,353.810 249.892,353.498 249.458 C 353.185 249.025,352.703 248.670,352.425 248.670 C 352.148 248.670,351.921 248.496,351.921 248.283 C 351.921 248.071,351.433 247.776,350.837 247.629 C 350.241 247.481,349.522 247.034,349.239 246.636 C 348.956 246.237,348.468 245.911,348.155 245.911 C 347.842 245.911,347.586 245.753,347.586 245.560 C 347.586 245.367,347.143 245.097,346.601 244.961 C 346.059 244.825,345.616 244.540,345.616 244.327 C 345.616 244.115,345.261 243.941,344.828 243.941 C 344.394 243.941,344.039 243.764,344.039 243.547 C 344.039 243.330,343.773 243.153,343.448 243.153 C 343.123 243.153,342.857 242.979,342.857 242.766 C 342.857 242.554,342.414 242.268,341.872 242.132 C 341.330 241.996,340.887 241.727,340.887 241.534 C 340.887 241.340,340.532 241.182,340.099 241.182 C 339.665 241.182,339.310 241.047,339.310 240.881 C 339.310 240.322,336.164 239.212,334.579 239.212 C 333.713 239.212,333.005 239.034,333.005 238.818 C 333.005 238.601,332.820 238.424,332.593 238.424 C 332.366 238.424,331.738 237.980,331.196 237.438 C 330.654 236.897,330.068 236.453,329.893 236.453 C 329.718 236.453,329.018 235.921,328.338 235.271 C 327.657 234.621,326.964 234.089,326.798 234.089 C 326.631 234.089,326.016 233.645,325.432 233.103 C 324.848 232.562,324.184 232.118,323.958 232.118 C 323.732 232.118,323.547 231.961,323.547 231.769 C 323.547 231.577,322.926 231.125,322.167 230.765 C 321.409 230.405,320.788 229.942,320.788 229.735 C 320.788 229.529,320.556 229.360,320.271 229.360 C 319.987 229.360,319.370 229.001,318.900 228.563 C 318.429 228.125,317.509 227.659,316.855 227.529 C 316.200 227.398,315.665 227.135,315.665 226.946 C 315.665 226.756,315.480 226.601,315.254 226.601 C 315.029 226.601,314.459 226.242,313.989 225.804 C 313.518 225.366,312.461 224.900,311.640 224.768 C 310.819 224.637,310.148 224.375,310.148 224.186 C 310.148 223.997,309.882 223.842,309.557 223.842 C 309.232 223.842,308.966 223.665,308.966 223.448 C 308.966 223.232,308.611 223.054,308.177 223.054 C 307.744 223.054,307.389 222.885,307.389 222.678 C 307.389 222.471,306.768 222.185,306.010 222.043 C 305.251 221.901,304.631 221.627,304.631 221.434 C 304.631 221.241,304.187 221.084,303.645 221.084 C 303.103 221.084,302.660 220.906,302.660 220.690 C 302.660 220.473,302.305 220.296,301.872 220.296 C 301.438 220.296,301.084 220.139,301.084 219.948 C 301.084 219.757,300.021 219.269,298.723 218.864 C 297.424 218.459,296.360 217.995,296.358 217.833 C 296.356 217.670,295.911 217.537,295.369 217.537 C 294.828 217.537,294.384 217.360,294.384 217.143 C 294.384 216.926,294.065 216.749,293.675 216.749 C 293.285 216.749,292.783 216.567,292.561 216.344 C 292.338 216.122,291.239 215.831,290.118 215.698 C 288.996 215.565,288.079 215.304,288.079 215.118 C 288.079 214.931,287.635 214.778,287.094 214.778 C 286.552 214.778,286.108 214.601,286.108 214.384 C 286.108 214.167,285.754 213.990,285.320 213.990 C 284.887 213.990,284.532 213.833,284.532 213.641 C 284.532 213.449,283.734 213.172,282.759 213.026 C 281.783 212.879,280.985 212.593,280.985 212.390 C 280.985 212.186,280.542 212.020,280.000 212.020 C 279.458 212.020,279.015 211.842,279.015 211.626 C 279.015 211.409,278.405 211.232,277.659 211.232 C 276.913 211.232,276.202 211.068,276.078 210.868 C 275.955 210.669,274.700 210.382,273.291 210.231 C 271.881 210.080,270.631 209.800,270.513 209.609 C 270.395 209.418,269.422 209.261,268.351 209.261 C 267.280 209.261,266.404 209.084,266.404 208.867 C 266.404 208.650,265.606 208.473,264.631 208.473 C 263.655 208.473,262.857 208.314,262.857 208.120 C 262.857 207.926,260.286 207.638,257.143 207.481 C 254.000 207.324,251.429 207.039,251.429 206.849 C 251.429 206.658,249.577 206.502,247.314 206.502 C 244.996 206.502,243.093 206.330,242.956 206.108 C 242.809 205.872,240.135 205.714,236.256 205.714 C 232.377 205.714,229.703 205.557,229.557 205.320 C 229.400 205.066,222.656 204.926,210.617 204.926 C 198.416 204.926,191.921 205.063,191.921 205.320 M235.074 212.422 C 252.126 212.996,265.569 214.867,277.704 218.354 C 280.050 219.029,282.502 219.716,283.153 219.883 C 284.643 220.264,291.559 222.559,292.611 223.021 C 293.996 223.631,296.116 224.497,297.537 225.034 C 302.085 226.753,310.590 231.771,316.368 236.144 C 321.633 240.128,328.301 244.728,328.770 244.698 C 329.109 244.676,329.093 244.600,328.716 244.450 C 327.649 244.027,324.907 241.182,325.567 241.182 C 329.328 241.182,349.908 255.579,358.961 264.543 C 372.135 277.588,377.240 287.755,378.099 302.660 C 379.516 327.226,379.078 341.419,376.666 349.163 C 374.113 357.356,371.323 362.632,367.102 367.252 C 360.618 374.347,356.663 376.141,348.304 375.777 C 333.268 375.122,246.912 375.133,241.379 375.790 C 231.559 376.957,230.089 377.080,220.493 377.544 C 213.257 377.893,202.609 377.887,175.172 377.516 C 125.949 376.851,125.854 376.849,115.862 376.353 C 110.985 376.111,96.355 375.853,83.350 375.779 C 57.594 375.634,57.771 375.648,50.536 373.237 C 47.816 372.330,46.157 372.018,44.034 372.014 C 28.197 371.982,16.382 350.668,23.522 335.013 C 23.859 334.275,24.367 332.058,24.650 330.087 C 24.934 328.115,25.341 325.350,25.555 323.941 C 25.769 322.532,26.325 318.842,26.790 315.740 C 27.254 312.639,27.900 308.826,28.224 307.267 C 28.548 305.709,28.971 303.635,29.163 302.660 C 29.355 301.685,29.703 297.961,29.935 294.384 C 30.832 280.549,33.739 274.716,45.665 262.822 C 53.485 255.023,61.111 249.840,74.680 243.102 C 89.312 235.836,94.001 234.008,106.404 230.733 C 108.680 230.132,113.113 228.795,116.256 227.762 C 128.756 223.652,137.057 221.830,138.688 222.838 C 138.934 222.990,140.504 222.420,142.178 221.572 C 145.334 219.973,146.859 219.563,153.498 218.529 C 155.665 218.191,157.970 217.819,158.621 217.703 C 161.848 217.123,164.235 216.704,169.655 215.767 C 172.906 215.205,176.542 214.567,177.734 214.349 C 188.739 212.340,210.713 211.601,235.074 212.422 " stroke="none" fill="#000000" fill-rule="evenodd"></path><path id="path1" d="M200.000 37.234 C 171.248 41.618,147.155 65.918,141.063 96.676 C 139.319 105.479,139.027 119.350,140.438 126.305 C 140.746 127.823,141.126 129.685,141.284 130.443 C 149.491 170.047,189.190 197.473,224.631 188.022 C 236.999 184.724,244.832 180.895,253.088 174.113 C 274.535 156.494,285.823 124.079,279.786 97.447 C 278.181 90.365,276.986 86.427,274.971 81.587 C 266.669 61.638,251.199 46.898,231.133 39.818 C 222.851 36.896,209.493 35.787,200.000 37.234 M199.212 212.442 C 189.132 212.699,184.532 213.108,177.734 214.349 C 176.542 214.567,172.906 215.205,169.655 215.767 C 164.235 216.704,161.848 217.123,158.621 217.703 C 157.970 217.819,155.665 218.191,153.498 218.529 C 146.859 219.563,145.334 219.973,142.178 221.572 C 140.504 222.420,138.934 222.990,138.688 222.838 C 137.057 221.830,128.756 223.652,116.256 227.762 C 113.113 228.795,108.680 230.132,106.404 230.733 C 94.001 234.008,89.312 235.836,74.680 243.102 C 61.111 249.840,53.485 255.023,45.665 262.822 C 33.739 274.716,30.832 280.549,29.935 294.384 C 29.703 297.961,29.355 301.685,29.163 302.660 C 28.971 303.635,28.548 305.709,28.224 307.267 C 27.900 308.826,27.254 312.639,26.790 315.740 C 26.325 318.842,25.769 322.532,25.555 323.941 C 25.341 325.350,24.934 328.115,24.650 330.087 C 24.367 332.058,23.859 334.275,23.522 335.013 C 21.051 340.431,20.659 348.505,22.597 354.089 C 26.121 364.246,35.390 371.997,44.034 372.014 C 46.157 372.018,47.816 372.330,50.536 373.237 C 57.771 375.648,57.594 375.634,83.350 375.779 C 96.355 375.853,110.985 376.111,115.862 376.353 C 125.854 376.849,125.949 376.851,175.172 377.516 C 202.609 377.887,213.257 377.893,220.493 377.544 C 230.089 377.080,231.559 376.957,241.379 375.790 C 246.912 375.133,333.268 375.122,348.304 375.777 C 355.528 376.091,360.152 374.409,364.699 369.813 C 370.803 363.643,373.726 358.599,376.666 349.163 C 379.078 341.419,379.516 327.226,378.099 302.660 C 377.240 287.755,372.135 277.588,358.961 264.543 C 349.908 255.579,329.328 241.182,325.567 241.182 C 324.907 241.182,327.649 244.027,328.716 244.450 C 329.093 244.600,329.109 244.676,328.770 244.698 C 328.301 244.728,321.633 240.128,316.368 236.144 C 310.590 231.771,302.085 226.753,297.537 225.034 C 296.116 224.497,293.996 223.631,292.611 223.021 C 291.559 222.559,284.643 220.264,283.153 219.883 C 282.502 219.716,280.050 219.029,277.704 218.354 C 259.027 212.987,238.491 211.441,199.212 212.442 " stroke="none" fill="#c6d0f5" fill-rule="evenodd"></path></g></svg>