<svg id="svg" version="1.1" xmlns="http://www.w3.org/2000/svg" xmlns:xlink="http://www.w3.org/1999/xlink" width="400" height="418.01801801801804" viewBox="0, 0, 400,418.01801801801804"><g id="svgg"><path id="path0" d="M238.800 44.200 C 238.800 44.585,239.186 44.800,239.876 44.800 C 240.909 44.800,240.921 44.776,240.176 44.213 C 239.177 43.457,238.800 43.453,238.800 44.200 M241.200 45.037 C 241.200 45.347,241.560 45.600,242.000 45.600 C 242.440 45.600,242.800 45.441,242.800 45.247 C 242.800 45.052,242.440 44.799,242.000 44.684 C 241.480 44.548,241.200 44.672,241.200 45.037 M243.600 46.000 C 243.600 46.220,244.050 46.400,244.600 46.400 C 245.150 46.400,245.600 46.562,245.600 46.761 C 245.600 47.228,251.911 50.400,252.841 50.400 C 253.233 50.400,253.664 50.580,253.800 50.800 C 254.205 51.456,256.400 51.287,256.400 50.600 C 256.400 50.227,256.022 50.000,255.400 50.000 C 254.850 50.000,254.400 49.820,254.400 49.600 C 254.400 49.380,254.040 49.200,253.600 49.200 C 253.160 49.200,252.800 49.020,252.800 48.800 C 252.800 48.580,252.363 48.400,251.829 48.400 C 251.294 48.400,250.587 48.130,250.257 47.800 C 249.927 47.470,249.295 47.200,248.852 47.200 C 248.409 47.200,247.936 47.020,247.800 46.800 C 247.664 46.580,247.113 46.400,246.576 46.400 C 246.039 46.400,245.600 46.220,245.600 46.000 C 245.600 45.780,245.150 45.600,244.600 45.600 C 244.050 45.600,243.600 45.780,243.600 46.000 M201.200 47.513 C 200.282 47.626,193.734 49.134,190.400 50.001 C 189.630 50.201,186.390 51.011,183.200 51.800 C 180.010 52.589,176.770 53.406,176.000 53.614 C 175.230 53.823,172.260 54.626,169.400 55.400 C 159.218 58.153,158.990 58.290,157.219 62.710 C 155.757 66.361,150.704 66.694,148.960 63.254 C 148.717 62.777,148.422 62.289,148.303 62.170 C 148.053 61.919,145.522 63.092,131.800 69.819 C 122.858 74.202,119.061 76.174,113.800 79.170 C 95.516 89.581,81.582 102.867,73.493 117.600 C 72.708 119.030,71.509 121.190,70.828 122.400 C 68.343 126.816,64.190 135.675,61.826 141.600 C 60.993 143.690,60.156 145.760,59.967 146.200 C 58.387 149.883,56.035 156.606,52.830 166.600 C 47.500 183.218,47.207 215.932,52.189 238.200 C 52.533 239.740,52.990 241.810,53.203 242.800 C 53.852 245.816,54.246 247.236,55.589 251.400 C 57.130 256.176,61.220 266.122,62.909 269.200 C 63.572 270.410,64.750 272.570,65.526 274.000 C 78.313 297.570,106.826 325.199,129.600 336.086 C 130.810 336.665,133.256 337.844,135.035 338.707 C 136.815 339.570,139.695 340.766,141.435 341.364 C 143.176 341.963,144.960 342.602,145.400 342.786 C 147.128 343.506,148.800 344.023,153.800 345.384 C 156.660 346.162,159.630 346.975,160.400 347.190 C 162.415 347.754,170.917 349.447,174.200 349.939 C 175.740 350.169,178.191 350.547,179.646 350.779 C 186.096 351.805,199.974 350.216,218.400 346.340 C 221.390 345.711,237.365 341.719,239.600 341.043 C 240.590 340.743,242.210 340.269,243.200 339.989 C 245.841 339.243,255.675 336.073,259.600 334.703 C 268.949 331.440,271.917 330.314,276.200 328.404 C 277.080 328.011,278.790 327.276,280.000 326.770 C 281.992 325.938,289.508 320.656,292.005 318.334 C 292.558 317.820,294.448 316.115,296.205 314.544 C 305.014 306.670,312.940 297.727,322.924 284.400 C 328.131 277.449,336.613 263.689,339.568 257.400 C 343.512 249.007,344.124 247.530,346.118 241.600 C 348.351 234.958,349.749 228.663,350.870 220.200 C 351.513 215.347,351.528 194.734,350.892 190.600 C 350.655 189.060,350.248 186.180,349.988 184.200 C 345.129 147.222,326.087 112.822,297.400 89.199 C 295.420 87.569,293.710 86.131,293.600 86.003 C 291.772 83.886,268.660 68.400,267.329 68.400 C 267.216 68.400,266.638 68.055,266.046 67.633 C 263.857 66.074,249.321 58.871,247.000 58.195 C 245.680 57.810,243.790 57.230,242.800 56.906 C 241.262 56.402,238.188 55.491,233.000 54.000 C 232.340 53.810,230.421 53.302,228.736 52.871 C 227.051 52.439,225.071 51.902,224.336 51.677 C 220.834 50.604,220.255 50.675,218.500 52.395 C 215.624 55.214,210.800 53.736,210.800 50.035 C 210.800 48.678,204.720 47.081,201.200 47.513 M256.800 51.372 C 256.800 51.781,257.161 52.000,257.833 52.000 C 259.086 52.000,258.949 51.061,257.669 50.872 C 257.092 50.787,256.800 50.955,256.800 51.372 M212.401 122.222 C 222.905 124.034,231.127 128.055,236.800 134.154 C 238.230 135.692,240.477 137.951,241.794 139.175 C 251.921 148.589,254.907 154.777,254.925 166.383 C 254.936 173.611,253.523 179.370,250.133 185.917 C 246.868 192.222,243.755 196.253,234.164 206.600 C 221.125 220.666,215.200 231.393,215.200 240.934 C 215.200 244.532,212.092 247.157,207.791 247.190 C 206.621 247.200,206.566 247.284,206.085 249.824 C 205.811 251.267,205.284 252.911,204.914 253.476 C 204.263 254.468,204.274 254.529,205.220 255.256 C 208.394 257.696,209.232 258.616,210.404 260.949 C 211.524 263.177,211.933 263.618,213.390 264.175 C 223.193 267.919,223.368 283.253,213.661 287.943 C 211.800 288.842,211.290 289.345,210.237 291.316 C 205.048 301.028,191.256 300.580,186.821 290.555 C 186.200 289.150,185.709 288.697,184.022 287.971 C 174.363 283.816,174.104 269.421,183.600 264.512 C 185.427 263.567,185.991 263.003,186.928 261.187 C 188.318 258.494,189.661 257.039,192.000 255.693 C 192.990 255.124,193.860 254.614,193.934 254.561 C 194.008 254.508,193.789 253.865,193.448 253.132 C 193.106 252.400,192.776 250.730,192.713 249.423 L 192.600 247.046 189.984 246.987 C 184.899 246.873,183.600 244.938,183.600 237.480 C 183.600 224.287,188.155 214.025,200.919 198.461 C 213.275 183.393,216.170 177.603,216.144 168.000 C 216.124 160.711,215.468 159.844,208.876 158.386 C 197.427 155.854,183.536 159.036,169.800 167.337 C 164.067 170.801,163.126 171.200,160.681 171.200 C 156.431 171.200,153.494 168.250,153.114 163.600 C 153.003 162.238,152.945 162.194,151.000 161.964 C 141.696 160.868,141.498 150.918,150.646 144.153 C 152.224 142.986,153.923 141.349,154.420 140.515 C 158.885 133.033,176.535 124.465,191.800 122.370 C 193.560 122.129,195.075 121.856,195.167 121.765 C 195.634 121.302,209.142 121.659,212.401 122.222 M201.107 130.690 C 201.826 130.779,202.906 130.777,203.507 130.686 C 204.108 130.595,203.520 130.522,202.200 130.524 C 200.880 130.526,200.388 130.601,201.107 130.690 M193.200 131.200 C 192.138 131.424,192.041 131.502,192.800 131.524 C 193.350 131.541,194.520 131.405,195.400 131.223 C 196.734 130.947,196.800 130.893,195.800 130.899 C 195.140 130.902,193.970 131.038,193.200 131.200 M209.400 131.200 C 210.060 131.368,211.050 131.505,211.600 131.505 C 212.492 131.505,212.470 131.472,211.400 131.200 C 210.740 131.032,209.750 130.895,209.200 130.895 C 208.308 130.895,208.330 130.928,209.400 131.200 M188.600 132.000 C 187.530 132.272,187.508 132.305,188.400 132.305 C 188.950 132.305,189.940 132.168,190.600 132.000 C 191.670 131.728,191.692 131.695,190.800 131.695 C 190.250 131.695,189.260 131.832,188.600 132.000 M213.233 131.747 C 213.325 131.828,214.120 132.004,215.000 132.138 C 216.115 132.307,216.358 132.271,215.800 132.019 C 215.032 131.671,212.890 131.444,213.233 131.747 M185.000 132.800 C 184.496 133.017,184.422 133.144,184.800 133.144 C 185.130 133.144,185.760 132.989,186.200 132.800 C 186.704 132.583,186.778 132.456,186.400 132.456 C 186.070 132.456,185.440 132.611,185.000 132.800 M178.600 134.614 C 176.985 135.354,177.951 135.355,179.654 134.616 C 180.394 134.294,180.730 134.039,180.400 134.048 C 180.070 134.057,179.260 134.312,178.600 134.614 M173.200 136.600 C 172.650 136.914,172.380 137.172,172.600 137.172 C 172.820 137.172,173.450 136.914,174.000 136.600 C 174.550 136.286,174.820 136.028,174.600 136.028 C 174.380 136.028,173.750 136.286,173.200 136.600 M229.024 137.430 C 230.331 138.216,231.973 139.296,232.673 139.830 C 234.300 141.069,234.827 141.101,233.331 139.869 C 231.903 138.695,227.506 136.000,227.016 136.000 C 226.813 136.000,227.716 136.643,229.024 137.430 M167.100 139.429 C 165.605 140.240,165.696 140.578,167.200 139.800 C 167.860 139.459,168.400 139.094,168.400 138.990 C 168.400 138.732,168.357 138.747,167.100 139.429 M162.300 142.211 C 160.815 143.188,159.600 144.079,159.600 144.191 C 159.600 144.357,164.995 141.065,165.567 140.550 C 166.392 139.806,164.468 140.785,162.300 142.211 M236.200 142.800 C 237.059 143.680,237.852 144.400,237.962 144.400 C 238.072 144.400,237.459 143.680,236.600 142.800 C 235.741 141.920,234.948 141.200,234.838 141.200 C 234.728 141.200,235.341 141.920,236.200 142.800 M238.400 145.064 C 238.400 145.282,238.895 145.897,239.500 146.430 L 240.600 147.400 239.600 146.200 C 239.050 145.540,238.555 144.925,238.500 144.833 C 238.445 144.742,238.400 144.845,238.400 145.064 M154.784 148.823 C 154.305 149.496,153.979 150.113,154.061 150.194 C 154.143 150.276,154.614 149.726,155.108 148.971 C 156.223 147.271,155.971 147.156,154.784 148.823 M240.400 147.728 C 240.400 147.901,240.850 148.705,241.400 149.514 C 241.950 150.323,242.400 150.844,242.400 150.672 C 242.400 150.499,241.950 149.695,241.400 148.886 C 240.850 148.077,240.400 147.556,240.400 147.728 M197.720 148.698 C 199.655 148.772,202.715 148.771,204.520 148.697 C 206.324 148.623,204.740 148.563,201.000 148.564 C 197.260 148.564,195.784 148.625,197.720 148.698 M191.400 149.200 C 190.381 149.638,191.432 149.638,192.800 149.200 C 193.604 148.943,193.643 148.877,193.000 148.868 C 192.560 148.862,191.840 149.011,191.400 149.200 M187.400 150.000 C 186.896 150.217,186.822 150.344,187.200 150.344 C 187.530 150.344,188.160 150.189,188.600 150.000 C 189.104 149.783,189.178 149.656,188.800 149.656 C 188.470 149.656,187.840 149.811,187.400 150.000 M220.383 154.900 C 222.041 156.666,222.400 156.984,222.400 156.683 C 222.400 156.619,221.545 155.764,220.500 154.783 L 218.600 153.000 220.383 154.900 M175.500 154.629 C 174.005 155.440,174.096 155.778,175.600 155.000 C 176.260 154.659,176.800 154.294,176.800 154.190 C 176.800 153.932,176.757 153.947,175.500 154.629 M153.218 156.116 C 153.177 156.837,154.802 159.470,155.861 160.399 L 157.000 161.397 155.945 160.199 C 155.365 159.539,154.518 158.280,154.063 157.400 C 153.608 156.520,153.227 155.942,153.218 156.116 M166.297 159.966 C 164.698 160.991,164.403 161.406,165.800 160.666 C 167.476 159.777,168.271 159.208,167.800 159.235 C 167.580 159.248,166.904 159.577,166.297 159.966 M245.755 166.200 C 245.756 169.060,245.820 170.178,245.897 168.683 C 245.974 167.189,245.974 164.849,245.896 163.483 C 245.818 162.118,245.755 163.340,245.755 166.200 M225.344 168.000 C 225.344 170.090,225.412 170.945,225.494 169.900 C 225.576 168.855,225.576 167.145,225.494 166.100 C 225.412 165.055,225.344 165.910,225.344 168.000 M224.629 174.229 C 224.481 174.815,224.438 175.372,224.532 175.466 C 224.627 175.560,224.824 175.158,224.971 174.571 C 225.119 173.985,225.162 173.428,225.068 173.334 C 224.973 173.240,224.776 173.642,224.629 174.229 M242.075 183.019 C 240.870 185.500,241.005 185.847,242.246 183.461 C 242.801 182.394,243.187 181.453,243.103 181.370 C 243.019 181.286,242.557 182.028,242.075 183.019 M219.231 186.473 C 218.522 187.613,218.187 188.343,218.485 188.096 C 219.053 187.624,220.973 184.400,220.685 184.400 C 220.594 184.400,219.940 185.333,219.231 186.473 M238.572 189.698 C 237.723 191.073,235.538 194.051,233.715 196.318 C 230.293 200.571,229.393 201.930,231.740 199.301 C 234.895 195.766,240.942 187.200,240.282 187.200 C 240.190 187.200,239.420 188.324,238.572 189.698 M215.970 191.100 C 215.021 192.365,214.513 193.183,214.841 192.918 C 215.515 192.375,218.146 188.800,217.873 188.800 C 217.776 188.800,216.919 189.835,215.970 191.100 M211.168 197.100 C 209.030 199.495,208.221 200.517,208.664 200.263 C 208.919 200.117,209.881 199.098,210.801 197.999 C 212.568 195.888,212.837 195.230,211.168 197.100 M224.970 206.300 C 220.268 211.370,217.391 214.682,220.023 211.994 C 222.814 209.143,230.076 201.200,229.890 201.200 C 229.785 201.200,227.571 203.495,224.970 206.300 M201.676 209.500 C 200.176 211.720,198.853 214.017,199.317 213.596 C 199.740 213.212,203.584 207.200,203.407 207.200 C 203.309 207.200,202.530 208.235,201.676 209.500 M216.927 215.500 C 214.702 218.231,214.280 218.800,214.479 218.800 C 214.577 218.800,215.594 217.630,216.740 216.200 C 217.886 214.770,218.745 213.600,218.649 213.600 C 218.553 213.600,217.778 214.455,216.927 215.500 M212.781 221.028 C 212.089 222.034,211.586 222.919,211.662 222.996 C 211.739 223.073,212.388 222.250,213.104 221.168 C 214.746 218.687,214.473 218.569,212.781 221.028 M208.491 229.300 C 207.810 231.184,207.904 231.694,208.626 230.030 C 208.953 229.277,209.166 228.499,209.101 228.302 C 209.035 228.105,208.760 228.554,208.491 229.300 M193.056 230.484 C 192.921 230.988,192.827 231.760,192.846 232.200 C 192.865 232.640,193.045 232.298,193.246 231.440 C 193.636 229.778,193.470 228.940,193.056 230.484 M207.429 232.629 C 207.281 233.215,207.238 233.772,207.332 233.866 C 207.427 233.960,207.624 233.558,207.771 232.971 C 207.919 232.385,207.962 231.828,207.868 231.734 C 207.773 231.640,207.576 232.042,207.429 232.629 M192.509 238.800 C 192.509 239.790,192.587 240.195,192.682 239.700 C 192.778 239.205,192.778 238.395,192.682 237.900 C 192.587 237.405,192.509 237.810,192.509 238.800 M206.101 239.800 C 206.105 240.680,206.187 240.993,206.283 240.495 C 206.379 239.998,206.375 239.278,206.275 238.895 C 206.175 238.513,206.096 238.920,206.101 239.800 M192.818 242.526 C 192.766 243.483,195.336 246.800,196.129 246.800 C 196.337 246.800,196.030 246.424,195.445 245.964 C 194.860 245.504,194.034 244.469,193.609 243.664 C 193.183 242.859,192.827 242.347,192.818 242.526 M202.856 246.013 C 201.616 247.046,202.175 247.035,203.491 246.000 C 204.050 245.560,204.349 245.206,204.154 245.213 C 203.959 245.221,203.375 245.581,202.856 246.013 M198.307 247.090 C 199.026 247.179,200.106 247.177,200.707 247.086 C 201.308 246.995,200.720 246.922,199.400 246.924 C 198.080 246.926,197.588 247.001,198.307 247.090 M194.800 263.618 C 194.362 263.915,194.524 263.952,195.400 263.756 C 196.871 263.427,197.190 263.198,196.167 263.206 C 195.745 263.209,195.130 263.395,194.800 263.618 M201.800 263.600 C 202.240 263.789,202.870 263.944,203.200 263.944 C 203.578 263.944,203.504 263.817,203.000 263.600 C 202.560 263.411,201.930 263.256,201.600 263.256 C 201.222 263.256,201.296 263.383,201.800 263.600 M207.000 266.000 C 207.831 266.660,208.620 267.195,208.755 267.189 C 209.127 267.173,206.252 264.823,205.845 264.811 C 205.650 264.805,206.169 265.340,207.000 266.000 M209.725 269.168 C 210.200 270.035,210.650 270.684,210.724 270.609 C 210.918 270.416,209.677 268.095,209.234 267.821 C 209.029 267.694,209.250 268.300,209.725 269.168 M185.852 272.900 C 185.192 275.362,186.520 283.613,187.430 282.704 C 187.513 282.620,187.207 281.573,186.749 280.376 C 186.085 278.638,185.953 277.576,186.093 275.100 C 186.278 271.813,186.239 271.456,185.852 272.900 M210.207 281.978 C 210.061 282.439,209.297 283.667,208.510 284.708 C 207.702 285.776,207.472 286.252,207.981 285.800 C 209.045 284.857,210.990 281.657,210.685 281.352 C 210.568 281.235,210.353 281.517,210.207 281.978 M189.200 285.400 C 189.717 285.950,190.206 286.400,190.288 286.400 C 190.621 286.400,188.972 284.424,188.630 284.413 C 188.427 284.406,188.683 284.850,189.200 285.400 M203.000 288.254 C 201.924 288.656,200.331 288.811,198.138 288.726 C 196.344 288.657,195.084 288.732,195.338 288.894 C 196.629 289.715,203.398 289.020,204.580 287.945 C 205.064 287.505,204.939 287.530,203.000 288.254 M300.378 326.703 C 299.400 327.310,296.080 329.058,293.000 330.588 C 289.920 332.117,285.493 334.578,283.163 336.055 C 276.248 340.439,267.247 345.205,261.000 347.792 C 259.460 348.429,258.110 349.073,258.000 349.221 C 257.890 349.370,257.395 349.619,256.900 349.773 C 255.692 350.150,255.755 350.800,257.000 350.800 C 257.550 350.800,258.000 350.620,258.000 350.400 C 258.000 350.180,258.990 350.000,260.200 350.000 C 261.410 350.000,262.400 349.820,262.400 349.600 C 262.400 349.380,263.030 349.200,263.800 349.200 C 264.778 349.200,265.200 349.019,265.200 348.600 C 265.200 348.156,265.667 348.000,267.000 348.000 C 267.990 348.000,268.800 347.820,268.800 347.600 C 268.800 347.380,269.430 347.200,270.200 347.200 C 270.970 347.200,271.600 347.020,271.600 346.800 C 271.600 346.580,272.039 346.400,272.576 346.400 C 273.113 346.400,273.664 346.220,273.800 346.000 C 273.936 345.780,274.487 345.600,275.024 345.600 C 275.625 345.600,276.000 345.369,276.000 345.000 C 276.000 344.627,276.378 344.400,277.000 344.400 C 277.550 344.400,278.000 344.220,278.000 344.000 C 278.000 343.780,278.540 343.600,279.200 343.600 C 279.860 343.600,280.400 343.420,280.400 343.200 C 280.400 342.980,280.773 342.800,281.229 342.800 C 282.114 342.800,283.200 341.934,283.200 341.229 C 283.200 340.993,283.650 340.800,284.200 340.800 C 284.750 340.800,285.200 340.620,285.200 340.400 C 285.200 340.180,285.560 340.000,286.000 340.000 C 286.440 340.000,286.800 339.820,286.800 339.600 C 286.800 339.380,287.070 339.200,287.400 339.200 C 287.730 339.200,288.000 339.020,288.000 338.800 C 288.000 338.580,288.360 338.400,288.800 338.400 C 289.244 338.400,289.600 338.133,289.600 337.800 C 289.600 337.467,289.956 337.200,290.400 337.200 C 290.840 337.200,291.200 337.020,291.200 336.800 C 291.200 336.580,291.388 336.400,291.618 336.400 C 291.848 336.400,292.478 335.958,293.018 335.418 C 293.558 334.878,294.000 334.248,294.000 334.018 C 294.000 333.788,294.372 333.600,294.826 333.600 C 295.298 333.600,296.580 332.658,297.817 331.400 C 299.008 330.190,300.256 329.200,300.591 329.200 C 300.926 329.200,301.200 329.050,301.200 328.868 C 301.200 328.685,301.650 328.294,302.200 328.000 C 302.750 327.706,303.200 327.225,303.200 326.932 C 303.200 326.640,303.380 326.400,303.600 326.400 C 303.820 326.400,304.000 326.220,304.000 326.000 C 304.000 325.243,302.154 325.602,300.378 326.703 " stroke="none" fill="#228be6" fill-rule="evenodd"></path><path id="path1" d="M195.167 121.765 C 195.075 121.856,193.560 122.129,191.800 122.370 C 176.535 124.465,158.885 133.033,154.420 140.515 C 153.923 141.349,152.224 142.986,150.646 144.153 C 141.498 150.918,141.696 160.868,151.000 161.964 C 152.945 162.194,153.003 162.238,153.114 163.600 C 153.494 168.250,156.431 171.200,160.681 171.200 C 163.126 171.200,164.067 170.801,169.800 167.337 C 183.536 159.036,197.427 155.854,208.876 158.386 C 215.468 159.844,216.124 160.711,216.144 168.000 C 216.170 177.603,213.275 183.393,200.919 198.461 C 188.155 214.025,183.600 224.287,183.600 237.480 C 183.600 244.938,184.899 246.873,189.984 246.987 L 192.600 247.046 192.713 249.423 C 192.776 250.730,193.106 252.400,193.448 253.132 C 193.789 253.865,194.008 254.508,193.934 254.561 C 193.860 254.614,192.990 255.124,192.000 255.693 C 189.661 257.039,188.318 258.494,186.928 261.187 C 185.991 263.003,185.427 263.567,183.600 264.512 C 174.104 269.421,174.363 283.816,184.022 287.971 C 185.709 288.697,186.200 289.150,186.821 290.555 C 191.256 300.580,205.048 301.028,210.237 291.316 C 211.290 289.345,211.800 288.842,213.661 287.943 C 223.368 283.253,223.193 267.919,213.390 264.175 C 211.933 263.618,211.524 263.177,210.404 260.949 C 209.232 258.616,208.394 257.696,205.220 255.256 C 204.274 254.529,204.263 254.468,204.914 253.476 C 205.284 252.911,205.811 251.267,206.085 249.824 C 206.566 247.284,206.621 247.200,207.791 247.190 C 212.092 247.157,215.200 244.532,215.200 240.934 C 215.200 231.393,221.125 220.666,234.164 206.600 C 243.755 196.253,246.868 192.222,250.133 185.917 C 253.523 179.370,254.936 173.611,254.925 166.383 C 254.907 154.777,251.921 148.589,241.794 139.175 C 240.477 137.951,238.230 135.692,236.800 134.154 C 229.061 125.835,217.345 121.600,202.066 121.600 C 198.363 121.600,195.258 121.674,195.167 121.765 M212.600 131.431 C 214.360 131.740,216.520 132.184,217.400 132.419 C 218.280 132.654,219.672 133.015,220.493 133.223 C 221.315 133.431,223.497 134.309,225.343 135.174 C 250.406 146.915,253.098 175.798,231.360 199.726 C 227.477 203.999,221.375 210.620,221.153 210.800 C 220.150 211.614,213.432 220.516,211.897 223.067 C 209.113 227.691,206.988 233.903,206.426 239.055 C 205.787 244.924,203.880 247.000,199.132 247.000 C 193.204 247.000,190.886 240.263,193.219 229.817 C 194.037 226.156,195.259 221.822,195.874 220.400 C 199.436 212.165,202.454 207.703,214.002 193.600 C 231.013 172.825,228.930 154.000,209.094 149.256 C 206.632 148.667,195.362 148.666,192.224 149.255 C 189.680 149.732,183.567 151.391,182.200 151.976 C 181.760 152.164,180.680 152.624,179.800 152.999 C 176.436 154.429,172.930 156.315,167.680 159.518 C 164.535 161.437,161.575 162.474,160.077 162.181 C 157.678 161.711,157.134 161.493,156.013 160.550 C 140.890 147.825,182.878 126.219,212.600 131.431 M204.894 264.319 C 218.821 270.905,209.744 293.442,195.047 288.769 C 184.141 285.303,182.205 268.935,192.191 264.630 C 192.856 264.343,193.850 263.908,194.400 263.663 C 196.160 262.878,202.713 263.288,204.894 264.319 " stroke="none" fill="#1e1e1e" fill-rule="evenodd"></path><path id="path2" d="M211.200 35.200 C 211.200 35.426,210.067 35.600,208.600 35.600 C 207.133 35.600,206.000 35.774,206.000 36.000 C 206.000 36.220,205.370 36.400,204.600 36.400 C 203.830 36.400,203.200 36.220,203.200 36.000 C 203.200 35.762,201.675 35.600,199.424 35.600 C 197.337 35.600,195.537 35.779,195.400 36.000 C 195.264 36.220,194.083 36.400,192.776 36.400 C 191.459 36.400,190.400 36.222,190.400 36.000 C 190.400 35.744,186.867 35.600,180.600 35.600 C 174.333 35.600,170.800 35.744,170.800 36.000 C 170.800 36.233,169.478 36.400,167.633 36.400 C 165.892 36.400,164.407 36.566,164.333 36.768 C 164.260 36.970,163.309 37.214,162.219 37.309 C 161.130 37.405,160.170 37.690,160.086 37.942 C 159.996 38.211,159.039 38.400,157.767 38.400 C 156.575 38.400,155.600 38.580,155.600 38.800 C 155.600 39.020,155.150 39.200,154.600 39.200 C 154.050 39.200,153.600 39.380,153.600 39.600 C 153.600 39.820,152.985 40.000,152.233 40.000 C 151.482 40.000,150.797 40.209,150.712 40.465 C 150.626 40.721,150.275 40.972,149.930 41.022 C 148.507 41.231,147.200 42.487,147.200 43.646 C 147.200 44.281,147.020 44.800,146.800 44.800 C 146.580 44.800,146.400 45.340,146.400 46.000 C 146.400 46.660,146.580 47.200,146.800 47.200 C 147.020 47.200,147.200 47.650,147.200 48.200 C 147.200 48.750,147.393 49.200,147.629 49.200 C 148.078 49.200,149.200 50.179,149.200 50.571 C 149.200 50.697,148.750 50.800,148.200 50.800 C 147.578 50.800,147.200 51.027,147.200 51.400 C 147.200 51.733,146.844 52.000,146.400 52.000 C 145.960 52.000,145.600 52.180,145.600 52.400 C 145.600 52.620,144.970 52.800,144.200 52.800 C 143.430 52.800,142.800 52.980,142.800 53.200 C 142.800 53.420,142.170 53.600,141.400 53.600 C 140.630 53.600,140.000 53.780,140.000 54.000 C 140.000 54.220,139.544 54.400,138.987 54.400 C 138.431 54.400,137.871 54.670,137.745 55.000 C 137.603 55.370,136.995 55.600,136.157 55.600 C 135.411 55.600,134.800 55.780,134.800 56.000 C 134.800 56.220,134.350 56.400,133.800 56.400 C 133.250 56.400,132.800 56.580,132.800 56.800 C 132.800 57.020,132.260 57.200,131.600 57.200 C 130.940 57.200,130.400 57.380,130.400 57.600 C 130.400 57.820,129.950 58.000,129.400 58.000 C 128.778 58.000,128.400 58.227,128.400 58.600 C 128.400 58.997,128.003 59.200,127.224 59.200 C 126.577 59.200,125.936 59.380,125.800 59.600 C 125.664 59.820,125.203 60.000,124.776 60.000 C 124.349 60.000,124.000 60.180,124.000 60.400 C 124.000 60.620,123.550 60.800,123.000 60.800 C 122.450 60.800,122.000 60.980,122.000 61.200 C 122.000 61.420,121.544 61.600,120.987 61.600 C 120.431 61.600,119.871 61.870,119.745 62.200 C 119.618 62.530,119.084 62.800,118.557 62.800 C 118.031 62.800,117.600 62.980,117.600 63.200 C 117.600 63.420,117.251 63.600,116.824 63.600 C 116.397 63.600,115.936 63.780,115.800 64.000 C 115.664 64.220,115.203 64.400,114.776 64.400 C 114.349 64.400,114.000 64.580,114.000 64.800 C 114.000 65.020,113.724 65.200,113.387 65.200 C 113.051 65.200,112.671 65.470,112.545 65.800 C 112.418 66.130,112.008 66.400,111.633 66.400 C 111.258 66.400,110.564 66.760,110.092 67.200 C 109.620 67.640,108.909 68.000,108.512 68.000 C 108.115 68.000,107.452 68.450,107.039 69.000 C 106.626 69.550,105.953 70.000,105.544 70.000 C 105.135 70.000,104.800 70.180,104.800 70.400 C 104.800 70.620,104.555 70.800,104.256 70.800 C 103.957 70.800,103.044 71.430,102.227 72.200 C 101.411 72.970,100.595 73.600,100.413 73.600 C 100.232 73.600,99.226 74.410,98.178 75.400 C 97.130 76.390,96.109 77.200,95.908 77.200 C 95.707 77.200,95.315 77.425,95.037 77.700 C 94.759 77.975,94.052 78.558,93.466 78.995 C 92.880 79.432,92.400 79.940,92.400 80.124 C 92.400 80.529,91.367 81.600,90.975 81.600 C 90.821 81.600,90.358 81.988,89.947 82.461 C 89.536 82.935,89.200 83.170,89.200 82.984 C 89.200 82.798,88.724 83.220,88.142 83.923 C 87.560 84.625,86.829 85.200,86.518 85.200 C 86.207 85.200,86.064 85.380,86.200 85.600 C 86.336 85.820,86.167 86.000,85.824 86.000 C 85.481 86.000,85.200 86.281,85.200 86.624 C 85.200 86.967,85.020 87.136,84.800 87.000 C 84.580 86.864,84.400 87.033,84.400 87.376 C 84.400 87.719,84.214 88.000,83.987 88.000 C 83.449 88.000,80.800 90.649,80.800 91.187 C 80.800 91.414,80.612 91.600,80.382 91.600 C 79.861 91.600,78.562 92.915,77.021 95.003 C 76.372 95.881,75.517 96.891,75.121 97.247 C 74.724 97.603,74.400 98.016,74.400 98.165 C 74.400 98.314,73.995 98.870,73.500 99.399 C 72.000 101.004,71.600 101.547,71.600 101.983 C 71.600 102.212,71.420 102.400,71.200 102.400 C 70.980 102.400,70.800 102.682,70.800 103.027 C 70.800 103.372,70.170 104.248,69.400 104.974 C 68.630 105.700,68.000 106.548,68.000 106.859 C 68.000 107.169,67.640 107.683,67.200 108.000 C 66.760 108.317,66.400 108.872,66.400 109.232 C 66.400 109.593,65.950 110.226,65.400 110.639 C 64.850 111.052,64.400 111.673,64.400 112.020 C 64.400 112.366,64.040 113.036,63.600 113.508 C 63.160 113.980,62.800 114.563,62.800 114.802 C 62.800 115.042,62.350 115.655,61.800 116.165 C 61.250 116.675,60.800 117.386,60.800 117.746 C 60.800 118.106,60.620 118.400,60.400 118.400 C 60.180 118.400,60.000 118.670,60.000 119.000 C 60.000 119.330,59.820 119.600,59.600 119.600 C 59.380 119.600,59.200 119.960,59.200 120.400 C 59.200 120.844,58.933 121.200,58.600 121.200 C 58.270 121.200,58.000 121.549,58.000 121.976 C 58.000 122.403,57.820 122.864,57.600 123.000 C 57.380 123.136,57.200 123.597,57.200 124.024 C 57.200 124.451,57.020 124.800,56.800 124.800 C 56.580 124.800,56.400 125.160,56.400 125.600 C 56.400 126.040,56.241 126.400,56.047 126.400 C 55.852 126.400,55.588 126.715,55.458 127.100 C 55.157 127.998,54.314 129.316,53.800 129.694 C 53.580 129.856,53.556 129.991,53.746 129.994 C 53.936 129.997,53.801 130.444,53.446 130.986 C 53.091 131.528,52.800 132.328,52.800 132.762 C 52.800 133.197,52.620 133.664,52.400 133.800 C 52.180 133.936,52.000 134.397,52.000 134.824 C 52.000 135.251,51.730 135.600,51.400 135.600 C 51.027 135.600,50.800 135.978,50.800 136.600 C 50.800 137.150,50.620 137.600,50.400 137.600 C 50.180 137.600,50.000 138.140,50.000 138.800 C 50.000 139.460,49.820 140.000,49.600 140.000 C 49.380 140.000,49.200 140.450,49.200 141.000 C 49.200 141.550,49.020 142.000,48.800 142.000 C 48.580 142.000,48.400 142.630,48.400 143.400 C 48.400 144.378,48.219 144.800,47.800 144.800 C 47.400 144.800,47.200 145.200,47.200 146.000 C 47.200 146.660,47.020 147.200,46.800 147.200 C 46.580 147.200,46.400 147.830,46.400 148.600 C 46.400 149.370,46.220 150.000,46.000 150.000 C 45.780 150.000,45.600 150.615,45.600 151.367 C 45.600 152.118,45.396 152.801,45.147 152.884 C 44.897 152.968,44.672 153.610,44.647 154.312 C 44.621 155.015,44.375 155.676,44.100 155.782 C 43.816 155.891,43.600 156.662,43.600 157.564 C 43.600 158.438,43.420 159.264,43.200 159.400 C 42.980 159.536,42.800 160.537,42.800 161.624 C 42.800 162.711,42.620 163.600,42.400 163.600 C 42.180 163.600,42.000 164.374,42.000 165.320 C 42.000 166.266,41.802 167.238,41.559 167.481 C 41.317 167.723,41.038 169.154,40.940 170.661 C 40.842 172.167,40.590 173.460,40.381 173.533 C 40.171 173.607,40.000 174.462,40.000 175.433 C 40.000 176.405,39.820 177.200,39.600 177.200 C 39.380 177.200,39.200 178.111,39.200 179.224 C 39.200 180.471,39.047 181.152,38.800 181.000 C 38.549 180.845,38.400 181.718,38.400 183.343 C 38.400 184.820,38.217 185.994,37.974 186.075 C 37.740 186.153,37.452 187.203,37.335 188.409 C 37.217 189.614,36.959 190.660,36.761 190.733 C 36.562 190.807,36.400 192.652,36.400 194.833 C 36.400 197.211,36.240 198.800,36.000 198.800 C 35.453 198.800,35.453 221.062,36.000 221.400 C 36.220 221.536,36.400 222.975,36.400 224.598 C 36.400 226.220,36.577 228.013,36.793 228.581 C 37.009 229.149,37.265 230.461,37.361 231.497 C 37.458 232.532,37.731 233.444,37.969 233.523 C 38.206 233.602,38.400 234.462,38.400 235.433 C 38.400 236.405,38.580 237.200,38.800 237.200 C 39.020 237.200,39.200 238.010,39.200 239.000 C 39.200 239.990,39.380 240.800,39.600 240.800 C 39.820 240.800,40.000 241.394,40.000 242.120 C 40.000 242.846,40.190 243.630,40.422 243.862 C 40.654 244.094,40.921 244.894,41.015 245.640 C 41.110 246.385,41.370 247.057,41.593 247.131 C 41.817 247.206,42.000 247.882,42.000 248.633 C 42.000 249.385,42.141 250.000,42.313 250.000 C 42.485 250.000,42.877 250.851,43.184 251.891 C 43.491 252.932,43.979 254.237,44.269 254.791 C 44.558 255.346,44.796 256.115,44.798 256.500 C 44.799 256.885,44.980 257.200,45.200 257.200 C 45.420 257.200,45.600 257.560,45.600 258.000 C 45.600 258.440,45.780 258.800,46.000 258.800 C 46.220 258.800,46.400 259.250,46.400 259.800 C 46.400 260.350,46.580 260.800,46.800 260.800 C 47.020 260.800,47.200 261.138,47.200 261.551 C 47.200 261.964,47.470 262.526,47.800 262.800 C 48.130 263.074,48.400 263.625,48.400 264.025 C 48.400 264.425,48.580 264.864,48.800 265.000 C 49.020 265.136,49.200 265.582,49.200 265.990 C 49.200 266.399,49.388 266.796,49.618 266.873 C 49.848 266.949,50.066 267.414,50.103 267.906 C 50.140 268.398,50.312 268.800,50.485 268.800 C 50.658 268.800,50.800 269.051,50.800 269.357 C 50.800 269.664,51.070 270.018,51.400 270.145 C 51.730 270.271,52.000 270.651,52.000 270.987 C 52.000 271.324,52.180 271.600,52.400 271.600 C 52.620 271.600,52.800 271.960,52.800 272.400 C 52.800 272.840,52.980 273.200,53.200 273.200 C 53.420 273.200,53.600 273.573,53.600 274.029 C 53.600 274.484,53.825 275.108,54.100 275.415 C 55.287 276.738,55.600 277.191,55.600 277.583 C 55.600 277.812,55.780 278.000,56.000 278.000 C 56.220 278.000,56.400 278.360,56.400 278.800 C 56.400 279.240,56.580 279.600,56.800 279.600 C 57.020 279.600,57.200 279.960,57.200 280.400 C 57.200 280.840,57.380 281.200,57.600 281.200 C 57.820 281.200,58.000 281.470,58.000 281.800 C 58.000 282.130,58.270 282.400,58.600 282.400 C 58.933 282.400,59.200 282.756,59.200 283.200 C 59.200 283.640,59.380 284.000,59.600 284.000 C 59.820 284.000,60.000 284.255,60.000 284.567 C 60.000 284.878,60.166 285.193,60.370 285.267 C 60.573 285.340,60.798 285.657,60.870 285.972 C 61.067 286.836,62.099 287.986,62.471 287.756 C 62.652 287.644,62.800 287.974,62.800 288.488 C 62.800 289.003,63.160 289.683,63.600 290.000 C 64.040 290.317,64.400 290.897,64.400 291.288 C 64.400 291.680,64.580 292.000,64.800 292.000 C 65.020 292.000,65.200 292.270,65.200 292.600 C 65.200 292.930,65.470 293.200,65.800 293.200 C 66.133 293.200,66.400 293.556,66.400 294.000 C 66.400 294.440,66.580 294.800,66.800 294.800 C 67.020 294.800,67.200 294.988,67.200 295.218 C 67.200 295.761,69.039 297.600,69.582 297.600 C 69.812 297.600,70.000 297.937,70.000 298.350 C 70.000 298.762,70.810 299.945,71.800 300.978 C 72.790 302.012,73.600 303.042,73.600 303.268 C 73.600 303.494,74.140 304.183,74.800 304.800 C 75.460 305.417,76.000 306.119,76.000 306.360 C 76.000 306.602,76.188 306.800,76.418 306.800 C 76.961 306.800,78.800 308.639,78.800 309.182 C 78.800 309.412,78.968 309.600,79.173 309.600 C 79.378 309.600,79.661 309.963,79.802 310.406 C 79.943 310.849,80.198 311.125,80.369 311.019 C 80.540 310.914,80.917 311.271,81.207 311.814 C 81.498 312.356,81.885 312.800,82.068 312.800 C 82.250 312.800,82.400 312.993,82.400 313.229 C 82.400 313.695,83.385 314.800,83.800 314.800 C 84.225 314.800,85.200 315.910,85.200 316.395 C 85.200 316.644,85.380 316.736,85.600 316.600 C 85.820 316.464,86.000 316.556,86.000 316.805 C 86.000 317.290,86.975 318.400,87.400 318.400 C 87.728 318.400,88.800 319.464,88.800 319.790 C 88.800 320.111,90.689 322.000,91.010 322.000 C 91.387 322.000,92.400 323.096,92.400 323.504 C 92.400 323.702,92.844 324.102,93.386 324.393 C 93.929 324.683,94.278 325.073,94.163 325.260 C 94.047 325.447,94.191 325.600,94.481 325.600 C 94.772 325.600,95.368 326.085,95.805 326.678 C 96.242 327.270,96.935 328.035,97.345 328.378 C 97.754 328.720,98.326 329.225,98.616 329.500 C 98.906 329.775,99.395 330.000,99.704 330.000 C 100.012 330.000,100.506 330.450,100.800 331.000 C 101.094 331.550,101.484 332.000,101.665 332.000 C 101.847 332.000,102.817 332.810,103.821 333.800 C 104.825 334.790,105.831 335.600,106.057 335.600 C 106.282 335.600,107.050 336.185,107.762 336.900 C 108.475 337.615,109.273 338.246,109.535 338.302 C 109.797 338.358,110.575 338.943,111.265 339.602 C 111.954 340.261,112.852 340.800,113.259 340.800 C 113.667 340.800,114.000 340.993,114.000 341.229 C 114.000 341.782,115.018 342.800,115.571 342.800 C 115.807 342.800,116.000 342.980,116.000 343.200 C 116.000 343.420,116.278 343.600,116.617 343.600 C 116.957 343.600,117.720 344.050,118.313 344.600 C 118.907 345.150,119.536 345.600,119.713 345.600 C 119.889 345.600,120.420 345.960,120.892 346.400 C 121.364 346.840,122.077 347.200,122.475 347.200 C 122.874 347.200,123.200 347.380,123.200 347.600 C 123.200 347.820,123.560 348.000,124.000 348.000 C 124.444 348.000,124.800 348.267,124.800 348.600 C 124.800 348.933,125.156 349.200,125.600 349.200 C 126.040 349.200,126.400 349.380,126.400 349.600 C 126.400 349.820,126.670 350.000,127.000 350.000 C 127.330 350.000,127.600 350.180,127.600 350.400 C 127.600 350.620,127.960 350.800,128.400 350.800 C 128.840 350.800,129.200 350.980,129.200 351.200 C 129.200 351.420,129.650 351.600,130.200 351.600 C 130.750 351.600,131.200 351.767,131.200 351.971 C 131.200 352.444,133.498 353.600,134.438 353.600 C 134.831 353.600,135.264 353.780,135.400 354.000 C 135.536 354.220,136.087 354.400,136.624 354.400 C 137.161 354.400,137.600 354.580,137.600 354.800 C 137.600 355.020,138.140 355.200,138.800 355.200 C 139.600 355.200,140.000 355.400,140.000 355.800 C 140.000 356.219,140.422 356.400,141.400 356.400 C 142.170 356.400,142.800 356.580,142.800 356.800 C 142.800 357.020,143.430 357.200,144.200 357.200 C 144.970 357.200,145.600 357.380,145.600 357.600 C 145.600 357.820,146.230 358.000,147.000 358.000 C 147.770 358.000,148.400 358.180,148.400 358.400 C 148.400 358.620,149.191 358.800,150.157 358.800 C 151.350 358.800,151.988 358.993,152.145 359.400 C 152.319 359.854,153.054 360.000,155.164 360.000 C 156.698 360.000,158.064 360.180,158.200 360.400 C 158.340 360.627,160.337 360.800,162.824 360.800 C 165.475 360.800,167.200 360.958,167.200 361.200 C 167.200 361.453,170.000 361.600,174.800 361.600 C 179.600 361.600,182.400 361.453,182.400 361.200 C 182.400 360.977,183.475 360.800,184.824 360.800 C 186.337 360.800,187.154 360.950,187.000 361.200 C 186.837 361.463,191.063 361.600,199.376 361.600 C 207.525 361.600,212.000 361.458,212.000 361.200 C 212.000 360.960,213.592 360.800,215.976 360.800 C 218.196 360.800,220.062 360.623,220.200 360.400 C 220.336 360.180,221.607 360.000,223.024 360.000 C 225.047 360.000,225.600 359.871,225.600 359.400 C 225.600 358.929,226.153 358.800,228.176 358.800 C 229.593 358.800,230.864 358.620,231.000 358.400 C 231.136 358.180,231.946 358.000,232.800 358.000 C 233.654 358.000,234.464 357.820,234.600 357.600 C 234.736 357.380,235.546 357.200,236.400 357.200 C 237.254 357.200,238.064 357.020,238.200 356.800 C 238.336 356.580,239.162 356.400,240.036 356.400 C 241.080 356.400,241.704 356.194,241.855 355.800 C 241.987 355.458,242.583 355.200,243.243 355.200 C 243.879 355.200,244.400 355.020,244.400 354.800 C 244.400 354.580,245.030 354.400,245.800 354.400 C 246.570 354.400,247.200 354.220,247.200 354.000 C 247.200 353.780,247.830 353.600,248.600 353.600 C 249.370 353.600,250.000 353.420,250.000 353.200 C 250.000 352.980,250.521 352.800,251.157 352.800 C 251.817 352.800,252.413 352.542,252.545 352.200 C 252.671 351.870,253.239 351.600,253.806 351.600 C 254.373 351.600,255.286 351.150,255.836 350.600 C 256.386 350.050,257.083 349.600,257.385 349.600 C 257.687 349.600,257.993 349.455,258.067 349.278 C 258.140 349.101,259.460 348.434,261.000 347.794 C 267.280 345.188,276.258 340.433,283.163 336.055 C 285.493 334.578,289.920 332.117,293.000 330.588 C 296.080 329.058,299.400 327.310,300.378 326.703 C 301.382 326.080,302.732 325.600,303.478 325.600 C 304.205 325.600,304.800 325.420,304.800 325.200 C 304.800 324.980,305.044 324.800,305.342 324.800 C 305.639 324.800,306.369 324.350,306.962 323.800 C 307.556 323.250,308.352 322.800,308.732 322.800 C 309.112 322.800,309.683 322.440,310.000 322.000 C 310.317 321.560,310.831 321.200,311.142 321.200 C 311.454 321.200,312.125 320.750,312.635 320.200 C 313.145 319.650,313.801 319.200,314.093 319.200 C 314.385 319.200,314.883 318.840,315.200 318.400 C 315.517 317.960,315.985 317.600,316.239 317.600 C 316.493 317.600,317.427 316.925,318.315 316.100 C 320.238 314.311,320.893 313.765,322.997 312.193 C 325.104 310.619,326.400 309.334,326.400 308.818 C 326.400 308.588,326.593 308.400,326.829 308.400 C 327.339 308.400,328.400 307.399,328.400 306.917 C 328.400 306.730,328.760 306.317,329.200 306.000 C 329.640 305.683,330.000 305.103,330.000 304.712 C 330.000 304.320,330.188 304.000,330.418 304.000 C 330.961 304.000,332.800 302.161,332.800 301.618 C 332.800 301.388,332.980 301.200,333.200 301.200 C 333.420 301.200,333.600 300.919,333.600 300.576 C 333.600 300.233,333.767 300.056,333.971 300.182 C 334.175 300.308,334.471 300.004,334.628 299.506 C 334.786 299.008,335.249 298.309,335.657 297.953 C 336.066 297.597,336.400 297.012,336.400 296.653 C 336.400 296.294,336.580 296.000,336.800 296.000 C 337.020 296.000,337.200 295.719,337.200 295.376 C 337.200 295.033,337.348 294.844,337.529 294.956 C 337.957 295.221,339.200 293.763,339.200 292.995 C 339.200 292.668,339.380 292.400,339.600 292.400 C 339.820 292.400,340.000 291.950,340.000 291.400 C 340.000 290.850,340.180 290.400,340.400 290.400 C 340.620 290.400,340.800 290.040,340.800 289.600 C 340.800 289.156,341.067 288.800,341.400 288.800 C 341.758 288.800,342.000 288.432,342.000 287.888 C 342.000 287.387,342.360 286.717,342.800 286.400 C 343.240 286.083,343.600 285.413,343.600 284.912 C 343.600 284.410,343.780 284.000,344.000 284.000 C 344.220 284.000,344.400 283.640,344.400 283.200 C 344.400 282.760,344.545 282.400,344.723 282.400 C 345.127 282.400,346.400 279.564,346.400 278.666 C 346.400 278.300,346.580 278.000,346.800 278.000 C 347.020 278.000,347.200 277.550,347.200 277.000 C 347.200 276.450,347.380 276.000,347.600 276.000 C 347.820 276.000,348.000 275.627,348.000 275.171 C 348.000 274.716,348.270 274.073,348.600 273.743 C 348.930 273.413,349.200 272.796,349.200 272.371 C 349.200 271.947,349.380 271.600,349.600 271.600 C 349.820 271.600,350.000 271.071,350.000 270.424 C 350.000 269.777,350.180 269.136,350.400 269.000 C 350.620 268.864,350.800 268.133,350.800 267.376 C 350.800 266.619,350.980 266.000,351.200 266.000 C 351.420 266.000,351.600 265.544,351.600 264.987 C 351.600 264.431,351.870 263.871,352.200 263.745 C 352.570 263.603,352.800 262.995,352.800 262.157 C 352.800 261.411,352.980 260.800,353.200 260.800 C 353.420 260.800,353.600 260.170,353.600 259.400 C 353.600 258.630,353.780 258.000,354.000 258.000 C 354.220 258.000,354.400 257.205,354.400 256.233 C 354.400 255.262,354.602 254.399,354.849 254.317 C 355.096 254.235,355.318 253.410,355.342 252.484 C 355.370 251.415,355.571 250.800,355.893 250.800 C 356.227 250.800,356.400 250.186,356.400 249.000 C 356.400 248.010,356.580 247.200,356.800 247.200 C 357.020 247.200,357.200 246.210,357.200 245.000 C 357.200 243.790,357.380 242.800,357.600 242.800 C 357.820 242.800,358.000 241.846,358.000 240.680 C 358.000 239.514,358.188 238.372,358.417 238.143 C 358.646 237.914,358.915 236.663,359.015 235.364 C 359.115 234.064,359.377 232.941,359.598 232.867 C 359.827 232.791,360.000 231.207,360.000 229.190 C 360.000 227.242,360.180 225.536,360.400 225.400 C 360.630 225.258,360.800 223.137,360.800 220.400 C 360.800 217.663,360.970 215.542,361.200 215.400 C 361.454 215.243,361.600 210.063,361.600 201.176 C 361.600 192.125,361.459 187.200,361.200 187.200 C 360.952 187.200,360.800 185.067,360.800 181.600 C 360.800 178.133,360.648 176.000,360.400 176.000 C 360.164 176.000,360.000 174.560,360.000 172.480 C 360.000 170.544,359.824 168.784,359.609 168.569 C 359.394 168.354,359.150 166.958,359.067 165.467 C 358.984 163.976,358.710 162.550,358.458 162.298 C 358.206 162.046,358.000 160.811,358.000 159.553 C 358.000 158.296,357.830 157.207,357.622 157.133 C 357.415 157.060,357.205 155.875,357.157 154.500 C 357.108 153.125,356.918 152.000,356.734 152.000 C 356.550 152.000,356.400 151.316,356.400 150.480 C 356.400 149.644,356.201 148.761,355.957 148.517 C 355.713 148.273,355.446 147.214,355.364 146.164 C 355.281 145.113,355.030 144.070,354.807 143.847 C 354.583 143.623,354.400 142.846,354.400 142.120 C 354.400 141.394,354.220 140.800,354.000 140.800 C 353.780 140.800,353.600 140.080,353.600 139.200 C 353.600 138.320,353.420 137.600,353.200 137.600 C 352.980 137.600,352.794 137.015,352.787 136.300 C 352.780 135.585,352.510 134.651,352.187 134.224 C 351.864 133.796,351.600 133.042,351.600 132.547 C 351.600 132.052,351.420 131.536,351.200 131.400 C 350.980 131.264,350.800 130.711,350.800 130.171 C 350.800 129.631,350.592 128.787,350.338 128.295 C 349.326 126.338,349.200 125.974,349.200 125.005 C 349.200 124.378,348.974 124.000,348.600 124.000 C 348.226 124.000,348.000 123.622,348.000 122.995 C 348.000 122.442,347.820 121.632,347.600 121.195 C 347.380 120.758,347.020 120.042,346.800 119.605 C 346.580 119.168,346.400 118.538,346.400 118.205 C 346.400 117.872,346.220 117.600,346.000 117.600 C 345.780 117.600,345.600 117.259,345.600 116.843 C 345.600 116.426,345.330 115.982,345.000 115.855 C 344.670 115.729,344.400 115.259,344.400 114.813 C 344.400 114.366,344.220 114.000,344.000 114.000 C 343.780 114.000,343.600 113.550,343.600 113.000 C 343.600 112.450,343.420 112.000,343.200 112.000 C 342.980 112.000,342.800 111.640,342.800 111.200 C 342.800 110.760,342.620 110.400,342.400 110.400 C 342.180 110.400,342.000 110.034,342.000 109.587 C 342.000 109.141,341.730 108.671,341.400 108.545 C 341.070 108.418,340.800 108.013,340.800 107.646 C 340.800 107.278,340.440 106.717,340.000 106.400 C 339.560 106.083,339.200 105.490,339.200 105.083 C 339.200 104.272,338.306 103.200,337.629 103.200 C 337.393 103.200,337.200 102.822,337.200 102.360 C 337.200 101.899,336.660 101.017,336.000 100.400 C 335.340 99.783,334.800 99.119,334.800 98.923 C 334.800 98.727,334.202 97.933,333.472 97.158 C 332.741 96.384,332.020 95.429,331.870 95.037 C 331.719 94.645,331.237 94.230,330.798 94.115 C 330.359 94.001,330.000 93.645,330.000 93.325 C 330.000 92.670,323.396 86.000,322.748 86.000 C 322.518 86.000,321.332 85.010,320.113 83.800 C 318.893 82.590,317.649 81.600,317.348 81.600 C 317.046 81.600,316.800 81.420,316.800 81.200 C 316.800 80.980,316.530 80.800,316.200 80.800 C 315.870 80.800,315.600 80.607,315.600 80.371 C 315.600 79.764,314.560 78.800,313.904 78.800 C 313.600 78.800,312.964 78.440,312.492 78.000 C 312.020 77.560,311.356 77.200,311.017 77.200 C 310.678 77.200,310.400 76.958,310.400 76.663 C 310.400 76.367,309.590 75.709,308.600 75.200 C 307.610 74.691,306.800 74.123,306.800 73.937 C 306.800 73.752,306.350 73.600,305.800 73.600 C 305.250 73.600,304.800 73.407,304.800 73.171 C 304.800 72.458,303.710 71.600,302.805 71.600 C 302.336 71.600,302.064 71.420,302.200 71.200 C 302.340 70.973,302.004 70.800,301.424 70.800 C 300.861 70.800,300.400 70.620,300.400 70.400 C 300.400 70.180,300.130 70.000,299.800 70.000 C 299.470 70.000,299.200 69.819,299.200 69.599 C 299.200 69.378,298.480 68.886,297.600 68.504 C 296.720 68.123,296.000 67.674,296.000 67.506 C 296.000 67.338,295.550 67.200,295.000 67.200 C 294.450 67.200,294.000 67.020,294.000 66.800 C 294.000 66.580,293.640 66.400,293.200 66.400 C 292.756 66.400,292.400 66.133,292.400 65.800 C 292.400 65.427,292.022 65.200,291.400 65.200 C 290.850 65.200,290.400 65.020,290.400 64.800 C 290.400 64.580,290.040 64.400,289.600 64.400 C 289.160 64.400,288.800 64.220,288.800 64.000 C 288.800 63.780,288.350 63.600,287.800 63.600 C 287.250 63.600,286.800 63.420,286.800 63.200 C 286.800 62.980,286.440 62.800,286.000 62.800 C 285.556 62.800,285.200 62.533,285.200 62.200 C 285.200 61.827,284.822 61.600,284.200 61.600 C 283.650 61.600,283.200 61.420,283.200 61.200 C 283.200 60.980,282.840 60.800,282.400 60.800 C 281.960 60.800,281.600 60.620,281.600 60.400 C 281.600 60.180,280.970 60.000,280.200 60.000 C 279.430 60.000,278.800 59.820,278.800 59.600 C 278.800 59.380,278.462 59.200,278.049 59.200 C 277.636 59.200,277.074 58.930,276.800 58.600 C 276.526 58.270,275.874 58.000,275.351 58.000 C 274.828 58.000,274.400 57.820,274.400 57.600 C 274.400 57.380,273.950 57.200,273.400 57.200 C 272.850 57.200,272.400 57.020,272.400 56.800 C 272.400 56.580,271.939 56.400,271.376 56.400 C 270.796 56.400,270.460 56.227,270.600 56.000 C 270.747 55.763,270.285 55.600,269.466 55.600 C 268.608 55.600,267.998 55.373,267.855 55.000 C 267.721 54.649,267.121 54.400,266.413 54.400 C 265.746 54.400,265.200 54.220,265.200 54.000 C 265.200 53.780,264.851 53.600,264.424 53.600 C 263.997 53.600,263.536 53.420,263.400 53.200 C 263.264 52.980,262.443 52.800,261.576 52.800 C 260.709 52.800,260.000 52.620,260.000 52.400 C 260.000 52.180,259.280 52.000,258.400 52.000 C 257.354 52.000,256.800 51.820,256.800 51.480 C 256.800 51.125,256.371 51.011,255.447 51.119 C 254.703 51.205,253.973 51.079,253.824 50.838 C 253.675 50.597,253.233 50.400,252.841 50.400 C 251.911 50.400,245.600 47.228,245.600 46.761 C 245.600 46.562,245.150 46.400,244.600 46.400 C 244.050 46.400,243.600 46.220,243.600 46.000 C 243.600 45.780,243.060 45.600,242.400 45.600 C 241.670 45.600,241.200 45.392,241.200 45.069 C 241.200 44.707,240.819 44.594,240.000 44.715 C 239.090 44.848,238.800 44.735,238.800 44.245 C 238.800 43.867,238.469 43.600,238.000 43.600 C 237.560 43.600,237.200 43.420,237.200 43.200 C 237.200 42.980,236.660 42.800,236.000 42.800 C 235.340 42.800,234.800 42.620,234.800 42.400 C 234.800 42.180,234.185 42.000,233.433 42.000 C 232.682 42.000,232.000 41.799,231.918 41.554 C 231.836 41.309,231.240 41.050,230.593 40.979 C 229.946 40.908,229.353 40.659,229.275 40.425 C 229.197 40.191,228.518 40.000,227.767 40.000 C 227.015 40.000,226.400 39.820,226.400 39.600 C 226.400 39.380,225.590 39.200,224.600 39.200 C 223.067 39.200,222.800 39.081,222.800 38.400 C 222.800 37.960,222.620 37.600,222.400 37.600 C 222.180 37.600,222.000 37.330,222.000 37.000 C 222.000 36.667,221.644 36.400,221.200 36.400 C 220.760 36.400,220.400 36.220,220.400 36.000 C 220.400 35.780,219.770 35.600,219.000 35.600 C 218.230 35.600,217.600 35.420,217.600 35.200 C 217.600 34.967,216.267 34.800,214.400 34.800 C 212.533 34.800,211.200 34.967,211.200 35.200 M208.534 48.420 C 210.621 48.887,210.800 49.015,210.800 50.035 C 210.800 53.736,215.624 55.214,218.500 52.395 C 220.255 50.675,220.834 50.604,224.336 51.677 C 225.071 51.902,227.051 52.439,228.736 52.871 C 230.421 53.302,232.340 53.810,233.000 54.000 C 238.188 55.491,241.262 56.402,242.800 56.906 C 243.790 57.230,245.680 57.810,247.000 58.195 C 249.321 58.871,263.857 66.074,266.046 67.633 C 266.638 68.055,267.216 68.400,267.329 68.400 C 268.660 68.400,291.772 83.886,293.600 86.003 C 293.710 86.131,295.420 87.569,297.400 89.199 C 311.998 101.221,328.659 122.137,336.272 138.000 C 342.836 151.678,348.000 169.072,349.988 184.200 C 350.248 186.180,350.655 189.060,350.892 190.600 C 352.971 204.104,350.751 227.821,346.118 241.600 C 344.124 247.530,343.512 249.007,339.568 257.400 C 336.613 263.689,328.131 277.449,322.924 284.400 C 312.940 297.727,305.014 306.670,296.205 314.544 C 294.448 316.115,292.558 317.820,292.005 318.334 C 289.508 320.656,281.992 325.938,280.000 326.770 C 278.790 327.276,277.080 328.011,276.200 328.404 C 271.917 330.314,268.949 331.440,259.600 334.703 C 255.675 336.073,245.841 339.243,243.200 339.989 C 242.210 340.269,240.590 340.743,239.600 341.043 C 231.892 343.376,216.015 346.971,205.600 348.742 C 192.089 351.039,184.850 351.607,179.646 350.779 C 178.191 350.547,175.740 350.169,174.200 349.939 C 170.917 349.447,162.415 347.754,160.400 347.190 C 159.630 346.975,156.660 346.162,153.800 345.384 C 148.800 344.023,147.128 343.506,145.400 342.786 C 144.960 342.602,143.176 341.963,141.435 341.364 C 139.695 340.766,136.815 339.570,135.035 338.707 C 133.256 337.844,130.810 336.665,129.600 336.086 C 106.826 325.199,78.313 297.570,65.526 274.000 C 64.750 272.570,63.572 270.410,62.909 269.200 C 61.220 266.122,57.130 256.176,55.589 251.400 C 54.246 247.236,53.852 245.816,53.203 242.800 C 52.990 241.810,52.533 239.740,52.189 238.200 C 47.207 215.932,47.500 183.218,52.830 166.600 C 56.035 156.606,58.387 149.883,59.967 146.200 C 60.156 145.760,60.993 143.690,61.826 141.600 C 64.190 135.675,68.343 126.816,70.828 122.400 C 71.509 121.190,72.708 119.030,73.493 117.600 C 81.582 102.867,95.516 89.581,113.800 79.170 C 119.061 76.174,122.858 74.202,131.800 69.819 C 145.522 63.092,148.053 61.919,148.303 62.170 C 148.422 62.289,148.717 62.777,148.960 63.254 C 150.704 66.694,155.757 66.361,157.219 62.710 C 158.990 58.290,159.218 58.153,169.400 55.400 C 172.260 54.626,175.230 53.823,176.000 53.614 C 176.770 53.406,180.010 52.589,183.200 51.800 C 186.390 51.011,189.630 50.201,190.400 50.001 C 201.336 47.158,202.459 47.061,208.534 48.420 M191.800 131.796 C 167.313 136.072,149.421 148.111,154.001 157.230 C 156.594 162.393,160.638 163.350,166.126 160.100 C 166.962 159.605,167.710 159.200,167.788 159.200 C 167.866 159.200,168.891 158.563,170.065 157.785 C 174.990 154.522,184.579 150.446,189.400 149.567 C 190.500 149.366,192.210 149.029,193.200 148.818 C 196.617 148.090,206.334 148.314,209.836 149.202 C 220.659 151.947,225.418 157.823,225.384 168.400 C 225.351 178.591,221.505 185.738,207.086 202.400 C 192.488 219.270,187.554 246.800,199.129 246.800 C 203.708 246.800,205.273 245.040,206.192 238.857 C 207.037 233.169,209.016 227.027,210.868 224.338 C 211.271 223.754,211.600 223.147,211.600 222.989 C 211.600 221.871,218.904 212.784,225.415 205.800 C 240.653 189.457,245.567 179.830,245.591 166.271 C 245.618 151.657,238.281 141.172,223.417 134.585 C 215.642 131.139,202.300 129.963,191.800 131.796 M194.278 264.177 C 187.307 266.638,184.279 273.356,186.849 280.663 C 190.473 290.967,205.265 291.878,210.082 282.094 C 215.454 271.183,205.715 260.141,194.278 264.177 " stroke="none" fill="#c6d0f5" fill-rule="evenodd"></path></g></svg>