<?xml version="1.0" encoding="UTF-8"?>
<!DOCTYPE svg PUBLIC "-//W3C//DTD SVG 1.1//EN" "http://www.w3.org/Graphics/SVG/1.1/DTD/svg11.dtd">
<svg xmlns="http://www.w3.org/2000/svg" version="1.1" width="1247px" height="453px" style="shape-rendering:geometricPrecision; text-rendering:geometricPrecision; image-rendering:optimizeQuality; fill-rule:evenodd; clip-rule:evenodd" xmlns:xlink="http://www.w3.org/1999/xlink">
<g><path style="opacity:0.781" fill="#099268" d="M 121.5,39.5 C 456.167,39.3333 790.833,39.5 1125.5,40C 1171.13,43.9605 1197.96,68.4605 1206,113.5C 1207.64,186.143 1207.97,258.81 1207,331.5C 1201.45,382.051 1173.28,409.217 1122.5,413C 789.833,413.667 457.167,413.667 124.5,413C 74.2141,409.381 46.0475,382.547 40,332.5C 39.3333,261.833 39.3333,191.167 40,120.5C 45.8068,71.8595 72.9735,44.8595 121.5,39.5 Z"/></g>
<g><path style="opacity:0.961" fill="#22a37b" d="M 121.5,49.5 C 455.5,49.3333 789.5,49.5 1123.5,50C 1167.54,54.3699 1192.04,78.5365 1197,122.5C 1197.67,190.833 1197.67,259.167 1197,327.5C 1193.21,373.952 1168.05,399.119 1121.5,403C 789.833,403.667 458.167,403.667 126.5,403C 80.4116,399.911 54.9116,375.411 50,329.5C 49.3333,260.167 49.3333,190.833 50,121.5C 55.3445,78.9892 79.1778,54.9892 121.5,49.5 Z"/></g>
<g><path style="opacity:0.8" fill="#95f2d6" d="M 126.5,59.5 C 457.5,59.3333 788.5,59.5 1119.5,60C 1160.14,61.9763 1182.64,83.1429 1187,123.5C 1187.67,190.833 1187.67,258.167 1187,325.5C 1185.11,363.374 1165.61,385.541 1128.5,392C 791.5,392.667 454.5,392.667 117.5,392C 80.9611,385.113 61.7945,362.946 60,325.5C 59.3333,259.167 59.3333,192.833 60,126.5C 63.0212,84.9793 85.1878,62.6459 126.5,59.5 Z"/></g>
<g><path style="opacity:0.961" fill="#22a37b" d="M 987.5,171.5 C 994.841,170 999.007,173 1000,180.5C 1000.33,185.833 1000.67,191.167 1001,196.5C 1001.78,198.223 1003.11,199.223 1005,199.5C 1016.36,196.824 1027.86,195.99 1039.5,197C 1046.17,201 1046.17,205 1039.5,209C 1028.05,210.362 1016.72,212.362 1005.5,215C 1003.67,215.273 1002.17,216.107 1001,217.5C 1000.33,223.5 1000.33,229.5 1001,235.5C 1001.93,249.2 1003.27,262.867 1005,276.5C 1006.74,278.871 1009.08,280.205 1012,280.5C 1016.29,279.72 1020.45,278.554 1024.5,277C 1029.42,272.231 1031.92,266.398 1032,259.5C 1039.65,252.934 1044.15,254.767 1045.5,265C 1043.73,274.218 1039.4,281.884 1032.5,288C 1022.78,293.467 1012.44,296.467 1001.5,297C 998.898,296.117 996.731,294.617 995,292.5C 992.393,287.62 990.06,282.62 988,277.5C 986.963,260.182 986.297,242.849 986,225.5C 985.5,224.5 985,223.5 984.5,222.5C 981.216,221.343 977.882,221.176 974.5,222C 969.267,224.116 963.934,225.949 958.5,227.5C 951.131,224.62 948.298,219.286 950,211.5C 952.445,210.023 954.612,208.19 956.5,206C 965.922,205.44 975.255,204.273 984.5,202.5C 984.334,193.161 984.5,183.827 985,174.5C 986.045,173.627 986.878,172.627 987.5,171.5 Z"/></g>
<g><path style="opacity:0.961" fill="#22a37b" d="M 621.5,175.5 C 648.563,178.059 667.73,191.726 679,216.5C 678.301,245.07 665.468,266.237 640.5,280C 626.281,287.056 611.281,289.389 595.5,287C 576.115,281.284 564.948,268.451 562,248.5C 561.333,241.167 561.333,233.833 562,226.5C 568.433,207.781 579.6,192.615 595.5,181C 604.55,180.4 613.217,178.566 621.5,175.5 Z"/></g>
<g><path style="opacity:0.961" fill="#22a37b" d="M 215.5,182.5 C 222.469,181.47 226.136,184.47 226.5,191.5C 223.789,199.462 220.956,207.462 218,215.5C 215.49,227.47 215.156,239.47 217,251.5C 222.558,269.033 234.391,275.866 252.5,272C 257.916,269.861 263.249,267.528 268.5,265C 273.746,260.425 278.246,255.258 282,249.5C 289.042,233.381 292.542,216.548 292.5,199C 290.966,194.601 290.466,190.101 291,185.5C 299.375,180.072 305.375,182.072 309,191.5C 309.498,194.817 309.665,198.15 309.5,201.5C 352.781,188.066 397.114,182.233 442.5,184C 450.261,185.406 453.761,189.906 453,197.5C 452.5,198 452,198.5 451.5,199C 436.833,199.333 422.167,199.667 407.5,200C 401.68,200.048 396.013,200.881 390.5,202.5C 389.208,204.667 388.375,207 388,209.5C 386.695,233.47 387.861,257.303 391.5,281C 389.682,286.65 386.016,290.483 380.5,292.5C 376.832,290.997 374.332,288.33 373,284.5C 372.467,258.488 372.467,232.488 373,206.5C 372.5,206 372,205.5 371.5,205C 365.452,204.337 359.452,204.67 353.5,206C 346.619,208.377 339.619,210.377 332.5,212C 326.71,216.929 320.044,219.263 312.5,219C 311.646,217.978 310.646,217.145 309.5,216.5C 308.012,233.127 302.845,248.461 294,262.5C 287.003,270.839 278.836,277.673 269.5,283C 257.05,288.595 244.05,290.595 230.5,289C 212.177,280.89 202.343,266.723 201,246.5C 198.215,228.883 200.882,212.216 209,196.5C 208.011,190.191 210.177,185.525 215.5,182.5 Z"/></g>
<g><path style="opacity:0.961" fill="#22a37b" d="M 539.5,187.5 C 543.881,187.372 548.215,187.705 552.5,188.5C 552.666,192.514 552.499,196.514 552,200.5C 544.5,206 537,211.5 529.5,217C 522.561,223.694 515.728,230.527 509,237.5C 508.159,241.12 508.826,244.454 511,247.5C 523.094,262.684 535.428,277.684 548,292.5C 551.736,302.079 548.569,306.579 538.5,306C 533.699,302.201 529.199,298.034 525,293.5C 515.667,281.5 506.333,269.5 497,257.5C 495.938,256.101 494.605,255.101 493,254.5C 490.384,256.112 488.05,258.112 486,260.5C 481.279,267.276 477.612,274.609 475,282.5C 466.874,291.338 460.374,290.505 455.5,280C 456.661,275.844 458.495,272.011 461,268.5C 468.333,260.5 475.667,252.5 483,244.5C 483.167,243.5 483.333,242.5 483.5,241.5C 482.026,237.175 479.859,233.175 477,229.5C 472,224.5 467,219.5 462,214.5C 456.839,201.66 461.006,196.826 474.5,200C 482.752,207.086 489.752,215.252 495.5,224.5C 496.333,224.833 497.167,225.167 498,225.5C 502.178,223.993 506.011,221.826 509.5,219C 517.99,207.011 527.99,196.511 539.5,187.5 Z"/></g>
<g><path style="opacity:0.8" fill="#95f2d6" d="M 617.5,192.5 C 638.181,191.65 653.014,200.65 662,219.5C 662.517,237.968 655.017,252.135 639.5,262C 627.886,269.429 615.219,272.762 601.5,272C 579.651,262.481 572.485,246.315 580,223.5C 584.925,212.906 593.092,206.406 604.5,204C 607.813,198.844 612.146,195.011 617.5,192.5 Z"/></g>
<g><path style="opacity:0.961" fill="#22a37b" d="M 814.5,209.5 C 820.952,209.084 827.285,209.584 833.5,211C 837.432,215.596 837.432,220.263 833.5,225C 821.141,224.191 809.475,226.524 798.5,232C 797.115,234.585 797.782,236.585 800.5,238C 815.313,245.907 830.313,253.573 845.5,261C 854.817,266.619 859.317,274.785 859,285.5C 857.167,290 854,293.167 849.5,295C 830.69,301.297 812.023,300.964 793.5,294C 788.9,291.785 784.734,288.952 781,285.5C 779.595,281.928 779.262,278.261 780,274.5C 780.899,272.673 782.233,271.34 784,270.5C 790.13,271.647 795.297,274.481 799.5,279C 802.618,280.893 805.951,282.226 809.5,283C 817.833,283.667 826.167,283.667 834.5,283C 836.762,282.358 838.929,281.525 841,280.5C 841.825,278.299 841.325,276.466 839.5,275C 821.744,265.788 803.744,257.122 785.5,249C 779.711,245.545 774.878,241.045 771,235.5C 770.575,229.847 772.742,225.347 777.5,222C 789.716,217.095 802.05,212.928 814.5,209.5 Z"/></g>
<g><path style="opacity:0.961" fill="#22a37b" d="M 907.5,217.5 C 916.993,216.415 925.993,217.915 934.5,222C 944.376,230.587 946.209,240.754 940,252.5C 931.362,263.885 919.862,268.385 905.5,266C 899.769,264.635 894.769,261.969 890.5,258C 889.167,257.333 887.833,257.333 886.5,258C 880.002,266.229 880.169,274.395 887,282.5C 896.659,293.72 908.826,298.22 923.5,296C 930.023,294.603 936.357,292.603 942.5,290C 948.157,289.501 953.824,289.334 959.5,289.5C 959.665,292.85 959.498,296.183 959,299.5C 955.919,302.293 952.419,304.46 948.5,306C 937.635,308.633 926.635,310.466 915.5,311.5C 898.723,310.861 884.89,304.194 874,291.5C 865.768,280.616 864.435,268.949 870,256.5C 877.595,238.528 890.095,225.528 907.5,217.5 Z"/></g>
<g><path style="opacity:0.8" fill="#93f0d4" d="M 911.5,232.5 C 916.531,232.18 921.197,233.347 925.5,236C 929.367,239.249 929.367,242.582 925.5,246C 915.318,251.801 904.985,251.968 894.5,246.5C 899.023,240.298 904.689,235.632 911.5,232.5 Z"/></g>
</svg>
