<?xml version="1.0" encoding="UTF-8"?>
<!DOCTYPE svg PUBLIC "-//W3C//DTD SVG 1.1//EN" "http://www.w3.org/Graphics/SVG/1.1/DTD/svg11.dtd">
<svg xmlns="http://www.w3.org/2000/svg" version="1.1" width="445px" height="515px" style="shape-rendering:geometricPrecision; text-rendering:geometricPrecision; image-rendering:optimizeQuality; fill-rule:evenodd; clip-rule:evenodd" xmlns:xlink="http://www.w3.org/1999/xlink">
<g><path style="opacity:0.979" fill="#1e1e1e" d="M 206.5,44.5 C 272.867,40.9525 327.367,64.2858 370,114.5C 408.218,167.067 415.551,223.734 392,284.5C 363.306,343.493 316.472,378.66 251.5,390C 184.743,398.53 128.243,378.696 82,330.5C 39.4915,279.28 28.8249,221.947 50,158.5C 74.642,100.872 117.475,64.3722 178.5,49C 187.94,47.2492 197.273,45.7492 206.5,44.5 Z"/></g>
<g><path style="opacity:1" fill="#f7f8f9" d="M 208.5,64.5 C 264.962,61.6965 312.129,81.0298 350,122.5C 387.358,169.321 395.025,220.654 373,276.5C 347.111,329.352 304.944,360.519 246.5,370C 187.612,376.93 137.779,359.097 97,316.5C 55.0384,264.803 48.3717,208.803 77,148.5C 106.828,98.8831 150.662,70.8831 208.5,64.5 Z"/></g>
<g><path style="opacity:1" fill="#1f1f1f" d="M 250.5,245.5 C 249.691,247.292 249.191,249.292 249,251.5C 248.5,261.494 248.334,271.494 248.5,281.5C 248.259,299.502 247.925,317.502 247.5,335.5C 245.01,346.755 238.01,350.922 226.5,348C 222,346.167 218.833,343 217,338.5C 214.25,331.592 213.917,324.592 216,317.5C 216.976,293.835 217.809,270.169 218.5,246.5C 219.47,239.341 220.136,232.007 220.5,224.5C 221.419,204.494 221.419,184.494 220.5,164.5C 207.828,171.834 195.495,179.667 183.5,188C 178.603,190.283 173.603,192.283 168.5,194C 159.641,196.485 153.141,193.652 149,185.5C 148.333,181.833 148.333,178.167 149,174.5C 153.554,169.946 158.054,165.446 162.5,161C 179.406,152.047 196.406,143.381 213.5,135C 217.833,132 221.5,128.333 224.5,124C 227.672,122.248 230.672,120.248 233.5,118C 239.287,115.878 244.953,116.211 250.5,119C 251.211,120.255 252.044,121.421 253,122.5C 254.275,163.565 253.442,204.565 250.5,245.5 Z"/></g>
<g><path style="opacity:1" fill="#bbbcbd" d="M 220.5,224.5 C 220.136,232.007 219.47,239.341 218.5,246.5C 218.334,240.824 218.501,235.157 219,229.5C 219.198,227.618 219.698,225.952 220.5,224.5 Z"/></g>
<g><path style="opacity:1" fill="#545454" d="M 250.5,245.5 C 249.691,257.482 249.358,269.482 249.5,281.5C 249.167,281.5 248.833,281.5 248.5,281.5C 248.334,271.494 248.5,261.494 249,251.5C 249.191,249.292 249.691,247.292 250.5,245.5 Z"/></g>
<g><path style="opacity:1" fill="#8c8d8d" d="M 248.5,281.5 C 248.833,281.5 249.167,281.5 249.5,281.5C 249.703,299.689 249.037,317.689 247.5,335.5C 247.925,317.502 248.259,299.502 248.5,281.5 Z"/></g>
</svg>
