<?xml version="1.0" encoding="UTF-8"?>
<!DOCTYPE svg PUBLIC "-//W3C//DTD SVG 1.1//EN" "http://www.w3.org/Graphics/SVG/1.1/DTD/svg11.dtd">
<svg xmlns="http://www.w3.org/2000/svg" version="1.1" width="1247px" height="453px" style="shape-rendering:geometricPrecision; text-rendering:geometricPrecision; image-rendering:optimizeQuality; fill-rule:evenodd; clip-rule:evenodd" xmlns:xlink="http://www.w3.org/1999/xlink">
<g><path style="opacity:0.781" fill="#099268" d="M 121.5,39.5 C 456.167,39.3333 790.833,39.5 1125.5,40C 1171.13,43.9605 1197.96,68.4605 1206,113.5C 1207.64,186.143 1207.97,258.81 1207,331.5C 1201.45,382.051 1173.28,409.217 1122.5,413C 789.833,413.667 457.167,413.667 124.5,413C 74.2141,409.381 46.0475,382.547 40,332.5C 39.3333,261.833 39.3333,191.167 40,120.5C 45.8068,71.8595 72.9735,44.8595 121.5,39.5 Z"/></g>
<g><path style="opacity:0.961" fill="#22a37b" d="M 121.5,49.5 C 455.5,49.3333 789.5,49.5 1123.5,50C 1167.54,54.3699 1192.04,78.5365 1197,122.5C 1197.67,190.833 1197.67,259.167 1197,327.5C 1193.21,373.952 1168.05,399.119 1121.5,403C 789.833,403.667 458.167,403.667 126.5,403C 80.4116,399.911 54.9116,375.411 50,329.5C 49.3333,260.167 49.3333,190.833 50,121.5C 55.3445,78.9892 79.1778,54.9892 121.5,49.5 Z"/></g>
<g><path style="opacity:0.8" fill="#95f2d6" d="M 126.5,59.5 C 457.5,59.3333 788.5,59.5 1119.5,60C 1160.14,61.9763 1182.64,83.1429 1187,123.5C 1187.67,190.833 1187.67,258.167 1187,325.5C 1185.11,363.374 1165.61,385.541 1128.5,392C 791.5,392.667 454.5,392.667 117.5,392C 80.9611,385.113 61.7945,362.946 60,325.5C 59.3333,259.167 59.3333,192.833 60,126.5C 63.0212,84.9793 85.1878,62.6459 126.5,59.5 Z"/></g>
<g><path style="opacity:0.961" fill="#22a37b" d="M 621.5,152.5 C 626.55,152.274 630.383,154.274 633,158.5C 633.778,170.167 634.111,181.834 634,193.5C 634.082,205.054 631.749,216.054 627,226.5C 626.333,232.167 626.333,237.833 627,243.5C 629.948,256.012 634.281,268.012 640,279.5C 640.695,289.823 637.028,291.823 629,285.5C 623.518,277.052 619.184,268.052 616,258.5C 611.621,262.277 607.954,266.61 605,271.5C 596.834,281.989 586.334,288.489 573.5,291C 559.444,293.574 550.611,288.074 547,274.5C 542.801,254.745 548.968,239.245 565.5,228C 573.187,224.83 581.187,223.83 589.5,225C 597.213,228.008 600.713,233.508 600,241.5C 598.938,242.097 597.772,242.43 596.5,242.5C 580.227,235.886 568.394,240.552 561,256.5C 557.915,271.415 563.748,277.249 578.5,274C 592.877,265.282 603.377,253.115 610,237.5C 608.958,210.849 611.291,184.516 617,158.5C 617.804,155.854 619.304,153.854 621.5,152.5 Z"/></g>
<g><path style="opacity:0.961" fill="#24a47c" d="M 383.5,173.5 C 387.962,172.803 390.629,174.637 391.5,179C 385.469,204.093 377.636,228.593 368,252.5C 367.333,257.5 367.333,262.5 368,267.5C 371.452,269.976 375.285,271.476 379.5,272C 398.5,271.667 417.5,271.333 436.5,271C 441.553,273.098 445.72,276.265 449,280.5C 449.413,284.188 448.246,287.354 445.5,290C 435.807,290.298 426.14,289.798 416.5,288.5C 400.196,290.932 383.863,291.098 367.5,289C 351.332,283.834 345.832,273.001 351,256.5C 358.779,240.831 364.779,224.498 369,207.5C 371,202.833 373,198.167 375,193.5C 375.186,189.484 375.186,185.484 375,181.5C 376.445,177.218 379.278,174.551 383.5,173.5 Z"/></g>
<g><path style="opacity:0.961" fill="#22a37b" d="M 853.5,213.5 C 864.222,212.569 874.555,214.069 884.5,218C 891.282,222.448 897.782,227.281 904,232.5C 904.667,234.833 904.667,237.167 904,239.5C 900.927,240.617 897.76,240.784 894.5,240C 888.551,236.192 882.217,233.192 875.5,231C 869.833,230.333 864.167,230.333 858.5,231C 857.167,231.667 855.833,232.333 854.5,233C 851.543,237.08 848.71,241.247 846,245.5C 845.333,253.833 845.333,262.167 846,270.5C 848.072,273.932 848.738,277.598 848,281.5C 841.994,295.939 835.661,295.939 829,281.5C 827.808,266.009 828.808,250.675 832,235.5C 836.74,225.595 843.907,218.262 853.5,213.5 Z"/></g>
<g><path style="opacity:0.961" fill="#23a37b" d="M 495.5,217.5 C 508.574,214.917 519.741,218.251 529,227.5C 535.433,242.538 531.599,254.372 517.5,263C 502.424,269.345 488.757,267.178 476.5,256.5C 470.103,263.013 468.936,270.347 473,278.5C 482.862,292.68 496.362,298.513 513.5,296C 519.681,294.384 525.681,292.384 531.5,290C 536.833,289.333 542.167,289.333 547.5,290C 549.698,295.413 548.364,299.747 543.5,303C 541.5,304 539.5,305 537.5,306C 531.337,306.693 525.337,308.026 519.5,310C 494.734,315.084 474.9,307.584 460,287.5C 455.797,280.366 454.463,272.7 456,264.5C 461.837,242.51 475.003,226.843 495.5,217.5 Z"/></g>
<g><path style="opacity:0.961" fill="#23a37b" d="M 774.5,217.5 C 780.509,217.334 786.509,217.501 792.5,218C 807.027,221.556 813.194,230.723 811,245.5C 804.058,262.042 791.558,268.876 773.5,266C 766.772,264.137 760.772,260.97 755.5,256.5C 748.14,264.391 747.64,272.725 754,281.5C 764.025,293.761 776.858,298.595 792.5,296C 799.906,293.865 807.239,291.531 814.5,289C 818.167,288.333 821.833,288.333 825.5,289C 828.806,294.52 827.806,299.187 822.5,303C 820.5,304 818.5,305 816.5,306C 810.048,306.797 803.715,308.131 797.5,310C 773.091,314.866 753.591,307.366 739,287.5C 732.542,274.52 733.208,261.853 741,249.5C 748.491,234.839 759.658,224.173 774.5,217.5 Z"/></g>
<g><path style="opacity:0.961" fill="#22a37b" d="M 677.5,228.5 C 687.574,226.474 696.074,229.141 703,236.5C 703.667,239.167 703.667,241.833 703,244.5C 701.874,245.944 700.374,246.61 698.5,246.5C 683.502,241.834 672.169,246.334 664.5,260C 666.055,263.561 668.388,266.561 671.5,269C 685.586,272.788 697.753,269.622 708,259.5C 708.834,255.321 710.168,251.321 712,247.5C 717.175,242.599 722.508,242.599 728,247.5C 728.667,250.5 728.667,253.5 728,256.5C 715.109,282.267 707.775,309.6 706,338.5C 704,348.704 698.5,356.204 689.5,361C 688.5,361.667 687.5,361.667 686.5,361C 677.833,355.667 669.167,350.333 660.5,345C 652.109,338.956 651.442,332.289 658.5,325C 662.5,323 666.5,323 670.5,325C 674.5,330.333 679.167,335 684.5,339C 687.789,339.746 690.289,338.58 692,335.5C 695.58,318.685 698.08,301.685 699.5,284.5C 687.478,285.962 675.478,285.795 663.5,284C 641.65,269.519 640.983,254.185 661.5,238C 666.764,234.542 672.097,231.375 677.5,228.5 Z"/></g>
<g><path style="opacity:0.8" fill="#93f1d5" d="M 500.5,232.5 C 506.243,232.47 511.41,234.137 516,237.5C 516.318,244.54 512.818,248.707 505.5,250C 497.473,251.192 489.806,250.026 482.5,246.5C 487.661,240.663 493.661,235.996 500.5,232.5 Z"/></g>
<g><path style="opacity:0.8" fill="#93f1d5" d="M 779.5,232.5 C 785.243,232.47 790.41,234.137 795,237.5C 795.318,244.54 791.818,248.707 784.5,250C 776.467,251.192 768.8,250.025 761.5,246.5C 766.661,240.663 772.661,235.996 779.5,232.5 Z"/></g>
</svg>
