<?xml version="1.0" encoding="UTF-8"?>
<!DOCTYPE svg PUBLIC "-//W3C//DTD SVG 1.1//EN" "http://www.w3.org/Graphics/SVG/1.1/DTD/svg11.dtd">
<svg xmlns="http://www.w3.org/2000/svg" version="1.1" width="1604px" height="1509px" style="shape-rendering:geometricPrecision; text-rendering:geometricPrecision; image-rendering:optimizeQuality; fill-rule:evenodd; clip-rule:evenodd" xmlns:xlink="http://www.w3.org/1999/xlink">
<g><path style="opacity:0.975" fill="#353b41" d="M 203.5,108.5 C 602.167,108.333 1000.83,108.5 1399.5,109C 1505.09,110.589 1559.92,164.089 1564,269.5C 1564.67,616.5 1564.67,963.5 1564,1310.5C 1560.28,1410.56 1508.44,1463.39 1408.5,1469C 1004.17,1469.67 599.833,1469.67 195.5,1469C 164.328,1468.21 134.995,1460.54 107.5,1446C 74.5073,1424.91 53.6739,1395.08 45,1356.5C 42.5151,1345.29 40.8485,1333.95 40,1322.5C 39.3333,966.833 39.3333,611.167 40,255.5C 41.7108,222.624 51.7108,192.624 70,165.5C 90.5601,138.991 117.393,122.157 150.5,115C 168.16,111.504 185.826,109.337 203.5,108.5 Z"/></g>
<g><path style="opacity:1" fill="#cdd3d9" d="M 186.5,129.5 C 595.5,129.333 1004.5,129.5 1413.5,130C 1492.37,134.535 1535.53,176.035 1543,254.5C 1543.67,609.167 1543.67,963.833 1543,1318.5C 1537.73,1400.1 1494.23,1443.27 1412.5,1448C 1004.5,1448.67 596.5,1448.67 188.5,1448C 108.566,1441.73 65.7326,1398.57 60,1318.5C 59.3333,965.5 59.3333,612.5 60,259.5C 65.6323,180.37 107.799,137.037 186.5,129.5 Z"/></g>
<g><path style="opacity:1" fill="#343a40" d="M 952.5,157.5 C 959.184,156.849 965.517,158.015 971.5,161C 990.397,175.352 997.231,194.185 992,217.5C 985.21,239.656 978.876,261.989 973,284.5C 971.519,298.574 969.519,312.574 967,326.5C 954.931,366.442 944.264,406.776 935,447.5C 917.864,497.096 898.531,545.762 877,593.5C 869.936,604.564 861.436,614.398 851.5,623C 839.258,629.635 826.591,630.301 813.5,625C 803.377,618.544 794.877,610.377 788,600.5C 779.158,585.486 770.825,570.153 763,554.5C 750.464,519.1 738.798,483.434 728,447.5C 719.365,457.094 713.032,468.094 709,480.5C 704.694,494.77 700.694,509.103 697,523.5C 693.2,534.565 689.2,545.565 685,556.5C 684.118,559.789 683.452,563.123 683,566.5C 683.098,586.931 681.765,607.265 679,627.5C 677.541,637.744 673.874,647.078 668,655.5C 665.592,657.956 662.759,659.789 659.5,661C 653.581,661.772 647.748,662.938 642,664.5C 632.016,664.509 625.35,659.843 622,650.5C 612.198,628.071 613.531,606.404 626,585.5C 626.698,571.723 629.365,558.389 634,545.5C 635.452,536.787 637.119,528.12 639,519.5C 655.541,472.875 671.874,426.209 688,379.5C 691.981,363.574 695.648,347.574 699,331.5C 700.19,320.36 701.024,309.193 701.5,298C 697.305,280.583 701.972,265.916 715.5,254C 720.036,250.766 725.036,248.599 730.5,247.5C 739.924,250.418 748.257,255.251 755.5,262C 760.306,265.426 763.806,269.926 766,275.5C 770.068,289.233 773.068,303.233 775,317.5C 778.233,342.098 780.9,366.764 783,391.5C 787.603,434.979 798.936,476.646 817,516.5C 820.534,520.369 824.367,523.869 828.5,527C 830.5,527.667 832.5,527.667 834.5,527C 855.627,495.576 872.127,461.742 884,425.5C 898.232,377.119 910.232,328.119 920,278.5C 922.465,253.851 924.798,229.184 927,204.5C 928.517,190.611 933.183,177.944 941,166.5C 944.161,162.491 947.994,159.491 952.5,157.5 Z"/></g>
</svg>
