<?xml version="1.0" encoding="UTF-8"?>
<!DOCTYPE svg PUBLIC "-//W3C//DTD SVG 1.1//EN" "http://www.w3.org/Graphics/SVG/1.1/DTD/svg11.dtd">
<svg xmlns="http://www.w3.org/2000/svg" version="1.1" width="470px" height="711px" style="shape-rendering:geometricPrecision; text-rendering:geometricPrecision; image-rendering:optimizeQuality; fill-rule:evenodd; clip-rule:evenodd" xmlns:xlink="http://www.w3.org/1999/xlink">
<g><path style="opacity:0.991" fill="#fa5252" d="M 125.5,39.5 C 201.191,39.0244 276.858,39.5244 352.5,41C 400.175,49.0121 426.008,77.1787 430,125.5C 430.667,278.833 430.667,432.167 430,585.5C 423.398,639.432 392.898,667.932 338.5,671C 265.483,671.961 192.483,671.628 119.5,670C 71.8416,662.341 45.3416,634.508 40,586.5C 39.3333,432.167 39.3333,277.833 40,123.5C 46.2902,72.7085 74.7902,44.7085 125.5,39.5 Z"/></g>
<g><path style="opacity:1" fill="#ffc8c8" d="M 127.5,59.5 C 201.191,59.0251 274.858,59.5251 348.5,61C 386.596,66.7661 407.096,88.9328 410,127.5C 410.667,278.167 410.667,428.833 410,579.5C 407.297,623.203 384.13,646.703 340.5,650C 269.5,650.667 198.5,650.667 127.5,650C 84.9356,645.768 62.4356,622.268 60,579.5C 59.3333,428.5 59.3333,277.5 60,126.5C 64.484,85.8488 86.984,63.5154 127.5,59.5 Z"/></g>
<g><path style="opacity:1" fill="#fc9291" d="M 240.5,129.5 C 225.151,129.329 209.817,129.663 194.5,130.5C 203.11,128.951 211.943,128.284 221,128.5C 227.675,128.5 234.175,128.834 240.5,129.5 Z"/></g>
<g><path style="opacity:1" fill="#fa5352" d="M 240.5,129.5 C 251.719,130.521 256.052,136.354 253.5,147C 230.766,146.926 208.099,147.926 185.5,150C 179.818,151.478 177.151,155.311 177.5,161.5C 176.834,169.159 176.5,176.993 176.5,185C 176.278,195.716 176.945,206.216 178.5,216.5C 178.89,225.901 179.89,235.235 181.5,244.5C 180.196,248.968 177.863,252.802 174.5,256C 166.785,259.313 161.952,256.813 160,248.5C 159.248,220.826 159.415,193.16 160.5,165.5C 160.333,162.5 160.167,159.5 160,156.5C 159.5,156 159,155.5 158.5,155C 151.125,154.314 143.792,154.647 136.5,156C 128.211,158.489 119.878,160.822 111.5,163C 105.388,167.638 98.5549,170.805 91,172.5C 80.6654,167.441 78.8321,160.274 85.5,151C 98.9974,145.293 112.997,141.459 127.5,139.5C 131.163,139.048 134.83,138.548 138.5,138C 139.416,137.722 140.082,137.222 140.5,136.5C 149.384,136.245 158.05,134.745 166.5,132C 175.842,131.566 185.175,131.066 194.5,130.5C 209.817,129.663 225.151,129.329 240.5,129.5 Z"/></g>
<g><path style="opacity:1" fill="#fc7473" d="M 140.5,136.5 C 140.082,137.222 139.416,137.722 138.5,138C 134.83,138.548 131.163,139.048 127.5,139.5C 131.542,137.763 135.876,136.763 140.5,136.5 Z"/></g>
<g><path style="opacity:1" fill="#fa5353" d="M 283.5,172.5 C 286.425,172.46 289.091,173.293 291.5,175C 297.428,180.924 302.594,187.424 307,194.5C 309.849,198.203 313.349,200.87 317.5,202.5C 318.5,202.333 319.5,202.167 320.5,202C 333.032,191.896 346.699,183.563 361.5,177C 368.894,173.967 376.561,172.967 384.5,174C 387.383,178.269 387.05,182.269 383.5,186C 370.101,191.533 357.101,197.866 344.5,205C 339.2,208.575 334.367,212.742 330,217.5C 329.333,218.833 329.333,220.167 330,221.5C 333.833,225.333 337.667,229.167 341.5,233C 346.487,234.571 351.32,236.404 356,238.5C 358.415,243.436 357.915,247.936 354.5,252C 346.028,254.968 338.362,253.635 331.5,248C 325.833,243 320.167,238 314.5,233C 313.5,232.833 312.5,232.667 311.5,232.5C 308.274,233.446 305.274,234.946 302.5,237C 293.469,245.696 284.803,254.696 276.5,264C 267.867,267.725 262.7,264.892 261,255.5C 260.333,252.833 260.333,250.167 261,247.5C 267.217,241.305 274.383,236.471 282.5,233C 289.02,227.981 294.686,222.147 299.5,215.5C 292.146,207.314 284.98,198.981 278,190.5C 277.333,186.833 277.333,183.167 278,179.5C 279.666,177.004 281.5,174.671 283.5,172.5 Z"/></g>
<g><path style="opacity:1" fill="#fb7878" d="M 177.5,161.5 C 177.315,179.847 177.648,198.181 178.5,216.5C 176.945,206.216 176.278,195.716 176.5,185C 176.5,176.993 176.834,169.159 177.5,161.5 Z"/></g>
</svg>
