<?xml version="1.0" encoding="UTF-8"?>
<!DOCTYPE svg PUBLIC "-//W3C//DTD SVG 1.1//EN" "http://www.w3.org/Graphics/SVG/1.1/DTD/svg11.dtd">
<svg xmlns="http://www.w3.org/2000/svg" version="1.1" width="445px" height="515px" style="shape-rendering:geometricPrecision; text-rendering:geometricPrecision; image-rendering:optimizeQuality; fill-rule:evenodd; clip-rule:evenodd" xmlns:xlink="http://www.w3.org/1999/xlink">
<g><path style="opacity:0.979" fill="#1e1e1e" d="M 206.5,39.5 C 272.867,35.9525 327.367,59.2858 370,109.5C 408.218,162.067 415.551,218.734 392,279.5C 363.306,338.493 316.472,373.66 251.5,385C 184.743,393.53 128.243,373.696 82,325.5C 39.4915,274.28 28.8249,216.947 50,153.5C 74.642,95.8722 117.475,59.3722 178.5,44C 187.94,42.2492 197.273,40.7492 206.5,39.5 Z"/></g>
<g><path style="opacity:1" fill="#f6f7f8" d="M 208.5,59.5 C 264.962,56.6965 312.129,76.0298 350,117.5C 387.358,164.321 395.025,215.654 373,271.5C 347.111,324.352 304.944,355.519 246.5,365C 187.612,371.93 137.779,354.097 97,311.5C 55.0384,259.803 48.3717,203.803 77,143.5C 106.828,93.8831 150.662,65.8831 208.5,59.5 Z"/></g>
<g><path style="opacity:1" fill="#1f1f1f" d="M 221.5,348.5 C 217.481,348.646 213.481,348.979 209.5,349.5C 154.075,345.24 122.908,315.573 116,260.5C 114.256,247.682 115.922,235.349 121,223.5C 135.663,190.496 156.83,162.329 184.5,139C 200.038,128.396 215.038,117.062 229.5,105C 235.833,102.667 242.167,100.333 248.5,98C 260.567,95.1478 272.233,96.1478 283.5,101C 289.782,106.224 291.282,112.724 288,120.5C 273.874,123.074 260.374,127.574 247.5,134C 240.333,139.42 232.667,144.087 224.5,148C 203.097,162.947 184.93,181.114 170,202.5C 161.943,214.948 155.776,228.281 151.5,242.5C 151.667,243.167 151.833,243.833 152,244.5C 164.024,229.808 179.191,219.974 197.5,215C 219.11,213.268 239.777,216.935 259.5,226C 300.104,263.15 299.104,299.15 256.5,334C 246.126,341.85 234.459,346.683 221.5,348.5 Z"/></g>
<g><path style="opacity:1" fill="#f6f7f8" d="M 201.5,244.5 C 208.175,244.334 214.842,244.5 221.5,245C 228.264,246.635 234.931,248.635 241.5,251C 249.77,254.938 254.604,261.438 256,270.5C 256.97,287.732 250.47,301.565 236.5,312C 217.824,322.538 198.824,323.205 179.5,314C 175.701,311.203 172.201,308.036 169,304.5C 165,299.167 161,293.833 157,288.5C 156.647,279.028 159.814,270.861 166.5,264C 172.167,259.667 177.833,255.333 183.5,251C 189.294,247.905 195.294,245.739 201.5,244.5 Z"/></g>
<g><path style="opacity:1" fill="#a1a2a2" d="M 221.5,348.5 C 217.577,350.349 213.577,350.682 209.5,349.5C 213.481,348.979 217.481,348.646 221.5,348.5 Z"/></g>
</svg>
