<?xml version="1.0" encoding="UTF-8"?>
<!DOCTYPE svg PUBLIC "-//W3C//DTD SVG 1.1//EN" "http://www.w3.org/Graphics/SVG/1.1/DTD/svg11.dtd">
<svg xmlns="http://www.w3.org/2000/svg" version="1.1" width="794px" height="781px" style="shape-rendering:geometricPrecision; text-rendering:geometricPrecision; image-rendering:optimizeQuality; fill-rule:evenodd; clip-rule:evenodd" xmlns:xlink="http://www.w3.org/1999/xlink">
<g><path style="opacity:0.984" fill="#6741d9" d="M 188.5,49.5 C 332.18,49.0241 475.846,49.5241 619.5,51C 700.33,59.1638 744.83,103.664 753,184.5C 754.634,297.821 754.967,411.154 754,524.5C 754.098,561.527 743.765,595.194 723,625.5C 701.742,650.388 674.908,665.888 642.5,672C 632.906,673.844 623.24,675.177 613.5,676C 468.833,676.667 324.167,676.667 179.5,676C 94.6285,669.129 48.1285,623.295 40,538.5C 39.3333,421.833 39.3333,305.167 40,188.5C 45.2069,110.3 86.3735,64.7997 163.5,52C 172.004,51.3493 180.337,50.516 188.5,49.5 Z"/></g>
<g><path style="opacity:1" fill="#cfbefe" d="M 195.5,69.5 C 334.515,69.0215 473.515,69.5215 612.5,71C 685.478,75.9787 725.644,114.812 733,187.5C 733.667,302.833 733.667,418.167 733,533.5C 731.86,562.422 723.194,588.756 707,612.5C 690.008,632.591 668.508,645.424 642.5,651C 631.901,653.1 621.235,654.766 610.5,656C 467.167,656.667 323.833,656.667 180.5,656C 105.412,649.578 65.2449,608.744 60,533.5C 59.3333,419.833 59.3333,306.167 60,192.5C 61.0761,160.924 71.4094,132.924 91,108.5C 110.572,89.1304 134.072,77.297 161.5,73C 172.967,71.632 184.3,70.4654 195.5,69.5 Z"/></g>
<g><path style="opacity:1" fill="#6741d9" d="M 276.5,400.5 C 277.499,358.67 277.832,316.67 277.5,274.5C 276.5,274.5 275.5,274.5 274.5,274.5C 272.932,272.189 272.098,269.522 272,266.5C 265.074,276.761 256.24,284.927 245.5,291C 232.195,293.027 222.528,288.027 216.5,276C 206.61,272.729 201.11,265.896 200,255.5C 197.102,236.448 204.602,223.615 222.5,217C 245.372,198.393 271.039,184.726 299.5,176C 322.283,171.031 345.283,167.364 368.5,165C 395.835,163.833 423.169,162.667 450.5,161.5C 471.67,162.381 492.837,163.381 514,164.5C 518.5,164.333 523,164.167 527.5,164C 543.978,154.161 558.811,156.328 572,170.5C 579.159,183.439 577.659,195.272 567.5,206C 559.081,210.584 550.081,213.584 540.5,215C 523.107,215.895 505.774,215.395 488.5,213.5C 489.35,246.667 492.183,279.667 497,312.5C 498.133,364.541 497.466,416.541 495,468.5C 494.103,484.928 491.103,500.928 486,516.5C 477.293,536.392 463.96,540.059 446,527.5C 439.997,519.5 436.33,510.5 435,500.5C 432.684,489.093 435.351,479.093 443,470.5C 446.007,447.601 447.507,424.601 447.5,401.5C 447.359,374.455 446.193,347.455 444,320.5C 440.231,284.475 436.398,248.475 432.5,212.5C 410.785,212.672 389.119,213.838 367.5,216C 353.752,217.374 340.252,219.874 327,223.5C 329.562,233.6 331.062,243.933 331.5,254.5C 331.237,262.896 330.403,271.229 329,279.5C 329.054,337.883 327.554,396.216 324.5,454.5C 332.402,456.414 339.902,459.414 347,463.5C 350.089,486.234 343.589,505.734 327.5,522C 318.642,530.045 308.309,532.712 296.5,530C 282.09,516.68 273.924,500.18 272,480.5C 271.333,464.5 271.333,448.5 272,432.5C 272.966,421.709 274.466,411.043 276.5,400.5 Z"/></g>
<g><path style="opacity:1" fill="#8161e3" d="M 274.5,274.5 C 275.5,274.5 276.5,274.5 277.5,274.5C 277.832,316.67 277.499,358.67 276.5,400.5C 277.152,358.281 276.486,316.281 274.5,274.5 Z"/></g>
</svg>
