<?xml version="1.0" encoding="UTF-8"?>
<!DOCTYPE svg PUBLIC "-//W3C//DTD SVG 1.1//EN" "http://www.w3.org/Graphics/SVG/1.1/DTD/svg11.dtd">
<svg xmlns="http://www.w3.org/2000/svg" version="1.1" width="445px" height="515px" style="shape-rendering:geometricPrecision; text-rendering:geometricPrecision; image-rendering:optimizeQuality; fill-rule:evenodd; clip-rule:evenodd" xmlns:xlink="http://www.w3.org/1999/xlink">
<g><path style="opacity:0.866" fill="#1e1e1e" d="M 206.5,44.5 C 272.867,40.9525 327.367,64.2858 370,114.5C 408.218,167.067 415.551,223.734 392,284.5C 363.306,343.493 316.472,378.66 251.5,390C 184.743,398.53 128.243,378.696 82,330.5C 39.4915,279.28 28.8249,221.947 50,158.5C 74.642,100.872 117.475,64.3722 178.5,49C 187.94,47.2492 197.273,45.7492 206.5,44.5 Z"/></g>
<g><path style="opacity:0.988" fill="#333333" d="M 207.5,54.5 C 255.127,52.2302 297.794,65.3969 335.5,94C 388.715,141.327 405.882,199.494 387,268.5C 359.529,335.356 309.696,372.856 237.5,381C 175.346,385.161 124.18,363.661 84,316.5C 43.9994,262.125 38.6661,204.459 68,143.5C 99.8528,90.9842 146.353,61.3175 207.5,54.5 Z"/></g>
<g><path style="opacity:0.898" fill="#f6f7f9" d="M 208.5,64.5 C 274.188,61.7624 325.688,87.0957 363,140.5C 395.166,197.852 392.499,253.519 355,307.5C 327.176,342.343 291.01,363.176 246.5,370C 187.612,376.93 137.779,359.097 97,316.5C 55.0388,264.807 48.3722,208.807 77,148.5C 106.828,98.8831 150.662,70.8831 208.5,64.5 Z"/></g>
<g><path style="opacity:0.988" fill="#333333" d="M 192.5,119.5 C 203.571,121.809 214.904,122.809 226.5,122.5C 241.574,122.886 256.574,122.053 271.5,120C 278.53,115.653 286.197,114.32 294.5,116C 311.108,120.72 315.608,130.887 308,146.5C 303.418,150.545 298.251,153.711 292.5,156C 273.255,160.029 253.922,160.529 234.5,157.5C 229.084,155.883 223.417,155.216 217.5,155.5C 209.292,154.882 201.125,153.882 193,152.5C 189.708,152.026 187.041,153.026 185,155.5C 183.392,158.382 182.059,161.382 181,164.5C 177.664,177.183 174.331,189.85 171,202.5C 169.756,206.779 169.423,211.112 170,215.5C 170.893,216.081 171.893,216.415 173,216.5C 188.498,213.896 203.998,211.063 219.5,208C 240.414,204.093 257.914,209.926 272,225.5C 279.7,235.203 285.7,245.869 290,257.5C 297.087,298.163 281.921,326.996 244.5,344C 233.816,348.169 222.816,351.002 211.5,352.5C 206.178,352.98 200.845,353.313 195.5,353.5C 176.127,350.875 158.127,344.375 141.5,334C 136.896,329.397 133.062,324.23 130,318.5C 128.126,308.791 131.293,301.291 139.5,296C 142.899,295.454 146.232,295.787 149.5,297C 160.167,304.333 170.833,311.667 181.5,319C 199.405,325.924 216.739,324.924 233.5,316C 241.933,309.571 249.766,302.404 257,294.5C 263.228,282.345 262.895,270.345 256,258.5C 251.755,252.531 246.922,247.031 241.5,242C 233.918,236.903 225.585,235.237 216.5,237C 200.376,241.891 184.042,245.891 167.5,249C 158.126,249.776 148.793,249.442 139.5,248C 135.961,246.093 133.461,243.26 132,239.5C 130.67,233.548 130.337,227.548 131,221.5C 133.529,215.579 135.863,209.579 138,203.5C 143.198,186.006 147.698,168.34 151.5,150.5C 153.078,145.417 153.745,140.084 153.5,134.5C 153.298,132.011 153.798,129.677 155,127.5C 159.378,123.065 164.212,119.232 169.5,116C 175.079,115.522 180.412,116.522 185.5,119C 187.81,119.497 190.143,119.663 192.5,119.5 Z"/></g>
<g><path style="opacity:0.902" fill="#c3c4c4" d="M 192.5,119.5 C 204.001,120.273 215.334,121.273 226.5,122.5C 214.904,122.809 203.571,121.809 192.5,119.5 Z"/></g>
<g><path style="opacity:0.969" fill="#666667" d="M 153.5,134.5 C 153.745,140.084 153.078,145.417 151.5,150.5C 151.527,144.949 152.194,139.616 153.5,134.5 Z"/></g>
<g><path style="opacity:0.945" fill="#a4a5a6" d="M 217.5,155.5 C 223.417,155.216 229.084,155.883 234.5,157.5C 228.64,157.283 222.973,156.617 217.5,155.5 Z"/></g>
<g><path style="opacity:0.941" fill="#9d9d9e" d="M 211.5,352.5 C 206.245,354.524 200.911,354.857 195.5,353.5C 200.845,353.313 206.178,352.98 211.5,352.5 Z"/></g>
</svg>
