<?xml version="1.0" encoding="UTF-8"?>
<!DOCTYPE svg PUBLIC "-//W3C//DTD SVG 1.1//EN" "http://www.w3.org/Graphics/SVG/1.1/DTD/svg11.dtd">
<svg xmlns="http://www.w3.org/2000/svg" version="1.1" width="445px" height="515px" style="shape-rendering:geometricPrecision; text-rendering:geometricPrecision; image-rendering:optimizeQuality; fill-rule:evenodd; clip-rule:evenodd" xmlns:xlink="http://www.w3.org/1999/xlink">
<g><path style="opacity:0.979" fill="#1e1e1e" d="M 206.5,44.5 C 272.867,40.9525 327.367,64.2858 370,114.5C 408.218,167.067 415.551,223.734 392,284.5C 363.306,343.493 316.472,378.66 251.5,390C 184.743,398.53 128.243,378.696 82,330.5C 39.4915,279.28 28.8249,221.947 50,158.5C 74.642,100.872 117.475,64.3722 178.5,49C 187.94,47.2492 197.273,45.7492 206.5,44.5 Z"/></g>
<g><path style="opacity:1" fill="#f6f7f8" d="M 208.5,64.5 C 264.962,61.6965 312.129,81.0298 350,122.5C 387.358,169.321 395.025,220.654 373,276.5C 347.111,329.352 304.944,360.519 246.5,370C 187.612,376.93 137.779,359.097 97,316.5C 55.0384,264.803 48.3717,208.803 77,148.5C 106.828,98.8831 150.662,70.8831 208.5,64.5 Z"/></g>
<g><path style="opacity:1" fill="#1f1f1f" d="M 183.5,117.5 C 210.014,116.142 235.681,119.976 260.5,129C 270.578,132.79 278.411,139.29 284,148.5C 287.885,158.317 286.885,167.651 281,176.5C 278.157,181.519 274.824,186.186 271,190.5C 263.083,196.546 254.583,201.712 245.5,206C 236.948,208.716 228.615,211.883 220.5,215.5C 229.037,218.24 237.704,220.407 246.5,222C 270.015,231.182 287.515,247.015 299,269.5C 306.41,289.19 302.744,306.524 288,321.5C 283.114,326.354 277.947,330.854 272.5,335C 248.084,343.208 223.084,345.541 197.5,342C 180.294,339.446 163.294,336.113 146.5,332C 137.367,329.528 132.7,323.528 132.5,314C 132.489,308.036 133.989,302.536 137,297.5C 140.681,294.64 144.848,293.807 149.5,295C 170.429,303.971 192.096,310.304 214.5,314C 223.167,314.667 231.833,314.667 240.5,314C 251.681,311.999 260.181,306.166 266,296.5C 268.407,283.994 265.073,273.327 256,264.5C 247.691,257.429 238.191,252.595 227.5,250C 212.576,246.63 197.576,243.63 182.5,241C 177.223,237.629 174.057,232.796 173,226.5C 170.694,217.29 172.861,209.456 179.5,203C 196.633,199.172 213.3,193.838 229.5,187C 238.231,183.603 244.231,177.603 247.5,169C 245.9,160.734 240.9,155.734 232.5,154C 210.35,149.268 188.017,148.268 165.5,151C 159.241,152.751 153.241,155.085 147.5,158C 143.835,158.387 141.002,156.887 139,153.5C 136.343,148.268 136.01,142.934 138,137.5C 150.048,123.556 165.215,116.889 183.5,117.5 Z"/></g>
</svg>
