<?xml version="1.0" encoding="UTF-8"?>
<!DOCTYPE svg PUBLIC "-//W3C//DTD SVG 1.1//EN" "http://www.w3.org/Graphics/SVG/1.1/DTD/svg11.dtd">
<svg xmlns="http://www.w3.org/2000/svg" version="1.1" width="317px" height="401px" style="shape-rendering:geometricPrecision; text-rendering:geometricPrecision; image-rendering:optimizeQuality; fill-rule:evenodd; clip-rule:evenodd" xmlns:xlink="http://www.w3.org/1999/xlink">
<g><path style="opacity:0.993" fill="#267ac6" d="M 89.5,39.5 C 135.168,39.3333 180.835,39.5 226.5,40C 260.462,46.3054 277.295,66.8054 277,101.5C 277.955,169.516 277.621,237.516 276,305.5C 271.473,334.027 254.973,350.527 226.5,355C 180.833,355.667 135.167,355.667 89.5,355C 61.0295,350.53 44.5295,334.03 40,305.5C 39.3333,233.167 39.3333,160.833 40,88.5C 45.1363,60.5297 61.6363,44.1964 89.5,39.5 Z"/></g>
<g><path style="opacity:1" fill="#99c7ec" d="M 92.5,59.5 C 135.501,59.3333 178.501,59.5 221.5,60C 240.957,61.791 252.457,72.291 256,91.5C 256.667,161.5 256.667,231.5 256,301.5C 253.352,321.815 241.852,332.981 221.5,335C 178.5,335.667 135.5,335.667 92.5,335C 71.3335,331.498 60.5002,318.998 60,297.5C 59.3333,228.833 59.3333,160.167 60,91.5C 63.4582,73.2075 74.2916,62.5408 92.5,59.5 Z"/></g>
<g><path style="opacity:1" fill="#3383c9" d="M 197.5,124.5 C 206.351,124.852 211.017,129.352 211.5,138C 209.096,152.788 206.929,167.622 205,182.5C 201.704,193.268 199.371,204.268 198,215.5C 197.186,234.368 197.686,253.201 199.5,272C 199.309,276.621 198.476,281.121 197,285.5C 194.688,287.464 192.188,287.797 189.5,286.5C 183.623,278.042 179.79,268.709 178,258.5C 177.667,248.167 177.333,237.833 177,227.5C 176.5,227 176,226.5 175.5,226C 161.104,225.763 147.104,228.096 133.5,233C 131.951,234.214 130.785,235.714 130,237.5C 129.667,243.833 129.333,250.167 129,256.5C 127.245,264.62 122.411,268.454 114.5,268C 110.961,266.093 108.461,263.26 107,259.5C 106.193,251.248 106.693,243.081 108.5,235C 106.406,230.982 104.739,226.815 103.5,222.5C 104.48,217.008 107.314,212.675 112,209.5C 113.044,207.285 113.71,204.952 114,202.5C 116.695,183.302 116.862,164.136 114.5,145C 115.996,135.077 121.663,131.411 131.5,134C 133,135.5 134.5,137 136,138.5C 136.667,151.167 136.667,163.833 136,176.5C 134.068,186.08 133.402,195.747 134,205.5C 136.877,206.83 139.711,206.664 142.5,205C 153.829,204.26 165.162,203.593 176.5,203C 180.027,202.14 182.193,199.973 183,196.5C 187.919,176.472 190.253,156.138 190,135.5C 191.549,131.13 194.049,127.463 197.5,124.5 Z"/></g>
</svg>
