<?xml version="1.0" encoding="UTF-8"?>
<!DOCTYPE svg PUBLIC "-//W3C//DTD SVG 1.1//EN" "http://www.w3.org/Graphics/SVG/1.1/DTD/svg11.dtd">
<svg xmlns="http://www.w3.org/2000/svg" version="1.1" width="445px" height="515px" style="shape-rendering:geometricPrecision; text-rendering:geometricPrecision; image-rendering:optimizeQuality; fill-rule:evenodd; clip-rule:evenodd" xmlns:xlink="http://www.w3.org/1999/xlink">
<g><path style="opacity:0.979" fill="#1e1e1e" d="M 206.5,44.5 C 272.867,40.9525 327.367,64.2858 370,114.5C 408.218,167.067 415.551,223.734 392,284.5C 363.306,343.493 316.472,378.66 251.5,390C 184.743,398.53 128.243,378.696 82,330.5C 39.4915,279.28 28.8249,221.947 50,158.5C 74.642,100.872 117.475,64.3722 178.5,49C 187.94,47.2492 197.273,45.7492 206.5,44.5 Z"/></g>
<g><path style="opacity:1" fill="#f6f7f8" d="M 208.5,64.5 C 264.962,61.6965 312.129,81.0298 350,122.5C 387.358,169.321 395.025,220.654 373,276.5C 347.111,329.352 304.944,360.519 246.5,370C 187.612,376.93 137.779,359.097 97,316.5C 55.0384,264.803 48.3717,208.803 77,148.5C 106.828,98.8831 150.662,70.8831 208.5,64.5 Z"/></g>
<g><path style="opacity:1" fill="#1f1f1f" d="M 254.5,288.5 C 253.732,289.263 253.232,290.263 253,291.5C 252.176,300.676 252.343,309.676 253.5,318.5C 254.907,324.632 256.241,330.799 257.5,337C 255.173,348.677 248.173,354.344 236.5,354C 229.408,350.579 224.908,345.079 223,337.5C 221.739,317.042 222.572,296.709 225.5,276.5C 225.511,274.083 224.511,272.417 222.5,271.5C 203.314,270.784 183.981,270.118 164.5,269.5C 150.601,266.968 138.767,260.635 129,250.5C 127.107,247.382 125.774,244.049 125,240.5C 124.333,232.833 124.333,225.167 125,217.5C 131.854,200.12 140.521,183.787 151,168.5C 166.047,150.455 180.713,132.122 195,113.5C 198.581,109.248 202.748,105.748 207.5,103C 212.746,101.494 218.079,101.161 223.5,102C 229.602,106.105 231.102,111.605 228,118.5C 209.096,144.074 189.429,169.074 169,193.5C 165.135,200.565 161.802,207.898 159,215.5C 158.333,219.167 158.333,222.833 159,226.5C 170.9,237.945 185.067,241.778 201.5,238C 212.876,237.042 224.209,235.708 235.5,234C 236.333,233.167 237.167,232.333 238,231.5C 245.295,210.357 250.295,188.69 253,166.5C 259.073,156.61 267.573,153.776 278.5,158C 286.002,164.185 288.502,172.019 286,181.5C 278.115,197.208 272.615,213.708 269.5,231C 273.339,237.21 276.839,243.71 280,250.5C 282.006,260.483 279.173,268.983 271.5,276C 266.517,277.563 261.517,279.063 256.5,280.5C 255.215,283.021 254.548,285.687 254.5,288.5 Z"/></g>
<g><path style="opacity:1" fill="#6f7070" d="M 164.5,269.5 C 183.981,270.118 203.314,270.784 222.5,271.5C 204.164,271.667 185.83,271.5 167.5,271C 166.263,270.768 165.263,270.268 164.5,269.5 Z"/></g>
<g><path style="opacity:1" fill="#a6a6a7" d="M 254.5,288.5 C 253.604,298.468 253.271,308.468 253.5,318.5C 252.343,309.676 252.176,300.676 253,291.5C 253.232,290.263 253.732,289.263 254.5,288.5 Z"/></g>
</svg>
