<?xml version="1.0" encoding="UTF-8"?>
<!DOCTYPE svg PUBLIC "-//W3C//DTD SVG 1.1//EN" "http://www.w3.org/Graphics/SVG/1.1/DTD/svg11.dtd">
<svg xmlns="http://www.w3.org/2000/svg" version="1.1" width="445px" height="515px" style="shape-rendering:geometricPrecision; text-rendering:geometricPrecision; image-rendering:optimizeQuality; fill-rule:evenodd; clip-rule:evenodd" xmlns:xlink="http://www.w3.org/1999/xlink">
<g><path style="opacity:0.979" fill="#1e1e1e" d="M 206.5,49.5 C 272.867,45.9525 327.367,69.2858 370,119.5C 408.218,172.067 415.551,228.734 392,289.5C 363.306,348.493 316.472,383.66 251.5,395C 184.743,403.53 128.243,383.696 82,335.5C 39.4915,284.28 28.8249,226.947 50,163.5C 74.642,105.872 117.475,69.3722 178.5,54C 187.94,52.2492 197.273,50.7492 206.5,49.5 Z"/></g>
<g><path style="opacity:1" fill="#f6f7f8" d="M 208.5,69.5 C 264.962,66.6965 312.129,86.0298 350,127.5C 387.358,174.321 395.025,225.654 373,281.5C 347.111,334.352 304.944,365.519 246.5,375C 187.612,381.93 137.779,364.097 97,321.5C 55.0384,269.803 48.3717,213.803 77,153.5C 106.828,103.883 150.662,75.8831 208.5,69.5 Z"/></g>
<g><path style="opacity:1" fill="#1f1f1f" d="M 287.5,171.5 C 288.276,178.137 288.609,184.804 288.5,191.5C 287.543,206.537 282.71,220.204 274,232.5C 252.704,256.629 229.871,279.295 205.5,300.5C 219.069,302.694 232.736,303.861 246.5,304C 266.032,309.067 285.366,314.734 304.5,321C 308.535,323.007 312.535,325.007 316.5,327C 318.049,328.214 319.215,329.714 320,331.5C 321.816,337.778 320.316,342.945 315.5,347C 306.524,348.207 297.524,348.54 288.5,348C 264.224,339.118 239.224,333.118 213.5,330C 200.795,329.152 188.129,329.485 175.5,331C 164.749,341.876 151.749,346.876 136.5,346C 123.942,342.608 116.942,334.442 115.5,321.5C 117.661,311.832 123.328,304.999 132.5,301C 144.908,298.125 156.908,294.125 168.5,289C 193.257,268.914 217.423,248.081 241,226.5C 254.503,208.491 259.17,188.491 255,166.5C 243.392,150.067 227.559,143.567 207.5,147C 194.975,148.202 184.809,153.702 177,163.5C 173.956,171.06 170.79,178.56 167.5,186C 148.104,190.609 137.771,182.942 136.5,163C 137.465,153.745 141.798,146.412 149.5,141C 176.524,119.556 207.191,111.556 241.5,117C 269.345,124.673 284.678,142.84 287.5,171.5 Z"/></g>
<g><path style="opacity:1" fill="#767677" d="M 287.5,171.5 C 289.048,175.034 289.714,178.867 289.5,183C 289.498,186.021 289.164,188.854 288.5,191.5C 288.609,184.804 288.276,178.137 287.5,171.5 Z"/></g>
</svg>
