<?xml version="1.0" encoding="UTF-8"?>
<!DOCTYPE svg PUBLIC "-//W3C//DTD SVG 1.1//EN" "http://www.w3.org/Graphics/SVG/1.1/DTD/svg11.dtd">
<svg xmlns="http://www.w3.org/2000/svg" version="1.1" width="317px" height="401px" style="shape-rendering:geometricPrecision; text-rendering:geometricPrecision; image-rendering:optimizeQuality; fill-rule:evenodd; clip-rule:evenodd" xmlns:xlink="http://www.w3.org/1999/xlink">
<g><path style="opacity:0.993" fill="#267ac6" d="M 89.5,39.5 C 135.168,39.3333 180.835,39.5 226.5,40C 260.462,46.3054 277.295,66.8054 277,101.5C 277.955,169.516 277.621,237.516 276,305.5C 271.473,334.027 254.973,350.527 226.5,355C 180.833,355.667 135.167,355.667 89.5,355C 61.0295,350.53 44.5295,334.03 40,305.5C 39.3333,233.167 39.3333,160.833 40,88.5C 45.1363,60.5297 61.6363,44.1964 89.5,39.5 Z"/></g>
<g><path style="opacity:1" fill="#99c7ec" d="M 92.5,59.5 C 135.501,59.3333 178.501,59.5 221.5,60C 240.957,61.791 252.457,72.291 256,91.5C 256.667,161.5 256.667,231.5 256,301.5C 253.352,321.815 241.852,332.981 221.5,335C 178.5,335.667 135.5,335.667 92.5,335C 71.3335,331.498 60.5002,318.998 60,297.5C 59.3333,228.833 59.3333,160.167 60,91.5C 63.4582,73.2075 74.2916,62.5408 92.5,59.5 Z"/></g>
<g><path style="opacity:1" fill="#3282c9" d="M 202.5,118.5 C 207.844,118.334 213.177,118.501 218.5,119C 227.079,121.424 229.912,126.924 227,135.5C 222.535,140.994 217.368,141.828 211.5,138C 209.5,137.333 207.5,137.333 205.5,138C 183.954,147.278 162.621,156.778 141.5,166.5C 143.751,170.795 147.084,173.961 151.5,176C 166.167,182.667 180.833,189.333 195.5,196C 204.886,201.387 213.053,208.221 220,216.5C 224.46,225.929 224.46,235.263 220,244.5C 209.45,258.695 195.284,266.529 177.5,268C 154.654,270.858 132.654,267.858 111.5,259C 106.618,255.786 102.785,251.619 100,246.5C 97.3299,234.172 102.163,229.006 114.5,231C 118.41,232.907 121.744,235.573 124.5,239C 130.117,242.317 136.117,244.65 142.5,246C 158.984,247.24 175.317,246.24 191.5,243C 202.212,238.958 204.546,232.291 198.5,223C 193.5,219.333 188.5,215.667 183.5,212C 163.246,204.707 143.579,196.041 124.5,186C 120.033,182.535 115.867,178.702 112,174.5C 110.494,169.254 110.161,163.921 111,158.5C 116.797,153.006 123.63,149.506 131.5,148C 137.603,144.23 143.937,140.897 150.5,138C 168.041,131.716 185.374,125.216 202.5,118.5 Z"/></g>
</svg>
