<?xml version="1.0" encoding="UTF-8"?>
<!DOCTYPE svg PUBLIC "-//W3C//DTD SVG 1.1//EN" "http://www.w3.org/Graphics/SVG/1.1/DTD/svg11.dtd">
<svg xmlns="http://www.w3.org/2000/svg" version="1.1" width="1285px" height="1226px" style="shape-rendering:geometricPrecision; text-rendering:geometricPrecision; image-rendering:optimizeQuality; fill-rule:evenodd; clip-rule:evenodd" xmlns:xlink="http://www.w3.org/1999/xlink">
<g><path style="opacity:0.988" fill="#f08d00" d="M 186.5,39.5 C 490.167,39.3333 793.834,39.5 1097.5,40C 1182.73,45.8994 1231.23,91.0661 1243,175.5C 1244.05,186.808 1244.72,198.142 1245,209.5C 1245.67,478.5 1245.67,747.5 1245,1016.5C 1245.33,1042.86 1241.33,1068.53 1233,1093.5C 1213.55,1143.93 1177.05,1173.43 1123.5,1182C 1112.59,1184.06 1101.59,1185.39 1090.5,1186C 791.5,1186.67 492.5,1186.67 193.5,1186C 156.826,1185.18 123.492,1174.51 93.5,1154C 64.1838,1128.55 47.0172,1096.38 42,1057.5C 40.2519,1042.54 39.0852,1027.54 38.5,1012.5C 38.5018,746.555 38.5018,480.388 38.5,214C 37.9275,181.263 43.7609,149.763 56,119.5C 77.1105,78.0817 110.611,52.9151 156.5,44C 166.593,42.1644 176.593,40.6644 186.5,39.5 Z"/></g>
<g><path style="opacity:1" fill="#fed7a7" d="M 189.5,59.5 C 490.834,59.3333 792.167,59.5 1093.5,60C 1174.58,65.418 1218.08,108.585 1224,189.5C 1224.67,471.5 1224.67,753.5 1224,1035.5C 1222.17,1063.5 1214.17,1089.5 1200,1113.5C 1181.03,1139.4 1155.53,1155.23 1123.5,1161C 1113.56,1162.73 1103.56,1164.06 1093.5,1165C 792.167,1165.67 490.833,1165.67 189.5,1165C 163.914,1163.94 139.914,1157.27 117.5,1145C 93.9147,1130.06 77.748,1109.23 69,1082.5C 63.5454,1064.23 60.5454,1045.56 60,1026.5C 59.3333,747.167 59.3333,467.833 60,188.5C 66.4468,108.553 109.613,65.5531 189.5,59.5 Z"/></g>
<g><path style="opacity:1" fill="#f08c02" d="M 513.5,135.5 C 525.456,134.921 537.123,136.421 548.5,140C 570.642,142.401 592.642,145.735 614.5,150C 641.889,155.101 664.389,168.268 682,189.5C 690.114,200.545 692.78,212.878 690,226.5C 687.781,236.272 683.447,244.939 677,252.5C 672.318,257.015 667.818,261.681 663.5,266.5C 671.156,273.989 678.99,281.322 687,288.5C 692.515,295.693 696.515,303.693 699,312.5C 701.065,324.632 698.065,335.299 690,344.5C 678.879,357.148 665.045,365.315 648.5,369C 617.374,374.231 586.04,375.898 554.5,374C 542.187,372.816 529.853,371.816 517.5,371C 502.572,368.334 496.738,359.5 500,344.5C 503.48,338.416 508.813,335.082 516,334.5C 523.281,335.445 530.448,336.945 537.5,339C 542.299,341.735 547.299,343.902 552.5,345.5C 549.182,326.287 546.682,306.953 545,287.5C 544.073,246.772 544.407,206.105 546,165.5C 537.64,163.854 529.14,163.021 520.5,163C 512.476,160.817 509.143,155.65 510.5,147.5C 509.947,142.953 510.947,138.953 513.5,135.5 Z"/></g>
<g><path style="opacity:1" fill="#fed7a7" d="M 569.5,197.5 C 569.473,191.949 568.806,186.616 567.5,181.5C 567.563,176.797 567.229,172.13 566.5,167.5C 588.542,168.515 609.876,172.682 630.5,180C 642.639,185.314 652.806,193.148 661,203.5C 667.992,217.308 665.158,228.475 652.5,237C 640.049,245.04 626.382,249.706 611.5,251C 602.414,251.703 593.414,251.203 584.5,249.5C 580.334,249.341 576.334,250.008 572.5,251.5C 571.558,251.392 570.725,251.059 570,250.5C 569.5,232.836 569.333,215.17 569.5,197.5 Z"/></g>
<g><path style="opacity:1" fill="#fabd6d" d="M 567.5,181.5 C 568.806,186.616 569.473,191.949 569.5,197.5C 567.922,192.417 567.255,187.084 567.5,181.5 Z"/></g>
<g><path style="opacity:1" fill="#fed7a7" d="M 630.5,346.5 C 616.529,347.429 602.529,347.762 588.5,347.5C 585.552,347.777 582.719,347.444 580,346.5C 579.347,334.769 578.181,323.102 576.5,311.5C 576.556,306.269 575.889,301.269 574.5,296.5C 574.216,293.223 574.549,290.057 575.5,287C 579.805,285.732 584.138,284.565 588.5,283.5C 590.197,283.899 591.863,284.399 593.5,285C 617.977,283.466 640.977,288.466 662.5,300C 677.207,312.752 676.874,325.085 661.5,337C 651.931,342.69 641.597,345.857 630.5,346.5 Z"/></g>
<g><path style="opacity:1" fill="#f6a945" d="M 574.5,296.5 C 575.889,301.269 576.556,306.269 576.5,311.5C 574.969,306.75 574.302,301.75 574.5,296.5 Z"/></g>
<g><path style="opacity:1" fill="#f6a841" d="M 630.5,346.5 C 629.737,347.268 628.737,347.768 627.5,348C 614.327,348.827 601.327,348.66 588.5,347.5C 602.529,347.762 616.529,347.429 630.5,346.5 Z"/></g>
</svg>
