<svg id="svg" xmlns="http://www.w3.org/2000/svg" xmlns:xlink="http://www.w3.org/1999/xlink" width="400" height="401.80549856380793" viewBox="0, 0, 400,401.80549856380793" version="1.1"><g id="svgg"><path id="path0" d="M200.116 6.907 C 199.743 7.280,199.697 7.284,194.596 7.299 C 189.415 7.315,187.614 7.440,183.926 8.044 C 178.970 8.856,178.150 9.192,178.150 10.413 C 178.150 10.792,178.055 10.816,174.341 11.359 C 164.974 12.728,156.558 14.305,149.686 15.977 C 148.351 16.302,146.618 16.687,145.835 16.833 C 145.052 16.979,142.302 17.652,139.724 18.328 C 137.145 19.004,134.395 19.684,133.612 19.839 C 131.018 20.352,126.118 21.577,123.611 22.339 C 121.273 23.050,119.747 23.562,115.446 25.079 C 109.993 27.002,103.148 30.922,95.230 36.656 C 89.006 41.164,88.482 41.536,87.987 41.802 C 86.909 42.380,82.635 45.584,77.438 49.709 C 70.669 55.083,61.621 63.931,55.845 70.825 C 55.112 71.699,54.052 72.905,53.489 73.504 C 51.348 75.780,50.094 77.178,48.527 79.035 C 44.152 84.220,42.773 85.918,41.941 87.149 C 41.443 87.886,40.387 89.393,39.594 90.498 C 35.765 95.835,33.547 99.723,30.232 106.907 C 27.142 113.605,26.696 114.838,19.907 135.454 C 18.164 140.749,16.273 146.438,15.707 148.095 C 11.125 161.492,8.801 168.903,8.380 171.452 C 8.297 171.959,7.965 173.541,7.644 174.969 C 6.490 180.092,5.815 185.065,5.531 190.540 C 5.328 194.458,5.441 212.176,5.689 215.153 C 6.102 220.117,6.642 223.972,7.683 229.389 C 8.045 231.274,8.391 233.118,8.450 233.487 C 9.016 236.988,12.966 250.813,15.888 259.523 C 16.336 260.858,16.788 262.313,16.892 262.756 C 17.086 263.576,19.037 269.030,20.574 273.050 C 21.661 275.891,24.636 283.097,26.152 286.563 C 28.843 292.712,36.155 306.246,38.545 309.502 C 38.816 309.870,40.163 311.867,41.540 313.939 C 46.852 321.934,53.018 329.404,60.886 337.375 C 65.711 342.264,66.262 342.852,67.228 344.161 C 74.303 353.744,86.832 363.491,97.698 367.862 C 98.434 368.159,99.905 368.766,100.965 369.211 C 102.025 369.656,104.270 370.544,105.953 371.184 C 108.190 372.035,109.813 372.797,111.979 374.012 C 126.276 382.033,137.784 386.914,149.519 389.935 C 156.100 391.629,165.217 393.090,171.599 393.473 C 173.130 393.565,175.588 393.717,177.062 393.811 C 178.535 393.904,182.001 394.090,184.763 394.222 C 187.526 394.355,191.859 394.629,194.391 394.831 C 198.346 395.146,200.330 395.200,208.455 395.213 C 220.682 395.233,222.366 395.109,234.491 393.294 C 239.285 392.577,249.555 389.717,256.773 387.089 C 261.219 385.470,265.817 383.944,268.815 383.093 C 272.256 382.115,277.867 380.238,280.851 379.066 C 284.695 377.557,288.575 375.937,289.658 375.389 C 292.833 373.785,299.268 370.119,299.958 369.522 C 300.142 369.363,300.933 368.874,301.716 368.437 C 304.260 367.015,312.034 361.394,316.021 358.095 C 325.877 349.938,332.559 343.530,339.846 335.248 C 340.420 334.596,341.919 332.755,343.178 331.158 C 344.436 329.561,346.042 327.539,346.747 326.664 C 347.451 325.789,348.425 324.508,348.911 323.817 C 349.397 323.127,350.561 321.480,351.498 320.158 C 352.436 318.835,354.016 316.575,355.011 315.135 C 357.006 312.247,357.666 311.376,359.386 309.361 C 365.341 302.382,373.424 290.584,374.997 286.572 C 375.212 286.025,375.692 285.065,376.064 284.439 C 377.575 281.895,381.696 272.544,383.207 268.229 C 387.761 255.224,390.559 245.430,391.459 239.347 C 391.569 238.610,391.837 236.877,392.055 235.496 C 392.274 234.115,392.529 232.495,392.623 231.896 C 395.054 216.276,394.612 196.661,391.275 172.039 C 390.077 163.201,387.049 149.737,384.354 141.266 C 383.751 139.369,383.257 137.700,383.257 137.557 C 383.257 136.797,379.938 128.057,377.848 123.315 C 374.473 115.656,372.667 112.139,368.952 105.986 C 367.867 104.190,366.753 102.269,366.476 101.716 C 365.558 99.888,362.647 95.069,360.406 91.670 C 359.192 89.828,357.783 87.681,357.274 86.898 C 356.764 86.116,355.866 84.860,355.277 84.108 C 354.047 82.537,351.617 79.393,350.272 77.632 C 344.243 69.738,329.203 54.732,322.904 50.326 C 322.500 50.043,320.562 48.599,318.598 47.117 C 315.158 44.521,311.728 42.127,311.129 41.904 C 310.971 41.845,309.900 41.185,308.748 40.436 C 304.219 37.491,300.374 35.335,292.926 31.559 C 282.380 26.214,280.378 25.215,279.182 24.706 C 278.545 24.435,276.781 23.635,275.262 22.928 C 270.637 20.778,262.795 17.737,259.523 16.824 C 258.740 16.606,256.028 15.819,253.495 15.076 C 245.838 12.830,238.580 11.012,232.147 9.729 C 226.260 8.556,221.208 8.145,213.730 8.232 L 209.209 8.284 208.647 7.742 C 207.956 7.075,206.890 7.014,204.880 7.528 C 203.432 7.899,203.227 7.860,202.492 7.083 C 201.827 6.379,200.726 6.297,200.116 6.907 M219.841 15.404 C 223.870 17.006,224.378 17.263,229.050 20.066 C 233.177 22.543,233.244 22.596,234.285 24.144 C 235.261 25.595,235.747 26.680,235.747 27.405 C 235.747 27.945,236.159 28.717,236.621 29.040 C 237.729 29.816,239.431 28.864,239.431 27.468 L 239.431 26.773 240.208 27.308 C 240.636 27.603,242.614 29.062,244.604 30.550 C 246.593 32.039,248.372 33.344,248.556 33.451 C 248.889 33.643,248.889 33.644,248.547 33.649 C 247.913 33.659,246.487 34.497,246.134 35.067 C 244.791 37.242,247.285 39.296,249.042 37.462 C 249.310 37.182,249.495 37.147,250.214 37.237 C 250.683 37.295,251.647 37.391,252.355 37.448 L 253.643 37.553 256.242 40.166 C 260.585 44.532,263.007 48.065,266.758 55.504 C 268.124 58.214,271.685 64.681,273.304 67.392 C 274.129 68.774,274.935 70.205,275.094 70.573 C 275.254 70.942,275.929 72.185,276.595 73.336 C 278.012 75.786,282.550 83.870,282.987 84.722 C 287.076 92.694,289.358 98.465,291.231 105.567 C 291.473 106.488,291.973 108.365,292.341 109.739 C 292.709 111.113,293.010 112.330,293.010 112.444 C 293.010 112.590,292.375 112.480,290.875 112.076 C 287.931 111.281,280.606 109.595,278.275 109.176 C 270.396 107.756,268.648 107.446,266.053 107.005 C 251.639 104.556,233.533 102.880,213.395 102.131 C 210.724 102.032,206.919 101.844,204.939 101.713 C 202.959 101.582,199.927 101.424,198.202 101.361 L 195.064 101.246 195.148 100.393 C 195.194 99.924,195.384 97.091,195.569 94.098 C 196.331 81.759,197.566 65.984,198.899 51.570 C 199.449 45.630,199.980 39.715,200.080 38.426 C 200.336 35.140,202.663 15.448,202.813 15.298 C 203.010 15.101,216.191 14.558,217.497 14.693 C 217.911 14.736,218.966 15.056,219.841 15.404 M198.744 15.747 C 198.744 15.958,196.879 34.717,196.390 39.431 C 195.518 47.821,194.582 57.719,193.984 64.881 C 193.845 66.538,193.393 71.699,192.980 76.350 C 192.267 84.368,192.081 86.715,191.455 95.605 C 191.310 97.677,191.147 99.768,191.093 100.251 L 190.996 101.130 189.136 101.134 C 184.088 101.143,175.262 101.701,168.020 102.468 C 166.270 102.653,163.370 102.957,161.574 103.144 C 156.907 103.629,152.688 104.228,148.619 104.984 C 144.993 105.658,144.357 105.793,139.305 106.958 C 135.646 107.803,131.318 108.726,129.343 109.083 C 125.526 109.773,112.933 113.115,107.032 115.005 C 105.470 115.505,104.981 115.605,104.981 115.426 C 104.981 114.627,106.747 107.340,107.248 106.069 C 107.575 105.241,108.038 103.997,108.276 103.307 C 109.900 98.606,117.895 82.403,122.508 74.466 C 123.190 73.292,124.205 71.446,124.763 70.364 C 126.480 67.034,133.824 55.389,136.468 51.805 C 140.963 45.711,143.333 42.749,146.863 38.814 C 148.211 37.312,149.755 35.539,150.295 34.875 C 151.750 33.085,156.333 28.052,157.746 26.692 C 159.695 24.816,165.694 20.756,169.318 18.861 L 171.369 17.788 176.810 17.269 C 179.803 16.983,185.303 16.518,189.033 16.234 C 192.763 15.951,196.003 15.697,196.233 15.670 C 197.333 15.542,198.744 15.585,198.744 15.747 M234.659 16.316 C 241.965 17.439,246.987 18.495,254.268 20.439 C 264.168 23.083,270.835 26.265,271.864 28.838 C 272.631 30.755,274.973 30.310,275.254 28.194 L 275.345 27.505 278.443 28.821 C 281.907 30.293,290.042 34.298,291.586 35.292 C 292.139 35.648,293.872 36.721,295.437 37.677 C 300.739 40.915,306.482 44.905,309.920 47.741 C 310.703 48.386,311.833 49.264,312.432 49.691 C 313.614 50.535,316.164 52.641,317.139 53.579 C 317.474 53.901,318.972 55.220,320.469 56.509 C 321.965 57.798,324.857 60.447,326.894 62.395 C 328.932 64.343,330.902 66.189,331.273 66.497 C 332.370 67.409,341.603 76.870,344.402 79.951 C 345.824 81.516,347.459 83.286,348.036 83.884 C 348.613 84.483,349.371 85.339,349.720 85.786 C 350.070 86.233,351.712 88.231,353.370 90.226 C 356.291 93.743,356.834 94.447,359.643 98.368 C 362.476 102.323,366.166 108.349,366.769 110.004 C 366.886 110.326,367.887 112.436,368.993 114.692 C 371.188 119.169,374.349 126.297,374.967 128.165 C 375.181 128.813,375.860 130.661,376.475 132.273 C 377.674 135.412,379.783 141.532,380.889 145.082 C 381.899 148.322,383.424 153.688,383.426 154.009 C 383.426 154.164,383.769 155.684,384.187 157.388 C 386.273 165.890,388.614 178.713,388.614 181.633 C 388.614 181.885,383.478 174.271,383.245 173.673 C 382.852 172.664,380.324 169.217,377.313 165.585 C 376.300 164.363,375.110 162.904,374.669 162.343 C 374.229 161.782,372.675 160.080,371.218 158.560 C 368.702 155.937,367.555 154.632,366.433 153.118 C 365.161 151.401,357.724 143.731,356.342 142.710 C 355.996 142.455,355.299 141.900,354.793 141.477 C 351.483 138.713,346.982 135.554,344.067 133.949 C 343.197 133.470,341.884 132.679,341.147 132.190 C 338.519 130.447,331.206 126.577,328.841 125.679 C 327.796 125.282,325.721 124.379,323.231 123.237 C 318.096 120.881,311.812 118.475,305.259 116.356 C 302.189 115.363,299.653 114.526,299.622 114.496 C 299.592 114.466,299.080 112.972,298.484 111.176 C 296.618 105.551,295.362 102.411,291.556 93.847 C 291.146 92.926,290.319 90.854,289.718 89.242 C 288.386 85.672,286.189 80.448,284.257 76.253 C 283.751 75.155,282.944 73.391,282.462 72.332 C 281.465 70.138,278.840 65.232,276.684 61.532 C 275.879 60.151,274.919 58.493,274.550 57.848 C 273.406 55.848,270.879 52.111,268.713 49.218 C 267.572 47.694,266.424 46.134,266.161 45.751 C 265.898 45.369,265.105 44.355,264.398 43.499 C 263.691 42.643,262.470 41.076,261.684 40.017 C 258.708 36.006,255.550 32.990,252.909 31.636 C 252.357 31.353,251.218 30.504,250.378 29.751 C 248.847 28.376,246.035 26.231,243.533 24.531 C 242.796 24.030,241.440 23.100,240.519 22.463 C 239.598 21.826,237.941 20.759,236.835 20.092 C 235.730 19.425,234.337 18.448,233.738 17.921 C 233.139 17.394,232.273 16.675,231.812 16.324 C 231.177 15.840,231.076 15.710,231.394 15.783 C 231.624 15.835,233.093 16.075,234.659 16.316 M159.725 19.715 C 159.319 20.061,158.194 21.107,157.225 22.040 C 156.256 22.973,154.634 24.414,153.621 25.242 C 151.702 26.810,144.636 33.861,142.900 35.940 C 142.350 36.598,141.185 38.025,140.310 39.110 C 139.435 40.195,138.354 41.502,137.909 42.015 C 136.788 43.303,134.355 46.527,133.287 48.137 C 132.798 48.874,132.005 49.967,131.524 50.565 C 129.779 52.738,125.825 58.520,122.308 64.044 C 121.311 65.609,120.329 67.116,120.126 67.392 C 119.546 68.182,117.051 72.423,116.768 73.101 C 116.627 73.438,116.188 74.250,115.792 74.906 C 113.170 79.252,109.698 86.308,108.327 90.080 C 107.976 91.046,107.378 92.666,106.999 93.679 C 106.125 96.015,104.503 101.209,103.732 104.144 C 103.405 105.387,102.737 107.497,102.246 108.832 C 101.305 111.396,100.299 114.622,99.929 116.260 L 99.707 117.241 95.856 118.626 C 91.711 120.117,87.029 121.895,85.140 122.696 C 80.680 124.586,78.368 125.524,76.531 126.189 C 66.734 129.736,56.533 134.709,49.142 139.541 C 48.037 140.263,46.643 141.171,46.044 141.558 C 36.085 147.996,27.200 156.129,21.431 164.085 C 20.664 165.144,19.729 166.425,19.355 166.932 C 18.227 168.459,16.743 170.669,16.743 170.822 C 16.743 170.901,16.468 171.396,16.131 171.921 C 15.424 173.023,14.167 175.265,13.108 177.313 C 12.703 178.095,12.413 178.548,12.463 178.317 C 12.513 178.087,12.971 175.977,13.481 173.629 C 13.992 171.281,14.900 167.212,15.501 164.588 C 16.101 161.963,16.675 159.439,16.775 158.979 C 18.133 152.764,23.493 135.694,26.319 128.589 C 29.509 120.566,38.606 101.826,40.323 99.740 C 40.413 99.630,40.954 98.673,41.524 97.614 C 44.150 92.733,50.000 84.056,54.900 77.773 C 58.098 73.674,68.082 63.770,75.848 56.995 C 78.814 54.407,83.001 50.860,83.598 50.428 C 84.362 49.877,89.948 45.607,91.106 44.690 C 94.169 42.264,103.187 36.537,108.414 33.697 C 109.086 33.332,115.165 30.487,117.055 29.653 C 121.002 27.912,126.701 25.837,130.431 24.784 C 131.122 24.589,132.855 24.089,134.282 23.674 C 138.042 22.578,143.797 21.525,154.793 19.920 C 157.832 19.476,160.351 19.107,160.390 19.100 C 160.430 19.093,160.130 19.370,159.725 19.715 M190.602 106.111 C 190.535 106.680,189.717 116.825,188.863 127.668 C 188.682 129.971,188.194 136.488,187.779 142.152 C 187.364 147.815,186.762 155.990,186.442 160.318 C 184.941 180.603,183.556 201.098,183.337 206.269 C 183.242 208.520,183.142 210.384,183.115 210.411 C 183.088 210.438,180.585 210.197,177.552 209.876 C 174.520 209.555,167.570 208.837,162.108 208.280 C 156.646 207.724,149.677 207.012,146.620 206.698 C 130.515 205.048,113.601 203.545,99.540 202.515 C 97.606 202.374,95.553 202.215,94.977 202.162 L 93.931 202.066 93.932 201.368 C 93.953 192.270,94.733 177.140,95.784 165.462 C 96.766 154.546,96.985 152.950,98.268 147.414 C 98.910 144.645,99.566 141.706,99.725 140.884 C 99.885 140.062,100.445 137.392,100.970 134.952 C 101.495 132.512,102.324 128.481,102.812 125.994 C 103.301 123.508,103.781 121.386,103.880 121.278 C 104.039 121.106,111.950 118.483,115.111 117.554 C 115.756 117.365,118.317 116.596,120.804 115.846 C 134.927 111.588,140.500 110.186,147.677 109.088 C 150.436 108.666,159.197 107.334,160.402 107.154 C 167.570 106.082,175.108 105.596,185.794 105.519 L 190.676 105.483 190.602 106.111 M206.697 105.651 C 211.037 105.833,212.734 105.991,225.785 107.427 C 231.218 108.024,236.568 108.590,237.673 108.682 C 242.426 109.082,264.385 111.634,267.811 112.185 C 268.363 112.274,270.096 112.540,271.662 112.775 C 277.610 113.670,282.892 114.703,289.661 116.293 C 291.825 116.802,293.762 117.253,293.966 117.296 C 294.403 117.389,294.311 117.086,295.756 123.231 C 297.637 131.235,299.630 141.356,300.271 146.170 C 300.412 147.229,300.718 149.301,300.950 150.774 C 303.626 167.752,304.895 183.211,304.897 198.860 L 304.897 206.426 304.186 206.514 C 303.794 206.563,300.573 206.760,297.028 206.953 C 290.512 207.307,274.654 208.324,265.885 208.950 C 263.261 209.138,258.891 209.446,256.174 209.635 C 247.480 210.240,216.499 213.115,212.172 213.718 C 211.868 213.760,210.135 213.614,208.321 213.392 C 206.507 213.170,202.085 212.647,198.493 212.231 C 190.740 211.332,189.333 211.155,189.246 211.068 C 189.210 211.032,189.449 206.342,189.777 200.646 C 190.105 194.949,190.449 188.970,190.542 187.359 C 190.861 181.785,191.527 168.008,191.630 164.839 C 191.688 163.089,191.916 158.305,192.138 154.207 C 192.360 150.109,192.657 144.533,192.798 141.817 C 193.520 127.924,194.674 107.697,194.821 106.362 L 194.917 105.483 198.966 105.490 C 201.192 105.493,204.671 105.566,206.697 105.651 M305.232 120.632 C 314.849 123.701,321.740 126.403,328.589 129.791 C 339.050 134.964,340.779 135.998,347.677 141.204 C 354.390 146.270,364.047 155.894,369.823 163.274 C 371.456 165.360,373.264 167.658,373.841 168.381 C 383.014 179.869,382.629 179.340,384.074 182.434 C 387.894 190.617,389.787 196.884,389.787 201.355 L 389.787 203.900 387.568 203.996 C 386.348 204.049,381.356 204.133,376.475 204.183 C 358.592 204.365,321.861 205.482,310.964 206.176 L 309.748 206.253 309.856 199.443 C 310.011 189.748,309.611 178.765,308.737 168.690 C 308.553 166.572,308.330 163.709,308.240 162.327 C 307.821 155.889,305.758 141.706,303.954 132.859 C 303.217 129.246,301.139 120.321,300.867 119.601 L 300.729 119.236 301.599 119.493 C 302.078 119.635,303.713 120.147,305.232 120.632 M98.116 123.151 C 98.116 123.199,97.852 124.399,97.530 125.817 C 96.244 131.471,94.615 141.485,93.756 149.016 C 93.562 150.720,93.253 152.792,93.069 153.621 C 92.503 156.176,91.918 159.098,91.761 160.151 C 91.679 160.703,91.267 163.032,90.847 165.327 C 88.593 177.629,87.801 189.246,88.546 199.064 C 88.654 200.483,88.718 201.668,88.689 201.698 C 88.659 201.727,86.078 201.601,82.953 201.417 C 79.828 201.234,74.935 201.011,72.080 200.923 C 69.226 200.834,63.876 200.649,60.193 200.510 C 51.411 200.180,40.697 199.916,36.029 199.916 C 33.974 199.916,30.659 199.840,28.662 199.747 C 26.665 199.655,22.140 199.469,18.606 199.336 C 11.345 199.062,11.968 199.161,12.316 198.329 C 13.103 196.446,14.510 194.791,15.805 194.225 C 17.201 193.616,17.667 192.717,17.152 191.630 C 16.659 190.592,15.283 190.403,13.750 191.161 C 13.145 191.460,13.060 191.470,13.133 191.233 C 13.179 191.082,13.631 189.602,14.137 187.945 C 15.051 184.951,16.704 180.081,17.405 178.317 C 17.945 176.960,20.637 171.974,21.952 169.897 C 26.980 161.956,40.722 149.790,52.367 142.970 C 58.052 139.640,61.099 137.930,64.546 136.134 C 65.835 135.463,66.965 134.855,67.057 134.784 C 67.149 134.712,67.941 134.350,68.815 133.978 C 69.690 133.606,71.800 132.628,73.504 131.804 C 78.665 129.307,82.091 127.953,87.484 126.278 C 88.681 125.906,91.469 125.037,93.679 124.347 C 97.656 123.106,98.116 122.982,98.116 123.151 M47.384 204.078 C 67.748 205.197,89.072 206.513,89.157 206.656 C 89.170 206.679,89.316 207.941,89.481 209.460 C 89.646 210.979,89.962 213.504,90.183 215.069 C 90.436 216.857,90.706 220.188,90.911 224.027 C 91.786 240.484,92.105 244.640,93.107 252.658 C 94.469 263.562,96.538 273.633,99.396 283.269 C 99.815 284.680,100.113 285.878,100.060 285.931 C 100.007 285.985,99.039 285.756,97.909 285.423 C 96.780 285.089,95.630 284.769,95.354 284.710 C 92.717 284.149,76.650 278.321,70.573 275.722 C 68.046 274.641,59.407 270.379,57.681 269.362 C 56.576 268.711,55.182 267.891,54.583 267.540 C 53.064 266.649,50.232 264.558,48.260 262.871 C 43.991 259.219,43.044 258.329,40.651 255.723 C 39.243 254.189,37.526 252.318,36.835 251.565 C 35.593 250.210,35.005 249.501,31.513 245.147 C 30.527 243.916,29.276 242.372,28.734 241.714 C 27.204 239.858,25.148 237.176,24.297 235.927 C 20.148 229.835,17.925 225.888,16.592 222.247 C 16.326 221.522,15.767 220.119,15.348 219.129 C 14.806 217.845,14.654 217.329,14.820 217.329 C 16.137 217.329,16.914 215.424,16.021 214.386 C 15.705 214.019,15.402 213.900,14.395 213.749 L 13.157 213.562 12.440 211.302 C 11.624 208.729,11.293 207.163,11.124 205.073 L 11.006 203.616 12.158 203.550 C 17.233 203.258,38.168 203.571,47.384 204.078 M104.897 207.790 C 129.391 209.602,133.218 209.911,149.519 211.397 C 164.829 212.792,182.631 214.555,182.765 214.689 C 182.814 214.738,182.737 216.549,182.595 218.714 C 182.452 220.879,182.336 222.691,182.336 222.740 C 182.336 222.788,182.111 222.878,181.835 222.938 C 180.713 223.185,180.487 224.047,180.826 226.794 C 181.203 229.847,182.670 244.863,182.994 248.974 C 183.863 259.998,185.474 283.993,186.013 293.931 C 186.108 295.680,186.231 297.715,186.286 298.452 L 186.387 299.793 181.892 299.594 C 173.382 299.217,167.346 298.855,165.341 298.602 C 156.154 297.440,144.637 295.752,136.794 294.417 C 133.801 293.907,130.599 293.376,129.678 293.236 C 124.612 292.465,113.537 289.879,105.373 287.562 L 104.509 287.316 103.998 285.182 C 103.246 282.035,102.048 275.702,101.394 271.411 C 100.803 267.527,100.672 266.498,98.944 252.095 C 97.880 243.230,97.371 239.553,95.520 227.375 C 94.244 218.977,94.156 218.061,94.026 211.674 L 93.930 206.939 94.977 207.037 C 95.552 207.090,100.017 207.429,104.897 207.790 M374.002 207.908 C 373.655 207.944,373.127 207.944,372.830 207.907 C 372.533 207.870,372.817 207.840,373.462 207.841 C 374.106 207.841,374.350 207.872,374.002 207.908 M369.443 208.205 C 363.475 208.645,324.419 211.057,312.976 211.692 L 309.418 211.890 309.418 210.857 L 309.418 209.823 310.632 209.731 C 312.561 209.584,315.621 209.462,321.557 209.293 C 324.596 209.207,331.641 208.979,337.212 208.785 C 349.799 208.348,363.556 208.002,368.522 207.999 L 372.290 207.996 369.443 208.205 M304.730 211.037 L 304.730 212.112 303.684 212.210 C 301.291 212.432,273.870 213.640,263.541 213.978 C 256.086 214.222,240.910 214.653,240.603 214.630 C 238.688 214.485,282.609 211.238,298.954 210.317 C 301.992 210.145,304.535 209.995,304.604 209.984 C 304.674 209.972,304.730 210.446,304.730 211.037 M389.452 211.599 C 389.452 218.083,383.389 230.607,376.060 239.263 C 375.631 239.770,375.154 240.370,375.000 240.596 C 374.846 240.823,372.968 242.810,370.826 245.012 C 368.684 247.213,366.907 249.081,366.876 249.162 C 366.807 249.343,358.157 257.430,356.739 258.639 C 356.175 259.120,354.508 260.468,353.035 261.635 C 351.561 262.802,350.280 263.842,350.188 263.947 C 349.819 264.366,345.653 267.309,344.202 268.176 C 343.350 268.684,342.427 269.271,342.150 269.480 C 341.279 270.136,332.022 274.832,330.180 275.553 C 325.288 277.467,317.360 280.010,304.897 283.664 C 303.010 284.217,300.718 284.889,299.805 285.157 C 297.837 285.734,297.948 285.788,298.357 284.454 C 298.855 282.829,299.835 278.958,299.964 278.108 C 300.027 277.694,300.300 276.418,300.572 275.273 C 302.663 266.453,304.782 253.133,306.325 239.096 C 306.563 236.932,306.935 234.106,307.151 232.817 C 307.757 229.198,308.620 221.896,309.025 216.959 L 309.131 215.668 309.819 215.583 C 310.197 215.536,312.654 215.380,315.278 215.237 C 323.407 214.794,343.699 213.512,357.723 212.556 C 375.567 211.340,378.029 211.172,382.252 210.879 C 386.876 210.559,387.332 210.531,388.489 210.495 L 389.452 210.465 389.452 211.599 M197.010 216.080 C 200.957 216.498,205.388 216.965,206.857 217.119 C 209.298 217.375,209.571 217.437,210.038 217.841 C 210.319 218.085,210.741 218.331,210.977 218.388 C 211.517 218.519,237.982 218.226,246.044 218.000 C 249.360 217.906,255.877 217.755,260.527 217.663 C 265.178 217.571,271.658 217.382,274.927 217.243 C 285.120 216.808,299.514 216.153,302.051 216.010 C 303.386 215.934,304.499 215.888,304.524 215.906 C 304.584 215.952,304.120 222.995,303.802 226.873 C 303.162 234.660,303.064 235.335,301.042 245.710 C 299.735 252.417,298.481 258.531,297.124 264.797 C 296.526 267.560,295.199 273.813,294.174 278.693 C 293.149 283.574,292.223 287.621,292.116 287.687 C 292.009 287.753,290.980 288.157,289.829 288.586 C 288.677 289.015,286.307 289.930,284.561 290.621 C 281.291 291.914,279.955 292.295,275.666 293.160 C 274.292 293.437,271.812 293.967,270.155 294.337 C 259.730 296.668,246.851 299.288,241.356 300.195 C 233.256 301.532,234.042 301.468,226.036 301.437 C 218.606 301.408,217.091 301.352,204.404 300.630 C 200.416 300.404,195.789 300.167,194.120 300.105 L 191.087 299.991 190.981 298.384 C 190.838 296.225,190.271 285.609,189.956 279.196 C 189.816 276.342,189.589 271.783,189.452 269.067 C 188.280 245.886,187.942 229.447,188.491 222.269 C 188.688 219.690,188.853 217.072,188.858 216.450 L 188.866 215.320 189.350 215.320 C 189.616 215.320,193.063 215.662,197.010 216.080 M13.492 227.715 C 13.819 227.823,14.230 227.874,14.404 227.828 C 14.740 227.740,16.348 230.178,16.922 231.645 C 17.542 233.231,21.516 240.459,23.872 244.286 C 24.467 245.253,25.075 246.291,25.223 246.592 C 25.979 248.132,29.741 253.112,32.568 256.313 C 36.007 260.207,42.837 265.706,46.950 267.892 C 47.603 268.239,48.627 268.809,49.226 269.158 C 55.128 272.601,65.545 277.661,72.834 280.623 C 79.229 283.223,82.614 284.422,96.297 288.934 L 101.594 290.681 101.699 291.206 C 102.132 293.371,105.399 302.974,107.326 307.744 C 107.717 308.711,108.224 310.029,108.454 310.674 C 109.239 312.879,111.209 317.204,114.059 322.980 C 119.011 333.017,123.209 341.343,124.083 342.861 C 124.547 343.668,125.072 344.656,125.249 345.056 C 126.073 346.918,129.358 352.090,132.725 356.825 C 137.708 363.834,146.616 372.079,155.128 377.559 C 156.877 378.686,158.535 379.817,158.811 380.072 C 159.547 380.753,162.963 383.251,164.453 384.197 C 165.161 384.647,166.329 385.389,167.048 385.846 C 167.767 386.303,169.028 387.051,169.851 387.510 C 171.684 388.530,171.556 388.590,168.735 388.038 C 159.661 386.262,150.447 383.506,138.468 378.985 C 136.856 378.376,134.558 377.547,133.361 377.141 C 132.164 376.735,129.527 375.792,127.501 375.045 C 125.475 374.298,122.311 373.161,120.469 372.518 C 112.520 369.745,109.384 368.492,108.027 367.548 C 107.779 367.375,106.220 366.420,104.563 365.424 C 102.905 364.429,100.343 362.845,98.870 361.906 C 97.396 360.966,95.927 360.063,95.605 359.900 C 94.882 359.533,92.137 357.712,88.866 355.428 C 87.508 354.480,85.737 353.253,84.931 352.700 C 79.165 348.749,68.911 340.355,67.392 338.343 C 64.617 334.667,59.299 327.335,57.525 324.738 C 56.832 323.725,55.511 321.879,54.588 320.636 C 51.265 316.160,49.956 314.353,49.857 314.106 C 49.801 313.968,49.145 313.026,48.401 312.013 C 43.296 305.073,33.935 290.797,33.254 288.914 C 33.189 288.734,32.581 287.604,31.903 286.403 C 29.937 282.919,26.401 275.745,25.421 273.252 C 25.186 272.654,24.675 271.373,24.286 270.406 C 23.474 268.388,21.468 263.148,20.473 260.444 C 19.608 258.093,17.211 250.452,16.822 248.807 C 16.659 248.116,16.163 246.120,15.721 244.370 C 14.469 239.421,11.888 227.328,11.888 226.412 C 11.888 226.347,12.115 226.570,12.392 226.906 C 12.670 227.243,13.164 227.607,13.492 227.715 M387.841 229.092 C 387.810 229.299,387.589 230.825,387.351 232.482 C 386.746 236.690,385.748 242.110,384.868 245.961 C 384.457 247.756,383.959 249.941,383.761 250.816 C 382.418 256.737,380.108 263.537,377.359 269.653 C 376.532 271.494,375.593 273.627,375.273 274.392 C 374.522 276.189,371.307 282.229,369.093 286.003 C 368.140 287.628,367.049 289.549,366.670 290.272 C 366.290 290.995,365.580 292.189,365.091 292.926 C 364.355 294.035,361.660 298.256,358.960 302.531 C 356.289 306.760,353.927 310.125,352.367 311.924 C 351.371 313.072,350.337 314.315,350.068 314.687 C 349.799 315.058,348.812 316.217,347.875 317.263 C 344.907 320.572,342.212 323.713,341.821 324.320 C 341.613 324.642,340.956 325.433,340.361 326.078 C 339.766 326.722,338.019 328.757,336.478 330.599 C 324.685 344.693,318.325 351.143,309.666 357.792 C 308.331 358.817,306.966 359.809,306.633 359.996 C 306.083 360.305,305.283 360.807,300.712 363.713 C 298.810 364.922,295.187 366.936,292.557 368.248 C 286.427 371.305,275.996 376.045,273.922 376.716 C 273.416 376.880,271.010 377.818,268.576 378.801 C 262.417 381.288,255.174 383.074,239.012 386.094 C 232.413 387.326,231.541 387.478,231.470 387.407 C 231.420 387.357,233.922 385.845,235.915 384.720 C 237.060 384.073,240.246 381.723,241.189 380.828 C 242.279 379.794,245.270 377.168,246.361 376.286 C 247.166 375.636,249.495 373.295,253.752 368.857 C 255.763 366.761,257.492 364.705,259.188 362.394 C 259.787 361.579,260.641 360.458,261.086 359.903 C 262.872 357.679,266.424 352.121,269.877 346.144 C 270.258 345.485,271.184 344.129,271.936 343.130 C 273.165 341.497,276.042 337.265,278.907 332.877 C 283.999 325.077,289.587 312.987,291.515 305.600 C 292.578 301.529,293.264 299.344,294.627 295.698 C 296.275 291.290,295.875 291.891,297.477 291.421 C 302.295 290.006,307.290 288.404,311.417 286.949 C 314.047 286.022,317.028 284.978,318.041 284.628 C 321.132 283.560,327.577 280.856,332.273 278.656 C 336.073 276.876,337.810 276.099,337.987 276.099 C 338.336 276.099,347.565 270.716,349.770 269.226 C 350.553 268.697,351.607 268.023,352.114 267.727 C 353.785 266.752,356.336 264.845,359.383 262.292 C 361.036 260.907,362.799 259.445,363.301 259.042 C 364.827 257.820,372.524 249.855,374.011 247.962 C 374.405 247.460,375.610 245.948,376.690 244.602 C 380.292 240.111,382.163 237.710,382.795 236.767 C 383.139 236.252,383.964 235.046,384.629 234.086 C 385.294 233.126,386.282 231.525,386.825 230.528 C 387.889 228.576,387.927 228.522,387.841 229.092 M108.916 292.766 C 110.113 293.066,113.315 293.882,116.032 294.580 C 128.734 297.845,141.475 300.201,151.360 301.114 C 154.058 301.363,155.479 301.475,162.315 301.978 C 164.150 302.113,167.917 302.522,170.687 302.886 C 173.456 303.251,178.164 303.851,181.148 304.221 C 184.132 304.591,186.592 304.913,186.614 304.937 C 186.637 304.961,186.740 306.488,186.843 308.330 C 186.946 310.172,187.141 313.562,187.275 315.864 C 187.567 320.842,188.017 328.837,188.695 341.063 C 189.580 357.008,191.206 383.967,191.470 387.066 L 191.573 388.280 191.141 388.280 C 187.500 388.280,176.179 384.832,169.617 381.724 C 167.580 380.759,166.884 380.377,162.903 378.043 C 161.839 377.419,160.822 376.855,160.643 376.791 C 160.302 376.668,159.055 375.675,157.629 374.392 C 157.163 373.972,155.443 372.461,153.805 371.034 C 146.197 364.403,136.656 354.035,132.849 348.263 C 132.090 347.112,130.700 345.040,129.760 343.658 C 128.300 341.513,124.906 336.005,124.906 335.782 C 124.906 335.741,124.190 334.426,123.315 332.859 C 122.440 331.292,121.725 329.982,121.725 329.949 C 121.725 329.916,121.135 328.654,120.415 327.146 C 117.182 320.378,109.382 301.903,108.151 298.100 C 107.856 297.188,107.248 295.468,106.800 294.278 C 105.848 291.749,105.889 291.952,106.362 292.102 C 106.570 292.168,107.719 292.467,108.916 292.766 M290.511 295.609 C 290.160 296.988,289.720 298.493,289.534 298.954 C 288.803 300.760,285.224 308.752,284.473 310.255 C 284.035 311.130,283.620 312.034,283.550 312.265 C 283.380 312.822,281.692 316.195,278.775 321.808 C 277.459 324.341,275.617 327.920,274.682 329.761 C 273.747 331.603,272.528 333.901,271.973 334.868 C 271.418 335.835,270.142 338.118,269.137 339.941 C 267.361 343.163,265.665 345.610,260.099 352.977 C 259.449 353.838,258.640 354.956,258.301 355.463 C 257.600 356.512,255.951 358.668,252.574 362.953 C 251.285 364.589,250.023 366.229,249.771 366.597 C 249.518 366.965,248.994 367.606,248.607 368.020 C 248.220 368.434,247.079 369.678,246.071 370.783 C 243.326 373.794,240.675 376.505,240.149 376.839 C 239.892 377.003,239.192 377.524,238.594 377.998 C 226.360 387.679,214.290 390.853,196.721 389.010 L 195.786 388.912 195.585 384.954 C 195.297 379.287,194.505 364.703,193.638 349.100 C 191.939 318.532,191.734 314.729,191.639 311.846 C 191.584 310.188,191.492 308.050,191.434 307.094 L 191.328 305.355 192.232 305.465 C 201.294 306.569,217.233 306.682,226.538 305.708 C 228.833 305.468,231.794 305.326,236.501 305.231 C 244.383 305.072,247.872 304.807,253.077 303.971 C 260.647 302.755,268.417 300.588,277.773 297.082 C 282.062 295.475,290.801 292.853,291.117 293.079 C 291.134 293.092,290.862 294.230,290.511 295.609 " stroke="none" fill="#04fcfc" fill-rule="evenodd"></path><path id="path1" d="" stroke="none" fill="#08fcfc" fill-rule="evenodd"></path></g></svg>