<svg id="Angry-Face--Streamline-Openmoji" viewBox="0 0 155 155" xmlns="http://www.w3.org/2000/svg" height="155" width="155"><desc>Angry Face Streamline Emoji: https://streamlinehq.com</desc><g id="color"><path fill="#56b6f7" d="M77.5 4.714583333333333C37.365763888888885 4.714583333333333 4.714583333333333 37.365763888888885 4.714583333333333 77.5c0 40.133805555555554 32.651180555555555 72.78541666666666 72.78541666666666 72.78541666666666 40.133805555555554 0 72.78541666666666 -32.65161111111111 72.78541666666666 -72.78541666666666C150.28541666666666 37.365763888888885 117.63380555555555 4.714583333333333 77.5 4.714583333333333Z" stroke-width="2.1528"></path></g><g id="hair"></g><g id="skin"></g><g id="skin-shadow"></g><g id="line"><path fill="none" stroke="#000000" stroke-miterlimit="10" stroke-width="4.3056" d="M4.714583333333333 77.5c0 56.03034722222222 60.654513888888886 91.04915277777776 109.17812500000001 63.03397916666666C136.41270138888888 127.53206249999998 150.28541666666666 103.50361805555555 150.28541666666666 77.5c0 -56.03034722222222 -60.654513888888886 -91.04915277777776 -109.17812500000001 -63.03397916666666C18.58729861111111 27.467937499999998 4.714583333333333 51.496381944444444 4.714583333333333 77.5"></path><path d="M58.512499999999996 67.76944444444445c0 5.242875 -4.255826388888889 9.49375 -9.49375 9.49375 -5.238354166666666 0 -9.49375 -4.250875 -9.49375 -9.49375 0 -5.238138888888888 4.255395833333333 -9.49375 9.49375 -9.49375 5.237923611111111 0 9.49375 4.255826388888889 9.49375 9.49375" stroke-width="2.1528"></path><path d="M115.475 67.76944444444445c0 5.242875 -4.255395833333333 9.49375 -9.49375 9.49375s-9.49375 -4.250875 -9.49375 -9.49375c0 -5.238138888888888 4.255395833333333 -9.49375 9.49375 -9.49375s9.49375 4.255826388888889 9.49375 9.49375" stroke-width="2.1528"></path><path fill="none" stroke="#000000" stroke-linecap="round" stroke-linejoin="round" stroke-miterlimit="10" stroke-width="4.3056" d="m36.360416666666666 39.525 22.15208333333333 12.658333333333333"></path><path fill="none" stroke="#000000" stroke-linecap="round" stroke-linejoin="round" stroke-miterlimit="10" stroke-width="4.3056" d="m118.63958333333332 39.525 -22.15208333333333 12.658333333333333"></path><path fill="none" stroke="#000000" stroke-linecap="round" stroke-linejoin="round" stroke-miterlimit="10" stroke-width="4.3056" d="M56.93020833333333 99.65208333333332c4.063583333333333 -2.017798611111111 12.609895833333333 -3.2621041666666666 21.65242361111111 -3.1585555555555556 8.3021875 0.0949375 15.790409722222222 1.3119027777777779 19.48715972222222 3.1585555555555556"></path></g></svg>