<svg id="Face-With-Open-Mouth--Streamline-Openmoji" viewBox="0 0 32 32" xmlns="http://www.w3.org/2000/svg" height="32" width="32"><desc>Face With Open Mouth Streamline Emoji: https://streamlinehq.com</desc><g id="color"><path fill="#56b6f7" d="M0.9733333333333333 16c0 11.567555555555556 12.522222222222222 18.79724444444444 22.54 13.013466666666666C28.162622222222222 26.329199999999997 31.026666666666667 21.368488888888887 31.026666666666667 16c0 -11.567555555555556 -12.522222222222222 -18.79724444444444 -22.54 -13.013466666666666C3.8373777777777778 5.6708 0.9733333333333333 10.631511111111111 0.9733333333333333 16" stroke-width="0.4444"></path><path fill="#ffffff" d="M12.246488888888889 23.411111111111108c0 2.8894666666666664 3.1279111111111106 4.695377777777778 5.6302666666666665 3.2506222222222223 1.1613777777777778 -0.6704888888888888 1.8767555555555553 -1.9096444444444445 1.8767555555555553 -3.2506222222222223 0 -2.889511111111111 -3.1279111111111106 -4.695422222222222 -5.6302666666666665 -3.2506666666666666 -1.1613333333333333 0.6704888888888888 -1.8767555555555553 1.9096444444444445 -1.8767555555555553 3.2506666666666666" stroke-width="0.4444"></path></g><g id="hair"></g><g id="skin"></g><g id="skin-shadow"></g><g id="line"><path fill="none" stroke="#000000" stroke-linecap="round" stroke-linejoin="round" stroke-miterlimit="10" stroke-width="0.8889" d="M0.9733333333333333 16c0 11.567555555555556 12.522222222222222 18.79724444444444 22.54 13.013466666666666C28.162622222222222 26.329199999999997 31.026666666666667 21.368488888888887 31.026666666666667 16c0 -11.567555555555556 -12.522222222222222 -18.79724444444444 -22.54 -13.013466666666666C3.8373777777777778 5.6708 0.9733333333333333 10.631511111111111 0.9733333333333333 16"></path><path fill="none" stroke="#000000" stroke-linecap="round" stroke-linejoin="round" stroke-miterlimit="10" stroke-width="0.8889" d="M12.246488888888889 23.411111111111108c0 2.8894666666666664 3.1279111111111106 4.695377777777778 5.6302666666666665 3.2506222222222223 1.1613777777777778 -0.6704888888888888 1.8767555555555553 -1.9096444444444445 1.8767555555555553 -3.2506222222222223 0 -2.889511111111111 -3.1279111111111106 -4.695422222222222 -5.6302666666666665 -3.2506666666666666 -1.1613333333333333 0.6704888888888888 -1.8767555555555553 1.9096444444444445 -1.8767555555555553 3.2506666666666666"></path><path d="M12.08 12.733333333333333c0 1.0824444444444445 -0.8786222222222222 1.96 -1.96 1.96 -1.0814666666666666 0 -1.96 -0.8775999999999999 -1.96 -1.96 0 -1.0813777777777778 0.8785333333333333 -1.96 1.96 -1.96 1.0813777777777778 0 1.96 0.8786222222222222 1.96 1.96" stroke-width="0.4444"></path><path d="M23.84 12.733333333333333c0 1.0824444444444445 -0.8785333333333333 1.96 -1.96 1.96s-1.96 -0.8775999999999999 -1.96 -1.96c0 -1.0813777777777778 0.8785333333333333 -1.96 1.96 -1.96s1.96 0.8786222222222222 1.96 1.96" stroke-width="0.4444"></path></g></svg>