<svg id="Face-With-Spiral-Eyes--Streamline-Openmoji" viewBox="0 0 32 32" xmlns="http://www.w3.org/2000/svg" height="32" width="32"><desc>Face With Spiral Eyes Streamline Emoji: https://streamlinehq.com</desc><g id="color"><path fill="#ff5252" d="M16 0.9733333333333333C4.432444444444444 0.9733333333333333 -2.7972444444444444 13.495555555555555 2.986533333333333 23.513333333333332c5.783777777777778 10.017777777777777 20.243155555555553 10.017777777777777 26.026933333333332 0C30.33235555555555 21.228977777777775 31.026666666666667 18.637733333333333 31.026666666666667 16 31.017288888888885 7.704888888888888 24.29511111111111 0.9827111111111111 16 0.9733333333333333Z" stroke-width="0.4444"></path></g><g id="line"><path fill="none" stroke="#000000" stroke-miterlimit="10" stroke-width="0.8889" d="M0.9733333333333333 16c0 11.567511111111111 12.522222222222222 18.79724444444444 22.54 13.013466666666666C28.162622222222222 26.329199999999997 31.026666666666667 21.368488888888887 31.026666666666667 16c0 -11.567555555555556 -12.522222222222222 -18.79724444444444 -22.54 -13.013466666666666C3.8373777777777778 5.6708 0.9733333333333333 10.631466666666666 0.9733333333333333 16"></path><path stroke="#000000" stroke-miterlimit="10" stroke-width="1.1156" d="M15.854844444444444 21.045555555555556c-2.0965333333333334 0.0001333333333333333 -3.4067555555555553 2.2697777777777777 -2.3583555555555553 4.0853777777777776 1.0483555555555555 1.8155999999999999 3.669022222222222 1.815422222222222 4.717199999999999 -0.00031111111111111107 1.0480888888888888 -1.8155555555555554 -0.26213333333333333 -4.084933333333334 -2.3585333333333334 -4.085066666666666Z"></path><g><g><path fill="none" stroke="#000000" stroke-linecap="round" stroke-miterlimit="10" stroke-width="0.8889" d="M19.443066666666663 12.7192c0 -2.7607555555555554 2.9886222222222223 -4.486222222222222 5.3795111111111105 -3.1058222222222223 1.1096 0.6406222222222222 1.7931555555555556 1.8245777777777776 1.7931555555555556 3.1058222222222223"></path><path fill="none" stroke="#000000" stroke-linecap="round" stroke-miterlimit="10" stroke-width="0.8889" d="M21.834266666666664 12.7192c0 -0.9203555555555556 0.9963555555555555 -1.4955999999999998 1.793422222222222 -1.0353777777777777 0.36991111111111113 0.21355555555555553 0.5977777777777777 0.6082666666666666 0.5977777777777777 1.0353777777777777"></path></g><path fill="none" stroke="#000000" stroke-linecap="round" stroke-miterlimit="10" stroke-width="0.8889" d="M19.443066666666663 12.7192c-0.0015111111111111109 2.639422222222222 2.136933333333333 4.780311111111111 4.776311111111111 4.781822222222222h0.005511111111111111"></path><path fill="none" stroke="#000000" stroke-linecap="round" stroke-miterlimit="10" stroke-width="0.8889" d="M21.834266666666664 12.7192c-0.030444444444444444 1.8405333333333334 1.9429333333333332 3.0237777777777777 3.552088888888889 2.1298666666666666 0.7467999999999999 -0.4148444444444444 1.2155555555555555 -1.1966222222222223 1.2296444444444445 -2.0507999999999997q0.0006666666666666666 -0.0392 0 -0.07906666666666666"></path></g><g><g><path fill="none" stroke="#000000" stroke-linecap="round" stroke-miterlimit="10" stroke-width="0.8889" d="M5.099466666666666 12.7192c0 -2.7607555555555554 2.9886222222222223 -4.486222222222222 5.3795111111111105 -3.1058222222222223 1.1096 0.6406222222222222 1.7931555555555556 1.8245777777777776 1.7931555555555556 3.1058222222222223"></path><path fill="none" stroke="#000000" stroke-linecap="round" stroke-miterlimit="10" stroke-width="0.8889" d="M7.490355555555555 12.7192c0 -0.9203555555555556 0.9963111111111109 -1.4955999999999998 1.7933777777777777 -1.0353777777777777 0.36991111111111113 0.21355555555555553 0.5977777777777777 0.6082666666666666 0.5978222222222221 1.0353777777777777"></path></g><path fill="none" stroke="#000000" stroke-linecap="round" stroke-miterlimit="10" stroke-width="0.8889" d="M5.099466666666666 12.7192c-0.0015111111111111109 2.639422222222222 2.1368888888888886 4.780311111111111 4.776311111111111 4.781822222222222h0.005511111111111111"></path><path fill="none" stroke="#000000" stroke-linecap="round" stroke-miterlimit="10" stroke-width="0.8889" d="M7.490355555555555 12.7192c-0.028888888888888888 1.8405333333333334 1.9454666666666665 3.022133333333333 3.5538666666666665 2.1268444444444445 0.7464444444444444 -0.41546666666666665 1.2145333333333332 -1.1976444444444445 1.227911111111111 -2.051822222222222q0.0006222222222222221 -0.03742222222222222 0 -0.07502222222222223"></path></g></g></svg>