<svg id="Face-With-Rolling-Eyes--Streamline-Openmoji" viewBox="0 0 32 32" xmlns="http://www.w3.org/2000/svg" height="32" width="32"><desc>Face With Rolling Eyes Streamline Emoji: https://streamlinehq.com</desc><g id="color"><path fill="#56b6f7" d="M0.9733333333333333 16c0 11.567555555555556 12.522222222222222 18.79724444444444 22.54 13.013466666666666C28.162622222222222 26.329199999999997 31.026666666666667 21.368488888888887 31.026666666666667 16c0 -11.567555555555556 -12.522222222222222 -18.79724444444444 -22.54 -13.013466666666666C3.8373777777777778 5.6708 0.9733333333333333 10.631511111111111 0.9733333333333333 16" stroke-width="0.4444"></path><path fill="#ffffff" d="M18.286666666666665 13.386666666666667c0 3.269066666666667 3.5388888888888888 5.312266666666667 6.369999999999999 3.6777333333333333 1.313911111111111 -0.7586222222222222 2.123333333333333 -2.1605333333333334 2.123333333333333 -3.6777333333333333 0 -3.269066666666667 -3.5388888888888888 -5.312266666666667 -6.369999999999999 -3.6777333333333333 -1.313911111111111 0.7586222222222222 -2.123333333333333 2.1605333333333334 -2.123333333333333 3.6777333333333333" stroke-width="0.4444"></path><path fill="#ffffff" d="M5.22 13.386666666666667c0 3.269066666666667 3.5388888888888888 5.312266666666667 6.369999999999999 3.6777333333333333 1.313911111111111 -0.7586222222222222 2.123333333333333 -2.1605333333333334 2.123333333333333 -3.6777333333333333 0 -3.269066666666667 -3.5388888888888888 -5.312266666666667 -6.369999999999999 -3.6777333333333333 -1.313911111111111 0.7586222222222222 -2.123333333333333 2.1605333333333334 -2.123333333333333 3.6777333333333333" stroke-width="0.4444"></path></g><g id="hair"></g><g id="skin"></g><g id="skin-shadow"></g><g id="line"><path id="SVGID_5_" d="M20.9 10.773333333333332c0 1.285288888888889 1.3913777777777776 2.088622222222222 2.504488888888889 1.4459555555555554 0.5165777777777778 -0.2982666666666667 0.8348444444444444 -0.8494222222222222 0.8348444444444444 -1.4459555555555554 0 -1.285288888888889 -1.3913777777777776 -2.088622222222222 -2.504488888888889 -1.4459555555555554 -0.5166222222222222 0.2982666666666667 -0.8348444444444444 0.8494222222222222 -0.8348444444444444 1.4459555555555554" stroke-width="0.4444"></path><path id="SVGID_9_" d="M7.833333333333333 10.773333333333332c0 1.285288888888889 1.3913777777777776 2.088622222222222 2.504488888888889 1.4459555555555554 0.5165777777777778 -0.2982666666666667 0.8348444444444444 -0.8494222222222222 0.8348444444444444 -1.4459555555555554 0 -1.285288888888889 -1.3913777777777776 -2.088622222222222 -2.504488888888889 -1.4459555555555554 -0.5166222222222222 0.2982666666666667 -0.8348444444444444 0.8494222222222222 -0.8348444444444444 1.4459555555555554" stroke-width="0.4444"></path><path fill="none" stroke="#000000" stroke-linecap="round" stroke-linejoin="round" stroke-miterlimit="10" stroke-width="0.8889" d="M0.9733333333333333 16c0 11.567555555555556 12.522222222222222 18.79724444444444 22.54 13.013466666666666C28.162622222222222 26.329199999999997 31.026666666666667 21.368488888888887 31.026666666666667 16c0 -11.567555555555556 -12.522222222222222 -18.79724444444444 -22.54 -13.013466666666666C3.8373777777777778 5.6708 0.9733333333333333 10.631511111111111 0.9733333333333333 16"></path><path fill="none" stroke="#000000" stroke-miterlimit="10" stroke-width="0.8889" d="M18.286666666666665 13.386666666666667c0 3.269066666666667 3.5388888888888888 5.312266666666667 6.369999999999999 3.6777333333333333 1.313911111111111 -0.7586222222222222 2.123333333333333 -2.1605333333333334 2.123333333333333 -3.6777333333333333 0 -3.269066666666667 -3.5388888888888888 -5.312266666666667 -6.369999999999999 -3.6777333333333333 -1.313911111111111 0.7586222222222222 -2.123333333333333 2.1605333333333334 -2.123333333333333 3.6777333333333333"></path><path fill="none" stroke="#000000" stroke-miterlimit="10" stroke-width="0.8889" d="M5.22 13.386666666666667c0 3.269066666666667 3.5388888888888888 5.312266666666667 6.369999999999999 3.6777333333333333 1.313911111111111 -0.7586222222222222 2.123333333333333 -2.1605333333333334 2.123333333333333 -3.6777333333333333 0 -3.269066666666667 -3.5388888888888888 -5.312266666666667 -6.369999999999999 -3.6777333333333333 -1.313911111111111 0.7586222222222222 -2.123333333333333 2.1605333333333334 -2.123333333333333 3.6777333333333333"></path><path fill="none" stroke="#000000" stroke-linecap="round" stroke-linejoin="round" stroke-miterlimit="10" stroke-width="0.8889" d="M12.733333333333333 24.817866666666667h6.533333333333332"></path></g></svg>