<svg id="Face-With-Symbols-On-Mouth--Streamline-Openmoji" viewBox="0 0 32 32" xmlns="http://www.w3.org/2000/svg" height="32" width="32"><desc>Face With Symbols On Mouth Streamline Emoji: https://streamlinehq.com</desc><g id="line-supplement"><path fill="none" stroke="#000000" stroke-linecap="round" stroke-linejoin="round" stroke-width="0.8889" d="M21.853866666666665 21.471066666666665v2.9212"></path><path d="M21.178266666666666 26.222488888888886c0 0.5029777777777777 0.5444444444444445 0.8172888888888888 0.98 0.5658222222222221 0.2021333333333333 -0.1167111111111111 0.32666666666666666 -0.3324 0.32666666666666666 -0.5658222222222221 0 -0.5029333333333332 -0.5444444444444445 -0.8172444444444444 -0.98 -0.5657777777777777 -0.2021333333333333 0.1167111111111111 -0.32666666666666666 0.3324 -0.32666666666666666 0.5657777777777777" stroke-width="0.4444"></path><path fill="none" stroke="#000000" stroke-linecap="round" stroke-linejoin="round" stroke-width="0.8889" d="m10.86951111111111 21.27951111111111 -0.7192444444444445 4.729244444444444"></path><path fill="none" stroke="#000000" stroke-linecap="round" stroke-linejoin="round" stroke-width="0.8889" d="m12.974533333333332 21.27951111111111 -0.7192444444444445 4.729244444444444"></path><path fill="none" stroke="#000000" stroke-linecap="round" stroke-linejoin="round" stroke-width="0.8889" d="m9.327822222222222 22.596888888888888 4.783644444444444 -0.004711111111111111"></path><path fill="none" stroke="#000000" stroke-linecap="round" stroke-linejoin="round" stroke-width="0.8889" d="m9.013377777777778 24.678355555555555 4.7836 -0.004755555555555555"></path><path fill="none" stroke="#000000" stroke-linecap="round" stroke-linejoin="round" stroke-width="0.8889" d="M18.755644444444446 22.3496c-0.17804444444444445 -0.34417777777777775 -0.5387555555555555 -0.5546666666666666 -0.9259999999999999 -0.5404 -0.5414222222222221 -0.0416 -1.0216444444444446 0.3456444444444444 -1.095688888888889 0.8835999999999999s-0.1590222222222222 0.8944888888888888 1.184088888888889 0.9366222222222222c0 0 0.9543555555555555 0.1591111111111111 0.9543555555555555 0.9543555555555555 0 0.8713333333333333 -0.9367111111111112 0.9016 -0.9367111111111112 0.9016s-0.895511111111111 0.06786666666666666 -1.1446222222222222 -0.4782666666666667"></path><path fill="none" stroke="#000000" stroke-linecap="round" stroke-linejoin="round" stroke-width="0.8889" d="M17.832844444444444 21.644488888888887v-0.6570666666666666"></path><path fill="none" stroke="#000000" stroke-linecap="round" stroke-linejoin="round" stroke-width="0.8889" d="M17.832844444444444 26.308444444444444v-0.6570666666666666"></path></g><g id="color"><path fill="#56b6f7" d="M16 0.9733333333333333C4.432444444444444 0.9733333333333333 -2.7972444444444444 13.495555555555555 2.986533333333333 23.513333333333332c5.783777777777778 10.017777777777777 20.243155555555553 10.017777777777777 26.026933333333332 0C30.33235555555555 21.228977777777775 31.026666666666667 18.637733333333333 31.026666666666667 16 31.017288888888885 7.704888888888888 24.29511111111111 0.9827111111111111 16 0.9733333333333333Z" stroke-width="0.4444"></path><path fill="#3f3f3f" d="M7.895333333333333 19.31631111111111h15.752177777777776s2.6635111111111107 0 2.6635111111111107 2.6635111111111107v3.541644444444444s0 2.6635111111111107 -2.6635111111111107 2.6635111111111107H7.895333333333333s-2.6635111111111107 0 -2.6635111111111107 -2.6635111111111107v-3.541644444444444s0 -2.6635111111111107 2.6635111111111107 -2.6635111111111107" stroke-width="0.4444"></path><path fill="none" stroke="#ffffff" stroke-linecap="round" stroke-linejoin="round" stroke-width="0.8889" d="M21.853866666666665 21.471066666666665v2.9212"></path><path fill="#ffffff" d="M21.178266666666666 26.222488888888886c0 0.5029777777777777 0.5444444444444445 0.8172888888888888 0.98 0.5658222222222221 0.2021333333333333 -0.1167111111111111 0.32666666666666666 -0.3324 0.32666666666666666 -0.5658222222222221 0 -0.5029333333333332 -0.5444444444444445 -0.8172444444444444 -0.98 -0.5657777777777777 -0.2021333333333333 0.1167111111111111 -0.32666666666666666 0.3324 -0.32666666666666666 0.5657777777777777" stroke-width="0.4444"></path><path fill="none" stroke="#ffffff" stroke-linecap="round" stroke-linejoin="round" stroke-width="0.8889" d="m10.86951111111111 21.27951111111111 -0.7192444444444445 4.729244444444444"></path><path fill="none" stroke="#ffffff" stroke-linecap="round" stroke-linejoin="round" stroke-width="0.8889" d="m12.974533333333332 21.27951111111111 -0.7192444444444445 4.729244444444444"></path><path fill="none" stroke="#ffffff" stroke-linecap="round" stroke-linejoin="round" stroke-width="0.8889" d="m9.327822222222222 22.596888888888888 4.783644444444444 -0.004711111111111111"></path><path fill="none" stroke="#ffffff" stroke-linecap="round" stroke-linejoin="round" stroke-width="0.8889" d="m9.013377777777778 24.678355555555555 4.7836 -0.004755555555555555"></path><path fill="none" stroke="#ffffff" stroke-linecap="round" stroke-linejoin="round" stroke-width="0.8889" d="M18.755644444444446 22.3496c-0.17804444444444445 -0.34417777777777775 -0.5387555555555555 -0.5546666666666666 -0.9259999999999999 -0.5404 -0.5414222222222221 -0.0416 -1.0216444444444446 0.3456444444444444 -1.095688888888889 0.8835999999999999s-0.1590222222222222 0.8944888888888888 1.184088888888889 0.9366222222222222c0 0 0.9543555555555555 0.1591111111111111 0.9543555555555555 0.9543555555555555 0 0.8713333333333333 -0.9367111111111112 0.9016 -0.9367111111111112 0.9016s-0.895511111111111 0.06786666666666666 -1.1446222222222222 -0.4782666666666667"></path><path fill="none" stroke="#ffffff" stroke-linecap="round" stroke-linejoin="round" stroke-width="0.8889" d="M17.832844444444444 21.644488888888887v-0.6570666666666666"></path><path fill="none" stroke="#ffffff" stroke-linecap="round" stroke-linejoin="round" stroke-width="0.8889" d="M17.832844444444444 26.308444444444444v-0.6570666666666666"></path></g><g id="line"><path fill="none" stroke="#000000" stroke-miterlimit="10" stroke-width="0.8889" d="M0.9733333333333333 16c0 11.567555555555556 12.522222222222222 18.79724444444444 22.54 13.013466666666666C28.162622222222222 26.329199999999997 31.026666666666667 21.368488888888887 31.026666666666667 16c0 -11.567555555555556 -12.522222222222222 -18.79724444444444 -22.54 -13.013466666666666C3.8373777777777778 5.6708 0.9733333333333333 10.631511111111111 0.9733333333333333 16"></path><path d="M12.08 14.644444444444446c0 1.5088444444444442 -1.633333333333333 2.4518222222222223 -2.94 1.6974222222222222 -1.3066666666666666 -0.7544 -1.3066666666666666 -2.6404 0 -3.3948 0.298 -0.17204444444444444 0.6359111111111111 -0.2626222222222222 0.98 -0.2626222222222222 1.082311111111111 0.0004444444444444444 1.9595555555555553 0.8777333333333334 1.96 1.96" stroke-width="0.4444"></path><path d="M23.84 14.644444444444446c0 1.5088444444444442 -1.633333333333333 2.4518222222222223 -2.94 1.6974222222222222 -1.3066666666666666 -0.7544 -1.3066666666666666 -2.6404 0 -3.3948 0.298 -0.17204444444444444 0.6359111111111111 -0.2626222222222222 0.98 -0.2626222222222222 1.082311111111111 0.00039999999999999996 1.9595999999999998 0.8776888888888889 1.96 1.96" stroke-width="0.4444"></path><path fill="none" stroke="#000000" stroke-linecap="round" stroke-linejoin="round" stroke-width="0.8889" d="m7.506666666666667 8.886888888888889 4.573333333333332 2.6133333333333333"></path><path fill="none" stroke="#000000" stroke-linecap="round" stroke-linejoin="round" stroke-width="0.8889" d="m24.493333333333332 8.886888888888889 -4.573333333333332 2.6133333333333333"></path><path fill="none" stroke="#000000" stroke-miterlimit="2" stroke-width="0.8889" d="M8.123955555555556 19.31631111111111h15.752177777777776s2.6635111111111107 0 2.6635111111111107 2.6635111111111107v3.541644444444444s0 2.6635111111111107 -2.6635111111111107 2.6635111111111107H8.123955555555556s-2.6635111111111107 0 -2.6635111111111107 -2.6635111111111107v-3.541644444444444s0 -2.6635111111111107 2.6635111111111107 -2.6635111111111107"></path></g></svg>