<svg id="Grimacing-Face--Streamline-Openmoji" viewBox="0 0 32 32" xmlns="http://www.w3.org/2000/svg" height="32" width="32"><desc>Grimacing Face Streamline Emoji: https://streamlinehq.com</desc><g id="color"><path fill="#56b6f7" d="M16 0.9733333333333333C7.701022222222222 0.9733333333333333 0.9733333333333333 7.701022222222222 0.9733333333333333 16S7.701022222222222 31.026666666666667 16 31.026666666666667 31.026666666666667 24.298977777777775 31.026666666666667 16C31.017333333333333 7.704888888888888 24.29511111111111 0.9826666666666666 16 0.9733333333333333Z" stroke-width="0.4444"></path><path fill="#ffffff" d="M21.55333333333333 24.670266666666667h-11.106666666666666c-1.441511111111111 -0.004266666666666666 -2.6090666666666666 -1.171822222222222 -2.6133333333333333 -2.6133333333333333 0.004266666666666666 -1.441511111111111 1.171822222222222 -2.609111111111111 2.6133333333333333 -2.6133333333333333h11.106666666666666c1.441511111111111 0.004222222222222222 2.609111111111111 1.171822222222222 2.6133333333333333 2.6133333333333333 -0.004222222222222222 1.441511111111111 -1.171822222222222 2.6090666666666666 -2.6133333333333333 2.6133333333333333Z" stroke-width="0.4444"></path></g><g id="line"><path fill="none" stroke="#000000" stroke-linecap="round" stroke-linejoin="round" stroke-width="0.8889" d="M10.773333333333332 19.770266666666664v4.573333333333332"></path><path fill="none" stroke="#000000" stroke-linecap="round" stroke-linejoin="round" stroke-width="0.8889" d="M14.04 19.770266666666664v4.573333333333332"></path><path fill="none" stroke="#000000" stroke-linecap="round" stroke-linejoin="round" stroke-width="0.8889" d="M17.306666666666665 19.770266666666664v4.573333333333332"></path><path fill="none" stroke="#000000" stroke-linecap="round" stroke-linejoin="round" stroke-width="0.8889" d="M20.57333333333333 19.770266666666664v4.573333333333332"></path><path fill="none" stroke="#000000" stroke-miterlimit="10" stroke-width="0.8889" d="M0.9733333333333333 16c0 11.567555555555556 12.522222222222222 18.79724444444444 22.54 13.013466666666666C28.162622222222222 26.329199999999997 31.026666666666667 21.368488888888887 31.026666666666667 16c0 -11.567555555555556 -12.522222222222222 -18.79724444444444 -22.54 -13.013466666666666C3.8373777777777778 5.6708 0.9733333333333333 10.631511111111111 0.9733333333333333 16"></path><path fill="none" stroke="#000000" stroke-miterlimit="2" stroke-width="0.8889" d="M21.55333333333333 24.670266666666667h-11.106666666666666c-1.441511111111111 -0.004266666666666666 -2.6090666666666666 -1.171822222222222 -2.6133333333333333 -2.6133333333333333 0.004266666666666666 -1.441511111111111 1.171822222222222 -2.609111111111111 2.6133333333333333 -2.6133333333333333h11.106666666666666c1.441511111111111 0.004222222222222222 2.609111111111111 1.171822222222222 2.6133333333333333 2.6133333333333333 -0.004222222222222222 1.441511111111111 -1.171822222222222 2.6090666666666666 -2.6133333333333333 2.6133333333333333Z"></path><path d="M12.08 12.733333333333333c0 1.0824444444444445 -0.8786222222222222 1.96 -1.96 1.96 -1.0814666666666666 0 -1.96 -0.8775999999999999 -1.96 -1.96 0 -1.0813777777777778 0.8785333333333333 -1.96 1.96 -1.96 1.0813777777777778 0 1.96 0.8786222222222222 1.96 1.96" stroke-width="0.4444"></path><path d="M23.84 12.733333333333333c0 1.0824444444444445 -0.8785333333333333 1.96 -1.96 1.96s-1.96 -0.8775999999999999 -1.96 -1.96c0 -1.0813777777777778 0.8785333333333333 -1.96 1.96 -1.96s1.96 0.8786222222222222 1.96 1.96" stroke-width="0.4444"></path></g></svg>