<svg id="Grinning-Face-With-Big-Eyes--Streamline-Openmoji" viewBox="0 0 32 32" xmlns="http://www.w3.org/2000/svg" height="32" width="32"><desc>Grinning Face With Big Eyes Streamline Emoji: https://streamlinehq.com</desc><g id="color"><path fill="#ffdd00" d="M0.9733333333333333 16c0 11.567555555555556 12.522222222222222 18.79724444444444 22.54 13.013466666666666C28.162622222222222 26.329199999999997 31.026666666666667 21.368488888888887 31.026666666666667 16c0 -11.567555555555556 -12.522222222222222 -18.79724444444444 -22.54 -13.013466666666666C3.8373777777777778 5.6708 0.9733333333333333 10.631511111111111 0.9733333333333333 16" stroke-width="0.4444"></path><path fill="#ffffff" d="M25.535422222222223 19.6848c0.007822222222222222 1.0059111111111112 -0.1854222222222222 2.0032888888888887 -0.5683999999999999 2.9334666666666664 -8.160133333333333 1.9796 -16.614266666666666 0.22213333333333332 -17.96013333333333 -0.08493333333333332 -0.36506666666666665 -0.9049777777777778 -0.5492888888888888 -1.8727111111111108 -0.5422666666666667 -2.848533333333333h0.07186666666666666s9.669333333333332 2.345466666666667 18.874799999999997 0.045733333333333334Z" stroke-width="0.4444"></path><path fill="#ea5a47" d="M24.967066666666664 22.618266666666667c-1.1694666666666667 2.7897333333333334 -4.148666666666666 4.723599999999999 -8.944133333333333 4.723599999999999 -4.8412 0 -7.8596 -1.9796 -9.016 -4.808533333333333 1.3458666666666665 0.30706666666666665 9.799911111111111 2.0645333333333333 17.96013333333333 0.08493333333333332Z" stroke-width="0.4444"></path></g><g id="hair"></g><g id="skin"></g><g id="skin-shadow"></g><g id="line"><path fill="none" stroke="#000000" stroke-linecap="round" stroke-linejoin="round" stroke-width="0.8889" d="M0.9733333333333333 16c0 11.567555555555556 12.522222222222222 18.79724444444444 22.54 13.013466666666666C28.162622222222222 26.329199999999997 31.026666666666667 21.368488888888887 31.026666666666667 16c0 -11.567555555555556 -12.522222222222222 -18.79724444444444 -22.54 -13.013466666666666C3.8373777777777778 5.6708 0.9733333333333333 10.631511111111111 0.9733333333333333 16"></path><path d="M9.184666666666667 12.614444444444445c0 2.717733333333333 1.633333333333333 4.416355555555556 2.94 3.0574666666666666 0.6064444444444445 -0.6306666666666666 0.98 -1.7961777777777779 0.98 -3.0574666666666666 0 -2.7177777777777776 -1.633333333333333 -4.416399999999999 -2.94 -3.0575111111111113 -0.6063999999999999 0.6306666666666666 -0.98 1.7961777777777779 -0.98 3.0575111111111113" stroke-width="0.4444"></path><path d="M18.89528888888889 12.616755555555555c0 2.7177777777777776 1.633333333333333 4.416399999999999 2.94 3.0575111111111113 0.6064444444444445 -0.6306666666666666 0.9800444444444443 -1.7961777777777779 0.98 -3.0575111111111113 0 -2.717733333333333 -1.633333333333333 -4.416355555555556 -2.94 -3.0574666666666666 -0.6063999999999999 0.6306666666666666 -0.98 1.7961777777777779 -0.98 3.0574666666666666" stroke-width="0.4444"></path><path fill="none" stroke="#000000" stroke-linecap="round" stroke-linejoin="round" stroke-width="0.8889" d="M25.535422222222223 19.6848c0.007822222222222222 1.0059111111111112 -0.1854222222222222 2.0032888888888887 -0.5683999999999999 2.9334666666666664 -8.160133333333333 1.9796 -16.614266666666666 0.22213333333333332 -17.96013333333333 -0.08493333333333332 -0.36506666666666665 -0.9049777777777778 -0.5492888888888888 -1.8727111111111108 -0.5422666666666667 -2.848533333333333h0.07186666666666666s9.669333333333332 2.345466666666667 18.874799999999997 0.045733333333333334Z"></path><path fill="none" stroke="#000000" stroke-linecap="round" stroke-linejoin="round" stroke-width="0.8889" d="M24.967066666666664 22.618266666666667c-1.1694666666666667 2.7897333333333334 -4.148666666666666 4.723599999999999 -8.944133333333333 4.723599999999999 -4.8412 0 -7.8596 -1.9796 -9.016 -4.808533333333333 1.3458666666666665 0.30706666666666665 9.799911111111111 2.0645333333333333 17.96013333333333 0.08493333333333332Z"></path></g></svg>