<svg id="Grinning-Face--Streamline-Openmoji" viewBox="0 0 32 32" xmlns="http://www.w3.org/2000/svg" height="32" width="32"><desc>Grinning Face Streamline Emoji: https://streamlinehq.com</desc><g id="color"><path fill="#56b6f7" d="M0.9733333333333333 16c0 11.567555555555556 12.522222222222222 18.79724444444444 22.54 13.013466666666666C28.162622222222222 26.329199999999997 31.026666666666667 21.368488888888887 31.026666666666667 16c0 -11.567555555555556 -12.522222222222222 -18.79724444444444 -22.54 -13.013466666666666C3.8373777777777778 5.6708 0.9733333333333333 10.631511111111111 0.9733333333333333 16" stroke-width="0.4444"></path><path fill="#ffffff" d="M25.535422222222223 19.6848c0.007822222222222222 1.0059555555555555 -0.1854222222222222 2.0032444444444444 -0.5683999999999999 2.9334666666666664 -8.160133333333333 1.9796 -16.614266666666666 0.22213333333333332 -17.96013333333333 -0.08493333333333332 -0.3651111111111111 -0.9049777777777778 -0.5492888888888888 -1.8727111111111108 -0.5422666666666667 -2.848533333333333h0.07186666666666666s9.669333333333332 2.345466666666667 18.874799999999997 0.045733333333333334l0.12413333333333332 -0.045733333333333334Z" stroke-width="0.4444"></path><path fill="#ea5a47" d="M24.967066666666664 22.618266666666667c-1.1694666666666667 2.7897333333333334 -4.148666666666666 4.723599999999999 -8.944133333333333 4.723599999999999 -4.8412 0 -7.8596 -1.9796 -9.016 -4.808533333333333 1.3458666666666665 0.30706666666666665 9.799911111111111 2.0645333333333333 17.96013333333333 0.08493333333333332Z" stroke-width="0.4444"></path></g><g id="hair"></g><g id="skin"></g><g id="skin-shadow"></g><g id="line"><path fill="none" stroke="#000000" stroke-linecap="round" stroke-linejoin="round" stroke-width="0.8889" d="M0.9733333333333333 16c0 11.567555555555556 12.522222222222222 18.79724444444444 22.54 13.013466666666666C28.162622222222222 26.329199999999997 31.026666666666667 21.368488888888887 31.026666666666667 16c0 -11.567555555555556 -12.522222222222222 -18.79724444444444 -22.54 -13.013466666666666C3.8373777777777778 5.6708 0.9733333333333333 10.631511111111111 0.9733333333333333 16"></path><path fill="none" stroke="#000000" stroke-linecap="round" stroke-linejoin="round" stroke-width="0.8889" d="M25.535422222222223 19.6848c0.007822222222222222 1.0059555555555555 -0.1854222222222222 2.0032444444444444 -0.5683999999999999 2.9334666666666664 -8.160133333333333 1.9796 -16.614266666666666 0.22213333333333332 -17.96013333333333 -0.08493333333333332 -0.3651111111111111 -0.9049777777777778 -0.5492888888888888 -1.8727111111111108 -0.5422666666666667 -2.848533333333333h0.07186666666666666s9.669333333333332 2.345466666666667 18.874799999999997 0.045733333333333334l0.12413333333333332 -0.045733333333333334Z"></path><path fill="none" stroke="#000000" stroke-linecap="round" stroke-linejoin="round" stroke-width="0.8889" d="M24.967066666666664 22.618266666666667c-1.1694666666666667 2.7897333333333334 -4.148666666666666 4.723599999999999 -8.944133333333333 4.723599999999999 -4.8412 0 -7.8596 -1.9796 -9.016 -4.808533333333333 1.3458666666666665 0.30706666666666665 9.799911111111111 2.0645333333333333 17.96013333333333 0.08493333333333332Z"></path><path d="M12.08 12.733333333333333c0 1.0824444444444445 -0.8786222222222222 1.96 -1.96 1.96 -1.0814666666666666 0 -1.96 -0.8775999999999999 -1.96 -1.96 0 -1.0813777777777778 0.8785333333333333 -1.96 1.96 -1.96 1.0813777777777778 0 1.96 0.8786222222222222 1.96 1.96" stroke-width="0.4444"></path><path d="M23.84 12.733333333333333c0 1.0824444444444445 -0.8785333333333333 1.96 -1.96 1.96s-1.96 -0.8775999999999999 -1.96 -1.96c0 -1.0813777777777778 0.8785333333333333 -1.96 1.96 -1.96s1.96 0.8786222222222222 1.96 1.96" stroke-width="0.4444"></path></g></svg>