<svg id="Incredulous-Face--Streamline-Openmoji" viewBox="0 0 32 32" xmlns="http://www.w3.org/2000/svg" height="32" width="32"><desc>Incredulous Face Streamline Emoji: https://streamlinehq.com</desc><g id="color"><path fill="#56cbcb" d="M16 0.9733333333333333C7.714222222222221 0.9733333333333333 0.9733333333333333 7.714222222222221 0.9733333333333333 16c0 8.285688888888888 6.740888888888889 15.026666666666667 15.026666666666667 15.026666666666667 8.285688888888888 0 15.026666666666667 -6.740977777777777 15.026666666666667 -15.026666666666667C31.026666666666667 7.714222222222221 24.285688888888888 0.9733333333333333 16 0.9733333333333333Z" stroke-width="0.4444"></path></g><g id="hair"></g><g id="skin"></g><g id="skin-shadow"></g><g id="line"><path fill="none" stroke="#000000" stroke-miterlimit="10" stroke-width="0.8889" d="M0.9733333333333333 16c0 11.567555555555556 12.522222222222222 18.79724444444444 22.54 13.013466666666666C28.162622222222222 26.329199999999997 31.026666666666667 21.368488888888887 31.026666666666667 16c0 -11.567555555555556 -12.522222222222222 -18.79724444444444 -22.54 -13.013466666666666C3.8373777777777778 5.6708 0.9733333333333333 10.631511111111111 0.9733333333333333 16"></path><path fill="none" stroke="#000000" stroke-linecap="round" stroke-linejoin="round" stroke-miterlimit="10" stroke-width="0.8889" d="M23.49502222222222 8.54111111111111c-0.29333333333333333 0.19328888888888887 -1.5882222222222222 0.9999111111111111 -3.3063111111111105 0.7055111111111111 -1.393822222222222 -0.23884444444444441 -2.2541777777777776 -1.0632444444444444 -2.537155555555555 -1.359911111111111"></path><path fill="none" stroke="#000000" stroke-linecap="round" stroke-linejoin="round" stroke-miterlimit="10" stroke-width="0.8889" d="M8.504977777777777 8.54111111111111c0.29333333333333333 0.19328888888888887 1.5882222222222222 0.9999111111111111 3.3063111111111105 0.7055111111111111 1.393822222222222 -0.23884444444444441 2.2541777777777776 -1.0632444444444444 2.537155555555555 -1.359911111111111"></path><path stroke="#000000" stroke-miterlimit="10" stroke-width="0.8889" d="M19.266666666666666 21.88c0 1.4432888888888888 -1.8233777777777775 2.6133333333333333 -3.266666666666666 2.6133333333333333s-3.266666666666666 -1.1700444444444444 -3.266666666666666 -2.6133333333333333 1.8233777777777775 -1.96 3.266666666666666 -1.96 3.266666666666666 0.5167111111111111 3.266666666666666 1.96Z"></path><path d="M12.08 12.733333333333333c0 1.0824444444444445 -0.8786222222222222 1.96 -1.96 1.96 -1.0814666666666666 0 -1.96 -0.8775999999999999 -1.96 -1.96 0 -1.0813777777777778 0.8785333333333333 -1.96 1.96 -1.96 1.0813777777777778 0 1.96 0.8786222222222222 1.96 1.96" stroke-width="0.4444"></path><path d="M23.84 12.733333333333333c0 1.0824444444444445 -0.8785333333333333 1.96 -1.96 1.96s-1.96 -0.8775999999999999 -1.96 -1.96c0 -1.0813777777777778 0.8785333333333333 -1.96 1.96 -1.96s1.96 0.8786222222222222 1.96 1.96" stroke-width="0.4444"></path></g></svg>