<svg xmlns="http://www.w3.org/2000/svg" viewBox="0 0 32 32" id="Label--Streamline-Emojitwo" height="32" width="32"><desc>Label Streamline Emoji: https://streamlinehq.com</desc><title>label</title><path fill="#f2b200" d="M14.55 6.45H9.5L6.45 9.5v5.05L21.9 32 32 21.9 14.55 6.45m-3.2 4.9c-0.45 0.45 -1.2 0.45 -1.7 0 -0.45 -0.45 -0.45 -1.2 0 -1.7 0.45 -0.45 1.2 -0.45 1.7 0 0.45 0.5 0.45 1.25 0 1.7" stroke-width="0.5"></path><path fill="#94989b" d="M10.95 10.4c-0.15 -0.65 -0.45 -1.3 -0.8 -1.85 -0.85 -1.4 -2.05 -2.55 -3.45 -3.4C4.8 4.05 2.65 3.55 0.45 3.35c-0.25 0 -0.45 0.25 -0.45 0.45 0 0.25 0.2 0.45 0.45 0.45 2.35 0.2 4.75 0.85 6.7 2.25 0.55 0.4 1.2 1.05 1.65 1.65 0.1 0.1 -0.05 -0.1 0 0.05 0 0.05 0.05 0.05 0.05 0.1 0.05 0.05 0.1 0.15 0.15 0.2 0.1 0.15 0.2 0.25 0.25 0.4 0.15 0.25 0.25 0.45 0.4 0.7 0.05 0.05 0.05 0.15 0.1 0.2 0 0.05 0.05 0.05 0.05 0.1 0.05 0.1 0.1 0.25 0.1 0.35 0.05 0.1 0.05 0.2 0.1 0.3 0.15 0.7 1.1 0.45 0.95 -0.15" stroke-width="0.5"></path><path fill="#3e4347" d="m7.65 8.3 -0.05 -0.05c-0.25 -0.2 -0.45 -0.4 -0.65 -0.65 -0.45 -0.5 -0.85 -1.15 -1.15 -1.8C4.95 4.15 4.5 2.3 4.35 0.5c-0.05 -0.3 -0.25 -0.5 -0.55 -0.5 -0.25 0 -0.5 0.2 -0.45 0.45 0.15 2 0.7 4 1.6 5.8 0.35 0.7 0.8 1.4 1.3 2 0.2 0.25 0.45 0.5 0.7 0.7l0.7 -0.65" stroke-width="0.5"></path></svg>