<svg id="Money-Mouth-Face--Streamline-Openmoji" viewBox="0 0 32 32" xmlns="http://www.w3.org/2000/svg" height="32" width="32"><desc>Money Mouth Face Streamline Emoji: https://streamlinehq.com</desc><g id="color"><path fill="#ff7ab2" d="M1.1516444444444445 15.168355555555554c0 11.430311111111111 12.373644444444443 18.57422222222222 22.27253333333333 12.859066666666665 4.594088888888889 -2.6524 7.4241777777777775 -7.554222222222222 7.4241777777777775 -12.859066666666665 0 -11.430266666666666 -12.373644444444443 -18.574177777777777 -22.27253333333333 -12.859066666666665C3.981733333333333 4.961688888888888 1.1516444444444445 9.863555555555555 1.1516444444444445 15.168355555555554" stroke-width="0.4444"></path><path fill="#ffffff" d="M12.596 25.917333333333332c-2.6578666666666666 -0.9218222222222222 -3.9975555555555555 -2.9703555555555554 -3.9975555555555555 -5.37231111111111h0.05808888888888889s7.509288888888889 1.8948444444444443 14.652266666666664 0.04084444444444444l0.09937777777777777 -0.04084444444444444c0.042444444444444444 2.481822222222222 -1.5842666666666665 4.683955555555555 -3.968977777777777 5.372755555555555" stroke-width="0.4444"></path><path fill="#b1cc33" d="M18.807777777777776 23.389911111111108s0.9391555555555556 5.456133333333334 -0.6585333333333333 6.768l0.015777777777777776 -0.013466666666666667c-1.1868888888888889 1.2224888888888887 -3.1492888888888886 1.2224888888888887 -4.3361777777777775 0 -1.5976444444444444 -1.3116444444444444 -0.6584888888888889 -6.768044444444444 -0.6584888888888889 -6.768044444444444" stroke-width="0.4444"></path></g><g id="hair"></g><g id="skin"></g><g id="skin-shadow"></g><g id="line"><path fill="none" stroke="#000000" stroke-linecap="round" stroke-linejoin="round" stroke-width="0.8889" d="M12.596 25.917333333333332c-2.6578666666666666 -0.9218222222222222 -3.9975555555555555 -2.9703555555555554 -3.9975555555555555 -5.37231111111111h0.05808888888888889s7.509288888888889 1.8948444444444443 14.652266666666664 0.04084444444444444l0.09937777777777777 -0.04084444444444444c0.042444444444444444 2.481822222222222 -1.5842666666666665 4.683955555555555 -3.968977777777777 5.372755555555555"></path><path fill="none" stroke="#000000" stroke-linecap="round" stroke-linejoin="round" stroke-width="0.8889" d="M6.273866666666666 9.723955555555555c0.44542222222222216 -0.8570222222222221 1.1928888888888889 -1.5183555555555555 2.0977777777777775 -1.8560444444444444 0.8692444444444444 -0.43262222222222224 1.8685777777777777 -0.5254666666666666 2.8026222222222223 -0.26039999999999996"></path><path fill="none" stroke="#000000" stroke-linecap="round" stroke-linejoin="round" stroke-width="0.8889" d="M25.21217777777778 9.723955555555555c-0.9791555555555556 -1.7152888888888889 -2.9720888888888886 -2.5795111111111106 -4.893466666666667 -2.122088888888889"></path><path fill="none" stroke="#000000" stroke-linecap="round" stroke-linejoin="round" stroke-width="0.8889" d="M21.14991111111111 28.437466666666666c10.211422222222222 -3.964444444444444 12.301911111111112 -17.496444444444442 3.762844444444444 -24.357599999999998C16.37368888888889 -2.781244444444444 3.609422222222222 2.174355555555555 1.937022222222222 12.999955555555555c-1.0217777777777777 6.61431111111111 2.7037777777777774 13.04671111111111 8.949511111111109 15.451688888888889"></path><path fill="none" stroke="#000000" stroke-linecap="round" stroke-linejoin="round" stroke-width="0.8889" d="M6.273866666666666 9.723955555555555c0.44542222222222216 -0.8570222222222221 1.1928888888888889 -1.5183555555555555 2.0977777777777775 -1.8560444444444444 0.8692444444444444 -0.43262222222222224 1.8685777777777777 -0.5254666666666666 2.8026222222222223 -0.26039999999999996"></path><path fill="none" stroke="#000000" stroke-linecap="round" stroke-linejoin="round" stroke-width="0.8889" d="M25.21217777777778 9.723955555555555c-0.9791555555555556 -1.7152888888888889 -2.9720888888888886 -2.5795111111111106 -4.893466666666667 -2.122088888888889"></path><path fill="none" stroke="#000000" stroke-linecap="round" stroke-linejoin="round" stroke-width="0.8889" d="M18.807777777777776 23.389911111111108s0.9391555555555556 5.456133333333334 -0.6585333333333333 6.768l0.015777777777777776 -0.013466666666666667c-1.1868888888888889 1.2224888888888887 -3.1492888888888886 1.2224888888888887 -4.3361777777777775 0 -1.5976444444444444 -1.3116444444444444 -0.6584888888888889 -6.768044444444444 -0.6584888888888889 -6.768044444444444"></path><path fill="none" stroke="#000000" stroke-linecap="round" stroke-linejoin="round" stroke-width="0.8889" d="M11.81151111111111 12.414844444444443c-0.18306666666666666 -0.5005777777777778 -0.6750222222222222 -0.8198666666666666 -1.2067999999999999 -0.7831555555555555h0c-0.6086222222222222 -0.061111111111111116 -1.1550666666666667 0.374 -1.2318666666666667 0.9808444444444444 0.07675555555555555 0.6068888888888888 0.6232444444444445 1.042 1.2318666666666667 0.9808444444444444l-0.024755555555555555 0.0036444444444444445c0.6085333333333333 -0.06088888888888889 1.1548 0.3741333333333333 1.2315555555555555 0.9808888888888888 -0.07675555555555555 0.6068444444444444 -0.6231999999999999 1.0419555555555555 -1.2318666666666667 0.9808444444444444h0c-0.5317333333333333 0.03666666666666667 -1.0237333333333332 -0.28257777777777776 -1.2068444444444444 -0.7831999999999999"></path><path fill="none" stroke="#000000" stroke-linecap="round" stroke-linejoin="round" stroke-width="0.8889" d="M10.592044444444443 11.631688888888888v-0.9351111111111111"></path><path fill="none" stroke="#000000" stroke-linecap="round" stroke-linejoin="round" stroke-width="0.8889" d="M10.592044444444443 16.49382222222222v-0.9350666666666666"></path><path fill="none" stroke="#000000" stroke-linecap="round" stroke-linejoin="round" stroke-width="0.8889" d="M22.351866666666666 12.414844444444443c-0.18306666666666666 -0.5005777777777778 -0.6750222222222222 -0.8198666666666666 -1.2067999999999999 -0.7831555555555555h0c-0.6086222222222222 -0.061111111111111116 -1.1550666666666667 0.374 -1.2318222222222222 0.9808444444444444 0.07675555555555555 0.6068888888888888 0.6231999999999999 1.042 1.2318222222222222 0.9808444444444444l-0.024711111111111107 0.0036444444444444445c0.6086222222222222 -0.06106666666666666 1.1550666666666667 0.374 1.2318222222222222 0.9808888888888888 -0.07675555555555555 0.6068444444444444 -0.6231999999999999 1.0419555555555555 -1.2318222222222222 0.9808444444444444h0c-0.5317777777777777 0.03666666666666667 -1.0237777777777777 -0.28257777777777776 -1.206888888888889 -0.7831999999999999"></path><path fill="none" stroke="#000000" stroke-linecap="round" stroke-linejoin="round" stroke-width="0.8889" d="M21.13253333333333 11.631688888888888v-0.9351111111111111"></path><path fill="none" stroke="#000000" stroke-linecap="round" stroke-linejoin="round" stroke-width="0.8889" d="M21.13253333333333 16.49382222222222v-0.9350666666666666"></path><path fill="none" stroke="#000000" stroke-linecap="round" stroke-linejoin="round" stroke-width="0.8889" d="M17.17382222222222 25.776266666666665c-0.18306666666666666 -0.5005777777777778 -0.6750222222222222 -0.819911111111111 -1.2067999999999999 -0.7832444444444444h0c-0.7550666666666667 -0.17346666666666666 -1.4147555555555553 0.5355111111111112 -1.1874666666666667 1.2761333333333333 0.15484444444444442 0.5045333333333333 0.6731111111111111 0.8037777777777777 1.1874666666666667 0.6856l-0.024755555555555555 0.0036444444444444445c0.7550666666666667 -0.17346666666666666 1.4147555555555553 0.5355111111111112 1.1874666666666667 1.2761333333333333 -0.15484444444444442 0.5045333333333333 -0.6731111111111111 0.8037333333333333 -1.1874666666666667 0.6856h0c-0.5317777777777777 0.03666666666666667 -1.0237333333333332 -0.2826222222222222 -1.2068444444444444 -0.7831999999999999"></path><path fill="none" stroke="#000000" stroke-linecap="round" stroke-linejoin="round" stroke-width="0.8889" d="M15.954444444444444 24.99311111111111v-0.9351555555555554"></path><path fill="none" stroke="#000000" stroke-linecap="round" stroke-linejoin="round" stroke-width="0.8889" d="M15.954444444444444 29.855244444444445v-0.9350666666666666"></path></g></svg>