<svg id="Jar-With-Orange-Content--Streamline-Openmoji" viewBox="0 0 32 32" xmlns="http://www.w3.org/2000/svg" height="32" width="32"><desc>Jar With Orange Content Streamline Emoji: https://streamlinehq.com</desc><g id="line-supplement"><path fill="none" stroke="#000000" stroke-width="0.8889" d="M8.4736 12.2368h15.0528s3.1359999999999997 0 3.1359999999999997 3.1359999999999997V25.407999999999998s0 3.1359999999999997 -3.1359999999999997 3.1359999999999997H8.4736s-3.1359999999999997 0 -3.1359999999999997 -3.1359999999999997V15.372799999999998s0 -3.1359999999999997 3.1359999999999997 -3.1359999999999997"></path></g><g id="color"><path fill="#ffffff" fill-rule="evenodd" d="M5.3376 5.3376c-0.3464 0 -0.6272 0.2808 -0.6272 0.6272v1.5679999999999998c0 0.8677777777777776 -0.14395555555555556 1.4672888888888889 -0.3404888888888889 1.9217333333333333 -0.19795555555555555 0.4579111111111111 -0.46346666666666664 0.8032444444444443 -0.7664444444444444 1.163111111111111 -0.04071111111111111 0.048266666666666666 -0.08293333333333332 0.09768888888888888 -0.1262222222222222 0.14844444444444443l-0.00008888888888888889 0.0001333333333333333c-0.26568888888888886 0.3112 -0.5707555555555556 0.6686222222222221 -0.8055111111111111 1.0940888888888889 -0.2873333333333333 0.5207999999999999 -0.4700444444444445 1.1348888888888888 -0.4700444444444445 1.9444888888888887V25.407999999999998c0 3.463911111111111 2.808088888888889 6.271999999999999 6.271999999999999 6.271999999999999h15.0528c3.463911111111111 0 6.271999999999999 -2.808088888888889 6.271999999999999 -6.271999999999999V13.8048c0 -0.8096 -0.1827111111111111 -1.4236888888888888 -0.47000000000000003 -1.9444888888888887 -0.23479999999999998 -0.42546666666666666 -0.5398666666666666 -0.7828888888888889 -0.8055111111111111 -1.0940888888888889 -0.043288888888888884 -0.050755555555555554 -0.08555555555555555 -0.10022222222222221 -0.12635555555555555 -0.14857777777777775 -0.30297777777777773 -0.3598666666666666 -0.5684888888888888 -0.7051999999999999 -0.7664444444444444 -1.163111111111111 -0.1965333333333333 -0.45444444444444443 -0.3404888888888889 -1.0539555555555555 -0.3404888888888889 -1.9217333333333333v-1.5679999999999998c0 -0.3464 -0.2808 -0.6272 -0.6272 -0.6272H5.3376Z" clip-rule="evenodd" stroke-width="0.4444"></path><path fill="#e27022" fill-rule="evenodd" d="M8.4736 11.6096h15.0528c2.0783555555555555 0 3.7632 1.6848444444444444 3.7632 3.7632V25.407999999999998c0 2.0783555555555555 -1.6848444444444444 3.7632 -3.7632 3.7632H8.4736c-2.0783555555555555 0 -3.7632 -1.6848444444444444 -3.7632 -3.7632V15.372799999999998c0 -2.0783555555555555 1.6848444444444444 -3.7632 3.7632 -3.7632Z" clip-rule="evenodd" stroke-width="0.4444"></path><path fill="#f4aa41" fill-rule="evenodd" d="M8.4736 29.1712H19.136c2.0783555555555555 0 3.7632 -1.6848444444444444 3.7632 -3.7632V15.372799999999998c0 -2.0783555555555555 -1.6848444444444444 -3.7632 -3.7632 -3.7632H8.4736c-2.0783555555555555 0 -3.7632 1.6848444444444444 -3.7632 3.7632V25.407999999999998c0 2.0783555555555555 1.6848444444444444 3.7632 3.7632 3.7632Z" clip-rule="evenodd" stroke-width="0.4444"></path><path fill="none" stroke="#ffffff" stroke-linecap="round" stroke-linejoin="round" stroke-width="0.8889" d="M8.4736 25.407999999999998V14.008399999999998c0 -2.772933333333333 1.2544 -2.464844444444444 1.2544 -6.162"></path><path fill="#d0cfce" d="M27.2896 0.9472H4.7104c-0.3464 0 -0.6272 0.2808 -0.6272 0.6272v3.7632c0 0.3464 0.2808 0.6272 0.6272 0.6272h22.579199999999997c0.3464 0 0.6272 -0.2808 0.6272 -0.6272V1.5744c0 -0.3464 -0.2808 -0.6272 -0.6272 -0.6272Z" stroke-width="0.4444"></path></g><g id="line"><path fill="none" stroke="#000000" stroke-linecap="round" stroke-linejoin="round" stroke-width="0.8889" d="M16 31.052799999999994h7.5264c3.117555555555555 0 5.644799999999999 -2.5272444444444444 5.644799999999999 -5.644799999999999V13.8048c0 -2.8223999999999996 -2.5088 -2.5088 -2.5088 -6.271999999999999"></path><path fill="none" stroke="#000000" stroke-linecap="round" stroke-linejoin="round" stroke-width="0.8889" d="M16 31.052799999999994H8.4736c-3.117555555555555 0 -5.644799999999999 -2.5272444444444444 -5.644799999999999 -5.644799999999999V13.8048c0 -2.8223999999999996 2.5088 -2.5088 2.5088 -6.271999999999999"></path><path fill="none" stroke="#000000" stroke-linecap="round" stroke-linejoin="round" stroke-width="0.8889" d="M27.2896 0.9472H4.7104c-0.3464 0 -0.6272 0.2808 -0.6272 0.6272v3.7632c0 0.3464 0.2808 0.6272 0.6272 0.6272h22.579199999999997c0.3464 0 0.6272 -0.2808 0.6272 -0.6272V1.5744c0 -0.3464 -0.2808 -0.6272 -0.6272 -0.6272Z"></path></g></svg>