<svg id="Slightly-Smiling-Face--Streamline-Openmoji" viewBox="0 0 32 32" xmlns="http://www.w3.org/2000/svg" height="32" width="32"><desc>Slightly Smiling Face Streamline Emoji: https://streamlinehq.com</desc><g id="color"><path fill="#ff5252" d="M0.9734666666666667 16c0 11.567466666666666 12.522177777777777 18.797155555555552 22.53991111111111 13.013422222222221C28.162622222222222 26.329155555555555 31.026666666666667 21.368488888888887 31.026666666666667 16c0 -11.567466666666666 -12.522177777777777 -18.797155555555552 -22.53991111111111 -13.013422222222221C3.8375111111111107 5.670844444444444 0.9734666666666667 10.631511111111111 0.9734666666666667 16" stroke-width="0.4444"></path></g><g id="hair"></g><g id="skin"></g><g id="skin-shadow"></g><g id="line"><path fill="none" stroke="#000000" stroke-linecap="round" stroke-linejoin="round" stroke-width="0.8889" d="M0.9733333333333333 16c0 11.567555555555556 12.522222222222222 18.79724444444444 22.54 13.013466666666666C28.162622222222222 26.329199999999997 31.026666666666667 21.368488888888887 31.026666666666667 16c0 -11.567555555555556 -12.522222222222222 -18.79724444444444 -22.54 -13.013466666666666C3.8373777777777778 5.6708 0.9733333333333333 10.631511111111111 0.9733333333333333 16"></path><path fill="none" stroke="#000000" stroke-linecap="round" stroke-linejoin="round" stroke-width="0.8889" d="M22.412399999999998 21.83382222222222C20.518044444444442 22.9028 18.330222222222222 23.5128 16 23.5128s-4.518 -0.6099555555555556 -6.412399999999999 -1.6789777777777777"></path><path d="M12.08 12.733333333333333c0 1.0824444444444445 -0.8786222222222222 1.96 -1.96 1.96 -1.0814666666666666 0 -1.96 -0.8775999999999999 -1.96 -1.96 0 -1.0813777777777778 0.8785333333333333 -1.96 1.96 -1.96 1.0813777777777778 0 1.96 0.8786222222222222 1.96 1.96" stroke-width="0.4444"></path><path d="M23.84 12.733333333333333c0 1.0824444444444445 -0.8785333333333333 1.96 -1.96 1.96s-1.96 -0.8775999999999999 -1.96 -1.96c0 -1.0813777777777778 0.8785333333333333 -1.96 1.96 -1.96s1.96 0.8786222222222222 1.96 1.96" stroke-width="0.4444"></path></g></svg>