<svg version="1.1" id="File-Folder--Streamline-Noto-Emoji" xmlns="http://www.w3.org/2000/svg" xmlns:xlink="http://www.w3.org/1999/xlink" x="0" y="0" viewBox="0 0 32 32" xml:space="preserve" enable-background="new 0 0 128 128" height="32" width="32"><desc>File Folder Streamline Emoji: https://streamlinehq.com</desc><g><path d="M10.480925 3.1188v-0.53935c0 -1.075625 -0.64475 -1.2988 -1.351475 -1.1717l-5.9205 1.0694c-0.709825 0.1271 -1.2306 0.765625 -1.2306 1.509575v1.376275c0 0.50215 -0.35025 0.933025 -0.830725 1.019825l-0.105375 0.018575c-0.415375 0.0744 -0.72225 0.446375 -0.72225 0.883425l0.334775 22.947325s-0.0248 0.365775 0.319275 0.390575c0.356475 0.0248 0.62615 -0.247975 0.9826 -0.331675l27.786025 -6.621025c0.41535 -0.0744 0.722225 -0.44635 0.722225 -0.883425V2.31905c0 -0.55485 -0.48355 -0.9764 -1.0136 -0.883425L11.9967 4.439275c-0.790425 0.1395 -1.515775 -0.158075 -1.515775 -1.320475Z" fill="#F3AB47" stroke-width="0.25"></path><path d="m31.05385 22.8703 0.62615 -18.489925c0 -0.55485 -0.48355 -0.9764 -1.0136 -0.883425L13.2242 6.4789c-0.81215 0.1395 -1.422775 0.818325 -1.472375 1.63975l-0.0713 1.1686c-0.0558 0.936125 -0.753225 1.711075 -1.67695 1.86605l-7.0209 1.181c-0.69435 0.1178 -1.2058 0.719125 -1.2058 1.425875l-0.802825 16.85635s0.102275 0.0434 1.2523 -0.247975L29.87595 23.825c0.418475 -0.068175 0.895825 -0.45875 1.1779 -0.9547Z" fill="#00000000" stroke-width="0.25"></path><path d="m2.867975 12.665975 7.055 -1.2058c1.76685 -0.393675 2.048925 -1.0632 2.045825 -2.470475l0.0031 -0.362675c0.0558 -1.060125 0.57035 -1.68625 1.61495 -1.86605l17.256225 -2.99125" fill="none" stroke="#00000000" stroke-width="0.5" stroke-linecap="round" stroke-miterlimit="10"></path></g></svg>