<svg version="1.1" id="Locked--Streamline-Noto-Emoji" xmlns="http://www.w3.org/2000/svg" xmlns:xlink="http://www.w3.org/1999/xlink" x="0" y="0" viewBox="0 0 32 32" xml:space="preserve" enable-background="new 0 0 128 128" height="32" width="32">
  <desc>
    Locked Streamline Emoji: https://streamlinehq.com
  </desc>
  <g>
    <path d="M26.8886 14.81355h-0.00275c-0.03295 -0.672775 -0.746925 -1.301625 -1.979925 -1.67235 -2.638975 -0.793625 -5.5663 -1.257725 -8.90555 -1.285175 -3.336475 0.02745 -6.2638 0.49155 -8.90555 1.285175 -1.232975 0.370725 -1.941475 0.999575 -1.977175 1.67235h-0.0055v13.7524c-0.0302 0.7689 0.829325 1.592725 2.8175 2.155675 2.054075 0.582175 4.8331 0.958375 8.067975 0.958375s6.013925 -0.3762 8.068 -0.958375c2.084275 -0.590425 2.927325 -1.466425 2.8065 -2.265525h0.010975V14.81355Z" fill="#E2A610" stroke-width="0.25"></path>
    <path d="M5.11215 15.014025h21.77645" fill="#E2A610" stroke-width="0.25"></path>
    <g>
      <path d="m18.1698 27.319225 -1.233 -2.90535c0.703 -0.340525 1.18905 -1.06 1.18905 -1.8948 0 -1.16435 -0.94465 -2.10625 -2.10625 -2.10625s-2.10625 0.94465 -2.10625 2.10625c0 0.782625 0.4284 1.4664 1.06275 1.828875l-1.147875 2.9905c-0.145525 0.37895 0.134575 0.782625 0.53825 0.782625h3.273325c0.4119 0 0.689275 -0.4229 0.53 -0.80185Z" fill="#4E342E" stroke-width="0.25"></path>
      <path d="M18.0517 27.0501H13.935325l-0.10985 0.28835c-0.145525 0.37895 0.134575 0.782625 0.53825 0.782625h3.273325c0.41465 0 0.692025 -0.4229 0.53 -0.80185l-0.11535 -0.269125Z" fill="#9E740B" stroke-width="0.25"></path>
      <path d="M15.162825 23.79325c0.049425 -0.1428 -0.00275 -0.296575 -0.123575 -0.38445 -0.16475 -0.120825 -0.3872 -0.335025 -0.52725 -0.67555 -0.510775 -1.230225 0.096125 -1.7767 0.096125 -1.7767 -0.4284 0.38445 -0.6975 0.9419 -0.6975 1.562525 0 0.782625 0.428375 1.4664 1.062725 1.828875l0.189475 -0.5547Z" fill="#9E740B" stroke-width="0.25"></path>
      <path d="M17.49975 21.0197s0.604125 1.213775 -0.087875 1.990925c-0.236175 0.263625 -0.436625 0.403675 -0.584925 0.472325 -0.145525 0.06865 -0.21145 0.24165 -0.1428 0.3872l0.2554 0.538225c0.703 -0.340525 1.18905 -1.06 1.18905 -1.8948 -0.0055 -0.892475 -0.62885 -1.493875 -0.62885 -1.493875Z" fill="#9E740B" stroke-width="0.25"></path>
    </g>
    <path d="M24.44185 12.95995c-2.501675 -0.727725 -5.277975 -1.1506 -8.441475 -1.178075 -3.163475 0.024725 -5.939775 0.45035 -8.44145 1.175325 -2.507175 0.727725 -2.757075 2.542875 0.793625 3.515 1.946975 0.532725 4.5832 0.876 7.647825 0.876s5.700875 -0.343275 7.64785 -0.876c3.550675 -0.969375 3.3008 -2.787275 0.793625 -3.51225Z" fill="#FDD835" stroke-width="0.25"></path>
    <g>
      <path d="M23.7306 14.679s-0.1016 0.472325 -1.43345 0.472325 -1.6147 -0.472325 -1.6147 -0.472325V8.623875c0 -2.751575 -2.10075 -4.986875 -4.6848 -4.986875s-4.684825 2.23805 -4.684825 4.986875V14.68175s-0.579425 0.472325 -1.633925 0.472325 -1.411475 -0.472325 -1.411475 -0.472325V8.623875c0 -4.432175 3.4683 -8.035025 7.730225 -8.035025s7.730225 3.6056 7.730225 8.035025V14.679Z" fill="#84B0C1" stroke="#84B0C1" stroke-width="0.4895" stroke-miterlimit="10"></path>
      <path d="M12.5156 3.516175c-1.411475 0.8403 -1.628425 1.408725 -2.021125 1.6696 -0.291075 0.192225 -0.678275 0.03845 -0.425625 -0.62885 0.216925 -0.571175 0.7387 -1.653125 2.040325 -2.4852C14.35 0.638275 16.283225 0.704175 16.178875 1.799875c-0.087875 0.96935 -2.158425 0.821075 -3.663275 1.7163Z" fill="#B9E4EA" stroke-width="0.25"></path>
    </g>
  </g>
</svg>