<svg version="1.1" id="Locked-With-Pen--Streamline-Noto-Emoji" xmlns="http://www.w3.org/2000/svg" xmlns:xlink="http://www.w3.org/1999/xlink" x="0" y="0" viewBox="0 0 32 32" xml:space="preserve" enable-background="new 0 0 128 128" height="32" width="32">
  <desc>
    Locked With Pen Streamline Emoji: https://streamlinehq.com
  </desc>
  <path d="M30.165275 15.0451h-0.0027c-0.0325 -0.66355 -0.736675 -1.283775 -1.95275 -1.6494 -2.60275 -0.782725 -5.4899 -1.240425 -8.783275 -1.267525 -3.2907 0.0271 -6.177825 0.4848 -8.7833 1.267525 -1.216075 0.365625 -1.914825 0.98585 -1.950025 1.6494h-0.005425v13.5636c0 0.755625 0.817925 1.57085 2.7788 2.126075 2.025875 0.574175 4.76675 0.945225 7.957225 0.945225s5.931375 -0.37105 7.957225 -0.945225c2.055675 -0.5823 2.814025 -1.44085 2.781525 -2.234425v-13.45525Z" fill="#E2A610" stroke-width="0.25"></path>
  <g>
    <path d="m21.56615 27.3791 -1.21605 -2.865475c0.69335 -0.33585 1.172725 -1.04545 1.172725 -1.8688 0 -1.14835 -0.931675 -2.077325 -2.077325 -2.077325s-2.077325 0.9317 -2.077325 2.077325c0 0.7719 0.4225 1.443575 1.048125 1.8038l-1.1321 2.949425c-0.14355 0.37375 0.132725 0.771875 0.53085 0.771875h3.2284c0.40625 0 0.6825 -0.417075 0.5227 -0.790825Z" fill="#4E342E" stroke-width="0.25"></path>
    <path d="M21.4524 27.11095H17.39255l-0.10835 0.2844c-0.14355 0.37375 0.132725 0.771875 0.53085 0.771875h3.2284c0.40895 0 0.6825 -0.417075 0.5227 -0.79085l-0.11375 -0.265425Z" fill="#9E740B" stroke-width="0.25"></path>
    <path d="M18.600475 23.901525c0.04875 -0.140825 -0.0027 -0.2925 -0.121875 -0.379175 -0.1625 -0.119175 -0.381875 -0.330425 -0.52 -0.66625 -0.503775 -1.213375 0.094775 -1.752325 0.094775 -1.752325 -0.4225 0.37915 -0.687925 0.928975 -0.687925 1.54105 0 0.7719 0.422525 1.443575 1.04815 1.8038l0.186875 -0.5471Z" fill="#9E740B" stroke-width="0.25"></path>
    <path d="M20.905325 21.16605s0.595825 1.1971 -0.086675 1.963575c-0.232925 0.260025 -0.430625 0.39815 -0.576875 0.46585 -0.14355 0.0677 -0.20855 0.23835 -0.14085 0.381875l0.251875 0.53085c0.69335 -0.33585 1.17275 -1.045425 1.17275 -1.868775 -0.002725 -0.880225 -0.620225 -1.473375 -0.620225 -1.473375Z" fill="#9E740B" stroke-width="0.25"></path>
  </g>
  <path d="M27.754825 13.21695c-2.47005 -0.715025 -5.205525 -1.134825 -8.325575 -1.1592 -3.12005 0.024375 -5.858225 0.444175 -8.325575 1.1592 -2.47275 0.717725 -2.719225 2.50795 0.782725 3.466725 1.92025 0.525425 4.5203 0.863975 7.54285 0.863975s5.6226 -0.33855 7.54285 -0.863975c3.501925 -0.958775 3.255475 -2.751725 0.782725 -3.466725Z" fill="#FDD835" stroke-width="0.25"></path>
  <g>
    <path d="M19.42655 1.012975c-4.203425 0 -7.6241 3.5561 -7.6241 7.924725v5.9747s0.352075 0.46585 1.3921 0.46585 1.611475 -0.46585 1.611475 -0.46585v-5.972c0 -2.7138 2.071925 -4.9184 4.620525 -4.9184 0.37375 0 0.73395 0.05145 1.080625 0.140825V1.094225c-0.352075 -0.05145 -0.7123 -0.08125 -1.080625 -0.08125Z" fill="#84B0C1" stroke="#84B0C1" stroke-width="0.4895" stroke-miterlimit="10"></path>
    <path d="M15.591475 2.4782c-1.2865 0.82065 -1.798375 1.88775 -2.01235 2.4511 -0.24915 0.66085 0.132725 0.8125 0.4198 0.620225 0.390025 -0.2573 0.601275 -0.81795 1.993375 -1.6467 1.4842 -0.88565 3.526325 -0.736675 3.6157 -1.69275 0.0975 -1.08065 -1.8065 -1.14565 -4.016525 0.268125Z" fill="#B9E4EA" stroke-width="0.25"></path>
  </g>
  <g>
    <path d="M1.14765 31.008325c0.051475 -0.30875 0.268125 -0.56065 0.427925 -0.8694 0.17875 -0.352075 0.346675 -0.7096 0.4523 -1.091475 0.165225 -0.59585 0.186875 -1.224175 0.333125 -1.82545 0.195025 -0.801675 0.8721 -1.671075 1.8417 -2.1315 1.5113 -0.715 2.21275 -1.5194 2.656925 -1.917525l2.46735 2.350875c-0.4875 0.609375 -1.0644 1.34065 -1.362325 1.912125 -0.14895 0.287075 -0.46855 1.207925 -1.056275 1.7767 -0.492925 0.476675 -1.11585 0.8125 -1.784825 0.95875 -0.2627 0.056875 -0.530825 0.086675 -0.79355 0.146275 -0.65 0.14895 -1.24585 0.4848 -1.774 0.89375 -0.21395 0.165225 -0.463125 0.411675 -0.7448 0.43605 -0.108325 0.008125 -0.2248 0 -0.30875 -0.075825 -0.07855 -0.067725 -0.075825 -0.195 -0.075825 -0.195s-0.13 0.073125 -0.24105 -0.040625c-0.083975 -0.086675 -0.056875 -0.216675 -0.037925 -0.327725Z" fill="#84B0C1" stroke-width="0.25"></path>
    <path d="M26.917925 1.23235c-0.2627 -0.219375 -0.723125 -0.6175 -0.723125 -0.6175 -0.260025 -0.216675 -0.59585 -0.3196 -0.942525 -0.2898s-0.617525 0.1625 -0.8694 0.444175L21.441575 3.7999c-1.335225 1.37585 -4.57445 4.723425 -4.785725 5.0105 -0.21395 0.2844 -0.062275 0.43605 -0.0352 0.46585 0.34125 0.3575 0.942525 0.392725 1.37045 0.14355 0.427925 -0.249175 0.687925 -0.72855 0.755625 -1.218775 0.04335 -0.3196 0.0596 -0.476675 0.2898 -0.69335 0.08125 -0.078525 5.6551 -5.630725 5.6551 -5.630725 0.132725 -0.1273 0.427925 -0.3521 0.847725 0.005425 0.0623 0.05145 1.30275 1.1321 1.30275 1.1321l0.853125 -1.02105 -0.0054 -0.056875c-0.008125 -0.067725 -0.008125 -0.067725 -0.7719 -0.7042Z" fill="#FFC107" stroke-width="0.25"></path>
    <path d="M26.189375 1.931125c-0.1625 -0.23835 -0.552525 -0.571475 -0.817925 -0.679825 -0.30335 -0.124575 -0.522725 0.01085 -0.7096 0.184175 -0.330425 0.30605 -2.5134 2.69755 -2.990075 3.3232 -0.05415 0.0704 -0.108325 0.151675 -0.108325 0.238325 1.251275 -1.251275 2.524225 -2.489 2.930475 -2.86005 0.31145 -0.284375 0.557925 -0.49835 0.866675 -0.2925 0.0298 0.01895 0.203125 0.1598 0.525425 0.414375l0.30335 -0.3277Z" fill="#D89A00" stroke-width="0.25"></path>
    <path d="M5.559625 23.6713c0.63375 -0.863975 3.1688 -3.826925 10.270175 -11.429375l-0.005425 -0.0054 0.051475 -0.59315c6.12635 -6.77095 11.4673 -10.703525 11.900625 -11.03665 0.43605 -0.330425 1.40565 0.11375 2.123375 0.769175 0.717725 0.655425 1.17815 1.625025 0.880225 2.080025 -0.297925 0.455025 -3.986725 6.02345 -10.397475 12.526275l-0.568775 0.005425c-7.228675 7.504925 -10.061625 10.099575 -10.8904 10.779375 -0.151675 0.121875 -0.36835 0.11645 -0.509175 -0.018975L5.60295 24.1805c-0.138125 -0.135425 -0.157075 -0.3521 -0.043325 -0.509175Z" fill="#424242" stroke-width="0.25"></path>
    <g>
      <path d="M29.61005 5.346375c-0.1327 0.01625 -0.18145 -0.0975 -0.254575 -0.2004 -0.863975 -1.17275 -1.912125 -2.24525 -3.1688 -2.9982 -0.056875 -0.0325 -0.113775 -0.062275 -0.119175 -0.203125 -0.002725 -0.14355 0.40355 -0.5173 0.717725 -0.6825 0.1679 -0.089375 0.498325 -0.008125 0.701475 0.151675 0.95875 0.6798 1.722525 1.53835 2.4619 2.448375 0.186875 0.232925 0.4198 0.430625 0.30605 0.7475 -0.11645 0.295225 -0.3223 0.6419 -0.6446 0.7367Z" fill="#FFC107" stroke-width="0.25"></path>
    </g>
    <path d="M26.89085 1.5736c-0.135425 0.005425 -0.333125 0.105625 -0.33855 0.24105 -0.0027 0.138125 0.07855 0.20855 0.2627 0.278975 0.406275 0.154375 0.585025 0.34125 0.9642 0.739375 0.11645 0.121875 0.4523 0.086675 0.395425 -0.24105 -0.04875 -0.2925 -0.170625 -0.427925 -0.341275 -0.609375 -0.30875 -0.330425 -0.658125 -0.4198 -0.9425 -0.408975Z" fill="#FFEE58" stroke-width="0.25"></path>
    <path d="M21.1301 8.813125c-1.05625 1.0075 -2.369825 2.1044 -2.581075 1.89585 -0.20585 -0.203125 0.8423 -1.4571 1.351475 -2.02315 0.40085 -0.446875 1.849825 -2.24255 2.40505 -1.75775 0.4875 0.427925 -0.587725 1.3244 -1.17545 1.88505Z" fill="#757575" stroke-width="0.25"></path>
    <path d="M11.252625 18.086625c-0.498325 0.6148 -1.646675 2.0015 -1.500425 2.142325 0.14625 0.14085 0.752925 -0.2898 0.95875 -0.455 1.652125 -1.30815 3.155275 -2.805875 4.47155 -4.449875 0.295225 -0.36835 0.593125 -0.78815 0.560625 -1.2594 -0.008125 -0.124575 -0.0677 -0.27355 -0.192275 -0.287075 -0.5769 -0.07585 -1.746925 1.451675 -2.08275 1.801075 -0.7746 0.801675 -1.514 1.63855 -2.215475 2.50795Z" fill="#757575" stroke-width="0.25"></path>
    <g>
      <path d="M21.252 15.099275c-1.10775 -1.817325 -2.800475 -3.47485 -4.50405 -4.403825 0 0 -0.138125 0.029775 -0.2275 0.140825 -0.089375 0.11105 -0.1246 0.23835 -0.1246 0.23835 1.703575 0.896475 3.412575 2.562125 4.495925 4.3984 0 0 0.1002 -0.0325 0.2248 -0.154375 0.124575 -0.121875 0.135425 -0.219375 0.135425 -0.219375Z" fill="#FFC107" stroke-width="0.25"></path>
    </g>
    <g>
      <path d="M20.425925 15.9795c-1.107725 -1.79025 -2.83025 -3.415275 -4.50945 -4.338825 0 0 -0.092075 0.11375 -0.121875 0.325 -0.0271 0.213975 0.027075 0.349375 0.027075 0.349375 1.4869 0.8721 2.88985 2.169425 3.9055 3.753825 0 0 0.205825 0.083975 0.379175 0.051475 0.17605 -0.0325 0.319575 -0.14085 0.319575 -0.14085Z" fill="#212121" stroke-width="0.25"></path>
    </g>
    <g>
      <path d="M1.7462 31.216875c-0.24915 0.205825 -0.2979 0.251875 -0.352075 0.21665s0.021675 -0.14625 0.37105 -0.59855 2.578375 -2.721925 2.578375 -2.721925l0.2302 0.1923s-2.44025 2.5865 -2.82755 2.911525Z" stroke-width="0.25"></path>
    </g>
    <path d="M4.172925 27.991175c0 0.344025 0.3724 0.559025 0.670325 0.387025 0.138275 -0.079825 0.22345 -0.227375 0.22345 -0.387025 0 -0.344 -0.372425 -0.559025 -0.670325 -0.387 -0.138275 0.079825 -0.22345 0.22735 -0.22345 0.387" stroke-width="0.25"></path>
    <path d="M9.2403 26.498875c-0.37375 -0.503775 -0.9398 -1.199825 -1.6521 -1.88505 -0.6419 -0.6175 -1.27565 -1.02105 -1.7713 -1.272925 -0.105625 0.1327 -0.192275 0.24375 -0.254575 0.333125 -0.11375 0.157075 -0.0948 0.37375 0.04605 0.50645l2.808575 2.56755c0.14085 0.132725 0.357525 0.14085 0.509175 0.018975 0.083975 -0.070425 0.186875 -0.1571 0.314175 -0.26815Z" fill="#FFC107" stroke-width="0.25"></path>
    <path d="M7.084425 24.351125c0.278975 0.24915 0.750225 0.85585 0.568775 1.161875 -0.11105 0.1896 -0.33585 0.0894 -0.5146 -0.111025 -0.124575 -0.138125 -0.3548 -0.362925 -0.490225 -0.490225 -0.3223 -0.30875 -0.993975 -0.62835 -0.76375 -0.863975 0.268125 -0.27355 0.975 0.1002 1.1998 0.30335Z" fill="#FFEE58" stroke-width="0.25"></path>
    <path d="M2.85935 27.07305c0.1625 -0.43605 0.427925 -0.842325 0.8017 -1.118575 0.18415 -0.135425 0.40625 -0.24105 0.63375 -0.222075 0.2275 0.01895 0.46855 0.203125 0.455 0.430625 -0.027075 0.43875 -0.5227 0.769175 -0.677075 0.947925 -0.6771 0.780025 -0.8667 1.730675 -1.40295 1.969 -0.1598 0.070425 -0.2573 -0.11105 -0.17335 -0.303325 0.20315 -0.460425 0.200425 -1.267525 0.362925 -1.703575Z" fill="#A8E3F0" stroke-width="0.25"></path>
  </g>
  <g>
    <path d="M20.07385 1.045475v3.027975c2.242525 0.335825 3.9732 2.386075 3.9732 4.86695v5.9747s0.28165 0.46585 1.592525 0.46585c1.31355 0 1.413775 -0.46585 1.413775 -0.46585V8.9404c0 -4.143825 -3.076725 -7.553675 -6.9795 -7.894925Z" fill="#84B0C1" stroke="#84B0C1" stroke-width="0.4895" stroke-miterlimit="10"></path>
  </g>
</svg>