<svg version="1.1" id="Old-Key--Streamline-Noto-Emoji" xmlns="http://www.w3.org/2000/svg" xmlns:xlink="http://www.w3.org/1999/xlink" x="0" y="0" viewBox="0 0 32 32" xml:space="preserve" enable-background="new 0 0 128 128" height="32" width="32">
  <desc>
    Old Key Streamline Emoji: https://streamlinehq.com
  </desc>
  <g>
    <path d="M29.825 8.155 26.755 4.5c-1.78 -2.12 -4.9525 -2.395 -7.0725 -0.615s-2.395 4.9525 -0.615 7.0725l3.0725 3.6575c1.78 2.12 4.9525 2.395 7.0725 0.615s2.3925 -4.955 0.6125 -7.075zm-6 5.45c-0.47 -0.56 -0.675 -1.2475 -0.68 -1.9325 -0.005 -0.785 -0.4925 -1.655 -1.3925 -1.815 -0.6775 -0.12 -1.045 0.01 -1.4025 -0.39 -1.175 -1.3125 -0.8325 -3.4375 0.72 -4.48 1.1425 -0.7675 2.68 -0.6825 3.6875 0.1975 0.5025 0.44 0.37 0.9825 0.45 1.8525 0.0825 0.88 0.5825 1.3975 1.57 1.6025 0.7975 0.1675 1.55 0.59 2.0225 1.36 0.7 1.1375 0.5125 2.6725 -0.4425 3.665 -1.29 1.3525 -3.4 1.29 -4.5325 -0.06z" fill="#2F7889" stroke-width="0.25"></path>
    <path d="m5.575 25.895 3.2625 3.8825c0.09 0.1075 0.225 0.17 0.3675 0.17 0.115 0 0.2275 -0.04 0.315 -0.115l1.215 -1.0375c0.0975 -0.0825 0.16 -0.2 0.1725 -0.3275 0.0125 -0.13 -0.025 -0.255 -0.11 -0.355l-1.3025 -1.55c-0.1125 -0.1325 -0.095 -0.3325 0.0375 -0.445l0.7825 -0.6575c0.1325 -0.1125 0.3325 -0.095 0.445 0.0375l1.3025 1.55c0.09 0.1075 0.225 0.17 0.3675 0.17 0.115 0 0.2275 -0.04 0.315 -0.115l1.24 -1.0425c0.205 -0.1725 0.235 -0.4775 0.0625 -0.6825l-3.25 -3.87 -5.2225 4.3875z" fill="#2F7889" stroke-width="0.25"></path>
    <path d="m29.2575 7.4975 -3.0725 -3.6575c-1.78 -2.12 -4.9525 -2.395 -7.0725 -0.615s-2.395 4.9525 -0.615 7.0725l0.7375 0.8775 -1.6 1.345 -0.0175 -0.0225 -1.245 -0.6475c-0.1175 -0.0625 -0.2625 -0.045 -0.365 0.04l-0.6525 0.5475c-0.0875 0.0725 -0.1325 0.185 -0.115 0.3 0.0825 0.5975 0.495 1.38 0.495 1.38L1.055 26.45s-0.2825 0.3875 0.4425 1.25 1.155 0.65 1.155 0.65l2.925 -2.4575 2.99 3.56c0.09 0.1075 0.225 0.17 0.3675 0.17 0.115 0 0.2275 -0.04 0.315 -0.115l1.215 -1.0375c0.0975 -0.0825 0.16 -0.2 0.1725 -0.3275 0.0125 -0.13 -0.025 -0.255 -0.11 -0.355l-1.3025 -1.55c-0.1125 -0.1325 -0.095 -0.3325 0.0375 -0.445l0.7825 -0.6575c0.1325 -0.1125 0.3325 -0.095 0.445 0.0375l1.3025 1.55c0.09 0.1075 0.225 0.17 0.3675 0.17 0.115 0 0.2275 -0.04 0.315 -0.115l1.24 -1.0425c0.205 -0.1725 0.235 -0.4775 0.0625 -0.6825L10.8 21.505l6.5325 -5.49s0.61 0.455 1.27 0.7075c0.1125 0.0425 0.24 0.0225 0.3325 -0.055l0.6375 -0.535c0.1025 -0.0875 0.1425 -0.2275 0.1025 -0.355l-0.44 -1.36 1.6 -1.345 0.7375 0.8775c1.78 2.12 4.9525 2.395 7.0725 0.615 2.1175 -1.7775 2.3925 -4.95 0.6125 -7.0675zm-1.465 5.5125c-1.295 1.35 -3.405 1.285 -4.5375 -0.0625 -0.47 -0.56 -0.6925 -1.2475 -0.68 -1.9325 0.01 -0.595 -0.4175 -1.1075 -1.0075 -1.2 -0.6775 -0.1075 -1.3175 -0.445 -1.7875 -1.0025 -1.1325 -1.3475 -0.8325 -3.4375 0.72 -4.48 1.1425 -0.7675 2.685 -0.6875 3.6875 0.1975 0.6775 0.5975 1 1.4125 0.9925 2.2275 -0.005 0.62 0.42 1.125 1.03 1.2275 0.805 0.1325 1.55 0.59 2.0225 1.36 0.7025 1.1375 0.515 2.67 -0.44 3.665z" fill="#90A4AF" stroke-width="0.25"></path>
    <path d="m15.735 14.115 -0.595 0.5s0.6825 0.4525 0.81 1.125c0.13 0.675 -0.1725 1.58 -0.1725 1.58l1.5525 -1.305s-0.2775 -0.1675 -0.7875 -0.81c-0.5075 -0.6425 -0.8075 -1.09 -0.8075 -1.09z" fill="#2F7889" stroke-width="0.25"></path>
    <path d="m19.2375 11.175 -0.485 0.4075s0.6675 0.57 0.7525 1.2525c0.085 0.6825 -0.27 1.585 -0.27 1.585l1.6 -1.345 -1.5975 -1.9z" fill="#2F7889" stroke-width="0.25"></path>
    <path d="M16.2425 12.1075c0.12 0.04 1.325 0.6675 1.325 0.6675l1.28 2.43s-0.85 -0.305 -1.6125 -1.415 -0.9925 -1.6825 -0.9925 -1.6825z" fill="#B9E4EA" stroke-width="0.25"></path>
    <g>
      <path d="M23.495 3.51c-0.0825 0.015 -0.17 0.0075 -0.2525 -0.025 -0.7875 -0.3075 -1.7 -0.255 -2.4475 0.1425 -0.2275 0.12 -0.5075 0.035 -0.63 -0.1925 -0.12 -0.2275 -0.035 -0.51 0.1925 -0.63 0.9825 -0.5225 2.1875 -0.5925 3.225 -0.1875 0.24 0.095 0.3575 0.365 0.2625 0.6025 -0.06 0.1575 -0.195 0.2625 -0.35 0.29z" fill="#B9E4EA" stroke-width="0.25"></path>
    </g>
    <g>
      <path d="M6.0725 26.145c-0.165 -0.1975 -0.285 -0.3675 -0.09 -0.5325L10.28 22c0.2925 -0.245 0.44 -0.2525 0.605 -0.055 0.165 0.1975 0.1525 0.3625 -0.145 0.6675L6.58 26.325c-0.195 0.165 -0.3425 0.015 -0.5075 -0.18z" fill="#2F7889" stroke-width="0.25"></path>
    </g>
    <g>
      <path d="M2.225 26.575c-0.0775 -0.3625 0.335 -0.6875 0.4675 -0.7975l9.0875 -7.635c0.205 -0.1725 0.36 -0.19 0.41 0.0625 0.035 0.1775 -0.4775 0.655 -0.61 0.7675l-8.7925 7.7725c-0.1325 0.1075 -0.4875 0.18 -0.5625 -0.17z" fill="#B9E4EA" stroke-width="0.25"></path>
    </g>
  </g>
</svg>