<svg version="1.1" id="Key--Streamline-Noto-Emoji" xmlns="http://www.w3.org/2000/svg" xmlns:xlink="http://www.w3.org/1999/xlink" x="0" y="0" viewBox="0 0 32 32" xml:space="preserve" enable-background="new 0 0 128 128" height="32" width="32">
  <desc>
    Key Streamline Emoji: https://streamlinehq.com
  </desc>
  <g>
    <path d="M26.9425 3.79c-3.625 -2.87 -8.9825 -1.56 -11.68 0.8 -3.02 2.64 -3.105 6.8125 -1.5325 10.22l-10.895 10.6925c-0.4425 0.435 -0.8975 3.5475 -0.875 4.16l1.475 1.03s2.4975 0.7475 3.585 -0.1025 2.0425 -2.39 1.93 -3.0825c-0.065 -0.3975 0.02 -0.7675 0.2775 -1.02 0.32 -0.315 0.83 -0.3675 1.3475 -0.195 0.3975 0.1325 0.84 0.02 1.1375 -0.2725l0.105 -0.1025c0.4225 -0.395 0.47 -0.855 0.3875 -1.24 -0.1275 -0.5975 0.09 -1.0925 0.425 -1.53 0.29 -0.38 0.84 -0.54 1.32 -0.5475 0.865 -0.0125 1.425 -0.1975 2.0375 -0.7975l1.595 -1.56c3.59 1.6 7.9925 0.8775 10.85 -2.17 3.665 -3.91 2.7275 -10.9425 -1.49 -14.2825zm-2.16 8.3375c-1 0.98 -2.62 0.98 -3.62 0s-1 -2.5725 0 -3.5525c1 -0.98 2.62 -0.98 3.62 0s1 2.5725 0 3.5525z" fill="#9E740B" stroke-width="0.25"></path>
    <path d="M26.9425 3.79c-3.72 -3.72 -9.75 -3.72 -13.47 0 -2.8475 2.8475 -3.5125 7.045 -2.0025 10.5275L1.9575 23.77c-0.4475 0.4475 -0.69 1.06 -0.6675 1.69l0.11 2.9375c0.5425 0.305 0.56 1.2675 0.56 1.2675l2.475 0.19c0.6325 0.02 1.245 -0.2225 1.69 -0.6675l0.785 -0.785c0.49 -0.49 0.7675 -1.1825 0.645 -1.8625 -0.0775 -0.4225 0.0075 -0.8175 0.275 -1.085 0.315 -0.315 0.8075 -0.375 1.315 -0.2175 0.4225 0.1325 0.8825 0.0475 1.1975 -0.265l0.1075 -0.1075c0.4275 -0.4075 0.475 -0.88 0.3925 -1.275 -0.1275 -0.615 0.0925 -1.1225 0.4275 -1.5725 0.2925 -0.3925 0.85 -0.555 1.3325 -0.5625 0.8725 -0.0125 1.44 -0.2025 2.0575 -0.82l1.495 -1.4875c3.5325 1.6625 7.8725 1.035 10.7925 -1.885 3.715 -3.7225 3.715 -9.7525 -0.005 -13.4725zm-3.4 7.055c-1.01 1.01 -2.6475 1.01 -3.655 0 -1.01 -1.01 -1.01 -2.6475 0 -3.655 1.01 -1.01 2.6475 -1.01 3.655 0 1.01 1.0075 1.01 2.645 0 3.655z" fill="#FFCA28" stroke-width="0.25"></path>
    <path d="M1.4 28.3975s0.31 0.21 0.56 1.2675l11.87 -12.0675c0.3875 -0.425 -1.35 -0.205 -1.87 0.3125L1.4 28.3975z" fill="#DBA010" stroke-width="0.25"></path>
    <path d="M15.1075 4.98c-0.975 0.53 -2.075 1.95 -2.3775 4 -0.275 1.86 -0.1575 3.1525 0.4675 4.24 0.7075 1.2275 1.67 0.5775 1.2825 -0.6175 -0.255 -0.7875 -0.32 -1.085 -0.355 -1.92 -0.0275 -0.6525 0.04 -1.31 0.225 -1.935 0.46 -1.55 1.5275 -2.5675 1.84 -3.07 0.3975 -0.6425 -0.23 -1.165 -1.0825 -0.6975z" fill="#FFF59D" stroke-width="0.25"></path>
    <path d="M8.2625 19.93c-0.71 0.605 0.025 -1.2775 0.57 -1.9125C9.55 17.1775 11.25 15.395 11.55 15.2425c0.41 -0.2075 0.385 0.9375 0.2175 1.1475C11.1725 17.125 8.975 19.325 8.2625 19.93z" fill="#FFF59D" stroke-width="0.25"></path>
  </g>
</svg>