<svg version="1.1" id="Unlocked--Streamline-Noto-Emoji" xmlns="http://www.w3.org/2000/svg" xmlns:xlink="http://www.w3.org/1999/xlink" x="0" y="0" viewBox="0 0 32 32" xml:space="preserve" enable-background="new 0 0 128 128" height="32" width="32">
  <desc>
    Unlocked Streamline Emoji: https://streamlinehq.com
  </desc>
  <g>
    <path d="M26.258875 15.789h-0.0026c-0.031025 -0.633875 -0.703725 -1.22635 -1.8654 -1.575625 -2.486375 -0.747725 -5.2444 -1.184975 -8.390525 -1.21085 -3.143525 0.025875 -5.90155 0.463125 -8.3905 1.21085 -1.161675 0.349275 -1.8292 0.94175 -1.862825 1.575625h-0.005175v12.95705c-0.02845 0.724425 0.78135 1.5006 2.654525 2.031 1.935275 0.5485 4.5536 0.90295 7.6014 0.90295s5.666125 -0.35445 7.6014 -0.90295c1.963725 -0.556275 2.758025 -1.3816 2.644175 -2.1345h0.01035V15.789Z" fill="#E2A610" stroke-width="0.25"></path>
    <path d="M5.74185 15.977875h20.517025" fill="#E2A610" stroke-width="0.25"></path>
    <g>
      <path d="m18.0443 27.571425 -1.161675 -2.737325c0.662325 -0.320825 1.120275 -0.9987 1.120275 -1.785225 0 -1.097 -0.89 -1.984425 -1.984425 -1.984425s-1.984425 0.890025 -1.984425 1.984425c0 0.737375 0.4036 1.3816 1.001275 1.723125l-1.081475 2.817525c-0.137125 0.35705 0.126775 0.737375 0.5071 0.737375h3.084025c0.388075 0 0.6494 -0.39845 0.499325 -0.755475Z" fill="#4E342E" stroke-width="0.25"></path>
      <path d="M17.93305 27.317875H14.05475l-0.1035 0.27165c-0.137125 0.35705 0.126775 0.737375 0.5071 0.737375h3.084025c0.390675 0 0.652 -0.39845 0.49935 -0.755475l-0.108675 -0.25355Z" fill="#9E740B" stroke-width="0.25"></path>
      <path d="M15.21125 24.249375c0.046575 -0.13455 -0.0026 -0.279425 -0.116425 -0.362225 -0.15525 -0.11385 -0.3648 -0.31565 -0.49675 -0.636475 -0.48125 -1.159075 0.09055 -1.67395 0.09055 -1.67395 -0.403625 0.362225 -0.657175 0.887425 -0.657175 1.47215 0 0.737375 0.403625 1.3816 1.001275 1.723125l0.178525 -0.522625Z" fill="#9E740B" stroke-width="0.25"></path>
      <path d="M17.413 21.636225s0.5692 1.143575 -0.082775 1.875775c-0.2225 0.248375 -0.411375 0.380325 -0.5511 0.445 -0.137125 0.0647 -0.199225 0.2277 -0.134525 0.364825l0.2406 0.5071c0.66235 -0.320825 1.1203 -0.9987 1.1203 -1.785225 -0.005175 -0.84085 -0.5925 -1.407475 -0.5925 -1.407475Z" fill="#9E740B" stroke-width="0.25"></path>
    </g>
    <path d="M23.953625 14.0426c-2.357 -0.685625 -4.972725 -1.08405 -7.95325 -1.109925 -2.98055 0.023275 -5.596275 0.4243 -7.953275 1.10735 -2.362175 0.685625 -2.5976 2.3958 0.747725 3.3117 1.834375 0.501925 4.31815 0.825325 7.20555 0.825325s5.37115 -0.3234 7.205525 -0.825325c3.345325 -0.9133 3.1099 -2.626075 0.747725 -3.309125Z" fill="#FDD835" stroke-width="0.25"></path>
    <g>
      <path d="M23.0248 10.4877s-0.09575 0.445 -1.35055 0.445 -1.003875 -0.445 -1.003875 -0.445v-1.567875c0 -2.81755 -1.6843 -5.474675 -4.6726 -5.474675 -2.432025 0 -4.413875 2.108625 -4.413875 4.698475v7.5186s-0.545925 0.445025 -1.539425 0.445025 -1.32985 -0.445025 -1.32985 -0.445025v-7.516c0.002575 -4.17585 3.2703 -7.572925 7.28575 -7.572925s7.024425 3.821375 7.024425 8.346525v1.567875Z" fill="#84B0C1" stroke="#84B0C1" stroke-width="0.4895" stroke-miterlimit="10"></path>
      <path d="M10.103975 7.890075c-0.1009 0.5097 -0.248375 1.67655 -0.63645 1.6481 -0.323425 -0.023275 -0.37 -0.68045 -0.372575 -1.1979s0.155225 -2.12675 0.78135 -3.60925c0.23545 -0.55885 1.226375 -2.10345 2.194 -1.606675 0.633875 0.325975 -0.27425 1.4618 -0.654575 1.9275 -0.5071 0.623525 -1.094425 1.73865 -1.31175 2.838225Z" fill="#B9E4EA" stroke-width="0.25"></path>
      <path d="M19.96405 15.55615c0 0.651275 1.3842 1.058325 2.49155 0.7327 0.513925 -0.15115 0.8305 -0.430425 0.8305 -0.7327 0 -0.651275 -1.384175 -1.058325 -2.491525 -0.732675 -0.513925 0.151125 -0.830525 0.430425 -0.830525 0.732675" fill="#9E740B" stroke-width="0.25"></path>
    </g>
  </g>
</svg>